<svg xmlns="http://www.w3.org/2000/svg" width="295" height="203" viewBox="0 0 295 203"><g transform="translate(-1562.25 -3593.632)"><rect width="295" height="203" transform="translate(1562.25 3593.632)" fill="#f0e8fc"/><rect width="294" height="202" transform="translate(1562.75 3594.132)" fill="#f0e8fc"/><path d="M1856.75,3796.632l-141.056-91.377-152.944,91.377Z" fill="#caccf9"/><path d="M1672.5,3707l-4.112,39.061h49.752V3707.82Z" fill="#ffcebf"/><path d="M1722.255,3796.632l-4.112-72.777h-.411a24.414,24.414,0,0,1-45.228,0h-.411l-4.112,72.777Z" fill="#e8eae9"/><path d="M1715.265,3719.332v-30.426c2.879-5.345,4.112-19.736,4.112-19.736v-35.361l-26.315-12.746-21.792,13.157-5.756,15.213,4.523,27.96s1.645,10.279,4.934,15.213v29.6Z" fill="#ffcebf"/><ellipse cx="10.691" cy="4.934" rx="10.691" ry="4.934" transform="translate(1714.898 3675.864) rotate(-76.114)" fill="#ffcebf"/><ellipse cx="4.934" cy="10.691" rx="4.934" ry="10.691" transform="matrix(0.971, -0.24, 0.24, 0.971, 1658.864, 3659.582)" fill="#ffcebf"/><path d="M1667.57,3666.7c.411,1.645,1.233,4.934,1.645,6.579h.822a36.228,36.228,0,0,1-.822-6.99c.411-2.878-.412-7.812,1.233-11.1,1.645-2.878-.411-7.4,0-9.046s-1.645-4.934,8.635-9.046,16.447-6.99,24.259-6.167,13.98,9.868,10.69,16.447a6.028,6.028,0,0,0,.822,4.934,13.887,13.887,0,0,1,2.467,8.223v12.746h1.234c.822-1.233.822-8.223,3.289-13.98a48.5,48.5,0,0,0,3.7-15.213c.823-11.1,0-23.025-14.8-23.848,0,0-2.467-10.69-20.147-7.4s-25.493,15.213-26.726,21.381-.822,17.269,0,21.381C1664.692,3660.124,1666.747,3664.235,1667.57,3666.7Z" fill="#415a6b"/><path d="M1692.651,3706.586c-11.1,0-17.68-13.98-17.68-13.98v28.371c2.878-1.234,8.634-2.467,13.568-4.523,22.615-8.634,26.726-28.371,26.726-28.371S1706.631,3707,1692.651,3706.586Z" fill="#fca597"/><path d="M1781.053,3796.632c0-3.7-8.635-33.305-9.868-51.4s-6.579-19.325-6.579-19.325l-17.269-2.056c-8.224,7.4-6.99,42.762-4.523,72.777Z" fill="#415a6b"/><path d="M1750.215,3796.632c-1.645-13.568-2.878-25.492-2.467-31.249,1.234-17.269,16.447-39.472,16.447-39.472-11.513-5.756-40.295-10.69-40.295-10.69l-21.381,78.533-.411,2.878Z" fill="#344a5e"/><path d="M1707.864,3796.223c4.523-13.51,10.28-29.067,12.747-34.39,2.878-6.141,5.756-18.013,7.4-25.792,1.645-8.188.822-16.785-3.289-24.154-2.056-3.685-4.934-7.779-9.457-10.235,0,0-.822,17.195-4.112,28.248-2.467,8.188-8.223,42.578-10.279,66.732h6.989Z" fill="#415a6b"/><path d="M1647.834,3796.632c2.467-30.015,3.7-65.376-4.523-72.777l-17.269,2.056s-5.345,1.233-6.579,19.325c-1.645,18.091-10.279,47.7-10.279,51.4Z" fill="#415a6b"/><path d="M1640.021,3796.632h48.107l-.411-2.878-21.381-78.533s-28.782,5.345-40.3,10.69c0,0,15.214,22.2,16.447,39.472C1642.9,3771.14,1641.666,3783.064,1640.021,3796.632Z" fill="#344a5e"/><path d="M1669.626,3762.094c2.467,4.934,8.223,20.97,12.746,34.538h6.99c-2.056-24.259-7.813-58.8-10.28-67.021-3.289-11.1-4.111-28.37-4.111-28.37a37.09,37.09,0,0,0-9.457,10.279c-4.112,7.4-4.934,16.036-3.289,24.259S1666.747,3756.338,1669.626,3762.094Z" fill="#415a6b"/><path d="M1813.672,3709.464v79.767a7.37,7.37,0,0,1-7.4,7.4h-62.087a7.37,7.37,0,0,1-7.4-7.4v-79.767a7.37,7.37,0,0,1,7.4-7.4h62.087A7.37,7.37,0,0,1,1813.672,3709.464Z" fill="#fff"/><rect width="60.853" height="5.345" transform="translate(1744.595 3710.287)" fill="#adb3ba"/><rect width="60.853" height="5.345" transform="translate(1744.595 3723.444)" fill="#adb3ba"/><rect width="34.538" height="5.345" transform="translate(1744.595 3737.424)" fill="#adb3ba"/><path d="M1791.057,3780.6a17.66,17.66,0,0,0,2.879-10.279h-13.158Z" fill="#66c6b9"/><path d="M1775.022,3770.318V3751.4a18.914,18.914,0,1,0,0,37.828,18.641,18.641,0,0,0,13.568-5.757Z" fill="#bb83ff"/><path d="M1779.134,3751.815v14.391h14.39A19.057,19.057,0,0,0,1779.134,3751.815Z" fill="#415a6b"/></g></svg>