<svg xmlns="http://www.w3.org/2000/svg" width="295" height="203" viewBox="0 0 295 203"><g transform="translate(-6584 10380.392)"><g transform="translate(5021.75 -13708.281)"><rect width="295" height="203" transform="translate(1562.25 3327.89)" fill="#f0e8fc"/><rect width="294" height="202" transform="translate(1562.75 3328.39)" fill="#f0e8fc"/></g><path d="M1856.75,3530.89l-141.056-91.377L1562.75,3530.89Z" transform="translate(5021.75 -13708.281)" fill="#caccf9"/><g transform="translate(5021.75 -13708.281)"><path d="M1761.948,3407.534a23.189,23.189,0,0,0,3.528-1.611S1762.9,3405.931,1761.948,3407.534Z" fill="#344a5e"/><path d="M1798.018,3530.89c.957-9.828,1.324-20.285.01-28.168-3.426-19.7,3.426-75.811,3.426-75.811s-11.993-20.56-19.274-22.273c0,0-11.564,23.985-19.274,36.407,0,0-4.711-11.565-3-15.848s2.141-12.421,1.713-15.847a2.764,2.764,0,0,1,.327-1.816c-.5.184-1.036.366-1.612.531-1.285,10.707-8.994,19.7-12.849,29.553a74.182,74.182,0,0,0-4.712,15.848,63.728,63.728,0,0,1-3.854,12.849c0,14.563-.429,28.269-1.285,32.124,0,0,0,19.191.86,32.451Z" fill="#344a5e"/></g><path d="M1684.454,3530.89c-.37-9.276-1.734-18.689-5.069-26.026-9.851-22.7-53.539-9-57.394-7.281,0,0-2.57,20.13-2.57,30.838,0,.748.04,1.576.114,2.469Z" transform="translate(5021.75 -13708.281)" fill="#344a5e"/><path d="M1748.905,3530.89c-2.272-8.779-5.273-17.032-5.273-17.032-23.557,17.133-46.257,15.848-68.958,0,0,0-1.091,8.95-2.495,17.032Z" transform="translate(5021.75 -13708.281)" fill="#415a6b"/><path d="M1654.971,3369.517a19.339,19.339,0,0,0-14.563,6.424v21.416a20.05,20.05,0,0,0,14.563,6.425c6.853,0,13.278-3.427,16.276-8.566v-17.133A19.5,19.5,0,0,0,1654.971,3369.517Z" transform="translate(5021.75 -13708.281)" fill="#f3705a"/><path d="M1670.39,3406.78l-3.854,23.557-26.128.857-2.141-22.7,8.566-6h0a5.947,5.947,0,0,0-.856-4.711,36.553,36.553,0,0,1-4.712-15.848l-1.285-11.993s14.135-11.564,20.131-7.709,7.71,11.992,7.71,11.992-.429,12.85-1.714,17.133a43.652,43.652,0,0,1-1.713,5.568Z" transform="translate(5021.75 -13708.281)" fill="#ffd15c"/><g transform="translate(5021.75 -13708.281)"><path d="M1669.962,3406.78l-3.855,23.557-26.127.857-2.142-22.7,8.567-6h0a5.947,5.947,0,0,0-.857-4.711,36.57,36.57,0,0,1-4.711-15.848l-1.285-11.993s14.134-11.564,20.13-7.709,7.71,11.992,7.71,11.992-.428,12.85-1.713,17.133a43.412,43.412,0,0,1-1.714,5.568Z" fill="#ffcebf"/></g><path d="M1645.977,3397.785s2.569,6.425,8.138,6,9.423-5.569,10.279-6.853a16.1,16.1,0,0,1-9.423,12.849c-8.994,4.283-15.848,3-15.848,3Z" transform="translate(5021.75 -13708.281)" fill="#fca597"/><path d="M1638.695,3419.629c8.995,5.14,18.418,3.427,30.41-.856l-6.424,76.24c-7.281,3-27.84,4.283-32.98-.857Z" transform="translate(5021.75 -13708.281)" fill="#f3f3f3"/><ellipse cx="5.568" cy="15.848" rx="5.568" ry="15.848" transform="translate(6640.314 -10268.949)" fill="#dcf9fb"/><path d="M1628.416,3429.052l-5.14,20.131-6-.856s4.283-23.558,4.711-29.983a12.556,12.556,0,0,1,4.711-8.994Z" transform="translate(5021.75 -13708.281)" fill="#344a5e"/><path d="M1639.124,3405.5s-7.281,2.57-9.423,3-5.568,1.714-5.568,6.854,0,13.277-.429,18.417,1.285,41.975-1.285,53.111-3.855,17.561-3.855,17.561a16.643,16.643,0,0,0,15.848,3s11.136-8.138,8.995-34.693-5.14-38.977-5.14-49.256C1638.695,3413.633,1639.124,3405.5,1639.124,3405.5Z" transform="translate(5021.75 -13708.281)" fill="#344a5e"/><path d="M1640.837,3405.5l-3,9.851a40.02,40.02,0,0,0-1.713,28.7c5.14,15.42,7.281,22.7,7.281,29.125,0,0,1.285-5.568-.428-14.562a97.279,97.279,0,0,1,0-37.264C1645.976,3405.5,1640.837,3405.5,1640.837,3405.5Z" transform="translate(5021.75 -13708.281)" fill="#415a6b"/><path d="M1669.534,3403.782s14.134,5.568,22.7,7.281-8.138,99.369-8.138,99.369l-20.559,1.285c-7.281-1.285-11.993-3.855-14.563-7.71,0,0-6.424-16.7,0-51.4C1652.83,3433.764,1669.534,3411.492,1669.534,3403.782Z" transform="translate(5021.75 -13708.281)" fill="#344a5e"/><path d="M1644.692,3465.887s7.709-.856,11.136-1.713,9.423-2.57,9.423-2.57l2.141,12.849s-10.279.857-14.563,2.57-12.421,2.142-12.421,2.142Z" transform="translate(5021.75 -13708.281)" fill="#ffcebf"/><path d="M1665.251,3400.355a30.686,30.686,0,0,1-.857,14.991c-2.57,7.281-14.563,25.7-15.419,37.263,0,0,2.141-7.709,5.14-11.564s19.7-20.131,19.7-20.131l-3.426-5.139,4.283-1.285s-.856-6.854-2.57-8.995C1670.819,3402.925,1665.679,3401.212,1665.251,3400.355Z" transform="translate(5021.75 -13708.281)" fill="#415a6b"/><path d="M1657.113,3365.234s-6.425-1.713-9.851,3-5.568,16.276-5.568,20.988,6.424,8.994,6.853,16.275c0,7.282-7.71,11.565-9.423,21.416-1.714,9.423,0,13.278,0,13.278s-6-8.995-5.568-14.563c0-5.568,1.285-10.279,0-17.133s-3.427-15.847-1.285-25.7,8.566-32.98,25.7-27.841c0,0,5.569-2.569,9.423,6.425s5.569,13.706,6.425,19.274,0,27.412,1.714,33.409a128.125,128.125,0,0,0,5.139,13.705s-8.138-9.851-9.851-14.134-6-15.848-6-16.7c0,0,3.855-7.71,3.426-14.563S1660.539,3367.8,1657.113,3365.234Z" transform="translate(5021.75 -13708.281)" fill="#f3705a"/><path d="M1645.12,3468.886c-1.285,3.426-1.285,15.847-1.285,15.847h-.428c-1.714,0-12.421-.856-20.559-1.713-5.569-.429-9.851-.857-10.708-.857-2.142-.428-4.284-3.426-4.712-8.138-.856-5.139-.428-8.994,0-13.278s3.855-14.99,4.712-17.132.856-5.568,1.285-7.281,3-11.993,6-18.418,7.281-8.138,7.71-8.138c-1.714.856-3,2.57-3,5.568,0,5.568,0,13.278-.428,18.418-.429,1.713,0,7.709,0,15.419h0l-1.285,15.419h1.285l18.845.429h4.284C1646.833,3465.459,1646.833,3465.459,1645.12,3468.886Z" transform="translate(5021.75 -13708.281)" fill="#415a6b"/><path d="M1769.331,3398.214a56.1,56.1,0,0,1-3.855,11.993,29.439,29.439,0,0,0-1.285,3.426,10.711,10.711,0,0,1-1.713,3c0,.429-.429.429-.429.857s-.428.428-.428.856l-1.285,1.285-1.285,1.285c-.429.429-.429.857-.857,1.285-.428.857-.856,2.142-1.285,3a33.606,33.606,0,0,0-.856,6v0a30.356,30.356,0,0,1,.428-6c.429-1.285.429-2.142.857-3.427.428-.428.428-1.285.856-1.713l1.285-1.285.429-.429a10.02,10.02,0,0,0-3,3,7.24,7.24,0,0,0-1.285,4.283,42.151,42.151,0,0,1-11.136,20.559c.857-3.855,0-8.566,1.285-12.421.429-1.713,1.714-3.426,2.142-5.14.428-.856.428-2.141.856-3.426,1.285-6.853,3-13.706,6.425-20.131a19.967,19.967,0,0,0,2.141-4.283,40.119,40.119,0,0,0,1.714-6.853c.428-2.57.856-5.568,1.285-8.138l6.853-1.285A19.229,19.229,0,0,1,1769.331,3398.214Z" transform="translate(5021.75 -13708.281)" fill="#2d2d2d"/><path d="M1765.9,3363.949s-4.711,4.711-5.568,6.425c-.428,1.713-.856,6.853-.856,6.853s.856,3.855.428,4.711c-.428,1.285-.428,8.138,2.142,12.85s4.283,7.709,5.139,8.566c-4.283,9.423-6.853,22.272-8.138,36.406l.429,6.425,26.555-38.977,7.71-29.982-16.7-14.562Z" transform="translate(5021.75 -13708.281)" fill="#ffcebf"/><path d="M1776.612,3401.64c-6,4.284-9.851,1.714-9.851,1.714l-1.713,7.709c12.421-3.426,18.418-14.991,18.418-14.991S1782.609,3397.357,1776.612,3401.64Z" transform="translate(5021.75 -13708.281)" fill="#fca597"/><g transform="translate(5021.75 -13708.281)"><path d="M1770.616,3510.432a5.4,5.4,0,0,1-5.569-5.568c-.428-9-1.284-30.839-2.569-35.978-1.714-6.425,2.569-36.407,3.854-40.262,1.714-3.855,15.848-24.414,15.848-24.414s18.418,6.853,22.273,9l3.854,2.141s-13.277,44.545-8.566,57.394,5.568,29.982,5.568,29.982A97.2,97.2,0,0,1,1770.616,3510.432Z" fill="#f17781"/><path d="M1765.048,3410.635s-3,10.279-3.426,18.417c0,8.139-7.282,27.413-7.71,34.694a135.6,135.6,0,0,1-6.425,29.982,5.734,5.734,0,0,1-10.279.856l-7.71-12.849s9.851-60.821,16.7-68.1C1753.483,3406.78,1765.048,3410.635,1765.048,3410.635Z" fill="#f17781"/></g><path d="M1771.044,3365.662s11.136,3,12.421,6.853,1.285,7.281,2.142,8.138,3.426-3,4.283-2.141c1.285.856,1.285,6.853-2.142,10.279s-4.711,8.995-5.568,15.42.429,9.423-.856,11.136-6.425,13.277-7.282,16.7c-.428,3.426.857,9.851,3,14.991a20.8,20.8,0,0,1,1.285,10.279s4.283-8.566,3.855-11.993c0-3.426-1.714-6-.857-9.851,1.285-3.855,9.423-17.133,9.851-19.7s4.283-8.138,4.711-17.99-.856-24.842-4.283-31.695c-3.855-6.853-8.994-9.423-14.991-8.566,0,0-3-2.141-9.423,1.714-6,3.854-8.566,13.277-8.138,18.417a38.681,38.681,0,0,1,1.285-6.424C1761.621,3368.232,1765.048,3365.234,1771.044,3365.662Z" transform="translate(5021.75 -13708.281)" fill="#2d2d2d"/><ellipse cx="4.711" cy="2.998" rx="4.711" ry="2.998" transform="matrix(0.223, -0.975, 0.975, 0.223, 6806.357, -10322.416)" fill="#ffcebf"/><path d="M1756.053,3404.21c0,.429-.428.429-.428.857-3.426,6-5.14,13.277-6.425,20.13-.428,1.285-.428,2.142-.856,3.427-.429,1.713-1.714,3.426-2.142,5.139-1.285,3.855-.428,8.566-1.285,12.421a42.143,42.143,0,0,0,11.136-20.559c.429-1.285.857-3,1.285-4.283a19.787,19.787,0,0,1,3-3l-.429.428-1.285,1.285c-.428.428-.428.857-.856,1.713a7.934,7.934,0,0,0-.857,3,30.359,30.359,0,0,0-.428,6v0a33.614,33.614,0,0,1,.856-6c.429-.857.429-2.142,1.285-3,.429-.428.429-.856.857-1.285l1.285-1.284,1.285-1.285c0-.429.428-.429.428-.857s.428-.428.428-.856a10.75,10.75,0,0,0,1.714-3c.428-1.285.856-2.141,1.285-3.426a21.317,21.317,0,0,0,1.285-6.853Z" transform="translate(5021.75 -13708.281)" fill="#2d2d2d"/><path d="M1785.178,3436.334s.429-7.282,8.139-14.991,10.708-8.138,15.847-7.281c4.712,1.285,3.427,9.851,2.57,15.419-1.285,5.568-.856,13.706-3.855,17.989s-6,10.708-7.709,13.706-11.136,14.134-13.706,17.133-6.425,6.853-11.565,6.853-20.13-.429-20.13-.429-3.427-8.994,0-14.991c0,0,11.993-.428,13.278-.428s1.713-.856,2.141-1.713,1.713-.857,2.57-2.142,5.568-8.138,6-8.994C1779.182,3456.036,1785.178,3439.332,1785.178,3436.334Z" transform="translate(5021.75 -13708.281)" fill="#d85d72"/><path d="M1725.643,3379.8s-1.285,7.281-3,10.28v16.276l-11.992,11.992-13.278-13.705v-13.278s-2.57-8.566-2.57-13.278-1.285-9.851,0-13.706,2.141-10.28,5.14-11.564,20.987-1.285,22.7,0c2.57,1.713,4.283,8.138,4.283,10.708S1725.643,3379.8,1725.643,3379.8Z" transform="translate(5021.75 -13708.281)" fill="#ffcebf"/><path d="M1711.937,3399.5c-6.425,1.713-13.706-6.853-14.563-7.71v13.278c5.14.857,22.273,1.713,25.27-14.991C1722.645,3390.076,1718.362,3398.214,1711.937,3399.5Z" transform="translate(5021.75 -13708.281)" fill="#fca597"/><g transform="translate(5021.75 -13708.281)"><ellipse cx="6.424" cy="2.57" rx="6.424" ry="2.57" transform="matrix(0.122, -0.993, 0.993, 0.122, 1723.137, 3382.851)" fill="#ffcebf"/><ellipse cx="2.57" cy="6.424" rx="2.57" ry="6.424" transform="matrix(0.993, -0.122, 0.122, 0.993, 1691.03, 3370.459)" fill="#ffcebf"/></g><path d="M1694.376,3374.228h.857s-.857-6,.428-7.709,2.142-6,2.142-8.138,1.285-4.284,3.854-4.284,17.561,1.714,20.131.857,3.426,1.713,3.426,3.426-.428,6,.429,7.71,0,7.71,0,7.71h.856a35.173,35.173,0,0,0,1.714-9c0-3.855-.857-12.421-9.851-16.7s-17.99,1.285-21.416,5.568C1693.519,3357.524,1693.091,3369.089,1694.376,3374.228Z" transform="translate(5021.75 -13708.281)" fill="#415a6b"/><path d="M1724.358,3402.069a64.935,64.935,0,0,0,12.849,4.711c5.568,1.285,19.274,6.425,20.559,8.995l1.714,2.569s-9.851,72.814-10.708,80.095-6.853,20.131-6.853,20.131-11.993,11.993-27.841,11.993c-16.275,0-35.121-8.566-37.691-13.278s-4.712-17.561-3.855-22.273-8.995-70.243-8.995-70.243,1.285-5.14,8.566-8.994c7.71-3.855,20.559-9.851,22.7-11.136s1.713-.429,1.713-.429l7.281,8.138,4.712-.428,2.141-.429,9.423-1.285Z" transform="translate(5021.75 -13708.281)" fill="#ced6e0"/><g transform="translate(5021.75 -13708.281)"><path d="M1704.656,3414.49c4.283-1.714,8.994-1.285,14.134,0a51.981,51.981,0,0,0-6,8.566,7.3,7.3,0,0,0-6,0c-.429-3.427-.857-5.14-3.427-7.281" fill="#a570f2"/><path d="M1711.508,3420.486l.857,3a121.7,121.7,0,0,1,1.285,13.277c0,4.284-3.855,83.093-3.855,83.093s-6.425,6-6.425,5.568-4.283-6-4.283-6,4.283-64.247,5.568-77.525,1.714-17.989,1.714-17.989Z" fill="#a570f2"/></g><g transform="translate(5021.75 -13708.281)"><path d="M1722.645,3398.642s-.429,5.14-11.565,12.421c0,0,3.855,4.284,4.712,6.853a9.774,9.774,0,0,0,1.285,3s6-8.566,7.709-11.565a12.653,12.653,0,0,0,.857-7.709Z" fill="#f3f3f3"/><path d="M1709.367,3411.492s-4.283,4.711-5.568,9.851c0,0-4.711-6-5.568-7.281s-4.712-7.282-.857-13.706A23.141,23.141,0,0,0,1709.367,3411.492Z" fill="#f3f3f3"/><path d="M1753.483,3412.348a194.81,194.81,0,0,0-7.709,19.7c-3.855,11.564-6,26.127-6,29.125v9.851c0,.856-.429.428-2.142.428s-14.991.429-20.559.857-12.849,1.285-12.849,1.285a70.028,70.028,0,0,0,0,14.134l13.278,3.855s.856,1.713,4.283,1.713a63.188,63.188,0,0,0,11.564-1.285c4.712-.428,17.561.857,20.131.429s7.281-9.423,8.566-16.276c1.713-6.853,4.711-36.835.428-51.4C1758.195,3410.635,1753.483,3412.348,1753.483,3412.348Z" fill="#f3f3f3"/></g><path d="M1716.648,3463.746s7.71-.857,10.708-2.142,7.71-1.713,9.851-3a29.914,29.914,0,0,1,7.281-2.57c1.714-.428,3.855-1.713,5.14-2.141a10.621,10.621,0,0,1,3.855-.429c1.713,0,8.138-.428,8.566,1.285s-1.713,2.57-2.57,2.57a41.645,41.645,0,0,0-6.853.429,42.615,42.615,0,0,0-4.711,1.713s3.855-.429,5.568-.429,2.57.429,4.283.429a23.277,23.277,0,0,1,4.712.856,2.1,2.1,0,0,1,2.141,2.142c0,2.141-1.713,1.713-3.426,1.285a29.426,29.426,0,0,0-5.569-.857H1752.2a41.4,41.4,0,0,1,5.14.857,15.228,15.228,0,0,0,4.283.856,2,2,0,0,1,2.142,2.57c-.429,1.714-2.142,1.285-3.427.857a25.245,25.245,0,0,0-6-.857h-6.853a94.088,94.088,0,0,1,9.851.429c1.714.428,2.57.428,2.57,1.713s-1.713,1.285-3,1.285-7.71,0-9.423.428a22.17,22.17,0,0,1-9,1.714c-4.283,0-9.851,0-12.849,1.285-2.57,1.285-6.853,3-6.853,3Z" transform="translate(5021.75 -13708.281)" fill="#ffcebf"/><path d="M1679.813,3440.617s3.855-22.273-11.564-22.7c-8.566-.428-8.566,24.843-9.423,31.267-.428,6.425-.857,21.416,2.57,32.124s7.281,11.564,12.421,11.136,20.559-2.57,25.7-4.711c5.139-1.714,22.272-10.28,22.272-10.28s-4.711-10.279-4.283-13.706c0,0-12.85,3.427-13.278,3.427-.857,0-4.283-1.714-7.71-1.285-3.855.856-16.7,1.713-16.7,1.713s3-11.564,1.713-17.989S1679.813,3440.617,1679.813,3440.617Z" transform="translate(5021.75 -13708.281)" fill="#f3f3f3"/><path d="M1679.813,3467.6a52.668,52.668,0,0,1-5.568.856,28.394,28.394,0,0,1-6.424-1.285c-.857-.428-1.714-3,.428-3s3.426,1.285,6.853,1.285l3.427.428-1.714-.856a26.1,26.1,0,0,0-5.568-1.285c-.857,0-6-.429-6.853-.857s-1.714-.856-1.285-2.141,1.285-1.285,3-1.285a20.863,20.863,0,0,0,5.14.428,18.422,18.422,0,0,1,5.14.857c1.285.428,3,.856,3,.856a6.284,6.284,0,0,0-1.713-.856,15.181,15.181,0,0,1-3.855-1.714c-.429,0-7.281-.856-7.281-.856s-3.427,0-3.427-2.141,5.568-1.714,6.425-1.285c.856,0,6.425.428,6.425.428a41.37,41.37,0,0,1-4.712-1.285c-.428,0-4.711.429-3.855-3.426h4.712a23.067,23.067,0,0,0,3.426.428c1.285.429,3.427.857,4.283,1.285s6.425,4.711,6.425,4.711a8.762,8.762,0,0,1,2.142,2.142c.856,1.285,4.711,7.281,4.711,7.281Z" transform="translate(5021.75 -13708.281)" fill="#ffcebf"/></g></svg>