<svg xmlns="http://www.w3.org/2000/svg" width="295" height="203" viewBox="0 0 295 203"><g transform="translate(-1562.25 -4648.656)"><rect width="295" height="203" transform="translate(1562.25 4648.656)" fill="#dcf9fb"/><rect width="294" height="202" transform="translate(1562.75 4649.156)" fill="#f0e8fc"/><path d="M1856.75,4851.656l-141.056-91.377-152.944,91.377Z" fill="#caccf9"/><rect width="148.093" height="112.629" transform="translate(1626.562 4673.555)" fill="#fff"/><path d="M1626.951,4682.518h147.314a8.964,8.964,0,1,0,0-17.927H1626.951a8.964,8.964,0,0,0,0,17.927Z" fill="#415a6b"/><path d="M1796.869,4838.406s-3.9,9.743-4.677,10.912l-.779,1.169-6.625-14.03,8.963-1.948Z" fill="#ffcebf"/><path d="M1792.972,4851.656c.39-1.559,0-5.456-1.559-10.522-1.949-5.456-5.846-28.839-5.846-28.839s-44.428-5.067-48.715,4.676c-3.9,8.574-6.235,29.619-6.625,34.685Z" fill="#344a5e"/><path d="M1751.272,4737.858v-3.117s-3.508-5.067-4.287-9.744-1.948-13.25-1.948-13.25,1.559-5.846,5.845-7.405c4.677-1.169,7.405-1.948,9.744-1.559s8.573,6.236,8.573,7.794.78,15.979-.389,18.707c0,0,0,8.574,4.676,12.081h0c2.728,1.949,3.118,5.456.78,8.184-3.508-1.169-8.964,7.8-14.42,16.369l-10.912-17.148C1749.713,4749.16,1749.323,4740.2,1751.272,4737.858Z" fill="#ffcebf"/><path d="M1761.4,4745.652c6.236-3.507,8.185-15.978,8.185-15.978s-4.677,8.964-10.133,9.743-8.184-4.287-8.184-4.287v2.729c-1.559,1.948-1.559,7.794-1.559,10.522C1753.22,4748.381,1757.9,4747.991,1761.4,4745.652Z" fill="#fca597"/><path d="M1757.118,4747.991a19.545,19.545,0,0,1,2.728,1.948c.779.78,2.728,2.339,2.728,2.339a9.606,9.606,0,0,0,3.9-3.118c1.169-1.949,4.677-3.508,4.677-3.508l5.846.78,2.728,72.1a40.452,40.452,0,0,1-36.634,0l3.508-71.709Z" fill="#ced6e0"/><path d="M1751.272,4737.858s2.728,7.015,5.846,10.133c0,0-4.287,1.169-3.9,6.625l-5.456-9.353Z" fill="#f3f3f3"/><ellipse cx="4.287" cy="1.948" rx="4.287" ry="1.948" transform="translate(1767.802 4724.694) rotate(-81.825)" fill="#ffcebf"/><ellipse cx="1.948" cy="4.287" rx="1.948" ry="4.287" transform="matrix(0.976, -0.218, 0.218, 0.976, 1744.469, 4720.243)" fill="#ffcebf"/><path d="M1768.809,4721.49h.78s0-3.9,1.169-4.677,1.559-3.9.779-7.015-5.066-10.133-10.912-10.912-11.691,1.169-14.809,7.4c-3.118,5.846.779,14.809.779,15.978a4.728,4.728,0,0,0,.39,1.949h.39s-1.169-5.456-.779-7.795,0-4.286.389-5.455,5.067-5.456,11.692-3.9,7.405,2.728,8.184,4.287A20.993,20.993,0,0,1,1768.809,4721.49Z" fill="#415a6b"/><path d="M1770.368,4735.909s0,8.184-3.9,13.64c0,0,3.9-1.948,4.677.39a40,40,0,0,1,1.169,4.287,31.33,31.33,0,0,0,2.338-10.522C1774.655,4738.638,1771.927,4736.689,1770.368,4735.909Z" fill="#f3f3f3"/><path d="M1693.983,4769.425l1.169-3.117s4.287-7.405,9.354-6.625a4.348,4.348,0,0,1,.779,4.676c-1.169,2.729-3.9,7.405-4.287,7.405l-7.015.779A7.737,7.737,0,0,1,1693.983,4769.425Z" fill="#344a5e"/><path d="M1698.66,4771.764s-1.559-5.067-2.339-5.846-.389-2.338-.779-2.728-3.9-2.728-5.066-5.067c-.78-2.338-1.949-2.728-1.559-3.9,0,0-.39-1.948,0-2.338,0,0-1.169-2.339,1.559-4.287l-2.339-2.338a11.858,11.858,0,0,0-3.9-2.729c-1.169-.389-2.338-1.559-1.948-2.728s2.728-.39,3.9,0,3.507,2.339,4.676,3.118,1.949,1.948,3.508,2.728l2.728,1.949s.779-.78,3.118,0c1.948.779,3.117,0,3.117,1.948s.78,5.456,0,6.625c-.389,1.559,1.559,7.015,1.559,7.015Z" fill="#ffcebf"/><path d="M1704.116,4760.462s-2.728,6.235-7.795,8.963l2.729,5.067,7.794-9.354Z" fill="#fff"/><path d="M1692.035,4756.954s1.559-.39,1.559-.779c0,0,1.169,0,1.559.39a2.975,2.975,0,0,0,1.948.779c.779,0,1.559-.39,1.559-1.169a1.707,1.707,0,0,0-.39-1.169s1.169,0,1.169-.78a1.423,1.423,0,0,0-.779-1.948c-.779-.39-1.948-1.169-1.948-1.169a5.213,5.213,0,0,0,1.948-.39,5.594,5.594,0,0,1,1.169-.779s-.39.779.39.779H1701s-1.948.39-1.948.779c-.39.39.39,1.949.39,3.118v2.728s0-.39-.78-.39c-.389-.39-.779.39-1.559.39s-2.338-.39-3.117-.39c0,.39-1.949,1.169-1.949,1.169a.381.381,0,0,1,.39-.389Z" fill="#fca597"/><path d="M1697.491,4751.5h-.78a3.047,3.047,0,0,1-1.559-1.169c-.779-.779-1.948-1.559-2.728-1.169-.779,0-1.948,1.559-1.948,1.559a6.347,6.347,0,0,1,2.338-1.169,3.945,3.945,0,0,1,2.728,1.559s1.949.779,1.949.389Z" fill="#fca597"/><path d="M1698.66,4755.4l-1.559-.78c-.78-.39-1.949-1.559-2.728-1.948s-.78-.39-1.17,0a6.558,6.558,0,0,1-1.948.779s1.559-.779,2.338-.39a13.006,13.006,0,0,1,2.339,1.169,10.681,10.681,0,0,1,1.948,1.559l.78-.389Z" fill="#fca597"/><path d="M1697.491,4747.211a.382.382,0,0,0-.39.39l-.39.39c-.39,0-.39.39-.779.39l-.39.39h0v1.558a1.207,1.207,0,0,0-.39-.779v-1.559a.382.382,0,0,1,.39-.39c.39-.39.779-.779,1.169-.779A1.209,1.209,0,0,0,1697.491,4747.211Z" fill="#fca597"/><path d="M1690.865,4747.211l1.559-1.169c.39,0,.39,0,.78-.39h.779c.39,0,.779.39,1.169.39l.78.78c0,.389.389.389.389.779v0l-.389-.39-.78-.779a1.43,1.43,0,0,0-1.169-.39h-.78Z" fill="#fca597"/><path d="M1704.116,4759.682s3.117,6.625-8.574,12.082c0,0-1.949,1.559-1.559-.39s.779-5.067.779-5.067-2.338,3.9-1.559,6.236c.779,2.728,7.794,10.133,9.353,13.251s4.677,10.522,7.795,11.3,7.015-.779,8.574-1.948a39.59,39.59,0,0,0,5.845-3.118c1.17-.779,1.559-2.728,2.729-4.286s5.455-8.574,5.455-8.574l5.456-9.354c0-.39-8.574-21.824-8.574-21.824s-2.338-.779-3.117,1.169-.779,3.9-1.559,5.456a31.515,31.515,0,0,0-2.338,5.067c-.78,2.338-1.17,3.9-1.559,4.676s-1.17,1.17-1.17,2.729-.389,1.948-.389,1.948l-6.236,7.015a24.726,24.726,0,0,1-2.338-3.9C1711.131,4770.6,1705.675,4760.462,1704.116,4759.682Z" fill="#415a6b"/><path d="M1750.1,4802.551c-.39,13.251-7.8,35.075-12.861,39.362s-13.251-5.456-13.251-5.456,3.118-14.03,7.015-27.67,2.339-30.008,2.339-30.008a107.543,107.543,0,0,1-3.508-30.4c1.559,0,10.523-3.118,14.42-5.067,3.507-1.948,6.625-5.066,7.015-5.066-1.169,2.338-1.559,16.368-.39,24.942C1751.662,4771.764,1750.493,4789.3,1750.1,4802.551Z" fill="#344a5e"/><path d="M1751.272,4737.858s-2.728,1.949-3.508,2.339-2.338,3.9-2.338,3.9l1.949,1.948h-4.287s.779,23.383,1.948,30.4,4.677,22.214,4.677,28.06l-.39,5.846s2.338-15.978,2.728-26.111C1752.441,4774.492,1750.493,4743.7,1751.272,4737.858Z" fill="#415a6b"/><path d="M1786.347,4748.77l10.912-2.728s1.169.39,1.559,4.287c0,3.9,2.338,6.235,2.338,8.574s-.779,3.9,0,5.845,2.728,20.266,3.118,24.163,1.169,8.184.779,10.133c-.39,1.559-3.117,23.773-3.9,27.67s-3.9,15.588-3.9,15.588-3.508-6.625-10.523-7.4c0,0,1.949-20.655,3.508-26.112s2.338-5.456,1.559-7.015-3.508-4.286-3.508-6.235,1.169-6.625.39-9.743S1786.347,4748.77,1786.347,4748.77Z" fill="#415a6b"/><path d="M1775.824,4739.807s6.625,1.948,11.692,3.9a48.235,48.235,0,0,0,10.132,2.728,80.456,80.456,0,0,0-7.015,22.214s-4.676,54.951,3.9,69.76c0,0-13.64,5.066-17.927-.779s-2.729-31.178-2.729-31.178C1772.707,4799.044,1774.655,4765.138,1775.824,4739.807Z" fill="#344a5e"/><path d="M1771.927,4737.079s1.948,12.47,1.169,21.824-.779,42.479.39,47.156c0,0-.779-8.574.779-12.082,1.559-3.9,7.8-29.229,6.236-48.714l-3.118,1.169,1.559-1.949s-1.169-3.507-3.507-5.066C1773.1,4737.468,1772.707,4737.079,1771.927,4737.079Z" fill="#415a6b"/><path d="M1682.681,4712.526l-14.03-12.861-17.148,12.471-1.559-2.728,19.1-13.64,13.25,12.471,16.758-16.368,18.317,8.184,11.3-11.3,2.338,1.949-13.25,13.25-18.317-8.574Z" fill="#adb3ba"/><path d="M1672.938,4698.107a4.286,4.286,0,1,1-4.287-4.287C1670.99,4694.209,1672.938,4695.768,1672.938,4698.107Z" fill="#f17781"/><path d="M1686.578,4710.188a4.286,4.286,0,1,1-4.286-4.287A4.325,4.325,0,0,1,1686.578,4710.188Z" fill="#bb83ff"/><path d="M1655.011,4710.968a4.287,4.287,0,1,1-4.287-4.288C1653.063,4706.291,1655.011,4708.239,1655.011,4710.968Z" fill="#bb83ff"/><path d="M1703.336,4694.209a4.287,4.287,0,1,1-4.286-4.286A4.088,4.088,0,0,1,1703.336,4694.209Z" fill="#bb83ff"/><path d="M1722.043,4701.614a4.287,4.287,0,1,1-4.287-4.287A4.325,4.325,0,0,1,1722.043,4701.614Z" fill="#f17781"/><path d="M1734.124,4689.923a4.287,4.287,0,1,1-4.287-4.287C1732.176,4685.246,1734.124,4687.195,1734.124,4689.923Z" fill="#bb83ff"/><path d="M1662.355,4744.649a9.25,9.25,0,1,0-9.252-9.221A9.3,9.3,0,0,0,1662.355,4744.649Z" fill="#adb3ba"/><path d="M1661.444,4761.77c-.562-.064-1.126-.121-1.688-.193a17.4,17.4,0,0,1-5.957-1.9,18.687,18.687,0,0,1-7.145-6.649,1.14,1.14,0,0,1-.066-1.235,11.42,11.42,0,0,1,7.759-6.269c.28-.071.568-.11.851-.17a1.842,1.842,0,0,1,1.5.364,9.627,9.627,0,0,0,6.125,1.775,8.455,8.455,0,0,0,4.706-1.492,3.307,3.307,0,0,1,3.112-.412,11.669,11.669,0,0,1,7.107,5.479c.7,1.177.727,1.2-.028,2.333a18.393,18.393,0,0,1-7.265,6.461,18.043,18.043,0,0,1-7.037,1.857,1.751,1.751,0,0,0-.236.047Z" fill="#adb3ba"/><path d="M1662.355,4744.649a9.25,9.25,0,1,1,9.246-9.3A9.286,9.286,0,0,1,1662.355,4744.649Z" fill="#adb3ba"/></g></svg>