<svg xmlns="http://www.w3.org/2000/svg" width="295" height="203" viewBox="0 0 295 203"><g transform="translate(-1562.25 -4133.959)"><rect width="295" height="203" transform="translate(1562.25 4133.958)" fill="#dcf9fb"/><rect width="294" height="202" transform="translate(1562.75 4134.458)" fill="#f0e8fc"/><path d="M1856.75,4336.958l-141.056-91.377-152.944,91.377Z" fill="#caccf9"/><path d="M1708.4,4336.958l-3.126-17.194-35.171,11.724,1.954,5.471Z" fill="#415a6b"/><path d="M1715.438,4266.618l3.517-3.127s12.505,10.942,7.816,14.85C1722.472,4282.64,1715.047,4270.135,1715.438,4266.618Z" fill="#344a5e"/><path d="M1717,4267.007s1.954-1.172,1.954-1.953,1.172-2.345,2.345-4.3a39.089,39.089,0,0,1,4.689-4.3c.782-.782,3.517-5.862,4.69-6.644.781-.781,1.953,0,2.344,0,.391.391,0,1.564-.391,2.736s-3.908,5.471-4.3,6.253.391,1.172,1.563,1.563c1.172,0,6.253.391,7.816-.782a5.254,5.254,0,0,1,3.126-.781c.781-.391,5.471-3.126,6.643,0l-2.345,1.563s-2.735,1.564-4.3,2.345a24.983,24.983,0,0,0-3.908,1.563,5.227,5.227,0,0,0,.391,1.954c.391.781-.391,2.345-1.173,2.736a5.6,5.6,0,0,1-.781,2.735,12.494,12.494,0,0,0-1.172,1.954,4.062,4.062,0,0,1-3.127,1.563c-1.172,0-4.689,1.564-6.643,1.954-1.954.782-11.332,1.563-11.332,1.563S1709.576,4270.133,1717,4267.007Z" fill="#ffcebf"/><path d="M1718.955,4263.881s-3.908,3.126,0,10.16,7.816,5.08,7.816,5.08-12.115,10.161-17.586,12.115a28.6,28.6,0,0,1-8.6,1.954l-2.736-18.758s7.425-3.126,9.77-3.517,2.345-2.345,3.908-2.736C1713.484,4267.789,1718.955,4263.881,1718.955,4263.881Z" fill="#415a6b"/><path d="M1699.416,4296.707l2.345,11.723s1.953,17.976,4.3,20.712c1.173,1.563,1.563,5.08,1.954,7.815h5.08a27.272,27.272,0,0,0-2.344-6.643c-2.736-5.08-4.69-13.287-5.081-17.585s-2.735-42.986-3.908-48.458-2.735-7.815-3.517-12.5-1.172-14.459-3.126-16.412c-1.954-1.564-9.77-2.345-9.77-2.345s2.736,10.942,4.69,14.849C1691.6,4251.767,1699.025,4289.282,1699.416,4296.707Z" fill="#344a5e"/><path d="M1690.819,4251.376c0,.391,0,.391.391.781C1690.819,4252.157,1690.819,4251.767,1690.819,4251.376Z" fill="#344a5e"/><path d="M1692.382,4198.229l5.471,6.253s.391,4.689,1.172,6.253c.391,1.563-2.345,3.517-2.736,4.3s1.564,5.862,1.564,7.816-2.345,1.953-3.517,1.953c0,0,0,3.908-1.954,3.127,0,0,1.563,1.563,0,2.735s.391,6.253-4.3,5.862-8.988-.391-8.988-.391l.391,16.8-17.195-5.08-5.08-19.93,3.517-5.862c.781-1.954,9.379-18.757,9.379-18.757Z" fill="#ffcebf"/><path d="M1679.095,4236.135a36.871,36.871,0,0,0,5.471.391c-.781-.391-9.379-6.643-12.505-13.677,0,0,1.563,10.942,7.034,17.976Z" fill="#fca597"/><path d="M1704.1,4323.671h0c-2.344,4.689-9.378,10.551-33.216,8.6l-16.413-84.409,12.9-5.08,3.908,1.563a15.184,15.184,0,0,1,3.126,3.517,3.924,3.924,0,0,0,2.344,1.954s2.345-5.471,2.345-8.207c0-2.344,8.6,2.345,8.6,2.345s.782,1.563,1.954,4.3h0q.586.587,1.173,3.517c0,.391,0,.391.391.782a25.112,25.112,0,0,1,.781,2.735v1.564a1.435,1.435,0,0,0,.391,1.172v1.563a1.436,1.436,0,0,0,.391,1.173v.781h0v1.563c.391,1.173.391,2.345.781,3.517v.391c.391,1.954.782,4.3,1.173,6.644v.781c.39,1.172.39,2.345.781,3.126v2.345a1.435,1.435,0,0,0,.391,1.172v.782a1.434,1.434,0,0,0,.391,1.172v.781a1.436,1.436,0,0,0,.391,1.173v.391a1.434,1.434,0,0,0,.391,1.172h0a16.951,16.951,0,0,0,.391,1.954v1.954a3.527,3.527,0,0,0,.39,1.953v4.691l3.3,9.663C1702.714,4306.371,1702.542,4317.027,1704.1,4323.671Z" fill="#ced6e0"/><path d="M1688.865,4331.877c.781-1.954,1.954-3.908,1.954-5.471.391-2.735-1.173-10.942-3.517-16.8s-6.644-20.711-7.425-25.4-.782-10.551-2.345-16.413a53.892,53.892,0,0,1-1.563-12.115c0,2.345.391,9.77,1.172,12.115s2.345,16.413,2.345,16.413c.781,5.861,5.47,20.321,7.815,25.791s3.126,14.46,3.126,16.413a24.384,24.384,0,0,1-1.562,5.471Z" fill="#adb3ba"/><path d="M1674.8,4336.957a102.669,102.669,0,0,0,2.344-19.148c0-8.6-4.3-19.149-4.3-19.149l-23.447-64.87s-13.677,5.081-20.321,7.816-8.206,6.252-8.206,6.252l8.987,89.1Z" fill="#344a5e"/><path d="M1655.257,4228.71s-7.034,4.3-8.206,6.644-1.173,6.643-1.173,6.643l4.69,2.735-3.517,3.126s30.09,55.882,30.872,69.56c0,0-3.908-23.056-6.643-35.17S1655.257,4233.009,1655.257,4228.71Z" fill="#415a6b"/><path d="M1671.28,4305.695H1683a20.331,20.331,0,0,1,1.954,1.172c.781.391,3.908,2.345,5.08,2.345a4.278,4.278,0,0,1,1.563.781l3.127.391s1.563,5.081-6.644,2.736l-4.689-1.954s3.517,1.954,3.908,2.736a29.191,29.191,0,0,0,4.689,2.735c.391.391,2.345,1.173,2.736,1.564s3.908,0,4.3,1.953c.391,1.564-1.953,1.564-1.953,1.564h-4.69s-.781,2.735-1.954,2.344l-1.563-.391a3.05,3.05,0,0,1,0,1.954,2.241,2.241,0,0,1-2.735.782l-1.173-.391s.391,2.344-2.735,1.563c-3.127-.391-3.127-1.172-4.3-1.563a3.379,3.379,0,0,1-2.345-1.173c-1.172-.781-6.252-3.908-6.252-3.908S1670.107,4307.649,1671.28,4305.695Z" fill="#ffcebf"/><path d="M1701.761,4308.43c-.391-.781-7.034-20.321-7.425-27.745-.782-7.816-5.471-26.183-9.77-34.389-2.736-5.081-1.563-7.816-.391-9.77.781,0,1.954.391,3.126.391l1.954,3.126h1.954s5.471,17.976,7.815,31.262C1700.979,4284.2,1700.979,4303.741,1701.761,4308.43Z" fill="#415a6b"/><path d="M1727.552,4307.259s-9.378-.782-11.332-2.736-1.954-12.5.391-13.677S1727.552,4307.259,1727.552,4307.259Z" fill="#adb3ba"/><path d="M1710.358,4289.283s-5.471-1.563-3.517-5.471l6.643,1.172s5.471,1.173,8.6,3.126,0,14.46,0,14.46-.781.781-3.517.781a17.581,17.581,0,0,1-7.034-1.172c-1.954-.782-6.253-1.954-8.206-3.908-1.954-1.563-8.6-8.6-8.6-8.6s.781-1.954,4.689,0a24.7,24.7,0,0,1,3.517,1.563l3.908.781h5.471a7.322,7.322,0,0,0,1.563-1.172A19.245,19.245,0,0,1,1710.358,4289.283Z" fill="#ffcebf"/><path d="M1720.518,4293.191s3.126,14.068-3.908,11.332L1738.1,4318.2l5.47-16.413Z" fill="#344a5e"/><path d="M1714.266,4288.11s-.391-.781-2.345-1.172a63.208,63.208,0,0,1-6.643-2.345,4.138,4.138,0,0,1-2.345-1.563c-1.172-1.172-6.253-7.034-6.253-7.034s1.173-1.172,1.954-.391l-1.954-1.563a4.211,4.211,0,0,1,5.471.781s3.517,1.173,4.69,3.126l3.517,1.564,6.643.781,2.735-1.172s-2.735-1.173-2.735-3.517,2.735-1.954,4.3-1.173c1.564,1.173,1.173,1.564,3.126,1.954s3.518,1.173,3.908,1.954l.391.781s-3.517,9.379-7.815,9.379C1717,4288.11,1714.266,4288.11,1714.266,4288.11Z" fill="#ffcebf"/><path d="M1698.634,4275.6l.391.391,1.172,1.173,1.564,1.563,1.953,1.954c.782.781,1.564,1.172,1.954,1.953l.391.391.391.391c.391,0,.782.391,1.172.391.782.391,1.173.782,1.564.782l.391.39h0a.383.383,0,0,1-.391-.39,1.365,1.365,0,0,0-.782-.391c-.391,0-.391-.391-.781-.391s-.782-.391-1.173-.391a252.567,252.567,0,0,0-.781-.782,10.346,10.346,0,0,1-2.345-1.954c-.782-.781-1.563-1.172-1.954-1.954-.391-.39-.391-.781-.781-.781-.391-.391-.391-.781-.782-.781l-1.172-1.173C1699.025,4276,1698.634,4275.6,1698.634,4275.6Z" fill="#fca597"/><path d="M1700.979,4275.6l.391.391a5.4,5.4,0,0,1,1.172,1.563c.391.391.782,1.173,1.563,1.954a10.356,10.356,0,0,1,2.345,1.954c.391.391.782.782,1.172.782.391.39.782.39,1.173.781a5.546,5.546,0,0,0,2.344.781,2.955,2.955,0,0,0,1.564.391,1.361,1.361,0,0,1,.781.391h-.781c-.391,0-1.173-.391-1.564-.391s-.781-.391-1.172-.391-.781-.39-1.172-.39c-.782-.391-1.563-1.173-2.345-1.564-.391-.391-.781-.781-1.172-.781-.391-.391-.782-.782-1.173-.782-.391-.391-.781-.781-.781-1.172-.391-.391-.391-.781-.782-.781-.39-.782-.781-1.173-.781-1.564Z" fill="#fca597"/><path d="M1768.194,4215.425l-10.942-1.173s-4.3,9.379-4.3,11.333a4.869,4.869,0,0,1,0,3.517c-.781,1.563-4.3,4.689-4.689,6.253s.391,2.344,1.172,3.126l1.563.781s-2.344,3.517,0,4.3c0,0-1.563.391-.781,2.344s-3.126,6.644,3.126,7.816,8.6,4.689,8.207,7.425-7.425,12.114-7.425,12.114c-12.505,16.8,8.206,7.816,12.114,2.736l19.93-14.85-2.736-30.09Z" fill="#ffcebf"/><path d="M1757.252,4272.87l-5.471,5.08,3.908-11.723s-7.034,5.861-10.16,11.332-10.161,29.309-8.6,40.642l1.563,11.723,30.482-58.226,3.907-8.988Z" fill="#ced6e0"/><path d="M1754.907,4265.054s-7.425,10.551-8.6,16.022-8.6,22.275-8.988,31.263l-.391,9.379s-1.954-22.275,2.345-34a102.176,102.176,0,0,1,12.114-22.275Z" fill="#415a6b"/><path d="M1785.52,4336.959a20.864,20.864,0,0,0-2.477-4.3c-1.953-2.345-.391-8.207-.781-11.724s7.815-17.194,10.551-23.447c2.345-6.643,5.862-27.355,2.345-34a13.594,13.594,0,0,0-10.551-7.034s-17.586,14.068-26.574,21.493-22.665,25.01-25.01,39.079a104.173,104.173,0,0,0-1.563,19.93h54.06Z" fill="#344a5e"/><path d="M1778.745,4255.676l6.253,5.08a125.659,125.659,0,0,0-21.494,14.068c-9.769,8.206-21.1,21.1-23.447,25.792,0,0,8.207-17.586,21.884-29.7C1775.228,4258.8,1778.745,4255.676,1778.745,4255.676Z" fill="#415a6b"/><path d="M1754.907,4254.112h0c3.126,1.173,5.08,2.736,5.862,4.3,7.815-4.3,10.551-12.9,10.942-12.9C1763.113,4255.676,1754.907,4254.112,1754.907,4254.112Z" fill="#fca597"/><path d="M1780.308,4253.331l2.736,4.689a92.191,92.191,0,0,1-12.9,8.6l-1.954-1.173s-1.954,4.3-10.942,7.816c3.908-6.643,16.413-17.2,21.884-19.93A.732.732,0,0,1,1780.308,4253.331Z" fill="#f3f3f3"/><path d="M1756.861,4214.252a120.745,120.745,0,0,0,5.08,12.115c3.517,7.425,5.862,11.723,10.552,10.942s5.08-3.517,7.034-.782-.782,14.459,2.735,20.321,14.068,16.022,12.505,28.528l-1.954,12.5a24.747,24.747,0,0,0,7.425-15.24c.782-9.379-1.563-14.068-2.344-27.746s-.391-30.872-5.862-37.906S1766.24,4202.529,1756.861,4214.252Z" fill="#f3705a"/><ellipse cx="6.253" cy="3.908" rx="6.253" ry="3.908" transform="translate(1770.125 4244.81) rotate(-68.631)" fill="#ffcebf"/><path d="M1761.16,4287.72s4.3-18.758,18.366-18.758,14.069,12.115,13.287,18.367c-.781,5.862-4.3,11.723-7.034,14.85-3.126,3.126-24.619,25.01-24.619,25.01s-4.69,5.471-9.379,3.517-17.585-15.632-18.758-18.367a28.248,28.248,0,0,0-6.643-8.6c-2.345-1.563-15.241-15.632-15.241-15.632s13.287-3.517,16.022-7.034,1.564-4.689,1.564-4.689,5.861,7.034,7.425,9.379,7.425,7.425,9.379,10.942,3.517,7.034,4.689,8.6a8.755,8.755,0,0,0,3.908,2.736c.391,0,.391-2.736.781-3.517C1754.907,4303.742,1761.16,4287.72,1761.16,4287.72Z" fill="#415a6b"/><path d="M1756.861,4214.252a31.152,31.152,0,0,0,3.126,12.5c3.126,6.253,4.3,8.207,4.3,8.207s-5.471-14.068-5.081-17.195" fill="#f3705a"/><path d="M1760.769,4258.02l-10.551,8.207s3.517,6.252,2.735,8.988l-1.172,2.735s9.77-15.24,10.16-16.8S1760.769,4258.02,1760.769,4258.02Z" fill="#f3f3f3"/><path d="M1660.338,4222.067s2.344,1.563,4.3-2.345,1.954-7.425,5.08-8.206,5.471,4.3,5.862,8.6h2.345s-.391-5.08,2.735-7.425c2.736-2.344,11.333-5.08,12.9-6.643s4.69-1.563,4.69-1.563a6.512,6.512,0,0,0,2.344-9.379c-3.908-6.253-17.194-16.8-30.09-9.379C1650.959,4196.666,1663.855,4211.907,1660.338,4222.067Z" fill="#344a5e"/><path d="M1657.993,4226.366s9.77,15.24,13.287,17.976a8.65,8.65,0,0,0-4.69.781c-2.735,1.173-10.551,3.908-10.551,3.908s-.391-13.287-1.172-16.022A6.018,6.018,0,0,1,1657.993,4226.366Z" fill="#f3f3f3"/><path d="M1678.314,4238.089a6.589,6.589,0,0,1-.782-1.954h0C1677.923,4236.917,1678.314,4237.308,1678.314,4238.089Z" fill="#f3f3f3"/><path d="M1686.52,4242c.391.782,2.345,3.126-5.08,9.77-1.563,1.563-4.69,1.172-5.471,4.3a46.089,46.089,0,0,1,.391-6.252c.391-1.954,2.735-6.644,1.563-11.333a2.992,2.992,0,0,0-.781-1.954h0l4.3-.391a5.646,5.646,0,0,1,2.736.782l5.08,5.08C1689.646,4241.606,1686.52,4241.216,1686.52,4242Z" fill="#f3f3f3"/><path d="M1617.351,4263.881s-1.172-16.022,6.253-17.195c7.816-1.172,12.9,20.321,14.068,26.574.782,6.252.782,21.883,0,22.665s1.954,3.908,2.345,5.08,5.08-.39,7.425.782,4.689,3.517,5.861,3.517h18.758s-3.517,18.758-2.345,25.01c0,0-21.1-3.908-25.01-5.471s-19.148-7.034-23.447-8.987-8.6-5.471-8.6-9.379S1617.351,4263.881,1617.351,4263.881Z" fill="#415a6b"/><path d="M1780.18,4176.415c0,13.989-16.321,24.714-36.839,24.714h-.466l-25.181,13.523v-20.517c-6.529-4.664-10.726-10.725-10.726-17.72,0-13.99,16.321-24.715,36.84-24.715C1763.859,4151.7,1780.18,4162.891,1780.18,4176.415Z" fill="#e65c9a"/><text transform="translate(1729.871 4185.456)" fill="#f0e8fc" font-size="36.385" font-family="MyriadPro-Regular, Myriad Pro"><tspan x="0" y="0">¿?</tspan></text></g></svg>