<svg xmlns="http://www.w3.org/2000/svg" width="295" height="203" viewBox="0 0 295 203"><g transform="translate(-1562.25 -4390.137)"><rect width="295" height="203" transform="translate(1562.25 4390.136)" fill="#f0e8fc"/><rect width="294" height="202" transform="translate(1562.75 4390.636)" fill="#f0e8fc"/><path d="M1856.75,4593.136l-141.056-91.377-152.944,91.377Z" fill="#caccf9"/><path d="M1645.221,4537.084a12.011,12.011,0,1,1,9.185,22.2c-6.123,2.3-32.53.383-32.53.383S1639.1,4539.381,1645.221,4537.084Z" fill="#ffd15c"/><path d="M1653.258,4540.146a5.829,5.829,0,0,1,4.593,10.716c-3.062,1.148-15.691.382-15.691.382S1650.2,4541.677,1653.258,4540.146Z" fill="#f3705a"/><path d="M1658.616,4524.838l24.876-11.481a31.748,31.748,0,0,0-52.431,3.444A31.574,31.574,0,0,1,1658.616,4524.838Z" fill="#f3705a"/><path d="M1673.159,4556.22l24.876-11.482a32.389,32.389,0,0,1-36.74,37.889A33.058,33.058,0,0,0,1673.159,4556.22Z" fill="#f3705a"/><path d="M1779.552,4511.826c-30.616,29.086-47.073,29.851-108.307,47.456l-16.073-34.827c53.2-34.827,64.678-46.69,106.393-50.9C1772.663,4484.271,1779.169,4496.9,1779.552,4511.826Z" fill="#fff"/><path d="M1761.947,4473.172c10.716,10.716,17.222,23.346,17.6,38.271l26.024-35.209Z" fill="#f3705a"/><path d="M1649.048,4525.22l17.6,38.271a45.91,45.91,0,0,0,4.592-4.209l-16.073-34.827A33.538,33.538,0,0,0,1649.048,4525.22Z" fill="#415a6b"/><path d="M1751.614,4413.852a60.053,60.053,0,0,0,6.889-2.679c1.148-.766,3.827-1.913,4.21-2.3s2.3-1.148,3.061-.765c.383.382,3.062,3.827,2.679,4.592s-.765.765-.765.765a1.352,1.352,0,0,1-.383,1.914c-1.148.765-4.209.765-5.358.383s-2.679-.766-2.679-.766l-6.123,3.827Z" fill="#ffcebf"/><path d="M1747.022,4415l6.506-2.679s1.913,6.506,2.679,7.272l-6.124,3.061Z" fill="#e8eae9"/><path d="M1710.282,4534.788a8.715,8.715,0,0,1,3.061-6.889c3.828-3.061,3.828-6.5,3.828-6.5l-8.42.765a12.224,12.224,0,0,1-4.21,2.3l-1.531.383S1701.1,4536.7,1710.282,4534.788Z" fill="#ced6e0"/><path d="M1691.529,4477.382s-5.741,12.246,11.1,17.987c17.222,6.124,26.79,9.95,26.79,9.95s-10.333,7.654-14.926,11.482-8.8,6.888-8.8,6.888,4.593,5.358,7.654,6.889a39.872,39.872,0,0,1,6.889,4.975l14.926-17.6s11.864-7.272,13.012-10.716-.383-8.42-3.062-11.1c-3.062-2.678-19.9-15.308-19.9-15.308s-5.357-12.246-6.888-19.518a72.988,72.988,0,0,0-3.445-11.864Z" fill="#344a5e"/><path d="M1715.64,4427.63a46.5,46.5,0,0,0,7.271-1.914,103.265,103.265,0,0,0,14.543-6.506c3.444-1.913,11.481-4.975,11.481-4.975s1.148,6.889,4.593,8.8c0,0-11.1,4.975-13.778,6.506s-19.518,9.568-22.2,10.333Z" fill="#415a6b"/><path d="M1715.257,4426.864s2.679,1.914,2.3,10.333-.765,8.8,0,14.161,7.272,27.555,7.272,29.086-.383,0-.383,0-6.123-3.827-6.506-9.568-5.358-18.753-4.592-22.58S1715.257,4426.864,1715.257,4426.864Z" fill="#415a6b"/><path d="M1661.678,4460.16s-.383,1.148-4.593-1.913-4.592-3.828-4.592-3.828l5.357-.382S1662.06,4455.95,1661.678,4460.16Z" fill="#415a6b"/><path d="M1712.961,4431.457c.765-4.593,1.913-7.654,3.444-7.272,6.506,1.148,6.889-2.3,6.889-2.679a2.892,2.892,0,0,1,.383-1.531.838.838,0,0,0-.383-1.148c.383,0,.765-.383.383-.765a2.958,2.958,0,0,1-.383-1.148,8.668,8.668,0,0,1,1.531-.383c.383-.383.383-.383,0-1.148-.765-1.148-3.444-4.21-3.444-4.21s.382,0,0-1.531-3.445-5.741-3.445-5.741l-14.16,8.8-1.914,8.8s-3.061,8.037-3.827,9.95Z" fill="#ffcebf"/><path d="M1714.874,4425.333l-2.679,1.914.766,4.21,1.913-3.444Z" fill="#f3f3f3"/><path d="M1704.158,4418.828l8.037,8.419-3.444,3.827-7.654-9.951Z" fill="#f3f3f3"/><path d="M1712.578,4414.235l1.531-.765a5,5,0,0,1-.383-3.062c.383-1.531,1.531-2.3,1.914-3.444s3.061-1.531,3.061-1.531a3.83,3.83,0,0,0-.383-3.445c-.765-2.3-4.592-1.913-8.8-1.148s-8.8,3.062-9.568,4.976c-1.148,1.913.766,11.1,1.531,13.394s6.124-1.531,6.506-3.444-.383-2.3,1.148-3.444C1710.665,4410.791,1712.578,4414.235,1712.578,4414.235Z" fill="#415a6b"/><ellipse cx="1.913" cy="3.062" rx="1.913" ry="3.062" transform="matrix(0.883, -0.47, 0.47, 0.883, 1707.164, 4411.741)" fill="#ffcebf"/><path d="M1714.874,4425.333a11.959,11.959,0,0,0-1.913,7.654c.383,4.593.765,14.926.765,14.926a33.4,33.4,0,0,1,2.3-5.741,17.407,17.407,0,0,0,1.914-7.654,6.247,6.247,0,0,0-1.531-4.209l.765-.383S1716.022,4425.333,1714.874,4425.333Z" fill="#344a5e"/><path d="M1672.394,4475.086v26.024a1.808,1.808,0,0,1-1.914,1.913h-36.74a1.807,1.807,0,0,1-1.913-1.913v-26.024a1.808,1.808,0,0,1,1.913-1.914h37.123A1.752,1.752,0,0,1,1672.394,4475.086Z" fill="#e2926a"/><path d="M1647.518,4474.32v-3.444a.374.374,0,0,1,.382-.383h8.42a.375.375,0,0,1,.383.383v3.444h3.061v-3.444a3.43,3.43,0,0,0-3.444-3.444h-8.42a3.43,3.43,0,0,0-3.444,3.444v3.444Z" fill="#e2926a"/><path d="M1659.764,4459.012s-.765,3.061-.765,3.444,1.531,2.3,1.913,3.445-.765,3.827-1.148,4.209a5.47,5.47,0,0,0-.765-1.531c-.383-.382-.765,0-1.531.766a5.617,5.617,0,0,0-1.913,2.3c0,.383-.383.383-.766.383s-1.148-.383-1.148-.766c0,0-1.531.383-1.913,0,0,0-1.914,0-2.3-.382,0,0-1.531.382-1.531-1.149a28.832,28.832,0,0,1,2.3-4.975,30.513,30.513,0,0,1,3.061-6.123c2.679-4.593,4.976-4.593,4.976-4.593Z" fill="#ffcebf"/><path d="M1653.258,4457.481s6.124,1.148,6.506,3.827l3.827-5.74-6.506-4.976Z" fill="#e8eae9"/><path d="M1683.492,4425.333s-.765,1.914-8.037,5.741-11.481,10.716-15.308,14.543a105.723,105.723,0,0,0-7.654,8.8s7.654,2.3,9.185,5.741c0,0,3.827-6.506,6.123-8.8s4.593-4.975,4.975-5.357,7.272-3.062,9.185-3.828,4.21-1.913,4.21-1.913S1689.233,4426.864,1683.492,4425.333Z" fill="#344a5e"/><path d="M1701.1,4419.21a6.251,6.251,0,0,1-4.21,1.531c-2.679.383-4.21-.765-7.272-1.148s-5.74,3.827-6.123,5.358,1.913,34.827,1.913,38.653.383,18.753.383,18.753,16.839.766,22.2-1.913,6.888-5.358,7.654-8.037c.382-2.679-1.531-24.494-1.531-24.494a11.01,11.01,0,0,0-2.3-8.036C1708.751,4435.667,1701.1,4419.21,1701.1,4419.21Z" fill="#415a6b"/><path d="M1713.726,4448.3s0-4.21-1.148-5.741c-1.148-1.913-3.062-2.679-3.827-4.209s-3.062-6.506-4.593-8.42a38.822,38.822,0,0,1-3.444-6.124l1.148-1.148-3.062-.765,2.3-3.444a1.336,1.336,0,0,0,.383.765c.382.765,1.148.765,1.913.383a41.393,41.393,0,0,0,4.21,6.889c1.913,2.679,2.679,6.5,3.061,8.419,0,1.914,2.679,5.741,3.062,7.272S1713.726,4448.3,1713.726,4448.3Z" fill="#344a5e"/><rect width="4.593" height="29.851" transform="translate(1637.185 4473.172)" fill="#bf7858"/><rect width="4.593" height="29.851" transform="translate(1662.443 4473.172)" fill="#bf7858"/><path d="M1704.924,4524.455a10.651,10.651,0,0,0,.383,4.593c1.148,2.3,4.209,1.913,5.358,2.679s-.766,8.037.765,12.629,3.061,6.123,1.913,6.889-3.061-.766-4.975-3.062-5.358-7.271-5.741-9.568a9.978,9.978,0,0,0-1.148-3.827l-1.913.766-4.21-6.889,2.679-1.531C1698.035,4526.751,1701.1,4522.159,1704.924,4524.455Z" fill="#415a6b"/></g></svg>