<svg xmlns="http://www.w3.org/2000/svg" width="295" height="203" viewBox="0 0 295 203"><g transform="translate(-1562.25 -4894.783)"><rect width="295" height="203" transform="translate(1562.25 4894.783)" fill="#f0e8fc"/><rect width="294" height="202" transform="translate(1562.75 4895.283)" fill="#f0e8fc"/><path d="M1856.75,5097.783l-141.056-91.377-152.944,91.377Z" fill="#caccf9"/><path d="M1752.219,5045.364h-14.657a2.77,2.77,0,0,1-2.932-2.932V4938.948a2.77,2.77,0,0,1,2.932-2.932h14.657v5.863h-11.726V5039.5h11.726Z" fill="#415a6b"/><rect width="40.23" height="5.863" transform="translate(1710.524 4987.612)" fill="#415a6b"/><path d="M1631.772,5077.786l-6.665,1.852-4.814-8.147,6.665-2.222Z" fill="#ffcebf"/><path d="M1702.129,5075.194l-5.555,7.036-4.073-10.739,7.776-4.443Z" fill="#ffcebf"/><path d="M1695.834,4985.212l2.962-3.7s6.295,6.665,8.517,14.071,3.332,15.553,5.184,20,7.035,14.812,5.184,21.107c-1.482,6.295-9.628,27.032-10.369,29.254l-1.111,2.592-5.554,9.258s-2.592-5.184-10-7.406l3.332-8.517a20.712,20.712,0,0,0,2.222-6.665c.371-3.333,0-5.184.741-8.887.74-3.333,1.481-8.147,1.851-9.628.371-1.852,1.851-4.073.741-6.295s-9.258-19.256-9.258-19.256Z" fill="#dde5ee"/><path d="M1626.958,4985.582l-2.962-3.7s-6.295,6.665-8.517,14.071-3.333,15.923-5.554,20.367-7.036,14.812-5.185,21.107c1.482,6.3,9.628,27.032,10.369,29.253a8.492,8.492,0,0,0,1.111,2.593l5.554,9.257s2.593-5.184,10-7.406l-3.332-8.516a20.713,20.713,0,0,1-2.222-6.666c-.371-3.333,0-5.184-.741-8.887-.74-3.333-1.481-8.147-1.851-9.628-.74-1.851-2.222-4.073-1.111-6.295s9.258-19.255,9.258-19.255Z" fill="#dde5ee"/><path d="M1618.241,5072.639l3.533,5.888s4.9-8.82,10.424-7.332l-2.763-7.086Z" fill="#dde5ee"/><path d="M1672.875,4952.255s-.37,7.776-1.481,10.369v8.516l-8.517,10.739-12.96-7.036v-10.368a47.606,47.606,0,0,1-2.592-12.22c-.371-5.925-1.482-12.59-.741-15.553s13.331-7.406,17.4-7.406,8.887,5.184,9.258,7.777C1673.616,4938.924,1673.986,4950.774,1672.875,4952.255Z" fill="#ffcebf"/><ellipse cx="5.184" cy="2.222" rx="5.184" ry="2.222" transform="matrix(0.203, -0.979, 0.979, 0.203, 1670.723, 4953.925)" fill="#ffcebf"/><ellipse cx="2.222" cy="5.184" rx="2.222" ry="5.184" transform="matrix(0.979, -0.203, 0.203, 0.979, 1642.778, 4944.361)" fill="#ffcebf"/><path d="M1646.954,4951.515h.741s-1.111-4.814-.371-6.666a15.511,15.511,0,0,0,1.482-5.554c0-1.852,0-4.073,2.592-3.7s15.182.74,18.144.37,2.963,4.444,2.963,5.925,1.111,4.814,1.111,5.925a20.442,20.442,0,0,1-.371,3.333h.371s2.592-7.406,2.962-12.22-2.962-15.182-14.071-18.145-16.664,6.3-15.553,9.628c0,0-5.184,1.111-3.7,8.516A70.175,70.175,0,0,0,1646.954,4951.515Z" fill="#415a6b"/><path d="M1659.174,4971.14c-5.184-.37-9.258-7.035-9.258-7.035v10.368l5.925,3.333c14.442-5.555,15.553-15.182,15.553-15.182C1669.913,4965.956,1664.358,4971.511,1659.174,4971.14Z" fill="#fca597"/><path d="M1673.246,4969.289a29.334,29.334,0,0,0,7.035,4.814c4.444,2.222,16.293,5.925,18.515,7.406,0,0,.741,15.923-8.147,29.254,0,0-1.851,38.51,0,47.028,0,0-19.625,5.554-26.291,5.554s-28.883-5.554-31.1-7.036c-2.592-1.481,2.963-20.736,3.333-24.069,0-2.962-3.7-20.737-3.7-20.737s-10.739-19.255-8.517-29.994a130,130,0,0,0,13.7-5.925,47.288,47.288,0,0,0,10.739-7.776l10,8.147,3.333-.371,8.146-2.222Z" fill="#dde5ee"/><path d="M1659.915,4982.249a5.108,5.108,0,0,1,3.333,0c.37-1.481,2.221-2.962,4.073-4.073l-6.3-1.111h-1.482l-3.332,1.111A5.717,5.717,0,0,1,1659.915,4982.249Z" fill="#415a6b"/><path d="M1668.8,5040.757c-2.222,2.221-3.333,3.7-5.925,5.925l-5.925-5.925s1.111-48.139,1.482-50.731,1.481-7.776,1.481-7.776l2.592-1.482,1.111,1.852s1.851,6.665,1.851,10.738C1665.469,4996.321,1667.691,5025.2,1668.8,5040.757Z" fill="#415a6b"/><path d="M1671.394,4967.438s-4.814,7.035-9.628,9.257c0,0,5.184,3.7,5.555,5.925,0,0,6.665-8.147,6.665-11.109A4.543,4.543,0,0,0,1671.394,4967.438Z" fill="#f3f3f3"/><path d="M1660.285,4976.695a15.538,15.538,0,0,0-4.444,5.925s-6.295-6.666-8.146-11.109a2.946,2.946,0,0,1,.74-3.333l1.851-1.851C1649.917,4966.327,1651.4,4972.992,1660.285,4976.695Z" fill="#f3f3f3"/><path d="M1690.279,5056.309s2.593,11.85,5.184,17.4,1.482,8.147,1.482,8.147-3.333,2.592-3.333,15.923H1661.4l-.37-1.482-.741,1.482h-31.1s.371-10.369-4.814-19.256a68.194,68.194,0,0,1,4.814-12.59,47.028,47.028,0,0,0,4.073-10.369A118.727,118.727,0,0,0,1690.279,5056.309Z" fill="#415a6b"/><path d="M1783.587,4926.049v25.8a5.88,5.88,0,0,1-5.863,5.863h-25.8a5.881,5.881,0,0,1-5.863-5.863v-25.8a5.881,5.881,0,0,1,5.863-5.863h25.8A5.88,5.88,0,0,1,1783.587,4926.049Z" fill="#d4b6ff"/><rect width="19.935" height="19.935" transform="translate(1754.858 4928.98)" fill="#bb83ff"/><path d="M1783.587,4977.645v25.8a5.881,5.881,0,0,1-5.863,5.863h-25.8a5.881,5.881,0,0,1-5.863-5.863v-25.8a5.88,5.88,0,0,1,5.863-5.863h25.8A5.88,5.88,0,0,1,1783.587,4977.645Z" fill="#f99dad"/><rect width="19.935" height="19.935" transform="translate(1754.858 4980.576)" fill="#f17781"/><path d="M1783.587,5029.24v25.8a5.88,5.88,0,0,1-5.863,5.863h-25.8a5.88,5.88,0,0,1-5.863-5.863v-25.8a5.881,5.881,0,0,1,5.863-5.863h25.8A5.881,5.881,0,0,1,1783.587,5029.24Z" fill="#ffefab"/><rect width="19.935" height="19.935" transform="translate(1754.858 5032.172)" fill="#f9e478"/><path d="M1692.883,5064.672l11.774,6.43-3.931,7.109s-4.127-6.01-5.926-6.052l-2.213-6.732Z" fill="#f3f3f3"/><rect width="25.809" height="4.806" rx="2.403" transform="translate(1789.366 4927.98)" fill="#ced6e0"/><rect width="25.809" height="4.806" rx="2.403" transform="translate(1789.366 4936.948)" fill="#ced6e0"/><rect width="25.809" height="4.806" rx="2.403" transform="translate(1789.366 4946.512)" fill="#ced6e0"/><rect width="25.809" height="4.806" rx="2.403" transform="translate(1789.366 4978.521)" fill="#ced6e0"/><rect width="25.809" height="4.806" rx="2.403" transform="translate(1789.366 4987.489)" fill="#ced6e0"/><rect width="25.809" height="4.806" rx="2.403" transform="translate(1789.366 4997.053)" fill="#ced6e0"/><rect width="25.809" height="4.806" rx="2.403" transform="translate(1789.366 5030.471)" fill="#ced6e0"/><rect width="25.809" height="4.806" rx="2.403" transform="translate(1789.366 5039.438)" fill="#ced6e0"/><rect width="25.809" height="4.806" rx="2.403" transform="translate(1789.366 5049.002)" fill="#ced6e0"/></g></svg>