<svg xmlns="http://www.w3.org/2000/svg" xmlns:xlink="http://www.w3.org/1999/xlink" width="496.992" height="345.436" viewBox="0 0 496.992 345.436"><defs><linearGradient id="a" x1="-0.222" y1="0.5" x2="0.045" y2="0.5" gradientUnits="objectBoundingBox"><stop offset="0" stop-color="#c2c2c2"/><stop offset="1" stop-color="#dedede"/></linearGradient><linearGradient id="b" y1="0.5" x2="1" y2="0.5" gradientUnits="objectBoundingBox"><stop offset="0" stop-color="#ff9340"/><stop offset="1" stop-color="#ffce45"/></linearGradient><linearGradient id="c" y1="0.5" x2="1" y2="0.5" gradientUnits="objectBoundingBox"><stop offset="0" stop-color="#f58631"/><stop offset="1" stop-color="#f2c23f"/></linearGradient><linearGradient id="k" x1="8.853" y1="-295.976" x2="9.857" y2="-295.976" xlink:href="#b"/><linearGradient id="l" y1="0.5" x2="1" y2="0.5" gradientUnits="objectBoundingBox"><stop offset="0" stop-color="#d7e3f5"/><stop offset="1" stop-color="#f2fffe"/></linearGradient></defs><g transform="translate(-3296.404 557.776)"><path d="M3346.386-463.462c22.5-17.829,53.222-21.089,79.463-11.179,34.862,13.17,60.521,46.521,94.381,62.537a105.837,105.837,0,0,0,76.022,5.605c12.134-3.724,23.933-9.7,36.527-10.1,11.154-.353,22.172,3.787,31.653,10.244,27.9,19,41.908,59.518,32.5,94.042-5.034,18.485-15.843,34.539-28.435,48-26.012,27.817-60.521,45.9-96.588,50.607-20.131,2.627-40.552,1.2-60.609-2.028-43.709-7.035-86.772-22.973-122.763-51.08-43.085-33.65-85.787-92.346-69.655-153.532C3323.4-437.467,3333.2-453.012,3346.386-463.462Z" fill="#dcbfff"/><path d="M3684.144-414.037c-1.417-3.623-2.594-8.222-.206-11.169a6.613,6.613,0,0,1,3.48-2.117c6.308-1.7,12.493,3.148,16.892,8.392a74.654,74.654,0,0,1,10.344,16.257,28.584,28.584,0,0,1,2.945,9.551c.3,3.365-.46,6.972-2.6,9.408C3700.6-367.331,3688.075-404,3684.144-414.037Z" fill="#dcbfff"/><path d="M3594.586-358.389c3-5.9,11.323-9.15,17.05-4.14,1.6,1.4,2.467,2.9,3.884,4.3a2.787,2.787,0,0,0,4.446-.612,8.54,8.54,0,0,1,7.508-4.185c3.775-.228,6.557,1.461,7.75,3.461,3.174,5.318.724,8.958,4.376,11.754,4.259,2.285,6.777-1.807,12.814-1.514,4.688.228,7.368,5.363,6,9.291a2.621,2.621,0,0,1-2.571,1.847H3586.42c-3.7,0-7.768-.361-7.953-4.987a6.614,6.614,0,0,1,5.271-6.857c4.883-.743,5.266,1.472,8.1.906C3594.712-349.7,3592.411-355.281,3594.586-358.389Z" fill="#a271dc"/><path d="M3372.987-464.119c-3.586-7.047-13.512-10.919-20.345-4.939-1.906,1.669-2.943,3.457-4.63,5.135-1.824,1.62-3.92,1.234-5.3-.729-2.415-3.424-4.637-4.731-8.96-4.994-4.5-.273-7.825,1.742-9.248,4.13-3.787,6.345-.86,10.69-5.221,14.023-5.082,2.728-8.088-2.156-15.291-1.8-5.593.271-8.792,6.4-7.163,11.085a3.125,3.125,0,0,0,3.067,2.2h82.84c4.41,0,9.269-.431,9.487-5.95a7.893,7.893,0,0,0-6.286-8.182c-5.828-.887-6.284,1.757-9.67,1.078C3372.836-453.749,3375.583-460.411,3372.987-464.119Z" fill="#a271dc"/><path d="M3469.108-514.021h-13.887a.807.807,0,0,1-.806-.807.806.806,0,0,1,.806-.8h13.887a.805.805,0,0,1,.805.807.806.806,0,0,1-.805.8Z" fill="#495abf"/><path d="M3474.66-514.021h-3.47a.807.807,0,0,1-.807-.8.806.806,0,0,1,.806-.807h3.471a.805.805,0,0,1,.806.8.806.806,0,0,1-.805.807Z" fill="#495abf"/><path d="M3453.111-514.021H3451.2a.807.807,0,0,1-.807-.8.806.806,0,0,1,.806-.807h1.912a.8.8,0,0,1,.8.807A.805.805,0,0,1,3453.111-514.021Z" fill="#495abf"/><path d="M3332.954-420.346h-14.072a.8.8,0,0,1-.806-.8.806.806,0,0,1,.805-.807h14.073a.807.807,0,0,1,.807.806.805.805,0,0,1-.8.806Z" fill="#495abf"/><path d="M3345.152-420.346h-7.625a.805.805,0,0,1-.805-.806.807.807,0,0,1,.805-.806h7.625a.808.808,0,0,1,.806.807A.806.806,0,0,1,3345.152-420.346Z" fill="#495abf"/><path d="M3391.888-233.231h-37.256a.806.806,0,0,1-.806-.806.8.8,0,0,1,.805-.806h37.257a.806.806,0,0,1,.807.805.807.807,0,0,1-.805.807Z" fill="#495abf"/><path d="M3385.288-238.023h-3.661a.807.807,0,0,1-.8-.807.805.805,0,0,1,.8-.8h3.661a.806.806,0,0,1,.807.8.807.807,0,0,1-.8.807Z" fill="#495abf"/><path d="M3396.55-238.023h-8.14a.806.806,0,0,1-.806-.806.8.8,0,0,1,.8-.806h8.141a.805.805,0,0,1,.807.8.807.807,0,0,1-.8.807Z" fill="#495abf"/><path d="M3370.328-347.442h-6.408a.807.807,0,0,1-.809-.805.809.809,0,0,1,.806-.809h6.411a.809.809,0,0,1,.808.806.807.807,0,0,1-.806.808Z" fill="#495abf"/><path d="M3311.744-260.8h-5.986a.808.808,0,0,1-.808-.806.807.807,0,0,1,.806-.808h5.988a.806.806,0,0,1,.808.806.807.807,0,0,1-.8.808Z" fill="#495abf"/><path d="M3347.592-261.636a.809.809,0,0,1-.57-.235l-3.909-3.909a.809.809,0,0,1,0-1.141l3.909-3.907a.809.809,0,0,1,.57-.237h0a.806.806,0,0,1,.572.237l3.907,3.907a.807.807,0,0,1,0,1.141l-3.907,3.909A.81.81,0,0,1,3347.592-261.636Zm-2.769-4.714,2.768,2.768,2.768-2.768-2.768-2.768Z" fill="#495abf"/><path d="M3397.6-435.14a5.347,5.347,0,0,1-5.347-5.347,5.347,5.347,0,0,1,5.347-5.347,5.347,5.347,0,0,1,5.347,5.347A5.352,5.352,0,0,1,3397.6-435.14Zm0-9.08a3.733,3.733,0,0,0-3.733,3.733,3.733,3.733,0,0,0,3.733,3.733,3.732,3.732,0,0,0,3.733-3.733,3.737,3.737,0,0,0-3.733-3.733Z" fill="#495abf"/><path d="M3613.271-395.224a5.346,5.346,0,0,1-5.345-5.347,5.345,5.345,0,0,1,5.347-5.345,5.346,5.346,0,0,1,5.345,5.345A5.355,5.355,0,0,1,3613.271-395.224Zm0-9.08a3.732,3.732,0,0,0-3.735,3.733,3.734,3.734,0,0,0,3.733,3.735,3.735,3.735,0,0,0,3.735-3.733v0A3.738,3.738,0,0,0,3613.271-404.3Z" fill="#495abf"/><path d="M3510.591-535.253a3.5,3.5,0,0,1-3.5-3.5,3.5,3.5,0,0,1,3.5-3.5,3.5,3.5,0,0,1,3.5,3.5,3.5,3.5,0,0,1-3.5,3.5Zm0-5.383a1.885,1.885,0,0,0-1.887,1.883,1.885,1.885,0,0,0,1.883,1.887,1.885,1.885,0,0,0,1.887-1.883v0a1.886,1.886,0,0,0-1.883-1.882Z" fill="#495abf"/><path d="M3585.682-219.169h-22.908a.806.806,0,0,1-.808-.806.807.807,0,0,1,.806-.808h22.909a.807.807,0,0,1,.806.808.808.808,0,0,1-.806.806Z" fill="#855db5"/><path d="M3585.394-231.185h-16.159a.807.807,0,0,1-.806-.808.808.808,0,0,1,.806-.806h16.159a.807.807,0,0,1,.806.808A.807.807,0,0,1,3585.394-231.185Z" fill="#f9e478"/><path d="M3585.394-224.745h-5.979a.805.805,0,0,1-.806-.805.805.805,0,0,1,.805-.807h5.983a.806.806,0,0,1,.806.807.806.806,0,0,1-.806.805Z" fill="#855db5"/><path d="M3576.066-224.745H3552.8a.805.805,0,0,1-.806-.805.8.8,0,0,1,.8-.807h23.264a.807.807,0,0,1,.807.8.806.806,0,0,1-.806.807Z" fill="#495abf"/><path d="M3585.394-236.952h-26.607a.805.805,0,0,1-.806-.805.8.8,0,0,1,.8-.807h26.608a.806.806,0,0,1,.806.807A.806.806,0,0,1,3585.394-236.952Z" fill="#495abf"/><path d="M3618.856-221.389a2.789,2.789,0,0,1-2.76,2.81h-27.037a2.79,2.79,0,0,1-2.76-2.81v-15.2a2.79,2.79,0,0,1,2.76-2.81H3616.1a2.789,2.789,0,0,1,2.76,2.81Z" fill="#f3f3ff"/><path d="M3616.1-240.769h-27.037a4.159,4.159,0,0,0-4.13,4.18v15.2a4.159,4.159,0,0,0,4.13,4.18H3616.1a4.161,4.161,0,0,0,4.13-4.18v-15.2A4.161,4.161,0,0,0,3616.1-240.769Zm2.76,19.381a2.789,2.789,0,0,1-2.76,2.81h-27.037a2.79,2.79,0,0,1-2.76-2.81v-15.2a2.79,2.79,0,0,1,2.76-2.81H3616.1a2.789,2.789,0,0,1,2.76,2.81Z" fill="#495abf"/><path d="M3615.78-235.81a.686.686,0,0,0-.962-.127h0l-12.241,9.424-12.327-9.427a.685.685,0,0,0-.96.128.685.685,0,0,0,.128.961l8.2,6.265-8.2,6.3a.686.686,0,0,0-.126.962.686.686,0,0,0,.544.268.674.674,0,0,0,.416-.143l8.487-6.528,3.424,2.617a.674.674,0,0,0,.416.141.687.687,0,0,0,.418-.141l3.394-2.615,8.426,6.524a.676.676,0,0,0,.418.145.686.686,0,0,0,.684-.688.685.685,0,0,0-.264-.539l-8.142-6.305,8.14-6.265A.686.686,0,0,0,3615.78-235.81Z" fill="#855db5"/><path d="M3379.092-321.586a.8.8,0,0,1-.572-.235l-4.056-4.056a.807.807,0,0,1,.025-1.141.808.808,0,0,1,1.116,0l4.056,4.056a.806.806,0,0,1,0,1.14.8.8,0,0,1-.572.237Z" fill="#495abf"/><path d="M3375.036-321.586a.8.8,0,0,1-.57-.235.809.809,0,0,1,0-1.141l4.056-4.056a.807.807,0,0,1,1.141.025.807.807,0,0,1,0,1.116l-4.056,4.056A.8.8,0,0,1,3375.036-321.586Z" fill="#495abf"/><path d="M3441.292-512.731a.8.8,0,0,1-.572-.235l-4.056-4.056a.807.807,0,0,1,.025-1.141.806.806,0,0,1,1.116,0l4.056,4.056a.806.806,0,0,1,0,1.14.806.806,0,0,1-.572.237Z" fill="#495abf"/><path d="M3437.236-512.731a.807.807,0,0,1-.809-.8.808.808,0,0,1,.237-.574l4.056-4.056a.807.807,0,0,1,1.141-.025.807.807,0,0,1,.025,1.141l-.025.025-4.056,4.056A.8.8,0,0,1,3437.236-512.731Z" fill="#495abf"/><path d="M3357.694-489.608a.8.8,0,0,1-.57-.235l-4.056-4.056a.807.807,0,0,1,.024-1.141.808.808,0,0,1,1.117,0l4.056,4.056a.807.807,0,0,1,0,1.14.8.8,0,0,1-.574.237Z" fill="#495abf"/><path d="M3353.638-489.608a.8.8,0,0,1-.807-.8.8.8,0,0,1,.237-.572l4.056-4.056a.807.807,0,0,1,1.141.025.806.806,0,0,1,0,1.116l-4.056,4.056A.8.8,0,0,1,3353.638-489.608Z" fill="#495abf"/><path d="M3664.369-414.763a.8.8,0,0,1-.57-.238l-4.056-4.056a.807.807,0,0,1,0-1.14.807.807,0,0,1,1.14,0l4.056,4.056a.809.809,0,0,1,0,1.143.806.806,0,0,1-.57.236Z" fill="#495abf"/><path d="M3660.313-414.763a.808.808,0,0,1-.806-.81.814.814,0,0,1,.236-.569l4.056-4.056a.807.807,0,0,1,1.14,0,.8.8,0,0,1,0,1.14h0L3660.882-415A.8.8,0,0,1,3660.313-414.763Z" fill="#495abf"/><path d="M3460.558-548.346a.812.812,0,0,1-.57-.238l-3.909-3.907a.808.808,0,0,1,0-1.141l3.909-3.909a.81.81,0,0,1,1.141,0l3.907,3.909a.807.807,0,0,1,0,1.141l-3.907,3.907A.814.814,0,0,1,3460.558-548.346Zm-2.766-4.716,2.766,2.768,2.768-2.768-2.768-2.768Z" fill="#495abf"/><path d="M3496.511-535.861c0,6.49-5.107,9.372-6.995,9.372-1.85,0-7-2.919-7-9.372a7,7,0,0,1,6.717-7.272,7,7,0,0,1,7.272,6.717q.012.277,0,.555Z" fill="#31d9e7"/><path d="M3489.519-525.682c-2.15,0-7.8-3.13-7.8-10.179a7.8,7.8,0,0,1,7.8-7.8,7.8,7.8,0,0,1,7.8,7.8C3497.319-528.811,3491.664-525.682,3489.519-525.682Zm0-16.518a6.35,6.35,0,0,0-6.19,6.339c0,5.988,4.7,8.567,6.19,8.567s6.188-2.579,6.188-8.567a6.347,6.347,0,0,0-6.188-6.336Z" fill="#495abf"/><path d="M3489.516-513.038a.807.807,0,0,1-.807-.807h0v-12.43a.806.806,0,0,1,.806-.807.806.806,0,0,1,.806.806h0v12.43a.806.806,0,0,1-.8.807Z" fill="#495abf"/><path d="M3490.72-525.175h-2.52l1.312-1.312Z" fill="#c595ff"/><path d="M3490.723-524.37H3488.2a.808.808,0,0,1-.806-.809.812.812,0,0,1,.236-.568l1.312-1.311a.809.809,0,0,1,1.146,0l.018.019,1.209,1.314a.806.806,0,0,1-.049,1.139.811.811,0,0,1-.546.212Z" fill="#495abf"/><path d="M3337.862-301.375c0,6.49-5.107,9.372-6.993,9.372-1.85,0-7-2.919-7-9.372a7,7,0,0,1,6.717-7.272,7,7,0,0,1,7.272,6.717q.012.277,0,.555Z" fill="#f9e478"/><path d="M3330.873-291.2c-2.15,0-7.8-3.13-7.8-10.179a7.8,7.8,0,0,1,7.8-7.8,7.8,7.8,0,0,1,7.8,7.8v.008C3338.673-294.325,3333.021-291.2,3330.873-291.2Zm0-16.518a6.35,6.35,0,0,0-6.19,6.339c0,5.988,4.7,8.565,6.19,8.565s6.188-2.577,6.188-8.565A6.35,6.35,0,0,0,3330.873-307.714Z" fill="#495abf"/><path d="M3330.873-278.554a.807.807,0,0,1-.807-.8v-12.43a.808.808,0,0,1,.806-.807.806.806,0,0,1,.806.806h0v12.43A.8.8,0,0,1,3330.873-278.554Z" fill="#495abf"/><path d="M3332.08-290.69h-2.52l1.312-1.312Z" fill="#c595ff"/><path d="M3332.08-289.884h-2.52a.807.807,0,0,1-.805-.808.807.807,0,0,1,.235-.569l1.312-1.312a.805.805,0,0,1,1.139,0l.025.027,1.209,1.314a.806.806,0,0,1-.049,1.139.807.807,0,0,1-.546.212Z" fill="#495abf"/><path d="M3404.8-265.722a2.056,2.056,0,0,1-1.162-.87,4.581,4.581,0,0,1-.459-.827c-.07-.16-.138-.33-.2-.508s-.116-.369-.168-.568a13.018,13.018,0,0,1-.267-1.315l-.028-.183c-.008-.059-.015-.121-.021-.182-.014-.123-.026-.248-.039-.378-.024-.255-.043-.52-.059-.794-.008-.138-.017-.277-.023-.419,0-.072-.006-.143-.008-.215v-.216c0-.293,0-.586.008-.894l.013-.468c.006-.156.01-.318.022-.478q.035-.482.08-.985l.047-.511.027-.261.035-.258c.047-.349.1-.7.154-1.067l.086-.55.1-.554q.108-.557.23-1.136c.037-.195.086-.384.134-.577l.143-.586.149-.594c.025-.1.049-.2.079-.3l.083-.293c.116-.4.235-.8.36-1.214l.092-.308.1-.305.207-.618c.273-.835.595-1.66.923-2.516.04-.106.084-.211.127-.316l.134-.317.267-.638c.092-.214.182-.427.275-.641l.293-.638.293-.642c.1-.214.2-.431.307-.643.211-.424.425-.851.645-1.283.106-.215.223-.424.336-.638l.345-.64c.117-.214.234-.427.353-.641l.365-.633.37-.637.186-.318.2-.315q.391-.627.781-1.26c.267-.415.54-.827.812-1.242s.557-.821.84-1.229.568-.817.862-1.212.586-.8.886-1.2l.907-1.172.23-.293.232-.285.466-.572.465-.57.475-.558.473-.554c.161-.184.317-.371.479-.549l.964-1.074c.16-.179.322-.354.488-.527l.489-.52.488-.517.488-.505c.326-.332.65-.669.976-.993l.976-.96.244-.237.246-.232.488-.46c.647-.616,1.3-1.194,1.935-1.767.159-.143.321-.281.479-.419l.476-.412c.318-.27.628-.541.942-.8.624-.517,1.233-1.022,1.835-1.492l.445-.352.221-.175.112-.086c.035-.028.072-.057.113-.086l.467-.355c.157-.117.308-.232.466-.345,1.239-.911,2.456-1.728,3.607-2.432l.429-.258c.141-.084.281-.168.423-.248.279-.16.553-.315.819-.462.542-.293,1.046-.56,1.532-.792a30.717,30.717,0,0,1,6.074-2.208q.4-.092.789-.179l.391-.084.4-.076c.265-.048.529-.1.792-.137s.525-.075.781-.109.521-.063.781-.092.512-.041.765-.058.507-.033.755-.045.5-.01.741-.013a23.984,23.984,0,0,1,5.4.55c.2.045.4.093.6.142s.391.1.586.156q.576.165,1.12.346c.364.121.714.253,1.051.4l.253.1c.084.035.164.072.246.108.164.075.324.15.482.224s.314.154.468.232.3.16.449.242q.437.246.847.5c.271.175.529.356.781.536s.488.365.714.559a12.1,12.1,0,0,1,1.231,1.177,10.011,10.011,0,0,1,.976,1.244,9.305,9.305,0,0,1,.717,1.286,7.9,7.9,0,0,1,.461,1.326,7.251,7.251,0,0,1,.17,2.69,8.023,8.023,0,0,1-.781,2.581,9.923,9.923,0,0,1-.693,1.19,11.673,11.673,0,0,1-.864,1.128c-.314.364-.65.723-1.009,1.067s-.732.684-1.127,1.006c-.2.16-.4.324-.6.488s-.41.314-.62.468-.421.309-.637.46c-.106.076-.215.145-.322.221s-.218.152-.326.224-.218.147-.328.219l-.164.107-.164.108c-.22.146-.441.287-.663.425s-.441.281-.663.417c-.113.065-.221.137-.332.205l-.33.2c-.878.536-1.741,1.048-2.562,1.536-.1.062-.206.122-.308.179s-.2.123-.3.183-.2.117-.3.174-.195.121-.293.179-.2.11-.293.168-.2.117-.293.173l-.147.084-.149.087c-.1.058-.2.114-.3.168-.821.466-1.715.922-2.721,1.416-.25.117-.529.259-.831.4l-.989.488c-.711.351-1.528.766-2.44,1.256-.113.057-.23.123-.347.186l-.357.2-.79.444c-.542.3-1.089.618-1.659.938-.286.16-.569.328-.859.495l-.437.253c-.145.084-.293.168-.441.256-.586.349-1.192.7-1.8,1.074l-.457.276-.233.137-.227.142-.928.572-.933.586-.471.292-.468.306-.474.3c-.159.1-.319.2-.475.309l-.946.628c-.162.1-.316.211-.473.318l-.472.324-.478.322-.47.33-.471.332-.239.164-.234.17-.942.675-.931.691c-.315.227-.618.464-.926.7s-.618.468-.916.708l-.909.716-.9.727-.223.18-.218.185-.439.367-.439.365-.429.371-.429.369c-.143.123-.292.244-.426.371l-.838.745c-.141.123-.275.25-.41.376l-.408.373-.408.374-.39.376-.4.376-.2.185c-.065.061-.134.123-.2.186-.509.5-1.028.993-1.511,1.492l-.367.369-.184.182-.177.185q-.354.369-.708.73l-.176.181-.17.182-.339.359-.339.358c-.11.119-.225.234-.332.353q-.322.354-.644.7l-.32.341-.308.342q-.3.336-.609.663l-.152.164-.146.162-.287.321c-.195.213-.383.42-.575.623-.1.1-.184.2-.277.3l-.27.293c-.179.2-.358.39-.536.57l-.134.136-.127.137-.253.269c-.168.175-.335.345-.5.507q-.123.123-.246.24l-.121.117-.119.115c-.309.3-.616.581-.915.825-.147.125-.292.238-.439.347s-.281.209-.419.3a5.031,5.031,0,0,1-.8.447A2.246,2.246,0,0,1,3404.8-265.722Z" fill="#31d9e7"/><path d="M3466.583-313.672c-1.747-.207-3.5-.361-5.253-.427a46.372,46.372,0,0,0-5.259.1,35.4,35.4,0,0,0-5.181.8l-.637.162-.318.08c-.1.028-.209.059-.315.09l-.316.089c-.1.032-.209.058-.314.093l-.624.2c-.829.278-1.65.581-2.458.918s-1.6.706-2.388,1.1-1.555.809-2.319,1.244-1.51.892-2.253,1.367-1.471.961-2.2,1.464l-.546.371c-.181.125-.359.253-.54.38l-.54.38c-.18.127-.363.253-.54.383l-1.073.776c-.179.127-.354.262-.53.39l-.529.4c-.174.134-.353.265-.527.4l-.521.4-.521.406-.261.2-.259.205-1.03.827-1.015.843-.255.211c-.084.07-.168.144-.25.214l-.5.431-.5.43c-.168.144-.33.293-.5.439l-.489.44c-.164.147-.329.293-.488.441l-.968.9q-1.92,1.813-3.736,3.73t-3.48,3.967l-.827,1.026-.8,1.042c-.273.346-.525.705-.781,1.061l-.39.531c-.127.179-.25.361-.378.542l-.376.541c-.123.181-.25.36-.369.544l-.724,1.1c-.062.093-.117.187-.177.28l-.173.281-.346.56c-.237.369-.453.753-.675,1.131l-.332.57c-.056.1-.108.2-.16.287l-.16.293-.316.577-.159.292c-.026.049-.053.1-.078.146l-.076.145-.6,1.172-.076.145-.07.15-.141.293-.283.592-.142.293-.072.149-.066.15-.264.6-.267.6-.065.15-.063.152-.123.306-.248.609-.123.305c-.041.1-.084.2-.122.308l-.457,1.233q-.879,2.484-1.537,5.037l-.663-.168q.662-2.581,1.562-5.1l.464-1.249c.037-.105.078-.207.121-.312l.125-.307.25-.618.125-.309.063-.155.068-.152.268-.609.269-.611.067-.153.072-.149.144-.3.285-.6.143-.3.072-.149.077-.147.607-1.189.076-.147c.024-.049.052-.1.078-.145l.16-.293.32-.586.16-.293c.054-.1.107-.2.164-.293l.335-.574c.226-.383.444-.769.684-1.145l.35-.566.175-.283c.059-.1.117-.189.179-.281l.73-1.114c.121-.187.248-.367.376-.55l.379-.548c.127-.182.25-.367.38-.545l.391-.538c.262-.36.519-.723.791-1.074s.54-.7.813-1.054l.834-1.036q1.691-2.059,3.515-4t3.767-3.761l.976-.9c.16-.153.328-.293.488-.446l.5-.443c.166-.145.33-.293.5-.441l.5-.432.5-.433.253-.218.256-.211,1.024-.849,1.036-.831.259-.209.263-.2.525-.408.525-.406c.177-.135.355-.266.531-.4l.531-.4c.179-.132.353-.267.533-.4l1.074-.781c.179-.131.361-.256.542-.383l.544-.384c.18-.127.361-.257.543-.382l.55-.374q1.092-.753,2.216-1.473t2.282-1.378q1.159-.662,2.353-1.263t2.43-1.113q1.234-.515,2.507-.936l.639-.2c.1-.035.213-.063.32-.1l.322-.093.322-.093.324-.082.65-.164a36.028,36.028,0,0,1,5.286-.812,46.809,46.809,0,0,1,5.337-.1c1.777.066,3.548.222,5.31.431Z" fill="#fff"/><path d="M3406.551-267.44a2.045,2.045,0,0,1-1.505-.24,4.545,4.545,0,0,1-1.607-1.626c-.127-.2-.25-.39-.369-.59s-.238-.391-.357-.6c-.236-.418-.478-.871-.708-1.366-.117-.246-.234-.5-.348-.766s-.228-.538-.343-.821-.227-.57-.339-.869-.217-.606-.328-.92a55.425,55.425,0,0,1-2.2-8.987,67.014,67.014,0,0,1-.846-11.253c.019-2.009.127-4.069.343-6.15a62.8,62.8,0,0,1,.968-6.266,59.489,59.489,0,0,1,1.624-6.166c.324-1.006.671-2,1.044-2.969l.138-.365c.047-.121.1-.24.146-.361l.292-.714.146-.355c.049-.119.1-.239.147-.354l.306-.691.3-.683c.1-.228.209-.447.315-.669l.318-.663.158-.328.162-.32c.218-.427.433-.849.65-1.264l.661-1.211c.109-.2.22-.39.332-.586l.332-.575.332-.564.335-.546.33-.538c.111-.178.22-.355.332-.523l.657-1.007c.106-.166.218-.326.324-.488l.324-.468c.214-.31.423-.616.634-.9l.62-.846.149-.205.152-.195.293-.39.577-.741c.2-.235.376-.462.557-.684s.355-.428.525-.629.339-.391.5-.568a37.73,37.73,0,0,1,4-3.895,36.847,36.847,0,0,1,4.643-3.332,29.963,29.963,0,0,1,2.672-1.424c.234-.107.466-.211.7-.314l.708-.293c.233-.1.478-.185.717-.271l.357-.127.179-.061.182-.06a21.7,21.7,0,0,1,2.9-.732c.238-.039.474-.076.7-.111s.458-.052.684-.074.443-.033.659-.043l.322-.015h.314c.207,0,.412,0,.613.008s.4.022.586.037.38.033.564.056.367.047.542.076c.351.061.695.125,1.017.209.163.041.321.082.479.127s.305.1.453.143a10.308,10.308,0,0,1,2.983,1.562c.1.076.2.156.3.236s.2.162.281.245q.278.247.523.508a8.457,8.457,0,0,1,.87,1.1,7.339,7.339,0,0,1,1.138,5.185,8.9,8.9,0,0,1-.3,1.36q-.1.339-.228.678c-.041.113-.084.225-.131.338s-.09.226-.14.339a25.533,25.533,0,0,1-1.387,2.651c-.064.108-.127.215-.2.322s-.125.216-.187.322c-.132.211-.246.427-.371.634-.061.1-.117.208-.177.311s-.119.205-.172.309-.112.2-.166.3l-.153.3c-.024.049-.051.1-.074.147l-.067.148c-.045.1-.1.2-.132.292l-.121.282-.1.275-.2.542c-.033.092-.065.18-.1.268s-.069.187-.1.277l-.113.278c-.039.1-.078.18-.119.279s-.084.2-.129.285-.09.2-.138.293c-.2.39-.41.8-.665,1.242a29.378,29.378,0,0,1-2,2.974q-1.284,1.683-2.719,3.3l-.781.864c-.14.154-.285.311-.435.474s-.293.33-.456.5l-.24.259-.121.133-.122.136c-.162.181-.329.365-.5.554s-.341.381-.52.579l-.266.292c-.09.1-.183.2-.271.306-.178.2-.361.415-.549.626-.1.106-.187.214-.279.322l-.28.328-.287.335-.283.339-.287.346c-.1.115-.195.23-.293.349-.2.236-.383.476-.58.716l-.579.741-.148.187-.141.188-.293.384c-.1.127-.2.256-.293.39l-.285.391-.293.4c-.049.065-.1.134-.142.2l-.139.2-.283.406c-.047.068-.1.136-.144.206l-.137.208q-.564.831-1.112,1.722c-.733,1.188-1.447,2.452-2.131,3.78s-1.333,2.718-1.947,4.152-1.192,2.912-1.732,4.408c-1.08,2.989-2.009,6.053-2.831,8.958s-1.555,5.658-2.27,8.036c-.088.293-.177.585-.266.871s-.177.565-.267.838-.181.538-.266.8-.179.51-.269.754c-.182.488-.359.948-.544,1.375-.092.211-.184.419-.279.6s-.186.354-.279.511-.185.293-.277.428-.179.278-.265.406c-.175.261-.341.5-.509.706A2.216,2.216,0,0,1,3406.551-267.44Z" fill="#95f7ff"/><path d="M3442.536-339.05c-1.786.39-3.562.788-5.284,1.344a23.717,23.717,0,0,0-2.519.97,19.668,19.668,0,0,0-2.362,1.295,30.029,30.029,0,0,0-4.241,3.367c-.664.62-1.311,1.259-1.952,1.908l-.952.977c-.314.328-.626.661-.938.993a79.228,79.228,0,0,0-6.917,8.443,58.019,58.019,0,0,0-5.449,9.431,59.918,59.918,0,0,0-3.554,10.3,76.07,76.07,0,0,0-1.834,10.756,101.583,101.583,0,0,0-.478,10.919q.021,2.733.16,5.466c.026.456.047.911.076,1.367l.086,1.367c.016.227.033.451.055.673s.052.441.088.66a5.665,5.665,0,0,0,.36,1.285l-.659.177a6.008,6.008,0,0,1-.374-1.354c-.039-.23-.07-.464-.1-.7s-.041-.464-.057-.693l-.088-1.373c-.027-.458-.049-.915-.075-1.372q-.138-2.746-.162-5.5a102.365,102.365,0,0,1,.481-10.991,76.812,76.812,0,0,1,1.855-10.854,60.472,60.472,0,0,1,3.6-10.415,58.928,58.928,0,0,1,5.511-9.538,80.429,80.429,0,0,1,6.976-8.518c.316-.335.628-.669.946-1l.959-.987c.644-.652,1.3-1.3,1.972-1.927a30.509,30.509,0,0,1,4.339-3.443,20.231,20.231,0,0,1,2.441-1.342,24.054,24.054,0,0,1,2.6-1c1.757-.568,3.56-.971,5.344-1.361Z" fill="#fff"/><path d="M3404.943-266.279c-.667.611-2.05.439-3.956-.477a22.724,22.724,0,0,1-3.222-1.936,38.808,38.808,0,0,1-3.789-3.086c-.335-.306-.669-.628-1.01-.961s-.683-.683-1.026-1.041c-.683-.722-1.385-1.5-2.08-2.343s-1.391-1.748-2.075-2.733a35.42,35.42,0,0,1-1.99-3.2,29.565,29.565,0,0,1-1.775-3.846l-.052-.131-.045-.125-.09-.246-.178-.5c-.062-.168-.117-.335-.17-.5l-.166-.507q-.323-1.018-.593-2.064a42.631,42.631,0,0,1-.862-4.247c-.217-1.432-.365-2.875-.456-4.313a65.076,65.076,0,0,1,.07-8.493c.2-2.766.521-5.444.894-8,.185-1.281.384-2.532.586-3.745l.572-3.5c.369-2.263.7-4.383.944-6.341s.415-3.751.495-5.369c.041-.809.055-1.57.055-2.288,0-.361,0-.706-.012-1.044l-.019-.5v-.123l-.006-.119-.012-.239-.013-.234-.017-.229c-.012-.15-.02-.3-.033-.447l-.039-.431-.011-.106-.01-.1-.023-.2c-.026-.275-.065-.533-.1-.788-.017-.125-.037-.248-.054-.369s-.033-.242-.056-.357l-.057-.343-.013-.084-.017-.08-.028-.158c-.02-.1-.037-.207-.058-.307s-.042-.2-.061-.3l-.028-.146-.034-.143c-.02-.1-.041-.187-.059-.279-.041-.183-.084-.36-.119-.527-.316-1.353-.678-2.686-1.074-3.995s-.823-2.594-1.269-3.848q-.336-.942-.684-1.86c-.232-.611-.469-1.213-.705-1.81s-.477-1.184-.712-1.765l-.355-.866c-.029-.072-.06-.144-.088-.214l-.09-.214c-.06-.141-.113-.283-.183-.43-.252-.586-.564-1.207-.9-1.855l-.059-.121c-.019-.039-.041-.082-.064-.123l-.125-.248-.123-.246-.127-.253-.123-.25-.121-.253c-.084-.17-.166-.341-.242-.508a21.564,21.564,0,0,1-.843-2.058c-.031-.084-.06-.17-.086-.255l-.08-.253c-.054-.173-.1-.341-.146-.507-.022-.084-.043-.166-.063-.248s-.041-.168-.06-.25c-.037-.166-.067-.33-.1-.488-.015-.08-.027-.158-.039-.238s-.023-.162-.034-.242q-.03-.237-.044-.468c-.01-.153-.019-.3-.021-.451s0-.293.008-.441.018-.283.033-.419.035-.275.06-.406a5.433,5.433,0,0,1,.195-.751,3.6,3.6,0,0,1,.134-.346c.049-.11.1-.224.154-.328a4.469,4.469,0,0,1,.371-.593,4.681,4.681,0,0,1,.958-.958,8.063,8.063,0,0,1,2.451-1.185c.223-.069.449-.135.674-.2l.341-.086c.117-.028.232-.057.349-.084l.35-.076c.116-.024.236-.049.355-.072l.362-.067.18-.032.187-.028.374-.056.188-.024.2-.022c.129-.015.261-.027.391-.04.063-.005.132-.012.195-.016l.2-.015a14.4,14.4,0,0,1,1.738-.006c.158.011.316.021.476.036h.062l.061.005.125.015.253.031.257.033.266.041.269.047c.045.008.088.015.136.025l.141.028a15.622,15.622,0,0,1,2.481.714c.223.08.459.18.7.279l.355.152c.119.052.238.1.355.16.239.109.477.224.717.341.121.058.24.121.359.183l.361.188a28.043,28.043,0,0,1,2.9,1.787,31.489,31.489,0,0,1,2.86,2.276,33.055,33.055,0,0,1,2.734,2.766,35.041,35.041,0,0,1,4.736,6.925,36.444,36.444,0,0,1,3.166,8.55c.085.391.176.781.26,1.2l.119.642.062.33.055.339.107.693c.037.236.065.476.1.721l.046.367.023.186.018.185.077.752c.024.255.042.511.061.771s.037.524.052.788c.022.529.052,1.074.057,1.626l.006.415v.417l-.006.846c0,.283-.016.566-.024.855l-.015.433-.024.432-.023.437-.012.22-.017.22-.069.878c-.054.586-.11,1.186-.185,1.781-.145,1.194-.326,2.4-.547,3.612-.444,2.415-1.03,4.834-1.708,7.215s-1.447,4.717-2.238,7c-.4,1.141-.8,2.267-1.2,3.38s-.781,2.179-1.166,3.25c-.759,2.14-1.471,4.231-2.084,6.262s-1.129,4-1.505,5.895a37.125,37.125,0,0,0-.7,5.467c-.021.439-.032.87-.034,1.3v.641l.017.624a17.034,17.034,0,0,0,.223,2.365c.132.825.315,1.67.526,2.512s.451,1.682.707,2.509.532,1.633.807,2.423c.136.39.277.781.415,1.165s.277.76.417,1.129c.547,1.484,1.079,2.856,1.53,4.1s.835,2.362,1.1,3.332C3405.554-268.259,3405.618-266.894,3404.943-266.279Z" fill="#31d9e7"/><path d="M3377.927-372.515l.14.177.069.088.074.084.293.34c.1.111.205.22.308.33.051.054.1.109.156.162l.162.16.16.159.08.08.084.076.332.309c.113.1.229.195.343.3s.229.2.346.293c.232.2.472.39.71.577s.48.376.726.56c.488.369.983.734,1.477,1.1s.989.739,1.475,1.125c.246.188.489.39.725.586l.18.147.177.154.353.3a33.641,33.641,0,0,1,2.663,2.61,35.19,35.19,0,0,1,4.415,5.991,36.016,36.016,0,0,1,1.714,3.309c.067.14.128.283.195.425l.184.428c.119.285.235.575.351.862l.166.438.082.217c.026.073.053.146.08.22l.154.439.078.22.072.222a35.108,35.108,0,0,1,.977,3.6l.048.228.045.227.088.458c.017.076.031.154.043.229l.039.23.078.46c.045.307.093.616.131.923l.056.464c.018.154.039.307.053.462a42.071,42.071,0,0,1,.068,7.436,64.546,64.546,0,0,1-1.014,7.35c-.465,2.427-1.033,4.83-1.633,7.224s-1.233,4.771-1.823,7.157-1.139,4.783-1.58,7.19a61.64,61.64,0,0,0-.927,7.282,40.327,40.327,0,0,0,.176,7.311,32.942,32.942,0,0,0,.641,3.594c.018.074.033.148.053.222l.058.22.115.441.129.435c.043.146.084.293.134.436l.141.432.037.108.038.109.078.214c.051.143.1.287.154.428l.164.427.084.214c.026.069.058.139.086.21l.175.421c.057.142.121.281.182.421l.185.419.2.415c.065.137.127.277.2.412l.2.41.1.207.1.2q.834,1.631,1.79,3.2a68.192,68.192,0,0,0,4.16,6.052c1.488,1.948,3.068,3.829,4.718,5.641l-.5.46q-2.5-2.739-4.756-5.686a68.334,68.334,0,0,1-4.2-6.112c-.643-1.059-1.252-2.14-1.816-3.244l-.1-.207-.1-.207-.2-.419c-.069-.139-.134-.281-.2-.42l-.2-.423-.189-.427c-.061-.141-.127-.283-.184-.426l-.179-.431c-.031-.072-.062-.143-.09-.216l-.084-.217-.168-.436c-.053-.145-.1-.293-.158-.439l-.078-.22-.039-.11-.037-.111-.146-.444c-.048-.147-.1-.292-.137-.447l-.134-.449-.119-.454-.06-.225c-.018-.076-.035-.152-.053-.228a33.1,33.1,0,0,1-.652-3.67,40.686,40.686,0,0,1-.181-7.436,62.4,62.4,0,0,1,.935-7.362c.445-2.432,1-4.838,1.59-7.231s1.228-4.773,1.824-7.159,1.162-4.775,1.626-7.183a63.615,63.615,0,0,0,1-7.272,41.265,41.265,0,0,0-.065-7.315c-.015-.153-.035-.3-.052-.453l-.056-.454c-.039-.3-.086-.6-.129-.9l-.076-.449-.039-.226c-.012-.076-.024-.149-.041-.225l-.088-.447-.043-.224-.048-.223a34.324,34.324,0,0,0-.961-3.526l-.072-.217-.076-.216-.153-.431c-.024-.072-.049-.143-.078-.215l-.08-.214-.162-.427c-.115-.283-.225-.566-.345-.847l-.18-.419c-.062-.142-.121-.281-.187-.419a35.075,35.075,0,0,0-1.68-3.246,34.579,34.579,0,0,0-4.331-5.874,33.326,33.326,0,0,0-2.608-2.559q-.688-.6-1.408-1.171c-.478-.378-.968-.745-1.464-1.112s-.993-.731-1.481-1.108c-.248-.185-.488-.378-.737-.566s-.488-.391-.724-.586c-.119-.1-.24-.2-.358-.3s-.236-.205-.35-.309l-.345-.318-.086-.08-.084-.082-.167-.166-.166-.164c-.058-.056-.109-.116-.164-.17-.107-.115-.216-.228-.323-.345l-.309-.357c-.024-.03-.052-.06-.076-.09l-.074-.093-.148-.184Z" fill="#fff"/><path d="M3404.365-265.723a1.918,1.918,0,0,1-.991,1.1,5.077,5.077,0,0,1-.954.4c-.09.028-.186.057-.283.084s-.2.046-.3.067c-.207.043-.424.082-.654.117a11.93,11.93,0,0,1-1.51.132c-.273.008-.558.011-.851.008-.148,0-.293,0-.451-.008s-.3-.015-.462-.025c-.311-.02-.634-.044-.967-.078-.166-.014-.334-.031-.506-.048l-.516-.073c-.346-.051-.7-.106-1.074-.168l-.277-.046-.277-.056-.562-.117-.574-.127-.293-.066-.148-.033-.145-.039c-.391-.1-.79-.207-1.2-.32l-.306-.086c-.1-.028-.207-.058-.307-.09l-.618-.2-.628-.205c-.211-.069-.426-.138-.636-.216-.423-.154-.854-.311-1.289-.478-.108-.041-.22-.08-.328-.123l-.324-.134-.659-.273-.665-.281c-.221-.1-.441-.2-.665-.3l-.67-.31-.339-.158-.168-.08-.168-.082q-.671-.336-1.354-.683l-.173-.088-.168-.09-.338-.184-.684-.374-.344-.189-.17-.1-.17-.1-.684-.4-.683-.408c-.117-.068-.229-.138-.343-.209l-.339-.217-.684-.432-.342-.22c-.116-.072-.226-.149-.339-.224q-.677-.455-1.36-.921c-.455-.312-.9-.64-1.348-.967-.228-.162-.447-.331-.669-.5l-.669-.507a76.839,76.839,0,0,1-10-9.274c-1.531-1.691-2.98-3.435-4.334-5.206l-.5-.664-.249-.332c-.082-.111-.166-.222-.247-.335l-.958-1.34c-.312-.449-.616-.9-.92-1.348l-.225-.335-.22-.338-.432-.675-.216-.335c-.072-.113-.146-.225-.209-.328l-.391-.63-.39-.621-.371-.61-.367-.6-.351-.586-.346-.585-.335-.565-.646-1.1-.611-1.052-1.129-1.953-3.326-5.743q-.587-1.031-1.11-2-.133-.241-.259-.481l-.125-.24-.125-.231c-.082-.155-.164-.31-.244-.464l-.117-.234-.115-.222q-.9-1.763-1.66-3.4c-1.015-2.175-1.838-4.168-2.544-6.1l-.258-.72-.127-.358c-.041-.119-.082-.238-.123-.359l-.121-.353-.118-.358c-.039-.117-.078-.236-.115-.353l-.113-.355c-.293-.941-.566-1.88-.781-2.809-.054-.234-.1-.462-.149-.7s-.086-.466-.123-.7-.068-.46-.1-.689c-.013-.118-.022-.233-.033-.347s-.017-.227-.023-.343a8.093,8.093,0,0,1,.265-2.692,5.77,5.77,0,0,1,1.328-2.37c.08-.089.164-.175.252-.259s.177-.164.271-.242a6.345,6.345,0,0,1,.6-.456,6.736,6.736,0,0,1,.684-.406c.24-.123.5-.244.763-.351a11.2,11.2,0,0,1,3.8-.728c.182-.006.363-.006.549,0s.374.006.564.015.382.022.577.039.391.033.586.057.4.054.6.082l.3.049.306.056c.205.039.412.082.622.127s.414.1.625.152l.319.082.318.09c.211.061.426.127.642.195.425.14.864.293,1.295.464s.868.357,1.307.556.878.417,1.309.648a29.561,29.561,0,0,1,5.114,3.464,34.237,34.237,0,0,1,4.616,4.7c.088.108.179.219.263.328l.255.326c.167.218.334.437.5.661l.248.335.239.334c.16.226.318.451.474.684q.935,1.367,1.746,2.8c.07.119.142.24.209.363l.205.378q.21.384.431.8c.074.14.143.277.218.419l.217.433.226.445.113.227.111.23.451.946.116.244.113.244.227.5.23.508.227.516.23.523c.078.177.156.357.229.533l.46,1.084.458,1.1.459,1.122.458,1.139.92,2.3.232.58.232.577.232.579.224.548.221.546.111.277.119.275.474,1.112.5,1.129c.041.1.086.188.129.283l.133.283.265.57c.72,1.525,1.5,3.071,2.343,4.619a93.021,93.021,0,0,0,5.613,9.067l.382.542c.127.179.253.363.384.538l.773,1.059.781,1.036c.065.086.129.175.2.258l.2.253.4.505.195.253c.065.084.129.168.2.248l.4.488.4.488.1.123.1.119.2.238.4.477.2.236.1.119.1.115q.4.459.8.917l.1.115.1.112.2.221.4.441c.131.146.261.293.391.44l.4.424.391.423.2.211c.065.069.132.136.2.2q.391.406.769.808c.127.136.257.263.382.391l.378.39.374.382c.059.065.123.127.184.187l.185.182q.369.363.724.724l.09.09.088.086.179.173.35.343.343.338.17.17.168.16c.225.216.445.427.658.639l.317.316.314.293q.308.292.6.586c.1.1.188.195.283.287s.188.184.279.275q.273.271.525.54c.332.361.646.683.922,1.007.137.162.268.323.39.479.06.078.119.156.175.231l.164.22a5.709,5.709,0,0,1,.505.845A2.107,2.107,0,0,1,3404.365-265.723Z" fill="#95f7ff"/><path d="M3338.054-334.14a23.768,23.768,0,0,1,2.911,1.082c.119.052.236.106.352.162l.351.166c.234.113.463.232.693.348s.458.244.683.371l.337.2.168.1.166.1a31.047,31.047,0,0,1,4.941,3.722,40.155,40.155,0,0,1,4.2,4.529q.961,1.207,1.839,2.477l.219.318c.074.106.144.214.216.32l.425.643c.143.213.279.43.417.648l.41.65c1.083,1.747,2.076,3.542,3.026,5.354s1.855,3.648,2.762,5.48,1.8,3.667,2.733,5.479c.235.451.464.907.708,1.354l.361.671.181.337.186.332.376.662c.125.222.248.446.38.663.261.438.517.879.781,1.311q1.581,2.61,3.361,5.091t3.726,4.833l.489.586c.164.2.324.39.494.58l1.008,1.146,1.03,1.126c.084.1.175.185.261.277l.264.276.527.551q2.124,2.186,4.42,4.2c1.53,1.338,3.115,2.615,4.758,3.807a60.577,60.577,0,0,0,5.1,3.327,49.286,49.286,0,0,0,11.142,4.821l-.189.657a50.083,50.083,0,0,1-11.3-4.887,60.881,60.881,0,0,1-5.16-3.365c-1.66-1.207-3.263-2.495-4.807-3.847s-3.027-2.766-4.461-4.237l-.531-.557-.266-.279c-.088-.093-.179-.184-.265-.279l-1.039-1.134-1.017-1.158c-.17-.2-.332-.391-.5-.586l-.5-.586q-1.966-2.365-3.756-4.871c-1.19-1.671-2.325-3.38-3.39-5.134-.264-.44-.523-.879-.781-1.324-.134-.22-.255-.443-.382-.667l-.379-.669-.189-.336-.18-.339-.365-.678c-.246-.451-.477-.907-.712-1.361-.94-1.819-1.836-3.658-2.739-5.49s-1.807-3.661-2.754-5.467-1.933-3.585-3-5.313l-.406-.644c-.136-.214-.269-.43-.412-.64l-.421-.634c-.07-.106-.14-.211-.211-.316l-.216-.315q-.867-1.25-1.814-2.44a39.384,39.384,0,0,0-4.126-4.449,30.15,30.15,0,0,0-4.831-3.64l-.162-.1-.164-.1-.328-.188c-.219-.123-.443-.24-.663-.361s-.449-.23-.674-.339l-.343-.162c-.113-.054-.227-.108-.343-.158a23.107,23.107,0,0,0-2.831-1.051Z" fill="#fff"/><path d="M3404.8-265.723a1.835,1.835,0,0,1-.6-.892,3.111,3.111,0,0,1-.086-1.4,4.9,4.9,0,0,1,.209-.86,6.4,6.4,0,0,1,.417-.944,13.082,13.082,0,0,1,1.286-1.927c.488-.628,1.012-1.231,1.459-1.8.225-.286.43-.563.6-.829l.123-.2.058-.1.014-.023.006-.012.015-.017.057-.065c.15-.179.306-.356.464-.536a35.575,35.575,0,0,1,4.455-4.207,43.235,43.235,0,0,1,5.429-3.676c.238-.14.478-.269.718-.4l.719-.39.724-.369.359-.181.181-.09.182-.084.723-.338.359-.166.359-.157c.481-.206.954-.411,1.427-.6a42.627,42.627,0,0,1,5.287-1.721l.586-.144.285-.069.281-.06c.369-.078.724-.149,1.061-.215s.659-.109.959-.155c.152-.022.293-.042.437-.061s.275-.031.4-.045a16.371,16.371,0,0,1,5.893.449c.223.062.445.127.663.2s.43.146.642.226a13.059,13.059,0,0,1,1.211.521q.568.28,1.108.616c.342.217.674.45.993.7.156.121.305.248.451.378s.287.261.42.4a8.51,8.51,0,0,1,1.358,1.718,7.372,7.372,0,0,1,.479.923,7.25,7.25,0,0,1,.521,3.948,8.906,8.906,0,0,1-1.464,3.683c-.183.274-.382.542-.591.8s-.427.509-.657.749-.47.474-.719.7c-.124.11-.249.221-.379.326s-.257.209-.391.316c-.264.207-.536.4-.814.586s-.564.369-.855.533-.591.33-.892.476c-.153.074-.306.142-.46.211s-.31.14-.468.2a14.646,14.646,0,0,1-4.021,1l-.581.052c-.209.016-.43.028-.669.041s-.488.033-.746.043l-.2.01-.2.013-.421.022c-1.143.06-2.47.132-3.914.25-.361.025-.729.064-1.1.1l-.283.024-.284.032-.577.059-.143.015-.146.018-.292.035-.591.068-.6.078c-.195.026-.4.047-.6.078-1.609.224-3.266.5-4.9.819s-3.244.684-4.769,1.03l-.568.129-.072.015h-.017l-.024.007-.049.017-.195.067c-.132.043-.257.08-.382.119a13.4,13.4,0,0,1-1.385.328,14.36,14.36,0,0,1-2.179.224c-.616.017-1.136,0-1.617-.031-.238-.013-.461-.031-.693-.037l-.669-.023A3.591,3.591,0,0,1,3404.8-265.723Z" fill="#a271dc"/><path d="M3447.372-278.137a51.34,51.34,0,0,0-11.375-.336,51.835,51.835,0,0,0-5.647.759c-.935.173-1.862.382-2.786.6l-.691.177c-.229.062-.46.115-.683.183-.458.131-.918.252-1.367.4l-.683.209-.678.223c-.451.144-.9.308-1.346.466-.226.078-.445.166-.669.25l-.665.253-.661.268c-.219.09-.441.177-.659.274a53.126,53.126,0,0,0-5.113,2.515c-.825.472-1.644.952-2.441,1.465l-.6.39c-.2.132-.408.259-.616.384-.415.248-.835.48-1.256.71A26.121,26.121,0,0,0,3407-267.5a8.876,8.876,0,0,0-1.084.878c-.168.16-.326.33-.48.505a6.372,6.372,0,0,0-.425.551l-.4-.318c.142-.2.293-.4.449-.581a6.824,6.824,0,0,1,.505-.531,9.658,9.658,0,0,1,1.141-.925,27.025,27.025,0,0,1,2.486-1.473c.419-.228.833-.46,1.239-.7.2-.123.4-.246.6-.376l.6-.391c.806-.521,1.635-1.007,2.468-1.484a53.015,53.015,0,0,1,5.164-2.538c.218-.1.442-.186.663-.277l.667-.27.673-.257c.223-.084.447-.173.674-.25.451-.16.9-.326,1.358-.472l.683-.225.69-.211c.458-.144.921-.267,1.383-.4.229-.068.464-.123.7-.185l.7-.178c.933-.222,1.87-.436,2.814-.608a52.4,52.4,0,0,1,5.7-.767,51.977,51.977,0,0,1,11.486.341Z" fill="#fff"/><path d="M3460.3-239.2s-1.655,5.009-1.568,6.1,6.316,1.133,6.316,1.133l2.047-2.918Z" fill="#163342"/><path d="M3458.41-234.223a7.359,7.359,0,0,0-1.557,2.777c-.084,1.053-1.894,5.683-1.221,6.818s5.977,1.305,8.628.884,8.418.463,9.007-.673.926-2.794-.8-3.438-5.681-2.328-6.4-4.1S3458.41-234.223,3458.41-234.223Z" fill="#1c4154"/><path d="M3363.028-440.3l-.031-.5c.08-.005,7.96-.588,10.682-7.794a33.623,33.623,0,0,0,1.373-5.376c1.251-6.311,2.546-12.836,14.831-17.282,7.822-2.83,13.64-2.344,18.315-1.954,7.175.6,11.916.995,17.963-11l.444.224c-6.2,12.3-11.072,11.889-18.448,11.272-4.627-.386-10.385-.867-18.1,1.926-12.022,4.35-13.288,10.736-14.513,16.911a34.039,34.039,0,0,1-1.4,5.455C3371.306-440.9,3363.111-440.3,3363.028-440.3Z" fill="#49aef0"/><path d="M3373.384-354.3h-32.145v-32.146h32.145Zm-31.152-.994h30.159v-30.159h-30.159Z" fill="#a1d4ff"/><rect width="0.993" height="15.526" transform="translate(3356.815 -378.135)" fill="#a1d4ff"/><rect width="15.527" height="0.993" transform="translate(3349.548 -370.869)" fill="#a1d4ff"/><path d="M3360.933-441.152l-13.807-.356a3.482,3.482,0,0,0-2.188.7l-37.587,28.384a3.481,3.481,0,0,0-.68,4.876l10.37,13.734a3.481,3.481,0,0,0,4.877.68l37.587-28.384a3.486,3.486,0,0,0,1.274-1.912l3.436-13.378A3.48,3.48,0,0,0,3360.933-441.152Zm.924,5.049a1.862,1.862,0,0,1-2.609-.364,1.864,1.864,0,0,1,.364-2.61,1.863,1.863,0,0,1,2.609.365A1.863,1.863,0,0,1,3361.857-436.1Z" fill="#49aef0"/><path d="M3326.237-405.606a6.116,6.116,0,0,1-1.812.948,4.9,4.9,0,0,1-1.9.248l-.043-2.049a1.313,1.313,0,0,0,.459.064,4.229,4.229,0,0,0,.756-.064,4.447,4.447,0,0,0,.908-.256,3.837,3.837,0,0,0,.914-.516,1.977,1.977,0,0,0,.8-1.014,1.06,1.06,0,0,0-.2-.945.7.7,0,0,0-.406-.271,1.505,1.505,0,0,0-.561-.013,4.4,4.4,0,0,0-.7.171q-.387.126-.838.292a4.306,4.306,0,0,1-1.754.319,1.69,1.69,0,0,1-1.237-.736,3.324,3.324,0,0,1-.651-1.441,3.62,3.62,0,0,1,.047-1.478,4.027,4.027,0,0,1,.636-1.382,5.171,5.171,0,0,1,1.117-1.149,4.481,4.481,0,0,1,1.607-.8,5.07,5.07,0,0,1,1.508-.168l0,1.962a1.133,1.133,0,0,0-.372-.052,3.084,3.084,0,0,0-.615.054,3.979,3.979,0,0,0-.726.207,2.957,2.957,0,0,0-.714.4,1.874,1.874,0,0,0-.783,1.046,1.211,1.211,0,0,0,.246,1.021.708.708,0,0,0,.343.257,1,1,0,0,0,.469.031,3.334,3.334,0,0,0,.6-.15q.334-.113.766-.282a7.825,7.825,0,0,1,1.018-.331,3.029,3.029,0,0,1,.9-.093,1.849,1.849,0,0,1,.786.219,2.109,2.109,0,0,1,.678.607,3.324,3.324,0,0,1,.677,1.5,3.252,3.252,0,0,1-.1,1.446,3.949,3.949,0,0,1-.7,1.308A6.236,6.236,0,0,1,3326.237-405.606Z" fill="#fff"/><path d="M3332.38-410.21a2.5,2.5,0,0,1-1.014.477,2.372,2.372,0,0,1-1.034-.015,2.776,2.776,0,0,1-.982-.456,3.859,3.859,0,0,1-.85-.836,4.664,4.664,0,0,1-.786-1.584,4.936,4.936,0,0,1-.177-1.694,4.355,4.355,0,0,1,.413-1.571,3.262,3.262,0,0,1,.988-1.218,2.089,2.089,0,0,1,1.259-.461,1.958,1.958,0,0,1,1.194.375l-.534-1.171,1.492-1.127,2.226,4.755a1.025,1.025,0,0,0,.118.226q.177.234.453.043l.691,1.471c-.117.124-.22.23-.309.321a2.183,2.183,0,0,1-.245.22,1.28,1.28,0,0,1-.744.3.728.728,0,0,1-.607-.329,2.68,2.68,0,0,1-.252-.474,3.543,3.543,0,0,1-.362,1.594A3.23,3.23,0,0,1,3332.38-410.21Zm-.291-1.774a1.615,1.615,0,0,0,.352-.379,2.209,2.209,0,0,0,.262-.522,3.118,3.118,0,0,0,.143-.6,2.357,2.357,0,0,0,.006-.616l-.762-1.611a1.72,1.72,0,0,0-1-.519,1.287,1.287,0,0,0-.99.241,1.764,1.764,0,0,0-.552.705,2.5,2.5,0,0,0-.215.931,3.23,3.23,0,0,0,.121.994,2.679,2.679,0,0,0,.442.9,1.882,1.882,0,0,0,1.044.734A1.3,1.3,0,0,0,3332.089-411.984Z" fill="#fff"/><path d="M3338.422-414.807a1.612,1.612,0,0,1-1.067.394,1.184,1.184,0,0,1-.869-.525,2.162,2.162,0,0,1-.14-.209c-.043-.072-.088-.154-.134-.248l-3.675-7.876,1.482-1.118,3.4,7.26c.021.043.043.084.067.124s.051.079.079.116a.506.506,0,0,0,.8.112,1.332,1.332,0,0,0,.251-.26,2.56,2.56,0,0,0,.222-.342l.813,1.169a4.065,4.065,0,0,1-.561.774A4.943,4.943,0,0,1,3338.422-414.807Z" fill="#fff"/><path d="M3343.038-418.258a3.217,3.217,0,0,1-1.136.568,2.714,2.714,0,0,1-1.138.056,2.746,2.746,0,0,1-1.062-.422,3.636,3.636,0,0,1-.906-.864,4.276,4.276,0,0,1-.755-1.59,4.533,4.533,0,0,1-.082-1.73,4.69,4.69,0,0,1,.581-1.663,4.554,4.554,0,0,1,1.235-1.388,3.1,3.1,0,0,1,1.824-.721,1.769,1.769,0,0,1,1.475.783q1.422,1.883-1.942,4.423c-.134.1-.272.2-.412.311s-.3.211-.463.314l.109.145a2,2,0,0,0,.992.756,1.224,1.224,0,0,0,1.124-.272,2.2,2.2,0,0,0,.68-.847,2.037,2.037,0,0,0,.184-1.065l1.458-.524a3.947,3.947,0,0,1-.079,1.03,4.506,4.506,0,0,1-.341,1.019,4.825,4.825,0,0,1-.572.921A4.2,4.2,0,0,1,3343.038-418.258Zm-2.671-5.784a1.924,1.924,0,0,0-.512.571,2.121,2.121,0,0,0-.257.692,2.8,2.8,0,0,0-.03.758,3.288,3.288,0,0,0,.161.77c.125-.082.242-.166.354-.25l.345-.26a7.919,7.919,0,0,0,.866-.742,2.648,2.648,0,0,0,.475-.621,1.011,1.011,0,0,0,.131-.51.773.773,0,0,0-.165-.426.68.68,0,0,0-.611-.3A1.428,1.428,0,0,0,3340.367-424.042Z" fill="#fff"/><rect width="99.813" height="5.587" transform="translate(3572.787 -437.84)" fill="#78c2ff"/><rect width="99.813" height="5.586" transform="translate(3572.787 -458.801)" fill="#78c2ff"/><path d="M10.276,0H168.133a10.275,10.275,0,0,1,10.275,10.275V215.8a10.276,10.276,0,0,1-10.276,10.276H10.276A10.276,10.276,0,0,1,0,215.8V10.276A10.276,10.276,0,0,1,10.276,0Z" transform="translate(3596.375 -257.584) rotate(180)" fill="url(#a)"/><rect width="157.881" height="217.997" transform="translate(3428.23 -497.678)" fill="#fff"/><path d="M3428.231-503.967v21.232s4.232,5.981,9.287,0h9.287s4.233,5.981,9.287,0h9.287s4.233,5.981,9.287,0h9.287s4.233,5.981,9.287,0h9.287s4.233,5.981,9.288,0h9.287s4.233,5.981,9.287,0h9.287s4.233,5.981,9.287,0h9.287s4.233,5.981,9.287,0h9.287s4.233,5.981,9.287,0v-21.232Z" fill="#d2b3ff"/><path d="M3437.518-482.735s4.233,5.981,9.287,0v-21.232h-9.287Z" fill="#47286d"/><path d="M3456.092-482.735s4.233,5.981,9.287,0v-21.232h-9.287Z" fill="#47286d"/><path d="M3474.666-482.735s4.233,5.981,9.287,0v-21.232h-9.287Z" fill="#47286d"/><path d="M3493.24-482.735s4.233,5.981,9.287,0v-21.232h-9.287Z" fill="#47286d"/><path d="M3511.815-482.735s4.232,5.981,9.287,0v-21.232h-9.287Z" fill="#47286d"/><path d="M3530.389-482.735s4.233,5.981,9.287,0v-21.232h-9.287Z" fill="#47286d"/><path d="M3548.963-482.735s4.233,5.981,9.287,0v-21.232h-9.287Z" fill="#47286d"/><path d="M3567.537-503.967v21.232s4.233,5.981,9.287,0v-21.232Z" fill="#47286d"/><path d="M3716.7-403.594l-.889,10.363-29.3-2.513,1.172-13.667,26,2.229.129.153,2.76,3.275Z" fill="#78c2ff"/><path d="M3716.7-403.594l-3.278-.281.281-3.277.054.064.123.145,2.616,3.105Z" fill="#2180cc"/><path d="M3704.669-401.07a3.163,3.163,0,0,1-3.423,2.881,3.165,3.165,0,0,1-2.882-3.422,3.165,3.165,0,0,1,3.423-2.882A3.164,3.164,0,0,1,3704.669-401.07Z" fill="#2180cc"/><path d="M3711.128-400.517a1.338,1.338,0,0,1-1.447,1.219,1.338,1.338,0,0,1-1.219-1.447,1.337,1.337,0,0,1,1.447-1.218A1.338,1.338,0,0,1,3711.128-400.517Z" fill="#2180cc"/><path d="M3691.905-402.165a1.338,1.338,0,0,1,1.448-1.218,1.337,1.337,0,0,1,1.218,1.447,1.338,1.338,0,0,1-1.447,1.218A1.339,1.339,0,0,1,3691.905-402.165Z" fill="#2180cc"/><path d="M3780.465-429.946l5.122,9.564L3758.546-405.9l-6.756-12.612,23.991-12.851.2.061,4.275,1.292Z" fill="#78c2ff"/><path d="M3780.465-429.946l-3.026,1.621-1.62-3.024.084.025.19.057,4.054,1.225Z" fill="#2180cc"/><path d="M3771.388-420.893a3.3,3.3,0,0,1-1.35,4.468,3.3,3.3,0,0,1-4.468-1.351,3.3,3.3,0,0,1,1.351-4.467A3.3,3.3,0,0,1,3771.388-420.893Z" fill="#2180cc"/><path d="M3777.349-424.085a1.4,1.4,0,0,1-.571,1.888,1.394,1.394,0,0,1-1.888-.571,1.393,1.393,0,0,1,.571-1.888A1.4,1.4,0,0,1,3777.349-424.085Z" fill="#2180cc"/><path d="M3759.609-414.583a1.4,1.4,0,0,1,.572-1.889,1.394,1.394,0,0,1,1.888.571,1.4,1.4,0,0,1-.571,1.889A1.4,1.4,0,0,1,3759.609-414.583Z" fill="#2180cc"/><path d="M3757.894-442.355l-6.525,8.668-24.508-18.451,8.605-11.43,21.743,16.37.028.207.625,4.423Z" fill="#78c2ff"/><path d="M3757.894-442.355l-2.742-2.064,2.064-2.741.011.087.028.2.592,4.194Z" fill="#2180cc"/><path d="M3745.863-446.787a3.3,3.3,0,0,1-4.621.652,3.3,3.3,0,0,1-.651-4.621,3.3,3.3,0,0,1,4.621-.652A3.3,3.3,0,0,1,3745.863-446.787Z" fill="#2180cc"/><path d="M3751.266-442.72a1.4,1.4,0,0,1-1.954.276,1.4,1.4,0,0,1-.276-1.954,1.4,1.4,0,0,1,1.954-.275A1.394,1.394,0,0,1,3751.266-442.72Z" fill="#2180cc"/><path d="M3735.189-454.823a1.4,1.4,0,0,1,1.954-.276,1.4,1.4,0,0,1,.275,1.954,1.393,1.393,0,0,1-1.953.275A1.4,1.4,0,0,1,3735.189-454.823Z" fill="#2180cc"/><path d="M3787.491-493.2l5.905,9.1-25.733,16.7-7.788-12,22.831-14.814.2.043,4.369.929Z" fill="#78c2ff"/><path d="M3787.491-493.2l-2.879,1.868-1.867-2.877.086.018.193.041,4.144.881Z" fill="#2180cc"/><path d="M3779.2-483.416a3.3,3.3,0,0,1-.972,4.564,3.3,3.3,0,0,1-4.564-.972,3.3,3.3,0,0,1,.972-4.564A3.3,3.3,0,0,1,3779.2-483.416Z" fill="#2180cc"/><path d="M3784.877-487.1a1.4,1.4,0,0,1-.411,1.93,1.4,1.4,0,0,1-1.93-.411,1.4,1.4,0,0,1,.411-1.93A1.4,1.4,0,0,1,3784.877-487.1Z" fill="#2180cc"/><path d="M3768-476.143a1.4,1.4,0,0,1,.412-1.93,1.4,1.4,0,0,1,1.93.411,1.4,1.4,0,0,1-.412,1.93A1.4,1.4,0,0,1,3768-476.143Z" fill="#2180cc"/><path d="M9.932,0H89.881a9.931,9.931,0,0,1,9.931,9.931v18a9.932,9.932,0,0,1-9.932,9.932H9.932A9.932,9.932,0,0,1,0,27.932v-18A9.932,9.932,0,0,1,9.932,0Z" transform="translate(3604.072 -464.283)" fill="#31d9e7"/><path d="M3629.3-437.46a8.018,8.018,0,0,1-3.512-.756,8.629,8.629,0,0,1-2.7-2.011,9.119,9.119,0,0,1-1.749-2.866,9.109,9.109,0,0,1-.621-3.3,8.846,8.846,0,0,1,.658-3.375,9.316,9.316,0,0,1,1.811-2.854,8.621,8.621,0,0,1,2.742-1.972,8.142,8.142,0,0,1,3.449-.733,7.736,7.736,0,0,1,3.487.782,8.721,8.721,0,0,1,2.693,2.047,9.429,9.429,0,0,1,1.736,2.879,9.051,9.051,0,0,1,.621,3.276,8.908,8.908,0,0,1-.645,3.362,9.179,9.179,0,0,1-1.786,2.829,8.588,8.588,0,0,1-2.731,1.96A8.121,8.121,0,0,1,3629.3-437.46Zm-5.111-8.933a7.1,7.1,0,0,0,.346,2.208,5.933,5.933,0,0,0,1.005,1.887,5.026,5.026,0,0,0,1.613,1.315,4.643,4.643,0,0,0,2.172.5,4.592,4.592,0,0,0,2.2-.509,5.02,5.02,0,0,0,1.613-1.352,6.026,6.026,0,0,0,.992-1.9,7.023,7.023,0,0,0,.336-2.146,6.9,6.9,0,0,0-.36-2.209,6.1,6.1,0,0,0-1.017-1.886,4.867,4.867,0,0,0-1.613-1.3,4.693,4.693,0,0,0-2.147-.484,4.679,4.679,0,0,0-2.209.509,4.922,4.922,0,0,0-1.613,1.341,6.009,6.009,0,0,0-.979,1.885A7.041,7.041,0,0,0,3624.188-446.393Z" fill="#fff"/><path d="M3640.54-437.584V-455.2h7.47a5,5,0,0,1,2.245.508,5.8,5.8,0,0,1,1.775,1.34,6.358,6.358,0,0,1,1.166,1.886,5.678,5.678,0,0,1,.421,2.122,6.125,6.125,0,0,1-.4,2.171,6.021,6.021,0,0,1-1.117,1.874,5.493,5.493,0,0,1-1.737,1.315,5.022,5.022,0,0,1-2.233.5h-4.169v5.906Zm3.425-8.908h3.971a1.964,1.964,0,0,0,1.576-.77,3.184,3.184,0,0,0,.632-2.084,3.424,3.424,0,0,0-.2-1.2,2.925,2.925,0,0,0-.521-.9,2.07,2.07,0,0,0-.757-.559,2.221,2.221,0,0,0-.881-.186h-3.821Z" fill="#fff"/><path d="M3668.234-440.587v3H3656V-455.2h12.01v3h-8.586v4.243h7.42v2.78h-7.42v4.59Z" fill="#fff"/><path d="M3674.338-448.875v11.291h-3.425V-455.2h2.655l9.182,11.563v-11.539h3.426v17.594H3683.4Z" fill="#fff"/><path d="M3512.943-269.253a5.772,5.772,0,0,1-5.772,5.773,5.773,5.773,0,0,1-5.773-5.773,5.773,5.773,0,0,1,5.773-5.772A5.772,5.772,0,0,1,3512.943-269.253Z" fill="#a1a1a1"/><path d="M3437.648-311.534v.607h8.261l1.347,5.935,2.321,10.773v.384H3461.8l-.263,1.1h-10.829v.608h.64a1.44,1.44,0,0,0-.944,1.349,1.442,1.442,0,0,0,1.44,1.441,1.442,1.442,0,0,0,1.44-1.441,1.441,1.441,0,0,0-.943-1.349h8.1a1.44,1.44,0,0,0-.944,1.349,1.442,1.442,0,0,0,1.44,1.441,1.443,1.443,0,0,0,1.44-1.441,1.439,1.439,0,0,0-.943-1.349h.587l.408-1.7h1.6v-.384l2.835-13.16v-.769h-19.7l-.769-3.386Zm23.284,19.921a.833.833,0,0,1,.833.832.834.834,0,0,1-.833.833.833.833,0,0,1-.832-.833A.832.832,0,0,1,3460.932-291.613Zm-9.089,0a.834.834,0,0,1,.833.832.834.834,0,0,1-.833.833.833.833,0,0,1-.832-.833A.833.833,0,0,1,3451.843-291.613Zm7.267-7.506H3454.5l-.269-3.746h5.152Zm.946-3.746h5.145l-.807,3.746h-4.607Zm-6.153-4.514h5.8l-.269,3.746h-5.262Zm-.408,3.746h-5.256l-.806-3.746h5.793Zm5.56,5.283-.269,3.747h-3.966l-.269-3.747Zm-4.911,3.747h-3.96l-.806-3.747h4.5Zm-4.948-4.59-.791-3.672h5.145l.269,3.746h-4.606Zm16.977-8.186-.806,3.746h-5.256l.269-3.746Zm-2.751,12.776h-3.959l.269-3.747h4.5Z" fill="#78c2ff"/><rect width="87.815" height="3.476" transform="translate(3441.522 -366.83)" fill="#bfe2ff"/><rect width="77.263" height="3.477" transform="translate(3441.522 -357.531)" fill="#bfe2ff"/><path d="M3471.353-308.241a4.608,4.608,0,0,1-4.608,4.608,4.607,4.607,0,0,1-4.607-4.608,4.607,4.607,0,0,1,4.607-4.608A4.608,4.608,0,0,1,3471.353-308.241Z" fill="#ff8080"/><path d="M3470.775-431.318h-25.868a5.235,5.235,0,0,1-5.229-5.229v-25.869a5.235,5.235,0,0,1,5.229-5.229h25.868a5.235,5.235,0,0,1,5.229,5.229v25.869A5.235,5.235,0,0,1,3470.775-431.318Zm-25.868-34.837a3.743,3.743,0,0,0-3.739,3.739v25.869a3.743,3.743,0,0,0,3.739,3.739h25.868a3.743,3.743,0,0,0,3.739-3.739v-25.869a3.743,3.743,0,0,0-3.739-3.739Z" fill="#bb83ff"/><path d="M0,0H34.836a0,0,0,0,1,0,0V5.091A4.779,4.779,0,0,1,30.058,9.87H4.779A4.779,4.779,0,0,1,0,5.09V0A0,0,0,0,1,0,0Z" transform="translate(3440.422 -441.933)" fill="#47286d" opacity="0.78"/><rect width="47.056" height="2.295" transform="translate(3480.573 -458.934)" fill="#47286d" opacity="0.54"/><rect width="61.07" height="2.295" transform="translate(3480.573 -448.584)" fill="#47286d" opacity="0.54"/><rect width="24.122" height="2.295" transform="translate(3480.573 -453.759)" fill="#47286d" opacity="0.54"/><path d="M3470.775-383.3h-25.868a5.235,5.235,0,0,1-5.229-5.229V-414.4a5.235,5.235,0,0,1,5.229-5.229h25.868A5.235,5.235,0,0,1,3476-414.4v25.868A5.235,5.235,0,0,1,3470.775-383.3Zm-25.868-34.837a3.744,3.744,0,0,0-3.739,3.74v25.868a3.743,3.743,0,0,0,3.739,3.739h25.868a3.743,3.743,0,0,0,3.739-3.739V-414.4a3.744,3.744,0,0,0-3.739-3.74Z" fill="#bb83ff"/><rect width="56.767" height="2.295" transform="translate(3480.573 -410.921)" fill="#47286d" opacity="0.54"/><rect width="35.683" height="2.295" transform="translate(3480.573 -400.57)" fill="#47286d" opacity="0.54"/><rect width="21.799" height="2.295" transform="translate(3480.573 -405.746)" fill="#47286d" opacity="0.54"/><path d="M0,0H34.836a0,0,0,0,1,0,0V5.091A4.779,4.779,0,0,1,30.058,9.87H4.779A4.779,4.779,0,0,1,0,5.091V0A0,0,0,0,1,0,0Z" transform="translate(3440.422 -393.92)" fill="#47286d" opacity="0.78"/><path d="M3490.078-440.57a3.088,3.088,0,0,0-3.32.836,3.086,3.086,0,0,0-3.319-.836c-2,.725-1.639,2.249-1.639,2.249.155,3.051,4.958,6.257,4.958,6.257s4.674-3.218,4.959-6.257C3491.717-438.321,3492.074-439.845,3490.078-440.57Z" fill="#bb83ff"/><path d="M3504-440.57a3.086,3.086,0,0,0-3.319.836,3.089,3.089,0,0,0-3.321-.836c-1.995.725-1.638,2.249-1.638,2.249.155,3.051,4.959,6.257,4.959,6.257s4.673-3.218,4.958-6.257C3505.638-438.321,3506-439.845,3504-440.57Z" fill="#bb83ff"/><path d="M3517.649-440.57a3.087,3.087,0,0,0-3.32.836,3.088,3.088,0,0,0-3.32-.836c-2,.725-1.639,2.249-1.639,2.249.156,3.051,4.959,6.257,4.959,6.257s4.673-3.218,4.958-6.257C3519.287-438.321,3519.644-439.845,3517.649-440.57Z" fill="#bb83ff"/><path d="M3531.3-440.57a3.088,3.088,0,0,0-3.32.836,3.088,3.088,0,0,0-3.32-.836c-1.995.725-1.638,2.249-1.638,2.249.155,3.051,4.958,6.257,4.958,6.257s4.673-3.218,4.959-6.257C3532.937-438.321,3533.294-439.845,3531.3-440.57Z" fill="#bb83ff"/><path d="M3545.052-440.57a3.088,3.088,0,0,0-3.32.836,3.087,3.087,0,0,0-3.32-.836c-2,.725-1.638,2.249-1.638,2.249.155,3.051,4.958,6.257,4.958,6.257s4.673-3.218,4.959-6.257C3546.691-438.321,3547.047-439.845,3545.052-440.57Z" fill="#bb83ff"/><path d="M3490.078-391.885a3.09,3.09,0,0,0-3.32.836,3.087,3.087,0,0,0-3.319-.836c-2,.725-1.639,2.249-1.639,2.249.155,3.051,4.958,6.257,4.958,6.257s4.674-3.219,4.959-6.257C3491.717-389.636,3492.074-391.16,3490.078-391.885Z" fill="#bb83ff"/><path d="M3504-391.885a3.088,3.088,0,0,0-3.319.836,3.091,3.091,0,0,0-3.321-.836c-1.995.725-1.638,2.249-1.638,2.249.155,3.051,4.959,6.257,4.959,6.257s4.673-3.219,4.958-6.257C3505.638-389.636,3506-391.16,3504-391.885Z" fill="#bb83ff"/><path d="M3517.649-391.885a3.089,3.089,0,0,0-3.32.836,3.09,3.09,0,0,0-3.32-.836c-2,.725-1.639,2.249-1.639,2.249.156,3.051,4.959,6.257,4.959,6.257s4.673-3.219,4.958-6.257C3519.287-389.636,3519.644-391.16,3517.649-391.885Z" fill="#bb83ff"/><path d="M3567.755-400.972H3554.8v-.993h11.959v-49H3554.8v-.993h12.952Z" fill="#bfe2ff"/><path d="M3311.366-381.07a4.506,4.506,0,0,0-4.99,2.079c-1.638,2.962,4.859,12.2,2.128,15.962-2.413,3.326-4.623,1.648-4.623,1.648s4.612,5.01,8.567-.9c2.372-3.546,1.347-7.407,1.224-10.6S3311.366-381.07,3311.366-381.07Z" fill="#995d31"/><path d="M3337.356-233.452s.9,2.394,2.149,2.962,4.083,3.2,5.219,3.385,3.864.4,4.016,1.844-.142,2.746-5.636,1.988a40.495,40.495,0,0,1-10.684-3.3s-1.109-5.566.677-8.314S3337.356-233.452,3337.356-233.452Z" fill="#2f4563"/><path d="M3337.356-233.452l-1.028-3.432H3332.4v3.659S3338.342-230.995,3337.356-233.452Z" fill="#eea886"/><path d="M3302.916-239.919a10.23,10.23,0,0,0,1,3.233c.609.751,1.49,4.323,2.734,5.464s4.291,3.709,3.358,4.994-7.455-.366-9.786-4.337-3.128-4.423-2.831-5.5,2.508-5.228,2.455-5.731S3302.916-239.919,3302.916-239.919Z" fill="#2f4563"/><path d="M3303.868-241.7a6.535,6.535,0,0,0-.952,1.784c-.165.659-1.607.918-2.764-.51a2.3,2.3,0,0,1-.31-1.369,12.392,12.392,0,0,1,1.025-2.868Z" fill="#eea886"/><path d="M3330.319-327.509c.052.065.127.158.224.276h0c.248.3.631.767,1.115,1.345,2.8,3.341,8.943,10.469,11.283,11.757,1.658.911,1.912-1.954.262-3.715-1.5-1.607-7.312-11.967-9.56-14.2-1.093-1.083-2.561-11.317-2.561-11.317s-1.359,8.534-1.207,9.516S3329.361-328.7,3330.319-327.509Z" fill="#e6d3cc"/><path d="M3343.2-317.845s.966,1.271,1.467,1.43,1.078,1.04,1.5,1.268,1.794.446,2.126.831a13.1,13.1,0,0,0,.889,1.738c.311.29,1.017.8.751,1.061s-1.028-.026-1.028-.026a.532.532,0,0,1,.1.581c-.316.582-.734.574-.734.574s.081.463-.112.673a1.168,1.168,0,0,1-.83.444,1.069,1.069,0,0,1-.429.593.978.978,0,0,1-.938.073s-.476.52-.844.381a3.317,3.317,0,0,1-.81-.62,12.169,12.169,0,0,1-2.379-4.522,8.986,8.986,0,0,0-1.645-3.442Z" fill="#eea886"/><path d="M3342.565-303.073c-.066-.143-1.609-3.535-.476-6.168a4.489,4.489,0,0,1,2.864-2.482,6.128,6.128,0,0,1,5.2.313,8.454,8.454,0,0,1,3.208,3.859,12.662,12.662,0,0,1,.844,2.482l.059.291-11.606,1.9Zm7.3-7.841a5.577,5.577,0,0,0-4.73-.267,3.938,3.938,0,0,0-2.52,2.165c-.886,2.055.082,4.758.385,5.505l10.573-1.734C3353.317-306.235,3352.3-309.506,3349.865-310.914Z" fill="#23344a"/><path d="M3373.23-272.369l-37.167,4.836-6.3-34.037,38.858-6.647Z" fill="#eb4747"/><path d="M3381.979-274.86l-13.359-33.357,4.61,35.849,3.892-2.279Z" fill="#ad3434"/><path d="M3340.859-303.427c-.044-.16-1.066-3.962.57-6.511a4.743,4.743,0,0,1,3.415-2.093,6.468,6.468,0,0,1,5.364,1.227,8.932,8.932,0,0,1,2.677,4.576,13.332,13.332,0,0,1,.45,2.733l.011.314-12.426-.025Zm8.965-6.91a5.888,5.888,0,0,0-4.884-1.1,4.163,4.163,0,0,0-3,1.821c-1.28,1.989-.738,4.974-.551,5.8l11.321.022C3352.612-304.864,3352.124-308.448,3349.824-310.337Z" fill="#23344a"/><path d="M3367.514-266.119l-39.577-1.387-.683-36.568,41.654-.21Z" fill="#faa146"/><path d="M3377.064-267.2l-8.157-37.08-1.394,38.165,4.45-1.7Z" fill="#b06e2a"/><path d="M3348.829-311.8s-1.45-1.931-2.279-1.966-.344.691-.344.691-.466-.725-1.095-.415-.015,1.131-.015,1.131a.7.7,0,0,0-1,.075c-.5.53.166,1.094.166,1.094s-1.074-.248-.94.641a3.618,3.618,0,0,0,1.8,2.322s.4.161.844-.381a.967.967,0,0,0,1.367-.666s1.215-.157.942-1.117A.842.842,0,0,0,3348.829-311.8Z" fill="#db9c7c"/><path d="M3320.111-298.127c.2.991,1.517,5.132,2.985,9.736h0c1.339,4.2,2.809,8.774,3.69,11.7.329,1.09.576,1.949.7,2.472.846,3.459-.106,8.885-.413,13.42s4.582,26.846,4.582,26.846c1.153.538,6.268-.885,6.268-.885-.845-1.615-1.982-29.388-1.521-31.157a26.82,26.82,0,0,0,.307-8.608,7.5,7.5,0,0,1-.15-1.543c-.039-2.425.46-6.435.765-10.832.385-5.535-1.767-19.293-2.074-20.523-.029-.114-.074-.272-.131-.468-.566-1.929-2.389-7.407-2.389-7.407-3.7-1.1-6.482-1.3-8.56-.875a6.36,6.36,0,0,0-5.021,4.307C3317.345-306.945,3319.845-299.411,3320.111-298.127Z" fill="#32658f"/><path d="M3299.1-242.4l5.048,2.145c.635-3.075,14.733-24.431,15.661-26.814a34.866,34.866,0,0,0,1.916-8.685c0-.3.022-.811.065-1.472.164-2.564.633-7.4,1.306-11.16.125-.7.258-1.366.4-1.972.744-3.245.873-14.331.882-20.851,0-2.9-.016-4.9-.016-4.9s-.064-.051-.185-.141c-1.4-1.061-10.392-7.528-13.527-1.483a18.152,18.152,0,0,0-1.7,5.1,58.8,58.8,0,0,0-.17,17.852c.7,4.81,2.987,11.025,3.369,16.068.211,2.774.134,5.019-.493,6.11-1.768,3.075-3.5,5.678-7.071,16.526C3303.422-252.553,3299.1-242.4,3299.1-242.4Z" fill="#3f74a0"/><path d="M3319.328-382.4s6.961.239,7.24,10.32-1.913,12.23-8.121,10.129-8.168-12.649-8.308-14.282S3309.759-383.609,3319.328-382.4Z" fill="#eea886"/><path d="M3306.735-348.211c-.027,3.471,3.963,11.769,4.579,14.332s1.588,3.382.768,6.662-3.362,14.374-3.259,15.347,22.867,4.564,26.3,3.9c0,0-4.2-15.661-4.5-17.454s.373-8.518.527-10.414,2.073-5.977,2.008-7.877c-.065-1.937-1.016-3.609-2.346-5.676-.412-.642-.845-1.294-1.279-1.929a36.627,36.627,0,0,0-3.508-4.593,11.288,11.288,0,0,0-1.412-1.128l0,0a6.563,6.563,0,0,0-1.454-.766l-6.1-.974s-3.8,1.375-5.987,1.887C3311.066-356.9,3306.8-356.276,3306.735-348.211Z" fill="#e6d3cc"/><path d="M3324.6-357.045l3.534,5.571,3.262,5.141c-.008-.028-.225-.806-.593-3.06-.071-.428-.146-.909-.226-1.448a3.846,3.846,0,0,0-.1-.474h0c-1.4-3.219-5.713-5.646-5.87-5.727Z" fill="#e6d3cc"/><path d="M3314.456-366.488c.615,1.161,1.265,8.369,1.265,8.369s8.677,3.281,7.789,1.425a7.073,7.073,0,0,1-.529-2.876,13.9,13.9,0,0,1,.1-1.751c.022-.189.04-.3.04-.3S3313.841-367.65,3314.456-366.488Z" fill="#eea886"/><path d="M3318.129-362.064c1.332,1.965,4.851,2.494,4.851,2.494h0a13.9,13.9,0,0,1,.1-1.751A9.906,9.906,0,0,1,3318.129-362.064Z" fill="#a77860"/><path d="M3330.464-351.354h0a7.276,7.276,0,0,1,.344,1.961l-1.279-1.929s-2.282-3.273-3.064-4.124a13.074,13.074,0,0,0-1.856-1.6S3329.1-354.884,3330.464-351.354Z" fill="#e6d3cc"/><path d="M3323.151-357.811s4.089,6.287,2.705,6.837-8.876-.734-12.062-6.7C3313.794-357.679,3318.557-360.122,3323.151-357.811Z" fill="#eea886"/><path d="M3344.152-316.775s-2.088.691-2.729,1.881a19.431,19.431,0,0,0-1.765-2.052l3.161-1.369Z" fill="#e6d3cc"/><path d="M3331.138-335.737c.01-.085.015-.135.015-.142a.158.158,0,0,0-.007.039C3331.143-335.817,3331.14-335.783,3331.138-335.737Z" fill="#2f4563"/><path d="M3330.543-327.233h0c.248.3,1.171,1.417,1.655,1.995,0,0-1.1-9.3-1.06-10.5A68.412,68.412,0,0,0,3330.543-327.233Z" fill="#bdaea8"/><path d="M3323.026-314.662,3298.1-322.19l5.707-23.361,26.515,6.861Z" fill="#eb4747"/><path d="M3329.28-313.748l1.041-24.942-7.3,24.028,3.115-.336Z" fill="#ad3434"/><path d="M3307.327-351.41s.963-6.5,5.724-5.427c4.575,1.03.287,9.548-.048,10.556s-3.725,9.246-4.018,10.326c-.929,3.413-.059,3.493,1.339,4.3,4.126,2.376,12.415,2.794,13.394,3.447s1.114,2.112-.529,2.183c-2.139.092-14.36-1.059-16.064-1.226-1.653-.162-4.945-.3-4.081-6.175C3303.626-337.384,3307.327-351.41,3307.327-351.41Z" fill="#e6d3cc"/><path d="M3316.406-329.69s2.548.427,2.786.388,1.244-1.688,2.411-1.984a24.006,24.006,0,0,0,2.985-.748c.359-.224.458.92-.663,1.388s-1.4,1.093.7,1.514c1.161.233,5.5-.251,5.14.481-.211.431-4.393.738-4.393.738s4.512-.02,4.665.252c.3.538-4.223.728-4.412.71,0,0,3.878.223,3.912.571.042.432-3.886.249-3.85.319,0,0,3.083.213,3.052.475-.041.345-2.753.387-3.279.325s-5.841-.666-6.732-.844-2.4-.282-2.4-.282Z" fill="#eea886"/><path d="M3311.571-331.044a47.758,47.758,0,0,0,4.835,1.354c2.343.5-.078,3.3-.078,3.3s-4.056-.386-6.009-.566C3309.6-327.018,3311.571-331.044,3311.571-331.044Z" fill="#eea886"/><path d="M3313.478-346.821a49.638,49.638,0,0,0-6.83-1.977s.836-9.089,6.214-8.158S3313.478-346.821,3313.478-346.821Z" fill="#e6d3cc"/><path d="M3313.229-343.113l7.9,2.044-.053.181a8.722,8.722,0,0,1-.725,1.671,5.884,5.884,0,0,1-2.443,2.487,4.258,4.258,0,0,1-3.617-.08,3.119,3.119,0,0,1-1.841-1.884c-.634-1.888.629-4.147.683-4.243Zm7.4,2.311-7.222-1.806a5.539,5.539,0,0,0-.582,3.789,2.741,2.741,0,0,0,1.621,1.644,3.879,3.879,0,0,0,3.29.086C3319.506-337.924,3320.394-340.131,3320.629-340.8Z" fill="#23344a"/><path d="M3323.015-358.785s-.7.937-7.475-1.142l-.116,1.631a17.945,17.945,0,0,0-3.34,1.133s12.213,11.509,14.058,6.812-2.846-7.4-2.846-7.4Z" fill="#e6d3cc"/><path d="M3321.2-376.029s-1.34,4.943-9.324,6.422c0,0-6.255-10.71,2.548-12.945s11.632,4.54,11.894,7.871A9.658,9.658,0,0,0,3321.2-376.029Z" fill="#995d31"/><path d="M3326.007-375.986s-3.517-12.686-14.365-5.618c0,0-5.448,3.613.442,12.5C3312.084-369.106,3320.294-371.26,3326.007-375.986Z" fill="#995d31"/><path d="M3317.428-329.525a4.073,4.073,0,0,0-.485,3.188s.195.269.9.1c0,0-.036-2.285.65-3.126A1.657,1.657,0,0,0,3317.428-329.525Z" fill="#23344a"/><path d="M3317.182-370.6c-.471-1.037-1.241-1.948-2.385-1.246s-.39,3.222,1.065,3.612S3317.6-369.684,3317.182-370.6Z" fill="#eea886"/><path d="M3314.385-369.826a5.07,5.07,0,0,0-.953,3.39s-1.8-1.882-1.672-3.171S3314.385-369.826,3314.385-369.826Z" fill="#995d31"/><rect width="59.742" height="7.253" transform="translate(3611.094 -271.188)" fill="url(#b)"/><rect width="59.743" height="7.253" transform="translate(3613.272 -278.441)" fill="url(#c)"/><rect width="59.742" height="7.253" transform="translate(3612.055 -285.694)" fill="url(#b)"/><rect width="59.743" height="7.253" transform="translate(3613.272 -292.947)" fill="url(#c)"/><rect width="59.743" height="7.254" transform="translate(3614.293 -300.201)" fill="url(#b)"/><rect width="59.742" height="7.253" transform="translate(3612.422 -307.454)" fill="url(#c)"/><rect width="59.742" height="7.253" transform="translate(3611.094 -314.707)" fill="url(#b)"/><rect width="59.743" height="7.253" transform="translate(3613.532 -321.96)" fill="url(#c)"/><rect width="59.743" height="7.254" transform="translate(3615.824 -264.236)" fill="url(#c)"/><rect width="59.743" height="7.253" transform="translate(3619.096 -329.62) rotate(1.37)" fill="url(#k)"/><path d="M3665.589-350.262s-1.359-1.644-.834-2.7a5.306,5.306,0,0,0,.137-2.658c-.029-.612.665-2.026-.107-2s-1.243,2.606-1.453,3.235-1.766-1.894-2.414-2.131-4.679,2.578-3.41,4.184,3.42,2.58,3.587,2.908.851,1.282.851,1.282Z" fill="#eea987"/><path d="M3660.336-232.559s-3.359,3.373-6.247,3.736-6.239,1.448-6.633,3.625,8.556,4.489,12.081,2.787c5.26-2.541,6.787-1.531,7.588-3.089s.652-6.934.776-7.45C3668.052-233.587,3660.336-232.559,3660.336-232.559Z" fill="#202338"/><path d="M3719.67-242.1s-.974,4.615-3.113,6.385-4.283,4.4-3.481,6.483,8.434,1.838,11.165-3.674c1.725-3.481,3.729-4.085,3.574-5.839s-2.823-5.507-2.989-6.015C3724.621-245.39,3719.67-242.1,3719.67-242.1Z" fill="#202338"/><path d="M3683.032-308.163s-11.574,23.975-14.188,30.055A87.14,87.14,0,0,0,3663.6-258.4c-.419,4.977-5.185,25.217-5.479,26.672s10.09.581,10.09.581,9.046-34.482,11.442-39.371c1.6-3.264,13.612-24.984,14.673-23.636s7.519,17.576,8.3,21.469,15.578,32.842,15.578,32.842,6.906-.505,8.266-3.136c0,0-11.033-29.339-12.259-34.679-.624-2.717-2.909-19.836-5.79-32.96C3706.942-317.367,3683.032-308.163,3683.032-308.163Z" fill="#1c4054"/><path d="M3629.675-375.105a30.687,30.687,0,0,1,24.922-35.529,30.689,30.689,0,0,1,35.53,24.922,30.688,30.688,0,0,1-24.923,35.53A30.689,30.689,0,0,1,3629.675-375.105Z" fill="#f8bb66"/><path d="M3667-350.552,3656.408-410.9a30.69,30.69,0,0,1,33.719,25.185A30.689,30.689,0,0,1,3667-350.552Z" fill="#f8bb66"/><path d="M3629.676-375.105a30.7,30.7,0,0,1,17.705-33.329L3657.67-349.8A30.7,30.7,0,0,1,3629.676-375.105Z" fill="#f8bb66"/><path d="M3636.585-381.015a23.324,23.324,0,0,1,23.923-22.709,23.324,23.324,0,0,1,22.709,23.923,23.325,23.325,0,0,1-23.924,22.709A23.323,23.323,0,0,1,3636.585-381.015Z" fill="#f89829"/><path d="M3668.527-383.473a4.692,4.692,0,0,0-.654-.962,10.475,10.475,0,0,0-1.1-1.115,11.305,11.305,0,0,0-1.471-1.082,9.927,9.927,0,0,0-1.75-.865l-2.031,6.753.58.317a30.067,30.067,0,0,1,2.9,1.9,9.467,9.467,0,0,1,2.016,1.994,5.422,5.422,0,0,1,.963,2.3,6.265,6.265,0,0,1-.262,2.821,6.78,6.78,0,0,1-1.508,2.766,6.019,6.019,0,0,1-2.326,1.523,8.016,8.016,0,0,1-2.912.458,12.907,12.907,0,0,1-3.248-.5l-1.03,3.425-1.7-.51,1.05-3.491a17.159,17.159,0,0,1-4.189-2.273,14.7,14.7,0,0,1-3.24-3.3l2.606-2.631a6.056,6.056,0,0,0,.789,1.162,12.42,12.42,0,0,0,1.334,1.362,15.365,15.365,0,0,0,1.779,1.353,13.336,13.336,0,0,0,2.13,1.139l2.032-6.752a4.4,4.4,0,0,0-.374-.237q-.2-.112-.373-.237a28.707,28.707,0,0,1-2.727-1.87,7.9,7.9,0,0,1-1.77-1.866,5.033,5.033,0,0,1-.783-2.068,5.835,5.835,0,0,1,.262-2.464,7.177,7.177,0,0,1,1.408-2.672,6.477,6.477,0,0,1,2.209-1.665,7.786,7.786,0,0,1,2.787-.692,11.522,11.522,0,0,1,3.176.262l.991-3.294,1.7.51-.991,3.3a13.068,13.068,0,0,1,3.659,2.026,14.781,14.781,0,0,1,2.645,2.68Zm-11.02-2.39a2.462,2.462,0,0,0,.344,2.344,9.687,9.687,0,0,0,2.556,2.085l1.934-6.426a4.945,4.945,0,0,0-3.216.046A2.953,2.953,0,0,0,3657.507-385.863Zm6.169,13.666a2.524,2.524,0,0,0-.488-2.514,12.874,12.874,0,0,0-2.8-2.282l-1.943,6.459a6.22,6.22,0,0,0,3.449.184A2.571,2.571,0,0,0,3663.676-372.2Z" fill="#f8c681"/><path d="M3671.807-352.118a30.7,30.7,0,0,0,18.32-33.594,30.7,30.7,0,0,0-28.663-25.35Z" fill="#f8f8f8" style="mix-blend-mode:soft-light;isolation:isolate"/><path d="M3657.67-349.8l-10.289-58.639a30.732,30.732,0,0,1,7.217-2.2q.907-.159,1.81-.263L3667-350.552c-.591.14-1.187.263-1.792.37A30.766,30.766,0,0,1,3657.67-349.8Z" fill="#f8f8f8" style="mix-blend-mode:soft-light;isolation:isolate"/><path d="M3712.357-344.674s-3.98,11.975-3.891,14.826S3706.259-343.785,3712.357-344.674Z" fill="#d44040"/><path d="M3684.1-340.249a28.946,28.946,0,0,1-1.43,3.645h0a23.957,23.957,0,0,1-1.2,2.25c-.08.132-.162.264-.245.393a15.324,15.324,0,0,1-1.052,1.453,6.418,6.418,0,0,1-4.276,2.657c-3.4.25-15.62-18.429-15.62-18.429l5.836-2.651s7.734,11.163,8.934,10.55,2.444-5.147,2.444-5.147c1.42-.784,3.588,1.386,5.051,3.177q.142.174.276.345C3683.582-341.033,3684.1-340.249,3684.1-340.249Z" fill="#d44040"/><path d="M3709.133-308.7c-6.615,5.923-27.749,3.961-27.749,3.961.306-.73,2.446-22.765,1.7-27.744s-.325-9.207-.988-9.4-5.208-1.78-5.208-1.78,2.418-7.683,3.43-9.349,8.25-4.1,8.25-4.1a28.708,28.708,0,0,1,11.584-1.309c9.96,1.177,11.156,4.109,11.156,4.109-2.748,17.577-2.265,13.783-2.4,17.262-.168,4.755-.523,14.939-.573,17.366A103.582,103.582,0,0,0,3709.133-308.7Z" fill="#d44040"/><path d="M3701.792-358.154a14.969,14.969,0,0,1-1.283,1.975c-3.11,4.008-6.717,3.866-6.717,3.866a4.771,4.771,0,0,1-3.993-2.9,7.328,7.328,0,0,1-.644-2.111l1.313-.472a5.789,5.789,0,0,0,.192-1.331c.02-.283.026-.581.03-.884,0-.264,0-.53-.01-.79l-.009-.311c-.042-1.115-.128-2.044-.128-2.044s9.437-5.1,8.666-1.5a8.7,8.7,0,0,0-.06,3.886,2.971,2.971,0,0,0,1.22,1.983C3701.266-358.36,3701.792-358.154,3701.792-358.154Z" fill="#eea987"/><path d="M3674.688-350.885a1.886,1.886,0,0,1-.579-1.022c-.1-.961.859-2.2-.245-3.071s-5.059,1.792-5.463,2.618.679,2.439,3.224,3.983S3674.688-350.885,3674.688-350.885Z" fill="#eea886"/><path d="M3674.19-354.63a38.423,38.423,0,0,0-2.21-3.784c-1.133-1.694-2.726-3.492-3.187-3.182-.63.423.806,1.689,1.809,3.445.923,1.617.452,1.455.452,1.455s.137.039-1.235-1.524c-1.473-1.681-3.277-3.464-3.693-3.091-.261.233-.315.237.112.934-.337-.347-.488-.3-.658-.177-.877.653.875,3.46,1.572,4.574-.541-.853-1.035-1.42-1.312-.692-.316.832,2.353,4.686,3.166,6.16C3669.9-348.906,3674.19-354.63,3674.19-354.63Z" fill="#eea886"/><path d="M3712.135-342.947c4.275-5.205-1.162-11.807-1.162-11.807-3.129-2.667-9.827,8.671-10.69,9.765s-7.411,6.946-9.238,8.922c-.933,1.009-4.852-3.292-6.649-5.005-1.079-1.029-9.5-10.9-9.5-10.9s-5.794,4.185-5.307,3.832,17.153,21.47,20.246,21.636C3689.84-326.505,3701.811-330.377,3712.135-342.947Z" fill="#d44040"/><path d="M3681.466-334.353c-.08.132-.162.264-.245.393a15.324,15.324,0,0,1-1.052,1.453c-.8-.96-3.844-7.825-3.891-7.933Z" fill="#942d2d"/><path d="M3707.439-337.875a83.122,83.122,0,0,1-8.27,6.582c-2.91,1.778-7.766,4.2-8.308,4.408C3690.861-326.885,3703.722-329.394,3707.439-337.875Z" fill="#942d2d"/><path d="M3685.539-376.33s-2.049,3.8-1.033,4.389c.84.488-.982,4.216-1.221,4.824s1.52,1.052,1.893,1.445,1.48,5.214,2.929,5.36,7.972-2.124,9.749-3.971,3.234-10.191,2.048-13.71S3689.155-382.965,3685.539-376.33Z" fill="#eea886"/><path d="M3685.131-375.506a5.836,5.836,0,0,1,1.707-7.146c3.8-3.043,10.8,2.3,11.593,2.5s5.268.511,3.007,8.376c-1.943,6.753-2.213,7.037-2.213,7.037s-1.45-3.912-2.272-4.509c-1.282-.93-4.094-.707-4.094-.707s1.339-3.557-.754-4.061S3687.249-376.294,3685.131-375.506Z" fill="#252e3b"/><path d="M3695.09-371.99c.184-.488.781-2.586,2.581-1.354s-1.121,5.184-1.435,5.236S3693.535-367.883,3695.09-371.99Z" fill="#eea886"/><path d="M3697.665-364.1s-1.534,3.027-7.005,4.97c.02-.283.026-.581.03-.884,0-.264,0-.53-.01-.79A23.563,23.563,0,0,0,3697.665-364.1Z" fill="#a77860"/><path d="M3412.076-232.176s-2.342,6.026-3.623,7.079-4.21,2.928-3.477,3.843,5.9,1.053,7.138.5,1.435-2.547,3.082-3.188.4-4.045.229-5.27c-.222-1.6-.647-1.821-.647-2.644S3412.076-232.176,3412.076-232.176Z" fill="#eddad3"/><path d="M3434.49-233.739s.589,2.42.864,3.061a43.524,43.524,0,0,0,2.562,4.347c.366.411,5.629,2.7,4.942,3.432s-1.556,1.6-5.171.778-4.721-3.617-7.556-3.891-1.986-3.383-.888-4.756a24.2,24.2,0,0,0,2.248-3.795Z" fill="#eddad3"/><path d="M3448.189-269.189c-.481,3.227-10.12,20.99-13.245,36.423a2.818,2.818,0,0,1-.09.342,18.74,18.74,0,0,1-4.423-1.108c.074-2.275,2.185-20.543,3.277-23.947,1.144-3.569,4.6-11.121,4.464-13.546s-1.7-4.044-2.749-5.233c-.6-.685-4.383-6.194-7.482-10.913h0c-1.778-2.709-3.332-5.159-3.934-6.285a2.159,2.159,0,0,1-.265-.616c0-.869-13.658-24.5,10.652-20.625,0,0,.618,3.982.755,4.736.088.489,2.129,5.313,3.876,9.9.954,2.507,1.819,4.945,2.232,6.57.489,1.923,1.336,4.844,2.2,7.686v0c1.205,3.951,2.446,7.751,2.806,8.508C3446.885-275.984,3448.67-272.416,3448.189-269.189Z" fill="#eb4747"/><path d="M3424.3-294.722s-1.865,8.041-2.9,11.266-3.109,10.274-3.2,12.127-.091,5.9-.228,7.551.036,8.263-.4,11.626-2.171,19.651-2.307,20.682c0,.022-.008.046-.014.071a15.285,15.285,0,0,1-3.982.127c0-.018-.009-.035-.013-.054-.961-4.486-1.986-21.115-2.055-23.793s.686-8.785.411-10.638-2.814-20.866-1.99-28.553,3.457-20.383,3.457-20.383S3438.374-324.511,3424.3-294.722Z" fill="#eb4747"/><path d="M3436.549-307.451c-.069-.686-.783-5.488-1.4-8.584s-1.133-5.927-1.476-7.164c-.023-.081-.059-.222-.105-.412-.226-.914-.708-2.952-1.226-4.862-.037-.134-.073-.268-.11-.4v-.709c-.367-1.325.2-2.007.316-3.02a3.083,3.083,0,0,0-.058-1.028c0-.015-.006-.029-.009-.043a22.866,22.866,0,0,1-.7-4.154c0-2.814-1.3-16.377-1.3-16.377s4.333,2.031,4.951,5.05a96.64,96.64,0,0,1,.862,11.061c.069,1.372,2.217,11.669,2.422,14a30.052,30.052,0,0,0,.995,5.9c.481,1.578.067,9.6.205,10.838S3436.617-306.764,3436.549-307.451Z" fill="#eea886"/><path d="M3433.567-323.611c-.226-.914-.708-2.952-1.226-4.862-.011-1.557.179-3.051.206-4.129a4.7,4.7,0,0,0-.058-1.028c0-.015-.006-.029-.009-.043a29.836,29.836,0,0,1-.227-3.962c.183-.214,1.312-.108,1.312-.108S3435.9-328.6,3433.567-323.611Z" fill="#c27e5d"/><path d="M3427.7-366.379s3.389-9.94-3.079-13.021-11.958,1.373-12.995,3.783-.763,6.792.122,9.849.756,7.708-1.166,9.264-3.62,4.943-5.18,7.81,13.834-6.758,13.834-6.758Z" fill="#1c4054"/><path d="M3421.93-377.7s6.727,1.991,5.766,11.326-5.354,8.853-5.766,8.922-5.628.411-7.275-10.914S3421.93-377.7,3421.93-377.7Z" fill="#eea886"/><path d="M3425.113-355.914s6.535,1.683,7.152,2.782.686,5.9,1.1,7.481,1.3,4.936.687,6.308-1.3,2.683-1.1,3.644a14.546,14.546,0,0,1,.275,5.7,25.842,25.842,0,0,0-.137,9.266c.617,2.951,1.235,5.56,1.3,6.04s-23.312,0-23.312,0,1.9-6.592,2.583-8.1-.617-7.344-1.235-8.717-3.295-6.932-3.295-7.55c0,0-2.831-9.678-2.582-10.022s.1-1.768,2.792-3.441c2.067-1.283,8.189-2.81,9.905-3.084S3425.113-355.914,3425.113-355.914Z" fill="#eddad3"/><path d="M3425.136-359.173a17.686,17.686,0,0,0,.306,5.247c.594,1.922-6.728,1.83-7.322.366s.287-3.5-.52-6.578S3425.136-359.173,3425.136-359.173Z" fill="#eea886"/><path d="M3431.786-347.7a16.643,16.643,0,0,1,2.569,5.023,7.322,7.322,0,0,1-1.412,6.585s-6.227-.313-8.423-.267-9.127.8-12.984,2.919c0,0-2.9-5.293-2.818-6.032s1.87-5.683,4.673-6.223c5.232-1.006,8.7,5.537,10.35,5.354S3426.524-346.986,3431.786-347.7Z" fill="#eddad3"/><path d="M3420.194-373.543s3.655,5.815,7.5,7.164c0,0,2.1-9.756-6.575-11.8s-7.317,9.854-6.669,13.027A25.79,25.79,0,0,1,3420.194-373.543Z" fill="#1c4054"/><path d="M3418.6-358.78a4.549,4.549,0,0,0,6.064.29s-.281,1.772-2.728,2S3418.6-358.78,3418.6-358.78Z" fill="#a77860"/><path d="M3427.943-287.17h0c-1.778-2.709-3.332-5.159-3.934-6.285v0s2.4-6.063,2.649-8.429S3427.943-287.17,3427.943-287.17Z" fill="#cf3e3e"/><path d="M3416.935-355.112s3.024,5.223,6.373,6.06,3.252-4.257,2.273-6.738c0,0-.1-.266-3.389-.314A11.071,11.071,0,0,0,3416.935-355.112Z" fill="#eea886"/><path d="M3411.434-312.675l-.147-.018.069-.566.147.018Z" fill="#eddad3"/><path d="M3411.579-232.861q-.06-.564-.119-1.138l.151-.015c.04.382.08.76.119,1.137Zm-.236-2.276q-.057-.566-.112-1.138l.151-.016q.055.573.113,1.139Zm-.222-2.278q-.054-.567-.1-1.139l.152-.014q.051.573.1,1.139Zm-.206-2.279q-.048-.567-.095-1.141l.152-.012c.031.383.062.761.095,1.14Zm-.184-2.281q-.044-.568-.083-1.142l.151-.011q.04.573.083,1.141Zm-.161-2.283q-.036-.57-.07-1.144l.152-.009q.033.573.07,1.143Zm-.133-2.288q-.029-.57-.055-1.144l.152-.007q.026.575.055,1.143Zm-.1-2.289q-.022-.57-.039-1.145l.152,0c.012.382.024.764.039,1.144Zm-.069-2.29q-.014-.57-.022-1.145l.153,0c.005.383.012.765.021,1.144Zm-.034-2.291q0-.425,0-.851v-.295h.152v.295q0,.426,0,.85Zm.158-2.29h-.153c0-.382.011-.767.018-1.145l.152,0C3410.4-256.472,3410.394-256.087,3410.39-255.706Zm.046-2.286-.153-.005c.012-.38.025-.764.039-1.144l.153.007C3410.46-258.756,3410.447-258.372,3410.436-257.992Zm.089-2.285-.152-.008c.018-.38.039-.764.061-1.143l.152.008C3410.564-261.042,3410.543-260.657,3410.525-260.277Zm.134-2.283-.152-.011c.026-.38.056-.765.085-1.141l.152.011C3410.714-263.324,3410.686-262.94,3410.659-262.56Zm.182-2.279-.151-.014q.016-.2.036-.4c0-.031,0-.072,0-.123,0-.137-.011-.338-.034-.612l.152-.012c.023.279.034.483.034.624,0,.056,0,.1-.005.138Zm-.255-2.284c-.038-.342-.081-.723-.129-1.138l.152-.018c.047.415.091.8.128,1.14Zm-.263-2.276-.135-1.139.151-.017.136,1.137Zm-.27-2.276q-.066-.555-.134-1.138l.151-.018q.067.584.134,1.138Zm-.265-2.277c-.043-.373-.086-.753-.129-1.137l.152-.018q.064.578.128,1.139Zm-.254-2.277q-.06-.564-.12-1.139l.152-.015c.039.381.08.761.12,1.138Zm-.235-2.279c-.038-.379-.074-.759-.11-1.141l.151-.014q.054.571.11,1.14Zm-.214-2.283c-.033-.38-.065-.761-.1-1.14l.152-.013c.031.379.063.76.1,1.14Zm-.184-2.283c-.028-.389-.055-.774-.078-1.143l.152-.01c.023.369.05.753.078,1.141Zm-.146-2.288c-.021-.391-.039-.775-.054-1.144l.152-.007c.015.369.034.754.054,1.143Zm-.092-2.291c-.011-.394-.017-.781-.019-1.146h.152c0,.364.009.75.019,1.143Zm.138-2.29-.152,0c.006-.4.019-.786.037-1.145l.152.007C3408.82-290.726,3408.808-290.342,3408.8-289.943Zm.118-2.278-.152-.015c.017-.177.036-.349.057-.512l.078-.627.151.019-.078.627C3408.955-292.567,3408.936-292.4,3408.919-292.221Zm.276-2.271-.15-.018.141-1.137.151.018Zm.284-2.272-.152-.02.141-1.136.151.019Zm.281-2.274-.151-.018.141-1.137.151.019Zm.281-2.273-.151-.019.14-1.135.151.018Zm.28-2.272-.151-.018.14-1.137.151.019Zm.28-2.273-.152-.019.14-1.136.151.018Zm.279-2.273-.151-.019.138-1.136.152.018Zm.278-2.274-.151-.018.139-1.137.151.018Z" fill="#eddad3"/><rect width="0.148" height="0.571" transform="translate(3411.695 -231.785) rotate(-6.086)" fill="#eddad3"/><path d="M3436.952-326.672s.044-1.048,1.941.03S3436.952-326.672,3436.952-326.672Z" fill="#eea886"/><path d="M3409.783-316.886a17.777,17.777,0,0,1,14.436-20.58,17.774,17.774,0,0,1,20.58,14.436,17.775,17.775,0,0,1-14.436,20.58A17.776,17.776,0,0,1,3409.783-316.886Z" fill="#f8bb66"/><path d="M3431.4-302.664l-6.132-34.955a17.776,17.776,0,0,1,19.53,14.589A17.776,17.776,0,0,1,3431.4-302.664Z" fill="#f8bb66"/><path d="M3409.783-316.886a17.785,17.785,0,0,1,10.257-19.306l5.96,33.967A17.784,17.784,0,0,1,3409.783-316.886Z" fill="#f8bb66"/><path d="M3413.786-320.31a13.509,13.509,0,0,1,13.857-13.153,13.51,13.51,0,0,1,13.154,13.857,13.509,13.509,0,0,1-13.857,13.153A13.51,13.51,0,0,1,3413.786-320.31Z" fill="#f89829"/><path d="M3432.288-321.734a2.791,2.791,0,0,0-.378-.557,6.136,6.136,0,0,0-.64-.645,6.557,6.557,0,0,0-.852-.627,5.723,5.723,0,0,0-1.014-.5l-1.177,3.911.337.184a17.431,17.431,0,0,1,1.677,1.1,5.466,5.466,0,0,1,1.167,1.155,3.126,3.126,0,0,1,.557,1.332,3.59,3.59,0,0,1-.151,1.633,3.92,3.92,0,0,1-.873,1.6,3.489,3.489,0,0,1-1.348.883,4.65,4.65,0,0,1-1.687.265,7.472,7.472,0,0,1-1.881-.288l-.6,1.985-.983-.3.609-2.022a9.993,9.993,0,0,1-2.427-1.317,8.536,8.536,0,0,1-1.876-1.914l1.509-1.525a3.566,3.566,0,0,0,.457.673,7.159,7.159,0,0,0,.772.789,8.925,8.925,0,0,0,1.032.784,7.82,7.82,0,0,0,1.234.66l1.176-3.911a2.551,2.551,0,0,0-.216-.137,2.531,2.531,0,0,1-.216-.138,16.489,16.489,0,0,1-1.58-1.083,4.557,4.557,0,0,1-1.025-1.081,2.9,2.9,0,0,1-.453-1.2,3.37,3.37,0,0,1,.151-1.428,4.156,4.156,0,0,1,.815-1.547,3.761,3.761,0,0,1,1.28-.965,4.5,4.5,0,0,1,1.614-.4,6.664,6.664,0,0,1,1.84.151l.574-1.908.982.3-.573,1.909a7.6,7.6,0,0,1,2.119,1.173,8.551,8.551,0,0,1,1.532,1.553Zm-6.383-1.384a1.426,1.426,0,0,0,.2,1.358,5.613,5.613,0,0,0,1.481,1.208l1.12-3.722a2.861,2.861,0,0,0-1.863.026A1.708,1.708,0,0,0,3425.905-323.118Zm3.574,7.916a1.464,1.464,0,0,0-.284-1.456,7.422,7.422,0,0,0-1.622-1.322l-1.125,3.741a3.589,3.589,0,0,0,2,.107A1.494,1.494,0,0,0,3429.479-315.2Z" fill="#f8c681"/><path d="M3434.188-303.571A17.782,17.782,0,0,0,3444.8-323.03a17.782,17.782,0,0,0-16.6-14.684Z" fill="#f8f8f8" style="mix-blend-mode:soft-light;isolation:isolate"/><path d="M3426-302.225l-5.96-33.967a17.814,17.814,0,0,1,4.18-1.274q.525-.093,1.049-.153l6.132,34.955q-.511.121-1.038.214A17.877,17.877,0,0,1,3426-302.225Z" fill="#f8f8f8" style="mix-blend-mode:soft-light;isolation:isolate"/><path d="M3408.281-351.851a18.013,18.013,0,0,0-4.295,5.307c-1.853,3.432-6.108,9.472-6.932,11.462s-3.57,5.35-3.964,7.934c-.387,2.527.642,3.455,2.289,4.554s13.337,4.692,13.337,4.692,2.071-3.314,1.02-3.539c-1.907-.407-6.459-3.235-7.229-3.69-.837-.5-2.905-2.257-1.876-3.081s8.023-11.056,9.464-13.046,4.05-6.865,3.089-9.335S3409.982-352.782,3408.281-351.851Z" fill="#eea886"/><path d="M3407.368-322.078a1.9,1.9,0,0,0,1.055.21c.874-.15,1.7-1.2,2.77-.544s-.213,4.407-.832,4.922-2.33.051-4.376-1.578S3407.368-322.078,3407.368-322.078Z" fill="#eea886"/><path d="M3410.8-322.585a39.093,39.093,0,0,1,3.925.831c1.8.483,3.788,1.365,3.832,1.742.048.42-1.875-.23-3.692-.6-1.672-.338-1.4-.007-1.4-.007s-.071-.1,1.674.605c1.877.756,3.719,1.71,3.717,2.161,0,.221-.124.3-.853.137.4.182.4.31.334.474-.339.846-3.282.142-4.45-.138.9.22,1.528.473.963.865-.648.449-4.76-.724-6.276-1.011C3406.919-317.836,3410.8-322.585,3410.8-322.585Z" fill="#eea886"/><path d="M3441.918-326.672s2.712-.631,3.585.674a5.1,5.1,0,0,1,.688,3.768c-.218.778-.921,2.78-1.839,2.369C3441.407-321.182,3441.918-326.672,3441.918-326.672Z" fill="#eea886"/><path d="M3444.6-326.644s-.38-1.833-1.114-1.52-.071,1.523-.071,1.523Z" fill="#eea886"/><path d="M3409.4-317.31c-.5,2.029-.793,2.046-.928,2.054h-.013c-.228,0-.341-.32-.408-.563a7.826,7.826,0,0,1-.215-2.031,21.524,21.524,0,0,1,.467-4.005c0-.019.014-.079.015-.086l.116.029h0l.111.017a22.26,22.26,0,0,0-.479,4.158,7.423,7.423,0,0,0,.206,1.859c.1.373.187.392.188.392.017,0,.1-.024.259-.385a9.966,9.966,0,0,0,.454-1.477C3409.252-317.332,3409.327-317.318,3409.4-317.31Z" fill="#23344a"/><path d="M6.592,0H116.058a6.591,6.591,0,0,1,6.591,6.591V88.673a6.592,6.592,0,0,1-6.592,6.592H6.591A6.591,6.591,0,0,1,0,88.674V6.592A6.592,6.592,0,0,1,6.592,0Z" transform="translate(3479.31 -344.674)" opacity="0.73" fill="url(#l)"/><rect width="53.79" height="24.494" transform="translate(3536.749 -331.668)" fill="#bb83ff"/><path d="M3557.212-317.314a2.7,2.7,0,0,1-.291,1.279,2.686,2.686,0,0,1-.8.924,3.721,3.721,0,0,1-1.182.566,5.128,5.128,0,0,1-1.434.2h-5.558v-11.5h6.158a2.268,2.268,0,0,1,1.085.26,2.691,2.691,0,0,1,.826.672,3.066,3.066,0,0,1,.527.939,3.171,3.171,0,0,1,.186,1.061,3.136,3.136,0,0,1-.421,1.581,2.564,2.564,0,0,1-1.232,1.092,2.96,2.96,0,0,1,1.564,1.046A3.021,3.021,0,0,1,3557.212-317.314Zm-7.031-6.627v2.9h2.981a1.328,1.328,0,0,0,.964-.389,1.432,1.432,0,0,0,.4-1.07,1.477,1.477,0,0,0-.365-1.052,1.185,1.185,0,0,0-.9-.389Zm4.779,6.205a1.686,1.686,0,0,0-.1-.591,1.654,1.654,0,0,0-.284-.494,1.317,1.317,0,0,0-.421-.333,1.177,1.177,0,0,0-.535-.121h-3.434v3.03h3.321a1.449,1.449,0,0,0,.575-.114,1.391,1.391,0,0,0,.462-.315,1.5,1.5,0,0,0,.308-.479A1.525,1.525,0,0,0,3554.96-317.736Z" fill="#fff"/><path d="M3563.822-316.245a2.559,2.559,0,0,0,1.336-.324,2.587,2.587,0,0,0,.875-.843,3.46,3.46,0,0,0,.471-1.191,6.853,6.853,0,0,0,.138-1.385v-5.865h2.219v5.865a8.387,8.387,0,0,1-.283,2.22,5.086,5.086,0,0,1-.891,1.814,4.284,4.284,0,0,1-1.564,1.232,5.3,5.3,0,0,1-2.284.453,5.228,5.228,0,0,1-2.342-.478,4.364,4.364,0,0,1-1.563-1.263,5.033,5.033,0,0,1-.867-1.823,8.61,8.61,0,0,1-.267-2.155v-5.865h2.236v5.865a6.947,6.947,0,0,0,.137,1.4,3.492,3.492,0,0,0,.47,1.192,2.554,2.554,0,0,0,.867.834A2.534,2.534,0,0,0,3563.822-316.245Z" fill="#fff"/><path d="M3572.409-325.853l2.835,5.541,2.885-5.541h2.414l-4.181,7.485v4.019h-2.219V-318.4l-4.164-7.453Z" fill="#fff"/><rect width="41.444" height="3.476" transform="translate(3487.893 -331.668)" fill="#87c9ff"/><rect width="30.867" height="3.476" transform="translate(3487.893 -323.537)" fill="#87c9ff"/><rect width="35.15" height="3.476" transform="translate(3487.893 -315.406)" fill="#87c9ff"/><path d="M3591.539-255.852H3486.893v-44.186h104.646Zm-102.646-2h100.646v-40.186H3488.893Z" fill="#78c2ff"/><path d="M3538.393-353.749s7,1.25,7.061,7.178-5.361,14.513-8.886,13.877-7.534-3.765-7.4-7.37,1.135-8.343,2.76-10.943S3536.437-353.878,3538.393-353.749Z" fill="#eea886"/><path d="M3529.415-342.809s.012,1.21,2.42,2.168,6.83-.384,7.941-.161,1.438-.314,1.438-.314l.079,1.183.941.639s.66-3.149,2.637-3.423,3.625-9.314-4.9-11.024c0,0-6.313-1.715-7.941,1.488S3529.109-345.065,3529.415-342.809Z" fill="#e8734d"/><path d="M3551.434-307.308a2.112,2.112,0,0,0,1.086-.5c.69-.7.754-2.188,2.141-2.287s2.667,4.105,2.446,4.971-2.066,1.558-4.965,1.419S3551.434-307.308,3551.434-307.308Z" fill="#eea886"/><path d="M3554.194-309.992a43.58,43.58,0,0,1,4.074-1.8c1.932-.731,4.321-1.25,4.581-.918.577.739-1.677,1.259-3.551,2.108a15.377,15.377,0,0,0-1.428.655s-.128-.042,1.9-.542c2.18-.538,4.458-.874,4.749-.466.141.2.4.891-.519.862.476-.093.4-.165.448.024.244.982-2.863,2.258-4.1,2.765.95-.384,1.683-.568,1.429.153-.292.824-4.756,2.437-6.307,3.163C3553.782-303.2,3554.194-309.992,3554.194-309.992Z" fill="#eea886"/><path d="M3521.048-336.3a53.131,53.131,0,0,0-7.46,0c-3.087.317-7.352,2.842-9.933,3.572s-8.811,4.916-8.642,5.488a46.517,46.517,0,0,0,7.042,12.918C3505.874-309.582,3521.048-336.3,3521.048-336.3Z" fill="#285173"/><path d="M3511.61-333.549s-4.714,3.491-6.356,6.69a25.853,25.853,0,0,0-2.2,7.01Z" fill="#193247"/><path d="M3515.184-229.594a11.431,11.431,0,0,0,2.125,1.809c.779.379,10.08,1.979,10.712,2.737s.631,3.745-1.768,3.745-10.4-.042-11.743,0-7.036,1.178-7.621,0-.531-6.678.509-8S3515.184-229.594,3515.184-229.594Z" fill="#1c4154"/><path d="M3514.9-231.266l.286,1.672s-2.484,1.136-7.786.295v-1.726Z" fill="#2a617d"/><path d="M3529.181-339.519s-4.234,3.6-5.439,3.3,4.153,7.607,4.153,7.607,5.1-5.021,6.251-5.173S3529.181-339.519,3529.181-339.519Z" fill="#eea886"/><path d="M3529.469-325.316c-1.442.87-1.684,1.15-1.515,5.275s1.88,7.45,2.006,8.586,2.417,12.409,3.048,13.039,8.177-.839,9.7-1.312c2.285-.707,11.953-3.983,11.953-3.983l-2.126-4.434s-12.206,2.722-12.6,1.767-1.349-8.965-1.685-10.705.25-4.473-1.829-8.6C3534.565-329.378,3529.469-325.316,3529.469-325.316Z" fill="#285173"/><path d="M3515.157-294.285s2.587,2.753,3.311,3.648a144.245,144.245,0,0,1,12.543,19.333c.842,1.964-4.17,15.854-6.229,20.707-1.08,2.545-8.221,20.077-8,20.469s-7.555.653-11.034-1.143c0,0,5-14.821,6.056-17.727,1.592-4.388,7.11-16.543,7.278-17.721s-8.921-10.9-11.951-12.749-10.438-8.417-11.279-9.259-5.612-3.087-5.163-7.352a14.92,14.92,0,0,1,3.619-7.632Z" fill="#326ea0"/><path d="M3501.559-283.732s-.473,1.245-1.138,2.991c-1.428,3.749-3.734,9.8-4.118,10.756-.561,1.4-3.367,7.465-4.714,8.644s-23.512,27.778-23.569,28-10.608-1.445-11.113-3.073c0,0,14.311-18.253,16.163-20.552s5.724-5.724,7.016-11.168,10.547-26.374,10.575-27.161c0,0,1.49-6.453,3.65-8.418s10.017.337,11.251,4.433S3501.559-283.732,3501.559-283.732Z" fill="#326ea0"/><path d="M3523.359-336.254l1.789-.707a13.446,13.446,0,0,1,7.127,4.659l-.225,1.082S3525.161-332.714,3523.359-336.254Z" fill="#d4d8e8"/><path d="M3530.256-309.9a7.147,7.147,0,0,1-.843,1.03c-.128.111-.283.241-.462.385l0,0-.17-6.788.978,3C3529.884-311.882,3530.256-309.9,3530.256-309.9Z" fill="#a9adba"/><path d="M3501.559-283.732s-.473,1.245-1.138,2.991c-1.509-1.735-4.952-8.3-4.952-8.3.224.16.945.837,1.112.987S3501.559-283.732,3501.559-283.732Z" fill="#215b8a"/><path d="M3540.109-341.336c.159-.513-.226-2.479-1.48-1.36s-1.249,3.626-.541,3.83S3539.706-340.032,3540.109-341.336Z" fill="#eea886"/><path d="M3535.419-352.37s-6.074-4.318-6.108,10.407Z" fill="#e8734d"/><path d="M3530.256-309.9a7.147,7.147,0,0,1-.843,1.03c-.128.111-.283.241-.462.385l0,0a71.154,71.154,0,0,1-7.335,5c-1.965,1.067-5.689,10.053-5.689,10.053s-17.572-1.186-21.613-10.277a80.456,80.456,0,0,1,5.471-10.185c2.61-3.788,8.334-17.425,11.365-19.36s5.639-3.2,11.616-3.031a12.532,12.532,0,0,1,9.288,4.911s4.545,4.882,4.993,7.463C3537.431-321.692,3532.5-313.027,3530.256-309.9Z" fill="#285173"/></g></svg>