<svg xmlns="http://www.w3.org/2000/svg" xmlns:xlink="http://www.w3.org/1999/xlink" width="176.165" height="207.824" viewBox="0 0 176.165 207.824"><defs><clipPath id="a"><path d="M336.981,301.431l-24.134,3.5a4.573,4.573,0,0,1-5.13-4l-8.168-35.484a4.673,4.673,0,0,1,3.867-5.3l29.723-4.762c2.486-.361,6.937,2.9,7.285,5.468l.424,35.271A4.673,4.673,0,0,1,336.981,301.431Z" transform="translate(-299.505 -255.361)" fill="none"/></clipPath><clipPath id="b"><path d="M323.722,257.562a11.255,11.255,0,1,1-9.428-12.824A11.256,11.256,0,0,1,323.722,257.562Z" transform="translate(-301.34 -244.608)" fill="#b5792a"/></clipPath><clipPath id="c"><path d="M358.022,302.7l22.259,3.23a4.214,4.214,0,0,0,4.732-3.687l7.533-32.73a4.306,4.306,0,0,0-3.566-4.889l-27.417-4.4c-2.291-.331-6.4,2.679-6.719,5.047l-.388,32.535A4.308,4.308,0,0,0,358.022,302.7Z" transform="translate(-354.414 -260.202)" fill="none"/></clipPath><clipPath id="d"><rect width="56.133" height="57.671" rx="2.378" fill="none"/></clipPath></defs><g transform="translate(-299.505 -232.056)"><g transform="translate(312.713 232.056)"><g transform="translate(73.188)" opacity="0.54"><path d="M344.2,237.168c0,2.822-5.11,14.578-5.11,14.578s-5.113-11.756-5.113-14.578a5.111,5.111,0,1,1,10.223,0Z" transform="translate(-333.979 -232.056)" fill="#f17781"/></g><g transform="translate(47.887 4.34)" opacity="0.54"><path d="M333.8,237.152c.967,2.654.183,15.448.183,15.448s-8.824-9.3-9.789-11.952a5.111,5.111,0,0,1,9.606-3.5Z" transform="translate(-323.884 -233.788)" fill="#f17781"/></g><g transform="translate(25.599 17.073)" opacity="0.54"><path d="M324.017,240.694c1.817,2.163,5.456,14.453,5.456,14.453s-11.471-5.719-13.285-7.882a5.111,5.111,0,0,1,7.829-6.571Z" transform="translate(-314.99 -238.869)" fill="#f17781"/></g><g transform="translate(9.008 36.659)" opacity="0.54"><path d="M316.039,247.371c2.444,1.411,10.07,11.714,10.07,11.714s-12.736-1.448-15.182-2.862a5.111,5.111,0,0,1,5.112-8.852Z" transform="translate(-308.37 -246.684)" fill="#f17781"/></g><g transform="translate(0.118 60.74)"><path d="M310.823,256.371c2.779.489,13.468,7.566,13.468,7.566s-12.463,2.992-15.245,2.5a5.111,5.111,0,0,1,1.777-10.067Z" transform="translate(-304.823 -256.293)" fill="#61b3db"/></g><g transform="translate(0 86.433)"><path d="M309,266.6c2.782-.489,15.245,2.5,15.245,2.5s-10.689,7.075-13.468,7.566A5.113,5.113,0,0,1,309,266.6Z" transform="translate(-304.776 -266.544)" fill="#61b3db"/></g><g transform="translate(25.077 124.254)" opacity="0.54"><path d="M315.977,289.518c1.814-2.163,13.287-7.882,13.287-7.882s-3.641,12.29-5.456,14.453a5.112,5.112,0,1,1-7.832-6.571Z" transform="translate(-314.782 -281.636)" fill="#f17781"/></g><g transform="translate(47.247 134.66)" opacity="0.54"><path d="M323.939,297.74c.965-2.654,9.789-11.952,9.789-11.952s.782,12.8-.183,15.448a5.111,5.111,0,0,1-9.606-3.5Z" transform="translate(-323.628 -285.788)" fill="#f17781"/></g><g transform="translate(72.506 138.356)" opacity="0.54"><path d="M333.707,301.839c0-2.822,5.113-14.576,5.113-14.576s5.112,11.754,5.112,14.576a5.113,5.113,0,0,1-10.225,0Z" transform="translate(-333.707 -287.263)" fill="#f17781"/></g><g transform="translate(97.632 134.893)" opacity="0.54"><path d="M344.215,301.329c-.965-2.652-.183-15.448-.183-15.448s8.824,9.3,9.792,11.952a5.112,5.112,0,0,1-9.609,3.5Z" transform="translate(-343.733 -285.881)" fill="#f17781"/></g><g transform="translate(121.29 132.574)"><path d="M361,284.956a5.112,5.112,0,1,1-7.832,6.571Z" transform="translate(-353.173 -284.956)" fill="#61b3db"/></g><g transform="translate(129.172 108.984)"><path d="M366.388,287.259c-2.446-1.411-10.07-11.716-10.07-11.716s12.736,1.451,15.18,2.862a5.111,5.111,0,1,1-5.11,8.854Z" transform="translate(-356.318 -275.543)" fill="#61b3db"/></g><g transform="translate(136.332 87.104)"><path d="M372.643,276.934c-2.779-.489-13.468-7.564-13.468-7.564s12.463-2.992,15.242-2.5a5.111,5.111,0,1,1-1.774,10.067Z" transform="translate(-359.175 -266.812)" fill="#61b3db"/></g><g transform="translate(129.513 37.25)" opacity="0.54"><path d="M371.634,256.459c-2.443,1.411-15.18,2.862-15.18,2.862s7.624-10.305,10.07-11.716a5.111,5.111,0,0,1,5.11,8.854Z" transform="translate(-356.454 -246.919)" fill="#f17781"/></g><g transform="translate(116.358 17.51)" opacity="0.54"><path d="M364.49,247.441c-1.814,2.163-13.285,7.882-13.285,7.882s3.639-12.29,5.456-14.453a5.111,5.111,0,1,1,7.829,6.571Z" transform="translate(-351.205 -239.043)" fill="#f17781"/></g><g transform="translate(98.273 4.573)" opacity="0.54"><path d="M354.077,240.741c-.965,2.654-9.789,11.952-9.789,11.952s-.782-12.794.183-15.448a5.111,5.111,0,1,1,9.606,3.5Z" transform="translate(-343.989 -233.881)" fill="#f17781"/></g></g><g transform="translate(444.499 275.021)"><path d="M357.361,271.031c.383-2.306,2.348-20.1,13.072-21.53,11.533-1.536,17.172,2.819,17.941,12.816s-1.539,15.636-1.539,15.636Z" transform="translate(-357.361 -249.2)" fill="#f17781"/></g><g transform="translate(428.074 340.043)"><path d="M363.539,275.145l21.4,2.561s-.729,28.773-2.524,50.559a151.265,151.265,0,0,0,.962,28.9l-7.689-.128c-.514-6.538-3.311-36.527-3.423-56.636-.027-4.9-.248-7.681-1.153-8.075-2.947-1.281-5.526-.393-8.731,5.245-2.01,3.541-2.408,16.448-2.215,29.926.253,17.593,1.516,29.242,1.516,29.242l-7.9-.048s-5.5-44.707-1.544-60.914C353.725,289.683,363.539,275.145,363.539,275.145Z" transform="translate(-350.807 -275.145)" fill="#d8a252"/></g><g transform="translate(443.319 421.59)"><path d="M366.534,307.684l7.9.048-.1,16.077a2.18,2.18,0,0,1-2.193,2.165l-13.079-.08c-3-.018-3.378-5.11,1.942-5.709,1.674-.19,4.762-.88,5.193-2.559A30.47,30.47,0,0,0,366.534,307.684Z" transform="translate(-356.89 -307.684)" fill="#47286d"/></g><g transform="translate(421.403 421.59)"><path d="M357.791,307.684l7.9.048-.1,16.077a2.18,2.18,0,0,1-2.193,2.165l-13.079-.08c-3-.018-3.376-5.11,1.942-5.709,1.677-.19,4.764-.88,5.2-2.559A30.546,30.546,0,0,0,357.791,307.684Z" transform="translate(-348.145 -307.684)" fill="#47286d"/></g><g transform="translate(331.643 295.073)"><path d="M312.575,257.2c-.89,1.794.293,19.959,9.38,27.51,14.8,12.3,38.815,8.338,42.118,7.619,4.7-1.022,12.057,1.654,15.969-2.185,2.559-2.514,2.168-4.859-7.443-3.348s-7.949,1.093-12.694.885c-15.443-.677-25.718-5.07-29.56-9.31a29.109,29.109,0,0,1-6.724-13.874Z" transform="translate(-312.329 -257.201)" fill="#a86a20"/></g><g transform="translate(322.769 291.328)"><path d="M308.788,262.99l16.28,21.214,11.548-8.862L324.579,258.2c-.89-1.145-3.406-3.138-4.586-2.291Z" transform="translate(-308.788 -255.707)" fill="#ffd56c"/></g><g transform="translate(313.689 331.058)"><path d="M328.367,271.56l-23.2,2.779s1.945,31.262,3.89,54.882c1.243,15.1,2.639,31.843,2.639,31.843l8.338-.138c.556-7.085-1.251-40.181-1.128-61.982.028-5.308.268-8.328,1.248-8.754,3.2-1.391,5.992-.429,9.466,5.684,5.027,8.849,12.506,18.618,16.814,33.484,6.1,21.057.023,25.663.023,25.663l7.756,3.4s8.338-10.308,1.251-34.484C349.225,302.664,328.367,271.56,328.367,271.56Z" transform="translate(-305.165 -271.56)" fill="#ffd470"/></g><g transform="translate(348.533 414.52)"><path d="M333.5,307.953l-7.99-3.09-6.285,16.257a2.36,2.36,0,0,0,1.353,3.055l13.225,5.115c3.032,1.17,5.436-3.814.308-6.533-1.614-.855-4.456-2.777-4.223-4.641C330.493,313.281,333.5,307.953,333.5,307.953Z" transform="translate(-319.068 -304.863)" fill="#f17781"/></g><g transform="translate(421.64 338.026)"><path d="M370.713,275.267c-1.536.769-13.265,8.265-17.879,31.527-3.7,18.646-5.318,36.845-4.293,36.845s45.113,2.564,45.624.256-2.434-12.558-2.692-22.3,3.205-41.78-2.689-45.366S370.713,275.267,370.713,275.267Z" transform="translate(-348.239 -274.34)" fill="#f17781"/></g><g transform="translate(320.145 420.049)"><path d="M316.307,307.069l-8.566.053.108,17.43a2.363,2.363,0,0,0,2.378,2.348l14.177-.088c3.25-.02,3.661-5.539-2.105-6.19-1.814-.205-5.163-.952-5.629-2.772C315.46,313.131,316.307,307.069,316.307,307.069Z" transform="translate(-307.741 -307.069)" fill="#f17781"/></g><g transform="translate(299.526 290.811)"><path d="M336.969,301.339l-24.134,3.386a4.542,4.542,0,0,1-5.13-3.864l-8.167-34.324c-.348-2.484,3.2-6.3,5.664-6.774,6.972-1.338,21.019-4.318,28.811-4.26,2.5.018,6.052,4.105,6.4,6.589l.424,34.118A4.545,4.545,0,0,1,336.969,301.339Z" transform="translate(-299.513 -255.501)" fill="#f9e478"/></g><g transform="translate(312.017 314.247)"><path d="M304.571,265.687c-.687,1.882,3.436,20.786,13.3,27.287,16.064,10.586,37.818,3.975,41.02,2.895,4.561-1.536,10.992.742,14.453-3.506,2.268-2.782,1.674-6.523-7.711-3.96s-6.659,2.99-11.4,3.306c-15.423,1.035-26.119-2.2-30.407-5.987-6.28-5.554-9.884-20.869-9.884-20.869Z" transform="translate(-304.498 -264.852)" fill="#b5792a"/></g><g transform="translate(303.331 296.921)"><path d="M310,258.175c6.967,2.16,13.964,22.3,13.964,22.3l-13.821,5.641s-8.586-14-9.1-23.149C300.829,259.281,306.887,257.208,310,258.175Z" transform="translate(-301.032 -257.938)" fill="#ffd56c"/></g><g transform="translate(299.505 290.462)"><g clip-path="url(#a)"><g transform="translate(11.264 -10.381)"><path d="M319.2,260.312a7.685,7.685,0,0,1-8.709,6.619,7.87,7.87,0,0,1-6.4-9,7.683,7.683,0,0,1,8.706-6.619A7.87,7.87,0,0,1,319.2,260.312Z" transform="translate(-304 -251.219)" fill="#b5792a"/></g></g></g><g transform="translate(312.074 278.271)"><rect width="9.22" height="14.388" transform="translate(0 1.78) rotate(-11.132)" fill="#b5792a"/></g><g transform="translate(304.103 263.513)"><path d="M323.722,257.562a11.255,11.255,0,1,1-9.428-12.824A11.256,11.256,0,0,1,323.722,257.562Z" transform="translate(-301.34 -244.608)" fill="#b5792a"/><g clip-path="url(#b)"><g transform="translate(-3.806 -2.61)"><path d="M302.77,258.534l26.613-4.935s-6.421-15.034-21.222-8.3S302.77,258.534,302.77,258.534Z" transform="translate(-299.821 -243.567)" fill="#ffd56c"/></g></g></g><g transform="translate(301.715 276.691)"><path d="M306.326,253.3a2.986,2.986,0,1,1-2.5-3.4A2.987,2.987,0,0,1,306.326,253.3Z" transform="translate(-300.387 -249.866)" fill="#b5792a"/></g><g transform="translate(304.249 271.628)"><path d="M323.249,247.846s11.528,2.744,8.468,6.213-30.319-2.1-30.319-2.1Z" transform="translate(-301.398 -247.846)" fill="#fcb515"/></g><g transform="translate(323.549 300.411)"><path d="M318.657,260.789a1.836,1.836,0,0,1-1.418,2.173l-5.927,1.243a1.836,1.836,0,0,1-2.173-1.421h0a1.834,1.834,0,0,1,1.419-2.173l5.927-1.241a1.836,1.836,0,0,1,2.173,1.419Z" transform="translate(-309.099 -259.331)" fill="#4396ca"/></g><g transform="translate(381.765 307.791)"><path d="M397.534,262.276c.709,1.707-1.484,18.352-10.308,24.748C372.858,297.442,351,292.332,348,291.47c-4.265-1.228-11.2.789-14.566-2.985-2.2-2.469-1.7-4.6,7.055-2.626s7.25,1.489,11.628,1.586c14.255.318,23.979-3.1,27.773-6.769a26.826,26.826,0,0,0,7.035-12.358Z" transform="translate(-332.329 -262.276)" fill="#d8a252"/></g><g transform="translate(428.165 303.394)"><path d="M376.508,267.24,364.87,290.121l-14.027-11.488,11.1-15.809c.82-1.058,3.14-2.895,4.228-2.115Z" transform="translate(-350.843 -260.521)" fill="#eec8cb"/></g><g transform="translate(436.038 302.919)"><path d="M356.677,303.671l24.252,2.065a4.189,4.189,0,0,0,4.732-3.566l6.26-26.63c1.273-6.223-1.677-10.841-3.95-11.278-6.431-1.235-19.387-3.985-26.575-3.93-2.308.015-7.325,11.754-7.408,14.31-.1,2.965,2.258,9.563,2.774,12.451.481,2.687-1.659,10.786-1.659,10.786C354.78,300.17,354.386,303.348,356.677,303.671Z" transform="translate(-353.985 -260.332)" fill="#ffd9dc"/></g><g transform="translate(396.766 323.179)"><path d="M405.588,269.965c.474,1.787-4.889,18.809-14.5,23.959-15.641,8.383-35.071.494-37.925-.764-4.06-1.789-11.2-.729-14.029-4.92-1.85-2.744-1.063-4.792,7.345-1.654s6.982,2.454,11.308,3.14c14.082,2.238,24.177.16,28.432-2.962,6.233-4.579,10.819-18.347,10.819-18.347Z" transform="translate(-338.314 -268.416)" fill="#d8a252"/></g><g transform="translate(450.609 308.554)"><path d="M372.678,262.8c-6.426,1.995-12.879,20.57-12.879,20.57l12.749,5.2s7.917-12.919,8.4-21.352C381.136,263.818,375.55,261.908,372.678,262.8Z" transform="translate(-359.799 -262.58)" fill="#eec8cb"/></g><g transform="translate(437.115 302.594)"><g clip-path="url(#c)"><g transform="translate(13.686 -9.575)"><path d="M359.957,264.768a7.082,7.082,0,0,0,8.03,6.1,7.257,7.257,0,0,0,5.907-8.3,7.088,7.088,0,0,0-8.032-6.1A7.256,7.256,0,0,0,359.957,264.768Z" transform="translate(-359.875 -256.381)" fill="#d8a252"/></g></g></g><g transform="translate(452.79 291.351)"><rect width="13.272" height="8.504" transform="translate(0 13.022) rotate(-78.865)" fill="#d8a252"/></g><g transform="translate(450.284 277.738)"><path d="M359.789,262.233a10.38,10.38,0,1,0,8.7-11.829A10.381,10.381,0,0,0,359.789,262.233Z" transform="translate(-359.669 -250.284)" fill="#d8a252"/></g><g transform="translate(467.74 289.893)"><path d="M366.666,258.306a2.756,2.756,0,1,0,2.308-3.14A2.758,2.758,0,0,0,366.666,258.306Z" transform="translate(-366.634 -255.134)" fill="#d8a252"/></g><g transform="translate(362.222 284.55)"><rect width="56.133" height="57.671" rx="2.378" fill="#f17781"/></g><g transform="translate(449.71 276.604)"><path d="M364.482,250.858c-2.053,1.025-5.9,6.408-4.872,6.664s16.405,4.869,17.175,4.869,2.819-5.639,4.614-5.894,1.281-3.333-4.358-5.639S364.482,250.858,364.482,250.858Z" transform="translate(-359.44 -249.832)" fill="#f17781"/></g><g transform="translate(362.222 284.55)"><g clip-path="url(#d)"><g transform="translate(-11.919 9.727)"><rect width="82.767" height="0.739" transform="matrix(1, -0.002, 0.002, 1, 0, 0.168)" fill="#fff"/></g></g></g><g transform="translate(400.735 314.358)"><rect width="8.711" height="14.982" rx="0.417" fill="#ffcb2f"/></g></g></svg>