<svg xmlns="http://www.w3.org/2000/svg" xmlns:xlink="http://www.w3.org/1999/xlink" width="183" height="204.027" viewBox="0 0 183 204.027"><defs><clipPath id="a"><path d="M71.362,191.966l22.333-2.7a4.193,4.193,0,0,0,3.66-4.666L96.5,152.044a4.192,4.192,0,0,0-4.666-3.66l-28.707,1.988c-2.3.277-4.425,5.1-4.146,7.4L66.7,188.307A4.193,4.193,0,0,0,71.362,191.966Z" transform="translate(-58.959 -148.353)" fill="none"/></clipPath></defs><g transform="translate(0 0)"><g transform="translate(155.882 42.934)" opacity="0.38"><path d="M52.353,153.951c0-2.942-5.323-15.184-5.323-15.184s-5.325,12.242-5.325,15.184a5.324,5.324,0,0,0,10.647,0Z" transform="translate(-41.706 -138.767)" fill="#f17781"/></g><g transform="translate(160.582 56.43)"><path d="M44.366,208.783a.358.358,0,0,0,.359-.357V145.067a.358.358,0,1,0-.716,0v63.359A.356.356,0,0,0,44.366,208.783Z" transform="translate(-44.009 -144.708)" fill="#61b3db"/></g><g transform="translate(80.352 89.205)"><path d="M81.436,159.136l-8.258,1.172a43.718,43.718,0,0,0,4.55,8.973c2.126,3.364,11.674,8,7.712,11.42s-8.819-4.793-12.133-5.325c-3.212-.516-9.854,2.851-7.685,5.6s6-1.431,7.253-.218,4.755,8.2,14.341,7.185,12.544-6.472,9.836-10.82S81.436,159.136,81.436,159.136Z" transform="translate(-65.196 -159.136)" fill="#ce8e3a"/></g><g transform="translate(92.099 38.877)"><path d="M92.456,169.675s-.943-14.55-4.907-23.566c-5.579-12.7-19.525-10.293-23.95-3.946s-3.078,28.378-3.078,28.378Z" transform="translate(-60.328 -136.981)" fill="#ffcb2f"/></g><g transform="translate(100.467 131.691)"><rect width="82.533" height="72.337" rx="2.71" fill="#f9e478"/></g><g transform="translate(63.996 108.508)"><path d="M112.479,167.633S94.221,173.269,82.24,178.76c-4.616,2.117-12.453,5.963-14.364,8.721-2.31,3.335-2.933,56.528-2.933,56.528l7.908-.023s2.3-46.822,2.687-49.13,39.15-15.007,39.15-15.007Z" transform="translate(-64.944 -167.633)" fill="#114960"/></g><g transform="translate(71.408 102.914)"><path d="M111.3,169.515a19.943,19.943,0,0,1,4.232,13.85c-.552,5.8-2.667,11.111-10.772,10.679-14.43-.77-31.167,4.9-31.456,6.252-.45,2.1,12.9,46.822,12.9,46.822l-7.908.023s-20.39-47.9-19.9-51.526c.609-4.489,21.147-12.3,29.627-16.1,7.31-3.269-3.428-12.331-.577-13.657C93.373,163.1,111.3,169.515,111.3,169.515Z" transform="translate(-58.388 -165.17)" fill="#062c3f"/></g><g transform="translate(86.749 66.304)"><path d="M82.732,149.1l3.607,23.294-16.994,1.949s.443-15.672,1.115-20.722c.32-2.408,3.782-3.716,6.288-4.264A30.763,30.763,0,0,1,82.732,149.1Z" transform="translate(-69.345 -149.055)" fill="#ccb0ee"/></g><g transform="translate(0 38.755)"><g transform="translate(0 0)"><ellipse cx="21.745" cy="21.745" rx="21.745" ry="21.745" transform="translate(40.18 56.823) rotate(-157.5)" fill="#f9e478"/></g><g transform="translate(13.438 13.108)"><path d="M110.889,142.7l-4.627,9.376-10.347,1.5,7.487,7.3-1.767,10.3,9.254-4.865,9.254,4.865-1.767-10.3,7.487-7.3-10.347-1.5Z" transform="translate(-95.915 -142.698)" fill="#fff"/></g></g><g transform="translate(79.081 0)" opacity="0.74"><g transform="translate(0)"><ellipse cx="16.871" cy="16.871" rx="16.871" ry="16.871" fill="#bb83ff"/></g><g transform="translate(5.254 4.998)"><path d="M79.278,122.068l-3.59,7.274-8.028,1.167,5.809,5.662-1.371,8,7.18-3.775,7.18,3.775-1.371-8,5.809-5.662-8.028-1.167Z" transform="translate(-67.66 -122.068)" fill="#fff"/></g></g><g transform="translate(25.256 92.766)" opacity="0.67"><ellipse cx="16.358" cy="16.358" rx="16.358" ry="16.358" fill="#fad9a0"/><g transform="translate(6.512 9.963)"><path d="M95.023,165.556c2.451-1.315,5.661.336,7.163,2.617,1.5-2.281,4.877-3.932,7.328-2.617,2.592,1.393,3.205,4.094,1.813,6.688s-9.128,8.91-9.141,8.832c-.016.077-7.751-6.24-9.143-8.832A4.677,4.677,0,0,1,95.023,165.556Z" transform="translate(-92.36 -165.089)" fill="#fff"/></g></g><g transform="translate(53.898 6.562)"><g transform="translate(0)"><path d="M83.321,131.8a9.048,9.048,0,1,0,9.048-9.048A9.049,9.049,0,0,0,83.321,131.8Z" transform="translate(-83.321 -122.756)" fill="#f9e478"/></g><g transform="translate(4.038 4.038)"><g transform="translate(3.979)"><rect width="2.063" height="10.021" fill="#fff"/></g><g transform="translate(0 3.979)"><rect width="10.021" height="2.063" fill="#fff"/></g></g></g><g transform="translate(50.708 127.175)"><g transform="translate(0)"><ellipse cx="5.713" cy="5.713" rx="5.713" ry="5.713" fill="#025482"/></g><g transform="translate(2.549 2.549)"><g transform="translate(2.512)"><rect width="1.303" height="6.328" fill="#fff"/></g><g transform="translate(0 2.512)"><rect width="6.328" height="1.303" fill="#fff"/></g></g></g><g transform="translate(55.163 68.622)"><g transform="translate(0)"><path d="M80.413,161.795a11.718,11.718,0,1,0,11.717-11.72A11.717,11.717,0,0,0,80.413,161.795Z" transform="translate(-80.413 -150.075)" fill="#f9e478"/></g><g transform="translate(3.146 7.061)"><path d="M81.96,158.574s3.23,4.773,8.848,4.464a10.88,10.88,0,0,0,7.928-4.464s-2.308-5.234-7.928-5.386A9.368,9.368,0,0,0,81.96,158.574Z" transform="translate(-81.96 -153.183)" fill="#fff"/><g transform="translate(4.693 1.474)"><path d="M84.162,157.371a3.54,3.54,0,1,0,3.539-3.539A3.539,3.539,0,0,0,84.162,157.371Z" transform="translate(-84.162 -153.832)" fill="#ffd56c"/></g></g></g><g transform="translate(53.328 30.897)"><g transform="translate(0)"><ellipse cx="15.011" cy="15.011" rx="15.011" ry="15.011" fill="#f17781"/></g><g transform="translate(5.627 8.3)"><path d="M82.054,150.409H98.36a1.431,1.431,0,0,0,1.431-1.431V138.553a1.431,1.431,0,0,0-1.431-1.431H82.054a1.431,1.431,0,0,0-1.431,1.431v10.425A1.431,1.431,0,0,0,82.054,150.409Zm14.875-2.862H83.485v-7.562H96.929Z" transform="translate(-80.623 -137.122)" fill="#fff"/><g transform="translate(0.543 0.286)"><path d="M89.685,146.114a1.429,1.429,0,0,0,.859-.286l8.385-6.29-1.717-2.29-7.5,5.627-7.056-5.6-1.779,2.242,7.919,6.29A1.429,1.429,0,0,0,89.685,146.114Z" transform="translate(-80.875 -137.248)" fill="#fff"/></g></g></g><g transform="translate(117.074 6.021)" opacity="0.7"><ellipse cx="22.06" cy="22.06" rx="22.06" ry="22.06" fill="#f9ca78"/><g transform="translate(4.828 6.75)"><g transform="translate(18.769 11.467)"><path d="M54.07,146.945a8.2,8.2,0,1,0-8.205-8.2A8.213,8.213,0,0,0,54.07,146.945Zm0-13.546a5.342,5.342,0,1,1-5.343,5.343A5.349,5.349,0,0,1,54.07,133.4Z" transform="translate(-45.865 -130.537)" fill="#fff"/></g><g transform="translate(0 11.833)"><path d="M62.333,147.106a8.2,8.2,0,1,0-8.205-8.2A8.213,8.213,0,0,0,62.333,147.106Zm0-13.546A5.342,5.342,0,1,1,56.99,138.9,5.348,5.348,0,0,1,62.333,133.56Z" transform="translate(-54.128 -130.698)" fill="#fff"/></g><g transform="translate(13.328 8.947)"><path d="M50.531,141.328h.018l11.638-.136a1.431,1.431,0,0,0,1.236-2.124l-4.93-8.9a1.432,1.432,0,0,0-2.4-.159l-6.711,9.039a1.431,1.431,0,0,0,1.149,2.283Zm9.228-2.971-6.358.075,3.666-4.936Z" transform="translate(-49.1 -129.427)" fill="#fff"/></g><g transform="translate(16.888 2.922)"><path d="M51.857,131.282a1.432,1.432,0,0,0,.443-.07l5.066-1.642a1.432,1.432,0,0,0-.884-2.724l-5.066,1.645a1.431,1.431,0,0,0,.441,2.792Z" transform="translate(-50.426 -126.775)" fill="#fff"/></g><g transform="translate(5.112 2.922)"><path d="M60.2,144.7c.052,0,.1,0,.159-.007a1.433,1.433,0,0,0,1.265-1.581l-1.663-15.063a1.431,1.431,0,1,0-2.844.316l1.661,15.061A1.434,1.434,0,0,0,60.2,144.7Z" transform="translate(-57.109 -126.775)" fill="#fff"/></g><g transform="translate(0.547)"><path d="M57.745,133.828a1.427,1.427,0,0,0,.806-.248l8.033-5.477a1.431,1.431,0,0,0-1.611-2.365l-8.035,5.477a1.43,1.43,0,0,0,.806,2.612Z" transform="translate(-56.313 -125.489)" fill="#fff"/></g><g transform="translate(8.204 17.985)"><rect width="6.555" height="2.862" transform="translate(0)" fill="#fff"/></g><g transform="translate(19.9 4.155)"><path d="M52.762,135.246a1.431,1.431,0,0,0,1.431-1.431v-5.066a1.431,1.431,0,1,0-2.862,0v5.066A1.432,1.432,0,0,0,52.762,135.246Z" transform="translate(-51.331 -127.318)" fill="#fff"/></g></g></g><g transform="translate(81.805 184.861)"><path d="M80.825,201.267l7.908-.023.045,16.09a2.185,2.185,0,0,1-2.176,2.188l-13.089.036c-3,.009-3.426-5.084,1.892-5.731,1.674-.2,4.759-.922,5.175-2.606A30.535,30.535,0,0,0,80.825,201.267Z" transform="translate(-71.315 -201.244)" fill="#47286d"/></g><g transform="translate(54.486 184.861)"><path d="M92.85,201.267l7.908-.023.045,16.09a2.183,2.183,0,0,1-2.176,2.188l-13.089.036c-3,.009-3.426-5.084,1.895-5.731,1.674-.2,4.757-.922,5.173-2.606A30.535,30.535,0,0,0,92.85,201.267Z" transform="translate(-83.341 -201.244)" fill="#47286d"/></g><g transform="translate(88.912 64.711)"><path d="M70.178,196.1l23.516-6.833a4.193,4.193,0,0,0,3.66-4.666L96.5,152.044a4.192,4.192,0,0,0-4.666-3.66l-26.608,1.767c-4.412.831-6.524,5.318-6.245,7.617l6.529,34.67A4.193,4.193,0,0,0,70.178,196.1Z" transform="translate(-58.959 -148.353)" fill="#e4ceff"/></g><g transform="translate(102.117 53.785)"><rect width="13.282" height="8.51" transform="translate(0.869 13.81) rotate(-93.751)" fill="#d8a252"/></g><g transform="translate(95.809 40.116)"><path d="M64.557,152.07a10.389,10.389,0,1,0,5.37-13.675A10.388,10.388,0,0,0,64.557,152.07Z" transform="translate(-63.688 -137.527)" fill="#d8a252"/></g><g transform="translate(90.463 111.298)"><path d="M79.574,178.448l7.5-6.637-21.226-2.95Z" transform="translate(-65.847 -168.861)" fill="#66c7e2"/></g><g transform="translate(114.114 49.602)"><path d="M62.581,145.563a2.758,2.758,0,1,0,1.427-3.63A2.759,2.759,0,0,0,62.581,145.563Z" transform="translate(-62.351 -141.702)" fill="#d8a252"/></g><g transform="translate(87.885 83.627)"><path d="M100.307,157.1s-9-.922-8.805-.045,7.19,15.243-3.9,20.02c-10.2,4.4-17.474,6.829-21.208,6.661-3.978-.182-9.273,2.026-9.63,4.6s4.173,4.164,6.406,2.363,3.189-2.376,4.255-1.867c1.109.529,9.266.711,25.122-5.352C100.973,180.262,102.533,169.09,100.307,157.1Z" transform="translate(-56.748 -156.68)" fill="#d8a252"/></g><g transform="translate(88.912 64.711)"><g clip-path="url(#a)"><g transform="translate(10.777 -9.743)"><path d="M65.508,153.941a7.055,7.055,0,1,0,3.646-9.287A7.053,7.053,0,0,0,65.508,153.941Z" transform="translate(-64.918 -144.065)" fill="#d8a252"/></g></g></g><g transform="translate(117.169 64.544)"><path d="M56.934,151.051c-3.364,6.318,3.024,22.006,3.024,22.006l12.989-3.437S69.7,155.058,67.381,150.71C65.189,146.594,58.349,148.4,56.934,151.051Z" transform="translate(-55.955 -148.28)" fill="#ccb0ee"/></g><g transform="translate(163.683 89.031)" opacity="0.38"><path d="M44.978,173.561c2.079-2.081,6.972-14.5,6.972-14.5s-12.421,4.893-14.5,6.972a5.324,5.324,0,0,0,7.528,7.531Z" transform="translate(-35.889 -159.059)" fill="#f17781"/></g><g transform="translate(163.683 65.432)" opacity="0.38"><path d="M44.978,163.171c2.079-2.079,6.972-14.5,6.972-14.5s-12.421,4.891-14.5,6.972a5.323,5.323,0,0,0,7.528,7.528Z" transform="translate(-35.889 -148.671)" fill="#f17781"/></g><g transform="translate(141.11 89.031)" opacity="0.38"><path d="M52.8,173.561c-2.079-2.081-6.972-14.5-6.972-14.5s12.421,4.893,14.5,6.972a5.324,5.324,0,0,1-7.528,7.531Z" transform="translate(-45.826 -159.059)" fill="#f17781"/></g><g transform="translate(141.11 65.432)" opacity="0.38"><path d="M52.8,163.171c-2.079-2.079-6.972-14.5-6.972-14.5s12.421,4.891,14.5,6.972a5.323,5.323,0,0,1-7.528,7.528Z" transform="translate(-45.826 -148.671)" fill="#f17781"/></g><g transform="translate(94.023 38.758)"><path d="M86.6,147.713s-7.129-.557-10.775-2.213a11.818,11.818,0,0,1-5.675-4.9s-.577,5.579-3.655,8.271-3.078,1.829-3.078,1.829.672-8.562,7.6-12.217,10.388,0,12.889,2.308S86.6,147.713,86.6,147.713Z" transform="translate(-63.419 -136.929)" fill="#ffcb2f"/></g><g transform="translate(70.387 99.537)"><rect width="21.355" height="33.282" transform="translate(0.531 22.175) rotate(-91.424)" fill="#97e4ff"/></g><g transform="translate(83.537 107.258)"><ellipse cx="2.886" cy="2.886" rx="2.886" ry="2.886" transform="translate(0)" fill="#abedff"/></g><g transform="translate(150.177 111.938)"><path d="M59.076,169.143H41.246a1.592,1.592,0,0,0-1.572,1.838l2.581,16.567a1.592,1.592,0,0,0,1.574,1.347H56.493a1.59,1.59,0,0,0,1.572-1.347l2.583-16.567A1.592,1.592,0,0,0,59.076,169.143Z" transform="translate(-39.655 -169.143)" fill="#f17781"/></g><g transform="translate(150.065 74.13)"><path d="M50.757,164.67l10-11.579a.358.358,0,1,0-.541-.468l-9.5,11-10.5-10.5a.357.357,0,0,0-.507.5Z" transform="translate(-39.605 -152.5)" fill="#61b3db"/></g><g transform="translate(149.808 97.986)"><path d="M51.124,173.6l9.73-9.991a.358.358,0,0,0-.513-.5l-9.253,9.5-10.775-9.521a.357.357,0,1,0-.473.536Z" transform="translate(-39.718 -163.001)" fill="#61b3db"/></g><g transform="translate(24.171 17.752)"><ellipse cx="11.785" cy="11.785" rx="11.785" ry="11.785" fill="#47286d"/><g transform="translate(5.617 5.363)"><path d="M107.458,142.29a1.431,1.431,0,0,0,1-2.456l-9.623-9.384a1.431,1.431,0,1,0-2,2.049l9.623,9.384A1.427,1.427,0,0,0,107.458,142.29Z" transform="translate(-96.404 -130.043)" fill="#fff"/></g><g transform="translate(12.989 5.606)"><ellipse cx="2.257" cy="2.257" rx="2.257" ry="2.257" transform="translate(0)" fill="#fff"/></g><g transform="translate(5.743 12.615)"><path d="M99.858,135.493a2.257,2.257,0,1,0,2.256-2.258A2.257,2.257,0,0,0,99.858,135.493Z" transform="translate(-99.858 -133.235)" fill="#fff"/></g><g transform="translate(7.058 13.932)"><path d="M100.438,134.755a.94.94,0,1,0,.94-.941A.941.941,0,0,0,100.438,134.755Z" transform="translate(-100.438 -133.815)" fill="#4396ca"/></g><g transform="translate(14.306 6.923)"><ellipse cx="0.94" cy="0.94" rx="0.94" ry="0.94" transform="translate(0)" fill="#4396ca"/></g></g></g></svg>