<svg xmlns="http://www.w3.org/2000/svg" xmlns:xlink="http://www.w3.org/1999/xlink" width="395" height="267" viewBox="0 0 395 267"><defs><clipPath id="a"><circle cx="100.016" cy="100.016" r="100.016" fill="none"/></clipPath></defs><g transform="translate(-388 -1874)"><rect width="395" height="267" rx="12" transform="translate(388 1874)" fill="#bb83ff" opacity="0.15"/><g transform="translate(456.992 1863.551)"><g transform="translate(34.976 35.209)" opacity="0.5"><circle cx="107.801" cy="107.801" r="107.801" transform="translate(0 0)" fill="#41007c"/><path d="M365.223,388.54,390.475,405.3l-13.216-27.375Z" transform="translate(-193.908 -195.128)" fill="#41007c"/></g><circle cx="100.016" cy="100.016" r="100.016" transform="translate(42.761 42.994)" fill="#fff"/><circle cx="103.675" cy="103.675" r="103.675" transform="translate(39.103 39.335)" fill="none" stroke="#c2c6f5" stroke-miterlimit="10" stroke-width="1" stroke-dasharray="3.201"/><g transform="translate(25.214 21.172)"><g transform="translate(100.703)"><path d="M236.172,25.74l5.137,10.41L252.8,35.3v2.52l-8.312,8.1,1.962,8.921v2.52l-10.275-5.4-10.275,5.4v-2.52l1.962-8.921-8.313-8.1V35.3l11.488.851Z" transform="translate(-219.547 -23.22)" fill="#f9c178"/><path d="M236.172,21.172l5.137,10.41L252.8,33.251l-8.312,8.1L246.447,52.8l-10.275-5.4L225.9,52.8l1.962-11.441-8.313-8.1,11.488-1.669Z" transform="translate(-219.547 -21.172)" fill="#f9e478"/></g><g transform="translate(35.937 18.247)"><path d="M118.786,58.813l5.137,10.41,11.488-.851v2.52l-8.313,8.1,1.962,8.921v2.52l-10.275-5.4-10.275,5.4v-2.52l1.962-8.921-8.313-8.1v-2.52l11.488.851Z" transform="translate(-102.161 -56.292)" fill="#f9c178"/><path d="M118.786,54.245l5.137,10.41,11.488,1.669-8.313,8.1,1.962,11.441-10.275-5.4-10.275,5.4,1.962-11.441-8.313-8.1,11.488-1.669Z" transform="translate(-102.161 -54.245)" fill="#f9e478"/></g><g transform="translate(0 67.53)"><path d="M53.651,148.136l5.137,10.41,11.488-.851v2.52l-8.313,8.1,1.962,8.921v2.52l-10.275-5.4-10.275,5.4v-2.52l1.962-8.921-8.313-8.1V157.7l11.488.851Z" transform="translate(-37.026 -145.616)" fill="#f9c178"/><path d="M53.651,143.569l5.137,10.41,11.488,1.669-8.313,8.1,1.962,11.441-10.275-5.4-10.275,5.4,1.962-11.441-8.313-8.1,11.488-1.669Z" transform="translate(-37.026 -143.569)" fill="#f9e478"/></g><g transform="translate(165.94 18.247)"><path d="M354.413,58.813l-5.137,10.41-11.488-.851v2.52l8.312,8.1-1.962,8.921v2.52l10.275-5.4,10.275,5.4v-2.52l-1.962-8.921,8.313-8.1v-2.52l-11.488.851Z" transform="translate(-337.788 -56.292)" fill="#f9c178"/><path d="M354.413,54.245l-5.137,10.41-11.488,1.669,8.312,8.1-1.962,11.441,10.275-5.4,10.275,5.4-1.962-11.441,8.313-8.1L359.55,64.655Z" transform="translate(-337.788 -54.245)" fill="#f9e478"/></g><g transform="translate(201.877 67.53)"><path d="M419.548,148.136l-5.137,10.41-11.488-.851v2.52l8.312,8.1-1.962,8.921v2.52l10.275-5.4,10.275,5.4v-2.52l-1.962-8.921,8.313-8.1V157.7l-11.488.851Z" transform="translate(-402.923 -145.616)" fill="#f9c178"/><path d="M419.548,143.569l-5.137,10.41-11.488,1.669,8.312,8.1-1.962,11.441,10.275-5.4,10.275,5.4L427.86,163.75l8.313-8.1-11.488-1.669Z" transform="translate(-402.923 -143.569)" fill="#f9e478"/></g></g><g transform="translate(10.675 148.465)"><path d="M25.077,251.887H72.466a14.4,14.4,0,0,1,14.4,14.4h0a14.4,14.4,0,0,1-14.4,14.4H25.077a14.4,14.4,0,0,1-14.4-14.4h0A14.4,14.4,0,0,1,25.077,251.887Z" transform="translate(-10.675 -251.887)" fill="#47286d"/><path d="M110.232,299.485v11.63L104.247,300Z" transform="translate(-52.62 -273.224)" fill="#47286d"/></g><g transform="translate(213.227 144.575)"><circle cx="23.048" cy="23.048" r="23.048" fill="#31d9e7"/><path d="M433.363,319.766l8.4,7.261-2.5-10.437Z" transform="translate(-402.704 -277.001)" fill="#31d9e7"/></g><g transform="translate(220.704 157.52)"><path d="M422.935,269.611H392a.657.657,0,0,1-.657-.657h0A.657.657,0,0,1,392,268.3h30.932a.657.657,0,0,1,.657.657h0A.657.657,0,0,1,422.935,269.611Z" transform="translate(-391.347 -268.298)" fill="#fff"/><g transform="translate(0 4.864)"><path d="M422.935,278.426H392a.657.657,0,0,1-.657-.657h0a.656.656,0,0,1,.657-.656h30.932a.656.656,0,0,1,.657.656h0A.657.657,0,0,1,422.935,278.426Z" transform="translate(-391.347 -277.113)" fill="#fff"/></g><g transform="translate(0 9.727)"><path d="M422.935,287.24H392a.657.657,0,0,1-.657-.657h0a.657.657,0,0,1,.657-.657h30.932a.657.657,0,0,1,.657.657h0A.657.657,0,0,1,422.935,287.24Z" transform="translate(-391.347 -285.927)" fill="#fff"/></g><g transform="translate(0 14.59)"><path d="M422.935,296.055H392a.657.657,0,0,1-.657-.657h0a.657.657,0,0,1,.657-.657h30.932a.657.657,0,0,1,.657.657h0A.657.657,0,0,1,422.935,296.055Z" transform="translate(-391.347 -294.742)" fill="#fff"/></g><g transform="translate(0 19.454)"><path d="M422.935,304.87H392a.657.657,0,0,1-.657-.657h0a.657.657,0,0,1,.657-.657h30.932a.657.657,0,0,1,.657.657h0A.657.657,0,0,1,422.935,304.87Z" transform="translate(-391.347 -303.557)" fill="#fff"/></g></g><g transform="translate(19.001 154.651)"><path d="M84.63,264.411H26.423a.657.657,0,0,1-.657-.657h0a.657.657,0,0,1,.657-.657H84.63a.657.657,0,0,1,.657.657h0A.657.657,0,0,1,84.63,264.411Z" transform="translate(-25.766 -263.098)" fill="#c2c6f5"/><g transform="translate(0 3.766)"><path d="M84.63,271.237H26.423a.657.657,0,0,1-.657-.657h0a.657.657,0,0,1,.657-.657H84.63a.657.657,0,0,1,.657.657h0A.657.657,0,0,1,84.63,271.237Z" transform="translate(-25.766 -269.924)" fill="#c2c6f5"/></g><g transform="translate(0 7.532)"><path d="M84.63,278.063H26.423a.657.657,0,0,1-.657-.657h0a.657.657,0,0,1,.657-.657H84.63a.657.657,0,0,1,.657.657h0A.657.657,0,0,1,84.63,278.063Z" transform="translate(-25.766 -276.75)" fill="#c2c6f5"/></g><g transform="translate(0 11.298)"><path d="M84.63,284.889H26.423a.656.656,0,0,1-.657-.657h0a.657.657,0,0,1,.657-.657H84.63a.657.657,0,0,1,.657.657h0A.656.656,0,0,1,84.63,284.889Z" transform="translate(-25.766 -283.576)" fill="#c2c6f5"/></g><g transform="translate(0 15.065)"><path d="M84.63,291.716H26.423a.657.657,0,0,1-.657-.657h0a.656.656,0,0,1,.657-.657H84.63a.656.656,0,0,1,.657.657h0A.657.657,0,0,1,84.63,291.716Z" transform="translate(-25.766 -290.403)" fill="#c2c6f5"/></g></g><g transform="translate(191.985 99.081)"><circle cx="15.12" cy="15.12" r="15.12" transform="translate(0 29.45) rotate(-76.874)" fill="#f17781"/><g transform="translate(11.035 8.036)"><path d="M366.418,176.944a7.124,7.124,0,0,0-6.268,10.509l5.879,10.632a.445.445,0,0,0,.779,0l5.881-10.635a7.125,7.125,0,0,0-6.27-10.506Zm0,10.685a3.562,3.562,0,1,1,3.561-3.562A3.566,3.566,0,0,1,366.418,187.629Z" transform="translate(-359.295 -176.944)" fill="#fff"/></g></g><g transform="translate(42.761 42.994)"><g clip-path="url(#a)"><g transform="translate(25.972 15.264)"><path d="M206.849,184.686c44.3,0,51.313-20.3,51.313-20.3a79.084,79.084,0,0,1-14.582-33.593c-3.507-20.119-15.874-35.624-38.208-34.332s-32.3,8.491-38.023,35.07-13.29,39.131-13.29,39.131S169.934,184.686,206.849,184.686Z" transform="translate(-133.007 -91.972)" fill="#47286d"/><g transform="translate(29.794 32.734)" opacity="0.29"><path d="M300.1,150.636c2.552,15.987,7.886,31.839,17.792,44.645" transform="translate(-228.266 -149.026)" fill="none" stroke="#fff" stroke-miterlimit="10" stroke-width="1.022"/><path d="M280.351,168.928a102.25,102.25,0,0,0,15.584,42.408" transform="translate(-219.414 -157.226)" fill="none" stroke="#fff" stroke-miterlimit="10" stroke-width="1.022"/><path d="M270.94,198.617a87.435,87.435,0,0,0,9.08,29.959" transform="translate(-215.195 -170.534)" fill="none" stroke="#fff" stroke-miterlimit="10" stroke-width="1.022"/><path d="M184.438,147.718A169.837,169.837,0,0,1,169.9,194.85" transform="translate(-169.904 -147.718)" fill="none" stroke="#fff" stroke-miterlimit="10" stroke-width="1.022"/><path d="M205.163,174.815a157.209,157.209,0,0,1-12.6,38.787" transform="translate(-180.061 -159.865)" fill="none" stroke="#fff" stroke-miterlimit="10" stroke-width="1.022"/><path d="M224.558,203.514a113.487,113.487,0,0,1-7.879,27.914" transform="translate(-190.872 -172.729)" fill="none" stroke="#fff" stroke-miterlimit="10" stroke-width="1.022"/></g><path d="M260.9,97.835a11.859,11.859,0,0,1-4.743-9.447C259.757,89.787,261.176,93.986,260.9,97.835Z" transform="translate(-178.775 -88.388)" fill="#41007c"/><path d="M261.7,99.692a11.859,11.859,0,0,1,5.216-9.195C267.749,94.265,265.048,97.779,261.7,99.692Z" transform="translate(-181.257 -89.333)" fill="#41007c"/><path d="M226.212,113.385c15.264,0,27.637,12.616,27.637,28.179s-12.373,39.106-27.637,39.106-27.636-23.543-27.636-39.106,12.373-28.179,27.636-28.179" transform="translate(-152.963 -99.593)" fill="#ff8775"/><path d="M193.7,145.891a24.482,24.482,0,0,0,6.689-21.155,33.793,33.793,0,0,0,29.383-9.222,38.254,38.254,0,0,0-1.634,5.859,1.19,1.19,0,0,0,.1.89.845.845,0,0,0,.588.307c.905.116,1.666-.648,2.217-1.376a23.032,23.032,0,0,0,3.434-6.462,16.644,16.644,0,0,0,9.667,12.437c.185,7.1,3.24,14.58,8.518,19.329a33.33,33.33,0,0,0,.335-22.648,24.118,24.118,0,0,0-4.06-7.463,27.487,27.487,0,0,0-8.565-6.493,41.653,41.653,0,0,0-12.2-4.276A33.537,33.537,0,0,0,198.3,115.51C190.887,123.548,189.992,135.6,193.7,145.891Z" transform="translate(-149.822 -95.902)" fill="#47286d"/><path d="M250.949,157.742a27.229,27.229,0,0,0,.1,7.248,9.184,9.184,0,0,0,3.684,6.043,9.763,9.763,0,0,1-4.621,4.293" transform="translate(-176.063 -119.477)" fill="none" stroke="#47286d" stroke-miterlimit="10" stroke-width="2.045"/><path d="M229.718,162.093c0,1.315-.711,2.381-1.588,2.381s-1.587-1.066-1.587-2.381.711-2.381,1.587-2.381S229.718,160.778,229.718,162.093Z" transform="translate(-165.499 -120.36)" fill="#47286d"/><path d="M215.464,151.349a12.7,12.7,0,0,1,5.521-5.431,19.629,19.629,0,0,1,7.549-2.038" transform="translate(-160.533 -113.263)" fill="none" stroke="#47286d" stroke-miterlimit="10" stroke-width="4.089"/><path d="M265.524,162.093c0,1.315.711,2.381,1.588,2.381s1.587-1.066,1.587-2.381-.711-2.381-1.587-2.381S265.524,160.778,265.524,162.093Z" transform="translate(-182.973 -120.36)" fill="#47286d"/><path d="M271.739,151.349a12.7,12.7,0,0,0-5.521-5.431,19.629,19.629,0,0,0-7.549-2.038" transform="translate(-179.9 -113.263)" fill="none" stroke="#47286d" stroke-miterlimit="10" stroke-width="4.089"/><g transform="translate(66.19 58.767)"><path d="M240.626,201.849a8.355,8.355,0,0,0,5.783,2.385,7.648,7.648,0,0,0,4.773-1.674A29.187,29.187,0,0,0,240.626,201.849Z" transform="translate(-238.003 -197.929)" fill="#ff4648"/><path d="M252.522,194.9a22.637,22.637,0,0,1-8.245,2.1,27.471,27.471,0,0,1-8.406-1.778,12.089,12.089,0,0,0,2.623,3.6,29.187,29.187,0,0,1,10.556.711A12.048,12.048,0,0,0,252.522,194.9Z" transform="translate(-235.871 -194.901)" fill="#47286d"/></g><g transform="translate(0 67.247)"><path d="M250.623,230.092c-2.387-7.85-3.666-19.511-3.666-19.511l-7.344-.31-7.344.31a136.724,136.724,0,0,1-3.473,18.864A61.277,61.277,0,0,0,250.623,230.092Z" transform="translate(-166.509 -210.272)" fill="#ff8775"/><path d="M238.744,270.145C232.4,262.4,205.7,256.826,202.025,250.63a23.681,23.681,0,0,1-2.008-4.96,61.277,61.277,0,0,1-21.827-.647,25.422,25.422,0,0,1-2.2,5.607c-3.672,6.2-30.376,11.771-36.718,19.515S115.9,329,115.9,329l73.1,25.09L262.11,329S245.086,277.889,238.744,270.145Z" transform="translate(-115.903 -225.85)" fill="#bb83ff"/></g><path d="M266.654,311.951S248.7,298.066,247.4,294.179s-1.3-8.145-3.147-7.96-3.426,4.639-3.7,6.48a17.585,17.585,0,0,0,.74,7.4l-8.879-.185a2.8,2.8,0,0,0-2.69,3.566l.193.676a2.8,2.8,0,0,1-.108,1.845l-1.031,2.473a2.8,2.8,0,0,0-.007,2.136l.806,1.97a2.8,2.8,0,0,1,.018,2.073l-.415,1.068a2.8,2.8,0,0,0,.162,2.372l.518.931a2.8,2.8,0,0,1,.085,2.55h0a2.8,2.8,0,0,0,.628,3.241l.133.124a2.8,2.8,0,0,0,2.26.724l20.36-2.61,4.258,3.332Z" transform="translate(-166.404 -177.066)" fill="#ff8775"/><path d="M327.571,364.613l-40.665-31.751-9.071,14.44-4.093,6.545,25.377,26.146" transform="translate(-186.657 -197.977)" fill="none" stroke="#41007c" stroke-miterlimit="10" stroke-width="2.045"/><path d="M327.54,336.252a177.018,177.018,0,0,0,5.572-24.91" transform="translate(-210.773 -188.331)" fill="none" stroke="#41007c" stroke-miterlimit="10" stroke-width="2.045"/><path d="M282.278,361.821a95.113,95.113,0,0,0,13.464-22.111" transform="translate(-190.483 -201.047)" fill="none" stroke="#41007c" stroke-miterlimit="10" stroke-width="1.022"/><path d="M285.969,364.692a95.136,95.136,0,0,0,13.464-22.111" transform="translate(-192.138 -202.334)" fill="none" stroke="#41007c" stroke-miterlimit="10" stroke-width="1.022"/><path d="M162.3,301.461c1.828,21.905,3.688,43.981,9.806,65.095" transform="translate(-136.702 -183.901)" fill="none" stroke="#41007c" stroke-miterlimit="10" stroke-width="2.045"/><path d="M225.415,223.654a20.334,20.334,0,0,0,12.828,5.473c8.319.6,14.934-7.642,14.934-7.642" transform="translate(-164.994 -148.051)" fill="none" stroke="#47286d" stroke-miterlimit="10" stroke-width="3.067"/><g transform="translate(42.318 5.528)" opacity="0.37"><path d="M276.152,102.044a25.966,25.966,0,0,0,4.907,16.6,18.875,18.875,0,0,0,15.191,7.616" transform="translate(-230.048 -100.038)" fill="none" stroke="#fff" stroke-miterlimit="10" stroke-width="1.022"/><path d="M284.7,106.4a22.861,22.861,0,0,0,4.665,10.011,15.4,15.4,0,0,0,9.447,5.454" transform="translate(-233.886 -101.991)" fill="none" stroke="#fff" stroke-miterlimit="10" stroke-width="1.022"/><path d="M232.764,105.533a30.1,30.1,0,0,1-40.161,10.09" transform="translate(-192.603 -101.602)" fill="none" stroke="#fff" stroke-miterlimit="10" stroke-width="1.022"/><path d="M231.737,98.408a20.42,20.42,0,0,1-11.969,6.764,26.02,26.02,0,0,1-13.781-1.433" transform="translate(-198.603 -98.408)" fill="none" stroke="#fff" stroke-miterlimit="10" stroke-width="1.022"/></g><g transform="translate(36.811 43.555)"><path d="M182.838,175.715a10.665,10.665,0,0,0,5.73,6.806,5.938,5.938,0,0,0,2.832.662,5.242,5.242,0,0,0,4.472-4.241,10.144,10.144,0,0,0-1.091-6.239c-1.16-2.52-3.129-5.069-5.986-5.345C184.189,166.912,181.873,172.078,182.838,175.715Z" transform="translate(-182.622 -167.33)" fill="#ff8775"/><path d="M194.878,181.981a5.408,5.408,0,0,1-2.684-1.247,1.05,1.05,0,0,1-.351-.466c-.1-.361.157-.724.4-1.023l1.487-1.809a.911.911,0,0,0,.228-.4.859.859,0,0,0-.107-.482c-.856-1.946-1.846-4.034-3.79-5a3.141,3.141,0,0,0-1.712-.363,3.109,3.109,0,0,0-2.14,1.414,7.966,7.966,0,0,0-.975,2.393s.02,4.4,3.437,6.611A5.774,5.774,0,0,0,194.878,181.981Z" transform="translate(-183.794 -169.056)" fill="#ff8775" style="mix-blend-mode:multiply;isolation:isolate"/><path d="M185.236,175a7.966,7.966,0,0,1,.975-2.393,3.109,3.109,0,0,1,2.14-1.414,3.141,3.141,0,0,1,1.712.363c1.944.965,2.934,3.053,3.79,5a.859.859,0,0,1,.107.482.911.911,0,0,1-.228.4l-1.487,1.809c-.246.3-.506.662-.4,1.023a1.05,1.05,0,0,0,.351.466,5.408,5.408,0,0,0,2.684,1.247" transform="translate(-183.794 -169.056)" fill="none" stroke="#47286d" stroke-miterlimit="10" stroke-width="1.86"/></g><g transform="translate(95.137 43.555)"><path d="M301.516,175.715a10.666,10.666,0,0,1-5.73,6.806,5.941,5.941,0,0,1-2.833.662,5.243,5.243,0,0,1-4.472-4.241,10.152,10.152,0,0,1,1.091-6.239c1.16-2.52,3.129-5.069,5.986-5.345C300.165,166.912,302.481,172.078,301.516,175.715Z" transform="translate(-288.337 -167.33)" fill="#ff8775"/><path d="M292.526,181.981a5.408,5.408,0,0,0,2.683-1.247,1.051,1.051,0,0,0,.351-.466c.1-.361-.157-.724-.4-1.023l-1.488-1.809a.916.916,0,0,1-.228-.4.864.864,0,0,1,.107-.482c.856-1.946,1.846-4.034,3.79-5a3.143,3.143,0,0,1,1.713-.363,3.109,3.109,0,0,1,2.14,1.414,7.967,7.967,0,0,1,.975,2.393s-.02,4.4-3.437,6.611A5.773,5.773,0,0,1,292.526,181.981Z" transform="translate(-290.215 -169.056)" fill="#ff8775" style="mix-blend-mode:multiply;isolation:isolate"/><path d="M302.168,175a7.967,7.967,0,0,0-.975-2.393,3.109,3.109,0,0,0-2.14-1.414,3.143,3.143,0,0,0-1.713.363c-1.944.965-2.934,3.053-3.79,5a.864.864,0,0,0-.107.482.916.916,0,0,0,.228.4l1.488,1.809c.245.3.506.662.4,1.023a1.051,1.051,0,0,1-.351.466,5.408,5.408,0,0,1-2.683,1.247" transform="translate(-290.215 -169.056)" fill="none" stroke="#47286d" stroke-miterlimit="10" stroke-width="1.86"/></g><line x2="11.773" y2="0.687" transform="translate(70.527 122.826)" fill="none" stroke="#41007c" stroke-miterlimit="10" stroke-width="1"/></g></g></g><g transform="translate(50.279 197.375)"><circle cx="20.23" cy="20.23" r="20.23" transform="translate(0 28.61) rotate(-45)" fill="#f17781"/><g transform="translate(19.571 16.575)"><path d="M126.4,370.576q-.254,1.774-.452,3.511T125.5,377.6h3.731q.181-1.773.417-3.514t.416-3.511h3.079q-.217,1.774-.435,3.511t-.435,3.514h3.732q-.073.726-.126,1.45t-.164,1.486h-3.768q-.108.907-.217,1.866t-.218,1.9h3.732c-.072.484-.14.973-.2,1.465s-.115,1-.164,1.5h-3.768c-.121,1.135-.247,2.279-.38,3.423s-.271,2.3-.417,3.461h-3.042q.181-1.738.4-3.461c.146-1.144.279-2.288.4-3.423h-3.7c-.121,1.135-.254,2.279-.4,3.423s-.279,2.3-.4,3.461H120.5q.219-1.738.417-3.461c.133-1.144.26-2.288.381-3.423h-3.37c.074-.507.138-1.008.2-1.5s.113-.982.162-1.465h3.405q.108-.942.218-1.9t.216-1.866h-3.368q.108-.761.162-1.486t.164-1.45h3.368q.219-1.773.435-3.514t.435-3.511Zm-1.231,9.962q-.073.907-.2,1.866t-.234,1.9h3.694q.146-.942.236-1.9t.2-1.866Z" transform="translate(-117.927 -370.576)" fill="#fff"/></g></g></g></g></svg>