<svg xmlns="http://www.w3.org/2000/svg" xmlns:xlink="http://www.w3.org/1999/xlink" width="243" height="133" viewBox="0 0 243 133"><defs><clipPath id="a"><path d="M268.09,31.991a3.756,3.756,0,0,0-3.476-2.336H169.054l-7.666,18.771H274.8Z" transform="translate(-161.388 -29.655)" fill="none"/></clipPath></defs><g transform="translate(-829 -3162)"><g transform="translate(829 3162)" fill="#fff" stroke="#707070" stroke-width="1" opacity="0"><rect width="243" height="133" stroke="none"/><rect x="0.5" y="0.5" width="242" height="132" fill="none"/></g><g transform="translate(731.075 3158.538)"><g transform="translate(156.925 92.947)"><path d="M156.925,90.872l12.617-11.681H270.475l11.132,11.681Z" transform="translate(-156.925 -79.191)" fill="#025482"/></g><g transform="translate(166.669 26.003)"><path d="M266.9,94.279H167.632a3.018,3.018,0,0,1-2.965-3.067V29.07A3.018,3.018,0,0,1,167.632,26H266.9a3.018,3.018,0,0,1,2.965,3.067V91.211A3.018,3.018,0,0,1,266.9,94.279Z" transform="translate(-164.667 -26.003)" fill="#47286d"/></g><g transform="translate(170.751 30.793)"><rect width="97.031" height="60.923" rx="2.174" fill="#d8b8ff"/></g><g transform="translate(162.542 30.6)"><path d="M267.806,31.3a2.639,2.639,0,0,0-2.442-1.641h-94.2a3.141,3.141,0,0,0-2.906,1.953l-6.87,16.818H274.8Z" transform="translate(-161.388 -29.655)" fill="#bb83ff"/><g transform="translate(0 18.771)"><path d="M165.025,50.649h-.072a3.566,3.566,0,0,1-3.566-3.567V44.569h7.2v2.513A3.567,3.567,0,0,1,165.025,50.649Z" transform="translate(-161.388 -44.569)" fill="#bb83ff"/></g><g transform="translate(14.672 18.771)"><path d="M177.017,50.649h-.078a3.741,3.741,0,0,1-3.894-3.567V44.569h7.865v2.513A3.74,3.74,0,0,1,177.017,50.649Z" transform="translate(-173.045 -44.569)" fill="#bb83ff"/></g><g transform="translate(29.577 18.771)"><path d="M189.025,50.649h-.082a3.836,3.836,0,0,1-4.057-3.567V44.569h8.195v2.513A3.836,3.836,0,0,1,189.025,50.649Z" transform="translate(-184.887 -44.569)" fill="#bb83ff"/></g><g transform="translate(44.811 18.771)"><path d="M201.2,50.649h-.083a3.875,3.875,0,0,1-4.122-3.567V44.569h8.327v2.513A3.875,3.875,0,0,1,201.2,50.649Z" transform="translate(-196.991 -44.569)" fill="#bb83ff"/></g><g transform="translate(60.243 18.771)"><path d="M213.374,50.649h-.082a3.826,3.826,0,0,1-4.04-3.567V44.569h8.162v2.513A3.826,3.826,0,0,1,213.374,50.649Z" transform="translate(-209.252 -44.569)" fill="#bb83ff"/></g><g transform="translate(75.345 18.771)"><path d="M225.373,50.649h-.082a3.826,3.826,0,0,1-4.04-3.567V44.569h8.162v2.513A3.826,3.826,0,0,1,225.373,50.649Z" transform="translate(-221.251 -44.569)" fill="#bb83ff"/></g><g transform="translate(90.712 18.771)"><path d="M237.5,50.649h-.081a3.778,3.778,0,0,1-3.958-3.567V44.569h8v2.513A3.778,3.778,0,0,1,237.5,50.649Z" transform="translate(-233.46 -44.569)" fill="#bb83ff"/></g><g transform="translate(106.046 18.771)"><path d="M249.381,50.649h-.074a3.616,3.616,0,0,1-3.664-3.567V44.569h7.4v2.513A3.616,3.616,0,0,1,249.381,50.649Z" transform="translate(-245.643 -44.569)" fill="#bb83ff"/></g><g transform="translate(7.204 18.771)"><path d="M170.883,50.649h-.074a3.634,3.634,0,0,1-3.7-3.567V44.569h7.467v2.513A3.634,3.634,0,0,1,170.883,50.649Z" transform="translate(-167.112 -44.569)" fill="#f4efe9"/></g><g transform="translate(22.537 18.771)"><path d="M182.85,50.649h-.07a3.527,3.527,0,0,1-3.485-3.567V44.569h7.039v2.513A3.527,3.527,0,0,1,182.85,50.649Z" transform="translate(-179.294 -44.569)" fill="#f4efe9"/></g><g transform="translate(37.755 18.771)"><path d="M194.973,50.649H194.9a3.542,3.542,0,0,1-3.517-3.567V44.569h7.1v2.513A3.542,3.542,0,0,1,194.973,50.649Z" transform="translate(-191.385 -44.569)" fill="#f4efe9"/></g><g transform="translate(53.154 18.771)"><path d="M207.208,50.649h-.07a3.543,3.543,0,0,1-3.518-3.567V44.569h7.1v2.513A3.542,3.542,0,0,1,207.208,50.649Z" transform="translate(-203.62 -44.569)" fill="#f4efe9"/></g><g transform="translate(68.389 18.771)"><path d="M219.229,50.649h-.069a3.5,3.5,0,0,1-3.436-3.567V44.569h6.94v2.513A3.5,3.5,0,0,1,219.229,50.649Z" transform="translate(-215.724 -44.569)" fill="#f4efe9"/></g><g transform="translate(83.491 18.771)"><path d="M231.394,50.649h-.073a3.583,3.583,0,0,1-3.6-3.567V44.569h7.27v2.513A3.583,3.583,0,0,1,231.394,50.649Z" transform="translate(-227.723 -44.569)" fill="#f4efe9"/></g><g transform="translate(98.693 18.771)"><path d="M243.539,50.649h-.074a3.616,3.616,0,0,1-3.664-3.567V44.569h7.4v2.513A3.616,3.616,0,0,1,243.539,50.649Z" transform="translate(-239.801 -44.569)" fill="#f4efe9"/></g><g clip-path="url(#a)"><g transform="translate(53.138 -2.379)"><rect width="7.138" height="30.403" fill="#fff"/></g><g transform="translate(36.784 -3.965)"><path d="M197.676,57.528l-7.063-1.035L194.741,26.5l6.675.727Z" transform="translate(-190.614 -26.505)" fill="#fff"/></g><g transform="translate(21.089 -5.419)"><path d="M185.057,56.558l-6.913-1.778,8.123-29.431,5.618,1.784Z" transform="translate(-178.144 -25.349)" fill="#fff"/></g><g transform="translate(65.564 -4.097)"><path d="M217.368,57.556l7.062-1.035L219.494,26.4l-6.014.991Z" transform="translate(-213.479 -26.4)" fill="#fff"/></g><g transform="translate(91.208 -5.322)"><path d="M243.682,56.428l6.7-2.457L239.921,25.426l-6.067,2.282Z" transform="translate(-233.854 -25.426)" fill="#fff"/></g><g transform="translate(5.603 -5.322)"><path d="M172.542,56.428l-6.7-2.457L176.3,25.426l6.067,2.282Z" transform="translate(-165.84 -25.426)" fill="#fff"/></g><g transform="translate(77.725 -5.287)"><path d="M230.713,56.531l6.913-1.778-8.14-29.3-6.344,1.632Z" transform="translate(-223.142 -25.454)" fill="#fff"/></g></g></g><g transform="translate(218.153 26.895)"><circle cx="1.113" cy="1.113" r="1.113" fill="#025482"/></g><g transform="translate(210.64 63.35)"><g transform="translate(2.229 14.211)"><path d="M202.033,72.044h11.3a2.522,2.522,0,0,0,2.52-2.52v-.038a2.522,2.522,0,0,0-2.52-2.52h-11.3a.659.659,0,1,0,0,1.318h11.3a1.2,1.2,0,0,1,1.2,1.2v.038a1.2,1.2,0,0,1-1.2,1.2h-11.3a.659.659,0,1,0,0,1.318Z" transform="translate(-201.373 -66.967)" fill="#fff"/></g><g transform="translate(0 3.749)"><path d="M214.94,70.422a.493.493,0,0,0,.473-.351l3.451-11.416H199.6l2.18,11.367a.494.494,0,0,0,.97-.186L200.8,59.644h16.736l-3.067,10.141a.5.5,0,0,0,.331.617A.5.5,0,0,0,214.94,70.422Z" transform="translate(-199.602 -58.655)" fill="#fff"/></g><g transform="translate(18.103 0.33)"><path d="M214.478,60.347a.493.493,0,0,0,.466-.329l1.1-3.092h2.493a.494.494,0,0,0,0-.988h-3.189l-1.337,3.748a.494.494,0,0,0,.3.632A.519.519,0,0,0,214.478,60.347Z" transform="translate(-213.985 -55.938)" fill="#fff"/></g><g transform="translate(21.838 0)"><path d="M217.776,57.324h2.675a.824.824,0,0,0,0-1.648h-2.675a.824.824,0,0,0,0,1.648Z" transform="translate(-216.953 -55.676)" fill="#fff"/></g><g transform="translate(12.226 19.707)"><circle cx="2.265" cy="2.265" r="2.265" fill="#fff"/></g><g transform="translate(1.575 19.707)"><circle cx="2.265" cy="2.265" r="2.265" fill="#fff"/></g><g transform="translate(13.435 20.915)"><path d="M210.276,73.349a1.057,1.057,0,1,0,1.056-1.056A1.057,1.057,0,0,0,210.276,73.349Z" transform="translate(-210.276 -72.293)" fill="#4396ca"/></g><g transform="translate(2.673 20.915)"><path d="M201.726,73.349a1.057,1.057,0,1,0,1.056-1.056A1.057,1.057,0,0,0,201.726,73.349Z" transform="translate(-201.726 -72.293)" fill="#4396ca"/></g><g transform="translate(12.569 4.155)"><path d="M210.084,70.068a.494.494,0,0,0,.486-.41l1.757-10.1a.494.494,0,0,0-.974-.17l-1.757,10.1a.5.5,0,0,0,.488.579Z" transform="translate(-209.588 -58.977)" fill="#fff"/></g><g transform="translate(10.099 4.045)"><path d="M208.121,69.87a.494.494,0,0,0,.492-.461l.658-9.994a.494.494,0,0,0-.986-.064l-.658,9.992a.492.492,0,0,0,.459.525Z" transform="translate(-207.626 -58.89)" fill="#fff"/></g><g transform="translate(3.346 4.155)"><path d="M204.346,70.068a.558.558,0,0,0,.078-.006.5.5,0,0,0,.412-.565l-1.592-10.1a.494.494,0,1,0-.977.154l1.592,10.1A.493.493,0,0,0,204.346,70.068Z" transform="translate(-202.26 -58.977)" fill="#fff"/></g><g transform="translate(7.079 4.044)"><path d="M206.214,69.87h.025a.5.5,0,0,0,.469-.519l-.495-9.992a.494.494,0,1,0-.987.049l.493,9.992A.5.5,0,0,0,206.214,69.87Z" transform="translate(-205.227 -58.889)" fill="#fff"/></g><g transform="translate(1.205 7.23)"><path d="M201.052,62.408h15.813a.494.494,0,0,0,0-.988H201.052a.494.494,0,0,0,0,.988Z" transform="translate(-200.559 -61.42)" fill="#fff"/></g><g transform="translate(1.753 10.744)"><path d="M201.49,65.2h13.946a.494.494,0,0,0,0-.988H201.49a.494.494,0,1,0,0,.988Z" transform="translate(-200.995 -64.212)" fill="#fff"/></g></g><g transform="translate(156.925 104.628)"><path d="M275.219,97.764h-111.9a6.389,6.389,0,0,1-6.389-6.389v-2.9H281.607v2.9A6.389,6.389,0,0,1,275.219,97.764Z" transform="translate(-156.925 -88.472)" fill="#47286d"/></g><g transform="translate(182.901 93.132)"><path d="M192.406,80.452a1.113,1.113,0,0,1-1.113,1.113H178.677a1.113,1.113,0,0,1-1.114-1.113h0a1.114,1.114,0,0,1,1.114-1.114h12.616a1.113,1.113,0,0,1,1.113,1.114Z" transform="translate(-177.563 -79.338)" fill="#03436b"/></g><g transform="translate(242.644 93.132)"><path d="M239.873,80.452a1.113,1.113,0,0,1-1.113,1.113H226.143a1.113,1.113,0,0,1-1.113-1.113h0a1.113,1.113,0,0,1,1.113-1.114H238.76a1.113,1.113,0,0,1,1.113,1.114Z" transform="translate(-225.03 -79.338)" fill="#03436b"/></g><g transform="translate(204.609 99.119)"><path d="M194.81,87.934l4.146-3.839h21.51l3.659,3.839Z" transform="translate(-194.81 -84.095)" fill="#4396ca"/></g><g transform="translate(216.023 96.76)"><rect width="6.954" height="0.371" fill="#fff"/></g><g transform="translate(165.275 96.76)"><g transform="translate(0 4.988)"><rect width="7.793" height="0.371" fill="#fff"/></g><g transform="translate(6.59)"><rect width="6.954" height="0.371" fill="#fff"/></g><g transform="translate(3.621 2.275)"><rect width="6.954" height="0.371" fill="#fff"/></g><g transform="translate(20.134)"><rect width="6.954" height="0.371" fill="#fff"/></g><g transform="translate(16.609 2.275)"><rect width="6.954" height="0.371" fill="#fff"/></g><g transform="translate(25.048 4.988)"><rect width="7.793" height="0.371" fill="#fff"/></g><g transform="translate(33.307)"><rect width="6.954" height="0.371" fill="#fff"/></g><g transform="translate(29.782 2.275)"><rect width="6.954" height="0.371" fill="#fff"/></g><g transform="translate(12.617 5.544)"><rect width="7.793" height="0.371" fill="#fff"/></g></g><g transform="translate(234.295 96.76)"><g transform="translate(32.469 4.988)"><rect width="7.793" height="0.371" fill="#fff"/></g><g transform="translate(26.718)"><rect width="6.954" height="0.371" fill="#fff"/></g><g transform="translate(29.686 2.275)"><rect width="6.954" height="0.371" fill="#fff"/></g><g transform="translate(13.173)"><rect width="6.954" height="0.371" fill="#fff"/></g><g transform="translate(16.698 2.275)"><rect width="6.954" height="0.371" fill="#fff"/></g><g transform="translate(7.422 4.988)"><rect width="7.793" height="0.371" fill="#fff"/></g><rect width="6.954" height="0.371" fill="#fff"/><g transform="translate(3.525 2.275)"><rect width="6.954" height="0.371" fill="#fff"/></g><g transform="translate(19.853 5.544)"><rect width="7.793" height="0.371" fill="#fff"/></g></g></g></g></svg>