<svg xmlns="http://www.w3.org/2000/svg" width="292" height="392.709" viewBox="0 0 292 392.709">
  <g id="Grupo_68154" data-name="Grupo 68154" transform="translate(-650 -5733.957)">
    <g id="Elipse_4679" data-name="Elipse 4679" transform="translate(697 5733.957)" fill="#fff" stroke="#8a8a8a" stroke-width="3" stroke-dasharray="3 4">
      <circle cx="98" cy="98" r="98" stroke="none"/>
      <circle cx="98" cy="98" r="96.5" fill="none"/>
    </g>
    <g id="Grupo_68153" data-name="Grupo 68153">
      <ellipse id="Elipse_4680" data-name="Elipse 4680" cx="87.5" cy="87" rx="87.5" ry="87" transform="translate(709 5744.957)" fill="#f17781" opacity="0.5"/>
      <g id="metodo-de-pago" transform="translate(745.333 5778.271)">
        <path id="Trazado_109099" data-name="Trazado 109099" d="M107.34,372.017v16.621c9.467.418,6.736,2.091,23.208,9.5a15.589,15.589,0,0,0,12.127-.206l.01,0,32.36-11.587c1.053-.484,6.365-3.371,4.27-8.745-2.449-5.732-8.752-3.341-9.281-3.169l-16.894,4.671" transform="translate(-84.838 -294.011)" fill="#eac092"/>
        <g id="Grupo_62180" data-name="Grupo 62180" transform="translate(22.503 67.085)">
          <path id="Trazado_109100" data-name="Trazado 109100" d="M126.455,337.8l18.815,5.962a6.181,6.181,0,0,0,7.636-4.255h0c.934-3.284-.971-6.7-4.734-8.1l-16.691-5.665s-3.564-5.819-12.048-5.819c-5.357,0-9.976,4.33-12.092,8.121v7.569" transform="translate(-107.341 -319.921)" fill="#fedbab"/>
        </g>
        <path id="Trazado_109101" data-name="Trazado 109101" d="M154.846,388.049a2.065,2.065,0,0,1-.409-.042,2.031,2.031,0,0,1-.394-.12,2.115,2.115,0,0,1-.361-.193,2.037,2.037,0,0,1-.579-.579,1.938,1.938,0,0,1-.193-.363,1.968,1.968,0,0,1-.12-.392,2.014,2.014,0,0,1,0-.818,2.031,2.031,0,0,1,.12-.394,2.126,2.126,0,0,1,.453-.679,2.009,2.009,0,0,1,.319-.26,2.127,2.127,0,0,1,.361-.193,2.031,2.031,0,0,1,.394-.119,2.063,2.063,0,0,1,.818,0,1.969,1.969,0,0,1,.392.119,2.068,2.068,0,0,1,.363.193,2.037,2.037,0,0,1,.579.579,2.128,2.128,0,0,1,.193.361,2.188,2.188,0,0,1,.119.394,2.014,2.014,0,0,1,0,.818,2.117,2.117,0,0,1-.119.392,2.069,2.069,0,0,1-.193.363,2.037,2.037,0,0,1-.579.579,2.069,2.069,0,0,1-.363.193,1.969,1.969,0,0,1-.392.12A2.065,2.065,0,0,1,154.846,388.049Z" transform="translate(-120.728 -303.368)"/>
        <rect id="Rectángulo_6314" data-name="Rectángulo 6314" width="7.942" height="22.523" transform="translate(14.561 74.938)" fill="#eaecf0"/>
        <rect id="Rectángulo_6315" data-name="Rectángulo 6315" width="12.465" height="26.431" transform="translate(2.096 74.938)" fill="#f17781"/>
        <path id="Trazado_109102" data-name="Trazado 109102" d="M96.431,327.754c-.008-.021-.017-.042-.025-.062-1.929-4.515-6.455-6.184-11.81-4.355l-14.6,4.039a9.574,9.574,0,0,0-5.929-5.838l-.056-.02-16.054-5.449a16.559,16.559,0,0,0-13.359-6.147c-5.477,0-10.322,3.757-13.093,7.852H2.1a2.1,2.1,0,0,0-2.1,2.1V346.3a2.1,2.1,0,0,0,2.1,2.1H14.561a2.1,2.1,0,0,0,2.1-2.1v-1.81H22.5a2.1,2.1,0,0,0,2.1-2.1v-.6c3.407.3,4.528.944,7.658,2.748a126.853,126.853,0,0,0,12.594,6.43l.092.039a18.816,18.816,0,0,0,6.745,1.271,16.71,16.71,0,0,0,6.945-1.487l32.282-11.558c.057-.021.114-.044.169-.069C94.169,337.746,98.767,333.745,96.431,327.754ZM12.464,344.2H4.193V321.967h8.272Zm7.942-3.906H16.657V321.967h3.749Zm69-4.978L57.141,346.873l-.095.036-.084.036a13.588,13.588,0,0,1-10.44.178,121.443,121.443,0,0,1-12.172-6.217c-3.43-1.978-5.083-2.932-9.752-3.317V320.705c1.987-3.257,5.841-6.591,10-6.591,7.125,0,10.144,4.634,10.262,4.821a2.1,2.1,0,0,0,1.112.887l16.661,5.655c2.661,1,4.067,3.277,3.421,5.55a4.085,4.085,0,0,1-5.019,2.819l-18.782-5.952a2.1,2.1,0,0,0-1.267,4L59.8,337.854l.06.018a8.228,8.228,0,0,0,6.293-.731,8.222,8.222,0,0,0,3.933-4.967q.072-.255.128-.509l15.74-4.36c2.273-.776,5.257-1.056,6.586,2C93.912,332.9,90.338,334.877,89.409,335.32Z" transform="translate(0 -244.933)" fill="#47286d"/>
        <path id="Trazado_109103" data-name="Trazado 109103" d="M81.693,28.642,63.073,10.023,39.729,33.367,79.62,73.258l22.029-22.029" transform="translate(-31.4 -7.903)" fill="#31d9e7"/>
        <path id="Trazado_109104" data-name="Trazado 109104" d="M152.721,113.965h0l0-.013a9.853,9.853,0,1,0,10.526,10.078" transform="translate(-113.454 -90.045)" fill="#ffd36c"/>
        <path id="Trazado_109105" data-name="Trazado 109105" d="M234.592,52.577V35.955c-9.467-.418-6.736-2.09-23.208-9.5a15.589,15.589,0,0,0-12.127.206l-.01,0-9.763,3.5,10.074,10.074" transform="translate(-149.761 -19.996)" fill="#eac092"/>
        <g id="Grupo_62181" data-name="Grupo 62181" transform="translate(8.329 2.12)">
          <path id="Trazado_109106" data-name="Trazado 109106" d="M39.729,91.542l7.914-7.914a11.2,11.2,0,0,1,0,15.828Z" transform="translate(-39.729 -68.198)" fill="#0aa1ae"/>
          <path id="Trazado_109107" data-name="Trazado 109107" d="M192.264,261.574a11.2,11.2,0,0,1,15.828,0l-7.914,7.914Z" transform="translate(-160.287 -206.253)" fill="#0aa1ae"/>
          <path id="Trazado_109108" data-name="Trazado 109108" d="M113.333,17.937l7.914-7.914,7.914,7.914A11.2,11.2,0,0,1,113.333,17.937Z" transform="translate(-97.903 -10.023)" fill="#0aa1ae"/>
          <path id="Trazado_109109" data-name="Trazado 109109" d="M288.678,182.048a11.207,11.207,0,0,0,2.6,11.743l6.6-6.6" transform="translate(-235.959 -145.985)" fill="#0aa1ae"/>
        </g>
        <g id="Grupo_62182" data-name="Grupo 62182" transform="translate(39.032 19.428)">
          <path id="Trazado_109110" data-name="Trazado 109110" d="M212.876,98.785l-18.815-5.962a6.181,6.181,0,0,0-7.636,4.255h0c-.934,3.284.971,6.7,4.734,8.1l16.7,5.667-.007,0s3.563,5.819,12.048,5.819c5.357,0,9.976-4.33,12.092-8.121V100.97" transform="translate(-186.19 -92.585)" fill="#fedbab"/>
        </g>
        <path id="Trazado_109111" data-name="Trazado 109111" d="M341.346,127.69a2.066,2.066,0,0,1-.409-.042,2.118,2.118,0,0,1-.392-.119,2.07,2.07,0,0,1-.363-.193,2.037,2.037,0,0,1-.579-.579,2.07,2.07,0,0,1-.193-.363,1.969,1.969,0,0,1-.119-.392,2.012,2.012,0,0,1,0-.818,2.032,2.032,0,0,1,.119-.394,2.126,2.126,0,0,1,.193-.361,2.037,2.037,0,0,1,.579-.579,2.068,2.068,0,0,1,.363-.193,1.967,1.967,0,0,1,.392-.119,2.075,2.075,0,0,1,.82,0,2.054,2.054,0,0,1,.392.119,2.125,2.125,0,0,1,.361.193,2.1,2.1,0,0,1,.771.939,2.038,2.038,0,0,1,.122.394,2.118,2.118,0,0,1,0,.818,1.975,1.975,0,0,1-.122.392,1.938,1.938,0,0,1-.193.363,2.036,2.036,0,0,1-.579.579,2.127,2.127,0,0,1-.361.193,2.22,2.22,0,0,1-.392.119A2.1,2.1,0,0,1,341.346,127.69Z" transform="translate(-268.131 -97.59)"/>
        <rect id="Rectángulo_6316" data-name="Rectángulo 6316" width="7.942" height="22.523" transform="translate(84.831 13.127)" fill="#eaecf0"/>
        <rect id="Rectángulo_6317" data-name="Rectángulo 6317" width="12.465" height="26.431" transform="translate(92.772 9.219)" fill="#bb83ff"/>
        <path id="Trazado_109112" data-name="Trazado 109112" d="M128.7,7.123H116.239a2.1,2.1,0,0,0-2.1,2.1v1.81H108.3a2.1,2.1,0,0,0-2.1,2.1v.6c-3.407-.3-4.528-.944-7.657-2.748a126.852,126.852,0,0,0-12.594-6.43c-.03-.014-.061-.027-.092-.039a17.835,17.835,0,0,0-13.689.215l-8.436,3.02L56.622.637a2.1,2.1,0,0,0-2.965,0L30.313,23.982a2.079,2.079,0,0,0,0,2.965L70.2,66.837a2.265,2.265,0,0,0,2.965,0L94.481,45.525c.554.048,1.129.074,1.725.074,5.477,0,10.322-3.757,13.093-7.852h19.4a2.1,2.1,0,0,0,2.1-2.1V9.219A2.1,2.1,0,0,0,128.7,7.123ZM60.457,26.565a9.281,9.281,0,0,0,6.282,7.418l.056.02,4.192,1.423a7.757,7.757,0,1,1-10.529-8.86ZM64.65,18.38a8.217,8.217,0,0,0-3.416,3.608A11.948,11.948,0,1,0,74.972,36.779l7.078,2.4a13.384,13.384,0,0,0,2.221,10.625l-4.787,4.787a13.322,13.322,0,0,0-15.595,0L42.558,33.262a13.322,13.322,0,0,0,0-15.6l4.783-4.783a13.322,13.322,0,0,0,15.6,0l4.534,4.534A8.273,8.273,0,0,0,64.65,18.38ZM87.292,46.785a9.169,9.169,0,0,1-1.339-4.36,16.3,16.3,0,0,0,3.7,2ZM55.139,5.084l4.778,4.778a9.14,9.14,0,0,1-9.556,0Zm-15.6,15.6a9.14,9.14,0,0,1,0,9.556L34.76,25.464Zm32.148,41.7-4.777-4.777a9.127,9.127,0,0,1,9.554,0Zm24.52-20.985a15.258,15.258,0,0,1-2.187-.154h-.008A12.007,12.007,0,0,1,86.246,37c-.043-.063-.225-.3-.252-.341a2.089,2.089,0,0,0-1.155-.961L68.171,30.042c-2.66-1-4.066-3.276-3.421-5.548v-.01a4.084,4.084,0,0,1,5.017-2.812L88.55,27.625a2.1,2.1,0,0,0,1.267-4L74.879,18.894l-.13-.13,0,0-7.733-7.733,6.647-2.38.072-.027.022-.009.084-.036A13.586,13.586,0,0,1,84.277,8.4a121.433,121.433,0,0,1,12.172,6.217c3.43,1.978,5.083,2.932,9.752,3.317V34.814C104.214,38.072,100.361,41.405,96.206,41.405Zm14.188-26.183h3.749V33.553h-3.749Zm16.213,18.331h-8.272V11.316h8.272Z" transform="translate(-23.466 0)" fill="#47286d"/>
      </g>
      <rect id="Rectángulo_6388" data-name="Rectángulo 6388" width="292" height="163.624" rx="5" transform="translate(650 5963.043)" fill="#fff"/>
      <text id="Venta_directa" data-name="Venta directa" transform="translate(713 5977.893)" fill="#12263f" font-size="18" font-family="Roboto-Black, Roboto" font-weight="800"><tspan x="28.583" y="19">Venta directa</tspan></text>
      <line id="Línea_261" data-name="Línea 261" y1="33" transform="translate(793.5 5929.957)" fill="none" stroke="#707070" stroke-width="3" stroke-dasharray="3 4" style="mix-blend-mode: multiply;isolation: isolate"/>
      <text id="Se_refiere_al_contacto_directo_que_se_desarrolla_entre_el_vendedor_y_su_cliente_sin_necesidad_de_un_establecimiento_físico._" data-name="Se refiere al contacto directo que se desarrolla entre el vendedor y su cliente, sin necesidad de un establecimiento físico.
" transform="translate(677 6013.893)" fill="#12263f" font-size="16" font-family="Roboto-Regular, Roboto"><tspan x="0" y="17">Se refiere al contacto directo que </tspan><tspan x="0" y="41">se desarrolla entre el vendedor y </tspan><tspan x="0" y="65">su cliente, sin necesidad de un </tspan><tspan x="0" y="89">establecimiento físico.</tspan></text>
    </g>
  </g>
</svg>
