<svg xmlns="http://www.w3.org/2000/svg" xmlns:xlink="http://www.w3.org/1999/xlink" width="396" height="193" viewBox="0 0 396 193"><defs><clipPath id="a"><rect width="112" height="193" transform="translate(0 0.455)" fill="none"/></clipPath></defs><g transform="translate(-596 -8531)"><g transform="translate(596 8531)" fill="#fff" stroke="#707070" stroke-width="1" opacity="0"><rect width="396" height="193" stroke="none"/><rect x="0.5" y="0.5" width="395" height="192" fill="none"/></g><g transform="translate(738 8468.545)"><g transform="translate(0 62)" clip-path="url(#a)"><g transform="translate(-46.8 46.754)"><path d="M964.433,183.69s-12.853,4.527-19.472,10.689c-2.723,2.535-4.01,5.659-5.7,8.826-2.169,4.066-5.947,7.139-8.3,11.177a43.7,43.7,0,0,0-5.173,13.739c-1.01,5.256-3.015,7.026-7.105,10.221l-12.394,9.679-17.672,13.8A30.954,30.954,0,0,0,906.17,287.18c6.5-3.9,33.894-28.086,33.894-28.086,24.624-1.434,30.731-24.773,34.443-27.283C977.422,208.094,964.433,183.69,964.433,183.69Z" transform="translate(-848.533 -163.745)" fill="#e8b585"/><path d="M921.685,336.9c7.894,2.276,15.7-3.927,18.344-6.82s3.444-10.8,3.444-10.8l20.8,6.876a32.7,32.7,0,0,1-22.062,9.872s-9.391,8.292-18.482,15.948a2.733,2.733,0,0,1-1.028-.518C921.712,350.3,913.791,334.624,921.685,336.9Z" transform="translate(-850.68 -240.677)" fill="#e8b585" opacity="0.5" style="mix-blend-mode:multiply;isolation:isolate"/><path d="M828.619,164.508s32.426-15.907,35.875-14.542c3.646,1.443-8.463,12.516-15.427,16.2s-23.335,13.686-23.335,13.686S821.489,167.479,828.619,164.508Z" transform="translate(-711.018 -144.563)" fill="#e8b585"/><g transform="translate(91.99 0)"><rect width="50.433" height="92.068" rx="9.587" fill="#5e2227"/><path d="M859.627,144.464h9.59a2.889,2.889,0,0,1,2.716,1.9h0a2.89,2.89,0,0,0,2.717,1.9h12.092a2.89,2.89,0,0,0,2.717-1.9h0a2.889,2.889,0,0,1,2.716-1.9h9.59a1.172,1.172,0,0,1,1.172,1.172v76.037a1.172,1.172,0,0,1-1.172,1.172H859.627a1.171,1.171,0,0,1-1.172-1.172V145.636A1.172,1.172,0,0,1,859.627,144.464Z" transform="translate(-855.481 -141.489)" fill="#fff"/><g transform="translate(19.64 2.152)"><path d="M906.693,143.933a1.373,1.373,0,1,0,1.373-1.373A1.373,1.373,0,0,0,906.693,143.933Z" transform="translate(-902.489 -142.56)" fill="#fff"/><circle cx="0.818" cy="0.818" r="0.818" transform="translate(0 0.555)" fill="#fff"/><circle cx="0.818" cy="0.818" r="0.818" transform="translate(9.517 0.555)" fill="#fff"/></g><rect width="44.482" height="40.343" transform="translate(2.975 17.6)" fill="#e7edf3"/><rect width="44.482" height="14.412" transform="translate(2.975 61.687)" fill="#e7edf3"/><rect width="15.173" height="5.265" rx="2.633" transform="translate(17.63 84.138)" fill="#1b75ba"/><rect width="37.341" height="25.874" rx="6.661" transform="translate(6.546 23.061)" fill="#f9e478"/><path d="M868.425,256.7h17.458a1.716,1.716,0,1,1,0,3.433H868.425a1.716,1.716,0,0,1,0-3.433Z" transform="translate(-843.713 -205.172)" fill="#ced2d6"/><path d="M885.66,288.205h17.458a1.716,1.716,0,1,1,0,3.433H885.66a1.716,1.716,0,0,1,0-3.433Z" transform="translate(-868.404 -223.047)" fill="#ced2d6"/><path d="M868.425,165.245h17.458a1.716,1.716,0,1,1,0,3.433H868.425a1.716,1.716,0,0,1,0-3.433Z" transform="translate(-843.713 -153.28)" fill="#e7edf3"/><path d="M932.634,165.245h6.131a1.716,1.716,0,1,1,0,3.433h-6.131a1.716,1.716,0,1,1,0-3.433Z" transform="translate(-924.371 -153.28)" fill="#e7edf3"/><g transform="translate(14.983 29.221)"><rect width="20.466" height="13.553" transform="translate(0)" fill="#27a8df"/><path d="M896.446,215.018l-10.233-6.777v-3.108h20.466v3.108Z" transform="translate(-886.213 -205.133)" fill="#64caed"/></g><path d="M927.378,201.647a2.658,2.658,0,1,0,2.658-2.657A2.658,2.658,0,0,0,927.378,201.647Z" transform="translate(-915.053 -172.427)" fill="#ef5a29"/><g transform="translate(13.922 27.757)"><path d="M932.036,201.75a1.517,1.517,0,0,1,.475.068,1.1,1.1,0,0,1,.352.186.776.776,0,0,1,.221.277.792.792,0,0,1,.075.343,1.233,1.233,0,0,1-.559.94l-.616.494h1.128a.75.75,0,0,1,.054.132.557.557,0,0,1,.026.174.326.326,0,0,1-.075.242.272.272,0,0,1-.2.073h-1.63a.491.491,0,0,1-.162-.181.544.544,0,0,1-.059-.26.517.517,0,0,1,.066-.27.662.662,0,0,1,.146-.176l.648-.555a2.733,2.733,0,0,0,.2-.186,1.5,1.5,0,0,0,.129-.148.476.476,0,0,0,.07-.122.3.3,0,0,0,.022-.108.236.236,0,0,0-.115-.207.514.514,0,0,0-.285-.075.907.907,0,0,0-.336.059,1.353,1.353,0,0,0-.247.125.473.473,0,0,1-.132-.141.373.373,0,0,1-.051-.2.388.388,0,0,1,.23-.364A1.351,1.351,0,0,1,932.036,201.75Z" transform="translate(-931.068 -201.75)" fill="#fff"/></g><g transform="translate(6.546 65.158)"><rect width="7.841" height="7.841" fill="#f9ae40"/><g transform="translate(1.35 1.717)"><path d="M942.194,294.869a1.348,1.348,0,1,1,1.348-1.348A1.348,1.348,0,0,1,942.194,294.869Z" transform="translate(-939.623 -292.173)" fill="#fff"/><path d="M940.59,298.822a2.571,2.571,0,0,1,2.571,2.571v.677h-5.142v-.677A2.571,2.571,0,0,1,940.59,298.822Z" transform="translate(-938.019 -295.946)" fill="#fff"/></g></g></g><path d="M824.684,273.819s12.3.331,13.8,5.419-16.262,10.238-18.276,10.084.289-6.564,4.474-8.579Z" transform="translate(-682.264 -214.884)" fill="#e8b585"/><path d="M904.808,260.365c.176-.871.347-1.656.491-2.317a4.706,4.706,0,0,1,4.364-4.077,15.914,15.914,0,0,1,9.47,3.026c8.168,5.472,24.109,10.325,24.109,10.325s-1.991,5.988-12.874,4.674a48.254,48.254,0,0,0-13.029-2.812s-1.006,12.2-8.191,10.53C901.909,278.029,903.5,266.811,904.808,260.365Z" transform="translate(-823.362 -203.614)" fill="#e8b585"/><path d="M911.241,284.429a63.115,63.115,0,0,1-6.591-1.916c-1.51-.661-1.457-3.89,1.674-3.987,4.343,1.681,7.668,2.736,7.668,2.736A6.654,6.654,0,0,1,911.241,284.429Z" transform="translate(-794.112 -217.554)" fill="#ef5a29"/><path d="M847.474,297.321c.7-.286,5.638-2.212,6.2.21.4,1.712-1.112,2.94-2.2,3.585a19.975,19.975,0,0,1-4.539.975C845.723,302,846.081,299.628,847.474,297.321Z" transform="translate(-708.992 -227.654)" fill="#ef5a29"/><path d="M1070.525,341.555s-11.03-2.507-18.168.627-10.008,12.664-14.882,15.8-15.779,8.964-15.779,8.964,2.611,32.2,25.241,38.645c0,0,14.055-10.1,16.863-10.619s10.055-2.29,20.473-7.333c7.361-3.563,6.183-17.735,6.183-17.735S1076.879,345.76,1070.525,341.555Z" transform="translate(-1021.696 -252.779)" fill="#f17781"/><path d="M833.876,278.75c-2.014.061-4.783,1.993-4.783,1.993v-6.924a33.091,33.091,0,0,1,9.73,1.825C836.54,276.332,833.064,278.058,833.876,278.75Z" transform="translate(-686.673 -214.884)" fill="#e8b585" opacity="0.5" style="mix-blend-mode:multiply;isolation:isolate"/><path d="M826.3,247.187s13.04.351,14.631,5.745S820.051,266.3,818.3,265.069c-2.911-2.05,3.568-8.406,8-10.542Z" transform="translate(-683.882 -199.773)" fill="#e8b585"/><path d="M854.414,274.463c1.31-.708,5.378-2.686,6.217-.465,1,2.655-2.811,4.763-2.811,4.763s-.525.272-1.2.6c-1.787.446-3.08.6-3.448.339C851.714,278.676,852.6,276.575,854.414,274.463Z" transform="translate(-718.751 -214.404)" fill="#ef5a29"/><path d="M831.837,254.527v-7.34a38.405,38.405,0,0,1,8.541,1.318c-1.108.408-2.777,1.184-4.049,1.8a1.156,1.156,0,0,0-.186,1.97l.032.024A11.715,11.715,0,0,0,831.837,254.527Z" transform="translate(-689.415 -199.773)" fill="#e8b585" opacity="0.5" style="mix-blend-mode:multiply;isolation:isolate"/><path d="M826.3,217.359s13.04.351,14.631,5.745-20.883,13.371-22.635,12.138c-2.911-2.05,3.568-8.407,8-10.543Z" transform="translate(-683.882 -182.849)" fill="#e8b585"/><path d="M853.168,250.239c-1.338-.942-.69-2.793.828-4.727h0s5.631-3.354,6.635-.7-2.78,4.745-2.809,4.761C855.417,250.266,853.615,250.554,853.168,250.239Z" transform="translate(-718.75 -197.847)" fill="#ef5a29"/><path d="M935.919,283.917c1.551,2.04,5.251,2.774,7.377,3.033a21.863,21.863,0,0,1-5.054-.074,48.257,48.257,0,0,0-13.029-2.812s-.517,6.262-3.451,9.2c2.42-3.26,1.88-10.509,1.65-13.08C926.051,283.691,934.2,284.072,935.919,283.917Z" transform="translate(-831.235 -218.494)" fill="#e8b585" opacity="0.5" style="mix-blend-mode:multiply;isolation:isolate"/><path d="M1034.3,380.546c3.889,4.376,11.669,5.024,16.531,3.566s13.289-11.669,7.762-19.934c-4.453-6.659-5.927-17.774-6.332-21.846.648.118,1.021.2,1.021.2,6.354,4.205,19.931,28.347,19.931,28.347s1.178,14.171-6.183,17.734c-10.419,5.043-17.665,6.81-20.473,7.333s-16.863,10.619-16.863,10.619a26.714,26.714,0,0,1-8-3.8C1031.683,398.08,1034.895,386.33,1034.3,380.546Z" transform="translate(-1004.454 -253.758)" fill="#f9ae40" opacity="0.5" style="mix-blend-mode:multiply;isolation:isolate"/><g transform="translate(48.829 79.766)"><path d="M1007.57,321.973s12.768,23.188,19.259,26.947l-11.4,10.409s-15.7-7.449-19.931-28.346C999.727,328.331,1007.57,321.973,1007.57,321.973Z" transform="translate(-995.493 -321.973)" fill="#db6f78"/><g transform="translate(3.236 3.699)"><g transform="translate(14.01 22.319)"><path d="M1008.6,389.213a.846.846,0,0,0,.514-.174l7.088-5.4a.85.85,0,0,0-1.03-1.353l-7.088,5.4a.85.85,0,0,0,.516,1.526Z" transform="translate(-1007.748 -382.115)" fill="#d6441d"/></g><g transform="translate(9.77 17.81)"><path d="M1018.4,378.791a.848.848,0,0,0,.515-.173l7.088-5.4a.85.85,0,0,0-1.03-1.353l-7.088,5.4a.85.85,0,0,0,.516,1.526Z" transform="translate(-1017.548 -371.693)" fill="#d6441d"/></g><g transform="translate(5.224 11.572)"><path d="M1028.909,364.37a.849.849,0,0,0,.515-.173l7.088-5.4a.85.85,0,1,0-1.031-1.352l-7.088,5.4a.85.85,0,0,0,.516,1.526Z" transform="translate(-1028.058 -357.272)" fill="#d6441d"/></g><g transform="translate(2.075 5.396)"><path d="M1036.187,350.094a.847.847,0,0,0,.514-.173l7.088-5.4a.85.85,0,0,0-1.031-1.353l-7.088,5.4a.85.85,0,0,0,.516,1.526Z" transform="translate(-1035.336 -342.996)" fill="#d6441d"/></g><path d="M1040.985,337.62a.846.846,0,0,0,.514-.174l7.087-5.4a.85.85,0,1,0-1.03-1.353l-7.087,5.4a.85.85,0,0,0,.516,1.526Z" transform="translate(-1040.134 -330.522)" fill="#d6441d"/></g><path d="M1004.445,370.668c5.369,1.749,10.928-1.348,13.534-3.144,2.121,2.721,4.148,4.891,5.778,5.836l-11.405,10.41s-10.755-5.113-16.859-18.723A27.536,27.536,0,0,0,1004.445,370.668Z" transform="translate(-992.421 -346.413)" fill="#ef5a29" opacity="0.5" style="mix-blend-mode:multiply;isolation:isolate"/></g></g><g transform="translate(80.799 15.023)"><path d="M857.087,64.237H840.17a1.813,1.813,0,0,0-1.813,1.813V87.837l5.358-6.332h13.373a1.813,1.813,0,0,0,1.813-1.813V66.05A1.813,1.813,0,0,0,857.087,64.237Z" transform="translate(-838.356 -64.237)" fill="#8ed7ff"/><path d="M859.413,75.976a.81.81,0,0,0-.449-1.381l-2.432-.353a.811.811,0,0,1-.61-.443l-1.088-2.2a.81.81,0,0,0-1.452,0l-1.088,2.2a.811.811,0,0,1-.61.443l-2.433.353a.81.81,0,0,0-.448,1.381l1.76,1.716a.809.809,0,0,1,.233.716l-.415,2.423a.81.81,0,0,0,1.175.854l2.176-1.144a.811.811,0,0,1,.754,0l2.176,1.144a.81.81,0,0,0,1.175-.854l-.416-2.423a.809.809,0,0,1,.233-.716Z" transform="translate(-843.527 -68.155)" fill="#fff"/></g><g transform="translate(32.548 46.116)"><circle cx="9.432" cy="9.432" r="9.432" transform="translate(13.339 26.679) rotate(-135)" fill="#f17781"/><path d="M954.505,158.248c3.056-1.411,4.584,2.116,4.584,2.116s1.528-3.527,4.584-2.116-.822,7.523-4.584,8.58C955.328,165.771,951.449,159.658,954.505,158.248Z" transform="translate(-945.75 -148.483)" fill="#fff"/></g><g transform="translate(20.081 14.726)"><path d="M912.534,63.551h45.894a2.092,2.092,0,0,1,2.092,2.092V92.488l-11.994-8.1H912.534a2.092,2.092,0,0,1-2.092-2.092V65.643A2.092,2.092,0,0,1,912.534,63.551Z" transform="translate(-910.442 -63.551)" fill="#f17781"/><g transform="translate(32.534 2.736)"><rect width="15.086" height="15.086" fill="#31d9e7"/><g transform="translate(2.597 3.302)"><path d="M930.158,82.7a2.594,2.594,0,1,1,2.594-2.594A2.594,2.594,0,0,1,930.158,82.7Z" transform="translate(-925.211 -77.508)" fill="#fff"/><path d="M927.072,90.3a4.947,4.947,0,0,1,4.946,4.947v1.3h-9.893v-1.3A4.947,4.947,0,0,1,927.072,90.3Z" transform="translate(-922.126 -84.767)" fill="#fff"/></g></g><path d="M957.95,71.708h9.232a1.886,1.886,0,1,1,0,3.771H957.95a1.886,1.886,0,1,1,0-3.771Z" transform="translate(-938.726 -68.179)" fill="#fff"/><path d="M957.95,90.94h23.339a1.886,1.886,0,1,1,0,3.771H957.95a1.886,1.886,0,1,1,0-3.771Z" transform="translate(-952.833 -79.091)" fill="#fff"/></g><g transform="translate(58.095 139.966)"><rect width="40.518" height="21.005" rx="6.403" transform="translate(0 8.095)" fill="#4c2a4b"/><path d="M861.8,378.266a7.827,7.827,0,1,1-7.827,7.827H861.8Z" transform="translate(-833.129 -367.359)" fill="#64caed"/><path d="M882.033,378.266v6.192h-6.192A6.192,6.192,0,0,1,882.033,378.266Z" transform="translate(-855.001 -367.359)" fill="#fff"/><path d="M896.67,379.728h6.257a1.4,1.4,0,0,1,1.4,1.4h0a1.4,1.4,0,0,1-1.4,1.4H896.67a1.4,1.4,0,0,1-1.4-1.4h0A1.4,1.4,0,0,1,896.67,379.728Z" transform="translate(-885.703 -368.188)" fill="#8c528e"/><path d="M896.67,392.009h11.807a1.4,1.4,0,0,1,1.4,1.4h0a1.4,1.4,0,0,1-1.4,1.4H896.67a1.4,1.4,0,0,1-1.4-1.4h0A1.4,1.4,0,0,1,896.67,392.009Z" transform="translate(-891.252 -375.156)" fill="#8c528e"/><rect width="14.614" height="2.807" rx="1.403" transform="translate(4.015 22.165)" fill="#8c528e"/><path d="M912.315,363.918V353.053s11.629,8.63,11.243,8.868S912.315,363.918,912.315,363.918Z" transform="translate(-912.315 -353.053)" fill="#4c2a4b"/></g><path d="M1006.627,155.162h2.061V153.1a1.06,1.06,0,1,1,2.12,0v2.061h2.06a1.06,1.06,0,1,1,0,2.12h-2.06v2.06a1.06,1.06,0,1,1-2.12,0v-2.06h-2.061a1.06,1.06,0,1,1,0-2.12Z" transform="translate(-984.921 -99.034)" fill="#64caed"/><path d="M823.311,39.791h2.061v-2.06a1.06,1.06,0,1,1,2.12,0v2.06h2.061a1.06,1.06,0,0,1,0,2.12h-2.061v2.061a1.06,1.06,0,1,1-2.12,0V41.911h-2.061a1.06,1.06,0,0,1,0-2.12Z" transform="translate(-722.302 -33.573)" fill="#ef5a29"/><path d="M953.816,378.879h2.06v-2.06a1.06,1.06,0,1,1,2.12,0v2.06h2.061a1.06,1.06,0,0,1,0,2.12H958v2.061a1.06,1.06,0,1,1-2.12,0V381h-2.06a1.06,1.06,0,1,1,0-2.12Z" transform="translate(-909.264 -225.971)" fill="#ef5a29"/><path d="M804.65,303.873h2.061v-2.061a1.06,1.06,0,1,1,2.12,0v2.061h2.061a1.06,1.06,0,0,1,0,2.12h-2.061v2.061a1.06,1.06,0,1,1-2.12,0v-2.061H804.65a1.06,1.06,0,1,1,0-2.12Z" transform="translate(-695.568 -183.412)" fill="#fff"/><g transform="translate(21.114 88.467)"><path d="M1009.514,241.9a3.947,3.947,0,1,0-3.947-3.947A3.951,3.951,0,0,0,1009.514,241.9Zm0-6.163a2.216,2.216,0,1,1-2.217,2.216A2.219,2.219,0,0,1,1009.514,235.74Z" transform="translate(-1005.567 -234.01)" fill="#4c2a4b"/></g><g transform="translate(98.988 136.191)"><path d="M829.5,352.221a3.947,3.947,0,1,0-3.947-3.947A3.951,3.951,0,0,0,829.5,352.221Zm0-6.163a2.216,2.216,0,1,1-2.216,2.216A2.219,2.219,0,0,1,829.5,346.058Z" transform="translate(-825.555 -344.328)" fill="#64caed"/></g></g></g></g></svg>