<svg xmlns="http://www.w3.org/2000/svg" width="396" height="193" viewBox="0 0 396 193"><g transform="translate(-1012 -8531)"><g transform="translate(1012 8531)" fill="#fff" stroke="#707070" stroke-width="1" opacity="0"><rect width="396" height="193" stroke="none"/><rect x="0.5" y="0.5" width="395" height="192" fill="none"/></g><g transform="translate(1003.096 8489.395)"><g transform="translate(94.314 83.802)"><g transform="translate(155.997 17.33)"><path d="M474.951,192.16v18.169a5.926,5.926,0,0,0,5.952,5.825h65.148A5.952,5.952,0,0,0,552,210.2V194.85l8.11-8.522-79.192-.247A5.98,5.98,0,0,0,474.951,192.16Z" transform="translate(-474.951 -186.081)" fill="#f5f5f5"/><g transform="translate(8.331 8.917)"><path d="M554.29,209.814l-59.117-.273.006-1.817L554.3,208Z" transform="translate(-495.172 -207.724)" fill="#e0e0e0"/></g><g transform="translate(8.331 14.895)"><path d="M554.29,224.323l-59.117-.273.006-1.817,59.117.273Z" transform="translate(-495.172 -222.233)" fill="#e0e0e0"/></g><g transform="translate(44.057 20.88)"><rect width="1.817" height="23.391" transform="matrix(0.005, -1, 1, 0.005, 0, 1.817)" fill="#e0e0e0"/></g></g><g transform="translate(6.87 53.171)"><path d="M151.1,335.918c9.11-6.364,11.177-18.178,10.816-28.8-.06-1.772.135-3.641-.708-5.2s-2.811-2.618-4.4-1.871c-1.316.62-1.89,2.151-2.627,3.417a10.37,10.37,0,0,1-4.157,3.971,3.95,3.95,0,0,1-3.64.33c-1.529-.844-1.709-2.956-1.7-4.72q.031-4.929.061-9.857a16.439,16.439,0,0,0-.532-5.236,5.468,5.468,0,0,0-3.437-3.7,3.317,3.317,0,0,0-4.105,2.223,16.292,16.292,0,0,0-.05,2.2,1.854,1.854,0,0,1-1.085,1.745,2.132,2.132,0,0,1-1.936-.809,23.446,23.446,0,0,1-4.209-6.354,32.51,32.51,0,0,0-3.925-6.557,9.533,9.533,0,0,0-6.459-3.623,5.708,5.708,0,0,0-5.853,3.894c-.64,2.485.81,5.007,2.388,7.019a39.349,39.349,0,0,0,8.194,7.81,3.237,3.237,0,0,1,1.37,1.474c.383,1.175-.73,2.343-1.891,2.729a20.412,20.412,0,0,1-4.114.463,3.965,3.965,0,0,0-3.384,2.067c-.722,1.8.785,3.691,2.268,4.928a33.707,33.707,0,0,0,9.977,5.759,11.368,11.368,0,0,1,3.708,1.8,3.264,3.264,0,0,1,1.045,3.737,3.323,3.323,0,0,1-3.613,1.388,23.481,23.481,0,0,1-3.869-1.478c-2.423-.914-5.551-.747-7.1,1.346a5.58,5.58,0,0,0-.594,4.933,12.861,12.861,0,0,0,2.673,4.357,33.9,33.9,0,0,0,14.475,10.172c5.62,1.949,10.827,2.476,16.413.433" transform="translate(-113 -273.072)" fill="#f5f5f5"/><g transform="translate(2.702 1.485)"><path d="M155.092,345.91a77.427,77.427,0,0,0-2.88-14.53,157.984,157.984,0,0,0-6.271-17.008L144.068,310c-.618-1.434-1.231-2.857-1.916-4.21a78.86,78.86,0,0,0-4.383-7.555c-1.51-2.336-3.029-4.5-4.464-6.507s-2.816-3.855-4.143-5.484a62.633,62.633,0,0,0-6.827-7.216c-.87-.786-1.564-1.373-2.041-1.765l-.544-.443a1.4,1.4,0,0,0-.192-.142,1.192,1.192,0,0,0,.171.168l.523.467c.462.408,1.143,1.01,2,1.81a66.137,66.137,0,0,1,6.734,7.268c1.312,1.634,2.675,3.484,4.1,5.5s2.933,4.18,4.433,6.514a79.818,79.818,0,0,1,4.35,7.534c.679,1.348,1.285,2.758,1.9,4.2l1.871,4.372a161.872,161.872,0,0,1,6.283,16.965,78.751,78.751,0,0,1,2.938,14.466" transform="translate(-119.558 -276.675)" fill="#e0e0e0"/></g><g transform="translate(25.194 11.188)"><path d="M174.159,319.623a3.555,3.555,0,0,0,.172-.752c.093-.487.2-1.2.327-2.074.249-1.755.511-4.191.789-6.878s.574-5.113.849-6.86c.136-.874.252-1.58.339-2.067a3.536,3.536,0,0,0,.1-.765,3.5,3.5,0,0,0-.222.739c-.125.48-.276,1.182-.44,2.053-.335,1.743-.667,4.174-.946,6.865-.268,2.652-.51,5.051-.695,6.884-.089.828-.164,1.525-.225,2.085A3.557,3.557,0,0,0,174.159,319.623Z" transform="translate(-174.149 -300.227)" fill="#e0e0e0"/></g><g transform="translate(2.537 26.325)"><path d="M119.158,336.989a4.93,4.93,0,0,0,.9.108c.582.052,1.424.122,2.461.243,2.076.224,4.933.634,8.065,1.224s5.944,1.256,7.963,1.792c1.012.261,1.825.494,2.388.652a4.845,4.845,0,0,0,.885.217,4.839,4.839,0,0,0-.847-.339c-.553-.2-1.358-.463-2.366-.754-2.01-.595-4.823-1.293-7.964-1.891a80.027,80.027,0,0,0-8.1-1.132c-1.044-.091-1.891-.126-2.476-.138A4.771,4.771,0,0,0,119.158,336.989Z" transform="translate(-119.158 -336.965)" fill="#e0e0e0"/></g><g transform="translate(35.075 26.822)"><path d="M198.133,367.122a1.169,1.169,0,0,0,.156-.276l.387-.82c.334-.713.789-1.758,1.335-3.057,1.093-2.6,2.491-6.231,3.979-10.262s2.851-7.675,3.889-10.291l1.238-3.095.332-.844a1.168,1.168,0,0,0,.1-.3,1.2,1.2,0,0,0-.156.277l-.387.819c-.334.713-.789,1.758-1.335,3.057-1.094,2.6-2.491,6.231-3.98,10.264s-2.851,7.673-3.888,10.29c-.509,1.271-.927,2.318-1.238,3.094l-.333.844A1.189,1.189,0,0,0,198.133,367.122Z" transform="translate(-198.132 -338.173)" fill="#e0e0e0"/></g><g transform="translate(4.957 46.061)"><path d="M125.031,384.871a1.2,1.2,0,0,0,.3.123l.875.293,3.225,1.045c2.723.883,6.471,2.146,10.61,3.547s7.9,2.631,10.645,3.458c1.371.414,2.484.738,3.257.946l.892.234a1.2,1.2,0,0,0,.317.06,1.216,1.216,0,0,0-.3-.124l-.875-.293-3.225-1.045c-2.723-.883-6.471-2.146-10.611-3.548s-7.9-2.631-10.643-3.458c-1.371-.414-2.484-.738-3.258-.946l-.892-.234A1.186,1.186,0,0,0,125.031,384.871Z" transform="translate(-125.031 -384.868)" fill="#e0e0e0"/></g></g><g transform="translate(0)"><path d="M162.314,148.632V162.71a4.612,4.612,0,0,1-4.612,4.612H107.223a4.612,4.612,0,0,1-4.612-4.612V150.815l-6.284-6.6,61.36-.192A4.612,4.612,0,0,1,162.314,148.632Z" transform="translate(-96.327 -144.02)" fill="#e0e0e0"/><g transform="translate(13.721 6.91)"><path d="M129.634,162.41l45.806-.212,0-1.408L129.629,161Z" transform="translate(-129.629 -160.791)" fill="#fafafa"/></g><g transform="translate(13.721 11.541)"><path d="M129.634,173.652l45.806-.212,0-1.408-45.806.212Z" transform="translate(-129.629 -172.032)" fill="#fafafa"/></g><g transform="translate(13.719 16.179)"><rect width="18.124" height="1.408" transform="translate(0 0.089) rotate(-0.282)" fill="#fafafa"/></g></g></g><g transform="translate(92.904 215.868)"><path d="M330.337,464.669c0,.059-53.156.108-118.711.108-65.578,0-118.722-.048-118.722-.108s53.144-.107,118.722-.107C277.181,464.562,330.337,464.61,330.337,464.669Z" transform="translate(-92.904 -464.562)" fill="#263238"/></g><g transform="translate(135.565 109.634)"><g transform="translate(0)"><path d="M11.55,0H94.793a11.549,11.549,0,0,1,11.549,11.549V141.061a11.549,11.549,0,0,1-11.549,11.549H11.549A11.549,11.549,0,0,1,0,141.06V11.55A11.55,11.55,0,0,1,11.55,0Z" transform="translate(0 106.342) rotate(-90)" fill="#263238"/><g transform="translate(10.441 3.354)"><rect width="99.635" height="127.447" transform="translate(0 99.635) rotate(-90)" fill="#fff"/></g><g transform="translate(140.035 48.265)"><circle cx="4.08" cy="4.08" r="4.08" transform="matrix(0.229, -0.973, 0.973, 0.229, 0, 7.944)" fill="#455a64"/></g><g transform="translate(4.395 37.157)"><rect width="32.029" height="1.686" rx="0.843" transform="translate(0 32.029) rotate(-90)" fill="#455a64"/></g><g transform="translate(23.73 41.904)"><circle cx="10.296" cy="10.296" r="10.296" transform="translate(0 17.201) rotate(-56.646)" fill="#e8505b"/><circle cx="10.296" cy="10.296" r="10.296" transform="translate(0 17.201) rotate(-56.646)" fill="#fff" opacity="0.3"/><g transform="translate(10.082 11.666)"><path d="M279.141,336.74c.39-.032.744.4.791.962s-.232,1.046-.623,1.078-.745-.4-.791-.962S278.751,336.772,279.141,336.74Z" transform="translate(-278.514 -336.738)" fill="#263238"/></g><g transform="translate(16.504 11.532)"><path d="M294.852,336.414c-.391-.016-.727.428-.75.993s.275,1.035.666,1.051.727-.429.751-.993S295.243,336.43,294.852,336.414Z" transform="translate(-294.101 -336.414)" fill="#263238"/></g><g transform="translate(9.805 16.081)"><path d="M286.415,347.674a41.859,41.859,0,0,1-8.573,0,41.951,41.951,0,0,1,8.573,0Z" transform="translate(-277.842 -347.454)" fill="#263238"/></g><g transform="translate(9.305 10.234)"><path d="M278.82,333.513c-.025.122-.513.118-1.086.211s-1.038.239-1.1.13.368-.462,1.031-.564S278.849,333.4,278.82,333.513Z" transform="translate(-276.628 -333.262)" fill="#263238"/></g><g transform="translate(16.942 10.156)"><path d="M297.336,333.9c-.078.1-.522-.135-1.094-.306s-1.068-.236-1.077-.361.546-.264,1.206-.059S297.414,333.814,297.336,333.9Z" transform="translate(-295.164 -333.073)" fill="#263238"/></g></g><g transform="translate(100.311 43.093)"><circle cx="10.672" cy="10.672" r="10.672" transform="translate(0 21.079) rotate(-80.951)" fill="#e8505b"/><circle cx="10.672" cy="10.672" r="10.672" transform="translate(0 21.079) rotate(-80.951)" opacity="0.3"/><g transform="translate(7.886 9.527)"><path d="M459.706,334.437c.4-.033.771.413.819,1s-.241,1.084-.645,1.117-.772-.413-.819-1S459.3,334.47,459.706,334.437Z" transform="translate(-459.055 -334.435)" fill="#263238"/></g><g transform="translate(14.542 9.389)"><path d="M475.99,334.1c-.405-.017-.754.444-.778,1.029s.286,1.073.691,1.09.754-.445.778-1.03S476.4,334.115,475.99,334.1Z" transform="translate(-475.211 -334.099)" fill="#263238"/></g><g transform="translate(7.597 12.459)"><path d="M467.243,343.422a7.694,7.694,0,0,1-1.25-.648,6.918,6.918,0,0,0-3.177-.785,7.909,7.909,0,0,0-3.186.827,6.869,6.869,0,0,1-1.274.606,3.5,3.5,0,0,1,1.128-.88,6.932,6.932,0,0,1,3.324-.992,6.241,6.241,0,0,1,3.336.953A3.318,3.318,0,0,1,467.243,343.422Z" transform="translate(-458.355 -341.549)" fill="#263238"/></g><g transform="translate(7.083 8.282)"><path d="M459.376,331.432c.036.045-.034.179-.211.334a1.774,1.774,0,0,1-.835.391,1.6,1.6,0,0,1-.926-.1c-.218-.1-.318-.217-.294-.269.056-.116.558.051,1.143-.061S459.295,331.33,459.376,331.432Z" transform="translate(-457.107 -331.411)" fill="#263238"/></g><g transform="translate(14.983 8.114)"><path d="M478.546,331.711c.018.054-.1.158-.335.233a1.584,1.584,0,0,1-.959-.035,1.866,1.866,0,0,1-.785-.524c-.157-.181-.213-.323-.172-.364.093-.1.522.272,1.1.474S478.5,331.587,478.546,331.711Z" transform="translate(-476.282 -331.004)" fill="#263238"/></g></g><g transform="translate(23.73 78.963)"><g transform="translate(84.839)"><path d="M419.478,410.446l5.2-2.577,5.071,2.822-.844-5.741,4.251-3.95-5.721-.971-2.443-5.263-2.691,5.141-5.761.7,4.058,4.148Z" transform="translate(-416.538 -394.765)" fill="#e0e0e0"/></g><g transform="translate(63.629)"><path d="M395,410.446l5.2-2.577,5.07,2.822-.844-5.741,4.251-3.95-5.721-.971-2.443-5.263-2.691,5.141-5.761.7,4.058,4.148Z" transform="translate(-392.057 -394.765)" fill="#f9e478"/></g><g transform="translate(42.419)"><path d="M370.518,410.446l5.2-2.577,5.07,2.822-.844-5.741,4.251-3.95-5.721-.971-2.444-5.263-2.691,5.141-5.761.7,4.058,4.148Z" transform="translate(-367.577 -394.765)" fill="#f9e478"/></g><g transform="translate(21.21)"><path d="M346.038,410.446l5.2-2.577,5.071,2.822-.844-5.741,4.251-3.95-5.721-.971-2.444-5.263-2.691,5.141-5.761.7,4.058,4.148Z" transform="translate(-343.097 -394.765)" fill="#f9e478"/></g><path d="M321.557,410.446l5.2-2.577,5.071,2.822-.844-5.741,4.251-3.95-5.721-.971-2.444-5.263-2.691,5.141-5.761.7,4.058,4.148Z" transform="translate(-318.617 -394.765)" fill="#f9e478"/></g><g transform="translate(49.269 24.115)"><path d="M365.455,265.357c0,.061-11.065.11-24.712.11s-24.714-.049-24.714-.11,11.062-.11,24.714-.11S365.455,265.3,365.455,265.357Z" transform="translate(-316.03 -265.247)" fill="#263238"/></g><g transform="translate(62.132 21.146)"><path d="M371.663,258.152c0,.061-5.465.11-12.206.11s-12.207-.049-12.207-.11,5.464-.11,12.207-.11S371.663,258.091,371.663,258.152Z" transform="translate(-347.251 -258.042)" fill="#263238"/></g><g transform="translate(58.242 35.161)"><g transform="translate(0.157 0)"><circle cx="14.059" cy="14.059" r="14.059" transform="matrix(0.307, -0.952, 0.952, 0.307, 0, 26.763)" fill="#31d9e7"/><g transform="translate(11.985 14.148)"><path d="M368.136,326.4c.533-.044,1.016.544,1.08,1.313s-.317,1.428-.85,1.472-1.016-.544-1.079-1.313S367.6,326.442,368.136,326.4Z" transform="translate(-367.279 -326.396)" fill="#263238"/></g><g transform="translate(20.754 13.965)"><path d="M389.588,325.954c-.534-.022-.993.585-1.024,1.356s.376,1.414.91,1.435.993-.585,1.024-1.356S390.122,325.976,389.588,325.954Z" transform="translate(-388.562 -325.954)" fill="#263238"/></g><g transform="translate(11.606 18.575)"><path d="M378.066,337.146c.022.021-.092.166-.319.412a8.035,8.035,0,0,1-1.054.949,7.509,7.509,0,0,1-1.859,1.019,6.587,6.587,0,0,1-2.577.4,7.6,7.6,0,0,1-2.535-.584,10.928,10.928,0,0,1-1.867-.978,6.082,6.082,0,0,1-1.494-1.222,13.511,13.511,0,0,1,1.655.956,13.251,13.251,0,0,0,1.852.866,7.842,7.842,0,0,0,2.41.523,6.639,6.639,0,0,0,2.421-.346,8.279,8.279,0,0,0,1.817-.892c.479-.329.865-.607,1.116-.82S378.045,337.125,378.066,337.146Z" transform="translate(-366.359 -337.141)" fill="#263238"/></g><g transform="translate(10.489 10.721)"><path d="M366.635,318.346c-.024.124-.7.079-1.5.209s-1.427.367-1.488.257.531-.555,1.421-.691S366.666,318.233,366.635,318.346Z" transform="translate(-363.647 -318.079)" fill="#263238"/></g><g transform="translate(21.83 10.58)"><path d="M394.139,318.8c-.077.1-.673-.255-1.47-.494s-1.487-.289-1.495-.416.738-.279,1.624,0S394.218,318.716,394.139,318.8Z" transform="translate(-391.174 -317.737)" fill="#263238"/></g><g transform="translate(10.442 17.569)"><path d="M364.927,334.7c.055-.01.144.136.159.4a1.655,1.655,0,0,1-1.122,1.58c-.256.074-.422.038-.431-.017-.021-.122.519-.3.889-.846C364.813,335.289,364.806,334.72,364.927,334.7Z" transform="translate(-363.533 -334.699)" fill="#263238"/></g><g transform="translate(22.887 17.719)"><path d="M395.353,336.206c.011.056-.1.141-.325.159a1.273,1.273,0,0,1-1.272-.944c-.045-.216,0-.351.058-.357.123-.01.262.406.675.7C394.888,336.073,395.327,336.086,395.353,336.206Z" transform="translate(-393.738 -335.065)" fill="#263238"/></g></g><g transform="translate(0 0.014)"><path d="M372.849,309.647s-.012-.1-.026-.283l-.053-.829q-.017-.274-.036-.61c-.023-.224-.071-.466-.11-.73s-.087-.547-.135-.85a9.373,9.373,0,0,0-.228-.952,16.651,16.651,0,0,0-1.934-4.633,17.359,17.359,0,0,0-4.424-4.933l-.752-.56c-.264-.173-.542-.332-.817-.5s-.546-.354-.848-.49l-.9-.433-.459-.218-.482-.176-.978-.356c-.332-.11-.68-.18-1.024-.274a8.826,8.826,0,0,0-1.051-.238,16.167,16.167,0,0,0-2.2-.254c-.375-.013-.752-.049-1.132-.044l-1.15.059c-.192.014-.387.012-.58.038l-.579.089c-.386.064-.78.109-1.168.19a18.379,18.379,0,0,0-2.315.68,18.09,18.09,0,0,0-2.264.995c-.367.2-.718.431-1.081.646-.178.114-.367.211-.536.339l-.511.383a19.581,19.581,0,0,0-1.969,1.674l-.882.972-.222.244-.2.264-.4.532-.4.534-.35.571-.349.575-.175.288-.148.3-.589,1.224-.471,1.285a17.2,17.2,0,0,0,0,10.953l.471,1.286.589,1.225.148.3.175.288.349.575.35.571.4.534.4.532.2.264.222.244.883.972a19.5,19.5,0,0,0,1.969,1.674l.511.383c.169.129.359.225.537.339.363.215.714.447,1.081.646a18.2,18.2,0,0,0,2.265,1,18.4,18.4,0,0,0,2.315.679c.389.08.782.126,1.168.19l.579.089c.193.026.388.024.581.038l1.15.059c.38.006.758-.03,1.132-.044a16.119,16.119,0,0,0,2.2-.254,8.924,8.924,0,0,0,1.051-.238c.344-.094.692-.164,1.024-.274l.978-.356.482-.176.459-.218.9-.433c.3-.137.567-.331.848-.49s.553-.328.817-.5l.751-.56a17.35,17.35,0,0,0,4.423-4.933,16.654,16.654,0,0,0,1.934-4.633,9.511,9.511,0,0,0,.228-.952q.072-.454.135-.85c.039-.264.087-.506.11-.729s.025-.428.036-.611c.023-.359.04-.634.053-.829s.026-.283.026-.283,0,.1,0,.283-.017.471-.031.831q-.012.276-.026.613c-.02.225-.065.468-.1.733s-.081.55-.125.855a9.5,9.5,0,0,1-.219.958,16.57,16.57,0,0,1-1.911,4.676A17.413,17.413,0,0,1,366,323.591l-.756.568c-.266.176-.546.337-.823.509s-.551.359-.854.5l-.91.44-.463.221-.486.179-.987.363c-.335.112-.686.185-1.033.28a9,9,0,0,1-1.062.244,16.356,16.356,0,0,1-2.22.263c-.378.014-.76.051-1.145.047l-1.162-.057c-.195-.013-.392-.012-.587-.037l-.586-.089c-.391-.064-.789-.109-1.182-.19a18.491,18.491,0,0,1-2.344-.683,18.243,18.243,0,0,1-2.293-1c-.371-.2-.728-.434-1.1-.652-.18-.115-.372-.213-.543-.343l-.518-.386a19.679,19.679,0,0,1-1.995-1.693l-.894-.983-.225-.247-.2-.267-.4-.538-.4-.541-.354-.578-.354-.582-.177-.292-.15-.307-.6-1.239-.478-1.3a17.4,17.4,0,0,1,0-11.091l.478-1.3.6-1.239.15-.307.178-.292.354-.582.354-.578.4-.541.4-.538.2-.267.225-.247.894-.983a19.711,19.711,0,0,1,1.995-1.692l.517-.386c.171-.129.363-.228.543-.342.368-.218.724-.452,1.1-.652a18.236,18.236,0,0,1,2.292-1,18.571,18.571,0,0,1,2.344-.683c.393-.081.791-.126,1.182-.19l.586-.089c.195-.025.392-.023.587-.037l1.162-.057c.384-.005.766.033,1.144.047a16.225,16.225,0,0,1,2.219.262,9.04,9.04,0,0,1,1.062.243c.347.1.7.169,1.033.28l.987.363.486.179.463.221.91.44c.3.139.571.335.854.5s.557.333.823.509l.756.568a17.417,17.417,0,0,1,4.435,4.994,16.557,16.557,0,0,1,1.911,4.676,9.431,9.431,0,0,1,.22.959q.067.457.125.855c.036.265.08.508.1.733s.018.429.026.613c.013.36.024.637.031.831S372.849,309.647,372.849,309.647Z" transform="translate(-337.809 -292.093)" fill="#31d9e7"/></g></g><rect width="127.447" height="6.359" transform="translate(10.441 3.354)" fill="#e0e0e0"/><path d="M229.314,220.919a.861.861,0,1,1-.861-.861A.861.861,0,0,1,229.314,220.919Z" transform="translate(-214.761 -214.562)" fill="#fff"/><path d="M236.257,220.919a.861.861,0,1,1-.861-.861A.861.861,0,0,1,236.257,220.919Z" transform="translate(-218.843 -214.562)" fill="#fff"/><path d="M243.2,220.919a.861.861,0,1,1-.861-.861A.861.861,0,0,1,243.2,220.919Z" transform="translate(-222.925 -214.562)" fill="#fff"/><g transform="translate(25.069 29.129)"><path d="M356.071,277.527c0,.061-22.114.11-49.386.11s-49.391-.049-49.391-.11,22.109-.11,49.391-.11S356.071,277.466,356.071,277.527Z" transform="translate(-257.294 -277.417)" fill="#e0e0e0"/></g><g transform="translate(25.069 31.577)"><path d="M356.071,283.469c0,.061-22.114.11-49.386.11s-49.391-.049-49.391-.11,22.109-.11,49.391-.11S356.071,283.408,356.071,283.469Z" transform="translate(-257.294 -283.359)" fill="#e0e0e0"/></g></g></g><g transform="translate(169.429 51.544)"><g transform="translate(0 0)"><g transform="translate(0 25.384)"><g transform="translate(0 11.026)"><path d="M334.351,176.488s-.871-1.972-1.034-2.407c-.443-1.183-3.294-9.105-2.611-10.305,3.162-5.547,5.611-9.491,11.847-9.491l11.011-.073s10.435-2.125,17.788,21.6Z" transform="translate(-309.192 -154.136)" fill="#455a64"/><path d="M280.566,178.438l14.418-3.108,16.952-8.917L312,154.247c-2.544-.7-7.41,1.063-16.173,5.527l-13.017,6.719a7.706,7.706,0,0,0-2.245,11.944Z" transform="translate(-278.639 -154.098)" fill="#455a64"/></g><g transform="translate(1.518 26.223)"><g transform="translate(22.887 26.286)"><path d="M347.846,261.188c-.208-.684-.067-1.124.931-.789,2.2.738,4.165.5,4.645.071s.039-1.244-.676-1.174a8.657,8.657,0,0,1-2.317-.321,5.645,5.645,0,0,1-1.728-.73c-.459-.293-.855-.567-1.207-.819a11.37,11.37,0,0,1-2.664-2.644l-6.958,2.985,1.121,3.485a3.684,3.684,0,0,0,2.354,2.7,16.682,16.682,0,0,0,5.152.4c.58-.38,2.819,2.859,3.5,4s1.486,1.285,1.748.586c.179-.476-1.81-4.025-2.506-5.14a13.592,13.592,0,0,1-1.391-2.616" transform="translate(-337.872 -254.782)" fill="#b77153"/><g transform="translate(3.892 7.382)"><path d="M348.687,274.9c-.006.025-.172.018-.409-.1a1.8,1.8,0,0,1-.953-1.7c.025-.263.105-.408.13-.4a2.3,2.3,0,0,0,1.232,2.2Z" transform="translate(-347.319 -272.698)" fill="#995037"/></g><g transform="translate(6.175 7.525)"><path d="M354.146,275.189c-.007.025-.165.01-.388-.11a1.789,1.789,0,0,1-.893-1.648c.022-.252.1-.392.12-.385a2.385,2.385,0,0,0,1.16,2.142Z" transform="translate(-352.861 -273.046)" fill="#995037"/></g></g><path d="M282.323,199.654s22.09,25.388,22.064,24.969,9.9-7.842,9.9-7.842l-21.658-25.8Z" transform="translate(-282.323 -190.983)" fill="#455a64"/><g transform="translate(13.397 3.681)"><path d="M314.84,199.919c.006,0,.059.047.155.15l.412.459,1.484,1.714c1.246,1.453,2.956,3.47,4.834,5.708s3.57,4.271,4.786,5.75l1.432,1.759.381.486a.8.8,0,0,1,.122.179c-.006,0-.059-.047-.155-.15l-.412-.459-1.484-1.714c-1.246-1.454-2.956-3.471-4.835-5.709s-3.57-4.271-4.786-5.75l-1.431-1.759-.381-.486A.8.8,0,0,1,314.84,199.919Z" transform="translate(-314.84 -199.918)" fill="#263238"/></g></g><g transform="translate(50.057 22.877)"><path d="M404.07,192.815a7.515,7.515,0,0,0,.264-1.627,4.874,4.874,0,0,0-1.444-3.561c-.536-.564-1.112-1.049-1.576-1.561a4.813,4.813,0,0,1-.99-1.543,2.689,2.689,0,0,1-.18-1.224,1.082,1.082,0,0,1,.115-.438,3.063,3.063,0,0,0,.209,1.605,4.919,4.919,0,0,0,.994,1.462c.461.492,1.038.97,1.587,1.548a5.06,5.06,0,0,1,1.19,1.9,4.87,4.87,0,0,1,.249,1.816,4.394,4.394,0,0,1-.232,1.211A1.352,1.352,0,0,1,404.07,192.815Z" transform="translate(-400.133 -182.861)" fill="#263238"/></g><g transform="translate(16.712 12.444)"><path d="M326.689,158.39a2.142,2.142,0,0,1,.321-.152c.214-.092.534-.215.956-.349a8.316,8.316,0,0,1,1.582-.322,5.439,5.439,0,0,1,2.132.2,4.94,4.94,0,0,1,2.18,1.4,5.793,5.793,0,0,1,1.31,2.67,10.174,10.174,0,0,1,.209,3.285,7.129,7.129,0,0,1-1.221,3.31,9.094,9.094,0,0,1-2.643,2.343c-.967.609-1.941,1.108-2.863,1.594l-4.906,2.575-3.316,1.719-.906.458a2.1,2.1,0,0,1-.323.146,2.176,2.176,0,0,1,.3-.185l.887-.494,3.282-1.78,4.881-2.615c.919-.49,1.893-.994,2.845-1.6a8.945,8.945,0,0,0,2.578-2.289,6.942,6.942,0,0,0,1.187-3.208,10.058,10.058,0,0,0-.193-3.215,5.635,5.635,0,0,0-1.248-2.593,4.81,4.81,0,0,0-2.092-1.376,5.37,5.37,0,0,0-2.074-.225,8.643,8.643,0,0,0-1.569.282c-.422.12-.746.23-.964.308A2.126,2.126,0,0,1,326.689,158.39Z" transform="translate(-319.202 -157.539)" fill="#263238"/></g><g transform="translate(13.929 26.957)"><path d="M315.862,198.04a9,9,0,0,0-3.415-5.272,2.761,2.761,0,0,1,.813.5,7.086,7.086,0,0,1,2.476,3.823A2.77,2.77,0,0,1,315.862,198.04Z" transform="translate(-312.446 -192.766)" fill="#263238"/></g><g transform="translate(36.031 21.439)"><path d="M379.873,187.406a2.681,2.681,0,0,1-.469.126,4.73,4.73,0,0,1-1.393.06,5.121,5.121,0,0,1-2.094-.688,4.792,4.792,0,0,1-1.933-2.172,5.112,5.112,0,0,1-.267-3.506,2.873,2.873,0,0,1,1.166-1.615,1.443,1.443,0,0,1,1.052-.215,1.539,1.539,0,0,1,.918.61,5.1,5.1,0,0,1,.492,4.395,5.223,5.223,0,0,1-1.249,2.046,4.754,4.754,0,0,1-2.147,1.213,4.908,4.908,0,0,1-4.59-1.068,4.812,4.812,0,0,1-1.377-4.185,4.145,4.145,0,0,1,.841-1.938,2.069,2.069,0,0,1,.822-.63,1.325,1.325,0,0,1,1.011.011,1.882,1.882,0,0,1,1.077,1.5,3.153,3.153,0,0,1-.334,1.683,8.04,8.04,0,0,1-1.754,2.338,8.342,8.342,0,0,1-1.8,1.274,7.744,7.744,0,0,1-1.286.537c-.151.05-.27.075-.349.1a.5.5,0,0,1-.121.024.542.542,0,0,1,.115-.046c.076-.028.193-.061.341-.117a8.718,8.718,0,0,0,1.26-.571,8.484,8.484,0,0,0,1.757-1.288,8,8,0,0,0,1.7-2.314,3.006,3.006,0,0,0,.307-1.6,1.712,1.712,0,0,0-.979-1.35,1.14,1.14,0,0,0-.873,0,1.89,1.89,0,0,0-.742.578,3.959,3.959,0,0,0-.789,1.847,4.614,4.614,0,0,0,1.325,4,4.7,4.7,0,0,0,4.386,1.012,4.539,4.539,0,0,0,2.049-1.157,5.016,5.016,0,0,0,1.2-1.958,5.368,5.368,0,0,0,.243-2.21,4.616,4.616,0,0,0-.227-1.058,3.047,3.047,0,0,0-.465-.935,1.34,1.34,0,0,0-.8-.539,1.249,1.249,0,0,0-.912.186,2.7,2.7,0,0,0-1.091,1.5,4.964,4.964,0,0,0,.234,3.39,4.684,4.684,0,0,0,1.855,2.13,5.112,5.112,0,0,0,2.04.708A5.7,5.7,0,0,0,379.873,187.406Z" transform="translate(-366.091 -179.371)" fill="#fafafa"/></g><g transform="translate(46.033)"><path d="M402.082,134.476a4.993,4.993,0,0,1-.984-1.957,1.328,1.328,0,0,1-.026-.715.551.551,0,0,1,.531-.408c.247.023.415.254.548.464a10.509,10.509,0,0,1,1.016,1.927,1.468,1.468,0,0,1,.119.585.594.594,0,0,1-.286.5.611.611,0,0,1-.62-.084,1.8,1.8,0,0,1-.423-.5" transform="translate(-396.638 -129.722)" fill="#995037"/><path d="M404.275,132.579l-1.09-2.28a1.811,1.811,0,0,1-.225-.71.548.548,0,0,1,.953-.454,1.821,1.821,0,0,1,.365.538l.514,1a3.211,3.211,0,0,1,.339.85,1.083,1.083,0,0,1-.171.874.664.664,0,0,1-.819.194" transform="translate(-397.771 -128.287)" fill="#995037"/><path d="M392.028,138.691a9.91,9.91,0,0,1-1.653-3c-.137-1.036,1.134-2.875,3.858-3.288a6.673,6.673,0,0,0,2.8-.959.879.879,0,0,0,.319-1.063,15.811,15.811,0,0,1-.954-2.7c.127-.556.489-.545,1.432.833s2.028,2.776,1.819,3.411-3.53,2.6-3.53,2.6l.908,1.463Z" transform="translate(-390.366 -127.337)" fill="#b77153"/><path d="M401.345,169.318,390.891,148.84l6.73-3.772,14.14,22.416s.746,1.432,1.788,3.109H401.7" transform="translate(-390.675 -137.763)" fill="#455a64"/></g><g transform="translate(46.017 7.305)"><path d="M397.182,145.067a.508.508,0,0,1-.116.082l-.353.214-1.353.789-4.861,2.77.038-.124c1.016,2.074,2.338,4.471,3.67,7.076,1.983,3.854,3.7,7.384,4.9,9.955.6,1.285,1.081,2.33,1.406,3.055l.367.837a1.737,1.737,0,0,1,.114.3,1.774,1.774,0,0,1-.155-.279l-.4-.82-1.468-3.024c-1.241-2.553-2.976-6.07-4.957-9.922-1.33-2.6-2.643-5.007-3.643-7.092l-.039-.082.077-.043,4.9-2.7,1.379-.743.367-.189A.527.527,0,0,1,397.182,145.067Z" transform="translate(-390.328 -145.067)" fill="#263238"/></g><g transform="translate(23.407 28.565)"><path d="M337.2,201.48a12.567,12.567,0,0,1-1.743-4.813c.063-.014.348,1.1.831,2.421S337.259,201.451,337.2,201.48Z" transform="translate(-335.449 -196.668)" fill="#263238"/></g></g><g transform="translate(18.838)"><path d="M393.324,110.989a4.134,4.134,0,0,0,4.875-6.251,4.984,4.984,0,0,0,3.355-5.708,6.453,6.453,0,0,0-4.991-4.767,5.31,5.31,0,0,0-2.76.07,3.378,3.378,0,0,0-2.058,1.767" transform="translate(-363.982 -82.419)" fill="#263238"/><g transform="translate(26.146 23.103)"><path d="M390.686,121.929c.007.025-.308.08-.806.341a3.561,3.561,0,0,0-1.577,1.7,3.483,3.483,0,0,0,.264,3.32,3.477,3.477,0,0,0,1.539,1.3,3.454,3.454,0,0,0,3.992-.912,3.48,3.48,0,0,0,.824-1.837,3.484,3.484,0,0,0-1.2-3.106,3.562,3.562,0,0,0-2.158-.845c-.562-.019-.87.069-.874.043a.879.879,0,0,1,.221-.061,2.853,2.853,0,0,1,.655-.067,3.555,3.555,0,0,1,2.256.811,3.605,3.605,0,0,1,1.021,1.338,3.665,3.665,0,0,1,.285,1.912,3.675,3.675,0,0,1-.861,1.953,3.651,3.651,0,0,1-4.24.968A3.665,3.665,0,0,1,388.4,127.4a3.661,3.661,0,0,1-.574-1.845,3.6,3.6,0,0,1,.338-1.649,3.557,3.557,0,0,1,1.679-1.71,2.847,2.847,0,0,1,.619-.224A.883.883,0,0,1,390.686,121.929Z" transform="translate(-387.821 -121.801)" fill="#e8505b"/></g><path d="M355.158,82.465a4.05,4.05,0,0,0,1.906-7.486,5.032,5.032,0,0,0-7.511-5.889,6.677,6.677,0,0,0-12.344,1.978,6.453,6.453,0,0,0-8.281,8.756,5,5,0,0,0,.847,9.962,4.411,4.411,0,0,0,6.684,4.951,4.825,4.825,0,0,0,8.675-1" transform="translate(-324.362 -65.727)" fill="#263238"/><g transform="translate(13.313 8.022)"><path d="M369.2,113.242c.086-2.006.194-3.822.194-3.822a5.41,5.41,0,0,0,4.678-5.143c.193-4.577-.262-15.117-.262-15.117L365.554,85.2l-8.88,7.154,1.393,21.021a5.574,5.574,0,0,0,5.82,5.2h0A5.574,5.574,0,0,0,369.2,113.242Z" transform="translate(-356.674 -85.197)" fill="#b77153"/><g transform="translate(14.657 11.114)"><path d="M394.505,112.862c-.072.077-.5-.283-1.114-.307s-1.07.288-1.135.2c-.032-.037.042-.178.241-.323a1.483,1.483,0,0,1,1.8.081C394.479,112.68,394.541,112.827,394.505,112.862Z" transform="translate(-392.248 -112.173)" fill="#263238"/></g><g transform="translate(7.852 11.114)"><path d="M377.988,112.862c-.072.077-.5-.283-1.114-.307s-1.07.288-1.135.2c-.032-.037.041-.178.241-.323a1.483,1.483,0,0,1,1.8.081C377.961,112.68,378.024,112.827,377.988,112.862Z" transform="translate(-375.731 -112.173)" fill="#263238"/></g><g transform="translate(12.214 10.924)"><path d="M386.52,117.206a3.782,3.782,0,0,1,1-.152c.157-.011.307-.039.335-.152a.916.916,0,0,0-.1-.5l-.444-1.3a23.588,23.588,0,0,1-.99-3.389,23.463,23.463,0,0,1,1.241,3.3q.222.683.425,1.3a1.046,1.046,0,0,1,.071.663.389.389,0,0,1-.262.235.978.978,0,0,1-.267.029A3.757,3.757,0,0,1,386.52,117.206Z" transform="translate(-386.318 -111.711)" fill="#263238"/></g><g transform="translate(6.78 22.279)"><path d="M379.069,141.215a10.92,10.92,0,0,1-5.938-1.944,5.744,5.744,0,0,0,5.86,3.067Z" transform="translate(-373.131 -139.271)" fill="#995037"/></g></g><path d="M370.549,84.811a6.041,6.041,0,0,0,.083,6.995,3.51,3.51,0,0,0,2.771,1.548,1.974,1.974,0,0,0,1.93-2.157,2.275,2.275,0,1,0,4.358.078,4.1,4.1,0,0,0,.513,1.4,1.392,1.392,0,0,0,1.264.665c.69-.091,1.091-.832,1.249-1.51a6.2,6.2,0,0,0-1.763-5.706,7.52,7.52,0,0,0-5.718-2.006,9.576,9.576,0,0,0-5.617,2.457" transform="translate(-350.888 -76.533)" fill="#263238"/><path d="M359.124,89.737a10.669,10.669,0,0,1,.922,4.107,5.508,5.508,0,0,1-1.484,3.855,3.747,3.747,0,0,1-3.893.934,4.336,4.336,0,0,1-.567,3.654,2.776,2.776,0,0,1-3.394.892,3.716,3.716,0,0,1-1.587-2.925A9.364,9.364,0,0,1,359.307,89.8" transform="translate(-338.882 -79.845)" fill="#263238"/><g transform="translate(11.98 20.632)"><path d="M356.04,115.969a1.61,1.61,0,0,0-1.928.462,2.63,2.63,0,0,0,2.617,4.319" transform="translate(-353.438 -115.802)" fill="#b77153"/><g transform="translate(0.945 1.351)"><path d="M357.247,121.306c0,.026-.2.055-.519-.034a1.378,1.378,0,0,1-.941-.841,1.006,1.006,0,0,1,.025-.731,1.076,1.076,0,0,1,.38-.45c.282-.186.5-.179.5-.156s-.183.085-.405.279a.9.9,0,0,0-.292.988,1.36,1.36,0,0,0,.785.765C357.057,121.245,357.251,121.272,357.247,121.306Z" transform="translate(-355.731 -119.082)" fill="#995037"/></g></g><g transform="translate(20.741 17.401)"><path d="M377.762,108.474c-.057.178-.726.113-1.523.148s-1.459.139-1.529-.034.576-.592,1.505-.624S377.824,108.309,377.762,108.474Z" transform="translate(-374.704 -107.962)" fill="#263238"/></g><g transform="translate(22.006 17.588)"><path d="M377.773,108.415" transform="translate(-377.773 -108.415)" fill="none" stroke="#4e585d" stroke-miterlimit="10" stroke-width="1"/></g><g transform="translate(28.21 17.068)"><path d="M394.832,107.872c-.07.063-.207.022-.367-.019a1.494,1.494,0,0,0-.56-.035,6.894,6.894,0,0,1-.7.062c-.2,0-.342-.045-.368-.133s.064-.2.235-.314a1.759,1.759,0,0,1,.777-.272,1.032,1.032,0,0,1,.885.31C394.888,107.659,394.9,107.815,394.832,107.872Z" transform="translate(-392.831 -107.152)" fill="#263238"/></g><path d="M383.755,127.566a1.379,1.379,0,0,1,1.157-.164.866.866,0,0,1,.574.944.946.946,0,0,1-.372.527,1.2,1.2,0,0,1-.954.234.934.934,0,0,1-.709-.648.764.764,0,0,1,.372-.858" transform="translate(-359.092 -101.953)" fill="#995037"/><g transform="translate(24.23 24.986)"><path d="M385.851,127.485c.011.025-.146.13-.441.193a1.991,1.991,0,0,1-2.058-.857c-.163-.254-.2-.44-.173-.449s.116.144.3.356a2.227,2.227,0,0,0,1.912.8C385.667,127.5,385.839,127.454,385.851,127.485Z" transform="translate(-383.171 -126.371)" fill="#263238"/></g><g transform="translate(10.367 24.621)"><path d="M356.776,129.149c-.026,0-.009-.318-.153-.862a3.562,3.562,0,0,0-1.3-1.915,3.484,3.484,0,0,0-3.3-.482,3.487,3.487,0,0,0-1.607,1.212,3.454,3.454,0,0,0,0,4.095,3.483,3.483,0,0,0,1.608,1.212,3.483,3.483,0,0,0,3.3-.482,3.561,3.561,0,0,0,1.3-1.915c.143-.543.127-.863.153-.862a.881.881,0,0,1,.011.229,2.856,2.856,0,0,1-.081.653,3.556,3.556,0,0,1-1.293,2.018,3.6,3.6,0,0,1-1.532.7,3.658,3.658,0,0,1-1.927-.148,3.659,3.659,0,0,1-1.712-1.275,3.65,3.65,0,0,1,0-4.349,3.665,3.665,0,0,1,1.712-1.275,3.661,3.661,0,0,1,1.927-.148,3.605,3.605,0,0,1,1.532.7,3.558,3.558,0,0,1,1.293,2.018,2.851,2.851,0,0,1,.081.653A.878.878,0,0,1,356.776,129.149Z" transform="translate(-349.523 -125.486)" fill="#e8505b"/></g><g transform="translate(20.355 7.8)"><path d="M383.62,84.661c0-.005.04,0,.114.028a.891.891,0,0,1,.288.185,1.332,1.332,0,0,1,.368,1.2,1.717,1.717,0,0,1-1.426,1.263,3.573,3.573,0,0,1-2.415-.577l-.85-.491.933.307a1.01,1.01,0,0,1,.63.723,1.3,1.3,0,0,1-.13.985,1.379,1.379,0,0,1-.838.594,1.964,1.964,0,0,1-1.044-.023,3.572,3.572,0,0,1-1.794-1.55l-.6-.873.758.736a1.648,1.648,0,0,1,.408,1.557,1.706,1.706,0,0,1-.916,1.16,2.219,2.219,0,0,1-2.345-.286,2.789,2.789,0,0,1-.887-1.322,2.581,2.581,0,0,1-.1-.417.45.45,0,0,1-.009-.148c.018,0,.044.2.176.541a2.837,2.837,0,0,0,.9,1.239,2.08,2.08,0,0,0,2.177.229,1.517,1.517,0,0,0,.8-1.041,1.45,1.45,0,0,0-.358-1.358l.161-.137a3.4,3.4,0,0,0,1.679,1.459,1.444,1.444,0,0,0,1.637-.471.983.983,0,0,0-.38-1.4l.083-.185a3.437,3.437,0,0,0,2.282.587,1.591,1.591,0,0,0,1.337-1.12,1.285,1.285,0,0,0-.294-1.131A1.537,1.537,0,0,0,383.62,84.661Z" transform="translate(-373.766 -84.659)" fill="#455a64"/></g><g transform="translate(6.053 8.07)"><path d="M352.233,92.406s-.015.03-.054.08a1.829,1.829,0,0,1-.193.205,2.668,2.668,0,0,1-2.587.575,2.77,2.77,0,0,1-1.636-1.415l.173-.024a2.665,2.665,0,1,1-4.483-2.344l.143.156a2.738,2.738,0,0,1-1.732.627,2.975,2.975,0,0,1-1.627-.443,2.461,2.461,0,0,1-.974-1.144,2.892,2.892,0,0,1,.473-2.949,1.766,1.766,0,0,1,.5-.417c.014.017-.186.14-.447.464a2.846,2.846,0,0,0-.6,1.636,2.749,2.749,0,0,0,.217,1.2,2.306,2.306,0,0,0,.922,1.052,2.8,2.8,0,0,0,1.527.4,2.546,2.546,0,0,0,1.6-.588l.143.156a2.544,2.544,0,0,0-.524,2.77,2.518,2.518,0,0,0,2.752,1.4,2.558,2.558,0,0,0,1.927-2.006l.048-.29.125.266a2.63,2.63,0,0,0,1.517,1.352,2.539,2.539,0,0,0,1.587.013,2.748,2.748,0,0,0,.917-.489C352.137,92.5,352.224,92.4,352.233,92.406Z" transform="translate(-339.053 -85.314)" fill="#455a64"/></g><g transform="translate(1.811 17.396)"><path d="M338.006,113.043a1.047,1.047,0,0,1-.356.212,2.427,2.427,0,0,1-2.713-.59,2.543,2.543,0,0,1-.619-2.113l.188.084a4.205,4.205,0,0,1-1.547,1.263,3.322,3.322,0,0,1-1.5.32,3.061,3.061,0,0,1-1.38-.379,2.439,2.439,0,0,1-1.313-1.95,2.314,2.314,0,0,1,.424-1.546,1.782,1.782,0,0,1,.308-.314c.082-.06.126-.087.13-.081s-.161.138-.368.445a2.285,2.285,0,0,0,.915,3.269,2.977,2.977,0,0,0,2.693.038,4.06,4.06,0,0,0,1.471-1.193l.267-.344-.078.428a2.377,2.377,0,0,0,.548,1.954,2.266,2.266,0,0,0,1.45.755,2.522,2.522,0,0,0,1.1-.112C337.873,113.1,338,113.029,338.006,113.043Z" transform="translate(-328.757 -107.948)" fill="#455a64"/></g><g transform="translate(31.311 13.565)"><path d="M403.439,98.65a1.383,1.383,0,0,1,.091.761,2.737,2.737,0,0,1-2.408,2.518,1.383,1.383,0,0,1-.765-.057c0-.037.294-.006.74-.1a2.827,2.827,0,0,0,2.279-2.383C403.447,98.944,403.4,98.655,403.439,98.65Z" transform="translate(-400.358 -98.65)" fill="#455a64"/></g><g transform="translate(31.716 17.879)"><path d="M406.539,109.121a.667.667,0,0,1,.1.312,1.773,1.773,0,0,1-.085.9,1.4,1.4,0,0,1-1,.917,1.43,1.43,0,0,1-.834-.072,1.15,1.15,0,0,1-.656-.637l.207-.07a1.419,1.419,0,0,1,.052.405,1.641,1.641,0,0,1-1.033,1.468,1.374,1.374,0,0,1-.819.034,1.587,1.587,0,0,1-.619-.341,1.5,1.5,0,0,1-.5-.864.653.653,0,0,1,.012-.365c.02,0,.013.131.072.346a1.508,1.508,0,0,0,.515.764,1.282,1.282,0,0,0,1.267.236,1.456,1.456,0,0,0,.885-1.283,1.221,1.221,0,0,0-.042-.34l.207-.07a1.115,1.115,0,0,0,1.247.594,1.262,1.262,0,0,0,.9-.779,1.9,1.9,0,0,0,.143-.839A1.945,1.945,0,0,1,406.539,109.121Z" transform="translate(-401.342 -109.121)" fill="#455a64"/></g><g transform="translate(23.313 24)"><path d="M381.981,123.979c.028,0,.046.094.009.233a.963.963,0,0,1-.817.677c-.144.01-.229-.025-.228-.053,0-.063.318-.093.6-.332S381.92,123.968,381.981,123.979Z" transform="translate(-380.946 -123.978)" fill="#263238"/></g></g></g></g><g transform="translate(298.137 178.456)"><g transform="translate(5.812)"><path d="M612.005,389.015c-1.028,1.469-3.027.983-3.954.086a7.468,7.468,0,0,1-1.675-3.436c-.815-2.831-1.637-5.8-1.03-8.686a4.826,4.826,0,0,1,1.109-2.362,2.521,2.521,0,0,1,2.389-.795,3.685,3.685,0,0,1,2.087,2.193,20.7,20.7,0,0,1,2.047,8.885,7.184,7.184,0,0,1-.972,4.114" transform="translate(-605.136 -373.758)" fill="#e8505b"/></g><g transform="translate(5.812)" opacity="0.2"><path d="M612.005,389.015c-1.028,1.469-3.027.983-3.954.086a7.468,7.468,0,0,1-1.675-3.436c-.815-2.831-1.637-5.8-1.03-8.686a4.826,4.826,0,0,1,1.109-2.362,2.521,2.521,0,0,1,2.389-.795,3.685,3.685,0,0,1,2.087,2.193,20.7,20.7,0,0,1,2.047,8.885,7.184,7.184,0,0,1-.972,4.114" transform="translate(-605.136 -373.758)"/></g><g transform="translate(0 21.869)"><path d="M599.857,427.664a8.916,8.916,0,0,0-5.53-.672,4.6,4.6,0,0,0-2.732,1.22,1.966,1.966,0,0,0-.028,2.727,2.618,2.618,0,0,0,1.723.437c1.462-.017,3.084-.274,4.252.605.666.5,1.11,1.336,1.906,1.583a1.883,1.883,0,0,0,2.072-.922,3.22,3.22,0,0,0,.234-2.376A3.628,3.628,0,0,0,599.857,427.664Z" transform="translate(-591.029 -426.836)" fill="#e8505b"/></g><g transform="translate(14.421 4.727)"><path d="M627.116,397.869a5.346,5.346,0,0,1-.832-4.919,9.478,9.478,0,0,1,2.914-4.226,15.685,15.685,0,0,1,5.217-3.079,5.56,5.56,0,0,1,2.346-.4,2.461,2.461,0,0,1,1.969,1.191c.549,1.047.023,2.318-.547,3.354a39.707,39.707,0,0,1-3.427,5.218,9.274,9.274,0,0,1-3.769,3.228c-1.566.6-3.191.528-4.021-.557" transform="translate(-626.031 -385.231)" fill="#e8505b"/></g><g transform="translate(5.074 23.909)"><path d="M611.022,445.3a3.228,3.228,0,0,1-.093-.668l-.177-1.822a26.43,26.43,0,0,0-.41-2.672,20.664,20.664,0,0,0-.972-3.154,11.639,11.639,0,0,0-1.61-2.854,6.021,6.021,0,0,0-2.036-1.693,5.693,5.693,0,0,0-1.715-.534,3.238,3.238,0,0,1-.665-.1,3.126,3.126,0,0,1,.676-.011,5.19,5.19,0,0,1,1.788.466,6,6,0,0,1,2.148,1.707,11.363,11.363,0,0,1,1.669,2.911,19.3,19.3,0,0,1,.964,3.205,22.581,22.581,0,0,1,.355,2.706c.058.774.08,1.4.091,1.833A3.12,3.12,0,0,1,611.022,445.3Z" transform="translate(-603.345 -431.787)" fill="#263238"/></g><g transform="translate(9.213 5.902)"><path d="M616.8,418.2a1.311,1.311,0,0,1-.018-.31c0-.233,0-.526,0-.886,0-.769,0-1.881-.039-3.255-.068-2.747-.3-6.54-.761-10.708s-1.07-7.92-1.626-10.611c-.131-.674-.264-1.282-.389-1.813s-.22-.992-.318-1.363l-.207-.861a1.327,1.327,0,0,1-.054-.306,1.289,1.289,0,0,1,.108.29l.257.849c.114.368.231.824.364,1.355s.285,1.135.429,1.808a100.656,100.656,0,0,1,1.709,10.622c.458,4.177.664,7.98.682,10.734.016,1.377-.013,2.492-.048,3.261-.022.36-.04.653-.054.885A1.307,1.307,0,0,1,616.8,418.2Z" transform="translate(-613.391 -388.084)" fill="#263238"/></g><g transform="translate(12.595 8.146)"><path d="M621.611,414.063a5.928,5.928,0,0,1,.007-.925c.034-.595.116-1.454.283-2.507a32.987,32.987,0,0,1,.815-3.652,32.413,32.413,0,0,1,1.527-4.322,23.025,23.025,0,0,1,4.486-6.984,11.393,11.393,0,0,1,1.055-.981c.162-.137.305-.274.451-.382l.409-.282a5.859,5.859,0,0,1,.779-.5,27.459,27.459,0,0,0-2.553,2.278,24.265,24.265,0,0,0-4.373,6.959,34.5,34.5,0,0,0-1.536,4.282c-.4,1.342-.667,2.576-.868,3.616s-.3,1.893-.368,2.482A5.95,5.95,0,0,1,621.611,414.063Z" transform="translate(-621.599 -393.529)" fill="#263238"/></g></g><g transform="translate(150.338 41.606)"><g transform="translate(0)"><path d="M248,41.612a1.731,1.731,0,0,1-.286.035l-.84.071a9.428,9.428,0,0,0-1.352.2c-.264.057-.556.082-.854.173l-.953.276a15.76,15.76,0,0,0-4.525,2.309,16.124,16.124,0,0,0-4.422,5.036,16.993,16.993,0,0,0-1.529,3.6,18.04,18.04,0,0,0-.57,6.428c.024.379.11.753.162,1.134a8.01,8.01,0,0,0,.229,1.14,16.116,16.116,0,0,0,1.779,4.46,15.929,15.929,0,0,0,7.595,6.745,14.647,14.647,0,0,0,5.314,1.13,14.337,14.337,0,0,0,5.524-.859l.541-.206.071-.027.065.032,7.829,3.863-.229.2c-.861-2.57-1.7-5.062-2.5-7.453l-.031-.092.068-.07A16.624,16.624,0,0,0,263.1,62.9a17.067,17.067,0,0,0,.51-7.24,16.648,16.648,0,0,0-5.678-10.371,17.1,17.1,0,0,0-3.851-2.39,16.743,16.743,0,0,0-3.242-.981l-1.213-.192-.894-.052-.548-.036a.936.936,0,0,1-.186-.022,1,1,0,0,1,.186-.006l.549.009.9.026,1.224.168a16.422,16.422,0,0,1,3.283.944,17.075,17.075,0,0,1,3.918,2.379,16.77,16.77,0,0,1,3.641,4.3,16.958,16.958,0,0,1,2.178,6.189,17.312,17.312,0,0,1-.493,7.363,16.9,16.9,0,0,1-4.068,6.979l.037-.162,2.506,7.45.126.375-.356-.175L253.8,73.589l.136,0-.552.21a14.645,14.645,0,0,1-5.647.877,14.956,14.956,0,0,1-5.431-1.16,16.22,16.22,0,0,1-7.735-6.893,16.386,16.386,0,0,1-1.8-4.546,8.328,8.328,0,0,1-.229-1.161c-.052-.388-.138-.769-.161-1.154a18.286,18.286,0,0,1,.608-6.528,17.156,17.156,0,0,1,1.571-3.648,16.225,16.225,0,0,1,4.516-5.069,15.657,15.657,0,0,1,4.6-2.283l.965-.263a8.735,8.735,0,0,1,.863-.159,8.835,8.835,0,0,1,1.364-.166l.844-.037A1.848,1.848,0,0,1,248,41.612Z" transform="translate(-232.303 -41.606)" fill="#263238"/><g transform="translate(9.819 8.671)"><path d="M265.7,68.357l-1.141.013-2.528-3.441L262,62.653s-1.764-.088-1.523,2.891.008,2.222.008,2.222-3.743.057-4.05.386c-.224.239-.283,3.959-.3,5.975a2.184,2.184,0,0,0,1.572,2.182,1.637,1.637,0,0,0,.4.049c.934-.011,5.7-.824,5.7-.824l1.97-.022Z" transform="translate(-256.135 -62.652)" fill="#31d9e7"/><g transform="translate(10.165 5.043)"><path d="M283.46,74.891l-.613,7.809-1.953.022-.087-7.644Z" transform="translate(-280.807 -74.891)" fill="#31d9e7"/></g></g></g></g></g></g></svg>