<svg xmlns="http://www.w3.org/2000/svg" width="292" height="392.709" viewBox="0 0 292 392.709">
  <g id="Grupo_68152" data-name="Grupo 68152" transform="translate(-338 -5733.957)">
    <line id="Línea_255" data-name="Línea 255" y1="33" transform="translate(481.5 5929.957)" fill="none" stroke="#707070" stroke-width="3" stroke-dasharray="3 4" style="mix-blend-mode: multiply;isolation: isolate"/>
    <g id="Grupo_68150" data-name="Grupo 68150">
      <g id="Grupo_68151" data-name="Grupo 68151">
        <g id="Elipse_4667" data-name="Elipse 4667" transform="translate(385 5733.957)" fill="#fff" stroke="#8a8a8a" stroke-width="3" stroke-dasharray="3 4">
          <circle cx="98" cy="98" r="98" stroke="none"/>
          <circle cx="98" cy="98" r="96.5" fill="none"/>
        </g>
      </g>
      <rect id="Rectángulo_6382" data-name="Rectángulo 6382" width="292" height="163.624" rx="5" transform="translate(338 5963.043)" fill="#fff"/>
      <text id="Puntos_de_venta_" data-name="Puntos de venta " transform="translate(387 5977.893)" fill="#12263f" font-size="18" font-family="Roboto-Black, Roboto" font-weight="800"><tspan x="31.434" y="19">Puntos de venta </tspan></text>
      <text id="Se_refiere_al_punto_físico_donde_se_venden_los_productos_o_servicios._" data-name="Se refiere al punto físico donde se venden los productos o servicios.
" transform="translate(365 6017.828)" fill="#12263f" font-size="16" font-family="Roboto-Regular, Roboto"><tspan x="0" y="17">Se refiere al punto físico donde se </tspan><tspan x="0" y="41">venden los productos o servicios.</tspan></text>
    </g>
    <g id="store" transform="translate(429.5 5783.16)">
      <path id="Trazado_109948" data-name="Trazado 109948" d="M33.086,110.574v71.369a.86.86,0,0,0,.859.859h94.064a.86.86,0,0,0,.859-.859V110.574Zm0,0" transform="translate(-25.977 -86.818)" fill="#f17781"/>
      <g id="Grupo_62509" data-name="Grupo 62509" transform="translate(7.109 23.756)">
        <path id="Trazado_109949" data-name="Trazado 109949" d="M33.086,224.5h95.783v4.848H33.086Zm0,0" transform="translate(-33.086 -200.021)" fill="#ba365f"/>
        <path id="Trazado_109950" data-name="Trazado 109950" d="M33.086,110.574h95.783v4.848H33.086Zm0,0" transform="translate(-33.086 -110.574)" fill="#ba365f"/>
        <path id="Trazado_109951" data-name="Trazado 109951" d="M176.816,110.574v4.883a6.229,6.229,0,0,0,6.229,6.229h26.308a8.041,8.041,0,0,0,8.041-8.041v-3.071Zm0,0" transform="translate(-145.937 -110.574)" fill="#ba365f"/>
        <path id="Trazado_109952" data-name="Trazado 109952" d="M452.191,110.574v71.369a.86.86,0,0,1-.859.859H456.4a.86.86,0,0,0,.859-.859V110.574Zm0,0" transform="translate(-361.475 -110.574)" fill="#ba365f"/>
      </g>
      <path id="Trazado_109953" data-name="Trazado 109953" d="M202.68,289.469v32.106h22.911V289.469a2.149,2.149,0,0,0-2.148-2.149H204.829a2.149,2.149,0,0,0-2.149,2.149Zm0,0" transform="translate(-159.135 -225.592)" fill="#6a7193"/>
      <path id="Trazado_109954" data-name="Trazado 109954" d="M205.956,292.749A2.148,2.148,0,0,1,208.1,290.6h17.486v-1.13a2.149,2.149,0,0,0-2.148-2.149H204.829a2.149,2.149,0,0,0-2.149,2.149v32.106h3.276Zm0,0" transform="translate(-159.135 -225.592)" fill="#575b7a"/>
      <path id="Trazado_109955" data-name="Trazado 109955" d="M8.121,176.535v8.771a.859.859,0,0,0,.859.859H113.771a.859.859,0,0,0,.859-.859v-8.771a.859.859,0,0,0-.859-.859H8.98a.859.859,0,0,0-.859.859Zm0,0" transform="translate(-6.376 -137.934)" fill="#c8e7f7"/>
      <path id="Trazado_109956" data-name="Trazado 109956" d="M481.434,175.676h-5.047a.859.859,0,0,1,.859.859v8.771a.859.859,0,0,1-.859.859h5.047a.859.859,0,0,0,.859-.859v-8.771A.859.859,0,0,0,481.434,175.676Zm0,0" transform="translate(-374.038 -137.934)" fill="#8cbcd6"/>
      <path id="Trazado_109957" data-name="Trazado 109957" d="M342,305.174v17.583a1.819,1.819,0,0,0,1.819,1.819H363.76a1.819,1.819,0,0,0,1.819-1.819V305.174a1.819,1.819,0,0,0-1.819-1.819H343.819A1.819,1.819,0,0,0,342,305.174Zm0,0" transform="translate(-268.524 -238.182)" fill="#c8e7f7"/>
      <path id="Trazado_109958" data-name="Trazado 109958" d="M60.246,305.174v17.583a1.819,1.819,0,0,0,1.819,1.819H82.006a1.819,1.819,0,0,0,1.819-1.819V305.174a1.819,1.819,0,0,0-1.819-1.819H62.066A1.819,1.819,0,0,0,60.246,305.174Zm0,0" transform="translate(-47.302 -238.182)" fill="#c8e7f7"/>
      <path id="Trazado_109959" data-name="Trazado 109959" d="M114.277,74.136V70.2H7.5v3.941a4.734,4.734,0,0,1,4.734,4.734h97.308a4.733,4.733,0,0,1,4.734-4.734Zm0,0" transform="translate(-5.888 -55.115)" fill="#c8e7f7"/>
      <path id="Trazado_109960" data-name="Trazado 109960" d="M176.816,70.2h40.577V78.87H176.816Zm0,0" transform="translate(-138.828 -55.115)" fill="#8cbcd6"/>
      <path id="Trazado_109961" data-name="Trazado 109961" d="M463.707,70.2v3.941a4.734,4.734,0,0,0-4.734,4.734h5.047a4.733,4.733,0,0,1,4.734-4.734V70.2Zm0,0" transform="translate(-360.366 -55.115)" fill="#8cbcd6"/>
      <path id="Trazado_109962" data-name="Trazado 109962" d="M161.566,13.729V31.31a6.228,6.228,0,0,0,6.229,6.229h28.119a6.228,6.228,0,0,0,6.229-6.229V13.729A6.229,6.229,0,0,0,195.914,7.5H167.795a6.229,6.229,0,0,0-6.229,6.229Zm0,0" transform="translate(-126.854 -5.889)" fill="#ffeb96"/>
      <path id="Trazado_109963" data-name="Trazado 109963" d="M122.98,286.776a1.611,1.611,0,0,0-1.611,1.611v25.689H88.155V283.581a3.764,3.764,0,0,0-3.76-3.761H65.781a3.765,3.765,0,0,0-3.76,3.761v30.495H28.808V288.387a1.611,1.611,0,1,0-3.223,0v26.441a2.474,2.474,0,0,0,2.471,2.471H122.12a2.474,2.474,0,0,0,2.471-2.471V288.387a1.611,1.611,0,0,0-1.611-1.611Zm-57.735,27.3V283.581a.538.538,0,0,1,.537-.538H84.4a.538.538,0,0,1,.537.538v30.495Zm0,0" transform="translate(-20.088 -219.703)" fill="#47286d"/>
      <path id="Trazado_109964" data-name="Trazado 109964" d="M357.871,320.3a3.435,3.435,0,0,0,3.431-3.431V299.285a3.434,3.434,0,0,0-3.431-3.43H337.931a3.434,3.434,0,0,0-3.431,3.43v17.584a3.435,3.435,0,0,0,3.431,3.431Zm-20.149-3.431V299.285a.208.208,0,0,1,.208-.207h19.941a.208.208,0,0,1,.208.207v17.584a.208.208,0,0,1-.208.208H337.931A.208.208,0,0,1,337.722,316.869Zm0,0" transform="translate(-262.635 -232.294)" fill="#47286d"/>
      <path id="Trazado_109965" data-name="Trazado 109965" d="M76.117,320.3a3.435,3.435,0,0,0,3.431-3.431V299.285a3.434,3.434,0,0,0-3.431-3.43H56.177a3.434,3.434,0,0,0-3.431,3.43v17.584a3.435,3.435,0,0,0,3.431,3.431Zm-20.149-3.431V299.285a.208.208,0,0,1,.208-.207H76.117a.208.208,0,0,1,.208.207v17.584a.208.208,0,0,1-.208.208H56.177A.208.208,0,0,1,55.968,316.869Zm0,0" transform="translate(-41.413 -232.294)" fill="#47286d"/>
      <path id="Trazado_109966" data-name="Trazado 109966" d="M105.265,23.755a3.125,3.125,0,0,1,3.124-3.121A1.611,1.611,0,0,0,110,19.022V15.08a1.611,1.611,0,0,0-1.611-1.611h-26.6a1.611,1.611,0,0,0,0,3.223h24.988v.927a6.37,6.37,0,0,0-4.528,4.525H76.9V7.84A7.849,7.849,0,0,0,69.061,0H40.94A7.849,7.849,0,0,0,33.1,7.84v5.629H1.612A1.611,1.611,0,0,0,0,15.08v3.943a1.611,1.611,0,0,0,1.611,1.611,3.125,3.125,0,0,1,3.124,3.121,1.611,1.611,0,0,0,.77,1.375V36.135h-2.9A2.474,2.474,0,0,0,.134,38.606V47.38a2.474,2.474,0,0,0,2.472,2.471h2.9v12.4a1.611,1.611,0,0,0,3.223,0v-12.4h92.678v12.4a1.611,1.611,0,1,0,3.223,0v-12.4h2.9A2.474,2.474,0,0,0,110,47.38V38.606a2.474,2.474,0,0,0-2.472-2.471h-2.9v-11.1a1.611,1.611,0,0,0,.636-1.283ZM36.322,7.84A4.623,4.623,0,0,1,40.94,3.222H69.06A4.622,4.622,0,0,1,73.677,7.84V25.421a4.622,4.622,0,0,1-4.617,4.617H40.941a4.622,4.622,0,0,1-4.617-4.617V7.84Zm70.455,38.788H3.357v-7.27H106.777ZM8.728,36.135V25.366h19.54a1.611,1.611,0,0,0,0-3.223H7.751a6.37,6.37,0,0,0-4.528-4.525v-.927H33.1v8.73a7.849,7.849,0,0,0,7.84,7.84H69.06a7.849,7.849,0,0,0,7.84-7.84v-.055h24.506V36.135Zm0,0" fill="#47286d"/>
      <path id="Trazado_109967" data-name="Trazado 109967" d="M216.4,359.543h-1.289a1.611,1.611,0,1,0,0,3.223H216.4a1.611,1.611,0,1,0,0-3.223Zm0,0" transform="translate(-167.631 -282.298)" fill="#47286d"/>
      <path id="Trazado_109968" data-name="Trazado 109968" d="M196.391,33.156h1.975l2.026,9.685a4.092,4.092,0,0,0,3.987,3.239h9.568a4.1,4.1,0,0,0,3.811-2.634l3.16-8.365a2.591,2.591,0,0,0-2.423-3.506H204.962a1.611,1.611,0,1,0,0,3.223H217.58l-2.837,7.509a.855.855,0,0,1-.8.551h-9.569a.855.855,0,0,1-.833-.676l-2.034-9.722a3.189,3.189,0,0,0-3.109-2.525h-2.012a1.611,1.611,0,0,0,0,3.223Zm0,0" transform="translate(-152.933 -23.503)" fill="#47286d"/>
      <path id="Trazado_109969" data-name="Trazado 109969" d="M233.291,111.383h-.43a1.611,1.611,0,1,0,0,3.223h.43a1.611,1.611,0,0,0,0-3.223Zm0,0" transform="translate(-181.567 -87.453)" fill="#47286d"/>
      <path id="Trazado_109970" data-name="Trazado 109970" d="M265.791,111.383h-.43a1.611,1.611,0,1,0,0,3.223h.43a1.611,1.611,0,0,0,0-3.223Zm0,0" transform="translate(-207.085 -87.453)" fill="#47286d"/>
    </g>
  </g>
</svg>
