<svg xmlns="http://www.w3.org/2000/svg" width="292" height="424.709" viewBox="0 0 292 424.709">
  <g id="Grupo_68157" data-name="Grupo 68157" transform="translate(-654 -6337.957)">
    <g id="Elipse_4690" data-name="Elipse 4690" transform="translate(701 6337.957)" fill="#fff" stroke="#8a8a8a" stroke-width="3" stroke-dasharray="3 4">
      <circle cx="98" cy="98" r="98" stroke="none"/>
      <circle cx="98" cy="98" r="96.5" fill="none"/>
    </g>
    <ellipse id="Elipse_4692" data-name="Elipse 4692" cx="87.5" cy="87" rx="87.5" ry="87" transform="translate(713 6348.957)" fill="#bb83ff" opacity="0.5"/>
    <rect id="Rectángulo_6394" data-name="Rectángulo 6394" width="292" height="195.624" rx="5" transform="translate(654 6567.043)" fill="#fff"/>
    <text id="E-commerce_" data-name="E-commerce
" transform="translate(717 6581.893)" fill="#12263f" font-size="18" font-family="Roboto-Black, Roboto" font-weight="800"><tspan x="30.881" y="19">E-commerce</tspan></text>
    <line id="Línea_271" data-name="Línea 271" y1="33" transform="translate(797.5 6533.957)" fill="none" stroke="#707070" stroke-width="3" stroke-dasharray="3 4" style="mix-blend-mode: multiply;isolation: isolate"/>
    <text id="Este_es_un_lugar_para_comercializar_productos_de_una_sola_marca_no_comparte_espacio_con_su_competencia._" data-name="Este es un lugar para comercializar productos de una sola marca, no comparte espacio con su competencia.
" transform="translate(681 6617.893)" fill="#12263f" font-size="16" font-family="Roboto-Regular, Roboto"><tspan x="0" y="17">Este es un lugar para </tspan><tspan x="0" y="41">comercializar productos de una </tspan><tspan x="0" y="65">sola marca, no comparte espacio </tspan><tspan x="0" y="89">con su competencia.</tspan></text>
    <g id="mobilephone_·_ecommerce_·_shopping_·_buy_·_cart" data-name="mobilephone · ecommerce · shopping · buy · cart" transform="translate(750.667 6381.664)">
      <path id="Trazado_110017" data-name="Trazado 110017" d="M3,9H60.045V74.434H3Z" transform="translate(0.678 4.744)" fill="#f9e478"/>
      <path id="Trazado_110018" data-name="Trazado 110018" d="M53.333,9V37.522A33.556,33.556,0,0,1,19.778,71.078H3v3.356H60.045V9Z" transform="translate(0.678 4.744)" fill="#ffc477"/>
      <path id="Trazado_110019" data-name="Trazado 110019" d="M33,13H79.978V53.267H33Z" transform="translate(21.011 7.456)" fill="#bb83ff"/>
      <path id="Trazado_110020" data-name="Trazado 110020" d="M73.267,13V36.489A13.422,13.422,0,0,1,59.845,49.911H33v3.356H79.978V13Z" transform="translate(21.011 7.456)" fill="#995de1"/>
      <path id="Trazado_110021" data-name="Trazado 110021" d="M59.608,20H43.25l1.258,10.067H56.253Z" transform="translate(27.959 12.2)" fill="#f17781"/>
      <path id="Trazado_110022" data-name="Trazado 110022" d="M27,55V65.067H60.556V55H27Z" transform="translate(16.945 35.923)" fill="#31d9e7"/>
      <path id="Trazado_110023" data-name="Trazado 110023" d="M34.489,21.711,41.2,23.389V16.678L34.517,15H31.133a5.033,5.033,0,1,1-10.067,0h-3.4L11,16.678v6.711l6.711-1.678V38.489H34.489Z" transform="translate(6.1 8.811)" fill="#f17781"/>
      <path id="Trazado_110024" data-name="Trazado 110024" d="M53.333,3H9.711A6.711,6.711,0,0,0,3,9.711v3.356H60.045V9.711A6.711,6.711,0,0,0,53.333,3Z" transform="translate(0.678 0.678)" fill="#31d9e7"/>
      <path id="Trazado_110025" data-name="Trazado 110025" d="M3,54.711a6.711,6.711,0,0,0,6.711,6.711H46.622a6.711,6.711,0,0,0,6.711-6.711V48H3Z" transform="translate(0.678 31.178)" fill="#31d9e7"/>
      <path id="Trazado_110026" data-name="Trazado 110026" d="M57.2,41.777a3.366,3.366,0,0,0-3.356,3.356V41.777a3.356,3.356,0,1,0-6.711,0V40.1a3.356,3.356,0,0,0-6.711,0V28.355a3.376,3.376,0,0,0-3.653-3.342,3.481,3.481,0,0,0-3.059,3.53v16.59H30.356A3.366,3.366,0,0,0,27,48.488V63.9a10.067,10.067,0,0,0,1.692,5.586l1.1,1.65a3.356,3.356,0,0,1,.564,1.862v2.339H57.2V72.994a3.356,3.356,0,0,1,.564-1.863l1.1-1.65A10.067,10.067,0,0,0,60.556,63.9V45.133A3.381,3.381,0,0,0,57.2,41.777Z" transform="translate(16.945 15.59)" fill="#ffbcab"/>
      <g id="Grupo_62542" data-name="Grupo 62542" transform="translate(2 2)">
        <path id="Trazado_110027" data-name="Trazado 110027" d="M17.678,8.356h1.678a1.678,1.678,0,1,0,0-3.356H17.678a1.678,1.678,0,1,0,0,3.356Z" transform="translate(7.489 0.033)" fill="#47286d"/>
        <path id="Trazado_110028" data-name="Trazado 110028" d="M22.678,8.356h1.678a1.678,1.678,0,1,0,0-3.356H22.678a1.678,1.678,0,1,0,0,3.356Z" transform="translate(10.878 0.033)" fill="#47286d"/>
        <path id="Trazado_110029" data-name="Trazado 110029" d="M100.989,18.778H62.4V10.389A8.389,8.389,0,0,0,54.011,2H10.389A8.389,8.389,0,0,0,2,10.389v75.5a8.389,8.389,0,0,0,8.389,8.389H42.267v6.711a1.678,1.678,0,0,0,1.678,1.678H77.5a1.678,1.678,0,0,0,1.678-1.678V90.923A1.678,1.678,0,0,0,77.5,89.245H75.822V88.59a1.716,1.716,0,0,1,.285-.94L77.2,86.007a11.744,11.744,0,0,0,1.98-6.527V62.4h21.811a1.678,1.678,0,0,0,1.678-1.678V20.456A1.678,1.678,0,0,0,100.989,18.778ZM5.356,10.389a5.048,5.048,0,0,1,5.033-5.033H54.011a5.048,5.048,0,0,1,5.033,5.033v1.678H5.356Zm0,5.033H59.045v3.356H54.011a1.678,1.678,0,0,0-1.678,1.678V39.23a5.24,5.24,0,0,0-3.356,4.9V59.045H47.3a5.048,5.048,0,0,0-5.033,5.033V77.5H5.356Zm36.911,75.5H10.389a5.048,5.048,0,0,1-5.033-5.033V80.856H42.367a11.756,11.756,0,0,0,1.879,5.151l1.091,1.644a1.716,1.716,0,0,1,.285.94v.654H43.945A1.678,1.678,0,0,0,42.267,90.923Zm33.556,8.389h-30.2V92.6h30.2Zm0-19.831a8.416,8.416,0,0,1-1.409,4.664l-1.107,1.644a5.033,5.033,0,0,0-.839,2.8v.654H48.978V88.59a5.033,5.033,0,0,0-.839-2.8l-1.107-1.644a8.416,8.416,0,0,1-1.409-4.664v-15.4A1.678,1.678,0,0,1,47.3,62.4h1.678v8.389a1.678,1.678,0,1,0,3.356,0V44.129a1.832,1.832,0,0,1,1.527-1.862,1.653,1.653,0,0,1,1.342.52,1.557,1.557,0,0,1,.487,1.158V64.078a1.678,1.678,0,0,0,3.356,0V55.689a1.678,1.678,0,0,1,1.678-1.678,1.592,1.592,0,0,1,1.191.52,1.557,1.557,0,0,1,.487,1.158v8.389a1.678,1.678,0,0,0,3.356,0V57.367a1.678,1.678,0,0,1,1.678-1.678,1.592,1.592,0,0,1,1.191.52,1.557,1.557,0,0,1,.487,1.158v6.711a1.678,1.678,0,0,0,3.356,0V60.722a1.678,1.678,0,0,1,1.678-1.678,1.592,1.592,0,0,1,1.191.52,1.557,1.557,0,0,1,.487,1.158ZM99.311,59.045H78.876a4.986,4.986,0,0,0-1.158-1.862A5.136,5.136,0,0,0,72.3,56.041a4.936,4.936,0,0,0-1.292-2.215,5.176,5.176,0,0,0-6.04-.839,4.6,4.6,0,0,0-.671-.839,5.144,5.144,0,0,0-5.251-1.208v-7a4.956,4.956,0,0,0-1.46-3.54,5.114,5.114,0,0,0-1.9-1.191V22.133H99.311Z" transform="translate(-2 -2)" fill="#47286d"/>
        <path id="Trazado_110030" data-name="Trazado 110030" d="M11.356,33H9.678a1.678,1.678,0,1,0,0,3.356h1.678a1.678,1.678,0,1,0,0-3.356Z" transform="translate(2.067 19.011)" fill="#47286d"/>
        <path id="Trazado_110031" data-name="Trazado 110031" d="M31.456,33H14.678a1.678,1.678,0,1,0,0,3.356H31.456a1.678,1.678,0,0,0,0-3.356Z" transform="translate(5.456 19.011)" fill="#47286d"/>
        <path id="Trazado_110032" data-name="Trazado 110032" d="M11.356,37H9.678a1.678,1.678,0,1,0,0,3.356h1.678a1.678,1.678,0,1,0,0-3.356Z" transform="translate(2.067 21.722)" fill="#47286d"/>
        <path id="Trazado_110033" data-name="Trazado 110033" d="M28.1,37H14.678a1.678,1.678,0,1,0,0,3.356H28.1A1.678,1.678,0,1,0,28.1,37Z" transform="translate(5.456 21.722)" fill="#47286d"/>
        <path id="Trazado_110034" data-name="Trazado 110034" d="M11.356,41H9.678a1.678,1.678,0,1,0,0,3.356h1.678a1.678,1.678,0,1,0,0-3.356Z" transform="translate(2.067 24.434)" fill="#47286d"/>
        <path id="Trazado_110035" data-name="Trazado 110035" d="M28.1,41H14.678a1.678,1.678,0,1,0,0,3.356H28.1A1.678,1.678,0,1,0,28.1,41Z" transform="translate(5.456 24.434)" fill="#47286d"/>
        <ellipse id="Elipse_4710" data-name="Elipse 4710" cx="3.5" cy="3" rx="3.5" ry="3" transform="translate(68.333 42.333)" fill="#47286d"/>
        <ellipse id="Elipse_4711" data-name="Elipse 4711" cx="3.5" cy="3" rx="3.5" ry="3" transform="translate(77.333 42.333)" fill="#47286d"/>
        <path id="Trazado_110036" data-name="Trazado 110036" d="M41.678,20.356h1.874l.233,1.864v.049l1.255,10.04a1.678,1.678,0,0,0,1.671,1.47H58.456a1.678,1.678,0,0,0,1.592-1.148L63.4,22.564a1.678,1.678,0,0,0-1.592-2.208H46.934L46.7,18.47A1.678,1.678,0,0,0,45.033,17H41.678a1.678,1.678,0,1,0,0,3.356Zm17.806,3.356-2.238,6.711h-9.06l-.839-6.711Z" transform="translate(23.756 8.167)" fill="#47286d"/>
        <path id="Trazado_110037" data-name="Trazado 110037" d="M25.389,51H18.678a1.678,1.678,0,0,0,0,3.356h6.711a1.678,1.678,0,1,0,0-3.356Z" transform="translate(8.167 31.211)" fill="#47286d"/>
        <path id="Trazado_110038" data-name="Trazado 110038" d="M42.287,15.728,35.6,14.05A1.664,1.664,0,0,0,35.2,14H31.811a1.678,1.678,0,0,0-1.678,1.678,3.356,3.356,0,1,1-6.711,0A1.678,1.678,0,0,0,21.744,14h-3.4a1.688,1.688,0,0,0-.41.05l-6.669,1.678A1.678,1.678,0,0,0,10,17.356v6.711a1.678,1.678,0,0,0,2.085,1.627l4.626-1.156V39.167a1.678,1.678,0,0,0,1.678,1.678H35.167a1.678,1.678,0,0,0,1.678-1.678V24.538l4.626,1.156a1.678,1.678,0,0,0,2.085-1.627V17.356a1.678,1.678,0,0,0-1.269-1.628ZM40.2,21.917l-4.626-1.156a1.679,1.679,0,0,0-2.085,1.627v15.1H20.067v-15.1a1.678,1.678,0,0,0-2.085-1.627l-4.626,1.156V18.664l5.2-1.309H20.28a6.711,6.711,0,0,0,13,0h1.711l5.21,1.309Z" transform="translate(3.422 6.133)" fill="#47286d"/>
      </g>
    </g>
  </g>
</svg>
