<svg xmlns="http://www.w3.org/2000/svg" width="292" height="528.043" viewBox="0 0 292 528.043">
  <g id="Grupo_68161" data-name="Grupo 68161" transform="translate(-966 -6794.785)">
    <g id="Elipse_4696" data-name="Elipse 4696" transform="translate(1013 6794.785)" fill="#fff" stroke="#8a8a8a" stroke-width="3" stroke-dasharray="3 4">
      <circle cx="98" cy="98" r="98" stroke="none"/>
      <circle cx="98" cy="98" r="96.5" fill="none"/>
    </g>
    <ellipse id="Elipse_4697" data-name="Elipse 4697" cx="87.5" cy="87" rx="87.5" ry="87" transform="translate(1025 6805.785)" fill="#bb83ff" opacity="0.5"/>
    <rect id="Rectángulo_6396" data-name="Rectángulo 6396" width="292" height="298.957" rx="5" transform="translate(966 7023.871)" fill="#fff"/>
    <text id="Google_Adwords" data-name="Google Adwords" transform="translate(1015 7038.721)" fill="#12263f" font-size="18" font-family="Roboto-Black, Roboto" font-weight="800"><tspan x="30.102" y="19">Google Adwords</tspan></text>
    <line id="Línea_273" data-name="Línea 273" y1="33" transform="translate(1109.5 6990.785)" fill="none" stroke="#707070" stroke-width="3" stroke-dasharray="3 4" style="mix-blend-mode: multiply;isolation: isolate"/>
    <text id="Define_dos_maneras_de_anunciar:_1._La_red_de_búsqueda_y_2._la_red_de_visualización._La_primera_ubica_anuncios_en_la_parte_superior_de_la_pantalla_referentes_a_la_palabra_de_búsqueda_y_la_segunda_hace_referencia_a_los_anuncios_gráficos_que_aparecen_en_las_p" data-name="Define dos maneras de anunciar: 1. La red de búsqueda y 2. la red de visualización. La primera ubica anuncios en la parte superior de la pantalla referentes a la palabra de búsqueda y la segunda hace referencia a los anuncios gráficos que aparecen en las p" transform="translate(993 7074.721)" fill="#12263f" font-size="16" font-family="Roboto-Regular, Roboto"><tspan x="0" y="17">Define dos maneras de anunciar: </tspan><tspan x="0" y="41">1. La red de búsqueda y 2. la red </tspan><tspan x="0" y="65">de visualización. La primera ubica </tspan><tspan x="0" y="89">anuncios en la parte superior de </tspan><tspan x="0" y="113">la pantalla referentes a la palabra </tspan><tspan x="0" y="137">de búsqueda y la segunda hace </tspan><tspan x="0" y="161">referencia a los anuncios gráficos </tspan><tspan x="0" y="185">que aparecen en las páginas web </tspan><tspan x="0" y="209">visitadas.</tspan></text>
    <g id="Grupo_62637" data-name="Grupo 62637" transform="translate(142.198 6770.604)">
      <path id="Trazado_110106" data-name="Trazado 110106" d="M964.026,79.282c3.014-7.132,7.808-12.146,15.938-12.842,8.276-.709,14.067,3.073,18.132,10.158,11.512,20.067,23.174,40.048,34.717,60.1,5.472,9.505,2.849,20.331-6.033,25.466-9.012,5.211-19.446,2.213-25.1-7.346-6.74-11.405-13.369-22.876-20.046-34.318-4.238-7.431-8.258-15-12.78-22.252C965.183,92.347,962.837,86.321,964.026,79.282Z" transform="translate(-11.858)" fill="#4c85f4" stroke="#47286d" stroke-width="3"/>
      <path id="Trazado_110107" data-name="Trazado 110107" d="M953.956,83.533c-1.19,7.038,1.157,13.065,4.833,18.965,4.521,7.255,8.542,14.82,12.78,22.252l-18.378,31.2a21.092,21.092,0,0,1,.123-2.616c1.9-11.227-8.02-20.9-17.974-20.4-4.788.241-8.591,2.124-12.317,4.675.427-3.087,2.543-5.352,4-7.9,8.6-15.054,17.34-30.029,26.043-45.025A10.3,10.3,0,0,1,953.956,83.533Z" transform="translate(-1.788 -4.251)" fill="#ecbb2d" stroke="#47286d" stroke-width="3"/>
      <path id="Trazado_110108" data-name="Trazado 110108" d="M921.234,153.84c3.727-2.55,7.53-4.434,12.318-4.675,9.954-.5,19.87,9.176,17.974,20.4a21.068,21.068,0,0,0-.123,2.616c-4.207,9.219-11.229,13.871-19.36,12.825-13.571-1.744-20.418-15.656-13.53-27.509.562-.967,1.212-1.882,1.823-2.823l.976-.865Z" transform="translate(0 -20.488)" fill="#60a853" stroke="#47286d" stroke-width="3"/>
      <path id="Trazado_110109" data-name="Trazado 110109" d="M922.8,155.345l-.976.865C922.022,155.778,922.148,155.264,922.8,155.345Z" transform="translate(-1.492 -22.02)" fill="#ecbb2d" stroke="#47286d" stroke-width="3"/>
    </g>
  </g>
</svg>
