<svg xmlns="http://www.w3.org/2000/svg" width="117.909" height="117.909" viewBox="0 0 117.909 117.909">
  <g id="customer-behavior_1_" data-name="customer-behavior (1)" transform="translate(-2 -2)">
    <path id="Trazado_109026" data-name="Trazado 109026" d="M84.717,38,77.78,67.477H42.407L35.47,38Z" transform="translate(32.304 34.745)" fill="#fda22e"/>
    <ellipse id="Elipse_4543" data-name="Elipse 4543" cx="4" cy="3.5" rx="4" ry="3.5" transform="translate(45 35.909)" fill="#f82f45"/>
    <ellipse id="Elipse_4544" data-name="Elipse 4544" cx="3.5" cy="4" rx="3.5" ry="4" transform="translate(103 109.909)" fill="#fda22e"/>
    <ellipse id="Elipse_4545" data-name="Elipse 4545" cx="4.5" cy="4" rx="4.5" ry="4" transform="translate(82 109.909)" fill="#fda22e"/>
    <path id="Trazado_109027" data-name="Trazado 109027" d="M51,23h9.826V40.686H51Z" transform="translate(47.293 20.268)" fill="#fda22e"/>
    <path id="Trazado_109028" data-name="Trazado 109028" d="M41,27h9.826v9.826H41Z" transform="translate(37.641 24.129)" fill="#f82f45"/>
    <path id="Trazado_109029" data-name="Trazado 109029" d="M55.826,25.9V43.582H46V20h9.826Z" transform="translate(42.467 17.373)" fill="#4bbee5"/>
    <path id="Trazado_109030" data-name="Trazado 109030" d="M24.813,49.68,22.652,60.449,12.826,80.1,3,74.2l7.861-17.686L13.926,41.21Z" transform="translate(0.965 37.844)" fill="#2aa0aa"/>
    <path id="Trazado_109031" data-name="Trazado 109031" d="M50.233,47.547v1.965H28.617l7.861,15.721,5.9,33.408H30.582l-5.9-27.512L10.066,59.751l-.039-.02A7.878,7.878,0,0,1,7,53.521V35.756a13.756,13.756,0,0,1,27.512,0v3.93h7.861A7.858,7.858,0,0,1,50.233,47.547Z" transform="translate(4.826 19.303)" fill="#31d9e7"/>
    <ellipse id="Elipse_4546" data-name="Elipse 4546" cx="12" cy="11.5" rx="12" ry="11.5" transform="translate(14 17.909)" fill="#31d9e7"/>
    <g id="Grupo_62129" data-name="Grupo 62129" transform="translate(2 2)">
      <path id="Trazado_109032" data-name="Trazado 109032" d="M115.979,61.831l-.517,2.193H69.332l-.568-2.415a1.967,1.967,0,0,0-1.914-1.515H57.024A9.837,9.837,0,0,0,47.2,50.268H41.3V48.3a15.724,15.724,0,0,0-8.419-13.909,13.756,13.756,0,1,0-14.6,0A15.724,15.724,0,0,0,9.861,48.3V66.074a9.759,9.759,0,0,0,2.881,6.949l-2.8,13.984L2.169,104.493a1.968,1.968,0,0,0,.784,2.484l9.826,5.9a1.957,1.957,0,0,0,1.012.281,1.926,1.926,0,0,0,.548-.079,1.967,1.967,0,0,0,1.209-1.008l9.826-19.652a2.021,2.021,0,0,0,.169-.491l1.535-7.65.662.515L33.486,111.6a1.966,1.966,0,0,0,1.922,1.552H47.2a1.965,1.965,0,0,0,1.936-2.305l-5.9-33.408a1.977,1.977,0,0,0-.177-.536l-6.44-12.88H65.294L72.746,95.7v7.631a5.9,5.9,0,0,0,5.9,5.9h2.327a5.861,5.861,0,0,0,11.068,0h8.586a5.9,5.9,0,1,0,0-3.93H92.035a5.861,5.861,0,0,0-11.068,0H78.641a1.967,1.967,0,0,1-1.965-1.965v-5.9h33.408A1.967,1.967,0,0,0,112,95.917l7.861-33.408a2.039,2.039,0,0,0,.051-.45V60.094h-3.93ZM15.756,22.756a9.826,9.826,0,1,1,9.826,9.826A9.837,9.837,0,0,1,15.756,22.756Zm5.986,68.136-8.759,17.519L6.469,104.5l7.155-16.1a2.014,2.014,0,0,0,.13-.413l2.439-12.186,7.418,5.77Zm9.735-30.8a1.967,1.967,0,0,1-1.965-1.965V46.338h-3.93V58.129a5.9,5.9,0,0,0,5.9,5.9h.751L39.417,78.4l5.44,30.819H37L31.434,83.265a1.965,1.965,0,0,0-.713-1.14L16.069,70.731a5.942,5.942,0,0,1-2.278-4.657V48.3a11.791,11.791,0,0,1,23.582,0v3.93A1.965,1.965,0,0,0,39.338,54.2H47.2a5.9,5.9,0,0,1,5.9,5.9Zm74.676,45.2a1.965,1.965,0,1,1-1.965,1.965A1.967,1.967,0,0,1,106.153,105.292Zm-19.652,0a1.965,1.965,0,1,1-1.965,1.965A1.967,1.967,0,0,1,86.5,105.292Zm28.037-37.338-1.387,5.9H71.643l-1.387-5.9ZM72.569,77.78h39.657l-1.387,5.9H73.956Zm3.7,15.721-1.387-5.9h35.035l-1.387,5.9Z" transform="translate(-2 4.756)" fill="#47286d"/>
      <path id="Trazado_109033" data-name="Trazado 109033" d="M40.686,29.512V5.93h5.9V2H38.721a1.965,1.965,0,0,0-1.965,1.965V28.7l-5.335,5.335a5.8,5.8,0,0,0-2.525-.592,5.9,5.9,0,1,0,5.9,5.9,5.8,5.8,0,0,0-.592-2.525L40.111,30.9A1.96,1.96,0,0,0,40.686,29.512ZM28.9,41.3a1.965,1.965,0,1,1,1.965-1.965A1.967,1.967,0,0,1,28.9,41.3Z" transform="translate(18.268 -2)" fill="#47286d"/>
      <path id="Trazado_109034" data-name="Trazado 109034" d="M37,2h7.861V5.93H37Z" transform="translate(31.781 -2)" fill="#47286d"/>
      <path id="Trazado_109035" data-name="Trazado 109035" d="M37,6H58.617V9.93H37Z" transform="translate(31.781 1.861)" fill="#47286d"/>
      <path id="Trazado_109036" data-name="Trazado 109036" d="M55,10H68.756v3.93H55Z" transform="translate(49.153 5.721)" fill="#47286d"/>
      <path id="Trazado_109037" data-name="Trazado 109037" d="M37,14H62.547v3.93H37Z" transform="translate(31.781 9.582)" fill="#47286d"/>
      <path id="Trazado_109038" data-name="Trazado 109038" d="M43,2H62.652V5.93H43Z" transform="translate(37.571 -2)" fill="#47286d"/>
      <path id="Trazado_109039" data-name="Trazado 109039" d="M55,2H68.756V5.93H55Z" transform="translate(49.153 -2)" fill="#47286d"/>
      <path id="Trazado_109040" data-name="Trazado 109040" d="M50,6H73.582V9.93H50Z" transform="translate(44.327 1.861)" fill="#47286d"/>
      <path id="Trazado_109041" data-name="Trazado 109041" d="M37,10h3.93v3.93H37Z" transform="translate(31.781 5.721)" fill="#47286d"/>
      <path id="Trazado_109042" data-name="Trazado 109042" d="M41,10H64.582v3.93H41Z" transform="translate(35.641 5.721)" fill="#47286d"/>
      <path id="Trazado_109043" data-name="Trazado 109043" d="M52,14h3.93v3.93H52Z" transform="translate(46.258 9.582)" fill="#47286d"/>
      <path id="Trazado_109044" data-name="Trazado 109044" d="M56,14h3.93v3.93H56Z" transform="translate(50.118 9.582)" fill="#47286d"/>
      <path id="Trazado_109045" data-name="Trazado 109045" d="M60,14h3.93v3.93H60Z" transform="translate(53.979 9.582)" fill="#47286d"/>
      <path id="Trazado_109046" data-name="Trazado 109046" d="M66.477,24.9v-3.93A1.965,1.965,0,0,0,64.512,19H54.686a1.965,1.965,0,0,0-1.965,1.965V32.756H44.861A1.965,1.965,0,0,0,42.9,34.721v7.861H37v3.93H82.2v-3.93H76.3V26.861A1.965,1.965,0,0,0,74.338,24.9ZM56.652,22.93h5.9V42.582h-5.9V22.93ZM46.826,36.686h5.9v5.9h-5.9Zm19.652,5.9V28.826h5.9V42.582Z" transform="translate(31.781 14.408)" fill="#47286d"/>
    </g>
  </g>
</svg>
