<svg xmlns="http://www.w3.org/2000/svg" width="292" height="528.043" viewBox="0 0 292 528.043">
  <g id="Grupo_68160" data-name="Grupo 68160" transform="translate(-654 -6794.785)">
    <g id="Elipse_4700" data-name="Elipse 4700" transform="translate(701 6794.785)" fill="#fff" stroke="#8a8a8a" stroke-width="3" stroke-dasharray="3 4">
      <circle cx="98" cy="98" r="98" stroke="none"/>
      <circle cx="98" cy="98" r="96.5" fill="none"/>
    </g>
    <ellipse id="Elipse_4703" data-name="Elipse 4703" cx="87.5" cy="87" rx="87.5" ry="87" transform="translate(713 6805.785)" fill="#bb83ff" opacity="0.5"/>
    <rect id="Rectángulo_6399" data-name="Rectángulo 6399" width="292" height="298.957" rx="5" transform="translate(654 7023.871)" fill="#fff"/>
    <text id="Redes_sociales_" data-name="Redes sociales
" transform="translate(717 7038.721)" fill="#12263f" font-size="18" font-family="Roboto-Black, Roboto" font-weight="800"><tspan x="21.841" y="19">Redes sociales</tspan></text>
    <line id="Línea_276" data-name="Línea 276" y1="33" transform="translate(797.5 6990.785)" fill="none" stroke="#707070" stroke-width="3" stroke-dasharray="3 4" style="mix-blend-mode: multiply;isolation: isolate"/>
    <text id="Facebook_e_Instagram_se_han_convertido_en_canales_de_ventas._Se_han_convertido_en_el_mejor_escenario_de_negocios." data-name="Facebook e Instagram se han convertido en canales de ventas.  Se han convertido en el mejor escenario de negocios." transform="translate(681 7074.721)" fill="#12263f" font-size="16" font-family="Roboto-Regular, Roboto"><tspan x="0" y="17">Facebook e Instagram se han </tspan><tspan x="0" y="41" xml:space="preserve">convertido en canales de ventas.  </tspan><tspan x="0" y="65">Se han convertido en el mejor </tspan><tspan x="0" y="89">escenario de negocios.</tspan></text>
    <g id="social-networks" transform="translate(610.609 6836.959)">
      <g id="Grupo_62620" data-name="Grupo 62620" transform="translate(167.1 66.264)">
        <path id="Trazado_110097" data-name="Trazado 110097" d="M261.539,261.423H210.681a7.867,7.867,0,0,0-7.867,7.867v28.677a7.867,7.867,0,0,0,7.867,7.867h13.59a2.272,2.272,0,0,1,1.814.9l8.63,11.435a1.748,1.748,0,0,0,2.791,0l8.63-11.435a2.273,2.273,0,0,1,1.814-.9h13.59a7.867,7.867,0,0,0,7.867-7.867V269.29A7.867,7.867,0,0,0,261.539,261.423Z" transform="translate(-202.814 -261.423)" fill="#df75a5" stroke="#47286d" stroke-width="3"/>
      </g>
      <g id="Grupo_62621" data-name="Grupo 62621" transform="translate(167.266 66.429)">
        <path id="Trazado_110098" data-name="Trazado 110098" d="M263.7,262.143a7.908,7.908,0,0,1,.165,1.608v33.572a2.972,2.972,0,0,1-2.972,2.972H205.143a7.906,7.906,0,0,1-1.608-.165,7.869,7.869,0,0,0,7.7,6.258h13.59a2.273,2.273,0,0,1,1.814.9l8.63,11.435a1.748,1.748,0,0,0,2.791,0l8.63-11.435a2.273,2.273,0,0,1,1.814-.9H262.1a7.867,7.867,0,0,0,7.867-7.867V269.845A7.869,7.869,0,0,0,263.7,262.143Z" transform="translate(-203.535 -262.143)" fill="#dd5790" stroke="#47286d" stroke-width="3"/>
      </g>
      <g id="Grupo_62622" data-name="Grupo 62622" transform="translate(187.216 75.457)">
        <path id="Trazado_110099" data-name="Trazado 110099" d="M310.7,327.887h-13.91a6.225,6.225,0,0,1-6.225-6.225v-13.91a6.225,6.225,0,0,1,6.225-6.225H310.7a6.225,6.225,0,0,1,6.225,6.225v13.91A6.225,6.225,0,0,1,310.7,327.887Z" transform="translate(-290.562 -301.526)" fill="#fff0af"/>
      </g>
      <path id="Trazado_110100" data-name="Trazado 110100" d="M314.021,303.113a6.214,6.214,0,0,1,.364,2.1v13.91a6.225,6.225,0,0,1-6.225,6.225H294.25a6.216,6.216,0,0,1-2.1-.364,6.227,6.227,0,0,0,5.861,4.125h13.91a6.225,6.225,0,0,0,6.225-6.225v-13.91A6.227,6.227,0,0,0,314.021,303.113Z" transform="translate(-104.57 -227.292)" fill="#ffe07d"/>
      <g id="Grupo_62623" data-name="Grupo 62623" transform="translate(195.498 83.739)">
        <circle id="Elipse_4714" data-name="Elipse 4714" cx="4.898" cy="4.898" r="4.898" transform="translate(0)" fill="#df75a5"/>
      </g>
      <path id="Trazado_110101" data-name="Trazado 110101" d="M333.885,338.686a4.9,4.9,0,0,1-6.163,6.163,4.9,4.9,0,1,0,6.163-6.163Z" transform="translate(-131.987 -254.71)" fill="#dd5790"/>
      <g id="Grupo_62624" data-name="Grupo 62624" transform="translate(142.391 0)">
        <path id="Trazado_110102" data-name="Trazado 110102" d="M201.116,0H150.258a7.867,7.867,0,0,0-7.867,7.867V36.544a7.867,7.867,0,0,0,7.867,7.867h13.59a2.272,2.272,0,0,1,1.814.9l8.63,11.435a1.748,1.748,0,0,0,2.791,0l8.63-11.435a2.273,2.273,0,0,1,1.814-.9h13.59a7.867,7.867,0,0,0,7.867-7.867V7.867A7.867,7.867,0,0,0,201.116,0Z" transform="translate(-142.391 0)" fill="#4278c3" stroke="#47286d" stroke-width="3"/>
      </g>
      <g id="Grupo_62625" data-name="Grupo 62625" transform="translate(142.556 0.165)">
        <path id="Trazado_110103" data-name="Trazado 110103" d="M203.28.72a7.908,7.908,0,0,1,.165,1.608V35.9a2.972,2.972,0,0,1-2.972,2.972H144.72a7.906,7.906,0,0,1-1.608-.165,7.869,7.869,0,0,0,7.7,6.258H164.4a2.272,2.272,0,0,1,1.814.9l8.63,11.435a1.748,1.748,0,0,0,2.791,0l8.63-11.435a2.273,2.273,0,0,1,1.814-.9h13.59a7.867,7.867,0,0,0,7.867-7.867V8.422A7.87,7.87,0,0,0,203.28.72Z" transform="translate(-143.112 -0.72)" fill="#335995" stroke="#47286d" stroke-width="3"/>
      </g>
      <g id="Grupo_62628" data-name="Grupo 62628" transform="translate(165.337 5.553)">
        <g id="Grupo_62627" data-name="Grupo 62627" transform="translate(0 0)">
          <g id="Grupo_62626" data-name="Grupo 62626">
            <path id="Trazado_110104" data-name="Trazado 110104" d="M261.549,33h1.411a.365.365,0,0,0,.365-.365V27.625a.365.365,0,0,0-.365-.365h-1.411a8.788,8.788,0,0,0-8.788,8.788v1.279a.243.243,0,0,1-.243.243h-2.456a.365.365,0,0,0-.365.365v5.012a.365.365,0,0,0,.365.365h2.456a.243.243,0,0,1,.243.243v9.882a.365.365,0,0,0,.365.365h5.012a.365.365,0,0,0,.365-.365V43.554a.243.243,0,0,1,.243-.243H261.2a.365.365,0,0,0,.365-.365V37.935a.365.365,0,0,0-.365-.365h-2.455a.243.243,0,0,1-.243-.243V36.048A3.047,3.047,0,0,1,261.549,33Z" transform="translate(-249.697 -27.26)" fill="#f4fbff"/>
          </g>
        </g>
      </g>
      <g id="Grupo_62629" data-name="Grupo 62629" transform="translate(171.31 5.553)">
        <path id="Trazado_110105" data-name="Trazado 110105" d="M290.558,27.259h-1.411c-.3,0-.594.015-.885.044a.363.363,0,0,1,.194.32v5.012a.365.365,0,0,1-.365.365h-1.411a3.047,3.047,0,0,0-3.047,3.047v1.279a.243.243,0,0,0,.243.243h2.456a.365.365,0,0,1,.365.365v5.012a.365.365,0,0,1-.365.365h-2.456a.243.243,0,0,0-.243.243v9.882a.365.365,0,0,1-.365.365h2.467a.365.365,0,0,0,.365-.365V43.554a.243.243,0,0,1,.243-.243H288.8a.365.365,0,0,0,.365-.365V37.934a.364.364,0,0,0-.365-.365h-2.456a.243.243,0,0,1-.243-.243V36.047A3.047,3.047,0,0,1,289.148,33h1.411a.365.365,0,0,0,.365-.365V27.624A.365.365,0,0,0,290.558,27.259Z" transform="translate(-283.269 -27.259)" fill="#e4f6ff"/>
      </g>
      <g id="Grupo_62636" data-name="Grupo 62636" transform="translate(205.519 79.391)">
        <circle id="Elipse_4716" data-name="Elipse 4716" cx="1.987" cy="1.987" r="1.987" fill="#dd5790"/>
      </g>
    </g>
  </g>
</svg>
