<svg xmlns="http://www.w3.org/2000/svg" width="292" height="424.709" viewBox="0 0 292 424.709">
  <g id="Grupo_68155" data-name="Grupo 68155" transform="translate(-654 -6337.957)">
    <g id="Elipse_4690" data-name="Elipse 4690" transform="translate(701 6337.957)" fill="#fff" stroke="#8a8a8a" stroke-width="3" stroke-dasharray="3 4">
      <circle cx="98" cy="98" r="98" stroke="none"/>
      <circle cx="98" cy="98" r="96.5" fill="none"/>
    </g>
    <ellipse id="Elipse_4692" data-name="Elipse 4692" cx="87.5" cy="87" rx="87.5" ry="87" transform="translate(713 6348.957)" fill="#bb83ff" opacity="0.5"/>
    <rect id="Rectángulo_6394" data-name="Rectángulo 6394" width="292" height="195.624" rx="5" transform="translate(654 6567.043)" fill="#fff"/>
    <path id="Trazado_113697" data-name="Trazado 113697" d="M39.784,13.568H34.933v3.059h5.73V19H31.848V6.2h8.833V8.585H34.933v2.7h4.852Zm7.787,1.055H42.289V12.338h5.282ZM53.9,16.891a1.317,1.317,0,0,0,.967-.338,1.241,1.241,0,0,0,.334-.945h2.777a3.288,3.288,0,0,1-1.121,2.566,4.168,4.168,0,0,1-2.887,1,4.22,4.22,0,0,1-3.27-1.3,5.125,5.125,0,0,1-1.2-3.6v-.123a5.792,5.792,0,0,1,.532-2.544,3.872,3.872,0,0,1,1.534-1.7,4.573,4.573,0,0,1,2.373-.593,4.116,4.116,0,0,1,2.944,1.028,3.647,3.647,0,0,1,1.09,2.786H55.2A1.626,1.626,0,0,0,54.84,12a1.244,1.244,0,0,0-.967-.4q-1.151,0-1.345,1.468a10.357,10.357,0,0,0-.062,1.283,4.068,4.068,0,0,0,.343,1.986A1.187,1.187,0,0,0,53.9,16.891Zm4.957-2.733a5.613,5.613,0,0,1,.554-2.536A3.96,3.96,0,0,1,61,9.912a4.791,4.791,0,0,1,2.435-.6A4.373,4.373,0,0,1,66.8,10.637a5.076,5.076,0,0,1,1.23,3.6v.105A4.925,4.925,0,0,1,66.8,17.871a4.384,4.384,0,0,1-3.344,1.305,4.434,4.434,0,0,1-3.261-1.217,4.761,4.761,0,0,1-1.327-3.3Zm2.962.185a3.538,3.538,0,0,0,.413,1.934,1.376,1.376,0,0,0,1.222.615q1.582,0,1.617-2.435v-.3q0-2.558-1.635-2.558-1.485,0-1.608,2.206ZM72.137,9.49l.1,1.116a3.27,3.27,0,0,1,2.716-1.292,2.407,2.407,0,0,1,2.435,1.433,3.165,3.165,0,0,1,2.795-1.433q2.892,0,2.971,3.5V19H80.179V13a1.813,1.813,0,0,0-.246-1.063,1.048,1.048,0,0,0-.9-.334,1.4,1.4,0,0,0-1.31.782l.009.123V19H74.765V13.015a1.906,1.906,0,0,0-.237-1.081,1.045,1.045,0,0,0-.905-.334,1.42,1.42,0,0,0-1.3.782V19H69.359V9.49Zm15.5,0,.1,1.116a3.27,3.27,0,0,1,2.716-1.292,2.407,2.407,0,0,1,2.435,1.433,3.165,3.165,0,0,1,2.795-1.433q2.892,0,2.971,3.5V19H95.683V13a1.813,1.813,0,0,0-.246-1.063,1.048,1.048,0,0,0-.9-.334,1.4,1.4,0,0,0-1.31.782l.009.123V19H90.269V13.015a1.906,1.906,0,0,0-.237-1.081,1.045,1.045,0,0,0-.905-.334,1.42,1.42,0,0,0-1.3.782V19H84.863V9.49Zm17.306,9.686a4.889,4.889,0,0,1-3.542-1.305,4.507,4.507,0,0,1-1.354-3.4v-.246a5.84,5.84,0,0,1,.541-2.575,3.955,3.955,0,0,1,1.578-1.727,4.763,4.763,0,0,1,2.461-.611,4.117,4.117,0,0,1,3.164,1.244,4.887,4.887,0,0,1,1.16,3.467v1.151h-5.889a2.135,2.135,0,0,0,.694,1.257,2.066,2.066,0,0,0,1.389.457,2.662,2.662,0,0,0,2.2-.984l1.354,1.6a3.784,3.784,0,0,1-1.569,1.217A5.3,5.3,0,0,1,104.946,19.176Zm-.334-7.576q-1.3,0-1.547,1.723h2.988v-.229a1.467,1.467,0,0,0-.36-1.1A1.434,1.434,0,0,0,104.612,11.6Zm11.285.571-.976-.07a1.752,1.752,0,0,0-1.793.879V19h-2.962V9.49h2.777l.1,1.222a2.294,2.294,0,0,1,2.083-1.4,2.888,2.888,0,0,1,.826.105Zm4.922,4.72a1.317,1.317,0,0,0,.967-.338,1.241,1.241,0,0,0,.334-.945H124.9a3.288,3.288,0,0,1-1.121,2.566,4.168,4.168,0,0,1-2.887,1,4.22,4.22,0,0,1-3.27-1.3,5.125,5.125,0,0,1-1.2-3.6v-.123a5.792,5.792,0,0,1,.532-2.544,3.872,3.872,0,0,1,1.534-1.7,4.573,4.573,0,0,1,2.373-.593,4.116,4.116,0,0,1,2.944,1.028,3.647,3.647,0,0,1,1.09,2.786H122.12A1.626,1.626,0,0,0,121.76,12a1.244,1.244,0,0,0-.967-.4q-1.151,0-1.345,1.468a10.357,10.357,0,0,0-.062,1.283,4.068,4.068,0,0,0,.343,1.986A1.187,1.187,0,0,0,120.819,16.891Zm9.932,2.285a4.889,4.889,0,0,1-3.542-1.305,4.507,4.507,0,0,1-1.354-3.4v-.246a5.84,5.84,0,0,1,.541-2.575,3.955,3.955,0,0,1,1.578-1.727,4.763,4.763,0,0,1,2.461-.611,4.117,4.117,0,0,1,3.164,1.244,4.887,4.887,0,0,1,1.16,3.467v1.151H128.87a2.135,2.135,0,0,0,.694,1.257,2.066,2.066,0,0,0,1.389.457,2.662,2.662,0,0,0,2.2-.984l1.354,1.6a3.784,3.784,0,0,1-1.569,1.217A5.3,5.3,0,0,1,130.751,19.176Zm-.334-7.576q-1.3,0-1.547,1.723h2.988v-.229a1.467,1.467,0,0,0-.36-1.1A1.434,1.434,0,0,0,130.417,11.6Z" transform="translate(717 6581.893)" fill="#12263f"/>
    <line id="Línea_271" data-name="Línea 271" y1="33" transform="translate(797.5 6533.957)" fill="none" stroke="#707070" stroke-width="3" stroke-dasharray="3 4" style="mix-blend-mode: multiply;isolation: isolate"/>
    <path id="Trazado_113698" data-name="Trazado 113698" d="M7.75,11.742H2.82v4.031H8.547V17H1.32V5.625H8.469V6.852H2.82v3.664H7.75Zm7.359,3.016a1.064,1.064,0,0,0-.441-.91,4.249,4.249,0,0,0-1.539-.559,7.277,7.277,0,0,1-1.742-.562,2.479,2.479,0,0,1-.953-.781,1.869,1.869,0,0,1-.309-1.078A2.193,2.193,0,0,1,11,9.109a3.432,3.432,0,0,1,2.246-.719,3.532,3.532,0,0,1,2.332.742,2.357,2.357,0,0,1,.895,1.9H15.023a1.3,1.3,0,0,0-.5-1.023,1.888,1.888,0,0,0-1.27-.43,1.976,1.976,0,0,0-1.234.344,1.082,1.082,0,0,0-.445.9.877.877,0,0,0,.414.789,5.1,5.1,0,0,0,1.5.508,7.8,7.8,0,0,1,1.754.578,2.558,2.558,0,0,1,1,.809,1.988,1.988,0,0,1,.324,1.152,2.163,2.163,0,0,1-.906,1.816,3.8,3.8,0,0,1-2.352.684,4.257,4.257,0,0,1-1.8-.359,2.922,2.922,0,0,1-1.223-1A2.42,2.42,0,0,1,9.836,14.4h1.445a1.5,1.5,0,0,0,.582,1.152,2.258,2.258,0,0,0,1.434.426,2.331,2.331,0,0,0,1.316-.332A1.02,1.02,0,0,0,15.109,14.758ZM20.4,6.5V8.547h1.578V9.664H20.4v5.249a1.173,1.173,0,0,0,.211.763.888.888,0,0,0,.719.254,3.5,3.5,0,0,0,.688-.094V17a4.215,4.215,0,0,1-1.109.155,1.8,1.8,0,0,1-1.461-.586,2.517,2.517,0,0,1-.492-1.664V9.664H17.414V8.547h1.539V6.5Zm6.773,10.656a3.693,3.693,0,0,1-2.8-1.129,4.19,4.19,0,0,1-1.078-3.02v-.266a5.073,5.073,0,0,1,.48-2.246,3.748,3.748,0,0,1,1.344-1.547,3.378,3.378,0,0,1,1.871-.559,3.166,3.166,0,0,1,2.563,1.086,4.7,4.7,0,0,1,.914,3.109v.6H24.742a3,3,0,0,0,.73,2.02,2.3,2.3,0,0,0,1.777.77,2.517,2.517,0,0,0,1.3-.312,3.259,3.259,0,0,0,.93-.828l.883.688A3.55,3.55,0,0,1,27.172,17.156Zm-.18-7.578a1.928,1.928,0,0,0-1.469.637A3.1,3.1,0,0,0,24.789,12h4.234v-.109a2.753,2.753,0,0,0-.594-1.707A1.815,1.815,0,0,0,26.992,9.578Zm12.617,7.578a3.693,3.693,0,0,1-2.8-1.129,4.19,4.19,0,0,1-1.078-3.02v-.266a5.073,5.073,0,0,1,.48-2.246,3.748,3.748,0,0,1,1.344-1.547,3.378,3.378,0,0,1,1.871-.559,3.166,3.166,0,0,1,2.563,1.086,4.7,4.7,0,0,1,.914,3.109v.6H37.18a3,3,0,0,0,.73,2.02,2.3,2.3,0,0,0,1.777.77,2.517,2.517,0,0,0,1.3-.312,3.259,3.259,0,0,0,.93-.828l.883.688A3.55,3.55,0,0,1,39.609,17.156Zm-.18-7.578a1.928,1.928,0,0,0-1.469.637A3.1,3.1,0,0,0,37.227,12h4.234v-.109a2.753,2.753,0,0,0-.594-1.707A1.815,1.815,0,0,0,39.43,9.578Zm10.07,5.18a1.064,1.064,0,0,0-.441-.91,4.249,4.249,0,0,0-1.539-.559,7.277,7.277,0,0,1-1.742-.562,2.479,2.479,0,0,1-.953-.781,1.869,1.869,0,0,1-.309-1.078,2.193,2.193,0,0,1,.879-1.758,3.432,3.432,0,0,1,2.246-.719,3.532,3.532,0,0,1,2.332.742,2.357,2.357,0,0,1,.895,1.9H49.414a1.3,1.3,0,0,0-.5-1.023,1.888,1.888,0,0,0-1.27-.43,1.976,1.976,0,0,0-1.234.344,1.082,1.082,0,0,0-.445.9.877.877,0,0,0,.414.789,5.1,5.1,0,0,0,1.5.508,7.8,7.8,0,0,1,1.754.578,2.558,2.558,0,0,1,1,.809,1.988,1.988,0,0,1,.324,1.152,2.163,2.163,0,0,1-.906,1.816,3.8,3.8,0,0,1-2.352.684,4.257,4.257,0,0,1-1.8-.359,2.922,2.922,0,0,1-1.223-1,2.42,2.42,0,0,1-.441-1.395h1.445a1.5,1.5,0,0,0,.582,1.152,2.258,2.258,0,0,0,1.434.426A2.331,2.331,0,0,0,49,15.645,1.02,1.02,0,0,0,49.5,14.758Zm12.508,1.406a3.07,3.07,0,0,1-2.477.992,2.628,2.628,0,0,1-2.059-.785,3.4,3.4,0,0,1-.715-2.324v-5.5H58.2v5.461q0,1.922,1.563,1.922a2.163,2.163,0,0,0,2.2-1.234V8.547h1.445V17H62.039Zm4.969-7.617.047,1.063a3.08,3.08,0,0,1,2.531-1.219q2.68,0,2.7,3.023V17H70.813V11.406a1.946,1.946,0,0,0-.418-1.352,1.675,1.675,0,0,0-1.277-.437,2.086,2.086,0,0,0-1.234.375,2.546,2.546,0,0,0-.828.984V17H65.609V8.547ZM79.969,17H78.523V5h1.445Zm7.531-.836a3.07,3.07,0,0,1-2.477.992,2.628,2.628,0,0,1-2.059-.785,3.4,3.4,0,0,1-.715-2.324v-5.5H83.7v5.461q0,1.922,1.563,1.922a2.163,2.163,0,0,0,2.2-1.234V8.547h1.445V17H87.531ZM90.758,12.7a4.968,4.968,0,0,1,.914-3.145,3.151,3.151,0,0,1,4.836-.074l.07-.937H97.9V16.8a3.439,3.439,0,0,1-.973,2.586,3.589,3.589,0,0,1-2.613.945,4.348,4.348,0,0,1-1.789-.391,3.08,3.08,0,0,1-1.336-1.07l.75-.867a2.826,2.826,0,0,0,2.273,1.148,2.214,2.214,0,0,0,1.645-.594,2.269,2.269,0,0,0,.59-1.672v-.727a2.971,2.971,0,0,1-2.367,1,2.887,2.887,0,0,1-2.4-1.2A5.224,5.224,0,0,1,90.758,12.7Zm1.453.164a3.79,3.79,0,0,0,.586,2.246,1.9,1.9,0,0,0,1.641.816,2.117,2.117,0,0,0,2.008-1.242V10.828a2.142,2.142,0,0,0-1.992-1.211,1.921,1.921,0,0,0-1.648.82A4.128,4.128,0,0,0,92.211,12.867ZM105.3,17a3.036,3.036,0,0,1-.2-.891,3.225,3.225,0,0,1-2.406,1.047,2.984,2.984,0,0,1-2.051-.707,2.288,2.288,0,0,1-.8-1.793,2.39,2.39,0,0,1,1-2.051,4.733,4.733,0,0,1,2.824-.73h1.406v-.664A1.623,1.623,0,0,0,104.617,10a1.821,1.821,0,0,0-1.336-.449,2.108,2.108,0,0,0-1.3.391,1.151,1.151,0,0,0-.523.945h-1.453a2,2,0,0,1,.449-1.223,3.066,3.066,0,0,1,1.219-.934,4.1,4.1,0,0,1,1.691-.344,3.342,3.342,0,0,1,2.289.73,2.635,2.635,0,0,1,.859,2.012v3.891a4.757,4.757,0,0,0,.3,1.852V17Zm-2.4-1.1a2.54,2.54,0,0,0,1.289-.352,2.127,2.127,0,0,0,.883-.914V12.9h-1.133q-2.656,0-2.656,1.555a1.316,1.316,0,0,0,.453,1.063A1.742,1.742,0,0,0,102.9,15.9Zm9.969-6.055a4.331,4.331,0,0,0-.711-.055A1.9,1.9,0,0,0,110.227,11v6h-1.445V8.547h1.406l.023.977a2.251,2.251,0,0,1,2.016-1.133,1.477,1.477,0,0,1,.641.109Zm12.43,3.023a5.062,5.062,0,0,1-.883,3.109,2.829,2.829,0,0,1-2.391,1.18,3.1,3.1,0,0,1-2.422-.977v4.07h-1.445V8.547h1.32l.07.938A2.977,2.977,0,0,1,122,8.391a2.882,2.882,0,0,1,2.41,1.148,5.117,5.117,0,0,1,.887,3.2Zm-1.445-.164a3.735,3.735,0,0,0-.609-2.258,1.963,1.963,0,0,0-1.672-.828,2.125,2.125,0,0,0-1.969,1.164V14.82a2.129,2.129,0,0,0,1.984,1.156,1.954,1.954,0,0,0,1.652-.824A4.077,4.077,0,0,0,123.852,12.7Zm8.5,4.3a3.036,3.036,0,0,1-.2-.891,3.225,3.225,0,0,1-2.406,1.047,2.984,2.984,0,0,1-2.051-.707,2.288,2.288,0,0,1-.8-1.793,2.39,2.39,0,0,1,1-2.051,4.733,4.733,0,0,1,2.824-.73h1.406v-.664A1.623,1.623,0,0,0,131.672,10a1.821,1.821,0,0,0-1.336-.449,2.107,2.107,0,0,0-1.3.391,1.151,1.151,0,0,0-.523.945h-1.453a2,2,0,0,1,.449-1.223,3.066,3.066,0,0,1,1.219-.934,4.1,4.1,0,0,1,1.691-.344,3.342,3.342,0,0,1,2.289.73,2.635,2.635,0,0,1,.859,2.012v3.891a4.757,4.757,0,0,0,.3,1.852V17Zm-2.4-1.1a2.54,2.54,0,0,0,1.289-.352,2.127,2.127,0,0,0,.883-.914V12.9h-1.133q-2.656,0-2.656,1.555a1.316,1.316,0,0,0,.453,1.063A1.742,1.742,0,0,0,129.953,15.9Zm9.969-6.055a4.331,4.331,0,0,0-.711-.055A1.9,1.9,0,0,0,137.281,11v6h-1.445V8.547h1.406l.023.977a2.251,2.251,0,0,1,2.016-1.133,1.477,1.477,0,0,1,.641.109ZM146.156,17a3.036,3.036,0,0,1-.2-.891,3.225,3.225,0,0,1-2.406,1.047,2.984,2.984,0,0,1-2.051-.707,2.287,2.287,0,0,1-.8-1.793,2.39,2.39,0,0,1,1-2.051,4.733,4.733,0,0,1,2.824-.73h1.406v-.664A1.623,1.623,0,0,0,145.477,10a1.821,1.821,0,0,0-1.336-.449,2.107,2.107,0,0,0-1.3.391,1.151,1.151,0,0,0-.523.945h-1.453a2,2,0,0,1,.449-1.223,3.066,3.066,0,0,1,1.219-.934,4.1,4.1,0,0,1,1.691-.344,3.342,3.342,0,0,1,2.289.73,2.635,2.635,0,0,1,.859,2.012v3.891a4.757,4.757,0,0,0,.3,1.852V17Zm-2.4-1.1a2.54,2.54,0,0,0,1.289-.352,2.127,2.127,0,0,0,.883-.914V12.9H144.8q-2.656,0-2.656,1.555a1.316,1.316,0,0,0,.453,1.063A1.742,1.742,0,0,0,143.758,15.9ZM4.484,39.977a2.082,2.082,0,0,0,1.352-.469,1.649,1.649,0,0,0,.641-1.172H7.844a2.621,2.621,0,0,1-.5,1.383,3.293,3.293,0,0,1-1.23,1.047,3.55,3.55,0,0,1-1.629.391A3.482,3.482,0,0,1,1.738,40a4.59,4.59,0,0,1-1.02-3.152v-.242a5.089,5.089,0,0,1,.453-2.2,3.451,3.451,0,0,1,1.3-1.492,3.7,3.7,0,0,1,2-.531,3.39,3.39,0,0,1,2.363.852,3.043,3.043,0,0,1,1,2.211H6.477a1.992,1.992,0,0,0-.621-1.348,1.932,1.932,0,0,0-1.379-.527,2.023,2.023,0,0,0-1.707.793,3.724,3.724,0,0,0-.605,2.293v.273a3.65,3.65,0,0,0,.6,2.25A2.033,2.033,0,0,0,4.484,39.977Zm4.6-3.281a4.993,4.993,0,0,1,.488-2.234,3.643,3.643,0,0,1,1.359-1.531,3.7,3.7,0,0,1,1.988-.539,3.565,3.565,0,0,1,2.793,1.2,4.6,4.6,0,0,1,1.066,3.18v.1a5.036,5.036,0,0,1-.473,2.215,3.589,3.589,0,0,1-1.352,1.527,3.743,3.743,0,0,1-2.02.547,3.556,3.556,0,0,1-2.785-1.2A4.575,4.575,0,0,1,9.086,36.8Zm1.453.172a3.616,3.616,0,0,0,.652,2.258,2.211,2.211,0,0,0,3.5-.012,3.955,3.955,0,0,0,.648-2.418,3.61,3.61,0,0,0-.66-2.254,2.1,2.1,0,0,0-1.754-.863,2.075,2.075,0,0,0-1.727.852A3.925,3.925,0,0,0,10.539,36.867Zm9.414-4.32.039.938A3.122,3.122,0,0,1,22.5,32.391a2.417,2.417,0,0,1,2.414,1.359,3.2,3.2,0,0,1,1.1-.984,3.242,3.242,0,0,1,1.6-.375q2.781,0,2.828,2.945V41H28.992V35.422a1.941,1.941,0,0,0-.414-1.355,1.823,1.823,0,0,0-1.391-.449,1.916,1.916,0,0,0-1.336.48,1.949,1.949,0,0,0-.617,1.293V41H23.781V35.461a1.613,1.613,0,0,0-1.8-1.844,1.934,1.934,0,0,0-1.945,1.211V41H18.586V32.547Zm16.172,8.609a3.693,3.693,0,0,1-2.8-1.129,4.19,4.19,0,0,1-1.078-3.02v-.266a5.073,5.073,0,0,1,.48-2.246,3.748,3.748,0,0,1,1.344-1.547,3.378,3.378,0,0,1,1.871-.559,3.166,3.166,0,0,1,2.563,1.086,4.7,4.7,0,0,1,.914,3.109v.6H33.7a3,3,0,0,0,.73,2.02,2.3,2.3,0,0,0,1.777.77,2.517,2.517,0,0,0,1.3-.312,3.258,3.258,0,0,0,.93-.828l.883.688A3.55,3.55,0,0,1,36.125,41.156Zm-.18-7.578a1.928,1.928,0,0,0-1.469.637A3.1,3.1,0,0,0,33.742,36h4.234v-.109a2.753,2.753,0,0,0-.594-1.707A1.815,1.815,0,0,0,35.945,33.578Zm9.234.266a4.331,4.331,0,0,0-.711-.055A1.9,1.9,0,0,0,42.539,35v6H41.094V32.547H42.5l.023.977a2.251,2.251,0,0,1,2.016-1.133,1.477,1.477,0,0,1,.641.109Zm4.57,6.133a2.082,2.082,0,0,0,1.352-.469,1.649,1.649,0,0,0,.641-1.172h1.367a2.621,2.621,0,0,1-.5,1.383,3.293,3.293,0,0,1-1.23,1.047,3.55,3.55,0,0,1-1.629.391A3.482,3.482,0,0,1,47,40a4.59,4.59,0,0,1-1.02-3.152v-.242a5.089,5.089,0,0,1,.453-2.2,3.451,3.451,0,0,1,1.3-1.492,3.7,3.7,0,0,1,2-.531,3.39,3.39,0,0,1,2.363.852,3.043,3.043,0,0,1,1,2.211H51.742a1.992,1.992,0,0,0-.621-1.348,1.932,1.932,0,0,0-1.379-.527,2.023,2.023,0,0,0-1.707.793,3.724,3.724,0,0,0-.605,2.293v.273a3.65,3.65,0,0,0,.6,2.25A2.033,2.033,0,0,0,49.75,39.977ZM56.3,41H54.859V32.547H56.3ZM54.742,30.3a.863.863,0,0,1,.215-.594.807.807,0,0,1,.637-.242.819.819,0,0,1,.641.242.854.854,0,0,1,.219.594.826.826,0,0,1-.219.586.834.834,0,0,1-.641.234.821.821,0,0,1-.637-.234A.834.834,0,0,1,54.742,30.3ZM63.836,41a3.036,3.036,0,0,1-.2-.891,3.225,3.225,0,0,1-2.406,1.047,2.984,2.984,0,0,1-2.051-.707,2.287,2.287,0,0,1-.8-1.793,2.39,2.39,0,0,1,1-2.051,4.733,4.733,0,0,1,2.824-.73h1.406v-.664A1.623,1.623,0,0,0,63.156,34a1.821,1.821,0,0,0-1.336-.449,2.107,2.107,0,0,0-1.3.391,1.151,1.151,0,0,0-.523.945H58.547A2,2,0,0,1,59,33.668a3.066,3.066,0,0,1,1.219-.934,4.1,4.1,0,0,1,1.691-.344,3.342,3.342,0,0,1,2.289.73,2.635,2.635,0,0,1,.859,2.012v3.891a4.757,4.757,0,0,0,.3,1.852V41Zm-2.4-1.1a2.54,2.54,0,0,0,1.289-.352,2.127,2.127,0,0,0,.883-.914V36.9H62.477q-2.656,0-2.656,1.555a1.316,1.316,0,0,0,.453,1.063A1.742,1.742,0,0,0,61.438,39.9ZM68.891,41H67.445V29h1.445Zm3.883,0H71.328V32.547h1.445ZM71.211,30.3a.863.863,0,0,1,.215-.594.807.807,0,0,1,.637-.242.819.819,0,0,1,.641.242.854.854,0,0,1,.219.594.826.826,0,0,1-.219.586.834.834,0,0,1-.641.234.821.821,0,0,1-.637-.234A.834.834,0,0,1,71.211,30.3Zm5.234,9.516h4.945V41H74.68V39.938l4.664-6.2H74.75v-1.2h6.406V33.57ZM88.234,41a3.036,3.036,0,0,1-.2-.891,3.225,3.225,0,0,1-2.406,1.047,2.984,2.984,0,0,1-2.051-.707,2.288,2.288,0,0,1-.8-1.793,2.39,2.39,0,0,1,1-2.051,4.733,4.733,0,0,1,2.824-.73h1.406v-.664A1.623,1.623,0,0,0,87.555,34a1.821,1.821,0,0,0-1.336-.449,2.107,2.107,0,0,0-1.3.391,1.151,1.151,0,0,0-.523.945H82.945a2,2,0,0,1,.449-1.223,3.066,3.066,0,0,1,1.219-.934,4.1,4.1,0,0,1,1.691-.344,3.342,3.342,0,0,1,2.289.73,2.635,2.635,0,0,1,.859,2.012v3.891a4.757,4.757,0,0,0,.3,1.852V41Zm-2.4-1.1a2.54,2.54,0,0,0,1.289-.352,2.127,2.127,0,0,0,.883-.914V36.9H86.875q-2.656,0-2.656,1.555a1.316,1.316,0,0,0,.453,1.063A1.742,1.742,0,0,0,85.836,39.9ZM95.8,33.844a4.331,4.331,0,0,0-.711-.055A1.9,1.9,0,0,0,93.164,35v6H91.719V32.547h1.406l.023.977a2.251,2.251,0,0,1,2.016-1.133,1.477,1.477,0,0,1,.641.109Zm12.43,3.023a5.062,5.062,0,0,1-.883,3.109,2.829,2.829,0,0,1-2.391,1.18,3.1,3.1,0,0,1-2.422-.977v4.07h-1.445v-11.7h1.32l.07.938a2.977,2.977,0,0,1,2.453-1.094,2.882,2.882,0,0,1,2.41,1.148,5.117,5.117,0,0,1,.887,3.2Zm-1.445-.164a3.735,3.735,0,0,0-.609-2.258,1.963,1.963,0,0,0-1.672-.828,2.125,2.125,0,0,0-1.969,1.164V38.82a2.129,2.129,0,0,0,1.984,1.156,1.954,1.954,0,0,0,1.652-.824A4.077,4.077,0,0,0,106.789,36.7Zm7.367-2.859a4.331,4.331,0,0,0-.711-.055A1.9,1.9,0,0,0,111.516,35v6H110.07V32.547h1.406l.023.977a2.251,2.251,0,0,1,2.016-1.133,1.477,1.477,0,0,1,.641.109Zm.789,2.852a4.993,4.993,0,0,1,.488-2.234,3.643,3.643,0,0,1,1.359-1.531,3.7,3.7,0,0,1,1.988-.539,3.565,3.565,0,0,1,2.793,1.2,4.6,4.6,0,0,1,1.066,3.18v.1a5.036,5.036,0,0,1-.473,2.215,3.589,3.589,0,0,1-1.352,1.527,3.743,3.743,0,0,1-2.02.547,3.556,3.556,0,0,1-2.785-1.2,4.575,4.575,0,0,1-1.066-3.164Zm1.453.172a3.616,3.616,0,0,0,.652,2.258,2.211,2.211,0,0,0,3.5-.012A3.955,3.955,0,0,0,121.2,36.7a3.61,3.61,0,0,0-.66-2.254,2.1,2.1,0,0,0-1.754-.863,2.075,2.075,0,0,0-1.727.852A3.925,3.925,0,0,0,116.4,36.867Zm7.7-.164a4.952,4.952,0,0,1,.922-3.129,3.137,3.137,0,0,1,4.766-.168V29h1.445V41h-1.328l-.07-.906a2.943,2.943,0,0,1-2.414,1.063,2.887,2.887,0,0,1-2.395-1.2,5.008,5.008,0,0,1-.926-3.141Zm1.445.164a3.749,3.749,0,0,0,.594,2.25,1.92,1.92,0,0,0,1.641.813,2.108,2.108,0,0,0,2.008-1.234V34.813a2.125,2.125,0,0,0-1.992-1.2,1.929,1.929,0,0,0-1.656.82A4.128,4.128,0,0,0,125.547,36.867Zm13.148,3.3a3.07,3.07,0,0,1-2.477.992,2.628,2.628,0,0,1-2.059-.785,3.4,3.4,0,0,1-.715-2.324v-5.5h1.445v5.461q0,1.922,1.563,1.922a2.163,2.163,0,0,0,2.2-1.234V32.547H140.1V41h-1.375Zm6.992-.187a2.082,2.082,0,0,0,1.352-.469,1.649,1.649,0,0,0,.641-1.172h1.367a2.621,2.621,0,0,1-.5,1.383,3.293,3.293,0,0,1-1.23,1.047,3.55,3.55,0,0,1-1.629.391A3.482,3.482,0,0,1,142.941,40a4.59,4.59,0,0,1-1.02-3.152v-.242a5.089,5.089,0,0,1,.453-2.2,3.451,3.451,0,0,1,1.3-1.492,3.7,3.7,0,0,1,2-.531,3.39,3.39,0,0,1,2.363.852,3.043,3.043,0,0,1,1,2.211H147.68a1.992,1.992,0,0,0-.621-1.348,1.932,1.932,0,0,0-1.379-.527,2.023,2.023,0,0,0-1.707.793,3.724,3.724,0,0,0-.605,2.293v.273a3.65,3.65,0,0,0,.6,2.25A2.033,2.033,0,0,0,145.688,39.977Zm6.945-9.477v2.047h1.578v1.117h-1.578v5.249a1.173,1.173,0,0,0,.211.763.888.888,0,0,0,.719.254,3.5,3.5,0,0,0,.688-.094V41a4.215,4.215,0,0,1-1.109.155,1.8,1.8,0,0,1-1.461-.586,2.517,2.517,0,0,1-.492-1.664V33.664h-1.539V32.547h1.539V30.5Zm2.727,6.2a4.993,4.993,0,0,1,.488-2.234,3.642,3.642,0,0,1,1.359-1.531,3.7,3.7,0,0,1,1.988-.539,3.565,3.565,0,0,1,2.793,1.2,4.6,4.6,0,0,1,1.066,3.18v.1a5.036,5.036,0,0,1-.473,2.215,3.589,3.589,0,0,1-1.352,1.527,3.743,3.743,0,0,1-2.02.547,3.556,3.556,0,0,1-2.785-1.2,4.575,4.575,0,0,1-1.066-3.164Zm1.453.172a3.616,3.616,0,0,0,.652,2.258,2.211,2.211,0,0,0,3.5-.012,3.954,3.954,0,0,0,.648-2.418,3.61,3.61,0,0,0-.66-2.254,2.1,2.1,0,0,0-1.754-.863,2.075,2.075,0,0,0-1.727.852A3.925,3.925,0,0,0,156.813,36.867Zm12.977,1.891a1.064,1.064,0,0,0-.441-.91,4.249,4.249,0,0,0-1.539-.559,7.277,7.277,0,0,1-1.742-.562,2.479,2.479,0,0,1-.953-.781,1.869,1.869,0,0,1-.309-1.078,2.193,2.193,0,0,1,.879-1.758,3.432,3.432,0,0,1,2.246-.719,3.532,3.532,0,0,1,2.332.742,2.357,2.357,0,0,1,.895,1.9H169.7a1.3,1.3,0,0,0-.5-1.023,1.888,1.888,0,0,0-1.27-.43,1.976,1.976,0,0,0-1.234.344,1.082,1.082,0,0,0-.445.9.877.877,0,0,0,.414.789,5.1,5.1,0,0,0,1.5.508,7.8,7.8,0,0,1,1.754.578,2.558,2.558,0,0,1,1,.809,1.988,1.988,0,0,1,.324,1.152,2.163,2.163,0,0,1-.906,1.816,3.8,3.8,0,0,1-2.352.684,4.257,4.257,0,0,1-1.8-.359,2.922,2.922,0,0,1-1.223-1,2.42,2.42,0,0,1-.441-1.395h1.445a1.5,1.5,0,0,0,.582,1.152,2.258,2.258,0,0,0,1.434.426,2.331,2.331,0,0,0,1.316-.332A1.02,1.02,0,0,0,169.789,38.758Zm6.938-2.055a4.952,4.952,0,0,1,.922-3.129,3.137,3.137,0,0,1,4.766-.168V29h1.445V41h-1.328l-.07-.906a2.943,2.943,0,0,1-2.414,1.063,2.887,2.887,0,0,1-2.395-1.2,5.008,5.008,0,0,1-.926-3.141Zm1.445.164a3.749,3.749,0,0,0,.594,2.25,1.919,1.919,0,0,0,1.641.813,2.108,2.108,0,0,0,2.008-1.234V34.813a2.125,2.125,0,0,0-1.992-1.2,1.929,1.929,0,0,0-1.656.82A4.128,4.128,0,0,0,178.172,36.867Zm11.438,4.289a3.693,3.693,0,0,1-2.8-1.129,4.19,4.19,0,0,1-1.078-3.02v-.266a5.073,5.073,0,0,1,.48-2.246,3.748,3.748,0,0,1,1.344-1.547,3.378,3.378,0,0,1,1.871-.559,3.166,3.166,0,0,1,2.563,1.086,4.7,4.7,0,0,1,.914,3.109v.6H187.18a3,3,0,0,0,.73,2.02,2.3,2.3,0,0,0,1.777.77,2.517,2.517,0,0,0,1.3-.312,3.258,3.258,0,0,0,.93-.828l.883.688A3.55,3.55,0,0,1,189.609,41.156Zm-.18-7.578a1.928,1.928,0,0,0-1.469.637A3.1,3.1,0,0,0,187.227,36h4.234v-.109a2.753,2.753,0,0,0-.594-1.707A1.815,1.815,0,0,0,189.43,33.578Zm14.328,6.586a3.07,3.07,0,0,1-2.477.992,2.628,2.628,0,0,1-2.059-.785,3.4,3.4,0,0,1-.715-2.324v-5.5h1.445v5.461q0,1.922,1.563,1.922a2.163,2.163,0,0,0,2.2-1.234V32.547h1.445V41h-1.375Zm4.969-7.617.047,1.063a3.08,3.08,0,0,1,2.531-1.219q2.68,0,2.7,3.023V41h-1.445V35.406a1.946,1.946,0,0,0-.418-1.352,1.675,1.675,0,0,0-1.277-.437,2.086,2.086,0,0,0-1.234.375,2.546,2.546,0,0,0-.828.984V41h-1.445V32.547ZM221.406,41a3.036,3.036,0,0,1-.2-.891,3.225,3.225,0,0,1-2.406,1.047,2.984,2.984,0,0,1-2.051-.707,2.287,2.287,0,0,1-.8-1.793,2.39,2.39,0,0,1,1-2.051,4.733,4.733,0,0,1,2.824-.73h1.406v-.664A1.623,1.623,0,0,0,220.727,34a1.821,1.821,0,0,0-1.336-.449,2.107,2.107,0,0,0-1.3.391,1.151,1.151,0,0,0-.523.945h-1.453a2,2,0,0,1,.449-1.223,3.066,3.066,0,0,1,1.219-.934,4.1,4.1,0,0,1,1.691-.344,3.342,3.342,0,0,1,2.289.73,2.635,2.635,0,0,1,.859,2.012v3.891a4.757,4.757,0,0,0,.3,1.852V41Zm-2.4-1.1a2.54,2.54,0,0,0,1.289-.352,2.127,2.127,0,0,0,.883-.914V36.9h-1.133q-2.656,0-2.656,1.555a1.316,1.316,0,0,0,.453,1.063A1.742,1.742,0,0,0,219.008,39.9ZM6.016,62.758a1.064,1.064,0,0,0-.441-.91,4.249,4.249,0,0,0-1.539-.559,7.277,7.277,0,0,1-1.742-.562,2.479,2.479,0,0,1-.953-.781,1.869,1.869,0,0,1-.309-1.078,2.193,2.193,0,0,1,.879-1.758,3.432,3.432,0,0,1,2.246-.719,3.532,3.532,0,0,1,2.332.742,2.357,2.357,0,0,1,.895,1.9H5.93a1.3,1.3,0,0,0-.5-1.023,1.888,1.888,0,0,0-1.27-.43,1.976,1.976,0,0,0-1.234.344,1.082,1.082,0,0,0-.445.9.877.877,0,0,0,.414.789,5.1,5.1,0,0,0,1.5.508,7.8,7.8,0,0,1,1.754.578,2.558,2.558,0,0,1,1,.809,1.988,1.988,0,0,1,.324,1.152,2.163,2.163,0,0,1-.906,1.816,3.8,3.8,0,0,1-2.352.684,4.257,4.257,0,0,1-1.8-.359,2.922,2.922,0,0,1-1.223-1A2.42,2.42,0,0,1,.742,62.4H2.188a1.5,1.5,0,0,0,.582,1.152,2.258,2.258,0,0,0,1.434.426,2.331,2.331,0,0,0,1.316-.332A1.02,1.02,0,0,0,6.016,62.758ZM8.961,60.7a4.993,4.993,0,0,1,.488-2.234,3.643,3.643,0,0,1,1.359-1.531,3.7,3.7,0,0,1,1.988-.539,3.565,3.565,0,0,1,2.793,1.2,4.6,4.6,0,0,1,1.066,3.18v.1a5.036,5.036,0,0,1-.473,2.215,3.589,3.589,0,0,1-1.352,1.527,3.743,3.743,0,0,1-2.02.547,3.556,3.556,0,0,1-2.785-1.2A4.575,4.575,0,0,1,8.961,60.8Zm1.453.172a3.616,3.616,0,0,0,.652,2.258,2.211,2.211,0,0,0,3.5-.012,3.955,3.955,0,0,0,.648-2.418,3.61,3.61,0,0,0-.66-2.254,2.1,2.1,0,0,0-1.754-.863,2.075,2.075,0,0,0-1.727.852A3.925,3.925,0,0,0,10.414,60.867ZM20.039,65H18.594V53h1.445Zm7.531,0a3.036,3.036,0,0,1-.2-.891,3.225,3.225,0,0,1-2.406,1.047,2.984,2.984,0,0,1-2.051-.707,2.287,2.287,0,0,1-.8-1.793,2.39,2.39,0,0,1,1-2.051,4.733,4.733,0,0,1,2.824-.73h1.406v-.664A1.623,1.623,0,0,0,26.891,58a1.821,1.821,0,0,0-1.336-.449,2.107,2.107,0,0,0-1.3.391,1.151,1.151,0,0,0-.523.945H22.281a2,2,0,0,1,.449-1.223,3.066,3.066,0,0,1,1.219-.934,4.1,4.1,0,0,1,1.691-.344,3.342,3.342,0,0,1,2.289.73,2.635,2.635,0,0,1,.859,2.012v3.891a4.757,4.757,0,0,0,.3,1.852V65Zm-2.4-1.1a2.54,2.54,0,0,0,1.289-.352,2.127,2.127,0,0,0,.883-.914V60.9H26.211q-2.656,0-2.656,1.555a1.316,1.316,0,0,0,.453,1.063A1.742,1.742,0,0,0,25.172,63.9Zm11.2-7.352.039.938a3.122,3.122,0,0,1,2.508-1.094,2.417,2.417,0,0,1,2.414,1.359,3.2,3.2,0,0,1,1.1-.984,3.242,3.242,0,0,1,1.6-.375q2.781,0,2.828,2.945V65H45.414V59.422A1.941,1.941,0,0,0,45,58.066a1.823,1.823,0,0,0-1.391-.449,1.916,1.916,0,0,0-1.336.48,1.949,1.949,0,0,0-.617,1.293V65H40.2V59.461a1.613,1.613,0,0,0-1.8-1.844,1.934,1.934,0,0,0-1.945,1.211V65H35.008V56.547ZM54.258,65a3.036,3.036,0,0,1-.2-.891,3.225,3.225,0,0,1-2.406,1.047,2.984,2.984,0,0,1-2.051-.707,2.287,2.287,0,0,1-.8-1.793,2.39,2.39,0,0,1,1-2.051,4.733,4.733,0,0,1,2.824-.73h1.406v-.664A1.623,1.623,0,0,0,53.578,58a1.821,1.821,0,0,0-1.336-.449,2.107,2.107,0,0,0-1.3.391,1.151,1.151,0,0,0-.523.945H48.969a2,2,0,0,1,.449-1.223,3.066,3.066,0,0,1,1.219-.934,4.1,4.1,0,0,1,1.691-.344,3.342,3.342,0,0,1,2.289.73,2.635,2.635,0,0,1,.859,2.012v3.891a4.757,4.757,0,0,0,.3,1.852V65Zm-2.4-1.1a2.54,2.54,0,0,0,1.289-.352,2.127,2.127,0,0,0,.883-.914V60.9H52.9q-2.656,0-2.656,1.555a1.316,1.316,0,0,0,.453,1.063A1.742,1.742,0,0,0,51.859,63.9Zm9.969-6.055a4.331,4.331,0,0,0-.711-.055A1.9,1.9,0,0,0,59.188,59v6H57.742V56.547h1.406l.023.977a2.251,2.251,0,0,1,2.016-1.133,1.477,1.477,0,0,1,.641.109Zm4.57,6.133a2.082,2.082,0,0,0,1.352-.469,1.649,1.649,0,0,0,.641-1.172h1.367a2.621,2.621,0,0,1-.5,1.383,3.293,3.293,0,0,1-1.23,1.047,3.55,3.55,0,0,1-1.629.391A3.482,3.482,0,0,1,63.652,64a4.59,4.59,0,0,1-1.02-3.152v-.242a5.089,5.089,0,0,1,.453-2.2,3.451,3.451,0,0,1,1.3-1.492,3.7,3.7,0,0,1,2-.531,3.39,3.39,0,0,1,2.363.852,3.043,3.043,0,0,1,1,2.211H68.391a1.992,1.992,0,0,0-.621-1.348,1.932,1.932,0,0,0-1.379-.527,2.023,2.023,0,0,0-1.707.793,3.724,3.724,0,0,0-.605,2.293v.273a3.65,3.65,0,0,0,.6,2.25A2.033,2.033,0,0,0,66.4,63.977ZM76.6,65a3.036,3.036,0,0,1-.2-.891,3.225,3.225,0,0,1-2.406,1.047,2.984,2.984,0,0,1-2.051-.707,2.288,2.288,0,0,1-.8-1.793,2.39,2.39,0,0,1,1-2.051,4.733,4.733,0,0,1,2.824-.73h1.406v-.664A1.623,1.623,0,0,0,75.922,58a1.821,1.821,0,0,0-1.336-.449,2.107,2.107,0,0,0-1.3.391,1.151,1.151,0,0,0-.523.945H71.313a2,2,0,0,1,.449-1.223,3.066,3.066,0,0,1,1.219-.934,4.1,4.1,0,0,1,1.691-.344,3.342,3.342,0,0,1,2.289.73,2.635,2.635,0,0,1,.859,2.012v3.891a4.757,4.757,0,0,0,.3,1.852V65Zm-2.4-1.1a2.54,2.54,0,0,0,1.289-.352,2.127,2.127,0,0,0,.883-.914V60.9H75.242q-2.656,0-2.656,1.555a1.316,1.316,0,0,0,.453,1.063A1.742,1.742,0,0,0,74.2,63.9Zm5.836,3.367-.82-.562a3.77,3.77,0,0,0,.766-2.109v-1.3H81.4v1.133A3.559,3.559,0,0,1,81.012,66,3.7,3.7,0,0,1,80.039,67.266Zm8.516-10.719.047,1.063a3.08,3.08,0,0,1,2.531-1.219q2.68,0,2.7,3.023V65H92.391V59.406a1.946,1.946,0,0,0-.418-1.352,1.675,1.675,0,0,0-1.277-.437,2.086,2.086,0,0,0-1.234.375,2.546,2.546,0,0,0-.828.984V65H87.188V56.547ZM95.633,60.7a4.993,4.993,0,0,1,.488-2.234A3.643,3.643,0,0,1,97.48,56.93a3.7,3.7,0,0,1,1.988-.539,3.565,3.565,0,0,1,2.793,1.2,4.6,4.6,0,0,1,1.066,3.18v.1a5.036,5.036,0,0,1-.473,2.215,3.589,3.589,0,0,1-1.352,1.527,3.743,3.743,0,0,1-2.02.547,3.556,3.556,0,0,1-2.785-1.2A4.575,4.575,0,0,1,95.633,60.8Zm1.453.172a3.616,3.616,0,0,0,.652,2.258,2.211,2.211,0,0,0,3.5-.012,3.955,3.955,0,0,0,.648-2.418,3.61,3.61,0,0,0-.66-2.254,2.1,2.1,0,0,0-1.754-.863,2.075,2.075,0,0,0-1.727.852A3.925,3.925,0,0,0,97.086,60.867Zm15.406,3.109a2.082,2.082,0,0,0,1.352-.469,1.649,1.649,0,0,0,.641-1.172h1.367a2.621,2.621,0,0,1-.5,1.383,3.293,3.293,0,0,1-1.23,1.047,3.55,3.55,0,0,1-1.629.391A3.482,3.482,0,0,1,109.746,64a4.59,4.59,0,0,1-1.02-3.152v-.242a5.089,5.089,0,0,1,.453-2.2,3.451,3.451,0,0,1,1.3-1.492,3.7,3.7,0,0,1,2-.531,3.39,3.39,0,0,1,2.363.852,3.043,3.043,0,0,1,1,2.211h-1.367a1.992,1.992,0,0,0-.621-1.348,1.932,1.932,0,0,0-1.379-.527,2.023,2.023,0,0,0-1.707.793,3.724,3.724,0,0,0-.605,2.293v.273a3.65,3.65,0,0,0,.6,2.25A2.033,2.033,0,0,0,112.492,63.977Zm4.6-3.281a4.993,4.993,0,0,1,.488-2.234,3.643,3.643,0,0,1,1.359-1.531,3.7,3.7,0,0,1,1.988-.539,3.565,3.565,0,0,1,2.793,1.2,4.6,4.6,0,0,1,1.066,3.18v.1a5.036,5.036,0,0,1-.473,2.215,3.589,3.589,0,0,1-1.352,1.527,3.743,3.743,0,0,1-2.02.547,3.556,3.556,0,0,1-2.785-1.2,4.575,4.575,0,0,1-1.066-3.164Zm1.453.172a3.616,3.616,0,0,0,.652,2.258,2.211,2.211,0,0,0,3.5-.012,3.955,3.955,0,0,0,.648-2.418,3.61,3.61,0,0,0-.66-2.254,2.1,2.1,0,0,0-1.754-.863,2.075,2.075,0,0,0-1.727.852A3.925,3.925,0,0,0,118.547,60.867Zm9.414-4.32.039.938a3.122,3.122,0,0,1,2.508-1.094,2.417,2.417,0,0,1,2.414,1.359,3.2,3.2,0,0,1,1.1-.984,3.242,3.242,0,0,1,1.6-.375q2.781,0,2.828,2.945V65H137V59.422a1.941,1.941,0,0,0-.414-1.355,1.823,1.823,0,0,0-1.391-.449,1.917,1.917,0,0,0-1.336.48,1.949,1.949,0,0,0-.617,1.293V65h-1.453V59.461a1.613,1.613,0,0,0-1.8-1.844,1.934,1.934,0,0,0-1.945,1.211V65h-1.445V56.547Zm19.8,4.32a5.062,5.062,0,0,1-.883,3.109,2.829,2.829,0,0,1-2.391,1.18,3.1,3.1,0,0,1-2.422-.977v4.07h-1.445v-11.7h1.32l.07.938a2.977,2.977,0,0,1,2.453-1.094,2.882,2.882,0,0,1,2.41,1.148,5.117,5.117,0,0,1,.887,3.2ZM146.32,60.7a3.735,3.735,0,0,0-.609-2.258,1.963,1.963,0,0,0-1.672-.828,2.125,2.125,0,0,0-1.969,1.164V62.82a2.129,2.129,0,0,0,1.984,1.156,1.954,1.954,0,0,0,1.652-.824A4.077,4.077,0,0,0,146.32,60.7Zm8.5,4.3a3.036,3.036,0,0,1-.2-.891,3.225,3.225,0,0,1-2.406,1.047,2.984,2.984,0,0,1-2.051-.707,2.287,2.287,0,0,1-.8-1.793,2.39,2.39,0,0,1,1-2.051,4.733,4.733,0,0,1,2.824-.73h1.406v-.664A1.623,1.623,0,0,0,154.141,58a1.821,1.821,0,0,0-1.336-.449,2.107,2.107,0,0,0-1.3.391,1.151,1.151,0,0,0-.523.945h-1.453a2,2,0,0,1,.449-1.223,3.066,3.066,0,0,1,1.219-.934,4.1,4.1,0,0,1,1.691-.344,3.342,3.342,0,0,1,2.289.73,2.635,2.635,0,0,1,.859,2.012v3.891a4.757,4.757,0,0,0,.3,1.852V65Zm-2.4-1.1a2.54,2.54,0,0,0,1.289-.352,2.127,2.127,0,0,0,.883-.914V60.9h-1.133q-2.656,0-2.656,1.555a1.316,1.316,0,0,0,.453,1.063A1.742,1.742,0,0,0,152.422,63.9Zm9.969-6.055a4.331,4.331,0,0,0-.711-.055A1.9,1.9,0,0,0,159.75,59v6H158.3V56.547h1.406l.023.977a2.251,2.251,0,0,1,2.016-1.133,1.477,1.477,0,0,1,.641.109Zm3.68-3.344v2.047h1.578v1.117H166.07v5.249a1.173,1.173,0,0,0,.211.763.888.888,0,0,0,.719.254,3.5,3.5,0,0,0,.688-.094V65a4.215,4.215,0,0,1-1.109.155,1.8,1.8,0,0,1-1.461-.586,2.517,2.517,0,0,1-.492-1.664V57.664h-1.539V56.547h1.539V54.5Zm6.773,10.656a3.693,3.693,0,0,1-2.8-1.129,4.19,4.19,0,0,1-1.078-3.02v-.266a5.073,5.073,0,0,1,.48-2.246,3.748,3.748,0,0,1,1.344-1.547,3.378,3.378,0,0,1,1.871-.559,3.166,3.166,0,0,1,2.563,1.086,4.7,4.7,0,0,1,.914,3.109v.6h-5.727a3,3,0,0,0,.73,2.02,2.3,2.3,0,0,0,1.777.77,2.517,2.517,0,0,0,1.3-.312,3.258,3.258,0,0,0,.93-.828l.883.688A3.55,3.55,0,0,1,172.844,65.156Zm-.18-7.578a1.928,1.928,0,0,0-1.469.637A3.1,3.1,0,0,0,170.461,60H174.7v-.109a2.753,2.753,0,0,0-.594-1.707A1.815,1.815,0,0,0,172.664,57.578Zm12.617,7.578a3.693,3.693,0,0,1-2.8-1.129,4.19,4.19,0,0,1-1.078-3.02v-.266a5.073,5.073,0,0,1,.48-2.246,3.748,3.748,0,0,1,1.344-1.547,3.378,3.378,0,0,1,1.871-.559,3.166,3.166,0,0,1,2.563,1.086,4.7,4.7,0,0,1,.914,3.109v.6h-5.727a3,3,0,0,0,.73,2.02,2.3,2.3,0,0,0,1.777.77,2.517,2.517,0,0,0,1.3-.312,3.258,3.258,0,0,0,.93-.828l.883.688A3.55,3.55,0,0,1,185.281,65.156Zm-.18-7.578a1.928,1.928,0,0,0-1.469.637A3.1,3.1,0,0,0,182.9,60h4.234v-.109a2.753,2.753,0,0,0-.594-1.707A1.815,1.815,0,0,0,185.1,57.578Zm10.07,5.18a1.064,1.064,0,0,0-.441-.91,4.249,4.249,0,0,0-1.539-.559,7.277,7.277,0,0,1-1.742-.562,2.479,2.479,0,0,1-.953-.781,1.869,1.869,0,0,1-.309-1.078,2.193,2.193,0,0,1,.879-1.758,3.432,3.432,0,0,1,2.246-.719,3.532,3.532,0,0,1,2.332.742,2.357,2.357,0,0,1,.895,1.9h-1.453a1.3,1.3,0,0,0-.5-1.023,1.888,1.888,0,0,0-1.27-.43,1.976,1.976,0,0,0-1.234.344,1.082,1.082,0,0,0-.445.9.877.877,0,0,0,.414.789,5.1,5.1,0,0,0,1.5.508,7.8,7.8,0,0,1,1.754.578,2.558,2.558,0,0,1,1,.809,1.988,1.988,0,0,1,.324,1.152,2.163,2.163,0,0,1-.906,1.816,3.8,3.8,0,0,1-2.352.684,4.257,4.257,0,0,1-1.8-.359,2.922,2.922,0,0,1-1.223-1A2.42,2.42,0,0,1,189.9,62.4h1.445a1.5,1.5,0,0,0,.582,1.152,2.258,2.258,0,0,0,1.434.426,2.331,2.331,0,0,0,1.316-.332A1.02,1.02,0,0,0,195.172,62.758Zm10.469-1.891a5.062,5.062,0,0,1-.883,3.109,2.829,2.829,0,0,1-2.391,1.18,3.1,3.1,0,0,1-2.422-.977v4.07H198.5v-11.7h1.32l.07.938a2.977,2.977,0,0,1,2.453-1.094,2.882,2.882,0,0,1,2.41,1.148,5.117,5.117,0,0,1,.887,3.2ZM204.2,60.7a3.735,3.735,0,0,0-.609-2.258,1.963,1.963,0,0,0-1.672-.828,2.125,2.125,0,0,0-1.969,1.164V62.82a2.129,2.129,0,0,0,1.984,1.156,1.954,1.954,0,0,0,1.652-.824A4.077,4.077,0,0,0,204.2,60.7Zm8.5,4.3a3.036,3.036,0,0,1-.2-.891,3.225,3.225,0,0,1-2.406,1.047,2.984,2.984,0,0,1-2.051-.707,2.287,2.287,0,0,1-.8-1.793,2.39,2.39,0,0,1,1-2.051,4.733,4.733,0,0,1,2.824-.73h1.406v-.664A1.623,1.623,0,0,0,212.016,58a1.821,1.821,0,0,0-1.336-.449,2.107,2.107,0,0,0-1.3.391,1.151,1.151,0,0,0-.523.945h-1.453a2,2,0,0,1,.449-1.223,3.066,3.066,0,0,1,1.219-.934,4.1,4.1,0,0,1,1.691-.344,3.342,3.342,0,0,1,2.289.73,2.635,2.635,0,0,1,.859,2.012v3.891a4.757,4.757,0,0,0,.3,1.852V65Zm-2.4-1.1a2.54,2.54,0,0,0,1.289-.352,2.127,2.127,0,0,0,.883-.914V60.9h-1.133q-2.656,0-2.656,1.555a1.316,1.316,0,0,0,.453,1.063A1.742,1.742,0,0,0,210.3,63.9Zm9.273.078a2.082,2.082,0,0,0,1.352-.469,1.649,1.649,0,0,0,.641-1.172h1.367a2.621,2.621,0,0,1-.5,1.383,3.293,3.293,0,0,1-1.23,1.047,3.55,3.55,0,0,1-1.629.391A3.482,3.482,0,0,1,216.824,64a4.59,4.59,0,0,1-1.02-3.152v-.242a5.089,5.089,0,0,1,.453-2.2,3.451,3.451,0,0,1,1.3-1.492,3.7,3.7,0,0,1,2-.531,3.39,3.39,0,0,1,2.363.852,3.043,3.043,0,0,1,1,2.211h-1.367a1.992,1.992,0,0,0-.621-1.348,1.932,1.932,0,0,0-1.379-.527,2.023,2.023,0,0,0-1.707.793,3.724,3.724,0,0,0-.605,2.293v.273a3.65,3.65,0,0,0,.6,2.25A2.033,2.033,0,0,0,219.57,63.977ZM226.125,65H224.68V56.547h1.445Zm-1.562-10.7a.863.863,0,0,1,.215-.594.807.807,0,0,1,.637-.242.819.819,0,0,1,.641.242.854.854,0,0,1,.219.594.826.826,0,0,1-.219.586.834.834,0,0,1-.641.234.821.821,0,0,1-.637-.234A.834.834,0,0,1,224.563,54.3Zm3.492,6.391a4.993,4.993,0,0,1,.488-2.234A3.642,3.642,0,0,1,229.9,56.93a3.7,3.7,0,0,1,1.988-.539,3.565,3.565,0,0,1,2.793,1.2,4.6,4.6,0,0,1,1.066,3.18v.1a5.036,5.036,0,0,1-.473,2.215,3.589,3.589,0,0,1-1.352,1.527,3.743,3.743,0,0,1-2.02.547,3.556,3.556,0,0,1-2.785-1.2,4.575,4.575,0,0,1-1.066-3.164Zm1.453.172a3.616,3.616,0,0,0,.652,2.258,2.211,2.211,0,0,0,3.5-.012A3.954,3.954,0,0,0,234.3,60.7a3.61,3.61,0,0,0-.66-2.254,2.1,2.1,0,0,0-1.754-.863,2.075,2.075,0,0,0-1.727.852A3.925,3.925,0,0,0,229.508,60.867ZM4.484,87.977a2.082,2.082,0,0,0,1.352-.469,1.649,1.649,0,0,0,.641-1.172H7.844a2.621,2.621,0,0,1-.5,1.383,3.293,3.293,0,0,1-1.23,1.047,3.55,3.55,0,0,1-1.629.391A3.482,3.482,0,0,1,1.738,88a4.59,4.59,0,0,1-1.02-3.152v-.242a5.089,5.089,0,0,1,.453-2.2,3.451,3.451,0,0,1,1.3-1.492,3.7,3.7,0,0,1,2-.531,3.39,3.39,0,0,1,2.363.852,3.043,3.043,0,0,1,1,2.211H6.477a1.992,1.992,0,0,0-.621-1.348,1.932,1.932,0,0,0-1.379-.527,2.023,2.023,0,0,0-1.707.793,3.724,3.724,0,0,0-.605,2.293v.273a3.65,3.65,0,0,0,.6,2.25A2.033,2.033,0,0,0,4.484,87.977Zm4.6-3.281a4.993,4.993,0,0,1,.488-2.234,3.643,3.643,0,0,1,1.359-1.531,3.7,3.7,0,0,1,1.988-.539,3.565,3.565,0,0,1,2.793,1.2,4.6,4.6,0,0,1,1.066,3.18v.1a5.036,5.036,0,0,1-.473,2.215,3.589,3.589,0,0,1-1.352,1.527,3.743,3.743,0,0,1-2.02.547,3.556,3.556,0,0,1-2.785-1.2A4.575,4.575,0,0,1,9.086,84.8Zm1.453.172a3.616,3.616,0,0,0,.652,2.258,2.211,2.211,0,0,0,3.5-.012,3.955,3.955,0,0,0,.648-2.418,3.61,3.61,0,0,0-.66-2.254,2.1,2.1,0,0,0-1.754-.863,2.075,2.075,0,0,0-1.727.852A3.925,3.925,0,0,0,10.539,84.867Zm9.422-4.32.047,1.063a3.08,3.08,0,0,1,2.531-1.219q2.68,0,2.7,3.023V89H23.8V83.406a1.946,1.946,0,0,0-.418-1.352,1.675,1.675,0,0,0-1.277-.437,2.086,2.086,0,0,0-1.234.375,2.546,2.546,0,0,0-.828.984V89H18.594V80.547ZM36.3,86.758a1.064,1.064,0,0,0-.441-.91,4.249,4.249,0,0,0-1.539-.559,7.277,7.277,0,0,1-1.742-.562,2.478,2.478,0,0,1-.953-.781,1.869,1.869,0,0,1-.309-1.078,2.193,2.193,0,0,1,.879-1.758,3.432,3.432,0,0,1,2.246-.719,3.532,3.532,0,0,1,2.332.742,2.357,2.357,0,0,1,.895,1.9H36.219a1.3,1.3,0,0,0-.5-1.023,1.888,1.888,0,0,0-1.27-.43,1.976,1.976,0,0,0-1.234.344,1.082,1.082,0,0,0-.445.9.877.877,0,0,0,.414.789,5.1,5.1,0,0,0,1.5.508,7.8,7.8,0,0,1,1.754.578,2.558,2.558,0,0,1,1,.809,1.988,1.988,0,0,1,.324,1.152,2.163,2.163,0,0,1-.906,1.816,3.8,3.8,0,0,1-2.352.684,4.257,4.257,0,0,1-1.8-.359,2.922,2.922,0,0,1-1.223-1,2.42,2.42,0,0,1-.441-1.395h1.445a1.5,1.5,0,0,0,.582,1.152,2.258,2.258,0,0,0,1.434.426,2.331,2.331,0,0,0,1.316-.332A1.02,1.02,0,0,0,36.3,86.758Zm8.547,1.406a3.07,3.07,0,0,1-2.477.992,2.628,2.628,0,0,1-2.059-.785,3.4,3.4,0,0,1-.715-2.324v-5.5h1.445v5.461q0,1.922,1.563,1.922a2.163,2.163,0,0,0,2.2-1.234V80.547h1.445V89H44.883ZM55.8,87.977a2.082,2.082,0,0,0,1.352-.469,1.649,1.649,0,0,0,.641-1.172h1.367a2.621,2.621,0,0,1-.5,1.383,3.293,3.293,0,0,1-1.23,1.047,3.55,3.55,0,0,1-1.629.391A3.482,3.482,0,0,1,53.059,88a4.59,4.59,0,0,1-1.02-3.152v-.242a5.089,5.089,0,0,1,.453-2.2,3.451,3.451,0,0,1,1.3-1.492,3.7,3.7,0,0,1,2-.531,3.39,3.39,0,0,1,2.363.852,3.043,3.043,0,0,1,1,2.211H57.8a1.992,1.992,0,0,0-.621-1.348,1.932,1.932,0,0,0-1.379-.527,2.023,2.023,0,0,0-1.707.793,3.724,3.724,0,0,0-.605,2.293v.273a3.65,3.65,0,0,0,.6,2.25A2.033,2.033,0,0,0,55.8,87.977Zm4.6-3.281a4.993,4.993,0,0,1,.488-2.234,3.642,3.642,0,0,1,1.359-1.531,3.7,3.7,0,0,1,1.988-.539,3.565,3.565,0,0,1,2.793,1.2,4.6,4.6,0,0,1,1.066,3.18v.1a5.036,5.036,0,0,1-.473,2.215,3.589,3.589,0,0,1-1.352,1.527,3.743,3.743,0,0,1-2.02.547,3.556,3.556,0,0,1-2.785-1.2A4.575,4.575,0,0,1,60.406,84.8Zm1.453.172a3.616,3.616,0,0,0,.652,2.258,2.211,2.211,0,0,0,3.5-.012,3.955,3.955,0,0,0,.648-2.418A3.61,3.61,0,0,0,66,82.441a2.1,2.1,0,0,0-1.754-.863,2.075,2.075,0,0,0-1.727.852A3.925,3.925,0,0,0,61.859,84.867Zm9.414-4.32.039.938a3.122,3.122,0,0,1,2.508-1.094,2.417,2.417,0,0,1,2.414,1.359,3.2,3.2,0,0,1,1.1-.984,3.242,3.242,0,0,1,1.6-.375q2.781,0,2.828,2.945V89H80.313V83.422a1.941,1.941,0,0,0-.414-1.355,1.823,1.823,0,0,0-1.391-.449,1.916,1.916,0,0,0-1.336.48,1.949,1.949,0,0,0-.617,1.293V89H75.1V83.461a1.613,1.613,0,0,0-1.8-1.844,1.934,1.934,0,0,0-1.945,1.211V89H69.906V80.547Zm19.8,4.32a5.062,5.062,0,0,1-.883,3.109,2.829,2.829,0,0,1-2.391,1.18,3.1,3.1,0,0,1-2.422-.977v4.07H83.938v-11.7h1.32l.07.938a2.977,2.977,0,0,1,2.453-1.094,2.882,2.882,0,0,1,2.41,1.148,5.117,5.117,0,0,1,.887,3.2ZM89.633,84.7a3.735,3.735,0,0,0-.609-2.258,1.963,1.963,0,0,0-1.672-.828,2.125,2.125,0,0,0-1.969,1.164V86.82a2.129,2.129,0,0,0,1.984,1.156,1.954,1.954,0,0,0,1.652-.824A4.077,4.077,0,0,0,89.633,84.7Zm6.789,4.453a3.693,3.693,0,0,1-2.8-1.129,4.19,4.19,0,0,1-1.078-3.02v-.266a5.073,5.073,0,0,1,.48-2.246,3.748,3.748,0,0,1,1.344-1.547,3.378,3.378,0,0,1,1.871-.559A3.166,3.166,0,0,1,98.8,81.477a4.7,4.7,0,0,1,.914,3.109v.6H93.992a3,3,0,0,0,.73,2.02,2.3,2.3,0,0,0,1.777.77,2.517,2.517,0,0,0,1.3-.312,3.259,3.259,0,0,0,.93-.828l.883.688A3.55,3.55,0,0,1,96.422,89.156Zm-.18-7.578a1.928,1.928,0,0,0-1.469.637A3.1,3.1,0,0,0,94.039,84h4.234v-.109a2.753,2.753,0,0,0-.594-1.707A1.815,1.815,0,0,0,96.242,81.578Zm7.109-3.078v2.047h1.578v1.117h-1.578v5.249a1.173,1.173,0,0,0,.211.763.888.888,0,0,0,.719.254,3.5,3.5,0,0,0,.688-.094V89a4.215,4.215,0,0,1-1.109.155,1.8,1.8,0,0,1-1.461-.586,2.517,2.517,0,0,1-.492-1.664V81.664h-1.539V80.547h1.539V78.5Zm6.773,10.656a3.693,3.693,0,0,1-2.8-1.129,4.19,4.19,0,0,1-1.078-3.02v-.266a5.073,5.073,0,0,1,.48-2.246,3.748,3.748,0,0,1,1.344-1.547,3.378,3.378,0,0,1,1.871-.559,3.166,3.166,0,0,1,2.563,1.086,4.7,4.7,0,0,1,.914,3.109v.6H107.7a3,3,0,0,0,.73,2.02,2.3,2.3,0,0,0,1.777.77,2.517,2.517,0,0,0,1.3-.312,3.259,3.259,0,0,0,.93-.828l.883.688A3.55,3.55,0,0,1,110.125,89.156Zm-.18-7.578a1.928,1.928,0,0,0-1.469.637A3.1,3.1,0,0,0,107.742,84h4.234v-.109a2.753,2.753,0,0,0-.594-1.707A1.815,1.815,0,0,0,109.945,81.578Zm6.516-1.031.047,1.063a3.08,3.08,0,0,1,2.531-1.219q2.68,0,2.7,3.023V89H120.3V83.406a1.946,1.946,0,0,0-.418-1.352,1.675,1.675,0,0,0-1.277-.437,2.086,2.086,0,0,0-1.234.375,2.546,2.546,0,0,0-.828.984V89h-1.445V80.547Zm10.852,7.43a2.082,2.082,0,0,0,1.352-.469,1.649,1.649,0,0,0,.641-1.172h1.367a2.621,2.621,0,0,1-.5,1.383,3.293,3.293,0,0,1-1.23,1.047,3.55,3.55,0,0,1-1.629.391A3.482,3.482,0,0,1,124.566,88a4.59,4.59,0,0,1-1.02-3.152v-.242a5.089,5.089,0,0,1,.453-2.2,3.451,3.451,0,0,1,1.3-1.492,3.7,3.7,0,0,1,2-.531,3.39,3.39,0,0,1,2.363.852,3.043,3.043,0,0,1,1,2.211H129.3a1.992,1.992,0,0,0-.621-1.348,1.932,1.932,0,0,0-1.379-.527,2.023,2.023,0,0,0-1.707.793,3.724,3.724,0,0,0-.605,2.293v.273a3.65,3.65,0,0,0,.6,2.25A2.033,2.033,0,0,0,127.313,87.977ZM133.867,89h-1.445V80.547h1.445ZM132.3,78.3a.863.863,0,0,1,.215-.594.807.807,0,0,1,.637-.242.819.819,0,0,1,.641.242.854.854,0,0,1,.219.594.826.826,0,0,1-.219.586.834.834,0,0,1-.641.234.821.821,0,0,1-.637-.234A.834.834,0,0,1,132.3,78.3ZM141.4,89a3.036,3.036,0,0,1-.2-.891,3.225,3.225,0,0,1-2.406,1.047,2.984,2.984,0,0,1-2.051-.707,2.287,2.287,0,0,1-.8-1.793,2.39,2.39,0,0,1,1-2.051,4.733,4.733,0,0,1,2.824-.73h1.406v-.664A1.623,1.623,0,0,0,140.719,82a1.821,1.821,0,0,0-1.336-.449,2.108,2.108,0,0,0-1.3.391,1.151,1.151,0,0,0-.523.945h-1.453a2,2,0,0,1,.449-1.223,3.066,3.066,0,0,1,1.219-.934,4.1,4.1,0,0,1,1.691-.344,3.342,3.342,0,0,1,2.289.73,2.635,2.635,0,0,1,.859,2.012v3.891a4.757,4.757,0,0,0,.3,1.852V89ZM139,87.9a2.54,2.54,0,0,0,1.289-.352,2.127,2.127,0,0,0,.883-.914V84.9h-1.133q-2.656,0-2.656,1.555a1.316,1.316,0,0,0,.453,1.063A1.742,1.742,0,0,0,139,87.9Zm5.914.344a.905.905,0,0,1,.223-.625.848.848,0,0,1,.668-.25.874.874,0,0,1,.676.25.887.887,0,0,1,.23.625.839.839,0,0,1-.23.6.89.89,0,0,1-.676.242.8.8,0,0,1-.891-.844Z" transform="translate(681 6617.893)" fill="#12263f"/>
    <g id="mobilephone_·_ecommerce_·_shopping_·_buy_·_cart" data-name="mobilephone · ecommerce · shopping · buy · cart" transform="translate(750.667 6381.664)">
      <path id="Trazado_110017" data-name="Trazado 110017" d="M3,9H60.045V74.434H3Z" transform="translate(0.678 4.744)" fill="#f9e478"/>
      <path id="Trazado_110018" data-name="Trazado 110018" d="M53.333,9V37.522A33.556,33.556,0,0,1,19.778,71.078H3v3.356H60.045V9Z" transform="translate(0.678 4.744)" fill="#ffc477"/>
      <path id="Trazado_110019" data-name="Trazado 110019" d="M33,13H79.978V53.267H33Z" transform="translate(21.011 7.456)" fill="#bb83ff"/>
      <path id="Trazado_110020" data-name="Trazado 110020" d="M73.267,13V36.489A13.422,13.422,0,0,1,59.845,49.911H33v3.356H79.978V13Z" transform="translate(21.011 7.456)" fill="#995de1"/>
      <path id="Trazado_110021" data-name="Trazado 110021" d="M59.608,20H43.25l1.258,10.067H56.253Z" transform="translate(27.959 12.2)" fill="#f17781"/>
      <path id="Trazado_110022" data-name="Trazado 110022" d="M27,55V65.067H60.556V55H27Z" transform="translate(16.945 35.923)" fill="#31d9e7"/>
      <path id="Trazado_110023" data-name="Trazado 110023" d="M34.489,21.711,41.2,23.389V16.678L34.517,15H31.133a5.033,5.033,0,1,1-10.067,0h-3.4L11,16.678v6.711l6.711-1.678V38.489H34.489Z" transform="translate(6.1 8.811)" fill="#f17781"/>
      <path id="Trazado_110024" data-name="Trazado 110024" d="M53.333,3H9.711A6.711,6.711,0,0,0,3,9.711v3.356H60.045V9.711A6.711,6.711,0,0,0,53.333,3Z" transform="translate(0.678 0.678)" fill="#31d9e7"/>
      <path id="Trazado_110025" data-name="Trazado 110025" d="M3,54.711a6.711,6.711,0,0,0,6.711,6.711H46.622a6.711,6.711,0,0,0,6.711-6.711V48H3Z" transform="translate(0.678 31.178)" fill="#31d9e7"/>
      <path id="Trazado_110026" data-name="Trazado 110026" d="M57.2,41.777a3.366,3.366,0,0,0-3.356,3.356V41.777a3.356,3.356,0,1,0-6.711,0V40.1a3.356,3.356,0,0,0-6.711,0V28.355a3.376,3.376,0,0,0-3.653-3.342,3.481,3.481,0,0,0-3.059,3.53v16.59H30.356A3.366,3.366,0,0,0,27,48.488V63.9a10.067,10.067,0,0,0,1.692,5.586l1.1,1.65a3.356,3.356,0,0,1,.564,1.862v2.339H57.2V72.994a3.356,3.356,0,0,1,.564-1.863l1.1-1.65A10.067,10.067,0,0,0,60.556,63.9V45.133A3.381,3.381,0,0,0,57.2,41.777Z" transform="translate(16.945 15.59)" fill="#ffbcab"/>
      <g id="Grupo_62542" data-name="Grupo 62542" transform="translate(2 2)">
        <path id="Trazado_110027" data-name="Trazado 110027" d="M17.678,8.356h1.678a1.678,1.678,0,1,0,0-3.356H17.678a1.678,1.678,0,1,0,0,3.356Z" transform="translate(7.489 0.033)" fill="#47286d"/>
        <path id="Trazado_110028" data-name="Trazado 110028" d="M22.678,8.356h1.678a1.678,1.678,0,1,0,0-3.356H22.678a1.678,1.678,0,1,0,0,3.356Z" transform="translate(10.878 0.033)" fill="#47286d"/>
        <path id="Trazado_110029" data-name="Trazado 110029" d="M100.989,18.778H62.4V10.389A8.389,8.389,0,0,0,54.011,2H10.389A8.389,8.389,0,0,0,2,10.389v75.5a8.389,8.389,0,0,0,8.389,8.389H42.267v6.711a1.678,1.678,0,0,0,1.678,1.678H77.5a1.678,1.678,0,0,0,1.678-1.678V90.923A1.678,1.678,0,0,0,77.5,89.245H75.822V88.59a1.716,1.716,0,0,1,.285-.94L77.2,86.007a11.744,11.744,0,0,0,1.98-6.527V62.4h21.811a1.678,1.678,0,0,0,1.678-1.678V20.456A1.678,1.678,0,0,0,100.989,18.778ZM5.356,10.389a5.048,5.048,0,0,1,5.033-5.033H54.011a5.048,5.048,0,0,1,5.033,5.033v1.678H5.356Zm0,5.033H59.045v3.356H54.011a1.678,1.678,0,0,0-1.678,1.678V39.23a5.24,5.24,0,0,0-3.356,4.9V59.045H47.3a5.048,5.048,0,0,0-5.033,5.033V77.5H5.356Zm36.911,75.5H10.389a5.048,5.048,0,0,1-5.033-5.033V80.856H42.367a11.756,11.756,0,0,0,1.879,5.151l1.091,1.644a1.716,1.716,0,0,1,.285.94v.654H43.945A1.678,1.678,0,0,0,42.267,90.923Zm33.556,8.389h-30.2V92.6h30.2Zm0-19.831a8.416,8.416,0,0,1-1.409,4.664l-1.107,1.644a5.033,5.033,0,0,0-.839,2.8v.654H48.978V88.59a5.033,5.033,0,0,0-.839-2.8l-1.107-1.644a8.416,8.416,0,0,1-1.409-4.664v-15.4A1.678,1.678,0,0,1,47.3,62.4h1.678v8.389a1.678,1.678,0,1,0,3.356,0V44.129a1.832,1.832,0,0,1,1.527-1.862,1.653,1.653,0,0,1,1.342.52,1.557,1.557,0,0,1,.487,1.158V64.078a1.678,1.678,0,0,0,3.356,0V55.689a1.678,1.678,0,0,1,1.678-1.678,1.592,1.592,0,0,1,1.191.52,1.557,1.557,0,0,1,.487,1.158v8.389a1.678,1.678,0,0,0,3.356,0V57.367a1.678,1.678,0,0,1,1.678-1.678,1.592,1.592,0,0,1,1.191.52,1.557,1.557,0,0,1,.487,1.158v6.711a1.678,1.678,0,0,0,3.356,0V60.722a1.678,1.678,0,0,1,1.678-1.678,1.592,1.592,0,0,1,1.191.52,1.557,1.557,0,0,1,.487,1.158ZM99.311,59.045H78.876a4.986,4.986,0,0,0-1.158-1.862A5.136,5.136,0,0,0,72.3,56.041a4.936,4.936,0,0,0-1.292-2.215,5.176,5.176,0,0,0-6.04-.839,4.6,4.6,0,0,0-.671-.839,5.144,5.144,0,0,0-5.251-1.208v-7a4.956,4.956,0,0,0-1.46-3.54,5.114,5.114,0,0,0-1.9-1.191V22.133H99.311Z" transform="translate(-2 -2)" fill="#47286d"/>
        <path id="Trazado_110030" data-name="Trazado 110030" d="M11.356,33H9.678a1.678,1.678,0,1,0,0,3.356h1.678a1.678,1.678,0,1,0,0-3.356Z" transform="translate(2.067 19.011)" fill="#47286d"/>
        <path id="Trazado_110031" data-name="Trazado 110031" d="M31.456,33H14.678a1.678,1.678,0,1,0,0,3.356H31.456a1.678,1.678,0,0,0,0-3.356Z" transform="translate(5.456 19.011)" fill="#47286d"/>
        <path id="Trazado_110032" data-name="Trazado 110032" d="M11.356,37H9.678a1.678,1.678,0,1,0,0,3.356h1.678a1.678,1.678,0,1,0,0-3.356Z" transform="translate(2.067 21.722)" fill="#47286d"/>
        <path id="Trazado_110033" data-name="Trazado 110033" d="M28.1,37H14.678a1.678,1.678,0,1,0,0,3.356H28.1A1.678,1.678,0,1,0,28.1,37Z" transform="translate(5.456 21.722)" fill="#47286d"/>
        <path id="Trazado_110034" data-name="Trazado 110034" d="M11.356,41H9.678a1.678,1.678,0,1,0,0,3.356h1.678a1.678,1.678,0,1,0,0-3.356Z" transform="translate(2.067 24.434)" fill="#47286d"/>
        <path id="Trazado_110035" data-name="Trazado 110035" d="M28.1,41H14.678a1.678,1.678,0,1,0,0,3.356H28.1A1.678,1.678,0,1,0,28.1,41Z" transform="translate(5.456 24.434)" fill="#47286d"/>
        <ellipse id="Elipse_4710" data-name="Elipse 4710" cx="3.5" cy="3" rx="3.5" ry="3" transform="translate(68.333 42.333)" fill="#47286d"/>
        <ellipse id="Elipse_4711" data-name="Elipse 4711" cx="3.5" cy="3" rx="3.5" ry="3" transform="translate(77.333 42.333)" fill="#47286d"/>
        <path id="Trazado_110036" data-name="Trazado 110036" d="M41.678,20.356h1.874l.233,1.864v.049l1.255,10.04a1.678,1.678,0,0,0,1.671,1.47H58.456a1.678,1.678,0,0,0,1.592-1.148L63.4,22.564a1.678,1.678,0,0,0-1.592-2.208H46.934L46.7,18.47A1.678,1.678,0,0,0,45.033,17H41.678a1.678,1.678,0,1,0,0,3.356Zm17.806,3.356-2.238,6.711h-9.06l-.839-6.711Z" transform="translate(23.756 8.167)" fill="#47286d"/>
        <path id="Trazado_110037" data-name="Trazado 110037" d="M25.389,51H18.678a1.678,1.678,0,0,0,0,3.356h6.711a1.678,1.678,0,1,0,0-3.356Z" transform="translate(8.167 31.211)" fill="#47286d"/>
        <path id="Trazado_110038" data-name="Trazado 110038" d="M42.287,15.728,35.6,14.05A1.664,1.664,0,0,0,35.2,14H31.811a1.678,1.678,0,0,0-1.678,1.678,3.356,3.356,0,1,1-6.711,0A1.678,1.678,0,0,0,21.744,14h-3.4a1.688,1.688,0,0,0-.41.05l-6.669,1.678A1.678,1.678,0,0,0,10,17.356v6.711a1.678,1.678,0,0,0,2.085,1.627l4.626-1.156V39.167a1.678,1.678,0,0,0,1.678,1.678H35.167a1.678,1.678,0,0,0,1.678-1.678V24.538l4.626,1.156a1.678,1.678,0,0,0,2.085-1.627V17.356a1.678,1.678,0,0,0-1.269-1.628ZM40.2,21.917l-4.626-1.156a1.679,1.679,0,0,0-2.085,1.627v15.1H20.067v-15.1a1.678,1.678,0,0,0-2.085-1.627l-4.626,1.156V18.664l5.2-1.309H20.28a6.711,6.711,0,0,0,13,0h1.711l5.21,1.309Z" transform="translate(3.422 6.133)" fill="#47286d"/>
      </g>
    </g>
  </g>
</svg>
