<svg xmlns="http://www.w3.org/2000/svg" width="292" height="424.709" viewBox="0 0 292 424.709">
  <g id="Grupo_68158" data-name="Grupo 68158" transform="translate(-966 -6337.957)">
    <g id="Elipse_4691" data-name="Elipse 4691" transform="translate(1013 6337.957)" fill="#fff" stroke="#8a8a8a" stroke-width="3" stroke-dasharray="3 4">
      <circle cx="98" cy="98" r="98" stroke="none"/>
      <circle cx="98" cy="98" r="96.5" fill="none"/>
    </g>
    <ellipse id="Elipse_4693" data-name="Elipse 4693" cx="87.5" cy="87" rx="87.5" ry="87" transform="translate(1025 6348.957)" fill="#bb83ff" opacity="0.5"/>
    <rect id="Rectángulo_6393" data-name="Rectángulo 6393" width="292" height="195.624" rx="5" transform="translate(966 6567.043)" fill="#fff"/>
    <text id="Programas_de_afiliados_" data-name="Programas de afiliados
" transform="translate(1015 6581.893)" fill="#12263f" font-size="18" font-family="Roboto-Black, Roboto" font-weight="800"><tspan x="3.071" y="19">Programas de afiliados</tspan></text>
    <line id="Línea_270" data-name="Línea 270" y1="33" transform="translate(1109.5 6533.957)" fill="none" stroke="#707070" stroke-width="3" stroke-dasharray="3 4" style="mix-blend-mode: multiply;isolation: isolate"/>
    <text id="Dichos_programas_se_encargan_de_promover_productos_o_servicios_de_terceros_en_sus_sitios_web_blog_o_redes_sociales_con_el_propósito_de_recibir_comisiones._" data-name="Dichos programas se encargan de promover productos o servicios de terceros en sus sitios web, blog o redes sociales, con el propósito de recibir comisiones. 
" transform="translate(993 6617.893)" fill="#12263f" font-size="16" font-family="Roboto-Regular, Roboto"><tspan x="0" y="17">Dichos programas se encargan de </tspan><tspan x="0" y="41">promover productos o servicios </tspan><tspan x="0" y="65">de terceros en sus sitios web, </tspan></text>
    <g id="extra" transform="translate(1045.835 6363.971)">
      <g id="Grupo_62562" data-name="Grupo 62562" transform="translate(18.665 27.773)">
        <g id="Grupo_62551" data-name="Grupo 62551" transform="translate(1.386 1.386)">
          <g id="Grupo_62546" data-name="Grupo 62546">
            <g id="Grupo_62543" data-name="Grupo 62543">
              <path id="Trazado_110039" data-name="Trazado 110039" d="M26.3,30.773H23.974a2.31,2.31,0,0,0-2.309,2.309v8.776H25.65V33.082c0-1.275.291-2.309.649-2.309Z" transform="translate(-21.665 -30.773)" fill="#ef7f72"/>
            </g>
            <g id="Grupo_62544" data-name="Grupo 62544" transform="translate(7.1)">
              <path id="Trazado_110040" data-name="Trazado 110040" d="M37.038,30.773h3.985V41.858H37.038Z" transform="translate(-37.038 -30.773)" fill="#e8383b"/>
            </g>
            <g id="Grupo_62545" data-name="Grupo 62545" transform="translate(3.985)">
              <path id="Trazado_110041" data-name="Trazado 110041" d="M30.942,30.773c-.358,0-.649,1.034-.649,2.309v8.776h3.115V30.773Z" transform="translate(-30.293 -30.773)" fill="#e95947"/>
            </g>
          </g>
          <g id="Grupo_62550" data-name="Grupo 62550" transform="translate(11.085)">
            <g id="Grupo_62547" data-name="Grupo 62547">
              <path id="Trazado_110042" data-name="Trazado 110042" d="M45.665,30.773H73.378V41.858H45.665Z" transform="translate(-45.665 -30.773)" fill="#89aadb"/>
            </g>
            <g id="Grupo_62548" data-name="Grupo 62548" transform="translate(54.656)">
              <path id="Trazado_110043" data-name="Trazado 110043" d="M190.171,30.773H164c.425,0,.77,1.034.77,2.309v8.776h27.713V33.082a2.309,2.309,0,0,0-2.309-2.309Z" transform="translate(-163.998 -30.773)" fill="#4b67b0"/>
            </g>
            <g id="Grupo_62549" data-name="Grupo 62549" transform="translate(27.713)">
              <path id="Trazado_110044" data-name="Trazado 110044" d="M132.609,30.773H105.666V41.858h27.713V33.082c0-1.275-.345-2.309-.77-2.309Z" transform="translate(-105.666 -30.773)" fill="#6287c5"/>
            </g>
          </g>
        </g>
        <g id="Grupo_62555" data-name="Grupo 62555" transform="translate(1.386 12.471)">
          <g id="Grupo_62553" data-name="Grupo 62553" transform="translate(0 0)">
            <path id="Trazado_110046" data-name="Trazado 110046" d="M114.764,128.225V54.773h-93.1v72.515c0,1.275,3.161,2.309,7.059,2.309H118.96C116.644,129.6,114.764,128.983,114.764,128.225Z" transform="translate(-21.665 -54.773)" fill="#c9e0fd"/>
          </g>
        </g>
        <g id="Grupo_62556" data-name="Grupo 62556" transform="translate(0 11.085)">
          <path id="Trazado_110048" data-name="Trazado 110048" d="M111.965,129.369H22.36a3.7,3.7,0,0,1-3.7-3.7V53.159a1.386,1.386,0,0,1,1.386-1.386h94.224a1.386,1.386,0,0,1,1.386,1.386v72.515A3.7,3.7,0,0,1,111.965,129.369ZM21.436,54.544v71.13a.925.925,0,0,0,.924.924h89.6a.925.925,0,0,0,.924-.924V54.544Z" transform="translate(-18.665 -51.773)" fill="#47286d"/>
        </g>
        <g id="Grupo_62557" data-name="Grupo 62557">
          <path id="Trazado_110049" data-name="Trazado 110049" d="M114.274,41.629H20.051a1.386,1.386,0,0,1-1.386-1.386V31.468a3.7,3.7,0,0,1,3.7-3.7h89.6a3.7,3.7,0,0,1,3.7,3.7v8.776A1.386,1.386,0,0,1,114.274,41.629ZM21.436,38.858h91.452v-7.39a.925.925,0,0,0-.924-.924H22.36a.925.925,0,0,0-.924.924Z" transform="translate(-18.665 -27.773)" fill="#47286d"/>
        </g>
        <g id="Grupo_62558" data-name="Grupo 62558" transform="translate(11.085)">
          <path id="Trazado_110050" data-name="Trazado 110050" d="M44.051,41.629a1.386,1.386,0,0,1-1.386-1.386V29.159a1.386,1.386,0,1,1,2.771,0V40.244A1.386,1.386,0,0,1,44.051,41.629Z" transform="translate(-42.665 -27.773)" fill="#47286d"/>
        </g>
        <g id="Grupo_62561" data-name="Grupo 62561" transform="translate(3.985 3.985)">
          <g id="Grupo_62559" data-name="Grupo 62559">
            <path id="Trazado_110051" data-name="Trazado 110051" d="M31.794,42.288a1.381,1.381,0,0,1-.98-.406L27.7,38.766a1.385,1.385,0,1,1,1.959-1.959l3.115,3.115a1.386,1.386,0,0,1-.98,2.365Z" transform="translate(-27.293 -36.401)" fill="#47286d"/>
          </g>
          <g id="Grupo_62560" data-name="Grupo 62560">
            <path id="Trazado_110052" data-name="Trazado 110052" d="M28.679,42.288a1.386,1.386,0,0,1-.98-2.365l3.115-3.115a1.385,1.385,0,1,1,1.959,1.959l-3.115,3.115A1.381,1.381,0,0,1,28.679,42.288Z" transform="translate(-27.293 -36.401)" fill="#47286d"/>
          </g>
        </g>
      </g>
      <g id="Grupo_62584" data-name="Grupo 62584" transform="translate(46.376 48.588)">
        <g id="Grupo_62566" data-name="Grupo 62566" transform="translate(1.385 1.386)">
          <g id="Grupo_62563" data-name="Grupo 62563" transform="translate(23.041)">
            <path id="Trazado_110053" data-name="Trazado 110053" d="M148.532,89.558l-4.241-.707L142.577,82a8.133,8.133,0,0,0-7.89-6.161h-3.142c1.4,0,2.627,2.54,2.968,6.161l.644,6.852,1.6.707c.492.218.852,1.349.852,2.674v6.379H150.8V92.232A2.711,2.711,0,0,0,148.532,89.558Z" transform="translate(-131.545 -75.838)" fill="#4b67b0"/>
          </g>
          <g id="Grupo_62564" data-name="Grupo 62564">
            <path id="Trazado_110054" data-name="Trazado 110054" d="M95.7,89.558l1.6-.707L97.945,82c.34-3.621,1.564-6.161,2.968-6.161H97.77A8.133,8.133,0,0,0,89.88,82l-1.713,6.852-4.241.707a2.711,2.711,0,0,0-2.266,2.674v6.379H94.852V92.232C94.853,90.907,95.213,89.776,95.7,89.558Z" transform="translate(-81.66 -75.838)" fill="#89aadb"/>
          </g>
          <g id="Grupo_62565" data-name="Grupo 62565" transform="translate(13.193)">
            <path id="Trazado_110055" data-name="Trazado 110055" d="M125.279,89.558l-1.6-.707L123.039,82c-.34-3.621-1.564-6.161-2.968-6.161h-3.788c-1.4,0-2.627,2.54-2.968,6.161l-.644,6.852-1.6.707c-.491.218-.852,1.349-.852,2.674v6.379h15.907V92.232C126.131,90.907,125.771,89.776,125.279,89.558Z" transform="translate(-110.224 -75.838)" fill="#6287c5"/>
          </g>
        </g>
        <g id="Grupo_62567" data-name="Grupo 62567">
          <path id="Trazado_110056" data-name="Trazado 110056" d="M122.339,98.382H80.047A1.386,1.386,0,0,1,78.661,97V90.618a4.084,4.084,0,0,1,3.423-4.041l3.345-.557,1.493-5.971a9.505,9.505,0,0,1,9.234-7.21h10.073a9.5,9.5,0,0,1,9.234,7.21l1.493,5.971,3.344.557a4.084,4.084,0,0,1,3.423,4.041V97a1.384,1.384,0,0,1-1.385,1.386ZM81.432,95.611h39.521V90.618a1.322,1.322,0,0,0-1.108-1.308L115.6,88.6a1.385,1.385,0,0,1-1.116-1.03l-1.713-6.852a6.738,6.738,0,0,0-6.546-5.111H96.157A6.738,6.738,0,0,0,89.61,80.72L87.9,87.573a1.384,1.384,0,0,1-1.116,1.03l-4.241.707a1.321,1.321,0,0,0-1.107,1.308Z" transform="translate(-78.661 -72.838)" fill="#47286d"/>
        </g>
        <g id="Grupo_62571" data-name="Grupo 62571" transform="translate(7.892 19.278)">
          <g id="Grupo_62568" data-name="Grupo 62568" transform="translate(0 0)">
            <path id="Trazado_110057" data-name="Trazado 110057" d="M99.543,119.458c0-2.7.485-4.88,1.084-4.88a4.88,4.88,0,0,0,0,9.76C100.029,124.338,99.543,122.153,99.543,119.458Z" transform="translate(-95.748 -114.578)" fill="#a4d4a0"/>
          </g>
          <g id="Grupo_62569" data-name="Grupo 62569" transform="translate(4.88)">
            <path id="Trazado_110058" data-name="Trazado 110058" d="M106.313,114.577c.6,0,1.084,2.185,1.084,4.88s-.485,4.88-1.084,4.88a4.88,4.88,0,0,0,0-9.76Z" transform="translate(-106.313 -114.577)" fill="#419b46"/>
          </g>
          <g id="Grupo_62570" data-name="Grupo 62570" transform="translate(3.795 0)">
            <ellipse id="Elipse_4712" data-name="Elipse 4712" cx="1.084" cy="4.88" rx="1.084" ry="4.88" fill="#65bc49"/>
          </g>
        </g>
        <g id="Grupo_62575" data-name="Grupo 62575" transform="translate(27.412 19.278)">
          <g id="Grupo_62572" data-name="Grupo 62572" transform="translate(0 0)">
            <path id="Trazado_110059" data-name="Trazado 110059" d="M141.8,119.458c0-2.7.485-4.88,1.085-4.88a4.88,4.88,0,1,0,0,9.76C142.29,124.338,141.8,122.153,141.8,119.458Z" transform="translate(-138.009 -114.578)" fill="#a4d4a0"/>
          </g>
          <g id="Grupo_62573" data-name="Grupo 62573" transform="translate(4.88)">
            <path id="Trazado_110060" data-name="Trazado 110060" d="M148.574,114.577c.6,0,1.085,2.185,1.085,4.88s-.485,4.88-1.085,4.88a4.88,4.88,0,1,0,0-9.76Z" transform="translate(-148.574 -114.577)" fill="#419b46"/>
          </g>
          <g id="Grupo_62574" data-name="Grupo 62574" transform="translate(3.795 0)">
            <ellipse id="Elipse_4713" data-name="Elipse 4713" cx="1.084" cy="4.88" rx="1.084" ry="4.88" fill="#65bc49"/>
          </g>
        </g>
        <g id="Grupo_62576" data-name="Grupo 62576" transform="translate(6.507 17.893)">
          <path id="Trazado_110061" data-name="Trazado 110061" d="M99.013,124.109a6.265,6.265,0,1,1,6.265-6.265A6.272,6.272,0,0,1,99.013,124.109Zm0-9.76a3.494,3.494,0,1,0,3.494,3.494A3.5,3.5,0,0,0,99.013,114.349Z" transform="translate(-92.748 -111.578)" fill="#47286d"/>
        </g>
        <g id="Grupo_62577" data-name="Grupo 62577" transform="translate(26.026 17.893)">
          <path id="Trazado_110062" data-name="Trazado 110062" d="M141.274,124.109a6.265,6.265,0,1,1,6.265-6.265A6.272,6.272,0,0,1,141.274,124.109Zm0-9.76a3.494,3.494,0,1,0,3.494,3.494A3.5,3.5,0,0,0,141.274,114.349Z" transform="translate(-135.009 -111.578)" fill="#47286d"/>
        </g>
        <g id="Grupo_62581" data-name="Grupo 62581" transform="translate(15.005 6.265)">
          <g id="Grupo_62578" data-name="Grupo 62578">
            <path id="Trazado_110063" data-name="Trazado 110063" d="M116.987,86.4h-2.369a2.711,2.711,0,0,0-2.665,2.211l-.806,4.3h4.4l.335-4.3C115.979,87.332,116.444,86.4,116.987,86.4Z" transform="translate(-111.148 -86.403)" fill="#ede49d"/>
          </g>
          <g id="Grupo_62579" data-name="Grupo 62579" transform="translate(9.214)">
            <path id="Trazado_110064" data-name="Trazado 110064" d="M136.131,88.614a2.712,2.712,0,0,0-2.665-2.211H131.1c.543,0,1.008.929,1.109,2.211l.335,4.3h4.4Z" transform="translate(-131.097 -86.403)" fill="#d3ba2a"/>
          </g>
          <g id="Grupo_62580" data-name="Grupo 62580" transform="translate(4.396)">
            <path id="Trazado_110065" data-name="Trazado 110065" d="M125.483,86.4h-3.375c-.543,0-1.008.929-1.109,2.211l-.335,4.3h6.262l-.335-4.3C126.492,87.332,126.026,86.4,125.483,86.4Z" transform="translate(-120.665 -86.403)" fill="#eee045"/>
          </g>
        </g>
        <g id="Grupo_62582" data-name="Grupo 62582" transform="translate(13.619 4.88)">
          <path id="Trazado_110066" data-name="Trazado 110066" d="M124.586,92.681H109.533a1.386,1.386,0,0,1-1.362-1.641l.806-4.3A4.1,4.1,0,0,1,113,83.4h8.112a4.1,4.1,0,0,1,4.027,3.342l.805,4.3a1.386,1.386,0,0,1-1.361,1.641ZM111.2,89.91h11.713l-.5-2.654a1.327,1.327,0,0,0-1.3-1.081H113a1.326,1.326,0,0,0-1.3,1.081Z" transform="translate(-108.147 -83.403)" fill="#47286d"/>
        </g>
        <g id="Grupo_62583" data-name="Grupo 62583" transform="translate(21.146 4.88)">
          <path id="Trazado_110067" data-name="Trazado 110067" d="M125.829,92.681a1.386,1.386,0,0,1-1.386-1.386V84.789a1.386,1.386,0,0,1,2.771,0V91.3A1.385,1.385,0,0,1,125.829,92.681Z" transform="translate(-124.443 -83.403)" fill="#47286d"/>
        </g>
      </g>
      <g id="Grupo_62609" data-name="Grupo 62609" transform="translate(25.394 84.584)">
        <g id="Grupo_62592" data-name="Grupo 62592">
          <g id="Grupo_62588" data-name="Grupo 62588" transform="translate(1.386 1.386)">
            <g id="Grupo_62585" data-name="Grupo 62585">
              <path id="Trazado_110068" data-name="Trazado 110068" d="M57.706,171.831V155.114c0-.74,1.752-1.341,3.913-1.341H42.972c-3.721,0-6.739,1.034-6.739,2.309v14.78c0,1.275,3.018,2.309,6.739,2.309H61.619C59.457,173.172,57.706,172.572,57.706,171.831Z" transform="translate(-36.233 -153.773)" fill="#f17781"/>
            </g>
          </g>
          <g id="Grupo_62589" data-name="Grupo 62589">
            <path id="Trazado_110071" data-name="Trazado 110071" d="M54.51,172.943H36.928a3.7,3.7,0,0,1-3.7-3.7v-14.78a3.7,3.7,0,0,1,3.7-3.7H54.509a3.7,3.7,0,0,1,3.7,3.7v14.78A3.7,3.7,0,0,1,54.51,172.943Zm-17.581-19.4a.925.925,0,0,0-.924.924v14.78a.925.925,0,0,0,.924.924H54.509a.925.925,0,0,0,.924-.924v-14.78a.925.925,0,0,0-.924-.924Z" transform="translate(-33.233 -150.773)" fill="#47286d"/>
          </g>
          <g id="Grupo_62590" data-name="Grupo 62590" transform="translate(6.881 5.548)">
            <path id="Trazado_110072" data-name="Trazado 110072" d="M59.248,166.4H55.636v-3.613H51.744V166.4H48.131v3.891h3.613V173.9h3.891v-3.613h3.613Z" transform="translate(-48.131 -162.784)" fill="#31d9e7"/>
          </g>
          <g id="Grupo_62591" data-name="Grupo 62591" transform="translate(5.496 4.162)">
            <path id="Trazado_110073" data-name="Trazado 110073" d="M54.022,173.673H50.13a1.386,1.386,0,0,1-1.386-1.386V170.06H46.518a1.386,1.386,0,0,1-1.386-1.386v-3.891a1.386,1.386,0,0,1,1.386-1.386h2.227v-2.227a1.386,1.386,0,0,1,1.386-1.386h3.891a1.386,1.386,0,0,1,1.386,1.386V163.4h2.227a1.386,1.386,0,0,1,1.386,1.386v3.891a1.386,1.386,0,0,1-1.386,1.386H55.407v2.227A1.386,1.386,0,0,1,54.022,173.673ZM51.516,170.9h1.12v-2.227a1.386,1.386,0,0,1,1.386-1.386h2.227v-1.12H54.022a1.386,1.386,0,0,1-1.386-1.386v-2.227h-1.12v2.227a1.386,1.386,0,0,1-1.386,1.386H47.9v1.12H50.13a1.386,1.386,0,0,1,1.386,1.386Z" transform="translate(-45.132 -159.785)" fill="#47286d"/>
          </g>
        </g>
        <g id="Grupo_62617" data-name="Grupo 62617" transform="translate(26.771)">
          <g id="Grupo_62588-2" data-name="Grupo 62588" transform="translate(1.386 1.386)">
            <g id="Grupo_62585-2" data-name="Grupo 62585">
              <path id="Trazado_110068-2" data-name="Trazado 110068" d="M57.706,171.831V155.114c0-.74,1.752-1.341,3.913-1.341H42.972c-3.721,0-6.739,1.034-6.739,2.309v14.78c0,1.275,3.018,2.309,6.739,2.309H61.619C59.457,173.172,57.706,172.572,57.706,171.831Z" transform="translate(-36.233 -153.773)" fill="#f17781"/>
            </g>
          </g>
          <g id="Grupo_62589-2" data-name="Grupo 62589">
            <path id="Trazado_110071-2" data-name="Trazado 110071" d="M54.51,172.943H36.928a3.7,3.7,0,0,1-3.7-3.7v-14.78a3.7,3.7,0,0,1,3.7-3.7H54.509a3.7,3.7,0,0,1,3.7,3.7v14.78A3.7,3.7,0,0,1,54.51,172.943Zm-17.581-19.4a.925.925,0,0,0-.924.924v14.78a.925.925,0,0,0,.924.924H54.509a.925.925,0,0,0,.924-.924v-14.78a.925.925,0,0,0-.924-.924Z" transform="translate(-33.233 -150.773)" fill="#47286d"/>
          </g>
          <g id="Grupo_62590-2" data-name="Grupo 62590" transform="translate(6.881 5.548)">
            <path id="Trazado_110072-2" data-name="Trazado 110072" d="M59.248,166.4H55.636v-3.613H51.744V166.4H48.131v3.891h3.613V173.9h3.891v-3.613h3.613Z" transform="translate(-48.131 -162.784)" fill="#31d9e7"/>
          </g>
          <g id="Grupo_62591-2" data-name="Grupo 62591" transform="translate(5.496 4.162)">
            <path id="Trazado_110073-2" data-name="Trazado 110073" d="M54.022,173.673H50.13a1.386,1.386,0,0,1-1.386-1.386V170.06H46.518a1.386,1.386,0,0,1-1.386-1.386v-3.891a1.386,1.386,0,0,1,1.386-1.386h2.227v-2.227a1.386,1.386,0,0,1,1.386-1.386h3.891a1.386,1.386,0,0,1,1.386,1.386V163.4h2.227a1.386,1.386,0,0,1,1.386,1.386v3.891a1.386,1.386,0,0,1-1.386,1.386H55.407v2.227A1.386,1.386,0,0,1,54.022,173.673ZM51.516,170.9h1.12v-2.227a1.386,1.386,0,0,1,1.386-1.386h2.227v-1.12H54.022a1.386,1.386,0,0,1-1.386-1.386v-2.227h-1.12v2.227a1.386,1.386,0,0,1-1.386,1.386H47.9v1.12H50.13a1.386,1.386,0,0,1,1.386,1.386Z" transform="translate(-45.132 -159.785)" fill="#47286d"/>
          </g>
        </g>
        <g id="Grupo_62618" data-name="Grupo 62618" transform="translate(53.543)">
          <g id="Grupo_62588-3" data-name="Grupo 62588" transform="translate(1.386 1.386)">
            <g id="Grupo_62585-3" data-name="Grupo 62585">
              <path id="Trazado_110068-3" data-name="Trazado 110068" d="M57.706,171.831V155.114c0-.74,1.752-1.341,3.913-1.341H42.972c-3.721,0-6.739,1.034-6.739,2.309v14.78c0,1.275,3.018,2.309,6.739,2.309H61.619C59.457,173.172,57.706,172.572,57.706,171.831Z" transform="translate(-36.233 -153.773)" fill="#f17781"/>
            </g>
          </g>
          <g id="Grupo_62589-3" data-name="Grupo 62589">
            <path id="Trazado_110071-3" data-name="Trazado 110071" d="M54.51,172.943H36.928a3.7,3.7,0,0,1-3.7-3.7v-14.78a3.7,3.7,0,0,1,3.7-3.7H54.509a3.7,3.7,0,0,1,3.7,3.7v14.78A3.7,3.7,0,0,1,54.51,172.943Zm-17.581-19.4a.925.925,0,0,0-.924.924v14.78a.925.925,0,0,0,.924.924H54.509a.925.925,0,0,0,.924-.924v-14.78a.925.925,0,0,0-.924-.924Z" transform="translate(-33.233 -150.773)" fill="#47286d"/>
          </g>
          <g id="Grupo_62590-3" data-name="Grupo 62590" transform="translate(6.881 5.548)">
            <path id="Trazado_110072-3" data-name="Trazado 110072" d="M59.248,166.4H55.636v-3.613H51.744V166.4H48.131v3.891h3.613V173.9h3.891v-3.613h3.613Z" transform="translate(-48.131 -162.784)" fill="#31d9e7"/>
          </g>
          <g id="Grupo_62591-3" data-name="Grupo 62591" transform="translate(5.496 4.162)">
            <path id="Trazado_110073-3" data-name="Trazado 110073" d="M54.022,173.673H50.13a1.386,1.386,0,0,1-1.386-1.386V170.06H46.518a1.386,1.386,0,0,1-1.386-1.386v-3.891a1.386,1.386,0,0,1,1.386-1.386h2.227v-2.227a1.386,1.386,0,0,1,1.386-1.386h3.891a1.386,1.386,0,0,1,1.386,1.386V163.4h2.227a1.386,1.386,0,0,1,1.386,1.386v3.891a1.386,1.386,0,0,1-1.386,1.386H55.407v2.227A1.386,1.386,0,0,1,54.022,173.673ZM51.516,170.9h1.12v-2.227a1.386,1.386,0,0,1,1.386-1.386h2.227v-1.12H54.022a1.386,1.386,0,0,1-1.386-1.386v-2.227h-1.12v2.227a1.386,1.386,0,0,1-1.386,1.386H47.9v1.12H50.13a1.386,1.386,0,0,1,1.386,1.386Z" transform="translate(-45.132 -159.785)" fill="#47286d"/>
          </g>
        </g>
      </g>
      <g id="Grupo_62616" data-name="Grupo 62616" transform="translate(103.202 99.44)">
        <g id="Grupo_62614" data-name="Grupo 62614" transform="translate(1.386 1.386)">
          <g id="Grupo_62610" data-name="Grupo 62610">
            <path id="Trazado_110086" data-name="Trazado 110086" d="M204.283,195.2l-2.835-11.429L198.2,198.208l5.395-2.665,3.644,7.377,2.152-1.063-3.644-7.377Z" transform="translate(-198.197 -183.773)" fill="#419b46"/>
          </g>
          <g id="Grupo_62611" data-name="Grupo 62611" transform="translate(3.252 0)">
            <path id="Trazado_110087" data-name="Trazado 110087" d="M213.282,192.628l5.4-2.665-13.44-6.191,7.354,9.2-1.461.721,3.644,7.376-.8.395L216.925,200Z" transform="translate(-205.237 -183.773)" fill="#a4d4a0"/>
          </g>
          <g id="Grupo_62612" data-name="Grupo 62612" transform="translate(11.19 17.69)">
            <path id="Trazado_110088" data-name="Trazado 110088" d="M222.425,222.466l.8-.394Z" transform="translate(-222.425 -222.072)" fill="#6287c5"/>
          </g>
          <g id="Grupo_62613" data-name="Grupo 62613" transform="translate(3.252)">
            <path id="Trazado_110089" data-name="Trazado 110089" d="M211.13,193.691l1.461-.721-7.354-9.2,2.835,11.429,1.46-.721,3.644,7.377.8-.394.8-.395Z" transform="translate(-205.237 -183.773)" fill="#65bc49"/>
          </g>
        </g>
        <g id="Grupo_62615" data-name="Grupo 62615">
          <path id="Trazado_110090" data-name="Trazado 110090" d="M205.622,202.691a1.384,1.384,0,0,1-1.243-.772l-3.03-6.134-4.153,2.051a1.386,1.386,0,0,1-1.965-1.547l3.252-14.435a1.386,1.386,0,0,1,1.932-.954l13.44,6.191a1.385,1.385,0,0,1,.034,2.5l-4.152,2.051,3.03,6.134a1.385,1.385,0,0,1-.629,1.856l-5.9,2.915a1.377,1.377,0,0,1-.613.144Zm-3.646-10.148a1.384,1.384,0,0,1,1.243.772l3.03,6.134,3.417-1.688-3.03-6.134a1.385,1.385,0,0,1,.629-1.856l2.791-1.379-9.247-4.259-2.238,9.932,2.792-1.379A1.382,1.382,0,0,1,201.976,192.543Z" transform="translate(-195.197 -180.772)" fill="#47286d"/>
        </g>
      </g>
    </g>
  </g>
</svg>
