<svg xmlns="http://www.w3.org/2000/svg" width="100.146" height="100.221" viewBox="0 0 100.146 100.221">
  <g id="human-resources" transform="translate(-0.5)">
    <path id="Trazado_108954" data-name="Trazado 108954" d="M72.03,63.624,63,54.59A30.117,30.117,0,1,0,55.088,62.5l9.033,9.033Zm0,0" transform="translate(-6.026 -6.029)" fill="#c6c5ca"/>
    <path id="Trazado_108955" data-name="Trazado 108955" d="M128.718,77.933A20.308,20.308,0,1,1,108.41,57.625,20.308,20.308,0,0,1,128.718,77.933Zm0,0" transform="translate(-70.454 -46.345)" fill="#898890"/>
    <path id="Trazado_108956" data-name="Trazado 108956" d="M98.738,77.933A20.308,20.308,0,1,1,78.429,57.625,20.308,20.308,0,0,1,98.738,77.933Zm0,0" transform="translate(-46.342 -46.345)" fill="#b3d8f4"/>
    <path id="Trazado_108957" data-name="Trazado 108957" d="M143.211,104.3l-1.6-1.6h-9.263l4.834-4.834V91.423a7.7,7.7,0,0,0-15.394,0V97.87l4.833,4.834h-9.263l-3.051,3.051v6.663q.393.443.817.868a20.22,20.22,0,0,0,11.431,5.737A20.33,20.33,0,0,0,143.211,104.3Zm0,0" transform="translate(-91.534 -67.338)" fill="#57a4ff"/>
    <path id="Trazado_108958" data-name="Trazado 108958" d="M63.989,77.932a20.313,20.313,0,0,1,17.375-20.1,20.308,20.308,0,1,0,0,40.2,20.313,20.313,0,0,1-17.375-20.1Zm0,0" transform="translate(-46.342 -46.345)" fill="#57a4ff"/>
    <path id="Trazado_108959" data-name="Trazado 108959" d="M117.564,440.726V428.068L114.7,425.2H91.924l-2.865,2.865v12.658Zm0,0" transform="translate(-71.224 -341.972)" fill="#b6e892"/>
    <path id="Trazado_108960" data-name="Trazado 108960" d="M139.4,341.388v6.054l-4.539,4.54h-5.378l-4.54-4.54v-6.054a7.228,7.228,0,0,1,14.457,0Zm0,0" transform="translate(-100.083 -268.75)" fill="#ffdaaa"/>
    <path id="Trazado_108961" data-name="Trazado 108961" d="M387.5,190.293V177.634l-2.865-2.865H361.857l-2.865,2.865v12.658Zm0,0" transform="translate(-288.319 -140.559)" fill="#57a4ff"/>
    <path id="Trazado_108962" data-name="Trazado 108962" d="M409.331,90.954v6.054l-4.539,4.539h-5.378l-4.54-4.539V90.954a7.228,7.228,0,0,1,14.457,0Zm0,0" transform="translate(-317.178 -67.337)" fill="#ffdaaa"/>
    <path id="Trazado_108963" data-name="Trazado 108963" d="M137.945,91.423V97.87l-4.834,4.834h-5.727l-4.833-4.834V91.423a7.7,7.7,0,0,1,15.394,0Zm0,0" transform="translate(-98.16 -67.338)" fill="#ffdaaa"/>
    <path id="Trazado_108964" data-name="Trazado 108964" d="M114.69,190.39v-6.663l-3.051-3.051H87.387l-3.051,3.051v6.663c.263.3.534.585.817.868a20.308,20.308,0,0,0,28.72,0q.424-.424.817-.868Zm0,0" transform="translate(-67.426 -145.31)" fill="#ff7956"/>
    <path id="Trazado_108965" data-name="Trazado 108965" d="M283.383,295.241l12.353-12.354,30.345,30.346-12.353,12.353Zm0,0" transform="translate(-227.51 -227.513)" fill="#787680"/>
    <path id="Trazado_108966" data-name="Trazado 108966" d="M13.861,37.616A30.124,30.124,0,0,1,41.047,7.637Q39.6,7.5,38.113,7.5a30.12,30.12,0,1,0,0,60.241q1.485,0,2.934-.141a30.124,30.124,0,0,1-27.186-29.98Zm0,0" transform="translate(-6.026 -6.029)" fill="#898890"/>
    <path id="Trazado_108967" data-name="Trazado 108967" d="M263.345,288.5a30.178,30.178,0,0,1-3.7,2.163l6.87,6.87,2.934-2.934Zm0,0" transform="translate(-208.415 -232.025)" fill="#898890"/>
    <path id="Trazado_108968" data-name="Trazado 108968" d="M97.791,425.2H91.924l-2.865,2.865v12.658h5.868V428.068Zm0,0" transform="translate(-71.224 -341.972)" fill="#7ccc92"/>
    <path id="Trazado_108969" data-name="Trazado 108969" d="M130.813,347.442v-6.054a7.23,7.23,0,0,1,4.294-6.608,7.232,7.232,0,0,0-10.162,6.608v6.054l4.539,4.54h5.378l.245-.245Zm0,0" transform="translate(-100.086 -268.751)" fill="#ff9478"/>
    <path id="Trazado_108970" data-name="Trazado 108970" d="M367.724,174.77h-5.868l-2.865,2.865v12.658h5.868V177.635Zm0,0" transform="translate(-288.319 -140.56)" fill="#006df0"/>
    <path id="Trazado_108971" data-name="Trazado 108971" d="M400.746,97.009V90.955a7.23,7.23,0,0,1,4.294-6.608,7.232,7.232,0,0,0-10.162,6.608v6.054l4.539,4.539H404.8l.245-.245-4.294-4.294Zm0,0" transform="translate(-317.181 -67.338)" fill="#ff9478"/>
    <path id="Trazado_108972" data-name="Trazado 108972" d="M128.418,97.869V91.423a7.7,7.7,0,0,1,4.763-7.118,7.7,7.7,0,0,0-10.631,7.119v6.446l4.833,4.834h5.727l.07-.07-4.763-4.764Zm0,0" transform="translate(-98.16 -67.337)" fill="#ff9478"/>
    <path id="Trazado_108973" data-name="Trazado 108973" d="M91.021,191.257c-.283-.283-.554-.573-.817-.868v-6.663l3.052-3.051H87.386l-3.051,3.051v6.663c.263.3.534.585.817.868a20.277,20.277,0,0,0,17.293,5.736A20.213,20.213,0,0,1,91.021,191.257Zm0,0" transform="translate(-67.425 -145.309)" fill="#ff3f62"/>
    <path id="Trazado_108974" data-name="Trazado 108974" d="M289.254,295.24l9.419-9.419-2.934-2.934L283.386,295.24l30.346,30.345,2.934-2.934Zm0,0" transform="translate(-227.513 -227.513)" fill="#57565c"/>
    <path id="Trazado_108975" data-name="Trazado 108975" d="M72.4,50.129A21.775,21.775,0,1,0,94.18,71.9,21.8,21.8,0,0,0,72.4,50.129ZM83.151,87.372V81.644H80.218v7.4a18.831,18.831,0,0,1-15.627,0v-7.4H61.657v5.729a18.841,18.841,0,1,1,21.494,0Zm0,0" transform="translate(-40.316 -40.316)" fill="#47286d"/>
    <path id="Trazado_108976" data-name="Trazado 108976" d="M103.516,344.485l2.464-2.464v-6.661a8.7,8.7,0,0,0-17.391,0v6.661l2.465,2.464H85.291l-3.724,3.724v14.733h31.439V348.21l-3.724-3.724Zm-11.992-3.679v-5.446a5.761,5.761,0,1,1,11.522,0v5.446l-3.679,3.679H95.2Zm18.547,19.2h-2.6V351.55h-2.935v8.458h-14.5V351.55H87.1v8.458H84.5V349.425l2.006-2.006h21.559l2.006,2.006Zm0,0" transform="translate(-65.198 -262.722)" fill="#47286d"/>
    <path id="Trazado_108977" data-name="Trazado 108977" d="M382.936,97.777l-3.724-3.725h-5.764l2.464-2.464V84.926a8.7,8.7,0,1,0-17.391,0v6.661l2.464,2.464H355.22L351.5,97.777v14.732h31.44Zm-21.481-7.4V84.926a5.761,5.761,0,0,1,11.523,0v5.446l-3.68,3.679h-4.163ZM380,109.575h-2.6v-8.458h-2.934v8.458h-14.5v-8.458h-2.935v8.458h-2.6V98.992l2.006-2.006H378L380,98.992v10.583Zm0,0" transform="translate(-282.29 -61.309)" fill="#47286d"/>
    <path id="Trazado_108978" data-name="Trazado 108978" d="M287.217,272.289l-14.428,14.428,32.419,32.42,14.428-14.428Zm-5.62,19.087,4.876-4.875-2.074-2.074-4.876,4.875-2.584-2.584,10.279-10.279,28.271,28.271-10.279,10.279Zm0,0" transform="translate(-218.99 -218.99)" fill="#47286d"/>
    <path id="Trazado_108979" data-name="Trazado 108979" d="M102.425,95.208l2.759-2.759V85.395a9.164,9.164,0,0,0-18.328,0v7.054l2.759,2.759H83.287L79.993,98.5l2.074,2.074L84.5,98.142h23.037l2.435,2.435,2.074-2.074-3.293-3.294Zm-8.661,0L89.79,91.234V85.395a6.23,6.23,0,0,1,12.46,0v5.839l-3.974,3.974Zm0,0" transform="translate(-63.932 -61.309)" fill="#47286d"/>
    <path id="Trazado_108980" data-name="Trazado 108980" d="M56.367,61.7,51.315,56.65a31.742,31.742,0,0,0,3.447-3.071l-2.106-2.042A28.841,28.841,0,0,1,48.463,55.1l-.229.157a28.649,28.649,0,1,1,7.526-7.525l-.687,1L62.2,55.866l2.074-2.074-5.423-5.423a31.581,31.581,0,1,0-9.984,9.984l5.423,5.423Zm0,0" fill="#47286d"/>
    <g id="Grupo_62127" data-name="Grupo 62127" transform="translate(26.835 4.89)">
      <path id="Trazado_108981" data-name="Trazado 108981" d="M185.634,51.678a23.7,23.7,0,0,0-14.783-22l1.113-2.714a26.726,26.726,0,0,1,16.605,24.717ZM169.12,29.045a23.6,23.6,0,0,0-2.674-.689l.564-2.88a26.77,26.77,0,0,1,3.007.775Zm-4.492-.972a24.006,24.006,0,0,0-2.757-.159V24.98a27.115,27.115,0,0,1,3.1.178Zm0,0" transform="translate(-156.619 -24.98)" fill="#fff"/>
      <path id="Trazado_108982" data-name="Trazado 108982" d="M147,355.864H144.07v-4.433a1.824,1.824,0,0,0-.034-.355l2.88-.563c.115.586.089.44.089,5.351Zm-6.632-4.433h-2.934a4.769,4.769,0,0,1,1.752-3.7L141.051,350A1.845,1.845,0,0,0,140.372,351.431Zm3.159-1.3a1.84,1.84,0,0,0-1.489-.538l-.281-2.92a4.76,4.76,0,0,1,3.851,1.389Zm0,0" transform="translate(-136.968 -283.683)" fill="#fff"/>
      <path id="Trazado_108983" data-name="Trazado 108983" d="M416.934,105.433H414V101a1.831,1.831,0,0,0-.034-.355l2.88-.562C416.96,100.668,416.934,100.522,416.934,105.433ZM410.3,101h-2.934a4.767,4.767,0,0,1,1.753-3.7l1.861,2.269a1.844,1.844,0,0,0-.68,1.43Zm3.159-1.3a1.837,1.837,0,0,0-1.489-.538l-.281-2.921c.151-.015.307-.022.46-.022a4.752,4.752,0,0,1,3.39,1.411Zm0,0" transform="translate(-354.061 -82.271)" fill="#fff"/>
      <path id="Trazado_108984" data-name="Trazado 108984" d="M145.543,106.311h-2.934v-4.826a2.3,2.3,0,0,0-.352-1.225l2.487-1.558a5.242,5.242,0,0,1,.8,2.783Zm-7.571-4.826h-2.934a5.22,5.22,0,0,1,1.5-3.673l2.1,2.053a2.3,2.3,0,0,0-.664,1.62Zm3.419-2.039a2.277,2.277,0,0,0-1.1-.278,2.318,2.318,0,0,0-.638.089l-.81-2.82a5.313,5.313,0,0,1,3.949.431Zm0,0" transform="translate(-135.039 -82.289)" fill="#fff"/>
      <path id="Trazado_108985" data-name="Trazado 108985" d="M382.427,356.22l-12.937-12.937,2.074-2.074L384.5,354.146ZM368.106,341.9l-2.074-2.074,2.074-2.074,2.074,2.074Zm-3.458-3.458-2.074-2.074,2.074-2.074,2.074,2.074Zm0,0" transform="translate(-318.036 -273.747)" fill="#fff"/>
    </g>
  </g>
</svg>
