<svg xmlns="http://www.w3.org/2000/svg" width="292" height="528.043" viewBox="0 0 292 528.043">
  <g id="Grupo_68156" data-name="Grupo 68156" transform="translate(-342 -6794.785)">
    <g id="Elipse_4704" data-name="Elipse 4704" transform="translate(389 6794.785)" fill="#fff" stroke="#8a8a8a" stroke-width="3" stroke-dasharray="3 4">
      <circle cx="98" cy="98" r="98" stroke="none"/>
      <circle cx="98" cy="98" r="96.5" fill="none"/>
    </g>
    <ellipse id="Elipse_4705" data-name="Elipse 4705" cx="87.5" cy="87" rx="87.5" ry="87" transform="translate(401 6805.785)" fill="#bb83ff" opacity="0.5"/>
    <rect id="Rectángulo_6400" data-name="Rectángulo 6400" width="292" height="298.957" rx="5" transform="translate(342 7023.871)" fill="#fff"/>
    <path id="Trazado_113697" data-name="Trazado 113697" d="M38.781,17.418A4.96,4.96,0,0,1,36.7,18.692a8.984,8.984,0,0,1-3.006.483,5.36,5.36,0,0,1-4.017-1.538,6.226,6.226,0,0,1-1.608-4.28l-.009-1.107a7.637,7.637,0,0,1,.668-3.3,4.96,4.96,0,0,1,1.912-2.171,5.407,5.407,0,0,1,2.878-.76A5.669,5.669,0,0,1,37.23,7.113a4.637,4.637,0,0,1,1.542,3.265H35.8a2.426,2.426,0,0,0-.686-1.529,2.212,2.212,0,0,0-1.494-.457,2.013,2.013,0,0,0-1.793.984,5.256,5.256,0,0,0-.642,2.813v.773a5.145,5.145,0,0,0,.655,2.878A2.316,2.316,0,0,0,33.9,16.8a2.592,2.592,0,0,0,1.793-.536V14.28H33.552V12.162h5.229Zm1.283-3.261a5.613,5.613,0,0,1,.554-2.536,3.96,3.96,0,0,1,1.591-1.709,4.791,4.791,0,0,1,2.435-.6,4.373,4.373,0,0,1,3.366,1.323,5.076,5.076,0,0,1,1.23,3.6v.105a4.925,4.925,0,0,1-1.235,3.529,4.384,4.384,0,0,1-3.344,1.305A4.434,4.434,0,0,1,41.4,17.958a4.761,4.761,0,0,1-1.327-3.3Zm2.962.185a3.538,3.538,0,0,0,.413,1.934,1.376,1.376,0,0,0,1.222.615q1.582,0,1.617-2.435v-.3q0-2.558-1.635-2.558-1.485,0-1.608,2.206Zm7.146-.185a5.613,5.613,0,0,1,.554-2.536,3.96,3.96,0,0,1,1.591-1.709,4.791,4.791,0,0,1,2.435-.6,4.373,4.373,0,0,1,3.366,1.323,5.076,5.076,0,0,1,1.23,3.6v.105a4.925,4.925,0,0,1-1.235,3.529,4.384,4.384,0,0,1-3.344,1.305,4.434,4.434,0,0,1-3.261-1.217,4.761,4.761,0,0,1-1.327-3.3Zm2.962.185a3.538,3.538,0,0,0,.413,1.934,1.376,1.376,0,0,0,1.222.615q1.582,0,1.617-2.435v-.3q0-2.558-1.635-2.558-1.485,0-1.608,2.206Zm7.172-.167a6.421,6.421,0,0,1,.475-2.549,3.821,3.821,0,0,1,1.362-1.709,3.591,3.591,0,0,1,2.065-.6,2.855,2.855,0,0,1,2.32,1l.105-.826h2.689V18.64a4.009,4.009,0,0,1-.584,2.184,3.75,3.75,0,0,1-1.692,1.424,6.219,6.219,0,0,1-2.566.5,5.365,5.365,0,0,1-2.026-.4,3.657,3.657,0,0,1-1.5-1.028L62.2,19.58a2.716,2.716,0,0,0,2.18.976,1.764,1.764,0,0,0,1.969-2.021v-.3a2.781,2.781,0,0,1-2.153.94,3.437,3.437,0,0,1-2.812-1.332,5.517,5.517,0,0,1-1.072-3.564Zm2.971.185a3.383,3.383,0,0,0,.439,1.85,1.387,1.387,0,0,0,1.23.681,1.573,1.573,0,0,0,1.4-.642v-4a1.534,1.534,0,0,0-1.38-.65,1.4,1.4,0,0,0-1.239.708A3.858,3.858,0,0,0,63.276,14.359ZM74.131,19H71.16V5.5h2.971Zm6.425.176a4.889,4.889,0,0,1-3.542-1.305,4.507,4.507,0,0,1-1.354-3.4v-.246a5.84,5.84,0,0,1,.541-2.575,3.955,3.955,0,0,1,1.578-1.727,4.763,4.763,0,0,1,2.461-.611A4.117,4.117,0,0,1,83.4,10.558a4.887,4.887,0,0,1,1.16,3.467v1.151H78.675a2.135,2.135,0,0,0,.694,1.257,2.066,2.066,0,0,0,1.389.457,2.662,2.662,0,0,0,2.2-.984l1.354,1.6a3.784,3.784,0,0,1-1.569,1.217A5.3,5.3,0,0,1,80.556,19.176ZM80.222,11.6q-1.3,0-1.547,1.723h2.988v-.229a1.467,1.467,0,0,0-.36-1.1A1.434,1.434,0,0,0,80.222,11.6Zm16.752,4a1.268,1.268,0,0,0-.479-1.055,5.954,5.954,0,0,0-1.683-.782,16.147,16.147,0,0,1-1.969-.782q-2.487-1.222-2.487-3.357a3.011,3.011,0,0,1,.62-1.876A4.008,4.008,0,0,1,92.729,6.48a6.823,6.823,0,0,1,2.549-.453,5.969,5.969,0,0,1,2.474.492,3.917,3.917,0,0,1,1.7,1.4A3.661,3.661,0,0,1,100.059,10H96.982A1.547,1.547,0,0,0,96.5,8.787a1.867,1.867,0,0,0-1.3-.431,2.106,2.106,0,0,0-1.305.365,1.074,1.074,0,0,0,.048,1.819,6.65,6.65,0,0,0,1.854.826,11.36,11.36,0,0,1,2.18.918,3.663,3.663,0,0,1,2.074,3.3,3.125,3.125,0,0,1-1.266,2.637,5.629,5.629,0,0,1-3.472.958,6.888,6.888,0,0,1-2.817-.558,4.247,4.247,0,0,1-1.9-1.529,3.985,3.985,0,0,1-.637-2.237h3.094a1.963,1.963,0,0,0,.532,1.516,2.513,2.513,0,0,0,1.727.488,1.985,1.985,0,0,0,1.208-.33A1.088,1.088,0,0,0,96.974,15.6ZM104.4,10.51a3.251,3.251,0,0,1,4.8-.264A4.186,4.186,0,0,1,110.017,13v6h-2.971V13.067a1.674,1.674,0,0,0-.308-1.112,1.322,1.322,0,0,0-1.046-.356,1.424,1.424,0,0,0-1.292.58V19h-2.962V5.5H104.4Zm6.891,3.647a5.613,5.613,0,0,1,.554-2.536,3.96,3.96,0,0,1,1.591-1.709,4.791,4.791,0,0,1,2.435-.6,4.373,4.373,0,0,1,3.366,1.323,5.076,5.076,0,0,1,1.23,3.6v.105a4.925,4.925,0,0,1-1.235,3.529,4.384,4.384,0,0,1-3.344,1.305,4.434,4.434,0,0,1-3.261-1.217,4.761,4.761,0,0,1-1.327-3.3Zm2.962.185a3.538,3.538,0,0,0,.413,1.934,1.376,1.376,0,0,0,1.222.615q1.582,0,1.617-2.435v-.3q0-2.558-1.635-2.558-1.485,0-1.608,2.206Zm16.348-.026a5.735,5.735,0,0,1-1,3.538,3.2,3.2,0,0,1-2.694,1.323,2.742,2.742,0,0,1-2.153-.958v4.438h-2.962V9.49h2.769l.088.879a2.742,2.742,0,0,1,2.241-1.055,3.224,3.224,0,0,1,2.733,1.3,5.805,5.805,0,0,1,.976,3.564Zm-2.962-.185q0-2.531-1.477-2.531a1.394,1.394,0,0,0-1.406.756V16.1a1.439,1.439,0,0,0,1.424.791q1.415,0,1.459-2.443Zm13.1.185a5.735,5.735,0,0,1-1,3.538,3.2,3.2,0,0,1-2.694,1.323,2.742,2.742,0,0,1-2.153-.958v4.438h-2.962V9.49H134.7l.088.879a2.742,2.742,0,0,1,2.241-1.055,3.224,3.224,0,0,1,2.733,1.3,5.805,5.805,0,0,1,.976,3.564Zm-2.962-.185q0-2.531-1.477-2.531a1.394,1.394,0,0,0-1.406.756V16.1a1.439,1.439,0,0,0,1.424.791q1.415,0,1.459-2.443ZM145.164,19h-2.971V9.49h2.971ZM142.018,7.038A1.322,1.322,0,0,1,142.475,6a1.943,1.943,0,0,1,2.373,0,1.322,1.322,0,0,1,.457,1.037,1.322,1.322,0,0,1-.457,1.037,1.943,1.943,0,0,1-2.373,0A1.322,1.322,0,0,1,142.018,7.038Zm7.69,2.452.1,1.116a3.225,3.225,0,0,1,2.716-1.292,2.713,2.713,0,0,1,2.219.888,4.226,4.226,0,0,1,.76,2.672V19h-2.971V13a1.6,1.6,0,0,0-.29-1.059,1.342,1.342,0,0,0-1.055-.338,1.413,1.413,0,0,0-1.292.686V19h-2.962V9.49Zm7.084,4.685a6.421,6.421,0,0,1,.475-2.549,3.821,3.821,0,0,1,1.362-1.709,3.591,3.591,0,0,1,2.065-.6,2.855,2.855,0,0,1,2.32,1l.105-.826h2.689V18.64a4.009,4.009,0,0,1-.584,2.184,3.75,3.75,0,0,1-1.692,1.424,6.219,6.219,0,0,1-2.566.5,5.365,5.365,0,0,1-2.026-.4,3.657,3.657,0,0,1-1.5-1.028l1.239-1.74a2.716,2.716,0,0,0,2.18.976,1.764,1.764,0,0,0,1.969-2.021v-.3a2.781,2.781,0,0,1-2.153.94,3.437,3.437,0,0,1-2.812-1.332,5.517,5.517,0,0,1-1.072-3.564Zm2.971.185a3.383,3.383,0,0,0,.439,1.85,1.387,1.387,0,0,0,1.23.681,1.573,1.573,0,0,0,1.4-.642v-4a1.534,1.534,0,0,0-1.38-.65,1.4,1.4,0,0,0-1.239.708A3.858,3.858,0,0,0,159.763,14.359Z" transform="translate(391 7038.721)" fill="#12263f"/>
    <line id="Línea_277" data-name="Línea 277" y1="33" transform="translate(485.5 6990.785)" fill="none" stroke="#707070" stroke-width="3" stroke-dasharray="3 4" style="mix-blend-mode: multiply;isolation: isolate"/>
    <text id="Este_permite_la_visualización_del_producto_a_ofrecer_en_Google_con_la_imagen_y_precio_determinados._" data-name="Este permite la visualización del producto a ofrecer en Google con la imagen y precio determinados. " transform="translate(369 7078.656)" fill="#12263f" font-size="16" font-family="Roboto-Regular, Roboto"><tspan x="0" y="17">Este permite la visualización del </tspan><tspan x="0" y="41">producto a ofrecer en Google con </tspan><tspan x="0" y="65">la imagen y precio determinados. </tspan></text>
    <g id="Grupo_62619" data-name="Grupo 62619" transform="translate(-494.054 6488.408)">
      <path id="Trazado_110091" data-name="Trazado 110091" d="M1034.062,354.268a9.433,9.433,0,0,1,2.988,7.079c-.005,11.393-.022,22.786.013,34.178a9.767,9.767,0,0,1-2.84,7.171q-12.462,12.567-25.02,25.04a1.289,1.289,0,0,1-.256.159l-7.663-7.421c4.765-5.47,6.422-11.845,5.6-18.974-.112-.96-.525-1.133-1.372-1.13-6.155.026-12.309.038-18.464-.009-1.051-.008-1.285.375-1.258,1.327.058,1.983.077,3.97-.006,5.95-.046,1.089.323,1.377,1.377,1.355,3.152-.064,6.307,0,9.46-.035.875-.008,1.206.147.855,1.115a10.945,10.945,0,0,1-2.376,4.036c-3.753,3.847-10.586,4.62-15.713,1.779a13.175,13.175,0,0,1-6.311-14.311,13.041,13.041,0,0,1,19.943-8.067c.487.314.943.932,1.576.266a82.29,82.29,0,0,0,5.92-6.129l10.934-10.829c.291.2.582.408.873.61a6.837,6.837,0,0,0,9.344-1.088c2.322-2.6,2.193-6.108-.349-9.426Z" transform="translate(-7.761 -0.56)" fill="#5c84ef" stroke="#47286d" stroke-width="3"/>
      <path id="Trazado_110092" data-name="Trazado 110092" d="M1031.839,353.708l-12.749,12.648a6.969,6.969,0,0,0-11.251,2.268c-1.127,2.834-.431,5.335,1.383,7.635l-10.934,10.828a21.864,21.864,0,0,0-13.519-5.493,22.406,22.406,0,0,0-17.288,6.767c-.447-.483-.882-.977-1.342-1.448q-3.987-4.072-7.986-8.136c2.28-2.315,4.549-4.642,6.844-6.942,5.889-5.9,11.813-11.77,17.672-17.7a11.413,11.413,0,0,1,8.586-3.542c10.879.046,21.759.025,32.638.011C1026.96,350.6,1029.7,351.362,1031.839,353.708Z" transform="translate(-5.538)" fill="#ca4539" stroke="#47286d" stroke-width="3"/>
      <path id="Trazado_110093" data-name="Trazado 110093" d="M952.615,383.845q3.994,4.067,7.985,8.136c.46.47.9.965,1.341,1.448-.149.2-.283.42-.448.61a22.184,22.184,0,0,0-5.2,19.572,24.014,24.014,0,0,0,4.946,10.172c-2.555,2.523-5.128,5.032-7.664,7.574q-5.841,5.856-11.644,11.751c-5.8-5.777-11.694-11.459-17.36-17.363-3.928-4.093-3.6-10.236.51-14.428,4.129-4.213,8.328-8.358,12.505-12.523Q945.094,391.312,952.615,383.845Z" transform="translate(0 -5.067)" fill="#eaba2d" stroke="#47286d" stroke-width="3"/>
      <path id="Trazado_110094" data-name="Trazado 110094" d="M945.55,450.287q5.821-5.878,11.644-11.751c2.536-2.543,5.109-5.051,7.664-7.574.4.383.808.762,1.2,1.15a21.794,21.794,0,0,0,15.768,6.391,21.2,21.2,0,0,0,15.309-6.345l7.664,7.421c-.332.378-.642.777-1,1.132q-13.039,13.05-26.085,26.091c-4.8,4.8-10.968,4.81-15.74.022Q953.753,458.569,945.55,450.287Z" transform="translate(-3.618 -12.246)" fill="#67a659" stroke="#47286d" stroke-width="3"/>
      <path id="Trazado_110095" data-name="Trazado 110095" d="M999.637,425.481a21.2,21.2,0,0,1-15.309,6.344,21.794,21.794,0,0,1-15.768-6.391c-.4-.388-.8-.767-1.2-1.15a24.014,24.014,0,0,1-4.946-10.172,22.184,22.184,0,0,1,5.2-19.572c.164-.19.3-.406.448-.61a22.41,22.41,0,0,1,17.289-6.767,21.864,21.864,0,0,1,13.519,5.493,82.284,82.284,0,0,1-5.92,6.129c-.633.666-1.089.047-1.576-.266a13.041,13.041,0,0,0-19.943,8.067,13.175,13.175,0,0,0,6.311,14.311c5.127,2.84,11.96,2.067,15.713-1.779a10.942,10.942,0,0,0,2.376-4.036c.351-.968.019-1.123-.855-1.115-3.153.031-6.308-.029-9.46.035-1.054.021-1.422-.266-1.377-1.355.083-1.98.064-3.968.006-5.95-.027-.953.207-1.336,1.258-1.327,6.155.047,12.309.035,18.464.008.847,0,1.26.169,1.372,1.13C1006.059,413.636,1004.4,420.011,999.637,425.481Z" transform="translate(-6.115 -5.568)" fill="#fdfdfd" stroke="#47286d" stroke-width="3"/>
      <path id="Trazado_110096" data-name="Trazado 110096" d="M1018.055,378.743c-1.815-2.3-2.511-4.8-1.383-7.635a6.968,6.968,0,0,1,11.251-2.268c2.541,3.318,2.671,6.824.348,9.426a6.837,6.837,0,0,1-9.344,1.088Q1018.491,379.049,1018.055,378.743Z" transform="translate(-14.372 -2.484)" fill="#fdfdfd" stroke="#47286d" stroke-width="3"/>
    </g>
  </g>
</svg>
