<svg xmlns="http://www.w3.org/2000/svg" width="292" height="424.709" viewBox="0 0 292 424.709">
  <g id="Grupo_68156" data-name="Grupo 68156" transform="translate(-342 -6337.957)">
    <g id="Grupo_68155" data-name="Grupo 68155">
      <g id="Elipse_4694" data-name="Elipse 4694" transform="translate(389 6337.957)" fill="#fff" stroke="#8a8a8a" stroke-width="3" stroke-dasharray="3 4">
        <circle cx="98" cy="98" r="98" stroke="none"/>
        <circle cx="98" cy="98" r="96.5" fill="none"/>
      </g>
      <ellipse id="Elipse_4695" data-name="Elipse 4695" cx="87.5" cy="87" rx="87.5" ry="87" transform="translate(401 6348.957)" fill="#bb83ff" opacity="0.5"/>
      <rect id="Rectángulo_6395" data-name="Rectángulo 6395" width="292" height="195.624" rx="5" transform="translate(342 6567.043)" fill="#fff"/>
      <text id="Marketplace_" data-name="Marketplace
" transform="translate(391 6581.893)" fill="#12263f" font-size="18" font-family="Roboto-Black, Roboto" font-weight="800"><tspan x="46.12" y="19">Marketplace</tspan></text>
      <line id="Línea_272" data-name="Línea 272" y1="33" transform="translate(485.5 6533.957)" fill="none" stroke="#707070" stroke-width="3" stroke-dasharray="3 4" style="mix-blend-mode: multiply;isolation: isolate"/>
      <text id="Se_define_como_un_centro_comercial_virtual_siendo_el_lugar_donde_varias_marcas_pueden_ofertar_su_producto_en_un_solo_lugar._" data-name="Se define como un centro comercial virtual, siendo el lugar donde varias marcas pueden ofertar su producto en un solo lugar. 
" transform="translate(369 6621.828)" fill="#12263f" font-size="16" font-family="Roboto-Regular, Roboto"><tspan x="0" y="17">Se define como un centro </tspan><tspan x="0" y="41">comercial virtual, siendo el lugar </tspan><tspan x="0" y="65">donde varias marcas pueden </tspan><tspan x="0" y="89">ofertar su producto en un solo </tspan><tspan x="0" y="113">lugar. </tspan></text>
    </g>
    <g id="marketplace" transform="translate(369.397 6374.994)">
      <g id="Grupo_62540" data-name="Grupo 62540" transform="translate(73.331 1.729)">
        <g id="Grupo_62534" data-name="Grupo 62534" transform="translate(0)">
          <path id="Trazado_109993" data-name="Trazado 109993" d="M153.533,122.049H86.216a7.113,7.113,0,0,1-7.113-7.113V14.613A7.113,7.113,0,0,1,86.216,7.5h67.317a7.113,7.113,0,0,1,7.113,7.113V114.936A7.113,7.113,0,0,1,153.533,122.049Z" transform="translate(-79.103 -7.5)" fill="#f9f6f9"/>
          <path id="Trazado_109994" data-name="Trazado 109994" d="M350.093,7.5H334.536a7.113,7.113,0,0,1,7.113,7.113V114.936a7.113,7.113,0,0,1-7.113,7.113h15.557a7.113,7.113,0,0,0,7.113-7.113V14.613A7.113,7.113,0,0,0,350.093,7.5Z" transform="translate(-275.664 -7.5)" fill="#dddaec"/>
          <path id="Trazado_109995" data-name="Trazado 109995" d="M120.113,133.025V51.814a3.3,3.3,0,0,1,3.3-3.3h56.031a3.3,3.3,0,0,1,3.3,3.3v81.21a3.3,3.3,0,0,1-3.3,3.3H123.417A3.3,3.3,0,0,1,120.113,133.025Z" transform="translate(-110.661 -39.058)" fill="#c9e0fd"/>
          <path id="Trazado_109996" data-name="Trazado 109996" d="M368.2,48.51h-2.8v87.819h2.8a3.3,3.3,0,0,0,3.3-3.3V51.814A3.3,3.3,0,0,0,368.2,48.51Z" transform="translate(-299.413 -39.058)" fill="#bcd6f9"/>
          <path id="Trazado_109997" data-name="Trazado 109997" d="M179.447,48.51H123.416a3.3,3.3,0,0,0-3.3,3.3v8.333h62.639V51.814A3.3,3.3,0,0,0,179.447,48.51Z" transform="translate(-110.66 -39.058)" fill="#9bc4f9"/>
          <path id="Trazado_109998" data-name="Trazado 109998" d="M368.2,48.51h-2.8V60.147H371.5V51.814A3.3,3.3,0,0,0,368.2,48.51Z" transform="translate(-299.413 -39.058)" fill="#7fb2f9"/>
        </g>
        <g id="Grupo_62539" data-name="Grupo 62539" transform="translate(0 21.089)">
          <g id="Grupo_62535" data-name="Grupo 62535" transform="translate(22.963 44.52)">
            <path id="Trazado_109999" data-name="Trazado 109999" d="M207.5,314.148H185.583a3.4,3.4,0,0,1-3.345-2.79l-3.506-19.2h35.617l-3.506,19.2A3.4,3.4,0,0,1,207.5,314.148Z" transform="translate(-178.732 -292.162)" fill="#f4e580"/>
          </g>
          <path id="Trazado_110000" data-name="Trazado 110000" d="M205.295,283.791H171.019a3.182,3.182,0,0,1,0-6.364h34.276a3.182,3.182,0,0,1,0,6.364Z" transform="translate(-147.385 -236.303)" fill="#ebb044"/>
          <g id="Grupo_62538" data-name="Grupo 62538">
            <g id="Grupo_62536" data-name="Grupo 62536">
              <path id="Trazado_110001" data-name="Trazado 110001" d="M79.1,112.02H95.411L101.082,99H88.554Z" transform="translate(-79.102 -99)" fill="#dd5790"/>
              <path id="Trazado_110002" data-name="Trazado 110002" d="M149.861,112.02H166.17L168.06,99H155.532Z" transform="translate(-133.552 -99)" fill="#f9f6f9"/>
              <path id="Trazado_110003" data-name="Trazado 110003" d="M220.62,112.02h16.309L235.038,99H222.511Z" transform="translate(-188.003 -99)" fill="#dd5790"/>
              <path id="Trazado_110004" data-name="Trazado 110004" d="M285.068,112.02h16.309L295.7,99H283.177Z" transform="translate(-236.142 -99)" fill="#f9f6f9"/>
              <path id="Trazado_110005" data-name="Trazado 110005" d="M343.2,112.02h16.309L350.06,99H337.532Z" transform="translate(-277.969 -99)" fill="#dd5790"/>
            </g>
            <g id="Grupo_62537" data-name="Grupo 62537" transform="translate(0 13.02)">
              <path id="Trazado_110006" data-name="Trazado 110006" d="M87.256,166.763a8.154,8.154,0,0,0,8.154-8.154V155.49H79.1v3.119a8.154,8.154,0,0,0,8.154,8.154Z" transform="translate(-79.102 -155.49)" fill="#d80a61"/>
              <path id="Trazado_110007" data-name="Trazado 110007" d="M158.016,166.763a8.154,8.154,0,0,0,8.154-8.154V155.49H149.862v3.119a8.154,8.154,0,0,0,8.154,8.154Z" transform="translate(-133.553 -155.49)" fill="#dddaec"/>
              <path id="Trazado_110008" data-name="Trazado 110008" d="M228.774,166.763a8.154,8.154,0,0,0,8.154-8.154V155.49H220.62v3.119a8.154,8.154,0,0,0,8.154,8.154Z" transform="translate(-188.003 -155.49)" fill="#d80a61"/>
              <path id="Trazado_110009" data-name="Trazado 110009" d="M299.534,166.763a8.154,8.154,0,0,0,8.154-8.154V155.49H291.38v3.119a8.154,8.154,0,0,0,8.154,8.154Z" transform="translate(-242.454 -155.49)" fill="#dddaec"/>
              <path id="Trazado_110010" data-name="Trazado 110010" d="M370.293,166.763a8.154,8.154,0,0,0,8.154-8.154V155.49H362.139v3.119a8.154,8.154,0,0,0,8.154,8.154Z" transform="translate(-296.904 -155.49)" fill="#d80a61"/>
            </g>
          </g>
        </g>
      </g>
      <g id="Grupo_62541" data-name="Grupo 62541" transform="translate(71.603 0)">
        <path id="Trazado_110011" data-name="Trazado 110011" d="M241.334,457.5h-7.606a1.729,1.729,0,0,0,0,3.457h7.606a1.729,1.729,0,0,0,0-3.457Z" transform="translate(-195.032 -352.055)" fill="#47286d"/>
        <circle id="Elipse_4685" data-name="Elipse 4685" cx="1.729" cy="1.729" r="1.729" transform="translate(19.049 15.27)" fill="#47286d"/>
        <circle id="Elipse_4686" data-name="Elipse 4686" cx="1.729" cy="1.729" r="1.729" transform="translate(26.942 15.27)" fill="#47286d"/>
        <circle id="Elipse_4687" data-name="Elipse 4687" cx="1.729" cy="1.729" r="1.729" transform="translate(34.836 15.27)" fill="#47286d"/>
        <path id="Trazado_110012" data-name="Trazado 110012" d="M147.762,0H80.444A8.851,8.851,0,0,0,71.6,8.841v5.245a1.729,1.729,0,0,0,3.457,0V8.841a5.39,5.39,0,0,1,5.384-5.384h67.317a5.39,5.39,0,0,1,5.384,5.384V30.514l-5.995-8.258V14.485a5.038,5.038,0,0,0-5.033-5.033H86.088a5.038,5.038,0,0,0-5.033,5.033v7.772L75.06,30.514V22.167a1.729,1.729,0,0,0-3.457,0v87a8.851,8.851,0,0,0,8.841,8.841h67.317a8.852,8.852,0,0,0,8.841-8.841V8.842A8.852,8.852,0,0,0,147.762,0Zm3.722,34.109H139.7l-4.165-9.563h9.008Zm-27.5,3.457h12.851v1.39a6.426,6.426,0,1,1-12.851,0Zm-.233-3.457-1.388-9.563h9.4l4.165,9.563ZM84.512,14.485a1.577,1.577,0,0,1,1.575-1.576h56.031a1.577,1.577,0,0,1,1.575,1.576v6.6H84.512Zm36.016,23.081v1.39a6.426,6.426,0,1,1-12.851,0v-1.39Zm-12.582-3.457,1.389-9.563h9.536l1.389,9.563Zm-15.668,0,4.165-9.563h9.4l-1.388,9.563Zm11.942,3.457v1.39a6.426,6.426,0,1,1-12.851,0v-1.39ZM83.665,24.546h9.008l-4.165,9.563H76.722Zm-8.6,13.02H87.912v1.39a6.426,6.426,0,1,1-12.851,0v-1.39Zm78.085,71.6a5.39,5.39,0,0,1-5.384,5.384H80.444a5.39,5.39,0,0,1-5.384-5.384V46.456a9.836,9.836,0,0,0,5.995,2.372V95.7a5.038,5.038,0,0,0,5.033,5.033h56.031a5.038,5.038,0,0,0,5.033-5.033V83.618a1.729,1.729,0,1,0-3.457,0V95.7a1.577,1.577,0,0,1-1.575,1.575H86.088A1.577,1.577,0,0,1,84.512,95.7V48.363a9.926,9.926,0,0,0,5.128-3.831,9.872,9.872,0,0,0,16.309,0,9.873,9.873,0,0,0,16.309,0,9.872,9.872,0,0,0,16.309,0,9.925,9.925,0,0,0,5.128,3.831v27.2a1.729,1.729,0,1,0,3.457,0V48.828a9.836,9.836,0,0,0,5.995-2.372v62.709Zm0-70.209a6.426,6.426,0,1,1-12.851,0v-1.39h12.851v1.39Z" transform="translate(-71.603 0)" fill="#47286d"/>
        <path id="Trazado_110013" data-name="Trazado 110013" d="M212.515,332.806a1.729,1.729,0,0,0,3.413-.554l-.966-5.958a1.729,1.729,0,0,0-3.412.554Z" transform="translate(-179.277 -249.973)" fill="#47286d"/>
        <path id="Trazado_110014" data-name="Trazado 110014" d="M282.731,334.236a1.767,1.767,0,0,0,.279.023,1.729,1.729,0,0,0,1.7-1.452l.966-5.958a1.729,1.729,0,0,0-3.413-.554l-.966,5.958A1.728,1.728,0,0,0,282.731,334.236Z" transform="translate(-232.953 -249.973)" fill="#47286d"/>
        <path id="Trazado_110015" data-name="Trazado 110015" d="M250.229,334.256a1.728,1.728,0,0,0,1.729-1.729V326.57a1.729,1.729,0,0,0-3.457,0v5.958A1.728,1.728,0,0,0,250.229,334.256Z" transform="translate(-207.729 -249.971)" fill="#47286d"/>
        <path id="Trazado_110016" data-name="Trazado 110016" d="M199.523,243.819h-5.048l-6.8-7.271a1.729,1.729,0,1,0-2.525,2.361l4.591,4.91H175.028l4.591-4.91a1.729,1.729,0,1,0-2.525-2.361l-6.8,7.271h-5.048a4.908,4.908,0,0,0-1.621,9.541l2.756,15.091a5.128,5.128,0,0,0,5.046,4.208h21.915a5.128,5.128,0,0,0,5.046-4.208l2.756-15.091a4.908,4.908,0,0,0-1.621-9.541Zm-4.535,24.01a1.672,1.672,0,0,1-1.645,1.372H171.427a1.672,1.672,0,0,1-1.645-1.372l-2.591-14.189h30.387Zm4.654-17.652c-.042,0-.083,0-.124.006H165.25c-.04,0-.08-.006-.121-.006a1.453,1.453,0,0,1,.118-2.9h34.276a1.453,1.453,0,0,1,.119,2.9Z" transform="translate(-139.885 -181.606)" fill="#47286d"/>
      </g>
    </g>
  </g>
</svg>
