<svg xmlns="http://www.w3.org/2000/svg" width="121.538" height="121.537" viewBox="0 0 121.538 121.537">
  <g id="investigacion" transform="translate(0.001 -0.001)">
    <path id="Trazado_109010" data-name="Trazado 109010" d="M408.973,281.5a3.562,3.562,0,0,1-5.036,0l-23.332-23.332,5.036-5.036,23.332,23.332A3.562,3.562,0,0,1,408.973,281.5Zm0,0" transform="translate(-290.258 -193.047)" fill="#484b63"/>
    <path id="Trazado_109011" data-name="Trazado 109011" d="M7.5,62.5H82.274V167.421H7.5Zm0,0" transform="translate(-5.72 -47.663)" fill="#d8d5ed"/>
    <path id="Trazado_109012" data-name="Trazado 109012" d="M40,307.727H54.243v38.455H40Zm0,0" transform="translate(-30.505 -234.678)" fill="#ff2c5c"/>
    <path id="Trazado_109013" data-name="Trazado 109013" d="M134,247.727h14.243v52.7H134Zm0,0" transform="translate(-102.192 -188.921)" fill="#f9e478"/>
    <path id="Trazado_109014" data-name="Trazado 109014" d="M230,269.727h14.243V317.2H230Zm0,0" transform="translate(-175.403 -205.699)" fill="#31d9e7"/>
    <path id="Trazado_109015" data-name="Trazado 109015" d="M70,307.727h7.121v38.455H70Zm0,0" transform="translate(-53.384 -234.678)" fill="#e62753"/>
    <path id="Trazado_109016" data-name="Trazado 109016" d="M164,247.727h7.121v52.7H164Zm0,0" transform="translate(-125.07 -188.921)" fill="#ffbd54"/>
    <path id="Trazado_109017" data-name="Trazado 109017" d="M260,269.727h7.121V317.2H260Zm0,0" transform="translate(-198.282 -205.699)" fill="#2bc5d2"/>
    <path id="Trazado_109018" data-name="Trazado 109018" d="M201.345,18.559a37.743,37.743,0,1,0,0,53.376A37.743,37.743,0,0,0,201.345,18.559Zm0,0" transform="translate(-104.414 -5.722)" fill="#50536e"/>
    <path id="Trazado_109019" data-name="Trazado 109019" d="M219.233,89.822a30.622,30.622,0,1,1,0-43.306A30.657,30.657,0,0,1,219.233,89.822Zm0,0" transform="translate(-127.337 -28.644)" fill="#b5fcff"/>
    <path id="Trazado_109020" data-name="Trazado 109020" d="M306.127,46.519a30.577,30.577,0,0,0-25.213-8.748,30.606,30.606,0,0,1,0,60.8,30.61,30.61,0,0,0,25.213-52.054Zm0,0" transform="translate(-214.232 -28.647)" fill="#71f6fc"/>
    <path id="Trazado_109021" data-name="Trazado 109021" d="M119.977,81.7,101.712,63.427A39.536,39.536,0,0,0,103.3,17.819a1.78,1.78,0,1,0-2.975,1.957,36,36,0,1,1-4.65-5.7l.1.1a1.78,1.78,0,0,0,2.527-2.509l-.1-.1a39.567,39.567,0,0,0-55.9,0q-.726.726-1.406,1.48H1.78A1.781,1.781,0,0,0,0,14.82v7.874a1.78,1.78,0,1,0,3.561,0V16.6H38.034a39.218,39.218,0,0,0-3.511,5.99H12.343a1.78,1.78,0,0,0,0,3.561H33.05A39.441,39.441,0,0,0,31.773,30.5H12.343a1.78,1.78,0,0,0,0,3.561H31.114a39.783,39.783,0,0,0-.359,4.352H12.343a1.781,1.781,0,0,0,0,3.562H30.818A39.563,39.563,0,0,0,34.8,57.016H31.809a1.78,1.78,0,0,0-1.78,1.781V111.5a1.78,1.78,0,0,0,1.78,1.781H46.052a1.78,1.78,0,0,0,1.78-1.781V72.075a39.228,39.228,0,0,0,4.985,2.919V111.5a1.781,1.781,0,0,0,1.78,1.781H68.84a1.78,1.78,0,0,0,1.78-1.781V79.019a40.169,40.169,0,0,0,4.155-.256v27.5a1.78,1.78,0,1,0,3.561,0V78.19a39.256,39.256,0,0,0,15.823-7.206L112.42,89.248a5.342,5.342,0,0,0,7.556-7.553ZM44.272,109.722H33.589V60.578H36.8a39.547,39.547,0,0,0,5.5,6.886q.962.962,1.975,1.842Zm12.107,0v-33.2a39.631,39.631,0,0,0,10.682,2.367v30.83ZM117.459,86.73a1.781,1.781,0,0,1-2.519,0L96.9,68.693c.437-.4.867-.808,1.289-1.23s.831-.85,1.23-1.289l18.034,18.038a1.782,1.782,0,0,1,0,2.518Zm0,0" fill="#47286d"/>
    <path id="Trazado_109022" data-name="Trazado 109022" d="M76.557,204.139a1.78,1.78,0,0,0-1.78,1.78v4.036H3.561V122.389a1.78,1.78,0,1,0-3.561,0v89.347a1.78,1.78,0,0,0,1.78,1.78H76.557a1.78,1.78,0,0,0,1.78-1.78V205.92A1.78,1.78,0,0,0,76.557,204.139Zm0,0" transform="translate(-0.001 -91.978)" fill="#47286d"/>
    <path id="Trazado_109023" data-name="Trazado 109023" d="M32.5,301.975v38.462a1.781,1.781,0,0,0,1.78,1.78H48.524a1.781,1.781,0,0,0,1.78-1.78V301.975a1.781,1.781,0,0,0-1.78-1.78H34.28A1.781,1.781,0,0,0,32.5,301.975Zm3.561,1.781H46.744v34.9H36.061Zm0,0" transform="translate(-24.786 -228.934)" fill="#47286d"/>
    <path id="Trazado_109024" data-name="Trazado 109024" d="M59.593,198.742a1.781,1.781,0,0,0,0-3.562H46.28a1.781,1.781,0,0,0,0,3.562Zm0,0" transform="translate(-33.937 -148.848)" fill="#47286d"/>
    <path id="Trazado_109025" data-name="Trazado 109025" d="M191.866,29.988a32.355,32.355,0,1,0,22.913,9.478,32.182,32.182,0,0,0-22.913-9.478Zm20.394,52.79a28.884,28.884,0,1,1,8.433-20.4A28.643,28.643,0,0,1,212.26,82.778Zm0,0" transform="translate(-121.621 -22.869)" fill="#47286d"/>
  </g>
</svg>
