<svg xmlns="http://www.w3.org/2000/svg" width="292" height="392.709" viewBox="0 0 292 392.709">
  <g id="Grupo_68156" data-name="Grupo 68156" transform="translate(-962 -5733.957)">
    <g id="Grupo_68155" data-name="Grupo 68155">
      <g id="Elipse_4681" data-name="Elipse 4681" transform="translate(1009 5733.957)" fill="#fff" stroke="#8a8a8a" stroke-width="3" stroke-dasharray="3 4">
        <circle cx="98" cy="98" r="98" stroke="none"/>
        <circle cx="98" cy="98" r="96.5" fill="none"/>
      </g>
      <ellipse id="Elipse_4682" data-name="Elipse 4682" cx="87.5" cy="87" rx="87.5" ry="87" transform="translate(1021 5744.957)" fill="#f17781" opacity="0.5"/>
      <rect id="Rectángulo_6389" data-name="Rectángulo 6389" width="292" height="163.624" rx="5" transform="translate(962 5963.043)" fill="#fff"/>
      <text id="Telemarketing" transform="translate(1011 5977.893)" fill="#12263f" font-size="18" font-family="Roboto-Black, Roboto" font-weight="800"><tspan x="37.476" y="19">Telemarketing</tspan></text>
      <line id="Línea_262" data-name="Línea 262" y1="33" transform="translate(1105.5 5929.957)" fill="none" stroke="#707070" stroke-width="3" stroke-dasharray="3 4" style="mix-blend-mode: multiply;isolation: isolate"/>
      <text id="Las_llamadas_telefónicas_son_el_medio_principal_para_llevar_a_cabo_una_venta._" data-name="Las llamadas telefónicas son el medio principal para llevar a cabo una venta. 
" transform="translate(989 6013.893)" fill="#12263f" font-size="16" font-family="Roboto-Regular, Roboto"><tspan x="0" y="17">Las llamadas telefónicas son el </tspan><tspan x="0" y="41">medio principal para llevar a cabo </tspan><tspan x="0" y="65">una venta. </tspan></text>
    </g>
    <g id="telemarketing-2" data-name="telemarketing" transform="translate(1062.502 5776.555)">
      <g id="Grupo_62531" data-name="Grupo 62531" transform="translate(4.096 1.597)">
        <g id="Grupo_62530" data-name="Grupo 62530">
          <g id="Grupo_62529" data-name="Grupo 62529">
            <g id="Grupo_62514" data-name="Grupo 62514" transform="translate(68.277)">
              <g id="Grupo_62513" data-name="Grupo 62513">
                <g id="Grupo_62512" data-name="Grupo 62512">
                  <g id="Grupo_62511" data-name="Grupo 62511">
                    <g id="Grupo_62510" data-name="Grupo 62510">
                      <path id="Trazado_109971" data-name="Trazado 109971" d="M359.448,7.5h-21.32a7.6,7.6,0,0,0-7.6,7.6v9.135a7.607,7.607,0,0,0,5.856,7.4,2.286,2.286,0,0,1,1.742,2.234v6.68a.692.692,0,0,0,1.252.407l5.942-8.17a2.3,2.3,0,0,1,1.864-.949h12.268a7.6,7.6,0,0,0,7.6-7.6V15.1a7.6,7.6,0,0,0-7.6-7.6Z" transform="translate(-330.524 -7.5)" fill="#d5b0ec"/>
                    </g>
                  </g>
                </g>
              </g>
            </g>
            <g id="Grupo_62515" data-name="Grupo 62515" transform="translate(74.964 0)">
              <path id="Trazado_109972" data-name="Trazado 109972" d="M361.913,121.964a2.312,2.312,0,0,1,.911,1.842v6.68a.692.692,0,0,0,1.252.407l5.942-8.17a2.3,2.3,0,0,1,1.864-.949h-9.832Z" transform="translate(-361.913 -97.432)" fill="#c995e4"/>
              <path id="Trazado_109973" data-name="Trazado 109973" d="M446.513,7.5h-5.357a4.3,4.3,0,0,1,4.3,4.3V27.539a4.3,4.3,0,0,1-4.3,4.3h5.357a7.6,7.6,0,0,0,7.6-7.6V15.1a7.6,7.6,0,0,0-7.6-7.6Z" transform="translate(-424.276 -7.5)" fill="#c995e4"/>
            </g>
            <g id="Grupo_62528" data-name="Grupo 62528" transform="translate(0 4.708)">
              <g id="Grupo_62527" data-name="Grupo 62527">
                <g id="Grupo_62526" data-name="Grupo 62526">
                  <g id="Grupo_62516" data-name="Grupo 62516" transform="translate(0 44.851)">
                    <path id="Trazado_109974" data-name="Trazado 109974" d="M74.176,259.331c-4.3-1.969-12.439-3.239-16.444-3.773a2.743,2.743,0,0,1-2.348-2.745V240.155H36.564v12.658a2.743,2.743,0,0,1-2.348,2.745c-4,.534-12.14,1.8-16.444,3.773A13.487,13.487,0,0,0,10,271.632v21.552a3.239,3.239,0,0,0,3.193,3.282H78.755a3.238,3.238,0,0,0,3.193-3.282V271.632A13.487,13.487,0,0,0,74.176,259.331Z" transform="translate(-9.999 -240.155)" fill="#ffece3"/>
                  </g>
                  <g id="Grupo_62517" data-name="Grupo 62517" transform="translate(36.727 44.851)">
                    <path id="Trazado_109975" data-name="Trazado 109975" d="M209.86,259.331c-4.3-1.969-12.439-3.239-16.444-3.773a2.743,2.743,0,0,1-2.348-2.745V240.155H182.41v17.664a2.743,2.743,0,0,0,2.348,2.745c4,.534,12.14,1.8,16.444,3.773a13.487,13.487,0,0,1,7.773,12.3v19.828h5.465a3.239,3.239,0,0,0,3.194-3.282V271.632A13.487,13.487,0,0,0,209.86,259.331Z" transform="translate(-182.41 -240.155)" fill="#ffddce"/>
                  </g>
                  <g id="Grupo_62518" data-name="Grupo 62518" transform="translate(0 60.253)">
                    <path id="Trazado_109976" data-name="Trazado 109976" d="M74.175,316.232c-4.3-1.969-12.439-3.239-16.444-3.773h-.007L45.973,323.8l0,.013,0-.013-11.75-11.341c-4,.534-12.14,1.8-16.444,3.773A13.487,13.487,0,0,0,10,328.533v21.552a3.239,3.239,0,0,0,3.193,3.282H78.754a3.239,3.239,0,0,0,3.194-3.282V328.533A13.487,13.487,0,0,0,74.175,316.232Z" transform="translate(-9.998 -312.458)" fill="#f17781"/>
                  </g>
                  <path id="Trazado_109977" data-name="Trazado 109977" d="M234.244,353.366a3.239,3.239,0,0,0,3.194-3.282V328.533a13.487,13.487,0,0,0-7.773-12.3c-4.3-1.969-12.439-3.239-16.444-3.773h-.007l-5.638,5.442c4.256.665,10.036,1.783,13.432,3.337a13.487,13.487,0,0,1,7.773,12.3v19.828Z" transform="translate(-165.488 -252.205)" fill="#fb636f"/>
                  <g id="Grupo_62520" data-name="Grupo 62520" transform="translate(13.738 5.459)">
                    <path id="Trazado_109978" data-name="Trazado 109978" d="M74.489,77.471l0,5.85h44.473l0-5.853A22.239,22.239,0,0,0,96.724,55.232h0A22.234,22.234,0,0,0,74.489,77.471Z" transform="translate(-74.489 -55.232)" fill="#f9e478"/>
                    <path id="Trazado_109979" data-name="Trazado 109979" d="M211.7,148.95h15.25v12.286H211.7Z" transform="translate(-182.468 -128.987)" fill="#8db9c2"/>
                    <path id="Trazado_109980" data-name="Trazado 109980" d="M74.489,148.95H88.376v12.286H74.489Z" transform="translate(-74.489 -128.987)" fill="#8db9c2"/>
                    <g id="Grupo_62519" data-name="Grupo 62519" transform="translate(6.114 9.453)">
                      <path id="Trazado_109981" data-name="Trazado 109981" d="M130.081,100.742a4.529,4.529,0,0,0-6.232.228,12.248,12.248,0,0,1-8.679,3.59h-6.84a5.557,5.557,0,0,0-5.138,5.558l.024,13.717c0,9.979,11.237,14.821,16.092,14.911,4.855-.09,16.092-4.932,16.092-14.911l.024-13.717C135.432,105.348,133.368,103.7,130.081,100.742Z" transform="translate(-103.191 -99.608)" fill="#ffece3"/>
                    </g>
                    <path id="Trazado_109982" data-name="Trazado 109982" d="M173.57,100.759a4.413,4.413,0,0,0-3.352-1.112l-.019,24.206c0,7.589-6.5,12.206-11.748,14.023a14.8,14.8,0,0,0,4.344.888c4.855-.09,16.092-4.932,16.092-14.911l.024-13.717C178.921,105.365,176.857,103.717,173.57,100.759Z" transform="translate(-140.566 -90.172)" fill="#ffddce"/>
                  </g>
                  <g id="Grupo_62524" data-name="Grupo 62524" transform="translate(8.389)">
                    <g id="Grupo_62523" data-name="Grupo 62523" transform="translate(0)">
                      <g id="Grupo_62522" data-name="Grupo 62522">
                        <g id="Grupo_62521" data-name="Grupo 62521">
                          <path id="Trazado_109983" data-name="Trazado 109983" d="M54.73,67.312V57.3a22.237,22.237,0,1,1,44.474,0V67.312a5.348,5.348,0,0,0,5.348-5.349V57.187a27.586,27.586,0,1,0-55.171,0v4.772a5.35,5.35,0,0,0,5.349,5.349Z" transform="translate(-49.38 -29.603)" fill="#a8d0d5"/>
                          <path id="Trazado_109984" data-name="Trazado 109984" d="M122.543,234.194H116.3a2.927,2.927,0,1,1,0-5.854h6.248a2.927,2.927,0,1,1,0,5.854Z" transform="translate(-99.737 -186.006)" fill="#7ba0b0"/>
                        </g>
                      </g>
                    </g>
                  </g>
                  <g id="Grupo_62525" data-name="Grupo 62525" transform="translate(17.636 60.253)">
                    <path id="Trazado_109985" data-name="Trazado 109985" d="M102.4,325.091l8.725-1.287L99.37,312.463c-1.669.223-4.055.573-6.582,1.048l5.113,9.342a4.393,4.393,0,0,0,4.494,2.237Z" transform="translate(-92.788 -312.462)" fill="#fb636f"/>
                    <path id="Trazado_109986" data-name="Trazado 109986" d="M197.214,313.505c-2.524-.475-4.908-.825-6.575-1.047h-.007L178.881,323.8l8.725,1.287a4.393,4.393,0,0,0,4.494-2.237Z" transform="translate(-160.542 -312.457)" fill="#fb636f"/>
                  </g>
                </g>
              </g>
              <path id="Trazado_109987" data-name="Trazado 109987" d="M228.9,421.131h-9.2a1,1,0,0,1-1-1v-3.753a1,1,0,0,1,1-1h9.2a1,1,0,0,1,1,1v3.753A1,1,0,0,1,228.9,421.131Z" transform="translate(-174.238 -333.2)" fill="#fcdd2e"/>
            </g>
          </g>
        </g>
      </g>
      <g id="Grupo_62533" data-name="Grupo 62533" transform="translate(2.498 -0.001)">
        <g id="Grupo_62532" data-name="Grupo 62532" transform="translate(44.456 0)">
          <path id="Trazado_109988" data-name="Trazado 109988" d="M386.094,40.383H367.048a1.6,1.6,0,1,0,0,3.2h19.047a1.6,1.6,0,1,0,0-3.2Z" transform="translate(-332.591 -31.781)" fill="#47286d"/>
          <path id="Trazado_109989" data-name="Trazado 109989" d="M386.094,73.775H367.048a1.6,1.6,0,1,0,0,3.2h19.047a1.6,1.6,0,1,0,0-3.2Z" transform="translate(-332.591 -58.059)" fill="#47286d"/>
          <path id="Trazado_109990" data-name="Trazado 109990" d="M353.546,0H342.566a1.6,1.6,0,1,0,0,3.2h10.981A6.013,6.013,0,0,1,359.552,9.2v9.135a6.013,6.013,0,0,1-6.006,6.006H341.278a3.914,3.914,0,0,0-3.156,1.607l-4.3,5.919v-3.9a3.863,3.863,0,0,0-2.973-3.789,5.98,5.98,0,0,1-4.624-5.847V9.2a6.013,6.013,0,0,1,6.006-6.006H335.1a1.6,1.6,0,1,0,0-3.2h-2.871a9.212,9.212,0,0,0-9.2,9.2v9.135a9.163,9.163,0,0,0,7.088,8.957.69.69,0,0,1,.51.679v6.68A2.291,2.291,0,0,0,334.765,36l5.942-8.17a.709.709,0,0,1,.572-.291h12.268a9.212,9.212,0,0,0,9.2-9.2V9.2a9.212,9.212,0,0,0-9.2-9.2Z" transform="translate(-299.203 0.001)" fill="#47286d"/>
          <path id="Trazado_109991" data-name="Trazado 109991" d="M223,407.877h-9.2a2.6,2.6,0,0,0-2.6,2.6v3.753a2.6,2.6,0,0,0,2.6,2.6H223a2.6,2.6,0,0,0,2.6-2.6v-3.753A2.6,2.6,0,0,0,223,407.877Zm-.6,5.755H214.39v-2.56H222.4Z" transform="translate(-211.195 -320.992)" fill="#47286d"/>
        </g>
        <path id="Trazado_109992" data-name="Trazado 109992" d="M68.937,86.275c-4.423-2.024-12.465-3.312-16.879-3.9l-.011,0h-.008a1.149,1.149,0,0,1-.962-1.161V75.144c3.067-2.275,6.608-6.187,6.672-12.136h4.559a6.942,6.942,0,0,0,6.946-6.946V51.285a29.183,29.183,0,1,0-58.366,0v4.772a6.956,6.956,0,0,0,5.348,6.756v3.058a4.581,4.581,0,0,0,4.576,4.576h3.774a17.9,17.9,0,0,0,4.478,4.7v6.056a1.149,1.149,0,0,1-.962,1.161c-4.41.588-12.469,1.877-16.9,3.9A15.1,15.1,0,0,0,2.5,100.029v5.128a1.6,1.6,0,0,0,3.2,0v-5.128a11.9,11.9,0,0,1,6.84-10.849A41.846,41.846,0,0,1,20.892,86.8l4.552,8.317a6.018,6.018,0,0,0,5.263,3.114c.762,0,.626-.049,7.767-1.081v26.119H16.728v-7.217a1.6,1.6,0,1,0-3.2,0v7.217H7.289a1.644,1.644,0,0,1-1.6-1.684v-8.915a1.6,1.6,0,1,0-3.2,0v8.915a4.842,4.842,0,0,0,4.791,4.879H72.852a4.841,4.841,0,0,0,4.791-4.879V100.029a15.1,15.1,0,0,0-8.706-13.754Zm-16.563-.633c.976.136,2.2.319,3.56.546l-4.045,7.391A2.805,2.805,0,0,1,49.028,95l-5.511-.813ZM57.7,47.527c-.434-4.274-2.668-6.16-5.794-8.967a6.132,6.132,0,0,0-8.429.285,10.621,10.621,0,0,1-7.551,3.123h-6.84a7.163,7.163,0,0,0-6.565,5.558h-2.73a20.646,20.646,0,0,1,40.557,0H57.7Zm-38.257,3.2h2.91l.016,9.091H19.432c0-8.814-.012-8.379.011-9.091Zm41.268,9.091H57.758l.016-9.091H60.7c.023.71.007.272.013,9.091ZM14.083,56.062V51.29a25.988,25.988,0,1,1,51.976,0v4.776a3.752,3.752,0,0,1-2.153,3.4V51.4a23.835,23.835,0,1,0-47.669,0v8.055a3.757,3.757,0,0,1-2.154-3.394Zm6.729,11.2a1.382,1.382,0,0,1-1.381-1.381V63.008h2.946a14.051,14.051,0,0,0,.693,4.249Zm5.126-1.577a10.94,10.94,0,0,1-.369-2.841l-.024-13.715a3.976,3.976,0,0,1,3.541-3.961h6.84a13.8,13.8,0,0,0,9.808-4.057,2.937,2.937,0,0,1,4.035-.172c3.171,2.845,4.821,4.135,4.813,8.186l-.024,13.72c0,4.581-2.707,7.92-5.9,10.109a1.581,1.581,0,0,0-.16.109,17.918,17.918,0,0,1-8.438,3.1,17.539,17.539,0,0,1-7.769-2.668h3a4.524,4.524,0,1,0,0-9.049H29.042a4.506,4.506,0,0,0-3.1,1.242Zm3.1,4.612a1.329,1.329,0,0,1,0-2.659H35.29a1.329,1.329,0,1,1,0,2.659ZM31.106,95a2.8,2.8,0,0,1-2.86-1.423L24.2,86.189c1.355-.227,2.584-.41,3.56-.546l8.855,8.547ZM30.98,84.309a4.4,4.4,0,0,0,1.278-3.1V77.123a19.312,19.312,0,0,0,7.775,2.227h.06a19.322,19.322,0,0,0,7.79-2.234v4.095a4.4,4.4,0,0,0,1.275,3.095L40.067,93.08Zm43.468,37.271a1.644,1.644,0,0,1-1.6,1.684H66.608v-7.217a1.6,1.6,0,0,0-3.2,0v7.217H41.668V97.147c7.131,1.031,7,1.08,7.759,1.08a6.019,6.019,0,0,0,5.263-3.114l4.553-8.318a41.859,41.859,0,0,1,8.364,2.386,11.9,11.9,0,0,1,6.84,10.849v21.552Z" transform="translate(-2.498 -17.395)" fill="#47286d"/>
      </g>
    </g>
  </g>
</svg>
