<svg xmlns="http://www.w3.org/2000/svg" width="292" height="528.043" viewBox="0 0 292 528.043">
  <g id="Grupo_68159" data-name="Grupo 68159" transform="translate(-342 -6794.785)">
    <g id="Elipse_4704" data-name="Elipse 4704" transform="translate(389 6794.785)" fill="#fff" stroke="#8a8a8a" stroke-width="3" stroke-dasharray="3 4">
      <circle cx="98" cy="98" r="98" stroke="none"/>
      <circle cx="98" cy="98" r="96.5" fill="none"/>
    </g>
    <ellipse id="Elipse_4705" data-name="Elipse 4705" cx="87.5" cy="87" rx="87.5" ry="87" transform="translate(401 6805.785)" fill="#bb83ff" opacity="0.5"/>
    <rect id="Rectángulo_6400" data-name="Rectángulo 6400" width="292" height="298.957" rx="5" transform="translate(342 7023.871)" fill="#fff"/>
    <text id="Google_Shopping_" data-name="Google Shopping
" transform="translate(391 7038.721)" fill="#12263f" font-size="18" font-family="Roboto-Black, Roboto" font-weight="800"><tspan x="27.338" y="19">Google Shopping</tspan></text>
    <line id="Línea_277" data-name="Línea 277" y1="33" transform="translate(485.5 6990.785)" fill="none" stroke="#707070" stroke-width="3" stroke-dasharray="3 4" style="mix-blend-mode: multiply;isolation: isolate"/>
    <text id="Este_permite_la_visualización_del_producto_a_ofrecer_en_Google_con_la_imagen_y_precio_determinados._" data-name="Este permite la visualización del producto a ofrecer en Google con la imagen y precio determinados. " transform="translate(369 7078.656)" fill="#12263f" font-size="16" font-family="Roboto-Regular, Roboto"><tspan x="0" y="17">Este permite la visualización del </tspan><tspan x="0" y="41">producto a ofrecer en Google con </tspan></text>
    <g id="Grupo_62619" data-name="Grupo 62619" transform="translate(-494.054 6488.408)">
      <path id="Trazado_110091" data-name="Trazado 110091" d="M1034.062,354.268a9.433,9.433,0,0,1,2.988,7.079c-.005,11.393-.022,22.786.013,34.178a9.767,9.767,0,0,1-2.84,7.171q-12.462,12.567-25.02,25.04a1.289,1.289,0,0,1-.256.159l-7.663-7.421c4.765-5.47,6.422-11.845,5.6-18.974-.112-.96-.525-1.133-1.372-1.13-6.155.026-12.309.038-18.464-.009-1.051-.008-1.285.375-1.258,1.327.058,1.983.077,3.97-.006,5.95-.046,1.089.323,1.377,1.377,1.355,3.152-.064,6.307,0,9.46-.035.875-.008,1.206.147.855,1.115a10.945,10.945,0,0,1-2.376,4.036c-3.753,3.847-10.586,4.62-15.713,1.779a13.175,13.175,0,0,1-6.311-14.311,13.041,13.041,0,0,1,19.943-8.067c.487.314.943.932,1.576.266a82.29,82.29,0,0,0,5.92-6.129l10.934-10.829c.291.2.582.408.873.61a6.837,6.837,0,0,0,9.344-1.088c2.322-2.6,2.193-6.108-.349-9.426Z" transform="translate(-7.761 -0.56)" fill="#5c84ef" stroke="#47286d" stroke-width="3"/>
      <path id="Trazado_110092" data-name="Trazado 110092" d="M1031.839,353.708l-12.749,12.648a6.969,6.969,0,0,0-11.251,2.268c-1.127,2.834-.431,5.335,1.383,7.635l-10.934,10.828a21.864,21.864,0,0,0-13.519-5.493,22.406,22.406,0,0,0-17.288,6.767c-.447-.483-.882-.977-1.342-1.448q-3.987-4.072-7.986-8.136c2.28-2.315,4.549-4.642,6.844-6.942,5.889-5.9,11.813-11.77,17.672-17.7a11.413,11.413,0,0,1,8.586-3.542c10.879.046,21.759.025,32.638.011C1026.96,350.6,1029.7,351.362,1031.839,353.708Z" transform="translate(-5.538)" fill="#ca4539" stroke="#47286d" stroke-width="3"/>
      <path id="Trazado_110093" data-name="Trazado 110093" d="M952.615,383.845q3.994,4.067,7.985,8.136c.46.47.9.965,1.341,1.448-.149.2-.283.42-.448.61a22.184,22.184,0,0,0-5.2,19.572,24.014,24.014,0,0,0,4.946,10.172c-2.555,2.523-5.128,5.032-7.664,7.574q-5.841,5.856-11.644,11.751c-5.8-5.777-11.694-11.459-17.36-17.363-3.928-4.093-3.6-10.236.51-14.428,4.129-4.213,8.328-8.358,12.505-12.523Q945.094,391.312,952.615,383.845Z" transform="translate(0 -5.067)" fill="#eaba2d" stroke="#47286d" stroke-width="3"/>
      <path id="Trazado_110094" data-name="Trazado 110094" d="M945.55,450.287q5.821-5.878,11.644-11.751c2.536-2.543,5.109-5.051,7.664-7.574.4.383.808.762,1.2,1.15a21.794,21.794,0,0,0,15.768,6.391,21.2,21.2,0,0,0,15.309-6.345l7.664,7.421c-.332.378-.642.777-1,1.132q-13.039,13.05-26.085,26.091c-4.8,4.8-10.968,4.81-15.74.022Q953.753,458.569,945.55,450.287Z" transform="translate(-3.618 -12.246)" fill="#67a659" stroke="#47286d" stroke-width="3"/>
      <path id="Trazado_110095" data-name="Trazado 110095" d="M999.637,425.481a21.2,21.2,0,0,1-15.309,6.344,21.794,21.794,0,0,1-15.768-6.391c-.4-.388-.8-.767-1.2-1.15a24.014,24.014,0,0,1-4.946-10.172,22.184,22.184,0,0,1,5.2-19.572c.164-.19.3-.406.448-.61a22.41,22.41,0,0,1,17.289-6.767,21.864,21.864,0,0,1,13.519,5.493,82.284,82.284,0,0,1-5.92,6.129c-.633.666-1.089.047-1.576-.266a13.041,13.041,0,0,0-19.943,8.067,13.175,13.175,0,0,0,6.311,14.311c5.127,2.84,11.96,2.067,15.713-1.779a10.942,10.942,0,0,0,2.376-4.036c.351-.968.019-1.123-.855-1.115-3.153.031-6.308-.029-9.46.035-1.054.021-1.422-.266-1.377-1.355.083-1.98.064-3.968.006-5.95-.027-.953.207-1.336,1.258-1.327,6.155.047,12.309.035,18.464.008.847,0,1.26.169,1.372,1.13C1006.059,413.636,1004.4,420.011,999.637,425.481Z" transform="translate(-6.115 -5.568)" fill="#fdfdfd" stroke="#47286d" stroke-width="3"/>
      <path id="Trazado_110096" data-name="Trazado 110096" d="M1018.055,378.743c-1.815-2.3-2.511-4.8-1.383-7.635a6.968,6.968,0,0,1,11.251-2.268c2.541,3.318,2.671,6.824.348,9.426a6.837,6.837,0,0,1-9.344,1.088Q1018.491,379.049,1018.055,378.743Z" transform="translate(-14.372 -2.484)" fill="#fdfdfd" stroke="#47286d" stroke-width="3"/>
    </g>
  </g>
</svg>
