<svg xmlns="http://www.w3.org/2000/svg" width="129.794" height="130.094" viewBox="0 0 129.794 130.094">
  <g id="customer-service" transform="translate(-0.572)">
    <path id="Trazado_109047" data-name="Trazado 109047" d="M151.428,127.868V113.18A25.181,25.181,0,0,1,176.608,88h0a25.181,25.181,0,0,1,25.18,25.18v14.688Z" transform="translate(-111.288 -64.919)" fill="#d3a06c"/>
    <path id="Trazado_109048" data-name="Trazado 109048" d="M241.526,88c-.709,0-1.4.048-2.1.1a25.17,25.17,0,0,1,23.081,25.075v14.688h4.2V113.18A25.181,25.181,0,0,0,241.526,88Z" transform="translate(-176.207 -64.919)" fill="#b27946"/>
    <path id="Trazado_109049" data-name="Trazado 109049" d="M138.706,359.081h46.162l-3.939-11.813a12.592,12.592,0,0,0-9.692-8.406L155.492,336H138.706l-15.748,2.862a12.591,12.591,0,0,0-9.692,8.406l-1.838,8.353v3.46Z" transform="translate(-81.78 -247.872)" fill="#bb83ff"/>
    <g id="Grupo_62130" data-name="Grupo 62130" transform="translate(40.14 46.162)">
      <path id="Trazado_109050" data-name="Trazado 109050" d="M215.428,312v6.295l8.393,8.393,8.393-8.393V312Z" transform="translate(-198.642 -276.329)" fill="#f9e0a6"/>
      <path id="Trazado_109051" data-name="Trazado 109051" d="M311.428,216h2.1a6.294,6.294,0,0,1,6.295,6.295h0a6.294,6.294,0,0,1-6.295,6.295h-2.1Z" transform="translate(-269.462 -205.509)" fill="#f9e0a6"/>
      <path id="Trazado_109052" data-name="Trazado 109052" d="M159.821,216h-2.1a6.294,6.294,0,0,0-6.295,6.295h0a6.294,6.294,0,0,0,6.295,6.295h2.1Z" transform="translate(-151.428 -205.509)" fill="#f9e0a6"/>
      <path id="Trazado_109053" data-name="Trazado 109053" d="M175.428,184.393v12.59a18.883,18.883,0,0,0,18.885,18.885h0A18.883,18.883,0,0,0,213.2,196.983v-12.59h0a25.332,25.332,0,0,1-17.911-7.42l-.974-.974-.974.974a25.332,25.332,0,0,1-17.911,7.42Z" transform="translate(-169.133 -176)" fill="#f9e0a6"/>
    </g>
    <path id="Trazado_109054" data-name="Trazado 109054" d="M256.214,219.533a18.882,18.882,0,0,1-16.786,18.761,18.827,18.827,0,0,0,20.983-18.761v-12.59a25.413,25.413,0,0,1-4.2-.376Z" transform="translate(-176.207 -152.388)" fill="#eabd8c"/>
    <path id="Trazado_109055" data-name="Trazado 109055" d="M347.625,8H377a4.2,4.2,0,0,1,4.2,4.2V28.983a4.2,4.2,0,0,1-4.2,4.2h-6.295L353.919,43.671l1.8-10.491h-8.093a4.2,4.2,0,0,1-4.2-4.2V12.2A4.2,4.2,0,0,1,347.625,8Z" transform="translate(-252.929 -5.902)" fill="#ececec"/>
    <path id="Trazado_109056" data-name="Trazado 109056" d="M299.712,359.081H308.8l-3.939-11.813a12.592,12.592,0,0,0-9.692-8.406L279.428,336l15.1,8.387a8.393,8.393,0,0,1,4.266,6.41Z" transform="translate(-205.716 -247.872)" fill="#47286d"/>
    <path id="Trazado_109057" data-name="Trazado 109057" d="M54.433,301.453l-7.524,6.8a4.2,4.2,0,0,1-5.934,0L25.926,293.209a4.2,4.2,0,0,1,0-5.934l6.8-6.8-12.59-12.59-7.883,7.883a12.59,12.59,0,0,0,0,17.8l28.358,28.358a12.59,12.59,0,0,0,17.8,0l8.6-7.883Z" transform="translate(-5.9 -197.619)" fill="#f17781"/>
    <path id="Trazado_109058" data-name="Trazado 109058" d="M101.147,157.75a14.688,14.688,0,0,0-11.308-9.805l-14.023-2.552v-1.087a21.117,21.117,0,0,0,6.255-5.554h4.236a6.3,6.3,0,0,0,6.295-6.295v-25.18a27.278,27.278,0,0,0-54.556,0v14.688a8.407,8.407,0,0,0,6.691,8.219,21.022,21.022,0,0,0,10.095,14.122v1.087l-14.025,2.552A14.685,14.685,0,0,0,29.5,157.75l-.839,2.52-7.147-7.147a2.1,2.1,0,0,1,0-2.969l8.288-8.286L14.248,126.311l-9.367,9.367a14.688,14.688,0,0,0,0,20.771L33.24,184.808a14.681,14.681,0,0,0,20.706.063l10.221-9.365-3.187-3.181H106Zm-35.822-5.179-6.295-6.295v-.1a20.966,20.966,0,0,0,12.59,0v.1Zm20.983-18.016H84.543a20.84,20.84,0,0,0,1.368-4.371,8.312,8.312,0,0,0,2.495-.992v3.265A2.1,2.1,0,0,1,86.308,134.556Zm0-16.2a4.16,4.16,0,0,1,0,7.227Zm-44.064,3.613a4.183,4.183,0,0,1,2.1-3.613v7.227A4.183,4.183,0,0,1,42.244,121.966Zm2.1-10.491v2.4a8.322,8.322,0,0,0-2.1.869v-7.462a23.081,23.081,0,1,1,46.162,0v7.462a8.246,8.246,0,0,0-2.1-.869v-2.4h-2.1a23.086,23.086,0,0,1-16.428-6.8l-2.457-2.457-2.457,2.457a23.086,23.086,0,0,1-16.428,6.8Zm4.2,14.688V115.591a27.2,27.2,0,0,0,16.786-7.457,27.193,27.193,0,0,0,16.786,7.457v10.571a16.66,16.66,0,0,1-2.27,8.393H65.325v4.2H76.391a16.76,16.76,0,0,1-27.853-12.59Zm-24.67,15.706-2.279,2.279-9.623-9.623,2.279-2.279Zm19.753,43.047a10.434,10.434,0,0,1-7.42-3.074L7.844,153.484a10.494,10.494,0,0,1,0-14.837L9,137.493l9.623,9.623-.076.076a6.306,6.306,0,0,0,0,8.9l15.047,15.047a6.262,6.262,0,0,0,4.453,1.844,6.178,6.178,0,0,0,4.375-1.771l.157-.141,9.667,9.667-1.2,1.1A10.439,10.439,0,0,1,43.622,184.915ZM55.341,177.9,45.7,168.254l2.772-2.505,9.629,9.629Zm1.442-9.772-8.173-8.173-9.081,8.215a2.143,2.143,0,0,1-2.967,0l-4.583-4.583,1.5-4.511a10.5,10.5,0,0,1,8.076-7.006l14.667-2.665,9.1,9.1,9.1-9.1,14.665,2.665a10.491,10.491,0,0,1,8.076,7.006l3.019,9.05Z" transform="translate(-0.006 -59.017)" fill="#47286d"/>
    <path id="Trazado_109059" data-name="Trazado 109059" d="M371.1,0H341.723a6.3,6.3,0,0,0-6.295,6.295V23.081a6.3,6.3,0,0,0,6.295,6.295h5.6l-2.17,12.655,20.249-12.655H371.1a6.3,6.3,0,0,0,6.295-6.295V6.295A6.3,6.3,0,0,0,371.1,0Zm2.1,23.081a2.1,2.1,0,0,1-2.1,2.1h-6.9l-13.326,8.328L352.3,25.18H341.723a2.1,2.1,0,0,1-2.1-2.1V6.295a2.1,2.1,0,0,1,2.1-2.1H371.1a2.1,2.1,0,0,1,2.1,2.1Z" transform="translate(-247.028)" fill="#47286d"/>
    <rect id="Rectángulo_6311" data-name="Rectángulo 6311" width="25.18" height="4.197" transform="translate(96.794 8.393)" fill="#47286d"/>
    <rect id="Rectángulo_6312" data-name="Rectángulo 6312" width="16.786" height="4.197" transform="translate(96.794 16.786)" fill="#47286d"/>
    <rect id="Rectángulo_6313" data-name="Rectángulo 6313" width="4.197" height="4.197" transform="translate(117.776 16.786)" fill="#47286d"/>
    <path id="Trazado_109060" data-name="Trazado 109060" d="M20.237,69.862l-2.159-3.6-5.686,3.412A54.57,54.57,0,0,1,81.484,30.631l1.242-4.008A58.754,58.754,0,0,0,8.147,69.418L4.171,62.789l-3.6,2.159,7.376,12.29Z" transform="translate(0 -17.705)" fill="#47286d"/>
    <path id="Trazado_109061" data-name="Trazado 109061" d="M411.013,161.308l3.6,2.159,3.672-6.121a54.6,54.6,0,0,1-9.247,51.981l3.259,2.644a58.76,58.76,0,0,0,10.055-55.68l6.167,3.7,2.159-3.6-12.29-7.376Z" transform="translate(-301.329 -109.931)" fill="#47286d"/>
  </g>
</svg>
