<svg xmlns="http://www.w3.org/2000/svg" width="360.327" height="97.467" viewBox="0 0 360.327 97.467">
  <g id="Grupo_62681" data-name="Grupo 62681" transform="translate(7.142 -4.167)">
    <path id="Trazado_110620" data-name="Trazado 110620" d="M328.449,75.393H42.094L66.83,29.355H353.185Z" fill="#fff"/>
    <path id="Trazado_110621" data-name="Trazado 110621" d="M46.255,77.846H29.2L68.792,4.167H85.843Z" fill="#bb83ff"/>
    <path id="Trazado_110622" data-name="Trazado 110622" d="M24.458,99.037H7.407L46.994,25.359H64.046Z" fill="#bb83ff" opacity="0.5"/>
    <path id="Trazado_110623" data-name="Trazado 110623" d="M50.825,101.634H40.138L64.949,55.458H75.635Z" fill="#bb83ff" opacity="0.2"/>
    <path id="Trazado_110624" data-name="Trazado 110624" d="M24.3,53.317H13.618L38.429,7.141H49.115Z" fill="#bb83ff" opacity="0.5"/>
    <path id="Trazado_110625" data-name="Trazado 110625" d="M3.545,79.674H-7.141L17.669,33.5H28.356Z" fill="#bb83ff" opacity="0.2"/>
    <path id="Trazado_110626" data-name="Trazado 110626" d="M14.684,11.113H9.563V25H5.449V11.113H.422V7.938H14.684ZM20.4,25H16.441V12.32H20.4Zm-4.2-15.949a1.763,1.763,0,0,1,.609-1.383A2.3,2.3,0,0,1,18.4,7.129a2.3,2.3,0,0,1,1.582.539,1.763,1.763,0,0,1,.609,1.383,1.763,1.763,0,0,1-.609,1.383,2.3,2.3,0,0,1-1.582.539,2.3,2.3,0,0,1-1.582-.539A1.763,1.763,0,0,1,16.207,9.051Zm11.227.117V12.32H29.52v2.742H27.434v5.8a1.481,1.481,0,0,0,.258,1,1.383,1.383,0,0,0,1.02.281,5.793,5.793,0,0,0,.984-.07v2.824a7.288,7.288,0,0,1-2.227.34,4.137,4.137,0,0,1-3.012-.961,3.939,3.939,0,0,1-.973-2.918V15.063H21.867V12.32h1.617V9.168ZM38.625,23.629a4.072,4.072,0,0,1-3.387,1.605,3.993,3.993,0,0,1-3.158-1.213,5.1,5.1,0,0,1-1.072-3.486V12.32h3.949v8.238a1.419,1.419,0,0,0,1.582,1.629,2.064,2.064,0,0,0,1.934-.973V12.32h3.973V25h-3.7ZM48.773,25H44.813V7h3.961Zm9.574,0a4.459,4.459,0,0,1-.375-1.137,3.672,3.672,0,0,1-3.047,1.371,4.5,4.5,0,0,1-3.047-1.084,3.45,3.45,0,0,1-1.254-2.725,3.546,3.546,0,0,1,1.523-3.117,7.761,7.761,0,0,1,4.43-1.055H57.8v-.671q0-1.755-1.512-1.755a1.236,1.236,0,0,0-1.406,1.39H50.93a3.54,3.54,0,0,1,1.564-2.985,6.575,6.575,0,0,1,3.99-1.147,5.764,5.764,0,0,1,3.832,1.184,4.115,4.115,0,0,1,1.441,3.246v5.613A5.748,5.748,0,0,0,62.3,24.8V25Zm-2.473-2.578a2.2,2.2,0,0,0,1.225-.316,1.983,1.983,0,0,0,.7-.715V19.363H56.648q-2.062,0-2.062,1.852a1.131,1.131,0,0,0,.363.873A1.315,1.315,0,0,0,55.875,22.422Zm15.738-6.527-1.3-.094a2.336,2.336,0,0,0-2.391,1.172V25H63.973V12.32h3.7l.129,1.629a3.058,3.058,0,0,1,2.777-1.863,3.851,3.851,0,0,1,1.1.141Z" transform="translate(123.858 35.167)" fill="#47286d"/>
  </g>
</svg>
