<svg xmlns="http://www.w3.org/2000/svg" width="260.765" height="292.726" viewBox="0 0 260.765 292.726">
  <g id="Grupo_62653" data-name="Grupo 62653" transform="translate(-69.249 -55.479)">
    <g id="Grupo_62641" data-name="Grupo 62641" transform="translate(69.249 55.479)">
      <path id="Trazado_110110" data-name="Trazado 110110" d="M316.206,330.831c2.138-40.163,4.547-80.332,6.86-120.485,2.372-38.465,4.324-76.948,6.6-115.4a98.269,98.269,0,0,0,.285-10.8c-.187-3.286-.747-3.928-4.132-3.926-2.7.012-5.385-.015-8.1-.1q-45.461-1.315-90.926-2.7Q170.38,75.668,113.97,73.89q-17.57-.549-35.118-.8c-8.511-.134-9.252.46-9.431,9.046-.258,11.792-.157,23.582-.131,35.394.05,14.693.187,29.39.283,44.074.084,10.114.125,20.218.241,30.3.158,12.9.451,25.8.568,38.683.084,11.407-.006,22.8,0,34.187-.008,16.612-.03,33.2.027,49.808.047,6.985.29,13.986.425,20.977.049,2.219,1.236,3.277,3.417,3.283,7.958.052,15.935.111,23.883.116,2.532.024,5.069.029,7.607.034,15.212,0,30.414-.116,45.624-.183q15.72-.057,31.49-.14c14.4-.1,28.784-.241,43.191-.311q6.493-.034,12.984,0c7.06,0,14.135.023,21.222.008,15.979-.032,31.981-.212,47.983-.035C312.833,338.363,315.891,336.9,316.206,330.831Z" transform="translate(-69.249 -46.258)" fill="#bb83ff" opacity="0.5"/>
      <path id="Trazado_110111" data-name="Trazado 110111" d="M196.371,114.063l-2.228-1.721a1.883,1.883,0,0,0-1.972-.2l-5.132,2.492a1.879,1.879,0,0,1-1.974-.206l-4.513-3.495a1.88,1.88,0,0,0-1.978-.2l-5.133,2.506a1.884,1.884,0,0,1-1.978-.2l-4.51-3.493a1.88,1.88,0,0,0-1.978-.2l-5.13,2.5a1.88,1.88,0,0,1-1.981-.207l-4.5-3.5a1.881,1.881,0,0,0-1.984-.2l-5.106,2.5a1.858,1.858,0,0,1-1.983-.2c-3.62-2.916-3.522-5.421-3.522-5.421,0-1.224-.021-2.455-.041-3.687q-.359-21.125-.683-42.281c0-.445-.009-.875-.015-1.318-.034-2.387.786-2.137,1.291-1.873,1.524.794,5.7,3.835,5.7,3.835a1.884,1.884,0,0,0,1.991.069l4.932-2.846a1.878,1.878,0,0,1,1.989.067l4.749,3.189a1.881,1.881,0,0,0,1.989.069l4.934-2.847a1.878,1.878,0,0,1,1.989.07l4.731,3.181a1.885,1.885,0,0,0,1.987.07l4.953-2.846a1.885,1.885,0,0,1,1.988.07l4.731,3.182a1.884,1.884,0,0,0,1.989.069l4.207-2.423s1.52-1.172,1.538,1.6c0,.238.056.463.069.712q.786,25.466,2.629,50.833" transform="translate(-32.152 -55.479)" fill="#f9e478"/>
    </g>
    <g id="Grupo_62642" data-name="Grupo 62642" transform="translate(118.384 204.653)">
      <path id="Trazado_110112" data-name="Trazado 110112" d="M112.382,166.57v2.477h-7.988V153.808h2.8V166.57Z" transform="translate(-99.963 -153.114)" fill="#47286d"/>
      <path id="Trazado_110113" data-name="Trazado 110113" d="M120.151,162.075c0,4.2-2.568,5.827-4.911,5.827-2.832,0-4.871-2.1-4.871-5.688,0-3.7,2.134-5.805,4.985-5.805C118.3,156.408,120.151,158.726,120.151,162.075Zm-4.853-3.506c-1.55,0-2.1,1.9-2.1,3.586,0,1.96.718,3.586,2.077,3.586,1.323,0,2.039-1.645,2.039-3.606C117.318,160.412,116.732,158.569,115.3,158.569Z" transform="translate(-96.832 -151.752)" fill="#47286d"/>
      <path id="Trazado_110114" data-name="Trazado 110114" d="M120.654,158.569a2.937,2.937,0,0,1,2.606-2.161,2.783,2.783,0,0,1,.622.059v2.794a3.77,3.77,0,0,0-.716-.058c-1.265,0-2.228.892-2.228,2.774v5.706h-2.8v-7.589c0-1.369-.038-2.458-.076-3.449h2.4l.113,1.923Z" transform="translate(-92.797 -151.752)" fill="#47286d"/>
      <path id="Trazado_110115" data-name="Trazado 110115" d="M125.192,163.047a2.586,2.586,0,0,0,2.87,2.635,7.334,7.334,0,0,0,2.568-.456l.4,2.021a8.531,8.531,0,0,1-3.4.634c-3.248,0-5.1-2.14-5.1-5.568,0-3.17,1.736-5.906,4.815-5.906,2.55,0,4.211,1.9,4.211,5.47a7.136,7.136,0,0,1-.075,1.169ZM128.969,161c.018-1.149-.416-2.554-1.794-2.554-1.341,0-1.908,1.465-1.983,2.554Z" transform="translate(-90.458 -151.752)" fill="#47286d"/>
      <path id="Trazado_110116" data-name="Trazado 110116" d="M137.953,158.264a3.552,3.552,0,0,1,3.115-1.843c1.832,0,3.248,1.367,3.248,4.559v6.7h-2.737v-6.243c0-1.585-.416-2.635-1.53-2.635-.774,0-1.643.634-1.643,2.181v6.7h-2.737v-6.52c0-1.308-.4-2.358-1.492-2.358-.774,0-1.681.754-1.681,2.24v6.638h-2.739v-7.708c0-1.289-.037-2.34-.075-3.309h2.379l.133,1.466h.056a3.411,3.411,0,0,1,2.984-1.706,2.746,2.746,0,0,1,2.681,1.843Z" transform="translate(-86.709 -151.745)" fill="#47286d"/>
      <path id="Trazado_110117" data-name="Trazado 110117" d="M145.007,156.692a1.566,1.566,0,1,1,1.51-1.565A1.475,1.475,0,0,1,145.007,156.692Zm1.416,1.446v11.038h-2.8V158.138Z" transform="translate(-79.458 -153.244)" fill="#47286d"/>
      <path id="Trazado_110118" data-name="Trazado 110118" d="M149.591,158.152h.037a3.479,3.479,0,0,1,3.117-1.744c2.3,0,4,2.26,4,5.648,0,4.062-2.192,5.845-4.326,5.845a2.871,2.871,0,0,1-2.492-1.288h-.038V172.1h-2.8V160.253c0-1.427-.038-2.6-.075-3.608h2.436Zm.3,5.072c0,1.606.925,2.378,1.87,2.378,1.416,0,2.152-1.465,2.152-3.446,0-1.962-.718-3.388-2.1-3.388a2.189,2.189,0,0,0-1.927,2.4Z" transform="translate(-77.619 -151.752)" fill="#47286d"/>
      <path id="Trazado_110119" data-name="Trazado 110119" d="M154.8,165.027a5.311,5.311,0,0,0,2.454.733c.982,0,1.454-.434,1.454-1.11s-.358-1.029-1.51-1.544c-1.963-.834-2.681-2-2.681-3.211a3.523,3.523,0,0,1,3.852-3.487,5.48,5.48,0,0,1,2.606.616l-.529,2.061a4.184,4.184,0,0,0-1.983-.575c-.849,0-1.3.454-1.3,1.05,0,.613.4.93,1.606,1.466,1.774.771,2.6,1.841,2.6,3.367,0,2.1-1.51,3.489-4.135,3.489a5.913,5.913,0,0,1-2.966-.733Z" transform="translate(-73.819 -151.752)" fill="#47286d"/>
      <path id="Trazado_110120" data-name="Trazado 110120" d="M169.075,156.564v7.669c0,1.308.056,2.437.095,3.368h-2.436l-.133-1.466h-.056a3.478,3.478,0,0,1-3.021,1.684c-2,0-3.362-1.367-3.362-4.678v-6.578h2.8v6.144c0,1.664.453,2.713,1.6,2.713a1.872,1.872,0,0,0,1.719-2.061v-6.8Z" transform="translate(-70.733 -151.67)" fill="#47286d"/>
      <path id="Trazado_110121" data-name="Trazado 110121" d="M175.9,158.264a3.552,3.552,0,0,1,3.115-1.843c1.832,0,3.248,1.367,3.248,4.559v6.7h-2.737v-6.243c0-1.585-.416-2.635-1.53-2.635-.774,0-1.643.634-1.643,2.181v6.7H173.61v-6.52c0-1.308-.4-2.358-1.491-2.358-.774,0-1.681.754-1.681,2.24v6.638H167.7v-7.708c0-1.289-.038-2.34-.075-3.309H170l.133,1.466h.056a3.411,3.411,0,0,1,2.984-1.706,2.747,2.747,0,0,1,2.681,1.843Z" transform="translate(-66.821 -151.745)" fill="#47286d"/>
      <path id="Trazado_110122" data-name="Trazado 110122" d="M190.774,153.353v12.781c0,1.11.038,2.337.075,3.15h-2.454l-.133-1.565h-.056a3.286,3.286,0,0,1-2.966,1.783c-2.379,0-4.079-2.3-4.079-5.647,0-3.766,1.983-5.827,4.249-5.827a2.756,2.756,0,0,1,2.53,1.289h.038v-5.966Zm-2.8,9.393c0-1.606-.925-2.4-1.852-2.4-1.434,0-2.152,1.547-2.152,3.467,0,2,.794,3.33,2.116,3.33.831,0,1.888-.634,1.888-2.379Z" transform="translate(-59.726 -153.353)" fill="#47286d"/>
      <path id="Trazado_110123" data-name="Trazado 110123" d="M198.517,162.075c0,4.2-2.568,5.827-4.909,5.827-2.833,0-4.873-2.1-4.873-5.688,0-3.7,2.134-5.805,4.985-5.805C196.667,156.408,198.517,158.726,198.517,162.075Zm-4.853-3.506c-1.549,0-2.1,1.9-2.1,3.586,0,1.96.718,3.586,2.079,3.586,1.321,0,2.038-1.645,2.038-3.606C195.684,160.412,195.1,158.569,193.664,158.569Z" transform="translate(-55.756 -151.752)" fill="#47286d"/>
      <path id="Trazado_110124" data-name="Trazado 110124" d="M199.277,153.353v15.932h-2.8V153.353Z" transform="translate(-51.696 -153.353)" fill="#47286d"/>
      <path id="Trazado_110125" data-name="Trazado 110125" d="M209.351,162.075c0,4.2-2.568,5.827-4.909,5.827-2.833,0-4.873-2.1-4.873-5.688,0-3.7,2.134-5.805,4.985-5.805C207.5,156.408,209.351,158.726,209.351,162.075Zm-4.853-3.506c-1.549,0-2.1,1.9-2.1,3.586,0,1.96.718,3.586,2.079,3.586,1.321,0,2.038-1.645,2.038-3.606C206.518,160.412,205.934,158.569,204.5,158.569Z" transform="translate(-50.078 -151.752)" fill="#47286d"/>
      <path id="Trazado_110126" data-name="Trazado 110126" d="M209.853,158.569a2.937,2.937,0,0,1,2.606-2.161,2.807,2.807,0,0,1,.623.059v2.794a3.8,3.8,0,0,0-.718-.058c-1.265,0-2.228.892-2.228,2.774v5.706h-2.8v-7.589c0-1.369-.038-2.458-.075-3.449h2.4l.114,1.923Z" transform="translate(-46.043 -151.752)" fill="#47286d"/>
      <path id="Trazado_110127" data-name="Trazado 110127" d="M114.666,180.385a5.312,5.312,0,0,0,2.455.733c.982,0,1.453-.434,1.453-1.11s-.358-1.029-1.51-1.544c-1.963-.834-2.681-2-2.681-3.211a3.524,3.524,0,0,1,3.853-3.487,5.5,5.5,0,0,1,2.606.614l-.53,2.061a4.2,4.2,0,0,0-1.981-.573c-.85,0-1.3.454-1.3,1.049,0,.614.4.931,1.6,1.466,1.774.773,2.6,1.843,2.6,3.368,0,2.1-1.51,3.487-4.135,3.487a5.9,5.9,0,0,1-2.964-.732Z" transform="translate(-94.857 -143.702)" fill="#47286d"/>
      <path id="Trazado_110128" data-name="Trazado 110128" d="M121.467,172.05a1.566,1.566,0,1,1,1.51-1.565A1.476,1.476,0,0,1,121.467,172.05Zm1.416,1.446v11.038h-2.8V173.5Z" transform="translate(-91.797 -145.194)" fill="#47286d"/>
      <path id="Trazado_110129" data-name="Trazado 110129" d="M124.3,172.91v-2.021l2.757-.852v2.873h2.323v2.16h-2.323v4.795c0,1.328.4,1.884,1.247,1.884a3.958,3.958,0,0,0,.907-.1l.037,2.239a5.387,5.387,0,0,1-1.869.256c-3.022,0-3.079-2.754-3.079-3.981V175.07h-1.378v-2.16Z" transform="translate(-90.25 -144.608)" fill="#47286d"/>
      <path id="Trazado_110130" data-name="Trazado 110130" d="M127.586,183.131a36.952,36.952,0,0,0,1.456-6.045l2.89-.236a31.2,31.2,0,0,1-2.493,6.083Z" transform="translate(-87.807 -141.037)" fill="#47286d"/>
      <path id="Trazado_110131" data-name="Trazado 110131" d="M141.234,174.434a3.547,3.547,0,0,0-1.643-.355c-1.756,0-2.775,1.485-2.775,3.428,0,2.16,1.19,3.406,2.8,3.406a3.84,3.84,0,0,0,1.7-.355l.3,2.2a6.243,6.243,0,0,1-2.55.476c-3.077,0-5.08-2.1-5.08-5.607,0-3.309,2.039-5.845,5.514-5.845a5.886,5.886,0,0,1,2.192.416Z" transform="translate(-84.455 -143.695)" fill="#47286d"/>
      <path id="Trazado_110132" data-name="Trazado 110132" d="M149.553,177.433c0,4.2-2.568,5.827-4.909,5.827-2.833,0-4.873-2.1-4.873-5.687,0-3.705,2.134-5.807,4.985-5.807C147.7,171.766,149.553,174.086,149.553,177.433Zm-4.853-3.507c-1.549,0-2.1,1.9-2.1,3.588,0,1.962.719,3.586,2.079,3.586,1.321,0,2.039-1.645,2.039-3.608C146.721,175.77,146.136,173.926,144.7,173.926Z" transform="translate(-81.421 -143.702)" fill="#47286d"/>
      <path id="Trazado_110133" data-name="Trazado 110133" d="M150.074,173.5a3.51,3.51,0,0,1,3.041-1.724c1.927,0,3.419,1.407,3.419,4.5v6.758h-2.8v-6.441c0-1.347-.415-2.416-1.6-2.416-.756,0-1.794.613-1.794,2.3v6.56h-2.8v-7.709c0-1.288-.038-2.338-.075-3.309h2.417l.131,1.486Z" transform="translate(-77.386 -143.695)" fill="#47286d"/>
      <path id="Trazado_110134" data-name="Trazado 110134" d="M155.162,180.385a5.323,5.323,0,0,0,2.455.733c.982,0,1.454-.434,1.454-1.11s-.358-1.029-1.51-1.544c-1.965-.834-2.682-2-2.682-3.211a3.524,3.524,0,0,1,3.853-3.487,5.5,5.5,0,0,1,2.606.614l-.529,2.061a4.2,4.2,0,0,0-1.983-.573c-.849,0-1.3.454-1.3,1.049,0,.614.4.931,1.606,1.466,1.774.773,2.6,1.843,2.6,3.368,0,2.1-1.51,3.487-4.135,3.487a5.913,5.913,0,0,1-2.966-.732Z" transform="translate(-73.631 -143.702)" fill="#47286d"/>
      <path id="Trazado_110135" data-name="Trazado 110135" d="M162.837,178.405a2.588,2.588,0,0,0,2.871,2.635,7.3,7.3,0,0,0,2.568-.457l.4,2.021a8.5,8.5,0,0,1-3.4.634c-3.248,0-5.1-2.138-5.1-5.566,0-3.17,1.738-5.906,4.815-5.906,2.55,0,4.213,1.9,4.213,5.469a7.128,7.128,0,0,1-.076,1.171Zm3.777-2.042c.02-1.149-.416-2.556-1.794-2.556-1.341,0-1.907,1.466-1.983,2.556Z" transform="translate(-70.726 -143.702)" fill="#47286d"/>
      <path id="Trazado_110136" data-name="Trazado 110136" d="M174.256,174.434a3.547,3.547,0,0,0-1.643-.355c-1.756,0-2.775,1.485-2.775,3.428,0,2.16,1.19,3.406,2.8,3.406a3.84,3.84,0,0,0,1.7-.355l.3,2.2a6.243,6.243,0,0,1-2.55.476c-3.077,0-5.08-2.1-5.08-5.607,0-3.309,2.039-5.845,5.514-5.845a5.886,5.886,0,0,1,2.192.416Z" transform="translate(-67.147 -143.695)" fill="#47286d"/>
      <path id="Trazado_110137" data-name="Trazado 110137" d="M173.961,172.91v-2.021l2.757-.852v2.873h2.323v2.16h-2.323v4.795c0,1.328.4,1.884,1.247,1.884a3.948,3.948,0,0,0,.907-.1l.037,2.239a5.381,5.381,0,0,1-1.869.256c-3.022,0-3.079-2.754-3.079-3.981V175.07h-1.378v-2.16Z" transform="translate(-64.222 -144.608)" fill="#47286d"/>
      <path id="Trazado_110138" data-name="Trazado 110138" d="M180.254,178.405a2.587,2.587,0,0,0,2.87,2.635,7.3,7.3,0,0,0,2.568-.457l.4,2.021a8.518,8.518,0,0,1-3.4.634c-3.248,0-5.1-2.138-5.1-5.566,0-3.17,1.736-5.906,4.815-5.906,2.55,0,4.211,1.9,4.211,5.469a7.143,7.143,0,0,1-.075,1.171Zm3.777-2.042c.018-1.149-.416-2.556-1.794-2.556-1.341,0-1.908,1.466-1.983,2.556Z" transform="translate(-61.597 -143.702)" fill="#47286d"/>
      <path id="Trazado_110139" data-name="Trazado 110139" d="M185.564,172.91v-2.021l2.757-.852v2.873h2.323v2.16h-2.323v4.795c0,1.328.4,1.884,1.247,1.884a3.968,3.968,0,0,0,.907-.1l.037,2.239a5.4,5.4,0,0,1-1.87.256c-3.021,0-3.077-2.754-3.077-3.981V175.07h-1.378v-2.16Z" transform="translate(-58.141 -144.608)" fill="#47286d"/>
      <path id="Trazado_110140" data-name="Trazado 110140" d="M198.453,171.922v7.669c0,1.308.056,2.437.095,3.368h-2.436l-.133-1.466h-.056a3.481,3.481,0,0,1-3.021,1.684c-2,0-3.362-1.367-3.362-4.678v-6.578h2.8v6.144c0,1.663.453,2.713,1.6,2.713a1.872,1.872,0,0,0,1.719-2.061v-6.8Z" transform="translate(-55.334 -143.62)" fill="#47286d"/>
      <path id="Trazado_110141" data-name="Trazado 110141" d="M199.589,173.926a2.941,2.941,0,0,1,2.606-2.16,2.8,2.8,0,0,1,.623.059v2.794a3.764,3.764,0,0,0-.718-.059c-1.265,0-2.228.893-2.228,2.774v5.708h-2.8v-7.589c0-1.367-.038-2.458-.075-3.449h2.4l.114,1.922Z" transform="translate(-51.423 -143.702)" fill="#47286d"/>
      <path id="Trazado_110142" data-name="Trazado 110142" d="M102.978,187.408a1.566,1.566,0,1,1,1.512-1.565A1.474,1.474,0,0,1,102.978,187.408Zm1.417,1.446V199.89h-2.8V188.854Z" transform="translate(-101.487 -137.144)" fill="#47286d"/>
      <path id="Trazado_110143" data-name="Trazado 110143" d="M107.6,188.861a3.51,3.51,0,0,1,3.041-1.724c1.925,0,3.417,1.407,3.417,4.5v6.757h-2.8v-6.439c0-1.347-.415-2.417-1.6-2.417-.754,0-1.794.614-1.794,2.3v6.558h-2.8v-7.708c0-1.288-.037-2.338-.075-3.31h2.417l.131,1.488Z" transform="translate(-99.648 -135.645)" fill="#47286d"/>
      <path id="Trazado_110144" data-name="Trazado 110144" d="M119.461,189.792a3.544,3.544,0,0,0-1.643-.357c-1.756,0-2.775,1.486-2.775,3.428,0,2.16,1.19,3.408,2.8,3.408a3.839,3.839,0,0,0,1.7-.357l.3,2.2a6.269,6.269,0,0,1-2.55.476c-3.077,0-5.08-2.1-5.08-5.607,0-3.309,2.039-5.845,5.514-5.845a5.886,5.886,0,0,1,2.192.416Z" transform="translate(-95.867 -135.645)" fill="#47286d"/>
      <path id="Trazado_110145" data-name="Trazado 110145" d="M119.812,187.408a1.566,1.566,0,1,1,1.512-1.565A1.474,1.474,0,0,1,119.812,187.408Zm1.417,1.446V199.89h-2.8V188.854Z" transform="translate(-92.664 -137.144)" fill="#47286d"/>
      <path id="Trazado_110146" data-name="Trazado 110146" d="M131.118,184.069v12.78c0,1.11.038,2.338.076,3.15h-2.455l-.131-1.565h-.058a3.283,3.283,0,0,1-2.964,1.783c-2.379,0-4.079-2.3-4.079-5.647,0-3.765,1.983-5.825,4.248-5.825a2.759,2.759,0,0,1,2.532,1.288h.037v-5.964Zm-2.8,9.392c0-1.6-.924-2.4-1.85-2.4-1.434,0-2.152,1.545-2.152,3.467,0,2,.794,3.329,2.116,3.329.831,0,1.887-.634,1.887-2.378Z" transform="translate(-90.994 -137.253)" fill="#47286d"/>
      <path id="Trazado_110147" data-name="Trazado 110147" d="M130.894,187.408a1.566,1.566,0,1,1,1.512-1.565A1.474,1.474,0,0,1,130.894,187.408Zm1.417,1.446V199.89h-2.8V188.854Z" transform="translate(-86.855 -137.144)" fill="#47286d"/>
      <path id="Trazado_110148" data-name="Trazado 110148" d="M142.2,184.069v12.78c0,1.11.037,2.338.075,3.15h-2.455l-.131-1.565h-.058a3.283,3.283,0,0,1-2.964,1.783c-2.379,0-4.079-2.3-4.079-5.647,0-3.765,1.983-5.825,4.248-5.825a2.759,2.759,0,0,1,2.532,1.288h.038v-5.964Zm-2.8,9.392c0-1.6-.925-2.4-1.852-2.4-1.434,0-2.152,1.545-2.152,3.467,0,2,.794,3.329,2.116,3.329.831,0,1.888-.634,1.888-2.378Z" transform="translate(-85.185 -137.253)" fill="#47286d"/>
      <path id="Trazado_110149" data-name="Trazado 110149" d="M149.447,187.28v7.668c0,1.308.056,2.437.094,3.368h-2.436l-.133-1.466h-.056a3.478,3.478,0,0,1-3.021,1.684c-2,0-3.362-1.367-3.362-4.676V187.28h2.8v6.142c0,1.664.454,2.715,1.6,2.715a1.873,1.873,0,0,0,1.719-2.061v-6.8Z" transform="translate(-81.021 -135.57)" fill="#47286d"/>
      <path id="Trazado_110150" data-name="Trazado 110150" d="M150.6,188.861a3.51,3.51,0,0,1,3.041-1.724c1.925,0,3.417,1.407,3.417,4.5v6.757h-2.8v-6.439c0-1.347-.415-2.417-1.6-2.417-.754,0-1.794.614-1.794,2.3v6.558h-2.8v-7.708c0-1.288-.038-2.338-.075-3.31h2.417l.131,1.488Z" transform="translate(-77.109 -135.645)" fill="#47286d"/>
      <path id="Trazado_110151" data-name="Trazado 110151" d="M156.354,188.268v-2.021l2.757-.852v2.873h2.323v2.16h-2.323v4.795c0,1.328.4,1.882,1.247,1.882a3.873,3.873,0,0,0,.907-.1l.037,2.239a5.374,5.374,0,0,1-1.869.258c-3.022,0-3.079-2.754-3.079-3.983v-5.092h-1.378v-2.16Z" transform="translate(-73.451 -136.558)" fill="#47286d"/>
      <path id="Trazado_110152" data-name="Trazado 110152" d="M171.921,187.28v7.668c0,1.308.056,2.437.095,3.368H169.58l-.133-1.466h-.056a3.479,3.479,0,0,1-3.022,1.684c-2,0-3.361-1.367-3.361-4.676V187.28h2.8v6.142c0,1.664.453,2.715,1.6,2.715a1.872,1.872,0,0,0,1.718-2.061v-6.8Z" transform="translate(-69.241 -135.57)" fill="#47286d"/>
      <path id="Trazado_110153" data-name="Trazado 110153" d="M171.291,188.268v-2.021l2.757-.852v2.873h2.323v2.16h-2.323v4.795c0,1.328.4,1.882,1.247,1.882a3.863,3.863,0,0,0,.907-.1l.037,2.239a5.374,5.374,0,0,1-1.869.258c-3.022,0-3.079-2.754-3.079-3.983v-5.092h-1.378v-2.16Z" transform="translate(-65.622 -136.558)" fill="#47286d"/>
      <path id="Trazado_110154" data-name="Trazado 110154" d="M180.765,184.069V200h-2.8v-15.93Z" transform="translate(-61.399 -137.253)" fill="#47286d"/>
      <path id="Trazado_110155" data-name="Trazado 110155" d="M181.743,188.068a7.14,7.14,0,0,1,3.646-.931c3.266,0,4.153,2.18,4.153,4.6v4.042a17.319,17.319,0,0,0,.152,2.615h-2.512l-.171-1.149h-.056a3.318,3.318,0,0,1-2.8,1.367,3.134,3.134,0,0,1-3.153-3.309c0-2.833,2.4-4.161,5.741-4.161,0-1.09-.358-1.922-1.888-1.922a4.95,4.95,0,0,0-2.588.753Zm5.08,4.953c-1.51,0-3.077.376-3.077,1.981a1.316,1.316,0,0,0,1.321,1.506,1.791,1.791,0,0,0,1.756-1.9Z" transform="translate(-59.807 -135.645)" fill="#47286d"/>
      <path id="Trazado_110156" data-name="Trazado 110156" d="M191.067,190.291h.037a3.276,3.276,0,0,1,2.928-1.565c2.323,0,3.871,2.259,3.871,5.548,0,4-2.134,5.944-4.306,5.944a3.014,3.014,0,0,1-2.832-1.744h-.058L190.576,200H188.2c.037-.793.075-2.041.075-3.17v-12.76h2.8Zm0,5.31a2.07,2.07,0,0,0,1.888,2.279c1.36,0,2.134-1.328,2.134-3.467,0-1.882-.7-3.349-2.134-3.349a2.158,2.158,0,0,0-1.888,2.378Z" transform="translate(-56.038 -137.253)" fill="#47286d"/>
      <path id="Trazado_110157" data-name="Trazado 110157" d="M205.255,192.791c0,4.2-2.568,5.825-4.909,5.825-2.832,0-4.873-2.1-4.873-5.687,0-3.705,2.135-5.805,4.985-5.805C203.4,187.124,205.255,189.442,205.255,192.791Zm-4.853-3.507c-1.549,0-2.1,1.9-2.1,3.586,0,1.962.718,3.586,2.077,3.586,1.321,0,2.039-1.645,2.039-3.606C202.423,191.126,201.838,189.284,200.4,189.284Z" transform="translate(-52.225 -135.652)" fill="#47286d"/>
      <path id="Trazado_110158" data-name="Trazado 110158" d="M205.757,189.284a2.939,2.939,0,0,1,2.606-2.16,2.8,2.8,0,0,1,.623.059v2.794a3.767,3.767,0,0,0-.718-.059c-1.265,0-2.228.892-2.228,2.774V198.4h-2.8v-7.589c0-1.367-.038-2.457-.075-3.448h2.4l.114,1.922Z" transform="translate(-48.19 -135.652)" fill="#47286d"/>
      <path id="Trazado_110159" data-name="Trazado 110159" d="M210.3,193.762a2.587,2.587,0,0,0,2.871,2.635,7.34,7.34,0,0,0,2.568-.456l.4,2.021a8.537,8.537,0,0,1-3.4.634c-3.248,0-5.1-2.14-5.1-5.568,0-3.17,1.738-5.9,4.815-5.9,2.55,0,4.213,1.9,4.213,5.469a7.12,7.12,0,0,1-.076,1.169Zm3.777-2.041c.02-1.149-.416-2.556-1.794-2.556-1.341,0-1.907,1.466-1.983,2.556Z" transform="translate(-45.851 -135.652)" fill="#47286d"/>
      <path id="Trazado_110160" data-name="Trazado 110160" d="M113.4,209.12a2.587,2.587,0,0,0,2.871,2.635,7.347,7.347,0,0,0,2.568-.456l.4,2.021a8.539,8.539,0,0,1-3.4.634c-3.246,0-5.1-2.14-5.1-5.568,0-3.17,1.738-5.906,4.816-5.906,2.548,0,4.211,1.9,4.211,5.47a7.12,7.12,0,0,1-.076,1.169Zm3.777-2.041c.02-1.149-.415-2.556-1.794-2.556-1.34,0-1.907,1.466-1.983,2.556Z" transform="translate(-96.637 -127.603)" fill="#47286d"/>
      <path id="Trazado_110161" data-name="Trazado 110161" d="M118.713,203.627v-2.021l2.757-.854v2.875h2.323v2.16H121.47v4.795c0,1.328.4,1.882,1.247,1.882a3.872,3.872,0,0,0,.907-.1l.037,2.239a5.373,5.373,0,0,1-1.869.258c-3.022,0-3.079-2.754-3.079-3.983v-5.092h-1.378v-2.16Z" transform="translate(-93.18 -128.509)" fill="#47286d"/>
      <path id="Trazado_110162" data-name="Trazado 110162" d="M134.633,199.426v12.781c0,1.11.037,2.338.075,3.15h-2.455l-.131-1.565h-.056a3.286,3.286,0,0,1-2.966,1.783c-2.379,0-4.079-2.3-4.079-5.647,0-3.765,1.983-5.825,4.249-5.825a2.758,2.758,0,0,1,2.53,1.288h.038v-5.966Zm-2.8,9.393c0-1.6-.925-2.4-1.85-2.4-1.436,0-2.154,1.545-2.154,3.467,0,2,.793,3.329,2.116,3.329.831,0,1.888-.634,1.888-2.378Z" transform="translate(-89.152 -129.204)" fill="#47286d"/>
      <path id="Trazado_110163" data-name="Trazado 110163" d="M142.376,208.149c0,4.2-2.568,5.825-4.909,5.825-2.833,0-4.873-2.1-4.873-5.687,0-3.705,2.134-5.807,4.985-5.807C140.526,202.481,142.376,204.8,142.376,208.149Zm-4.853-3.507c-1.549,0-2.1,1.9-2.1,3.586,0,1.962.718,3.586,2.077,3.586,1.323,0,2.039-1.645,2.039-3.606C139.543,206.485,138.957,204.642,137.523,204.642Z" transform="translate(-85.182 -127.603)" fill="#47286d"/>
      <path id="Trazado_110164" data-name="Trazado 110164" d="M143.136,199.426v15.932h-2.8V199.426Z" transform="translate(-81.122 -129.204)" fill="#47286d"/>
      <path id="Trazado_110165" data-name="Trazado 110165" d="M153.21,208.149c0,4.2-2.568,5.825-4.909,5.825-2.833,0-4.873-2.1-4.873-5.687,0-3.705,2.134-5.807,4.986-5.807C151.36,202.481,153.21,204.8,153.21,208.149Zm-4.853-3.507c-1.549,0-2.1,1.9-2.1,3.586,0,1.962.718,3.586,2.077,3.586,1.323,0,2.039-1.645,2.039-3.606C150.377,206.485,149.791,204.642,148.357,204.642Z" transform="translate(-79.504 -127.603)" fill="#47286d"/>
      <path id="Trazado_110166" data-name="Trazado 110166" d="M153.713,204.642a2.937,2.937,0,0,1,2.606-2.161,2.773,2.773,0,0,1,.622.061v2.794a3.749,3.749,0,0,0-.716-.059c-1.265,0-2.228.892-2.228,2.774v5.706h-2.8v-7.589c0-1.369-.038-2.457-.076-3.448h2.4l.113,1.922Z" transform="translate(-75.469 -127.603)" fill="#47286d"/>
      <path id="Trazado_110167" data-name="Trazado 110167" d="M158.251,209.12a2.586,2.586,0,0,0,2.87,2.635,7.34,7.34,0,0,0,2.568-.456l.4,2.021a8.545,8.545,0,0,1-3.4.634c-3.248,0-5.1-2.14-5.1-5.568,0-3.17,1.738-5.906,4.816-5.906,2.548,0,4.21,1.9,4.21,5.47a7.135,7.135,0,0,1-.075,1.169Zm3.777-2.041c.018-1.149-.415-2.556-1.794-2.556-1.341,0-1.908,1.466-1.983,2.556Z" transform="translate(-73.13 -127.603)" fill="#47286d"/>
      <path id="Trazado_110168" data-name="Trazado 110168" d="M173.689,204.338a3.551,3.551,0,0,1,3.117-1.843c1.831,0,3.248,1.367,3.248,4.557v6.7h-2.739v-6.241c0-1.585-.415-2.635-1.53-2.635-.774,0-1.642.634-1.642,2.18v6.7H171.4v-6.519c0-1.308-.4-2.358-1.492-2.358-.774,0-1.681.753-1.681,2.239v6.638h-2.737v-7.708c0-1.288-.038-2.338-.076-3.309H167.8l.131,1.466h.058a3.407,3.407,0,0,1,2.983-1.7,2.744,2.744,0,0,1,2.681,1.843Z" transform="translate(-67.978 -127.595)" fill="#47286d"/>
      <path id="Trazado_110169" data-name="Trazado 110169" d="M176.938,203.425a7.157,7.157,0,0,1,3.646-.93c3.266,0,4.153,2.18,4.153,4.6v4.042a17.538,17.538,0,0,0,.151,2.615h-2.512l-.169-1.149h-.056a3.318,3.318,0,0,1-2.8,1.367,3.134,3.134,0,0,1-3.153-3.309c0-2.833,2.4-4.161,5.741-4.161,0-1.09-.36-1.922-1.89-1.922a4.949,4.949,0,0,0-2.586.753Zm5.08,4.955c-1.51,0-3.077.376-3.077,1.981a1.316,1.316,0,0,0,1.321,1.506,1.791,1.791,0,0,0,1.756-1.9Z" transform="translate(-62.325 -127.595)" fill="#47286d"/>
      <path id="Trazado_110170" data-name="Trazado 110170" d="M190.208,202.733h2.436c-.056.791-.094,1.763-.094,3.289v6.222c0,2.16-.189,6.162-5.306,6.162a6.864,6.864,0,0,1-3.324-.753l.547-2.239a5.648,5.648,0,0,0,2.721.713c1.567,0,2.6-.931,2.6-3.051v-.812h-.037a2.982,2.982,0,0,1-2.626,1.407c-2.492,0-4.06-2.358-4.06-5.37,0-3.646,2.021-5.805,4.344-5.805a2.858,2.858,0,0,1,2.644,1.546h.037Zm-.453,4.278c0-1.405-.814-2.219-1.757-2.219-1.265,0-2.114,1.349-2.114,3.429,0,1.922.773,3.23,2.1,3.23.642,0,1.776-.436,1.776-2.3Z" transform="translate(-58.726 -127.595)" fill="#47286d"/>
      <path id="Trazado_110171" data-name="Trazado 110171" d="M193.509,204.217a3.512,3.512,0,0,1,3.041-1.722c1.927,0,3.419,1.405,3.419,4.5v6.757h-2.8V207.31c0-1.347-.416-2.417-1.606-2.417-.754,0-1.792.614-1.792,2.3v6.558h-2.8v-7.708c0-1.288-.038-2.338-.076-3.309h2.417l.133,1.485Z" transform="translate(-54.62 -127.595)" fill="#47286d"/>
      <path id="Trazado_110172" data-name="Trazado 110172" d="M198.779,203.425a7.157,7.157,0,0,1,3.646-.93c3.266,0,4.155,2.18,4.155,4.6v4.042a17.335,17.335,0,0,0,.151,2.615h-2.512l-.171-1.149h-.056a3.318,3.318,0,0,1-2.8,1.367,3.134,3.134,0,0,1-3.153-3.309c0-2.833,2.4-4.161,5.741-4.161,0-1.09-.358-1.922-1.888-1.922a4.94,4.94,0,0,0-2.586.753Zm5.08,4.955c-1.51,0-3.077.376-3.077,1.981a1.316,1.316,0,0,0,1.321,1.506,1.79,1.79,0,0,0,1.756-1.9Z" transform="translate(-50.878 -127.595)" fill="#47286d"/>
      <path id="Trazado_110173" data-name="Trazado 110173" d="M139,218.783a7.157,7.157,0,0,1,3.646-.93c3.266,0,4.153,2.18,4.153,4.6v4.042a17.538,17.538,0,0,0,.151,2.615h-2.51l-.171-1.149h-.056a3.318,3.318,0,0,1-2.8,1.367,3.135,3.135,0,0,1-3.153-3.31c0-2.832,2.4-4.159,5.741-4.159,0-1.09-.358-1.922-1.888-1.922a4.963,4.963,0,0,0-2.588.751Zm5.08,4.955c-1.51,0-3.077.375-3.077,1.981a1.316,1.316,0,0,0,1.321,1.506,1.791,1.791,0,0,0,1.756-1.9Z" transform="translate(-82.213 -119.546)" fill="#47286d"/>
      <path id="Trazado_110174" data-name="Trazado 110174" d="M148.293,214.785v15.93h-2.8v-15.93Z" transform="translate(-78.419 -121.154)" fill="#47286d"/>
      <path id="Trazado_110175" data-name="Trazado 110175" d="M150.4,218.122a1.566,1.566,0,1,1,1.51-1.564A1.475,1.475,0,0,1,150.4,218.122Zm1.416,1.448v11.036h-2.8V219.57Z" transform="translate(-76.632 -121.045)" fill="#47286d"/>
      <path id="Trazado_110176" data-name="Trazado 110176" d="M159.176,218.078h2.6c-.038.991-.075,2.08-.075,3.309v12.146h-2.8v-5.726h-.056a3.1,3.1,0,0,1-2.8,1.526c-2.19,0-3.966-2.2-3.966-5.568,0-3.923,2.134-5.926,4.269-5.926a2.831,2.831,0,0,1,2.661,1.547h.058Zm-.265,4.4a2.078,2.078,0,0,0-1.85-2.279c-1.417,0-2.154,1.407-2.154,3.428,0,1.981.756,3.368,2.116,3.368a2.1,2.1,0,0,0,1.888-2.338Z" transform="translate(-74.962 -119.553)" fill="#47286d"/>
      <path id="Trazado_110177" data-name="Trazado 110177" d="M168.941,218v7.668c0,1.308.056,2.437.094,3.368H166.6l-.133-1.466h-.056a3.478,3.478,0,0,1-3.021,1.684c-2,0-3.362-1.367-3.362-4.676V218h2.8v6.142c0,1.664.454,2.715,1.606,2.715a1.873,1.873,0,0,0,1.718-2.061V218Z" transform="translate(-70.804 -119.471)" fill="#47286d"/>
      <path id="Trazado_110178" data-name="Trazado 110178" d="M167.829,218.783a7.146,7.146,0,0,1,3.644-.93c3.268,0,4.155,2.18,4.155,4.6v4.042a17.538,17.538,0,0,0,.151,2.615h-2.512l-.169-1.149h-.056a3.32,3.32,0,0,1-2.8,1.367,3.135,3.135,0,0,1-3.153-3.31c0-2.832,2.4-4.159,5.74-4.159,0-1.09-.358-1.922-1.888-1.922a4.958,4.958,0,0,0-2.586.751Zm5.08,4.955c-1.512,0-3.079.375-3.079,1.981a1.316,1.316,0,0,0,1.321,1.506,1.791,1.791,0,0,0,1.757-1.9Z" transform="translate(-67.1 -119.546)" fill="#47286d"/>
      <path id="Trazado_110179" data-name="Trazado 110179" d="M174.208,224.792a1.738,1.738,0,0,1,1.681-1.882,1.894,1.894,0,1,1-1.681,1.882Z" transform="translate(-63.371 -116.895)" fill="#47286d"/>
    </g>
    <g id="Grupo_62643" data-name="Grupo 62643" transform="translate(148.444 136.407)">
      <path id="Trazado_110180" data-name="Trazado 110180" d="M142.629,141.683a88.623,88.623,0,0,1-9.281-3.658,4.186,4.186,0,0,0-1.57-.476c-5.79-.219-10.57-5.085-10.57-14.341,0-8.413,4.361-14.633,11.512-14.633,7.327,0,11.024,6.549,11.024,14.121,0,6.8-2.442,11.266-5.827,12.841v.183c2.059.7,4.292,1.244,6.279,1.756ZM126.617,123.1c0,5.56,2.093,10.024,5.9,10.024s5.825-4.428,5.825-10.171c0-5.3-1.884-9.951-5.79-9.951C128.571,113,126.617,117.832,126.617,123.1Z" transform="translate(-121.209 -108.576)" fill="#47286d"/>
      <path id="Trazado_110181" data-name="Trazado 110181" d="M157.768,108.84v16.5c0,8.23-3.734,12.073-9.8,12.073-6.036,0-9.454-3.768-9.454-12.036V108.84h5.162v17.011c0,4.938,1.78,7.1,4.431,7.1,2.791,0,4.5-2.085,4.5-7.1V108.84Z" transform="translate(-112.141 -108.438)" fill="#47286d"/>
      <path id="Trazado_110182" data-name="Trazado 110182" d="M176.161,122.734c0,9.8-4.745,14.816-11.408,14.816-7.081,0-11.093-6.22-11.093-14.377,0-8.415,4.431-14.6,11.442-14.6C172.532,108.576,176.161,115.233,176.161,122.734Zm-17.093.329c0,5.523,2.058,10.061,5.86,10.061,3.836,0,5.825-4.5,5.825-10.171,0-5.158-1.849-9.951-5.79-9.951C160.915,113,159.068,117.905,159.068,123.063Z" transform="translate(-104.2 -108.576)" fill="#47286d"/>
      <path id="Trazado_110183" data-name="Trazado 110183" d="M187.973,108.864v4.684h-6.629V137h-5.162V113.548h-6.595v-4.684Z" transform="translate(-95.852 -108.425)" fill="#47286d"/>
      <path id="Trazado_110184" data-name="Trazado 110184" d="M198.64,132.461V137h-15V108.864h14.443V113.4H188.8v6.805h8.756v4.426H188.8v7.83Z" transform="translate(-88.487 -108.425)" fill="#47286d"/>
    </g>
    <g id="Grupo_62644" data-name="Grupo 62644" transform="translate(151.854 172.033)">
      <path id="Trazado_110185" data-name="Trazado 110185" d="M127.053,144.588a560.51,560.51,0,0,1,75.371-6.786q10.873-.245,21.748-.066c3.679.056,3.681-5.659,0-5.716a566.14,566.14,0,0,0-76.712,3.989q-10.99,1.326-21.926,3.067a2.877,2.877,0,0,0-2,3.515,2.931,2.931,0,0,0,3.516,2Z" transform="translate(-123.446 -131.951)" fill="#47286d"/>
    </g>
    <g id="Grupo_62648" data-name="Grupo 62648" transform="translate(279.468 299.213)">
      <g id="Grupo_62647" data-name="Grupo 62647" transform="translate(0)">
        <g id="Grupo_62646" data-name="Grupo 62646">
          <g id="Grupo_62645" data-name="Grupo 62645">
            <path id="Trazado_110186" data-name="Trazado 110186" d="M221.786,218.351l.087-.155a5.362,5.362,0,0,1,4.675-2.8h.035a4.992,4.992,0,0,1,1.707.354,5.9,5.9,0,0,1,1.789,1.061,5.813,5.813,0,0,1,1.375,1.721,5.114,5.114,0,0,1,.541,2.429,23.484,23.484,0,0,1-.209,3.135,15.12,15.12,0,0,1-.875,3.314A25.45,25.45,0,0,1,229,231.292a50.021,50.021,0,0,1-3.077,4.521,1.42,1.42,0,0,1-.651.486,5.932,5.932,0,0,1-1.934.383h0a1.32,1.32,0,0,1-1.222-1.771l.014-.041q.21-.574.625-1.457l1.3-2.673c.021-.043.041-.088.058-.133a20.2,20.2,0,0,0,.936-3.164,1.336,1.336,0,0,0-.858-1.536c-.154-.052-.314-.111-.479-.177q-.7-.286-1.6-.742a1.391,1.391,0,0,1-.642-.692c-.046-.107-.088-.213-.131-.319A6.655,6.655,0,0,1,221.786,218.351Zm-13.736,0,.087-.155a5.359,5.359,0,0,1,4.673-2.8h.034a4.993,4.993,0,0,1,1.709.354,5.859,5.859,0,0,1,1.789,1.061,5.785,5.785,0,0,1,1.373,1.721,5.078,5.078,0,0,1,.541,2.429,23.741,23.741,0,0,1-.206,3.135,15.216,15.216,0,0,1-.876,3.314,25.326,25.326,0,0,1-1.914,3.885,49.613,49.613,0,0,1-3.074,4.521,1.42,1.42,0,0,1-.651.486,5.933,5.933,0,0,1-1.936.383h0a1.32,1.32,0,0,1-1.221-1.776l.014-.037q.208-.574.625-1.457l1.3-2.673c.021-.043.04-.088.058-.133a20.184,20.184,0,0,0,.934-3.164,1.335,1.335,0,0,0-.857-1.535c-.154-.053-.314-.113-.479-.178q-.7-.286-1.6-.742a1.388,1.388,0,0,1-.645-.693c-.044-.107-.087-.212-.13-.317A6.656,6.656,0,0,1,208.05,218.348Z" transform="translate(-207.175 -215.394)" fill="#47286d"/>
          </g>
        </g>
      </g>
    </g>
    <g id="Grupo_62652" data-name="Grupo 62652" transform="translate(90.025 190.046)">
      <g id="Grupo_62651" data-name="Grupo 62651">
        <g id="Grupo_62650" data-name="Grupo 62650">
          <g id="Grupo_62649" data-name="Grupo 62649">
            <path id="Trazado_110187" data-name="Trazado 110187" d="M93.087,162.1l-.085.157a5.364,5.364,0,0,1-4.675,2.8h-.035a5.037,5.037,0,0,1-1.709-.354,5.889,5.889,0,0,1-1.788-1.061,5.785,5.785,0,0,1-1.375-1.721,5.121,5.121,0,0,1-.541-2.431,23.5,23.5,0,0,1,.209-3.135,15.184,15.184,0,0,1,.873-3.312,25.621,25.621,0,0,1,1.914-3.887,50.292,50.292,0,0,1,3.076-4.519,1.439,1.439,0,0,1,.651-.488,5.934,5.934,0,0,1,1.936-.381h0a1.32,1.32,0,0,1,1.222,1.771l-.014.04c-.142.384-.348.869-.625,1.459l-1.3,2.672c-.021.044-.041.088-.058.133a20.1,20.1,0,0,0-.936,3.166,1.335,1.335,0,0,0,.857,1.535c.155.052.314.111.48.178.468.191,1,.437,1.6.742a1.384,1.384,0,0,1,.643.69c.046.108.088.213.13.32A6.646,6.646,0,0,1,93.087,162.1Zm13.736,0-.085.155a5.361,5.361,0,0,1-4.673,2.8h-.035a5.015,5.015,0,0,1-1.707-.354,5.941,5.941,0,0,1-3.164-2.782,5.1,5.1,0,0,1-.541-2.431,23.5,23.5,0,0,1,.207-3.135,15.116,15.116,0,0,1,.876-3.312,25.336,25.336,0,0,1,1.914-3.887,49.555,49.555,0,0,1,3.073-4.519,1.439,1.439,0,0,1,.651-.488,5.942,5.942,0,0,1,1.937-.381h0a1.317,1.317,0,0,1,1.219,1.774l-.012.037c-.139.384-.348.869-.625,1.459l-1.3,2.672c-.021.044-.041.088-.058.133a20.115,20.115,0,0,0-.934,3.164,1.334,1.334,0,0,0,.857,1.536c.154.052.314.111.479.178q.7.286,1.6.742a1.391,1.391,0,0,1,.645.692c.044.107.087.213.128.319A6.653,6.653,0,0,1,106.823,162.1Z" transform="translate(-82.88 -143.769)" fill="#47286d"/>
          </g>
        </g>
      </g>
    </g>
  </g>
</svg>
