<svg xmlns="http://www.w3.org/2000/svg" width="322" height="395" viewBox="0 0 322 395">
  <g id="Grupo_68163" data-name="Grupo 68163" transform="translate(-633 -2340)">
    <g id="Rectángulo_6998" data-name="Rectángulo 6998" transform="translate(662 2340)" fill="none" stroke="#f17781" stroke-width="4">
      <rect width="293" height="395" rx="19" stroke="none"/>
      <rect x="2" y="2" width="289" height="391" rx="17" fill="none"/>
    </g>
    <circle id="Elipse_4866" data-name="Elipse 4866" cx="30.5" cy="30.5" r="30.5" transform="translate(633 2367)" fill="#f17781"/>
    <text id="Se_inclina_hacia_la_emoción_que_puede_generar_una_característica_de_un_producto_determinado._" data-name="Se inclina hacia la emoción que puede generar una característica de un producto determinado.
" transform="translate(688 2598.5)" fill="#12263f" font-size="16" font-family="Roboto-Regular, Roboto"><tspan x="0" y="17">Se inclina hacia la emoción que </tspan><tspan x="0" y="39">puede generar una característica </tspan><tspan x="0" y="61">de un producto determinado.</tspan><tspan x="0" y="83"></tspan></text>
    <text id="El_rasgo_distintivo_contingente" data-name="El rasgo distintivo contingente" transform="translate(688 2528.5)" fill="#12263f" font-size="20" font-family="Roboto-Black, Roboto" font-weight="800"><tspan x="35.574" y="21">El rasgo distintivo </tspan><tspan x="62.561" y="48">contingente</tspan></text>
    <text id="_2" data-name="2" transform="translate(654.909 2378.5)" fill="#12263f" font-size="24" font-family="Roboto-Black, Roboto" font-weight="800"><tspan x="0" y="25">2</tspan></text>
    <g id="emotions" transform="translate(713.796 2370.984)">
      <g id="Grupo_62775" data-name="Grupo 62775" transform="translate(48.358 2.033)">
        <g id="Grupo_62769" data-name="Grupo 62769" transform="translate(6.147 9.833)">
          <g id="Grupo_62768" data-name="Grupo 62768">
            <path id="Trazado_110812" data-name="Trazado 110812" d="M179.76,111.333,173.478,95.3a40.663,40.663,0,0,1-2.5-9.912,47.415,47.415,0,1,0-74.956,44.136,8.507,8.507,0,0,1,3.476,6.88v32.252h54.616v-25.03l13.814-1.253a5.911,5.911,0,0,0,5.318-6.718l-2.5-17.608,7.508-3.154A2.768,2.768,0,0,0,179.76,111.333Z" transform="translate(-76.506 -43.778)" fill="#8dcafc"/>
            <g id="Grupo_62767" data-name="Grupo 62767" transform="translate(0.427 0)">
              <path id="Trazado_110813" data-name="Trazado 110813" d="M333.888,412.156h-8.252a2.513,2.513,0,0,0-2.513,2.513v22.517h10.764Z" transform="translate(-256.705 -312.306)" fill="#64b9fc"/>
              <g id="Grupo_62766" data-name="Grupo 62766">
                <path id="Trazado_110814" data-name="Trazado 110814" d="M107.476,60.025A47.733,47.733,0,0,0,81.269,92.067a20.7,20.7,0,1,0,26.207-32.042Z" transform="translate(-80.405 -55.621)" fill="#64b9fc"/>
                <path id="Trazado_110815" data-name="Trazado 110815" d="M92.207,221.673a20.614,20.614,0,0,0-14.125,5.569A47.378,47.378,0,0,0,97.172,259.2a8.375,8.375,0,0,1,2.305,2.555,20.7,20.7,0,0,0-7.271-40.084Z" transform="translate(-78.082 -173.454)" fill="#64b9fc"/>
                <circle id="Elipse_4721" data-name="Elipse 4721" cx="20.7" cy="20.7" r="20.7" transform="translate(33.683 68.918) rotate(-45)" fill="#64b9fc"/>
                <path id="Trazado_110816" data-name="Trazado 110816" d="M293.046,111.334,286.764,95.3a41.3,41.3,0,0,1-2.51-10,47.409,47.409,0,0,0-52.339-41.228,47.834,47.834,0,0,1,10.713,2.457,20.7,20.7,0,1,0,23.921,33.6,4.475,4.475,0,0,1,7.258,2.62q.3,1.57.5,3.175a41.942,41.942,0,0,0,2.548,10.149l6.377,16.272a2.811,2.811,0,0,1-1.53,3.616l-5.834,2.45a2.513,2.513,0,0,0-1.515,2.67l2.268,15.956a5.992,5.992,0,0,1-2.895,6.01l7.488-.678a5.912,5.912,0,0,0,5.319-6.719l-2.5-17.609,7.508-3.153a2.768,2.768,0,0,0,1.505-3.561Z" transform="translate(-190.218 -43.778)" fill="#64b9fc"/>
              </g>
            </g>
          </g>
        </g>
        <g id="Grupo_62774" data-name="Grupo 62774">
          <g id="Grupo_62770" data-name="Grupo 62770">
            <circle id="Elipse_4722" data-name="Elipse 4722" cx="20.7" cy="20.7" r="20.7" fill="#fddd45"/>
            <path id="Trazado_110817" data-name="Trazado 110817" d="M137.378,28.2a20.71,20.71,0,0,1-25.725,20.083,20.7,20.7,0,0,0,0-40.167A20.71,20.71,0,0,1,137.378,28.2Z" transform="translate(-95.979 -7.501)" fill="#f8c52d"/>
          </g>
          <g id="Grupo_62771" data-name="Grupo 62771" transform="translate(48.844)">
            <circle id="Elipse_4723" data-name="Elipse 4723" cx="20.7" cy="20.7" r="20.7" fill="#f17781"/>
            <path id="Trazado_110818" data-name="Trazado 110818" d="M317.581,28.2a20.71,20.71,0,0,1-25.725,20.083,20.7,20.7,0,0,0,0-40.167A20.71,20.71,0,0,1,317.581,28.2Z" transform="translate(-276.182 -7.501)" fill="#d6646d"/>
          </g>
          <g id="Grupo_62772" data-name="Grupo 62772" transform="translate(0 48.361)">
            <circle id="Elipse_4724" data-name="Elipse 4724" cx="20.7" cy="20.7" r="20.7" transform="translate(0 0.001)" fill="#31d9e7"/>
            <path id="Trazado_110819" data-name="Trazado 110819" d="M137.378,206.62a20.71,20.71,0,0,1-25.725,20.086,20.706,20.706,0,0,0,0-40.169,20.71,20.71,0,0,1,25.725,20.083Z" transform="translate(-95.979 -185.92)" fill="#22bac7"/>
          </g>
          <g id="Grupo_62773" data-name="Grupo 62773" transform="translate(48.844 48.361)">
            <circle id="Elipse_4725" data-name="Elipse 4725" cx="20.7" cy="20.7" r="20.7" transform="translate(0 0.001)" fill="#bb83ff"/>
            <path id="Trazado_110820" data-name="Trazado 110820" d="M317.581,206.62a20.71,20.71,0,0,1-25.725,20.086,20.706,20.706,0,0,0,0-40.169,20.71,20.71,0,0,1,25.725,20.083Z" transform="translate(-276.182 -185.92)" fill="#995de1"/>
          </g>
        </g>
      </g>
      <g id="Grupo_62776" data-name="Grupo 62776" transform="translate(46.325 0)">
        <path id="Trazado_110821" data-name="Trazado 110821" d="M159.653,78.679l-6.282-16.031A38.655,38.655,0,0,1,151,53.231a49.16,49.16,0,0,0-10.942-25.423A22.719,22.719,0,0,0,99.139,9.918a49.11,49.11,0,0,0-10.278,1.673A22.724,22.724,0,1,0,55.9,41.25a48.93,48.93,0,0,0-3.267,14.144q-.686.716-1.312,1.492A22.726,22.726,0,0,0,66.4,93.668a49.848,49.848,0,0,0,6.425,5.589,6.49,6.49,0,0,1,2.641,5.238v32.251a2.033,2.033,0,1,0,4.066,0V104.494a10.568,10.568,0,0,0-4.312-8.523c-1.024-.746-2.017-1.54-2.978-2.371A22.73,22.73,0,0,0,74.383,49a2.033,2.033,0,0,0-.949,3.953,18.668,18.668,0,1,1-8.67-.019,2.033,2.033,0,0,0-.932-3.958,22.657,22.657,0,0,0-6.66,2.758,44.824,44.824,0,0,1,2.276-8.4A22.72,22.72,0,0,0,90.554,15.351a45.052,45.052,0,0,1,6.292-1.165,22.4,22.4,0,0,0-1.062,3.3,2.033,2.033,0,0,0,3.957.935,18.666,18.666,0,1,1,.012,8.67,2.033,2.033,0,1,0-3.954.947,22.728,22.728,0,0,0,42.677,4.348,45.068,45.068,0,0,1,8.486,21.334,42.73,42.73,0,0,0,2.624,10.408l6.282,16.031a.73.73,0,0,1-.4.946l-7.508,3.154a2.033,2.033,0,0,0-1.225,2.16l2.5,17.608a3.878,3.878,0,0,1-3.489,4.408l-13.814,1.253a2.033,2.033,0,0,0-1.849,2.024v25.03a2.033,2.033,0,0,0,4.066,0V113.573l11.965-1.086a7.944,7.944,0,0,0,7.147-9.029L150.98,87.4l6.062-2.547a4.772,4.772,0,0,0,2.611-6.178ZM69.058,41.4A18.667,18.667,0,1,1,87.725,22.733,18.688,18.688,0,0,1,69.058,41.4Z" transform="translate(-46.325 0)" fill="#47286d"/>
        <path id="Trazado_110822" data-name="Trazado 110822" d="M93.244,68.277h.011a2.033,2.033,0,0,0,.01-4.066h-.037a2.022,2.022,0,0,0-2.02,2.023A2.044,2.044,0,0,0,93.244,68.277Z" transform="translate(-79.042 -46.806)" fill="#47286d"/>
        <path id="Trazado_110823" data-name="Trazado 110823" d="M156.235,64.211H156.2a2.022,2.022,0,0,0-2.02,2.023,2.044,2.044,0,0,0,2.035,2.043h.011a2.033,2.033,0,0,0,.01-4.066Z" transform="translate(-124.945 -46.806)" fill="#47286d"/>
        <path id="Trazado_110824" data-name="Trazado 110824" d="M108.994,94.81a10.674,10.674,0,0,1-14.292,0,2.033,2.033,0,1,0-2.723,3.02,14.739,14.739,0,0,0,19.737,0,2.033,2.033,0,0,0-2.722-3.02Z" transform="translate(-79.115 -68.73)" fill="#47286d"/>
        <path id="Trazado_110825" data-name="Trazado 110825" d="M273.467,64.211h-.037a2.022,2.022,0,0,0-2.02,2.023,2.044,2.044,0,0,0,2.036,2.043h.011a2.033,2.033,0,0,0,.01-4.066Z" transform="translate(-210.401 -46.806)" fill="#47286d"/>
        <path id="Trazado_110826" data-name="Trazado 110826" d="M336.428,68.277a2.033,2.033,0,0,0,.01-4.066H336.4a2.022,2.022,0,0,0-2.02,2.023,2.044,2.044,0,0,0,2.035,2.043Z" transform="translate(-256.303 -46.806)" fill="#47286d"/>
        <path id="Trazado_110827" data-name="Trazado 110827" d="M272.182,98.078a2.033,2.033,0,0,0,2.722,3.02,10.674,10.674,0,0,1,14.293,0,2.033,2.033,0,1,0,2.723-3.02,14.74,14.74,0,0,0-19.738,0Z" transform="translate(-210.473 -68.73)" fill="#47286d"/>
        <path id="Trazado_110828" data-name="Trazado 110828" d="M97.546,246.821a2.033,2.033,0,0,0-.92-2.724l-2.531-1.253a2.033,2.033,0,0,0-1.8,3.644l2.531,1.253a2.031,2.031,0,0,0,2.724-.92Z" transform="translate(-79.007 -176.867)" fill="#47286d"/>
        <path id="Trazado_110829" data-name="Trazado 110829" d="M146.922,247.953a2.024,2.024,0,0,0,.9-.211l2.531-1.253a2.033,2.033,0,0,0-1.8-3.644l-2.531,1.253a2.033,2.033,0,0,0,.9,3.855Z" transform="translate(-118.172 -176.867)" fill="#47286d"/>
        <path id="Trazado_110830" data-name="Trazado 110830" d="M261.8,217.746a2.033,2.033,0,0,0-2.8-.669,18.674,18.674,0,1,1,6.14-6.122,2.033,2.033,0,0,0,3.458,2.138,22.725,22.725,0,1,0-7.472,7.449A2.033,2.033,0,0,0,261.8,217.746Z" transform="translate(-177.684 -130.061)" fill="#47286d"/>
        <path id="Trazado_110831" data-name="Trazado 110831" d="M273.443,242.635a2.036,2.036,0,0,0-2.054,2.012l-.026,2.505a2.033,2.033,0,0,0,2.012,2.054h.021a2.033,2.033,0,0,0,2.032-2.012l.026-2.505A2.033,2.033,0,0,0,273.443,242.635Z" transform="translate(-210.366 -176.868)" fill="#47286d"/>
        <path id="Trazado_110832" data-name="Trazado 110832" d="M336.393,249.205h.021a2.033,2.033,0,0,0,2.012-2.054l-.026-2.505a2.033,2.033,0,0,0-2.032-2.012h-.021a2.033,2.033,0,0,0-2.012,2.054l.026,2.505A2.033,2.033,0,0,0,336.393,249.205Z" transform="translate(-256.269 -176.868)" fill="#47286d"/>
        <path id="Trazado_110833" data-name="Trazado 110833" d="M103.49,280.774a2.033,2.033,0,0,0,2.033,2.033h9.26a2.033,2.033,0,1,0,0-4.066h-9.26A2.033,2.033,0,0,0,103.49,280.774Z" transform="translate(-87.995 -203.188)" fill="#47286d"/>
        <path id="Trazado_110834" data-name="Trazado 110834" d="M288.108,278.851h9.119a2.033,2.033,0,1,0,0-4.066h-9.119a2.033,2.033,0,1,0,0,4.066Z" transform="translate(-221.09 -200.304)" fill="#47286d"/>
      </g>
    </g>
  </g>
</svg>
