<svg xmlns="http://www.w3.org/2000/svg" width="322" height="428.5" viewBox="0 0 322 428.5">
  <g id="Grupo_68162" data-name="Grupo 68162" transform="translate(-284 -2340)">
    <g id="Rectángulo_6997" data-name="Rectángulo 6997" transform="translate(313 2340)" fill="none" stroke="#bb83ff" stroke-width="4">
      <rect width="293" height="395" rx="19" stroke="none"/>
      <rect x="2" y="2" width="289" height="391" rx="17" fill="none"/>
    </g>
    <circle id="Elipse_4865" data-name="Elipse 4865" cx="30.5" cy="30.5" r="30.5" transform="translate(284 2367)" fill="#bb83ff"/>
    <text id="Se_refiere_a_la_búsqueda_de_un_factor_diferenciador_que_genere_mayores_beneficios_a_partir_de_las_características_propias_de_determinado_producto._" data-name="Se refiere a la búsqueda de un factor diferenciador que genere mayores beneficios a partir de las características propias de determinado producto.
" transform="translate(339 2598.5)" fill="#12263f" font-size="16" font-family="Roboto-Regular, Roboto"><tspan x="0" y="17">Se refiere a la búsqueda de un </tspan><tspan x="0" y="39">factor diferenciador que genere </tspan><tspan x="0" y="61">mayores beneficios a partir de las </tspan><tspan x="0" y="83">características propias de </tspan><tspan x="0" y="105">determinado producto.</tspan><tspan x="0" y="127"></tspan></text>
    <text id="El_rasgo_distintivo_inherente" data-name="El rasgo distintivo inherente" transform="translate(339 2528.5)" fill="#12263f" font-size="20" font-family="Roboto-Black, Roboto" font-weight="800"><tspan x="37.074" y="21">El rasgo distintivo </tspan><tspan x="74.818" y="48">inherente</tspan></text>
    <text id="_1" data-name="1" transform="translate(307.955 2378.5)" fill="#12263f" font-size="24" font-family="Roboto-Black, Roboto" font-weight="800"><tspan x="0" y="25">1</tspan></text>
    <g id="seo_3_" data-name="seo (3)" transform="translate(405.258 2378.5)">
      <path id="Trazado_110790" data-name="Trazado 110790" d="M117.823,62.912A54.912,54.912,0,1,1,62.912,8,54.912,54.912,0,0,1,117.823,62.912Zm0,0" transform="translate(-6.169 -6.169)" fill="#bb83ff"/>
      <path id="Trazado_110791" data-name="Trazado 110791" d="M447.322,27.661a3.671,3.671,0,0,1-3.661,3.661A3.686,3.686,0,0,1,440,27.661a3.661,3.661,0,0,1,7.322,0Zm0,0" transform="translate(-339.329 -18.509)" fill="#f9d48a"/>
      <path id="Trazado_110792" data-name="Trazado 110792" d="M367.322,107.661a3.661,3.661,0,1,1-6.663-2.1,3.726,3.726,0,0,1,3-1.556,3.686,3.686,0,0,1,3.661,3.661Zm0,0" transform="translate(-277.632 -80.205)" fill="#f9d48a"/>
      <path id="Trazado_110793" data-name="Trazado 110793" d="M286.663,53.766a3.726,3.726,0,0,1-3,1.556,3.646,3.646,0,1,1,3-1.556Zm0,0" transform="translate(-215.936 -37.017)" fill="#f9d48a"/>
      <path id="Trazado_110794" data-name="Trazado 110794" d="M352.188,376.866a5.177,5.177,0,1,1-7.322,7.322l-21.507-21.507a28.4,28.4,0,0,0,7.322-7.322Zm0,0" transform="translate(-249.375 -274.053)" fill="#f5f7fa"/>
      <path id="Trazado_110795" data-name="Trazado 110795" d="M193.625,220.134h14.643a20.083,20.083,0,1,1-14.643-19.383Zm0,0" transform="translate(-129.562 -154.24)" fill="#f5f7fa"/>
      <path id="Trazado_110796" data-name="Trazado 110796" d="M408,160h7.322v29.286H408Zm0,0" transform="translate(-314.65 -123.392)" fill="#f17781"/>
      <path id="Trazado_110797" data-name="Trazado 110797" d="M344,208h7.322v18.3H344Zm0,0" transform="translate(-265.293 -160.41)" fill="#f17781"/>
      <path id="Trazado_110798" data-name="Trazado 110798" d="M287.322,160v29.286H280V160Zm0,0" transform="translate(-215.936 -123.392)" fill="#f17781"/>
      <path id="Trazado_110799" data-name="Trazado 110799" d="M178.867,218.189a27.479,27.479,0,0,1-15.412,4.723c-.622,0-1.226-.018-1.83-.073a27.429,27.429,0,0,1-25.388-23.758,26.255,26.255,0,0,1-.238-3.624,27.472,27.472,0,0,1,25.625-27.382c.6-.055,1.208-.073,1.83-.073a27.17,27.17,0,0,1,5.491.549v7.524a20.141,20.141,0,1,0,14.643,19.383h7.322a27.48,27.48,0,0,1-4.723,15.412,28.4,28.4,0,0,1-7.322,7.322Zm0,0" transform="translate(-104.883 -129.561)" fill="#f9e478"/>
      <path id="Trazado_110800" data-name="Trazado 110800" d="M62.911,112v12.886A27.26,27.26,0,0,0,44.3,133.965H15.321v21.965H37.286l.238-.037a27.5,27.5,0,0,0,10.745,18.34H8V112Zm0,0" transform="translate(-6.169 -86.374)" fill="#f5f7fa"/>
      <path id="Trazado_110801" data-name="Trazado 110801" d="M61.965,226.3a26.253,26.253,0,0,0,.238,3.624l-.238.037H40V208H68.975a27.321,27.321,0,0,0-7.011,18.3Zm0,0" transform="translate(-30.848 -160.41)" fill="#f17781"/>
      <path id="Trazado_110802" data-name="Trazado 110802" d="M62.912,53.491v9.152H8V53.491A5.483,5.483,0,0,1,13.491,48H57.42A5.483,5.483,0,0,1,62.912,53.491Zm0,0" transform="translate(-6.169 -37.017)" fill="#31d9e7"/>
      <path id="Trazado_110803" data-name="Trazado 110803" d="M62.912,389.491v3.661a5.483,5.483,0,0,1-5.491,5.491H13.491A5.483,5.483,0,0,1,8,393.152V384H48.268a27.25,27.25,0,0,0,14.643,5.418Zm0,0" transform="translate(-6.169 -296.141)" fill="#31d9e7"/>
      <g id="Grupo_62765" data-name="Grupo 62765" transform="translate(0 0)">
        <path id="Trazado_110804" data-name="Trazado 110804" d="M98.127,95.539a56.637,56.637,0,0,0-.018-77.575l3.871-3.871a5.4,5.4,0,0,0,2.352.551,5.491,5.491,0,1,0-5.491-5.491,5.4,5.4,0,0,0,.551,2.352l-3.871,3.871A56.624,56.624,0,0,0,25.863,9.152H7.322A7.329,7.329,0,0,0,0,16.474V97.011a7.329,7.329,0,0,0,7.322,7.322H25.84a56.68,56.68,0,0,0,61.458.2l6.9,6.9a7.007,7.007,0,1,0,9.91-9.91Zm6.205-88.217a1.83,1.83,0,1,1-1.83,1.83A1.834,1.834,0,0,1,104.332,7.322ZM56.742,3.661a52.884,52.884,0,0,1,36.192,14.3l-4.552,4.552A5.379,5.379,0,0,0,82.849,23L73,16.1a5.44,5.44,0,0,0,.22-1.455A5.526,5.526,0,1,0,70.9,19.1L80.757,26a5.441,5.441,0,0,0-.22,1.455,5.491,5.491,0,1,0,10.982,0,5.4,5.4,0,0,0-.551-2.352l4.552-4.552a52.98,52.98,0,0,1,.016,72.4L83.6,81.017a29.028,29.028,0,0,0,4.161-13.293h18.4V64.064H102.5V34.778H91.52V64.064H87.859V45.76H76.877v18.3H73.216V34.778H62.233v2.085a29.822,29.822,0,0,0-3.661-.255V16.474a7.329,7.329,0,0,0-7.322-7.322H33.265A52.871,52.871,0,0,1,56.742,3.661ZM86.028,25.626a1.83,1.83,0,1,1-1.83,1.83A1.834,1.834,0,0,1,86.028,25.626Zm-18.3-9.152a1.83,1.83,0,1,1,1.83-1.83A1.834,1.834,0,0,1,67.725,16.474ZM58.573,91.519a25.625,25.625,0,1,1,0-51.251,25.984,25.984,0,0,1,3.661.291v3.686a22.262,22.262,0,0,0-3.661-.316A21.965,21.965,0,1,0,80.444,67.724h3.661A25.64,25.64,0,0,1,58.573,91.519ZM54.912,36.863a29.2,29.2,0,0,0-17.551,8.9H7.322V71.385h22.5a29.092,29.092,0,0,0,.95,3.661H7.322v3.661H32.279a29.449,29.449,0,0,0,5.082,7.322H3.661V27.456H54.912ZM29.286,65.894c0,.618.055,1.223.093,1.83h-18.4v-18.3h23.4a29.106,29.106,0,0,0-5.093,16.473Zm40.268-1.83H65.894V38.438h3.661Zm-10.982,0v3.661H76.784A18.5,18.5,0,1,1,62.233,48V64.064Zm25.625,0H80.537V49.421H84.2Zm14.643,0H95.18V38.438h3.661ZM7.322,12.813H51.251a3.664,3.664,0,0,1,3.661,3.661V23.8H3.661V16.474A3.664,3.664,0,0,1,7.322,12.813Zm-3.661,84.2V89.689h37.9a29.068,29.068,0,0,0,13.347,5.236v2.085a3.664,3.664,0,0,1-3.661,3.661H7.322a3.664,3.664,0,0,1-3.661-3.661Zm53.081,12.813a52.9,52.9,0,0,1-23.467-5.491H51.251a7.329,7.329,0,0,0,7.322-7.322V95.18A29.062,29.062,0,0,0,73.7,90.926L84.64,101.87a52.836,52.836,0,0,1-27.9,7.953Zm42.412,0a3.324,3.324,0,0,1-2.367-.981L76.756,88.811a29.491,29.491,0,0,0,4.733-4.733l20.033,20.033a3.347,3.347,0,0,1-2.368,5.713Zm0,0" transform="translate(0 0)" fill="#47286d"/>
        <path id="Trazado_110805" data-name="Trazado 110805" d="M88,408h18.3v3.661H88Zm0,0" transform="translate(-67.866 -314.651)" fill="#47286d"/>
        <path id="Trazado_110806" data-name="Trazado 110806" d="M32,136h3.661v3.661H32Zm0,0" transform="translate(-24.679 -104.884)" fill="#47286d"/>
        <path id="Trazado_110807" data-name="Trazado 110807" d="M64,136h3.661v3.661H64Zm0,0" transform="translate(-49.357 -104.884)" fill="#47286d"/>
        <path id="Trazado_110808" data-name="Trazado 110808" d="M96,136h3.661v3.661H96Zm0,0" transform="translate(-74.035 -104.884)" fill="#47286d"/>
        <path id="Trazado_110809" data-name="Trazado 110809" d="M128,136h21.965v3.661H128Zm0,0" transform="translate(-98.714 -104.884)" fill="#47286d"/>
        <path id="Trazado_110810" data-name="Trazado 110810" d="M32,168H53.965v3.661H32Zm0,0" transform="translate(-24.679 -129.562)" fill="#47286d"/>
        <path id="Trazado_110811" data-name="Trazado 110811" d="M144,168h3.661v3.661H144Zm0,0" transform="translate(-111.053 -129.562)" fill="#47286d"/>
      </g>
    </g>
  </g>
</svg>
