<svg xmlns="http://www.w3.org/2000/svg" width="398.282" height="297.029" viewBox="0 0 398.282 297.029">
  <g id="Grupo_62678" data-name="Grupo 62678" transform="translate(-159.006 -149.044)">
    <path id="Trazado_110541" data-name="Trazado 110541" d="M630.612,582H263.969a47.806,47.806,0,0,1-5.2-29.117c1.1-7.594,16.335-15.018,12.745-28.848-6.8-26.208-.761-44.112,19.9-72.264,23.453-31.951,38.6-33.72,43.092-55.532,1.544-7.5.083-14.8-.214-22.183-.591-14.681,4.29-31.283,16.885-41.965,13.8-11.7,32.866-13.466,50-13.711,10.469-.15,21.034.023,30.671,2.713,20.4,5.693,34.138,21.778,51.547,32.461a103.615,103.615,0,0,0,40.681,14.129c8.381,1.1,17.223,1.331,24.581,4.69,12.6,5.753,18.212,19.367,21.542,32.543s5.448,27.333,14.015,37.6c8.243,9.875,21.426,14.846,31.3,23.243,15.294,13,21.727,33.605,22.1,54.4C637.987,540.726,631.965,561.44,630.612,582Z" transform="translate(-82.046 -139.908)" fill="#b3ebf5" opacity="0.2"/>
    <path id="Trazado_110542" data-name="Trazado 110542" d="M319.5,990.687c9.275-3.511,9.775,12.322,9.745,16.588a61.433,61.433,0,0,1,9.166,4.289c-1.881-4.838-6.2-7.139-6.492-10.531-.328-3.8,1.721-7.958,6.7-3.229,3.949,3.747,1.864,11.368.827,14.373a55.855,55.855,0,0,1,10.417,8.03c-1.4-5.894-6.107-9.141-6.041-13.03.073-4.255,2.8-8.542,7.735-2.574,4.081,4.933.466,13.553-.911,16.4a33.413,33.413,0,0,1,3.323,3.912,108.9,108.9,0,0,1,5.907,9.327c-1.117-5.219-4.6-8.838-4.11-12.352.593-4.217,3.807-8.042,7.946-1.321,3.275,5.317-.821,12.864-2.675,15.786a107.59,107.59,0,0,1,7.948,19.051c.574-4.971-1.82-12.457.125-16.812,1.276-2.857,3.262-3.22,4.714-3.017a4,4,0,0,1,2.949,2.192c3.625,6.848-4.792,16.114-7.44,18.778a108.524,108.524,0,0,1,3.964,20.22c.317-2.568.779-6.447.939-8.473.252-3.193,2.062-7.387,4.5-8.753q.153-.085.3-.156a3.9,3.9,0,0,1,5.089,2c4.1,7.712-7.984,15.911-10.637,17.589,0,.04.007.082.01.122,1.116,14.72-1.119,24.512-1.214,24.922l-1.318-.364a88.528,88.528,0,0,0,1.256-23.2c-12.264-4.013-14.324-12.918-12.1-15.651,2.3-2.825,7.373-3.035,8.581,3.34a43.954,43.954,0,0,0,3.326,9.813,106.737,106.737,0,0,0-3.928-20.651c-17.121,1.178-16.518-10.947-12.7-13.066,3.86-2.145,6.282.1,8.18,5.1a22.642,22.642,0,0,0,4.223,6.955,106.122,106.122,0,0,0-7.738-18.732c-2.427,2.183-8.978,7.286-13.812,3.71-6.041-4.469-2.81-8.274.862-9.108,3.376-.766,7.045,3.99,12.449,4.463a107.159,107.159,0,0,0-6.674-10.735,41.33,41.33,0,0,0-6.687-6.978c-2.2,2.53-8.122,8.448-13.3,5.624-6.508-3.546-3.713-7.775-.15-9.129,3.179-1.208,7.208,2.686,12.406,2.632a58.416,58.416,0,0,0-16.172-9.218c-2.3,2.607-8.094,8.24-13.172,5.473-6.508-3.546-3.712-7.775-.15-9.129,3.223-1.225,7.32,2.8,12.626,2.63l.046-.157c-1.625-1.219-5.081-3.793-6.792-4.926-2.284-1.512-4.546-4.956-4.36-7.9A5.145,5.145,0,0,1,319.5,990.687Z" transform="translate(-126.35 -695.109)" fill="#93e3f1" opacity="0.2"/>
    <path id="Trazado_110543" data-name="Trazado 110543" d="M216.616,1282.837l-20.682.487c-7.717-12.7-13.454-23.789-13.454-23.789,23.117-6.353,42.909-4.966,59.584.658l9.96,21.59,1.23-16.995c41.59,20.25,60.287,66.01,60.287,66.01s-72.2-4.658-87.738-11.109c-6-2.49-13.823-12.026-21.17-22.795C209.924,1291.419,216.616,1282.837,216.616,1282.837Z" transform="translate(-19.399 -914.233)" fill="#c4f3fb"/>
    <path id="Trazado_110544" data-name="Trazado 110544" d="M182.48,1279.5s93.91,34.984,131.061,71.263c0,0-72.2-4.658-87.738-11.109-6-2.49-13.823-12.026-21.17-22.795,5.291-5.474,11.983-14.057,11.983-14.057l-20.682.487C188.216,1290.587,182.48,1279.5,182.48,1279.5Z" transform="translate(-19.399 -934.199)" fill="#9feef7"/>
    <path id="Trazado_110545" data-name="Trazado 110545" d="M159.164,1382.056c3.686-6.689,11.886,2.347,14,4.864a47.391,47.391,0,0,1,7.518-2.061c-3.519-1.9-7.2-1.092-9.066-2.935-2.092-2.067-2.964-5.526,2.32-5.24,4.187.226,6.77,5.737,7.662,8.017a43.013,43.013,0,0,1,10.119-.491c-3.763-2.759-8.147-2.312-10.05-4.626-2.082-2.532-2.625-6.406,3.251-5.371,4.857.856,7.042,7.716,7.653,10.07a25.75,25.75,0,0,1,3.9.635,83.807,83.807,0,0,1,8.122,2.521c-3.261-2.5-7.114-2.885-8.578-5.193-1.758-2.77-1.783-6.617,4-4.742,4.576,1.484,5.942,7.954,6.314,10.594a82.894,82.894,0,0,1,14.174,7.205c-2.145-3.2-7.288-6.4-8.322-9.922-.679-2.312.305-3.517,1.258-4.123a3.082,3.082,0,0,1,2.824-.187c5.546,2.207,5.236,11.843,5.014,14.727a83.617,83.617,0,0,1,12.422,9.88c-1.1-1.665-2.763-4.17-3.68-5.438-1.447-2-2.479-5.362-1.731-7.381.031-.084.065-.165.1-.242a3,3,0,0,1,3.984-1.366c6.255,2.477,3.263,13.317,2.545,15.626l.067.067a68.911,68.911,0,0,1,11.733,15.222l-.954.444a68.2,68.2,0,0,0-10.847-14.231c-9.2,3.769-14.851-.425-14.911-3.14-.062-2.8,2.808-5.46,6.7-2.325a33.857,33.857,0,0,0,6.851,4.094,82.234,82.234,0,0,0-12.616-10.15c-9.453,9.238-15.154,1.826-13.976-1.321,1.193-3.185,3.732-3.08,7.346-1.09a17.44,17.44,0,0,0,5.95,1.971,81.762,81.762,0,0,0-13.892-7.123c-.333,2.492-1.627,8.755-6.248,9.071-5.775.4-5.78-3.45-4.043-5.772,1.6-2.135,6.124-1.177,9.53-3.6a82.5,82.5,0,0,0-9.275-2.964,31.84,31.84,0,0,0-7.406-.754c-.027,2.583-.545,9.01-4.994,9.94-5.587,1.169-6.06-2.706-4.647-5.279,1.261-2.3,5.568-2.023,8.591-4.65a45.011,45.011,0,0,0-14.088,2.667c-.047,2.678-.632,8.873-4.992,9.786-5.587,1.169-6.06-2.706-4.647-5.279,1.279-2.328,5.691-2.013,8.718-4.761l-.051-.115c-1.562.1-4.874.312-6.443.5-2.094.254-5.141-.637-6.5-2.459A3.963,3.963,0,0,1,159.164,1382.056Z" transform="translate(0 -1012.326)" fill="#ccf6fe"/>
    <path id="Trazado_110546" data-name="Trazado 110546" d="M214.355,1558.926a94.84,94.84,0,0,1,36.544-14.777c3.74,4.272,8.323,9.29,8.323,9.29l.028-10.383c46.462-4.061,86.336,25.516,86.336,25.516-26.253,18.115-49.056,23.76-67.959,23.027-1.268-3.58-3.073-8.923-3.073-8.923l-2.981,8.465a81.337,81.337,0,0,1-24.2-6.675c1.583-4.393,3.233-9.407,3.233-9.407l-9.8,6.116A88.037,88.037,0,0,1,214.355,1558.926Z" transform="translate(-45.74 -1151.681)" fill="#c4f3fb"/>
    <path id="Trazado_110547" data-name="Trazado 110547" d="M277.628,1658.128c-1.268-3.58-3.073-8.922-3.073-8.922l-2.981,8.465a81.33,81.33,0,0,1-24.2-6.675c1.583-4.393,3.233-9.407,3.233-9.407l-9.8,6.117a88.036,88.036,0,0,1-26.453-22.25c53.976-8.527,131.231,9.646,131.231,9.646C319.333,1653.216,296.53,1658.861,277.628,1658.128Z" transform="translate(-45.74 -1218.211)" fill="#9feef7"/>
    <path id="Trazado_110548" data-name="Trazado 110548" d="M1862.258,436.173c-8.235-5.324-12.016,9.878-12.875,14.008a60.776,60.776,0,0,0-9.754,2.239c2.825-4.286,7.479-5.611,8.468-8.83,1.11-3.609-.007-8.051-5.809-4.517-4.6,2.8-4.168,10.6-3.792,13.723a55.218,55.218,0,0,0-11.742,5.595c2.578-5.407,7.808-7.566,8.553-11.339.815-4.128-.926-8.84-6.942-4.1-4.973,3.92-3.273,13-2.533,16.04a33,33,0,0,0-4.027,3.09,107.565,107.565,0,0,0-7.653,7.787c2.166-4.813,6.291-7.586,6.544-11.086.3-4.2-2.006-8.567-7.407-2.931-4.273,4.459-1.885,12.607-.7,15.817a106.417,106.417,0,0,0-11.649,16.762c.48-4.925,4.353-11.664,3.38-16.279-.638-3.027-2.483-3.792-3.929-3.9a3.958,3.958,0,0,0-3.307,1.505c-4.93,5.866,1.278,16.576,3.283,19.7a107.346,107.346,0,0,0-8.042,18.723c.229-2.549.589-6.395.856-8.386.421-3.139-.456-7.57-2.53-9.4q-.13-.114-.259-.213a3.853,3.853,0,0,0-5.337.877c-5.567,6.6,4.406,17.043,6.621,19.218l-.035.116c-4.144,14-4.022,23.93-4.015,24.345l1.349-.078a87.554,87.554,0,0,1,3.616-22.686c12.692-1.327,16.537-9.507,14.954-12.613-1.635-3.209-6.5-4.469-8.991,1.443a43.456,43.456,0,0,1-5.259,8.794,105.549,105.549,0,0,1,8.1-19.146c16.306,4.7,18.248-7.145,15-9.987-3.285-2.877-6.094-1.214-8.971,3.232a22.393,22.393,0,0,1-5.531,5.845,104.95,104.95,0,0,1,11.38-16.5c1.892,2.616,7.162,8.912,12.58,6.461,6.771-3.063,4.439-7.414,1.063-8.984-3.1-1.443-7.641,2.39-12.964,1.724a105.955,105.955,0,0,1,8.688-8.989,40.866,40.866,0,0,1,7.917-5.354c1.6,2.9,6.094,9.857,11.69,8.206,7.03-2.073,5.208-6.743,2.046-8.794-2.822-1.829-7.527,1.1-12.542-.038a57.785,57.785,0,0,1,17.553-5.546c1.68,3,6.109,9.651,11.594,8.033,7.029-2.074,5.208-6.744,2.046-8.794-2.861-1.855-7.66,1.182-12.754-.085l-.012-.162c1.825-.84,5.7-2.609,7.592-3.348,2.522-.986,5.427-3.845,5.861-6.734A5.088,5.088,0,0,0,1862.258,436.173Z" transform="translate(-1342.374 -236.358)" fill="#ccf6fe"/>
    <path id="Trazado_110549" data-name="Trazado 110549" d="M1598.89,149.047c7.925-.241,4.183,11.858,3.05,15.076a49.13,49.13,0,0,1,5.813,5.628c-.162-4.147-2.829-7.009-2.167-9.65.742-2.961,3.371-5.568,5.909-.7,2.01,3.86-1.55,9.079-3.116,11.081a44.638,44.638,0,0,1,5.785,8.781c.478-4.819-2.238-8.5-1.176-11.422,1.162-3.2,4.338-5.73,6.517.067,1.8,4.791-3.175,10.367-4.956,12.158a26.679,26.679,0,0,1,1.494,3.822,87.01,87.01,0,0,1,2.038,8.588c.514-4.236-1.18-7.88.108-10.407,1.546-3.033,4.971-5.089,6.351,1.069,1.092,4.872-3.968,9.511-6.13,11.238a86.044,86.044,0,0,1,1.05,16.469c1.728-3.608,1.866-9.891,4.47-12.677,1.708-1.828,3.3-1.586,4.349-1.054a3.2,3.2,0,0,1,1.659,2.424c.958,6.12-7.817,10.935-10.512,12.26a86.752,86.752,0,0,1-2.266,16.317c.908-1.859,2.267-4.671,2.915-6.161,1.022-2.348,3.481-5.048,5.681-5.446.092-.017.181-.03.269-.039a3.114,3.114,0,0,1,3.326,2.838c1.09,6.9-10.177,9.951-12.619,10.529-.008.031-.016.064-.024.1a71.482,71.482,0,0,1-7.4,18.524l-.9-.618a70.8,70.8,0,0,0,6.986-17.209c-8.227-6.225-7.466-13.492-5.072-14.98,2.474-1.537,6.363-.376,5.618,4.758a35.138,35.138,0,0,0-.039,8.284,85.337,85.337,0,0,0,2.4-16.633c-13.25-3.564-9.638-12.574-6.2-13.183,3.476-.617,4.724,1.707,4.856,5.987a18.1,18.1,0,0,0,1.382,6.356,84.85,84.85,0,0,0-.974-16.174c-2.4,1.019-8.683,3.172-11.407-.789-3.4-4.95.029-6.986,3.022-6.661,2.751.3,4.287,4.849,8.249,6.613a85.711,85.711,0,0,0-2.251-9.852,33.068,33.068,0,0,0-3.24-7.015c-2.322,1.34-8.339,4.273-11.521.79-4-4.374-.783-6.844,2.262-6.94,2.717-.086,4.75,3.905,8.694,5.218a46.7,46.7,0,0,0-9.827-11.176c-2.417,1.373-8.263,4.124-11.382.71-4-4.374-.783-6.844,2.262-6.94,2.756-.087,4.805,4.021,8.86,5.273l.076-.107c-.911-1.344-2.854-4.189-3.853-5.491-1.333-1.737-2.147-4.93-1.239-7.11A4.114,4.114,0,0,1,1598.89,149.047Z" transform="translate(-1180.984)" fill="#ccf6fe"/>
    <g id="Grupo_62657" data-name="Grupo 62657" transform="translate(423.622 249.779)" opacity="0.5">
      <path id="Trazado_110550" data-name="Trazado 110550" d="M1783.371,764.028l19.243-7.6c2.167-14.7,3.138-27.148,3.138-27.148-23.768,3.139-41.46,12.115-54.635,23.782l-.776,23.763-7.745-15.178c-30.436,34.831-29.856,84.259-29.856,84.259s64.7-32.375,76.506-44.36c4.556-4.627,8.055-16.456,10.634-29.234C1792.875,769.332,1783.371,764.028,1783.371,764.028Z" transform="translate(-1707.612 -729.284)" fill="#c4f3fb"/>
      <path id="Trazado_110551" data-name="Trazado 110551" d="M1805.755,729.284s-72.9,68.755-93.012,116.627c0,0,64.7-32.375,76.506-44.36,4.557-4.627,8.055-16.456,10.634-29.234-7-2.985-16.508-8.288-16.508-8.288l19.243-7.6C1804.784,741.728,1805.755,729.284,1805.755,729.284Z" transform="translate(-1707.615 -729.284)" fill="#9feef7"/>
      <path id="Trazado_110552" data-name="Trazado 110552" d="M1800.349,1061.908a94.852,94.852,0,0,0-39.415.6c-1.783,5.391-4.053,11.8-4.053,11.8l-4.066-9.554c-44.382,14.331-69.608,57.088-69.608,57.088,31.233,6.477,54.436,2.807,71.565-5.22-.225-3.79-.64-9.415-.64-9.415l6.039,6.639a81.332,81.332,0,0,0,19.7-15.563c-3.167-3.431-6.638-7.408-6.638-7.408l11.4,1.825A88.014,88.014,0,0,0,1800.349,1061.908Z" transform="translate(-1683.207 -1002.693)" fill="#c4f3fb"/>
      <path id="Trazado_110553" data-name="Trazado 110553" d="M1754.772,1125.078c-.225-3.79-.64-9.415-.64-9.415l6.039,6.639a81.332,81.332,0,0,0,19.7-15.563c-3.167-3.431-6.638-7.408-6.638-7.408l11.4,1.825a88.014,88.014,0,0,0,15.713-30.787c-53.042,13.14-117.142,59.93-117.142,59.93C1714.44,1136.775,1737.643,1133.1,1754.772,1125.078Z" transform="translate(-1683.207 -1011.153)" fill="#9feef7"/>
    </g>
    <path id="Rectángulo_6404" data-name="Rectángulo 6404" d="M2.218,0H382.075a2.218,2.218,0,0,1,2.218,2.218v0a2.218,2.218,0,0,1-2.218,2.218H2.218A2.218,2.218,0,0,1,0,2.218v0A2.218,2.218,0,0,1,2.218,0Z" transform="translate(557.288 446.073) rotate(180)" fill="#c4dfe8"/>
    <g id="Grupo_62673" data-name="Grupo 62673" transform="translate(257.165 184.296)">
      <rect id="Rectángulo_6405" data-name="Rectángulo 6405" width="105.051" height="43.209" transform="translate(120.075 188.809) rotate(180)" fill="#e03268"/>
      <path id="Trazado_110554" data-name="Trazado 110554" d="M1379.9,666.172c-1.309.092-105.251,0-105.251,0v98.614h67.379l36.07-36.042Z" transform="translate(-1179.118 -611.646)" fill="#ff5b7e"/>
      <path id="Trazado_110555" data-name="Trazado 110555" d="M822.511,982.762s72.087,4.3,72.087,0v18.751s-35.255,6.319-39.222,6.319-22.438,9.783-24.886,10.6-7.707-21.027-7.979-21.214S822.511,982.762,822.511,982.762Z" transform="translate(-805.38 -872.83)" fill="#f9537f"/>
      <path id="Rectángulo_6406" data-name="Rectángulo 6406" d="M9.519,0h0a9.519,9.519,0,0,1,9.519,9.519V64.91a9.519,9.519,0,0,1-9.519,9.519h0A9.518,9.518,0,0,1,0,64.91V9.519A9.519,9.519,0,0,1,9.519,0Z" transform="translate(210.297 128.955) rotate(180)" fill="#e03268"/>
      <path id="Trazado_110556" data-name="Trazado 110556" d="M1316.87,985.31H1402a13.865,13.865,0,0,1,13.87,13.86v48.863a35.289,35.289,0,0,1-35.3,35.275l-87.649.537s6.084-1.619,7.085-3.369c4.126-7.213,14.7-25.756,14.7-26.412C1314.695,1053.249,1316.87,985.31,1316.87,985.31Z" transform="translate(-1194.216 -875.378)" fill="#f9537f"/>
      <path id="Trazado_110557" data-name="Trazado 110557" d="M781.158,996.452v47.616a17.253,17.253,0,0,0,17.26,17.246h48.7a17.253,17.253,0,0,0,17.26-17.246V996.452a11.146,11.146,0,0,1,11.15-11.142h0a11.147,11.147,0,0,1,11.151,11.142v48.843a38.735,38.735,0,0,1-38.75,38.72H797.607a38.735,38.735,0,0,1-38.75-38.72V996.452a11.146,11.146,0,0,1,11.151-11.142h0A11.146,11.146,0,0,1,781.158,996.452Z" transform="translate(-752.876 -875.378)" fill="#ff85a5"/>
      <path id="Trazado_110558" data-name="Trazado 110558" d="M825.418,1684.317l-1.773,14.226-9.546.74.148-13.192Z" transform="translate(-798.527 -1453.031)" fill="#ffc0bb"/>
      <g id="Grupo_62661" data-name="Grupo 62661" transform="translate(0 244.094)">
        <path id="Trazado_110559" data-name="Trazado 110559" d="M725.56,1817.327l26.079.176a1,1,0,0,0,1.023-1l-.007-.75a1.04,1.04,0,0,0-1.041-1.015l-26.079-.175a1,1,0,0,0-1.023,1l.007.75A1.04,1.04,0,0,0,725.56,1817.327Z" transform="translate(-724.494 -1804.757)" fill="#3d3a55"/>
        <path id="Trazado_110560" data-name="Trazado 110560" d="M751.2,1759.662l1,7.7c.123.949-.413,1.807-1.126,1.8l-24.8-.167a1.841,1.841,0,0,1-1.629-1.142c-.354-.759-.433-1.9.664-3.425,2.193-3.051,9.482-3.75,13.027-6.343l11.553.078A1.538,1.538,0,0,1,751.2,1759.662Z" transform="translate(-724.407 -1758.088)" fill="#e03268"/>
        <g id="Grupo_62658" data-name="Grupo 62658" transform="translate(10.451 0.661)">
          <path id="Trazado_110561" data-name="Trazado 110561" d="M789.873,1765.713h0a.507.507,0,0,0,.136-.626c-.5-1.058-2.041-3.634-5.133-3.128a.424.424,0,0,0-.265.5v.008c.031.232.194.385.367.357a4.207,4.207,0,0,1,4.487,2.713A.287.287,0,0,0,789.873,1765.713Z" transform="translate(-784.605 -1761.895)" fill="#fff"/>
        </g>
        <g id="Grupo_62659" data-name="Grupo 62659" transform="translate(7.884 1.634)">
          <path id="Trazado_110562" data-name="Trazado 110562" d="M775.087,1771.317h0a.507.507,0,0,0,.136-.626c-.5-1.057-2.041-3.634-5.133-3.128-.179.029-.3.26-.265.5v.008c.032.232.194.385.367.357a4.207,4.207,0,0,1,4.487,2.713A.287.287,0,0,0,775.087,1771.317Z" transform="translate(-769.819 -1767.498)" fill="#fff"/>
        </g>
        <g id="Grupo_62660" data-name="Grupo 62660" transform="translate(5.497 2.542)">
          <path id="Trazado_110563" data-name="Trazado 110563" d="M761.336,1776.547h0a.507.507,0,0,0,.135-.626c-.5-1.057-2.041-3.634-5.133-3.127-.178.029-.3.26-.265.5v.008c.031.232.194.385.367.357a4.208,4.208,0,0,1,4.487,2.713A.286.286,0,0,0,761.336,1776.547Z" transform="translate(-756.068 -1772.728)" fill="#fff"/>
        </g>
        <path id="Trazado_110564" data-name="Trazado 110564" d="M839.871,1789.6c1.9-6.2,5.261-6.866,7.1-6.71l.643,4.952c.123.949-.412,1.807-1.126,1.8Z" transform="translate(-819.825 -1778.569)" fill="#e87b50" opacity="0.3" style="mix-blend-mode: multiply;isolation: isolate"/>
      </g>
      <path id="Trazado_110565" data-name="Trazado 110565" d="M917.689,1686.063l-4.22,13.727-9.715.067,1.692-10.021Z" transform="translate(-872.617 -1454.473)" fill="#ffc0bb"/>
      <path id="Trazado_110566" data-name="Trazado 110566" d="M1309.467,375.49s2.9-14.632-5.578-19.778-17.218-4.236-23.058-.772-8.969,14.941-6.039,21.335l19.566-6.885Z" transform="translate(-1178.317 -352.097)" fill="#07085b"/>
      <g id="Grupo_62665" data-name="Grupo 62665" transform="translate(16.116 244.348)">
        <path id="Trazado_110567" data-name="Trazado 110567" d="M818.387,1818.791l26.079.176a1,1,0,0,0,1.023-1l-.007-.75a1.039,1.039,0,0,0-1.041-1.015l-26.079-.176a1,1,0,0,0-1.023,1l.007.75A1.039,1.039,0,0,0,818.387,1818.791Z" transform="translate(-817.32 -1806.221)" fill="#3d3a55"/>
        <path id="Trazado_110568" data-name="Trazado 110568" d="M844.025,1761.128l1,7.7c.123.949-.413,1.807-1.126,1.8l-24.8-.167a1.842,1.842,0,0,1-1.629-1.142c-.354-.759-.433-1.9.664-3.425,2.193-3.051,9.482-3.75,13.027-6.343l11.552.078A1.537,1.537,0,0,1,844.025,1761.128Z" transform="translate(-817.233 -1759.553)" fill="#f9537f"/>
        <g id="Grupo_62662" data-name="Grupo 62662" transform="translate(10.451 0.661)">
          <path id="Trazado_110569" data-name="Trazado 110569" d="M882.7,1767.178h0a.506.506,0,0,0,.136-.626c-.5-1.058-2.041-3.634-5.133-3.128-.179.029-.3.26-.265.5v.007c.032.232.194.385.367.357a4.208,4.208,0,0,1,4.487,2.714A.286.286,0,0,0,882.7,1767.178Z" transform="translate(-877.432 -1763.359)" fill="#fff"/>
        </g>
        <g id="Grupo_62663" data-name="Grupo 62663" transform="translate(7.884 1.634)">
          <path id="Trazado_110570" data-name="Trazado 110570" d="M867.915,1772.782h0a.507.507,0,0,0,.136-.626c-.5-1.057-2.041-3.634-5.133-3.128-.178.029-.3.26-.265.5v.007c.031.232.194.385.367.357a4.207,4.207,0,0,1,4.487,2.713A.287.287,0,0,0,867.915,1772.782Z" transform="translate(-862.647 -1768.963)" fill="#fff"/>
        </g>
        <g id="Grupo_62664" data-name="Grupo 62664" transform="translate(5.497 2.542)">
          <path id="Trazado_110571" data-name="Trazado 110571" d="M854.162,1778.011h0a.507.507,0,0,0,.135-.626c-.5-1.057-2.041-3.634-5.133-3.127-.179.029-.3.26-.265.5v.008c.031.232.194.385.367.357a4.207,4.207,0,0,1,4.487,2.713A.287.287,0,0,0,854.162,1778.011Z" transform="translate(-848.894 -1774.192)" fill="#fff"/>
        </g>
        <path id="Trazado_110572" data-name="Trazado 110572" d="M932.7,1791.066c1.9-6.2,5.261-6.866,7.1-6.71l.643,4.952c.123.95-.413,1.807-1.126,1.8Z" transform="translate(-912.651 -1780.034)" fill="#e87b50" opacity="0.3" style="mix-blend-mode: multiply;isolation: isolate"/>
      </g>
      <path id="Trazado_110573" data-name="Trazado 110573" d="M1364.337,563.537l1.418,16.339-14.833-.689,1.71-14.469Z" transform="translate(-1242.153 -526.829)" fill="#ffc0bb"/>
      <path id="Trazado_110574" data-name="Trazado 110574" d="M1356.089,571.6l.813-6.881,11.705-1.181.491,5.658C1366.771,571.449,1362.586,573.786,1356.089,571.6Z" transform="translate(-1246.423 -526.829)" fill="#f99893"/>
      <path id="Trazado_110575" data-name="Trazado 110575" d="M1276.12,489.528c.892,1.793.419,3.809-1.057,4.5s-3.395-.2-4.286-1.991-.419-3.809,1.057-4.5S1275.229,487.735,1276.12,489.528Z" transform="translate(-1175.549 -463.829)" fill="#f99893"/>
      <path id="Trazado_110576" data-name="Trazado 110576" d="M1291.178,419.947a14.85,14.85,0,0,1-1.353-2.444,27.9,27.9,0,0,1-2.045-6.976c-.078-.468-.183-.93-.3-1.39a14.988,14.988,0,0,1-.264-5.931,15.9,15.9,0,0,1,31.488,1.338,3.508,3.508,0,0,1,3.064-.423c1.93.7,2.766,3.168,1.867,5.513s-3.193,3.679-5.124,2.98a3.061,3.061,0,0,1-.736-.391,14.637,14.637,0,0,1-13.883,14.125,14.476,14.476,0,0,1-9.883-3.3,7.2,7.2,0,0,1-.566-.455A13.463,13.463,0,0,1,1291.178,419.947Z" transform="translate(-1189.361 -383.514)" fill="#ffc0bb"/>
      <path id="Trazado_110577" data-name="Trazado 110577" d="M1388.132,479.254a1.384,1.384,0,1,0,1.317-1.406A1.369,1.369,0,0,0,1388.132,479.254Z" transform="translate(-1272.901 -456.015)" fill="#333"/>
      <path id="Trazado_110578" data-name="Trazado 110578" d="M1319.982,486.722a1.384,1.384,0,1,0,1.317-1.406A1.368,1.368,0,0,0,1319.982,486.722Z" transform="translate(-1216.583 -462.187)" fill="#333"/>
      <path id="Trazado_110579" data-name="Trazado 110579" d="M1378.134,460.863a14.533,14.533,0,0,1,2.023-.472,7.22,7.22,0,0,1,1.922-.041,6.656,6.656,0,0,1,1.848.476c.319.1.6.281.92.411.312.151.6.343.949.491a5.69,5.69,0,0,0-.614-.9,4.7,4.7,0,0,0-.837-.732,4.547,4.547,0,0,0-2.144-.8,4.789,4.789,0,0,0-2.273.293A4.254,4.254,0,0,0,1378.134,460.863Z" transform="translate(-1264.641 -440.661)" fill="#07085b"/>
      <path id="Rectángulo_6407" data-name="Rectángulo 6407" d="M2.473,0H162.74a2.472,2.472,0,0,1,2.472,2.472v0a2.473,2.473,0,0,1-2.473,2.473H2.472A2.472,2.472,0,0,1,0,2.473v0A2.473,2.473,0,0,1,2.473,0Z" transform="translate(192.279 212.534) rotate(180)" fill="#3d3a55"/>
      <path id="Trazado_110580" data-name="Trazado 110580" d="M1308.078,467.609a4.31,4.31,0,0,0-2.013-.908,4.791,4.791,0,0,0-2.289.141,4.483,4.483,0,0,0-1.943,1.191,4.6,4.6,0,0,0-.675.876,5.54,5.54,0,0,0-.423,1c.312-.212.557-.454.832-.66.291-.189.527-.423.821-.577a6.572,6.572,0,0,1,1.718-.816,7.187,7.187,0,0,1,1.893-.322A14.617,14.617,0,0,1,1308.078,467.609Z" transform="translate(-1200.679 -446.741)" fill="#07085b"/>
      <path id="Trazado_110581" data-name="Trazado 110581" d="M1335.213,387.048a2.446,2.446,0,0,1,1.578-.769l-.6-4.675-1.613-2.769s-6.179-7.381-6.394-7.562-4.8-2.469-5.077-2.585-6.524,1.043-6.524,1.043-11.132-1.774-9.043,3.768,10.272,8.18,10.676,7.915c-1.36-1.208-1.638-4.777-1.638-4.777C1322.531,382.44,1333.5,386.447,1335.213,387.048Z" transform="translate(-1206.088 -365.801)" fill="#07085b"/>
      <path id="Trazado_110582" data-name="Trazado 110582" d="M1350.068,485.314a16.479,16.479,0,0,0-1.061,1.977,15.464,15.464,0,0,0-.8,2.1,5.758,5.758,0,0,0-.215,1.133,2.064,2.064,0,0,0,.011.312c.006.054.022.113.033.168a.74.74,0,0,0,.084.181c.022.031.047.061.071.089l.06.051c.04.032.078.068.12.1.084.056.166.115.253.163a5.562,5.562,0,0,0,1.064.472,7.623,7.623,0,0,0,1.115.284,12.688,12.688,0,0,1-1.975-1.051c-.075-.051-.14-.109-.208-.164l-.094-.087-.046-.043a.071.071,0,0,0-.012-.023.832.832,0,0,1-.034-.42,5.887,5.887,0,0,1,.224-1.04c.2-.7.448-1.394.688-2.092S1349.841,486.026,1350.068,485.314Z" transform="translate(-1239.729 -462.186)" fill="#f99893"/>
      <path id="Trazado_110583" data-name="Trazado 110583" d="M1146.88,634.458s-11.615.49-17.687,7.879-23.292,79.87-23.292,79.87l19.367-2.069s25.184-34.431,25.184-35.317S1146.88,634.458,1146.88,634.458Z" transform="translate(-1039.67 -585.438)" fill="#b77dfe"/>
      <path id="Trazado_110584" data-name="Trazado 110584" d="M1349.851,634.977s-22.233-.044-22.577-.021-2.049-.159-2.677.5a4.29,4.29,0,0,0,1.381,6.051c3.093,1.773-3.481,1.847,4.908,3.325s5.875,3.473,12.234.887,7.178-1.478,7.4-3.768A35.393,35.393,0,0,0,1349.851,634.977Z" transform="translate(-1219.814 -585.843)" fill="#ffc0bb"/>
      <path id="Trazado_110585" data-name="Trazado 110585" d="M1160.613,668.017c1.29-11.632,4.41-19.433,7.908-24.659a18.919,18.919,0,0,1,11.027-7.768c.02.077,1.127,4.21,6.84,4.869,5.768.665,18.192-5.359,18.413-5.345h0c6.418.4,11.969,1.6,14.86,4.976,5.767,6.724,24.845,53.675,24.4,60.307s-5.546,6.632-5.546,6.632l-52.248.024v12.017l-37.9,2.589C1149.426,720.958,1156.959,700.969,1160.613,668.017Z" transform="translate(-1074.765 -585.978)" fill="#cda4ff"/>
      <g id="Grupo_62666" data-name="Grupo 62666" transform="translate(60.636 69.334)">
        <path id="Trazado_110586" data-name="Trazado 110586" d="M1102.506,759.6c-.333.012-13.8-8.141-13.8-8.141l-2.516.534.893.658-1.5-.377-2.448.377s8.091,9.542,8.227,9.814a34.771,34.771,0,0,0,3.944,1.766C1095.578,764.37,1102.506,759.6,1102.506,759.6Z" transform="translate(-1081.492 -751.462)" fill="#daeef7"/>
        <path id="Trazado_110587" data-name="Trazado 110587" d="M1213.456,753.093l-1.224-.764-.561.382V752l-.765-.534-19.582,7.745s6.272,3.974,6.476,3.822,11.372-2.191,11.575-2.5S1213.456,753.093,1213.456,753.093Z" transform="translate(-1170.899 -751.462)" fill="#daeef7"/>
        <path id="Trazado_110588" data-name="Trazado 110588" d="M1115.919,755.274l-22.194,7.182-17.9-7.787a1.54,1.54,0,0,0-2.146,1.582l3.409,30.483a1.539,1.539,0,0,0,.813,1.19l17.184,9.052,15.565-5.758.4-.589,2.018-.306,6.526-2.414a1.381,1.381,0,0,0,.9-1.413l-2.566-29.89A1.54,1.54,0,0,0,1115.919,755.274Z" transform="translate(-1073.672 -754.005)" fill="#feb546"/>
        <path id="Trazado_110589" data-name="Trazado 110589" d="M1211.376,758.407a1.541,1.541,0,0,1,2.009,1.333l2.563,29.85a1.433,1.433,0,0,1-.931,1.467l-6.489,2.4-2.018.306-.4.589-10.469,3.873c-2.408-.464-4.8-.912-4.8-.912l-1.66-31.724Z" transform="translate(-1169.128 -757.139)" fill="#f4a640"/>
        <path id="Trazado_110590" data-name="Trazado 110590" d="M1104.221,792.339l-13.84-6.048.442,6.284,13.564,6.284Z" transform="translate(-1087.48 -780.244)" fill="#f4a640"/>
      </g>
      <path id="Trazado_110591" data-name="Trazado 110591" d="M830.714,1118.784s-46.862-1.478-57.51,8.571-.3,84.249,1.479,91.184c0,0,6.507,6.048,14.2,3.684s4.732-35.465,4.732-35.465-.887-31.623.3-36.056,17.451-7.684,17.451-7.684,25.141-17.437,23.662-17.437S830.714,1118.784,830.714,1118.784Z" transform="translate(-760.813 -985.617)" fill="#2b1c35"/>
      <path id="Trazado_110592" data-name="Trazado 110592" d="M955.436,1106.765s-62.732-7.446-71.31,20.926-15.084,84.524-15.084,84.524,8.282,5.024,19.521,0c0,0,15.9-60.29,21.85-66.2s45.023-2.307,45.023-2.307Z" transform="translate(-843.932 -975.018)" fill="#3a2645"/>
      <path id="Trazado_110593" data-name="Trazado 110593" d="M1271.723,820.727a37.768,37.768,0,0,1,.962-4c.39-1.317.821-2.615,1.34-3.9l.058-.144.157-.008,41.858-2.1a18.521,18.521,0,0,0-.965-3.736c-.445-1.267-.952-2.512-1.483-3.748-1.069-2.469-2.241-4.893-3.453-7.3-2.434-4.8-5.024-9.529-7.72-14.191l.043-.025c2.729,4.645,5.352,9.354,7.821,14.143,1.229,2.4,2.42,4.817,3.508,7.284.541,1.235,1.058,2.481,1.515,3.752a18.146,18.146,0,0,1,1.022,3.932l.016.137-.142.008-41.831,2.321c-.481,1.206-.9,2.451-1.268,3.7a37.369,37.369,0,0,0-.948,3.953,24.3,24.3,0,0,0-.427,4.025,13.711,13.711,0,0,0,.425,3.811l12.389-.36,6.287-.176,6.289-.106,0,.06-6.284.249-6.284.268-12.567.521-.173.007-.051-.164a13.761,13.761,0,0,1-.532-4.118A24.772,24.772,0,0,1,1271.723,820.727Z" transform="translate(-1176.343 -707.02)" fill="#fff"/>
      <path id="Trazado_110594" data-name="Trazado 110594" d="M1185.261,795.735l1.6,33.426-2.449-.356-1.725-33.07A2.326,2.326,0,0,1,1185.261,795.735Z" transform="translate(-1103.129 -718.385)" fill="#ed9935"/>
      <g id="Grupo_62667" data-name="Grupo 62667" transform="translate(79.135 107.686)">
        <path id="Trazado_110595" data-name="Trazado 110595" d="M1181.437,973.657c3.106,1.367,9.407.375,9.407.375l4.771-1.659c.667.454,1.346.915,2.018,1.362-.067.218-.135.436-.2.655a37.824,37.824,0,0,0-.962,4,24.745,24.745,0,0,0-.436,4.106c0,.226.008.453.015.679l-.672-.25a15.19,15.19,0,0,1-4.318-.289,70.11,70.11,0,0,1-7.607-1.271,2.568,2.568,0,0,1-1.874-1.757,2.3,2.3,0,0,1-.89-2.425,1.158,1.158,0,0,1-.066-.159c-.447-1.395-.2-1.757.031-1.9a1.22,1.22,0,0,1-.326-.549C1179.81,972.512,1181.437,973.657,1181.437,973.657Z" transform="translate(-1180.226 -972.373)" fill="#ffc0bb"/>
        <path id="Trazado_110596" data-name="Trazado 110596" d="M1182.691,999.469a4.843,4.843,0,0,0,1.36,1.045,7.4,7.4,0,0,0,1.606.634,8.588,8.588,0,0,0,1.7.259c.286.021.574,0,.86.008.286-.022.571-.047.854-.081-.571-.027-1.137-.046-1.7-.117a12.914,12.914,0,0,1-1.657-.308,10.317,10.317,0,0,1-1.584-.563A6.88,6.88,0,0,1,1182.691,999.469Z" transform="translate(-1182.263 -994.765)" fill="#f99893"/>
        <path id="Trazado_110597" data-name="Trazado 110597" d="M1187.984,1014.1a4.846,4.846,0,0,0,1.438.935,7.439,7.439,0,0,0,1.651.505,8.568,8.568,0,0,0,1.72.123c.287,0,.573-.04.858-.06.283-.044.565-.091.844-.148-.572.017-1.137.043-1.7.016a12.879,12.879,0,0,1-1.677-.177,10.189,10.189,0,0,1-1.623-.437A6.876,6.876,0,0,1,1187.984,1014.1Z" transform="translate(-1186.637 -1006.857)" fill="#f99893"/>
        <path id="Trazado_110598" data-name="Trazado 110598" d="M1182.691,988.249a4.837,4.837,0,0,0,1.36,1.045,7.417,7.417,0,0,0,1.606.633,8.584,8.584,0,0,0,1.7.258c.286.021.574,0,.86.008.286-.022.571-.047.854-.081-.571-.027-1.137-.047-1.7-.117a12.946,12.946,0,0,1-1.657-.308,10.266,10.266,0,0,1-1.584-.563A6.892,6.892,0,0,1,1182.691,988.249Z" transform="translate(-1182.263 -985.493)" fill="#f99893"/>
      </g>
      <path id="Trazado_110599" data-name="Trazado 110599" d="M1355.676,541.526c-1.3.153-2.569.373-3.844.553a36.662,36.662,0,0,1-3.845.389,9.957,9.957,0,0,0,3.916.1A14.794,14.794,0,0,0,1355.676,541.526Z" transform="translate(-1239.728 -508.639)" fill="#f99893"/>
      <g id="Grupo_62668" data-name="Grupo 62668" transform="translate(177.409 210.623)">
        <path id="Trazado_110600" data-name="Trazado 110600" d="M1757.812,1611.674h4.736l-11.812-46.377-4.448,1.132Z" transform="translate(-1746.289 -1565.297)" fill="#3d3a55"/>
      </g>
      <g id="Grupo_62671" data-name="Grupo 62671" transform="translate(90.569 210.623)">
        <g id="Grupo_62670" data-name="Grupo 62670">
          <g id="Grupo_62669" data-name="Grupo 62669">
            <path id="Trazado_110601" data-name="Trazado 110601" d="M1257.611,1611.674h4.736l-11.812-46.377-4.448,1.132Z" transform="translate(-1246.087 -1565.297)" fill="#3d3a55"/>
          </g>
        </g>
      </g>
      <g id="Grupo_62672" data-name="Grupo 62672" transform="translate(126.508 210.623)">
        <path id="Trazado_110602" data-name="Trazado 110602" d="M1457.834,1611.674H1453.1l11.811-46.377,4.448,1.132Z" transform="translate(-1453.099 -1565.297)" fill="#3d3a55"/>
      </g>
    </g>
    <rect id="Rectángulo_6408" data-name="Rectángulo 6408" width="3.91" height="55.902" transform="translate(507.758 441.39) rotate(180)" fill="#feb546"/>
    <rect id="Rectángulo_6409" data-name="Rectángulo 6409" width="3.91" height="55.902" transform="translate(486.103 441.39) rotate(180)" fill="#db962c"/>
    <rect id="Rectángulo_6410" data-name="Rectángulo 6410" width="3.91" height="55.902" transform="translate(423.62 385.488)" fill="#feb546"/>
    <rect id="Rectángulo_6411" data-name="Rectángulo 6411" width="3.91" height="55.902" transform="translate(445.275 385.488)" fill="#db962c"/>
    <rect id="Rectángulo_6412" data-name="Rectángulo 6412" width="96.473" height="12.053" transform="translate(513.945 393.835) rotate(180)" fill="#feb546"/>
    <rect id="Rectángulo_6413" data-name="Rectángulo 6413" width="104.027" height="4.65" transform="translate(517.723 382.673) rotate(180)" fill="#db962c"/>
    <g id="Grupo_62677" data-name="Grupo 62677" transform="translate(432.215 343.345)">
      <g id="Grupo_62674" data-name="Grupo 62674" transform="translate(9.167 0)">
        <path id="Trazado_110603" data-name="Trazado 110603" d="M1830.99,1268.486h1.683a1.979,1.979,0,0,0-.995-.257H1789.5c-2.207,0-4,1.353-4,3.022v1.92c0,1.669,1.789,3.022,4,3.022l41.708-.011Z" transform="translate(-1785.504 -1268.229)" fill="#2a2c8c"/>
        <path id="Trazado_110604" data-name="Trazado 110604" d="M1891.387,1268.27c-2.11,0-3.821,1.294-3.821,2.89v2.169c0,1.6,1.711,2.89,3.821,2.89h26.258v-.485h-.108l-6.675-.478-1.349-4s2.6-2.212,2.774-2.269,5.251-.23,5.251-.23h.108v-.482Z" transform="translate(-1869.847 -1268.263)" fill="#07085b"/>
        <path id="Trazado_110605" data-name="Trazado 110605" d="M1919.984,1274.54a4.376,4.376,0,0,1,1.6-3.475h-25.616c-1.938,0-3.51,1.188-3.51,2.655v1.67c0,1.466,1.571,2.655,3.51,2.655h25.616S1919.984,1277.487,1919.984,1274.54Z" transform="translate(-1873.889 -1270.573)" fill="#daeef7"/>
        <path id="Trazado_110606" data-name="Trazado 110606" d="M1892.457,1273.719v1.67a2.049,2.049,0,0,0,.1.637,7.259,7.259,0,0,1,5.672-3.634c7.359-1.156,23.352-1.327,23.352-1.327h-25.616C1894.029,1271.065,1892.457,1272.253,1892.457,1273.719Z" transform="translate(-1873.889 -1270.573)" fill="#daeef7" style="mix-blend-mode: multiply;isolation: isolate"/>
      </g>
      <g id="Grupo_62675" data-name="Grupo 62675" transform="translate(2.477 15.852)">
        <path id="Trazado_110607" data-name="Trazado 110607" d="M1798.453,1359.861h1.905a2.078,2.078,0,0,0-1.126-.322h-47.739c-2.5,0-4.522,1.694-4.522,3.783v2.4c0,2.089,2.025,3.783,4.522,3.783l47.2-.013Z" transform="translate(-1746.971 -1359.539)" fill="#07085b"/>
        <path id="Trazado_110608" data-name="Trazado 110608" d="M1866.809,1359.591c-2.388,0-4.325,1.62-4.325,3.617v2.715c0,2,1.936,3.617,4.325,3.617h29.719v-.607h-.123l-7.555-.6-1.527-5.011s2.947-2.769,3.14-2.841,5.943-.288,5.943-.288h.123v-.6Z" transform="translate(-1842.43 -1359.582)" fill="#55769f"/>
        <path id="Trazado_110609" data-name="Trazado 110609" d="M1899.175,1367.439a5.659,5.659,0,0,1,1.81-4.35h-28.992c-2.194,0-3.973,1.488-3.973,3.323v2.09c0,1.835,1.779,3.323,3.973,3.323h28.992S1899.175,1371.128,1899.175,1367.439Z" transform="translate(-1847.005 -1362.473)" fill="#daeef7"/>
        <path id="Trazado_110610" data-name="Trazado 110610" d="M1868.02,1366.412v2.09a2.816,2.816,0,0,0,.116.8,8.246,8.246,0,0,1,6.419-4.548c8.329-1.447,26.43-1.661,26.43-1.661h-28.992C1869.8,1363.089,1868.02,1364.577,1868.02,1366.412Z" transform="translate(-1847.005 -1362.473)" fill="#daeef7" style="mix-blend-mode: multiply;isolation: isolate"/>
      </g>
      <g id="Grupo_62676" data-name="Grupo 62676" transform="translate(0.676 7.943)">
        <path id="Trazado_110611" data-name="Trazado 110611" d="M1742.6,1314.236h-1.906a2.488,2.488,0,0,1,1.127-.255h47.757c2.5,0,4.524,1.344,4.524,3v1.906c0,1.658-2.026,3-4.524,3l-47.223-.01Z" transform="translate(-1739.978 -1313.981)" fill="#02ccc0"/>
        <path id="Trazado_110612" data-name="Trazado 110612" d="M1766.324,1314.023c2.389,0,4.327,1.285,4.327,2.87v2.154c0,1.585-1.937,2.87-4.327,2.87h-29.73v-.482h.123l7.558-.475,1.528-3.976s-2.948-2.2-3.141-2.254-5.945-.229-5.945-.229h-.123v-.479Z" transform="translate(-1736.594 -1314.016)" fill="#06bfad"/>
        <path id="Trazado_110613" data-name="Trazado 110613" d="M1739.081,1320.25a4.227,4.227,0,0,0-1.811-3.452h29c2.195,0,3.974,1.18,3.974,2.636v1.659c0,1.456-1.779,2.636-3.974,2.636h-29S1739.081,1323.177,1739.081,1320.25Z" transform="translate(-1737.153 -1316.309)" fill="#daeef7"/>
        <path id="Trazado_110614" data-name="Trazado 110614" d="M1770.248,1319.434v1.659a1.812,1.812,0,0,1-.116.632c-.978-1.588-2.853-3.117-6.422-3.609-8.333-1.148-26.44-1.318-26.44-1.318h29C1768.469,1316.8,1770.248,1317.978,1770.248,1319.434Z" transform="translate(-1737.153 -1316.309)" fill="#daeef7" style="mix-blend-mode: multiply;isolation: isolate"/>
        <path id="Trazado_110615" data-name="Trazado 110615" d="M1976.393,1318.889v-1.906c0-1.657-2.026-3-4.524-3h4.535c2.5,0,4.524,1.344,4.524,3v1.906c0,1.658-2.026,3-4.524,3h-4.475C1974.4,1321.868,1976.393,1320.533,1976.393,1318.889Z" transform="translate(-1931.023 -1313.981)" fill="#55769f" opacity="0.5"/>
      </g>
      <path id="Trazado_110616" data-name="Trazado 110616" d="M1739.17,1417.357h-2.055a2.611,2.611,0,0,1,1.215-.285h51.484c2.694,0,4.877,1.5,4.877,3.354v2.13c0,1.852-2.184,3.354-4.877,3.354l-50.908-.012Z" transform="translate(-1736.349 -1391.231)" fill="#02ccc0"/>
      <path id="Trazado_110617" data-name="Trazado 110617" d="M1764.751,1417.117c2.576,0,4.664,1.436,4.664,3.207v2.407c0,1.771-2.088,3.207-4.664,3.207H1732.7v-.538h.133l8.147-.531,1.647-4.442s-3.179-2.455-3.386-2.518-6.409-.255-6.409-.255h-.133v-.536Z" transform="translate(-1732.701 -1391.269)" fill="#06b8a6"/>
      <path id="Trazado_110618" data-name="Trazado 110618" d="M1735.384,1424.075a4.751,4.751,0,0,0-1.952-3.856H1764.7c2.366,0,4.284,1.319,4.284,2.946v1.853c0,1.627-1.918,2.946-4.284,2.946h-31.267S1735.384,1427.346,1735.384,1424.075Z" transform="translate(-1733.305 -1393.832)" fill="#daeef7"/>
      <path id="Trazado_110619" data-name="Trazado 110619" d="M1768.983,1423.165v1.853a2.081,2.081,0,0,1-.125.707c-1.054-1.774-3.075-3.483-6.923-4.032-8.983-1.283-28.5-1.473-28.5-1.473H1764.7C1767.065,1420.219,1768.983,1421.538,1768.983,1423.165Z" transform="translate(-1733.305 -1393.832)" fill="#daeef7" style="mix-blend-mode: multiply;isolation: isolate"/>
    </g>
  </g>
</svg>
