<svg xmlns="http://www.w3.org/2000/svg" xmlns:xlink="http://www.w3.org/1999/xlink" width="374.333" height="333.855" viewBox="0 0 374.333 333.855">
  <defs>
    <linearGradient id="linear-gradient" x1="0.5" x2="0.5" y2="1" gradientUnits="objectBoundingBox">
      <stop offset="0" stop-color="#51eef2"/>
      <stop offset="1" stop-color="#0082af"/>
    </linearGradient>
  </defs>
  <g id="Grupo_62778" data-name="Grupo 62778" transform="translate(-1746.671 576.113)">
    <g id="Grupo_56588" data-name="Grupo 56588" transform="translate(1746.671 -576.113)">
      <g id="Grupo_56029" data-name="Grupo 56029" transform="translate(36.849 80.499)" opacity="0.67">
        <path id="Trazado_101095" data-name="Trazado 101095" d="M1816.592-466.151c18.877-14.958,44.651-17.693,66.666-9.379,29.248,11.049,50.775,39.029,79.182,52.466a88.793,88.793,0,0,0,63.779,4.7c10.18-3.124,20.079-8.138,30.645-8.474,9.358-.3,18.6,3.177,26.555,8.594,23.407,15.94,35.159,49.933,27.266,78.9-4.223,15.508-13.292,28.977-23.855,40.27-21.823,23.337-50.775,38.508-81.034,42.457-16.889,2.2-34.021,1.007-50.848-1.7-36.67-5.9-72.8-19.273-102.993-42.854-36.147-28.231-71.972-77.475-58.438-128.807C1797.306-444.343,1805.528-457.384,1816.592-466.151Z" transform="translate(-1790.593 480.161)" fill="#dcbfff"/>
        <path id="Trazado_101096" data-name="Trazado 101096" d="M2159.087-416.232c-1.189-3.04-2.176-6.9-.173-9.37a5.548,5.548,0,0,1,2.92-1.776c5.292-1.426,10.481,2.641,14.172,7.041a62.625,62.625,0,0,1,8.678,13.639,23.992,23.992,0,0,1,2.471,8.013,10.656,10.656,0,0,1-2.181,7.893C2172.9-377.048,2162.385-407.81,2159.087-416.232Z" transform="translate(-1849.723 471.708)" fill="#dcbfff"/>
      </g>
      <g id="Grupo_56587" data-name="Grupo 56587" transform="translate(0 140.286)">
        <g id="Grupo_56030" data-name="Grupo 56030" transform="translate(301.528 60.876)">
          <path id="Trazado_101097" data-name="Trazado 101097" d="M2119.606-330.793c2.52-4.954,9.5-7.677,14.3-3.473,1.342,1.174,2.07,2.43,3.259,3.611a2.338,2.338,0,0,0,3.73-.513,7.164,7.164,0,0,1,6.3-3.512,6.92,6.92,0,0,1,6.5,2.9c2.663,4.462.607,7.516,3.671,9.861,3.573,1.918,5.687-1.516,10.75-1.27,3.933.191,6.181,4.5,5.037,7.795a2.2,2.2,0,0,1-2.157,1.55h-58.247c-3.1,0-6.517-.3-6.672-4.183a5.549,5.549,0,0,1,4.422-5.753c4.1-.623,4.418,1.235,6.8.759C2119.712-323.5,2117.781-328.186,2119.606-330.793Z" transform="translate(-2106.079 336.337)" fill="#a271dc"/>
        </g>
        <g id="Grupo_56063" data-name="Grupo 56063">
          <path id="Trazado_101118" data-name="Trazado 101118" d="M1810.921-402.284c-3.009-5.912-11.336-9.161-17.069-4.144-1.6,1.4-2.469,2.9-3.885,4.308a2.785,2.785,0,0,1-4.447-.612,8.554,8.554,0,0,0-7.517-4.19c-3.775-.229-6.565,1.461-7.759,3.465-3.177,5.323-.722,8.969-4.38,11.765-4.263,2.289-6.785-1.809-12.828-1.514-4.692.227-7.376,5.369-6.01,9.3a2.621,2.621,0,0,0,2.573,1.846h69.5c3.7,0,7.776-.362,7.959-4.992a6.622,6.622,0,0,0-5.274-6.864c-4.89-.744-5.272,1.474-8.113.9C1810.794-393.584,1813.1-399.173,1810.921-402.284Z" transform="translate(-1746.671 408.899)" fill="#a271dc"/>
        </g>
      </g>
      <g id="Grupo_56608" data-name="Grupo 56608" transform="translate(97.167)">
        <g id="Grupo_56597" data-name="Grupo 56597" transform="translate(0 98.878)">
          <path id="Trazado_102575" data-name="Trazado 102575" d="M1874.1-449.967l4.341-1.024,100.448-6.343s6.729-.984,10.2,5.017l1.447,4.051L2052.53-251.8s1.147,1.92.522,5.536-3.227,7.282-8.949,8.355l-109.578,10.284s-15.848-.5-19.586-14.386L1863.59-431.861s-1.829-6.989,2.268-12.013C1865.858-443.874,1869.061-448.9,1874.1-449.967Z" transform="translate(-1862.601 458.116)" fill="#6a6a8a"/>
          <g id="Grupo_56593" data-name="Grupo 56593" transform="translate(2.344 0.722)">
            <path id="Trazado_102576" data-name="Trazado 102576" d="M2056.787-253.191l-61.548-195.076-1.447-4.051c-3.475-6-10.2-5.017-10.2-5.017l-91.243,5.762,93.8-2.284s4.215-.857,7.276,8.342,63.362,192.325,63.362,192.325Z" transform="translate(-1869.642 457.395)" fill="#babaf5"/>
            <path id="Trazado_102577" data-name="Trazado 102577" d="M2058.169-266.9l-.018-.011s12.391,43.213,10.02,47.836c-2.262,4.41-80.278,11.542-80.278,11.542s68.693-4.916,84.963-6.875a10.151,10.151,0,0,0,.28-1.174c.625-3.616-.522-5.536-.522-5.536Z" transform="translate(-1885.029 426.719)" fill="#babaf5"/>
            <path id="Trazado_102578" data-name="Trazado 102578" d="M1887.985-450.455l-9.2.581-4.341,1.024c-5.042,1.068-8.245,6.093-8.245,6.093a10.752,10.752,0,0,0-.911,1.327c-.153,2.987,15.735,47.272,15.735,47.272s-9.67-42.157-7.523-48.839S1887.95-450.452,1887.985-450.455Z" transform="translate(-1865.284 456.277)" fill="#babaf5"/>
          </g>
          <path id="Trazado_102579" data-name="Trazado 102579" d="M1888.142-440.931l88.278-5.7s7.139-.978,10.518,5.009l1.633,3.9,56.385,177.709s1.54,6.175-4.457,8.788l-3.544.555-91.479,8.49a13.134,13.134,0,0,1-12.662-9.038l-17.873-61.61-16.738-57.5L1880.62-431.04a7.888,7.888,0,0,1,1.407-7.453C1884.937-441.765,1888.142-440.931,1888.142-440.931Z" transform="translate(-1865.347 456.393)" fill="#f2fbfb"/>
          <path id="Trazado_102580" data-name="Trazado 102580" d="M1875.527-449.129s-5.748,2.007-6.781,7.912l-.136,4.367,1.146,4.284,52.631,186.42s.584,7.249,9.335,10.879c0,0,1.269,1.362,7.776,1.467l110.6-9.766s2.452-.2,2.929-1.362a9.059,9.059,0,0,1-7.356,8.01l-2.9.267-108.55,10.1a23.014,23.014,0,0,1-19.065-13.2l-22.46-83.144-12.115-44.424-17.324-65.066s-1.765-6.624,4.891-13.014C1868.152-445.4,1871.755-448.539,1875.527-449.129Z" transform="translate(-1862.579 456.785)" fill="#a2c1d4"/>
          <path id="Trazado_102581" data-name="Trazado 102581" d="M1934.528-219.4l-.343-1.091c-6.4-3.822-6.89-9.64-6.89-9.64L1893.8-348.762l-.28-.89s30.217,117.958,33.063,124.056S1934.528-219.4,1934.528-219.4Z" transform="translate(-1867.487 440.766)" fill="#f2fbfb"/>
          <path id="Trazado_102582" data-name="Trazado 102582" d="M1988.572-437.722l-1.633-3.9c-3.379-5.988-10.518-5.009-10.518-5.009l-88.278,5.7s-3.206-.835-6.116,2.438a7.888,7.888,0,0,0-1.407,7.453l.269.93,107.711-7.524Z" transform="translate(-1865.347 456.393)" fill="#607d88"/>
          <path id="Trazado_102583" data-name="Trazado 102583" d="M2058.267-197.722a9.059,9.059,0,0,0,7.356-8.01c-.477,1.167-2.929,1.362-2.929,1.362l-110.6,9.766c-6.508-.1-7.776-1.467-7.776-1.467a18.407,18.407,0,0,1-3.072-1.621c1.284,1.8,2.507,3.981,2.483,5.748a6.849,6.849,0,0,1-1.472,3.763,20.059,20.059,0,0,0,4.563.826l108.55-10.1Z" transform="translate(-1875.172 417.589)" fill="#5c7f94" opacity="0.47"/>
          <g id="Grupo_56594" data-name="Grupo 56594">
            <path id="Trazado_102584" data-name="Trazado 102584" d="M2053.28-251.431l-63.175-199.719a10.143,10.143,0,0,0-9.5-7.1v-.005l-.121.008c-.239,0-.479,0-.722.016l-31.526,2.029-69.347,4.4a12.188,12.188,0,0,0-1.387.166,16.194,16.194,0,0,0-11.968,6.738,16.2,16.2,0,0,0-2.473,13.709l50.832,187.946a21.482,21.482,0,0,0,16.759,15.539,21.616,21.616,0,0,0,6.041.278l107.363-10.086a10.679,10.679,0,0,0,7.94-4.754A10.681,10.681,0,0,0,2053.28-251.431Zm-64.363-199.344,63.175,199.72a9.549,9.549,0,0,1,.371,1.8h-.011a4.833,4.833,0,0,1-.4,2.058,2.659,2.659,0,0,1-2.191,1.494L1939.7-235.843A15.761,15.761,0,0,1,1923-247.132l-53.551-190.509a10.014,10.014,0,0,1,1.5-8.543,10.482,10.482,0,0,1,6.611-4.207c.076-.006.149-.022.224-.027l87.342-5.623,14.931-.947a8.981,8.981,0,0,1,2.016.137A8.9,8.9,0,0,1,1988.918-450.776Zm55.019,212.022-107.363,10.086a20.248,20.248,0,0,1-21.48-14.9l-50.832-187.945a14.96,14.96,0,0,1,2.284-12.657,15,15,0,0,1,4.8-4.316,11.68,11.68,0,0,0-1.389,1.591,11.241,11.241,0,0,0-1.684,9.589L1921.82-246.8A16.857,16.857,0,0,0,1935-234.848a17.534,17.534,0,0,0,4.8.232l110.165-9.859a3.981,3.981,0,0,0,2.1-.837,9.517,9.517,0,0,1-1.118,2.358A9.447,9.447,0,0,1,2043.937-238.754Z" transform="translate(-1862.489 458.255)" fill="#272132"/>
            <path id="Trazado_102585" data-name="Trazado 102585" d="M1942.433-241.905a13.409,13.409,0,0,1-10.441-9.377l-52.33-180.433a7.679,7.679,0,0,1,1.1-6.581,8,8,0,0,1,6.076-3.38l90.5-5.847a10.706,10.706,0,0,1,10.97,7.374l56.96,179.485a7.786,7.786,0,0,1-.936,6.682,8.1,8.1,0,0,1-6.037,3.587l-92,8.667A13.828,13.828,0,0,1,1942.433-241.905Zm37.431-204.188a9.76,9.76,0,0,0-2.443-.148l-90.5,5.846a6.724,6.724,0,0,0-5.107,2.837,6.4,6.4,0,0,0-.917,5.484l52.33,180.432a12.218,12.218,0,0,0,12.948,8.633l92-8.666a6.826,6.826,0,0,0,5.087-3.017,6.5,6.5,0,0,0,.784-5.583l-56.96-179.486A9.349,9.349,0,0,0,1979.864-446.093Z" transform="translate(-1865.205 456.531)" fill="#272132"/>
          </g>
          <path id="Trazado_102586" data-name="Trazado 102586" d="M1906.751-384.982l29.784,101.432a3.531,3.531,0,0,0,3.793,2.513l82.9-7.181a3.531,3.531,0,0,0,2.967-4.552L1995.4-392.213a3.529,3.529,0,0,0-3.553-2.48l-81.893,5.191A3.53,3.53,0,0,0,1906.751-384.982Z" transform="translate(-1869.594 448.02)" fill="url(#linear-gradient)"/>
          <path id="Trazado_102587" data-name="Trazado 102587" d="M1917.889-404.045c-.315,4.056-4.163,7.065-8.6,6.721s-7.769-3.912-7.453-7.968,4.163-7.065,8.6-6.721S1918.2-408.1,1917.889-404.045Z" transform="translate(-1868.823 450.813)" fill="#91a9b8"/>
          <path id="Trazado_102588" data-name="Trazado 102588" d="M1926.619-408.244l1.425,4.717a2.23,2.23,0,0,0,2.253,1.583l51.066-2.713a2.23,2.23,0,0,0,2-2.939l-1.643-4.885a2.231,2.231,0,0,0-2.241-1.515l-50.846,2.88A2.23,2.23,0,0,0,1926.619-408.244Z" transform="translate(-1872.801 451.128)" fill="#91a9b8"/>
          <path id="Trazado_102589" data-name="Trazado 102589" d="M1946.255-253.926l55.68-4.877,1.032,3.527-55.809,4.758Z" transform="translate(-1875.979 426.135)" fill="#91a9b8"/>
          <path id="Trazado_102590" data-name="Trazado 102590" d="M1948.789-245.445l41.53-3.863,1.033,3.527-41.659,3.744Z" transform="translate(-1876.387 424.606)" fill="#91a9b8"/>
          <path id="Trazado_102591" data-name="Trazado 102591" d="M2046.354-256.162a3.085,3.085,0,0,0,.9-1.845,3.313,3.313,0,0,0-3.021-3.576,3.386,3.386,0,0,0-3.48,1.884,3.487,3.487,0,0,0-2.336-1.269,3.312,3.312,0,0,0-3.738,2.817,3.225,3.225,0,0,0,1.826,3.221l4.789,3.058a1.5,1.5,0,0,0,2.021-.414Z" transform="translate(-1890.216 426.587)" fill="#ff6279"/>
          <path id="Trazado_102592" data-name="Trazado 102592" d="M2006.576-194.748l16.125-1.467a1.207,1.207,0,0,1,1.3,1.426l-.011.06a1.209,1.209,0,0,1-1.081.979l-16.114,1.405a1.207,1.207,0,0,1-1.29-1.426h0A1.206,1.206,0,0,1,2006.576-194.748Z" transform="translate(-1885.516 416.057)" fill="#55556e"/>
          <path id="Trazado_102593" data-name="Trazado 102593" d="M1955.251-188.824c.071.987,1.333,1.7,2.821,1.595s2.636-.992,2.566-1.978-1.333-1.7-2.82-1.594S1955.181-189.809,1955.251-188.824Z" transform="translate(-1877.427 415.186)" fill="#55556e"/>
          <path id="Trazado_102594" data-name="Trazado 102594" d="M1881.875-380.6l6.668,23.454h0a3.048,3.048,0,0,1-3.777-2.139l-4.8-17.786a3.048,3.048,0,0,1,1.755-3.6h0A.11.11,0,0,1,1881.875-380.6Z" transform="translate(-1865.288 445.762)" fill="#5c7f94"/>
          <g id="Grupo_56595" data-name="Grupo 56595" transform="translate(7.619 39.889)">
            <path id="Trazado_102595" data-name="Trazado 102595" d="M1879.926-388.31l-6.346-22.319a.108.108,0,0,0-.148-.072,3.05,3.05,0,0,0-1.757,3.6l4.8,17.786a3.006,3.006,0,0,0,.774,1.341,1.525,1.525,0,0,0,1.914.169Z" transform="translate(-1871.57 410.71)" fill="#5c7f94"/>
            <path id="Trazado_102596" data-name="Trazado 102596" d="M1880.112-388.31l-6.346-22.319a.108.108,0,0,0-.148-.072c-.049.021-.09.05-.137.073a3.329,3.329,0,0,0-.694,2.708c.364,1.722,5.158,18.575,5.158,18.575A1.833,1.833,0,0,0,1880.112-388.31Z" transform="translate(-1871.756 410.71)" fill="#375767"/>
          </g>
          <g id="Grupo_56596" data-name="Grupo 56596" transform="translate(14.616 64.878)">
            <path id="Trazado_102597" data-name="Trazado 102597" d="M1888.267-358.524l-6.347-22.319a.108.108,0,0,0-.148-.072,3.05,3.05,0,0,0-1.757,3.6l4.8,17.786a3.008,3.008,0,0,0,.773,1.341,1.525,1.525,0,0,0,1.914.169Z" transform="translate(-1879.91 380.924)" fill="#5c7f94"/>
            <path id="Trazado_102598" data-name="Trazado 102598" d="M1888.452-358.524l-6.347-22.319a.108.108,0,0,0-.148-.072c-.049.021-.09.05-.137.074a3.325,3.325,0,0,0-.693,2.708c.363,1.722,5.157,18.574,5.157,18.574A1.833,1.833,0,0,0,1888.452-358.524Z" transform="translate(-1880.096 380.924)" fill="#375767"/>
          </g>
          <path id="Trazado_102599" data-name="Trazado 102599" d="M1911.375-412.013a8.612,8.612,0,0,0-3.718.528,9.656,9.656,0,0,1,8.126,3.031c2.5,2.629,1.537,7.218-.425,9.913a7.14,7.14,0,0,0,3.47-5.5C1919.144-408.1,1915.807-411.668,1911.375-412.013Z" transform="translate(-1869.763 450.812)" fill="#647f8f" opacity="0.34"/>
          <path id="Trazado_102600" data-name="Trazado 102600" d="M1930.613-403.543c-1.633-1.039-2.683-3.559-3.821-5.594a2.2,2.2,0,0,0-.172,1.676l1.425,4.717a2.23,2.23,0,0,0,2.253,1.583l51.066-2.713a2.218,2.218,0,0,0,2-1.581C1965.727-404.713,1932.258-402.495,1930.613-403.543Z" transform="translate(-1872.802 450.345)" fill="#647f8f" opacity="0.55"/>
          <path id="Trazado_102601" data-name="Trazado 102601" d="M1890.525-444.925a2.576,2.576,0,0,1-3.1,1.9,2.577,2.577,0,0,1-2.191-2.9,2.575,2.575,0,0,1,3.1-1.9A2.575,2.575,0,0,1,1890.525-444.925Z" transform="translate(-1866.146 456.584)" fill="#3d3d51"/>
          <path id="Trazado_102602" data-name="Trazado 102602" d="M1950.545-447.389l-23.905,1.175a1.511,1.511,0,0,1-1.584-1.435h0a1.511,1.511,0,0,1,1.435-1.584l23.905-1.175a1.511,1.511,0,0,1,1.584,1.435h0A1.511,1.511,0,0,1,1950.545-447.389Z" transform="translate(-1872.565 456.992)" fill="#3d3d51"/>
          <path id="Trazado_102603" data-name="Trazado 102603" d="M1990.126-320.291c-3.524-7.775-5.652-9.832-6.051-13.1-.175-1.433-2.449-7.7-3.426-8.724a35.419,35.419,0,0,1-3.641-4.353,6.136,6.136,0,0,0-5.854-2.665c-4.16.315-4.395,4.356-6.961,14.253-2.19,8.449,3.454,17.09,8.334,20.487,4.242,2.952,6.944,2.571,12.575,6.566S1993.649-312.516,1990.126-320.291Zm-17.735,1.6a15.436,15.436,0,0,1-4.966-12.109.607.607,0,0,1,1.189-.141,48.331,48.331,0,0,0,4.7,11.485A.6.6,0,0,1,1972.391-318.688Z" transform="translate(-1878.79 440.686)" fill="#371666"/>
        </g>
        <g id="Grupo_56607" data-name="Grupo 56607" transform="translate(84.837)">
          <g id="Grupo_56601" data-name="Grupo 56601" transform="translate(0.599 30.463)">
            <g id="Grupo_56599" data-name="Grupo 56599">
              <path id="Trazado_102604" data-name="Trazado 102604" d="M2006.458-431.162s-10.078,5.717-11.047,5.7-3.487-1.712-3.487-1.712-3.2,3.094-6.521,2.337-4.539-1.992-4.539-1.992a5.2,5.2,0,0,1-4.858.221c-2.358-1.31-5.577-5.318-8.518-11.123s-3.5-9.794-3-11.159a11.492,11.492,0,0,1,1.844-2.894s-.909-3.9.338-5.935a20.245,20.245,0,0,1,4.508-4.346s-.4-3.291.914-4.846l43.524-24.374s2.6-2.167,4.715-1.785,4.019,3.191,4.019,3.191l3.652-1.743s-2.22-4.128-.524-7.532,12.618-15.316,17.039-21.129l3.706-5.462.237-1.253s-2.222-11.849,3.47-12.8c0,0,4.106-.279,12.854,9.641s18.82,29.574,18.82,29.574,8.322,17.2,11.181,28.375,4.405,20.044-.578,21.536c0,0-3.609,1.081-11.349-7.3l-1.116.327-9.033-.246-9.579.93-5.853.94-7.181,1.968-1.824-.263-3.365-2.743-2.948,1.876s2.371,1.909,1.6,4.436-10.79,7.772-10.79,7.772l-1.04,1.214,1.264,8.7,8.771,32.726s3,7.88,1.933,9.849-9.63,6.85-11.331,6.779-8.185-14.191-8.185-14.191Z" transform="translate(-1964.325 539.803)" fill="#fffaf7"/>
              <g id="Grupo_56598" data-name="Grupo 56598" transform="translate(3.313 78.102)">
                <path id="Trazado_102605" data-name="Trazado 102605" d="M2040.563-416.164l-1.264-8.7.08-.094.044-1.948,3.376-3.743-.693-.612-4.572-3.578-1.489.485-24.689,14.279,1.011,2.2c.253-.27,21.467-12.631,21.467-12.631s-1.37,1.606.2,9.088,13.037,45.487,13.166,46.879-8.471,6.351-8.471,6.351-.009.112-.007.282c.5.67.925,1.086,1.211,1.1,1.7.071,10.265-4.81,11.331-6.779s-1.933-9.849-1.933-9.849Z" transform="translate(-1975.212 444.797)" fill="#b3a4c8"/>
                <path id="Trazado_102606" data-name="Trazado 102606" d="M1992.384-412.026l-.645-.975a61.842,61.842,0,0,1-13.027-15.131,53.176,53.176,0,0,1-6.968-18.578s.654,10.489,1.963,14.454,10.189,14.345,10.189,14.345-1.454,2.258-2.635,1.575-11.731-12.234-11.731-12.234,4.713,9.982,3.616,10.609c-.857.489-3.676-2.958-4.873-4.5,2.9,5.648,6.051,9.548,8.369,10.837a5.2,5.2,0,0,0,4.858-.221s1.216,1.234,4.539,1.992C1988.908-409.195,1991.679-411.407,1992.384-412.026Z" transform="translate(-1968.274 446.709)" fill="#b3a4c8"/>
              </g>
            </g>
            <g id="Grupo_56600" data-name="Grupo 56600" transform="translate(6.66 4.784)">
              <path id="Trazado_102607" data-name="Trazado 102607" d="M2039.48-496.529a6,6,0,0,0-.627,3.321c.018,2.429,7.106,23.086,15.741,35,0,0,4.765,6.537,5.679,6.521a18.707,18.707,0,0,0,2.33-.269s10.293-2.532,15.512-2.665,12.2-.512,12.2-.512l4.284.091-10.439-14.09-7.182-12.356-5.477-10.69-4.424-10.74-3.6-10.26-1.618-6.365-1.52-3.936L2050.321-509.8l-5.507,6.39Z" transform="translate(-1982.987 532.391)" fill="#f9e478"/>
              <path id="Trazado_102608" data-name="Trazado 102608" d="M2077.5-481.493l-5.477-10.69-4.424-10.74-3.6-10.26-1.618-6.366-1.52-3.936-2.705,3.7c.195,7.166.882,20.713,5.658,30.688,8.155,17.026,14.2,23.564,14.2,23.564s-13.6,2.578-16.036,2.725c-2.033.122-15.486-16.013-19.866-21.337,2.842,7.688,7.624,18.512,13.007,25.936,0,0,4.765,6.537,5.679,6.521a18.707,18.707,0,0,0,2.33-.269s10.293-2.532,15.512-2.665,12.2-.512,12.2-.512l4.284.091-10.439-14.09Z" transform="translate(-1983.511 532.391)" fill="#d8bc45"/>
              <path id="Trazado_102609" data-name="Trazado 102609" d="M2025.628-480.925s-2.419,1.045-2.713,1.96.718,11.284,7.1,21.456,10.771,12.273,10.771,12.273l2.451-.992a5.382,5.382,0,0,1,1.743,3.2c.04,1.683-1.1,2.93-1.828,3.875s-9.438,5.065-9.438,5.065-1.191-1.073.548-2.259a6.63,6.63,0,0,0,2.241-2.243l-2.181-1.926-2.8-2.164-1.769.386-20.058,11.248-4.631,3.031,2.676,5.814s-8.951,6.39-11.4,5.722-10.085-7.635-13.923-12.589-8.644-18.088-8.644-18.088l-1.509-7.738a5.823,5.823,0,0,1,2.781-4.14c2.415-1.241,21.044-11.661,21.044-11.661l17.319-9.578s5.763-4.493,8.2-3.84A7.97,7.97,0,0,1,2025.628-480.925Z" transform="translate(-1972.263 526.061)" fill="#f9e478"/>
              <path id="Trazado_102610" data-name="Trazado 102610" d="M2043.6-444.9l-2.451.992s-4.39-2.1-10.771-12.273a48.806,48.806,0,0,1-7.074-19.729c-4.726,3.439,6.932,25.577,6.8,28.055-.131,2.556-29.464,16.558-33.917,16.715-3.449.122-16.121-9.368-21.668-13.659,1.214,3.187,5.067,12.942,8.256,17.056,3.838,4.953,11.477,11.921,13.923,12.589s11.4-5.722,11.4-5.722l-2.676-5.814,4.631-3.031,20.058-11.248,1.769-.386,2.8,2.164,2.181,1.926a6.63,6.63,0,0,1-2.241,2.243c-1.739,1.186-.548,2.259-.548,2.259s8.714-4.119,9.438-5.065,1.868-2.192,1.828-3.875A5.382,5.382,0,0,0,2043.6-444.9Z" transform="translate(-1972.627 524.729)" fill="#d8bc45"/>
              <path id="Trazado_102611" data-name="Trazado 102611" d="M2070.718-534.089s3.445-.762,11.274,10.38,13.538,22.4,19.46,34.746a129.25,129.25,0,0,1,9.114,27.144c-.046.438.449,5.942-1.592,5.87s-10.467-5.989-19.582-23.47-13.938-28.574-13.938-28.574S2065.321-531.093,2070.718-534.089Z" transform="translate(-1987.863 534.1)" fill="#d8bc45"/>
            </g>
            <path id="Trazado_102612" data-name="Trazado 102612" d="M2082.409-490.635s2.392-.7,3.812.356,5.688,9.188,5.851,10.762-2.35,3.576-2.35,3.576l-4.554-8.481S2082.1-490.3,2082.409-490.635Z" transform="translate(-1983.338 531.921)" fill="#9e948f"/>
          </g>
          <g id="Grupo_56604" data-name="Grupo 56604" transform="translate(5.978 127.484)">
            <path id="Trazado_102613" data-name="Trazado 102613" d="M1985.6-325.455l15.391-20.21s1.234-1.758,2.436-2.055a7.278,7.278,0,0,0,3.631-2.615c.735-1.118.973-2.384,2.03-3.545s12.383-12.321,12.383-12.321l6.344-7.246s4.784-5.492,5.832-6.756,10-3.874,10.527-5.819a9.585,9.585,0,0,0-.5-5.685,19.114,19.114,0,0,0-1.383-2.108l-1.518-.286-3.177,1.568L2034-391.5l2.036-2.183,3.028-1.89.911,2.391s3.063-1.8,3.095-4.464a19.251,19.251,0,0,0-1.195-5.883l-.9-1.636a15.507,15.507,0,0,0,.052-3.6,4.7,4.7,0,0,0-2.893-3.27,10.533,10.533,0,0,0-3.388.461l-15.413,5.892-.919-.122,7.742-6.605s5.532-3.775,6.449-3.917a3.34,3.34,0,0,1,1.215-.053l.2,1.943s2.779-1.984,3.174-3.425-1.049-4.712-2.347-5.324a17.766,17.766,0,0,0-2.595-.961s-2.183-.156-6.263,1.542-13.842,9.226-13.842,9.226-4.7,3.252-7.043,6.791-5.569,9.521-5.569,9.521l-5.48,12.385L1988.9-372.1l-1.994,5.02-10.026,7.327s-5.626,3.813-6.088,6.447,1.979,11.165,1.979,11.165l5.239,11.1s2.927,4.372,4.693,5.39A2.687,2.687,0,0,0,1985.6-325.455Z" transform="translate(-1970.736 424.158)" fill="#ffcaa6"/>
            <g id="Grupo_56602" data-name="Grupo 56602" transform="translate(3.223 0.293)">
              <path id="Trazado_102614" data-name="Trazado 102614" d="M1974.577-357.255s14.556-7.015,15.69-8.427,16.079-38.072,19.653-42.061,18.719-14.569,21.626-14.791a27.167,27.167,0,0,1,5.012.05,9.477,9.477,0,0,0-7.741-.88c-4.455,1.376-20.447,12.812-23.092,16.824s-15.675,33.212-15.675,33.212l-2.522,6.308Z" transform="translate(-1974.577 423.809)" fill="#fff4ca"/>
              <path id="Trazado_102615" data-name="Trazado 102615" d="M2023.2-400.684s7.958-.93,9.254-1.354,12.923-5.648,14.225-5.462a9.543,9.543,0,0,1,2.8,1.045s-1.477-3.364-3.148-3.307a25.441,25.441,0,0,0-5.487,1.586l-14.169,5.49Z" transform="translate(-1982.407 421.547)" fill="#fff4ca"/>
              <path id="Trazado_102616" data-name="Trazado 102616" d="M2052.481-398.443s-4.587.985-5.257,1.207-11.768,4.133-11.768,4.133l2.42-2.592s8.749-5.228,11.26-5.278S2052.356-401.093,2052.481-398.443Z" transform="translate(-1984.381 420.134)" fill="#fff4ca"/>
            </g>
            <g id="Grupo_56603" data-name="Grupo 56603" transform="translate(0 4.348)">
              <path id="Trazado_102617" data-name="Trazado 102617" d="M2050.642-401.646a7.246,7.246,0,0,0-2.217-.008c-1.186.187-2.53.55-2.53.55l-8.731,4.728-1.579,2.11-2.6,1.493-1.431,1.7-.309,1.2s-.687-3.824.451-5.246a20.658,20.658,0,0,1,3.237-2.958s7.484-5.245,14.008-6.932C2053.556-406.2,2050.642-401.646,2050.642-401.646Z" transform="translate(-1980.446 416.758)" fill="#de9268"/>
              <path id="Trazado_102618" data-name="Trazado 102618" d="M2022.77-402.021s1.792-6.444,2.463-7.222,12.635-9.5,14.715-9.693,5.165.388,5.31.73a6.685,6.685,0,0,1,.128,1.543l-1.061,1.738-1.924,1.316-.545-1.834-2,.469-3.342,1.718-5.421,4.058-3.479,3.167-1.487,1.5Z" transform="translate(-1979.115 418.975)" fill="#de9268"/>
              <path id="Trazado_102619" data-name="Trazado 102619" d="M2043.677-387.141c-.1-.18-.2-.362-.315-.542l.74,3.585s-.531-1.242-1.427-1.422-14.34,2.6-14.34,2.6l2.914-2.428s2.726-1.239,5.318-2.33l-2.567.735,2.036-2.183,3.028-1.89.744,1.953-.821.405a13.31,13.31,0,0,1,1.894-.625,2.2,2.2,0,0,1,2.083.975c-.363-.541-.671-.946-.671-.946l-1.186-.224a5.175,5.175,0,0,0,1.962-3.611,13.23,13.23,0,0,0-.3-2.722c-4.369.133-11.323,4.764-15.136,7.56a7.907,7.907,0,0,0-3.144,5.177,42.5,42.5,0,0,1-1.318,6.123c-.873,2.639-10.521,16.355-14.026,21.29a7.172,7.172,0,0,1-3.2,2.505,15.61,15.61,0,0,0-3.623,1.817,11.654,11.654,0,0,0-1.638,3.247,14.264,14.264,0,0,1-3.713,5.42c-4.524,4.116-13.377,11.816-15.2,10.762-1.972-1.138-7.834-13.543-10.138-18.546a4.393,4.393,0,0,0-.841,1.714c-.462,2.634,1.979,11.165,1.979,11.165l5.239,11.1s2.927,4.372,4.693,5.39a2.687,2.687,0,0,0,2.9.194l15.391-20.21s1.234-1.758,2.436-2.055a7.278,7.278,0,0,0,3.631-2.615c.735-1.118.973-2.384,2.03-3.545s12.383-12.321,12.383-12.321l6.344-7.246s4.784-5.492,5.832-6.756,10-3.874,10.527-5.819A9.585,9.585,0,0,0,2043.677-387.141Z" transform="translate(-1970.736 415.244)" fill="#de9268"/>
            </g>
          </g>
          <g id="Grupo_56605" data-name="Grupo 56605" transform="translate(0 29.899)">
            <path id="Trazado_102620" data-name="Trazado 102620" d="M2054.431-539.9c-.017.042-.055.115-.045.121a2.089,2.089,0,0,0,.315.2,19.59,19.59,0,0,1,4.269,2.852,53.242,53.242,0,0,1,6.416,6.561,112.608,112.608,0,0,1,7.9,10.693,182.962,182.962,0,0,1,12.121,21.553,169.512,169.512,0,0,1,8.1,19.769,94.89,94.89,0,0,1,3.418,12.839,40.524,40.524,0,0,1,.769,7.342,10.927,10.927,0,0,1-.27,2.818c-.031.117-.074.241.029.349l-.422,1.591c-.2.078-.19.278-.246.433a3.541,3.541,0,0,1-4.176,2.424,9.669,9.669,0,0,1-3.183-1.244,25.054,25.054,0,0,1-4.217-3.194c-.679-.622-1.336-1.267-1.986-1.92a.94.94,0,0,0-.779-.339,20.435,20.435,0,0,1-2.458-.134,67.15,67.15,0,0,0-10.136.249c-5.16.472-10.269,1.274-15.354,2.255-1.295.25-2.6.459-3.9.67a8.558,8.558,0,0,1-1.783.128,2.153,2.153,0,0,1-1.055-.317,12.39,12.39,0,0,1-2.4-1.881c-.121-.123-.245-.243-.384-.381l-2.238,1.218c.031.231.207.3.325.4a4.224,4.224,0,0,1-.4,6.514c-.534.366-1.071.73-1.628,1.059q-2.352,1.384-4.725,2.734c-.824.466-1.674.884-2.512,1.325a2,2,0,0,0-.563.332c-.019.2.142.185.237.241a2.083,2.083,0,0,0,.267.133,3.552,3.552,0,0,1,2.028,2.169,13.409,13.409,0,0,1,.8,3.026,3.2,3.2,0,0,1-1.4,3.241,8.007,8.007,0,0,1-1.221.721,1.2,1.2,0,0,0-.539.318l.356,1.994c.212.122.372.009.53-.026a13.233,13.233,0,0,1,1.688-.306,3.759,3.759,0,0,1,3.751,1.808,4.316,4.316,0,0,1,.478.928,7.769,7.769,0,0,1,.273,4.625,1.3,1.3,0,0,0-.017.2,6.608,6.608,0,0,1,1.349,2.913,16.326,16.326,0,0,1,.692,4.337,3.464,3.464,0,0,1-.393,1.654,10.792,10.792,0,0,1-.545.975c-.207.305-.465.576-.712.878a8.743,8.743,0,0,1,.835.487,3.211,3.211,0,0,1,.869,1.015,9.118,9.118,0,0,1,1.278,5.947,6.749,6.749,0,0,1-.168.8,2.3,2.3,0,0,1-1.285,1.561,2.817,2.817,0,0,0-.8.46c.161.539.318,1.088.489,1.633.791,2.52,1.468,5.072,2.13,7.628.118.457.2.923.289,1.388a2.561,2.561,0,0,1-.63,2.219,6.739,6.739,0,0,1-.674.7c-.528.456-1.051.923-1.617,1.327a39.345,39.345,0,0,1-7.755,4.322,3.348,3.348,0,0,1-1.222.315,1.666,1.666,0,0,1-1.279-.468,11.4,11.4,0,0,1-1.888-2.4c-.878-1.451-1.691-2.937-2.493-4.431-.1-.193-.216-.383-.346-.615-.332.207-.473.54-.72.768a6.327,6.327,0,0,0-.712.763,100.334,100.334,0,0,1-10.787,11.572c-1.361,1.279-2.742,2.537-4.108,3.812-.673.629-1.327,1.279-1.994,1.915a5.236,5.236,0,0,0-1.281,1.993,13.871,13.871,0,0,1-.793,1.934,4.335,4.335,0,0,1-1.525,1.6,17.584,17.584,0,0,1-3.295,1.585,1.529,1.529,0,0,0-.717.5c-.523.666-1.063,1.318-1.563,2-2.43,3.311-4.836,6.64-7.276,9.943-1.892,2.563-3.82,5.1-5.734,7.647a9.972,9.972,0,0,1-1.027,1.184,1.787,1.787,0,0,1-1.467.595,1.41,1.41,0,0,0-.8.083l-1.3-.345a.126.126,0,0,0-.067-.172,10.7,10.7,0,0,1-3.327-3.061,30.4,30.4,0,0,1-3.425-5.777c-2.3-5.014-4.671-10.412-5.39-15.887-.1-.763-.16-1.534-.209-2.3a3.225,3.225,0,0,1,.214-1.539.546.546,0,0,0,.051-.14,4.186,4.186,0,0,1,1.38-2.249c2.47-2.613,6.032-4.781,8.8-7.062,1.752-1.441,3.556-2.814,5.363-4.184a2.685,2.685,0,0,0,.931-1.3c.743-2.036,1.526-4.058,2.306-6.081q.807-2.093,1.648-4.171c.623-1.549,1.248-3.1,1.9-4.634.718-1.7,1.458-3.387,2.2-5.073q1.8-4.066,3.759-8.056c.794-1.607,1.545-3.238,2.442-4.79.946-1.638,1.828-3.312,2.934-4.855a23.393,23.393,0,0,1,3.574-4.2,1.626,1.626,0,0,0,.164-.2,7.217,7.217,0,0,0-.586-1c-.2-.03-.329.109-.469.195-1.339.821-2.717,1.573-4.1,2.315-1.01.541-2,1.117-3.014,1.656-.769.409-1.539.826-2.339,1.167a2.509,2.509,0,0,1-2.289-.287c-.5-.281-.965-.614-1.449-.919-.124-.078-.259-.139-.409-.217-.987.423-1.968.847-2.953,1.263-.413.174-.829.341-1.251.491a5.617,5.617,0,0,1-4.153-.153,15.459,15.459,0,0,1-2.715-1.462,10.624,10.624,0,0,1-1.8.45,5.927,5.927,0,0,1-3.158-.3,5.838,5.838,0,0,1-1.856-1.228,25.493,25.493,0,0,1-2.519-2.753,47.5,47.5,0,0,1-5.468-8.637,22.515,22.515,0,0,1-1.555-4.04c-.315-1.154-.664-2.3-.9-3.47a7.444,7.444,0,0,1-.114-2.3,4.78,4.78,0,0,1,.967-2.393c.314-.417.658-.81.991-1.217a1.561,1.561,0,0,0-.092-.655,13.661,13.661,0,0,1-.311-2.815,4.3,4.3,0,0,1,.756-2.461,12.465,12.465,0,0,1,1.5-1.76,31.563,31.563,0,0,1,2.9-2.644c-.008-.4-.018-.821-.025-1.241,0-.2-.013-.4-.006-.6a4.647,4.647,0,0,1,1.332-2.929,6.162,6.162,0,0,1,1.622-1.3q10.161-5.653,20.3-11.336,11.779-6.587,23.555-13.178a8.385,8.385,0,0,1,1.9-.863,1.534,1.534,0,0,1,.657-.031,5.537,5.537,0,0,1,2.624,1.185,11.5,11.5,0,0,1,1.259,1.165,2.188,2.188,0,0,1,.673,1.087l2.8-1.291a.885.885,0,0,0-.06-.529,40.228,40.228,0,0,1-.747-4.415,4.332,4.332,0,0,1,.489-2.522,12.671,12.671,0,0,1,1.072-1.7c1.164-1.619,2.424-3.16,3.716-4.676,2.277-2.671,4.583-5.316,6.812-8.03a127.221,127.221,0,0,0,8.759-11.993c.281-.439.589-.861.887-1.294-.106-.934-.224-1.872-.315-2.813a23.576,23.576,0,0,1,.013-5.367,8.813,8.813,0,0,1,.894-3.071,3.54,3.54,0,0,1,3.293-2.068c.124,0,.357.135.39-.154Zm-27.242,133.687a.514.514,0,0,1,.139-.353,4.918,4.918,0,0,1,.859-.93c1.02-.915,2.035-1.836,3.078-2.724a27.143,27.143,0,0,1,2.7-2.121,51.864,51.864,0,0,1,5.463-3.238c.117-.058.225-.187.392-.108a18.275,18.275,0,0,1-1.5,1.378c.19.479.382.962.578,1.443.014.035.074.052.141.1.218-.285.424-.585.663-.857s.517-.54.787-.8a2.489,2.489,0,0,0,.717-1.753,4.581,4.581,0,0,0,0-.6,19.609,19.609,0,0,0-1.044-5.031,3.9,3.9,0,0,0-.39-.8,1.1,1.1,0,0,0-.86-.521,3.113,3.113,0,0,0-1.107.126,14.833,14.833,0,0,0-2.933,1.1c-1.122.543-2.216,1.139-3.3,1.763a4.5,4.5,0,0,1-.734.364c-1.411.495-2.808,1.023-4.186,1.606-.095.04-.2.157-.347.013.18-.145.345-.3.528-.423a60.557,60.557,0,0,1,8-4.662,12.726,12.726,0,0,1,2.374-.9,5.623,5.623,0,0,1,1.618-.248.423.423,0,0,0,.362-.09.126.126,0,0,0,.035-.042,1.028,1.028,0,0,0,.067-.211,7.42,7.42,0,0,0-.286-3.321,3.682,3.682,0,0,0-.475-.929,2.4,2.4,0,0,0-2.232-1.106,6.371,6.371,0,0,0-1.178.174c-.776.18-1.55.372-2.315.593a75.493,75.493,0,0,0-9.719,3.642,45.6,45.6,0,0,1-4.416,1.834,22.5,22.5,0,0,0-2.892,1.2,8.618,8.618,0,0,0-.974.553,9.986,9.986,0,0,0-2.256,2.163c-.082.1-.133.274-.341.215a8.186,8.186,0,0,1,.881-2.217,3.781,3.781,0,0,1,1.475-1.45,5.124,5.124,0,0,1,.739-.357,1.744,1.744,0,0,0,.673-.453,49.175,49.175,0,0,1,4.917-4.36,83.361,83.361,0,0,1,7.816-5.643,10.614,10.614,0,0,1,4.246-1.55,1.975,1.975,0,0,1,1.717.342,1.819,1.819,0,0,0,.589-1.717,13.614,13.614,0,0,0-.549-2.322,3,3,0,0,0-2.027-2.1,8.119,8.119,0,0,0-6.659.331c-.467.237-.919.5-1.373.762-3.29,1.888-6.411,4.035-9.5,6.235-2.7,1.926-5.341,3.926-7.849,6.1a15.283,15.283,0,0,0-2.054,2.162c-.6.768-1.106,1.6-1.627,2.414a103.781,103.781,0,0,0-5.864,11c-.925,1.932-1.827,3.875-2.682,5.839-.866,1.987-1.742,3.969-2.6,5.961q-1.386,3.228-2.737,6.47-.832,2-1.606,4.027a45.306,45.306,0,0,1-1.756,4.285,1.59,1.59,0,0,1-.455.576c-.554.425-1.095.866-1.65,1.288-3.2,2.425-7.125,4.822-10.106,7.509-.869.784-1.718,1.591-2.549,2.415a4.08,4.08,0,0,0-1.3,3.512c.058.494.086.992.14,1.487a57.077,57.077,0,0,0,2.2,9.12A48.178,48.178,0,0,0,1977-350.7a22.084,22.084,0,0,0,2.863,4.187,8.4,8.4,0,0,0,2,1.67,2.412,2.412,0,0,0,.684.294,1.639,1.639,0,0,0,1.87-.558c.282-.38.6-.732.886-1.108,3.072-4.045,6.084-8.133,9.084-12.23,1.764-2.411,3.568-4.791,5.526-7.052a4.193,4.193,0,0,1,1.593-1.192c.784-.324,1.543-.7,2.293-1.095a3.225,3.225,0,0,0,1.4-1.409,5.73,5.73,0,0,0,.359-.9,7.8,7.8,0,0,1,1.973-3.384c.217-.206.41-.436.627-.641,1.325-1.245,2.645-2.5,3.983-3.727a122.149,122.149,0,0,0,9.288-9.4c1.655-1.893,3.263-3.827,4.885-5.748,1.205-1.426,2.419-2.846,3.6-4.295a10.474,10.474,0,0,1,3.653-2.9c1.438-.689,2.853-1.427,4.293-2.112a26.684,26.684,0,0,1,2.867-1.276,3.942,3.942,0,0,0,1.2-.749,1.91,1.91,0,0,0,.72-1.415,9.421,9.421,0,0,0-.9-4.866,4.028,4.028,0,0,0-.506-.826,1.06,1.06,0,0,0-1.123-.414c-.388.091-.776.181-1.154.305a64.162,64.162,0,0,0-6.827,2.639c-.363.166-.723.339-1.1.473a4.087,4.087,0,0,0-.977.539q-.946.668-1.911,1.31A1.992,1.992,0,0,1,2027.189-406.213Zm-3.784-83.967c-.5-.451-.991-.905-1.491-1.353a6.557,6.557,0,0,0-1.343-.937,1.77,1.77,0,0,0-1.972.054c-.306.212-.645.377-.972.56l-23.883,13.351q-7.473,4.177-14.946,8.35c-1.784,1-3.562,2-5.353,2.987a4.105,4.105,0,0,0-1.556,1.466,2.24,2.24,0,0,0-.346,1.129,12.313,12.313,0,0,0,.137,2.606c.158.857.313,1.715.509,2.563a55.312,55.312,0,0,0,2.7,8.226,68.842,68.842,0,0,0,4.744,9.651,40.857,40.857,0,0,0,8.558,10.291c1.859,1.579,3.78,3.079,5.785,4.468.2.142.41.283.624.409a1.656,1.656,0,0,0,1.295.18,4.934,4.934,0,0,0,1.239-.509q2.368-1.354,4.74-2.7c1.062-.6,2.129-1.2,3.191-1.8.146-.083.321-.133.411-.307a1.627,1.627,0,0,0-.263-.6c-.617-1.252-1.243-2.5-1.853-3.754a5.279,5.279,0,0,1-.311-.837.64.64,0,0,1,.28-.778c.31-.207.595-.454.908-.656,1.882-1.22,3.758-2.451,5.656-3.643,4.139-2.6,8.43-4.934,12.714-7.28,1.617-.886,3.263-1.719,4.925-2.518.448-.216.91-.405,1.373-.588a2.015,2.015,0,0,1,1.925.2c.084.054.172.1.255.155a32.907,32.907,0,0,1,3.8,3,3.542,3.542,0,0,1,.494.557,1.044,1.044,0,0,1,.069,1.194,2.993,2.993,0,0,1-.595.763c-.44.405-.885.8-1.331,1.2a5.2,5.2,0,0,0-.963,1.035c-.051.08-.109.167,0,.254a.408.408,0,0,0,.279-.07c.48-.263.968-.514,1.444-.786q3.5-2,7.005-4.014a1.546,1.546,0,0,0,.476-.353c.2-.253.419-.493.622-.745a3.165,3.165,0,0,0,.509-3.1,20.738,20.738,0,0,0-.878-2.028c-.7.4-1.429.653-2.117,1a.8.8,0,0,1-.707.054,4.908,4.908,0,0,1-.538-.254,10.187,10.187,0,0,1-2.132-1.623,45.091,45.091,0,0,1-7.442-9.121,84.8,84.8,0,0,1-4.539-8.588,43.151,43.151,0,0,1-2.487-6.481,27.6,27.6,0,0,1-1.131-7.5c0-.075,0-.149,0-.224a1.748,1.748,0,0,1,1.019-1.682c.408-.181.785-.431,1.177-.65C2023.224-490.024,2023.345-490.063,2023.405-490.18Zm58.022,31.743a.627.627,0,0,0-.238-.447,100.09,100.09,0,0,1-7.083-9.065,165.264,165.264,0,0,1-10.028-16.38,187.074,187.074,0,0,1-10.122-21.909,111.369,111.369,0,0,1-5.563-18.591c-.021-.1-.011-.247-.171-.273-.524.85-1.03,1.707-1.573,2.541a102.365,102.365,0,0,1-7.614,10.057c-1.974,2.342-4,4.639-6,6.956a71.29,71.29,0,0,0-4.656,5.929,7.537,7.537,0,0,0-.816,1.423,1.66,1.66,0,0,0-.132.873c.073.543.144,1.086.228,1.627a46.283,46.283,0,0,0,1.973,7.583c1.519,4.546,3.5,8.9,5.411,13.289q.684,1.577,1.369,3.154a.186.186,0,0,1-.005.23,3.172,3.172,0,0,1-.763-.879c-.665-1.083-1.321-2.172-1.99-3.253a33,33,0,0,1-1.939-3.624,86.2,86.2,0,0,1-4.1-10.906,1.931,1.931,0,0,0-.284-.737c-1.821.785-3.557,1.745-5.31,2.652.005.572-.016,1.1.022,1.616.045.619.124,1.238.219,1.852a37.807,37.807,0,0,0,2.53,8.889,82.567,82.567,0,0,0,3.826,7.863,48.168,48.168,0,0,0,5.13,7.614,39.174,39.174,0,0,0,3.878,4.139,10.587,10.587,0,0,0,1.826,1.375,47.027,47.027,0,0,0,4.711-2.457,1.666,1.666,0,0,0-.433-.594,30.128,30.128,0,0,1-3.373-4.927,7.57,7.57,0,0,1-.67-1.659c-.026-.1-.123-.234.055-.313a7.92,7.92,0,0,1,1.31,1.426q.983,1.319,1.961,2.64c.832,1.121,1.7,2.211,2.642,3.243a11.154,11.154,0,0,0,1.572,1.485c1.352,1,1.025.962,2.718.754,1.307-.16,2.608-.4,3.9-.673,4.607-.964,9.252-1.689,13.927-2.223a70.88,70.88,0,0,1,10.052-.543C2079.013-458.647,2080.2-458.568,2081.427-458.437Zm14.8,4.066c.021-.112.07-.355.115-.6a19.089,19.089,0,0,0,.208-4.319,48.755,48.755,0,0,0-1.138-7.9,106.023,106.023,0,0,0-4.154-14.033,186.38,186.38,0,0,0-17.3-35.152,117.94,117.94,0,0,0-8.724-12.222,57.785,57.785,0,0,0-6.4-6.781,20.754,20.754,0,0,0-4.25-3.015,6.29,6.29,0,0,0-2.547-.8,2.4,2.4,0,0,0-2.317,1.21,5.982,5.982,0,0,0-.784,2.086,17.462,17.462,0,0,0-.282,2.9,36.381,36.381,0,0,0,.522,6.164c.211,1.378.492,2.745.8,4.105a113.011,113.011,0,0,0,4.607,14.988,187.543,187.543,0,0,0,16.07,32.525c5.423,7.959,5.923,9.047,9.363,13.231a57.387,57.387,0,0,0,6.465,6.827,20.279,20.279,0,0,0,4.2,2.957,6.239,6.239,0,0,0,2.55.785,2.37,2.37,0,0,0,2.18-1.053A5.8,5.8,0,0,0,2096.224-454.371Zm-125.638-6.395a.635.635,0,0,0-.4.239c-.664.638-1.335,1.269-1.982,1.925-.366.371-.7.777-1.03,1.18a2.713,2.713,0,0,0-.6,1.8,12,12,0,0,0,.223,2.15q.366,1.944.893,3.853a52.934,52.934,0,0,0,4.578,11.573,31.151,31.151,0,0,0,8.386,9.9,16.737,16.737,0,0,0,3.093,1.934,4.987,4.987,0,0,0,3.909.31c1.01-.36,1.993-.782,2.976-1.2.062-.026.108-.091.2-.169-.406-.308-.8-.59-1.179-.9-1.231-1.01-2.412-2.076-3.562-3.179a45.344,45.344,0,0,1-7.451-9.2,68.8,68.8,0,0,1-4.567-9.067,52.712,52.712,0,0,1-3.389-10.812C1970.661-460.546,1970.617-460.657,1970.586-460.765Zm63.708,13.133a36.548,36.548,0,0,0-3.707-3.024c-.795-.55-.879-.578-1.777-.162-1.13.524-2.257,1.06-3.358,1.641-7.124,3.759-14.108,7.759-20.842,12.186-.08.053-.153.117-.222.171a1.615,1.615,0,0,0,.258.637c.112.207.144.477.383.59.379-.279.727-.564,1.1-.809,1.42-.925,2.828-1.871,4.276-2.75,4.2-2.55,8.51-4.9,12.763-7.356a14.8,14.8,0,0,1,2.378-1.085c.315-.114.578-.076.6.075.031.243-.171.344-.325.46a22.158,22.158,0,0,1-2.237,1.5q-2.262,1.316-4.531,2.62c-3.175,1.828-6.358,3.646-9.471,5.58-1.376.854-2.758,1.7-4.134,2.552-.033.02-.04.081-.065.134.682,1.406,1.427,2.788,2.208,4.15.057.1.1.231.276.233.544-.446,1.095-.913,1.661-1.36,2.976-2.349,6.067-4.539,9.205-6.662,2.024-1.37,4.109-2.641,6.238-3.843a9.4,9.4,0,0,1,5.457-1.207.982.982,0,0,0,.54-.044,3.509,3.509,0,0,1,.888-1.756c.249-.276.522-.534.8-.784.423-.387.863-.754,1.284-1.142A.8.8,0,0,0,2034.294-447.632Zm-6.806,55.411c.029.068.071.183.127.29.922,1.767,1.881,3.514,2.9,5.224.294.491.63.956.96,1.424a6.328,6.328,0,0,0,.482.569.736.736,0,0,0,.746.227,5.173,5.173,0,0,0,.981-.352,39.41,39.41,0,0,0,6.672-3.656,15.4,15.4,0,0,0,2.155-1.726c.89-.862,1.006-1.13.732-2.313-.286-1.237-.6-2.465-.918-3.695-.516-2.022-1.142-4.013-1.738-6a.661.661,0,0,0-.437.133c-2.093,1.048-4.182,2.1-6.278,3.146a8.367,8.367,0,0,0-2.844,2.255c-.172.213-.347.424-.519.637q-1.388,1.708-2.775,3.418A.741.741,0,0,0,2027.488-392.222Zm-47.791-34.9a1.019,1.019,0,0,0-.445-.482,31.422,31.422,0,0,1-7.114-8.1,47.671,47.671,0,0,1-4.452-9.531c-.541-1.554-1.04-3.119-1.479-4.7-.05-.184-.039-.406-.239-.525a3.775,3.775,0,0,0-.935,1.99,5.238,5.238,0,0,0,.128,2.149c.293,1.21.616,2.413.93,3.618a17.7,17.7,0,0,0,1.283,3.345,45.9,45.9,0,0,0,5.836,9.018c.508.613,1.065,1.186,1.613,1.763a7.75,7.75,0,0,0,1.186,1.021,3.286,3.286,0,0,0,1.371.553A6.165,6.165,0,0,0,1979.7-427.126Zm39.114,2.05c.751-.352,1.473-.683,2.191-1.025a75.626,75.626,0,0,1,11.47-4.473c.159-.046.354-.044.453-.219a12.081,12.081,0,0,0-.836-3.633c-.253.069-.521.126-.776.216a6.856,6.856,0,0,0-.9.372c-.464.242-.92.5-1.364.774a79.266,79.266,0,0,0-10.128,7.645C2018.856-425.361,2018.753-425.315,2018.812-425.077Zm18.852,11.351a26.126,26.126,0,0,0-3.235,2.566,29.447,29.447,0,0,0,3.687-1.331A10.525,10.525,0,0,0,2037.664-413.726Zm-3.691-21.148-.829.268c.035.219.064.392.1.615A1.809,1.809,0,0,0,2033.974-434.874Z" transform="translate(-1963.61 540.475)" fill="#492a34"/>
            <path id="Trazado_102621" data-name="Trazado 102621" d="M2035.843-392a18.114,18.114,0,0,0-2.615,1.821,7.129,7.129,0,0,0-1.978,2.387.458.458,0,0,1-.138-.479,4.082,4.082,0,0,1,2.044-3.118,13.254,13.254,0,0,1,1.828-.829C2035.37-392.369,2035.392-392.351,2035.843-392Z" transform="translate(-1974.479 516.614)" fill="#492a34"/>
            <path id="Trazado_102622" data-name="Trazado 102622" d="M2071.523-534.766a5.748,5.748,0,0,1,1.741.839,17.968,17.968,0,0,1,2.641,2.187,53.375,53.375,0,0,1,5.082,5.871,128.577,128.577,0,0,1,8,11.91,219.553,219.553,0,0,1,16.709,34.056,111.614,111.614,0,0,1,3.868,11.781,44.107,44.107,0,0,1,1.307,6.74,13.882,13.882,0,0,1-.015,3.5,4.2,4.2,0,0,1-.394,1.279,1.8,1.8,0,0,1-2.015,1.072,4.443,4.443,0,0,1-1.592-.619,12.866,12.866,0,0,1-2.221-1.632,34.961,34.961,0,0,1-3.134-3.2,89.745,89.745,0,0,1-6.91-9.2,193.2,193.2,0,0,1-11.134-19.113,208.481,208.481,0,0,1-9.992-22.378,108.394,108.394,0,0,1-3.493-10.882,41.924,41.924,0,0,1-1.259-6.749,14.041,14.041,0,0,1,.018-3.056,4.59,4.59,0,0,1,.416-1.427,1.82,1.82,0,0,1,2.161-1.041C2071.378-534.808,2071.451-534.786,2071.523-534.766Zm16.629,51.851c.074.139.141.272.213.4q1.77,3.166,3.664,6.26a124.454,124.454,0,0,0,8.186,11.965,45.342,45.342,0,0,0,4.843,5.384,14.468,14.468,0,0,0,2.052,1.612,4.29,4.29,0,0,0,1.355.612c.571.127.848-.007,1.056-.545a4.742,4.742,0,0,0,.3-1.383,15.443,15.443,0,0,0-.066-2.686,41.4,41.4,0,0,0-1.083-5.8,106.355,106.355,0,0,0-3.656-11.458,203.276,203.276,0,0,0-8.674-19.7,203.067,203.067,0,0,0-10.967-19.387,104.117,104.117,0,0,0-6.889-9.589,38.633,38.633,0,0,0-4.347-4.621,10.688,10.688,0,0,0-1.926-1.406,5.519,5.519,0,0,0-.951-.427c-.654-.206-.982-.029-1.208.619a5.4,5.4,0,0,0-.278,1.464,19.822,19.822,0,0,0,.345,4.459,66.071,66.071,0,0,0,2.279,8.974,168.624,168.624,0,0,0,7.8,19.653.846.846,0,0,0,.3.455c.213-.044.454-.09.692-.145a7.443,7.443,0,0,1,1.554-.166,2.647,2.647,0,0,1,1.665.563,7.368,7.368,0,0,1,.733.633,11.857,11.857,0,0,1,1.281,1.556,29.422,29.422,0,0,1,3.038,5.738c.256.594.467,1.209.677,1.821a5.535,5.535,0,0,1,.284,1.311,2.676,2.676,0,0,1-.4,1.711A7.375,7.375,0,0,1,2088.152-482.915Zm-.521-1.128a10.738,10.738,0,0,0,1.154-1.409,1.627,1.627,0,0,0,.293-1.476c-.116-.407-.214-.82-.356-1.217a41.093,41.093,0,0,0-1.9-4.306,21.36,21.36,0,0,0-1.63-2.765,8.718,8.718,0,0,0-1.206-1.421,1.771,1.771,0,0,0-1.032-.559,4.632,4.632,0,0,0-1.972.242c.4,1.19,3.877,8.093,6.259,12.419C2087.337-484.367,2087.383-484.157,2087.631-484.043Z" transform="translate(-1980.524 539.574)" fill="#492a34"/>
          </g>
          <g id="Grupo_56606" data-name="Grupo 56606" transform="translate(120.137)">
            <path id="Trazado_102623" data-name="Trazado 102623" d="M2106.808-528.094l11.244-48.019,15.9,7.462Z" transform="translate(-2106.808 576.113)" fill="#ff6279"/>
            <path id="Trazado_102624" data-name="Trazado 102624" d="M2119.04-502.213l24.55-30.207,14.738,23.083Z" transform="translate(-2108.778 569.077)" fill="#ff6279"/>
            <path id="Trazado_102625" data-name="Trazado 102625" d="M2132.513-473.582l26.889.552-1.648,8.734Z" transform="translate(-2110.947 559.601)" fill="#ff6279"/>
          </g>
        </g>
        <path id="Trazado_102626" data-name="Trazado 102626" d="M1963.965-230.953l-.682-.844a3.5,3.5,0,0,0,.22-1.216c0-2.208-2.073-4-4.63-4s-4.63,1.79-4.63,4,2.073,4,4.63,4a5.007,5.007,0,0,0,3.282-1.179l1.188.255A.631.631,0,0,0,1963.965-230.953Z" transform="translate(-1877.265 521.504)" fill="#91a9b8"/>
      </g>
      <g id="Grupo_56618" data-name="Grupo 56618" transform="translate(45.748 75.264)">
        <g id="Grupo_56609" data-name="Grupo 56609" transform="translate(267.776 95.919)">
          <path id="Trazado_102627" data-name="Trazado 102627" d="M2130.078-347.537c-1.847-.586-3.694-1.168-5.539-1.758a5.834,5.834,0,0,1-4.095-6.544,5.937,5.937,0,0,1,.233-.939q1.751-5.541,3.513-11.08a5.848,5.848,0,0,1,6.544-4.15,6.183,6.183,0,0,1,1,.255q5.524,1.75,11.047,3.5a5.818,5.818,0,0,1,3.912,7.426q-1.749,5.633-3.566,11.245a5.82,5.82,0,0,1-7.479,3.81Q2132.864-346.652,2130.078-347.537Zm13.263-8.165c.592-1.868,1.194-3.734,1.776-5.607a4.166,4.166,0,0,0-2.737-5.322q-5.63-1.813-11.278-3.577a4.159,4.159,0,0,0-5.3,2.772q-1.79,5.6-3.559,11.211a4.062,4.062,0,0,0-.1,2.282,4.082,4.082,0,0,0,2.834,3.043q5.633,1.807,11.277,3.578a4.039,4.039,0,0,0,.775.173,4.182,4.182,0,0,0,4.531-2.946C2142.164-351.961,2142.748-353.833,2143.341-355.7Z" transform="translate(-2120.377 372.07)" fill="#fff"/>
          <path id="Trazado_102628" data-name="Trazado 102628" d="M2133.141-351.451a6.238,6.238,0,0,1-4.069-7.862,6.238,6.238,0,0,1,7.865-4.061,6.244,6.244,0,0,1,4.061,7.841A6.244,6.244,0,0,1,2133.141-351.451Zm3.276-10.348a4.6,4.6,0,0,0-5.769,2.988,4.6,4.6,0,0,0,2.98,5.771,4.589,4.589,0,0,0,5.787-3A4.591,4.591,0,0,0,2136.417-361.8Z" transform="translate(-2121.729 370.718)" fill="#fff"/>
          <path id="Trazado_102629" data-name="Trazado 102629" d="M2145.514-360.3a1.423,1.423,0,0,1-.918-1.826,1.421,1.421,0,0,1,1.805-.9,1.423,1.423,0,0,1,.919,1.826A1.423,1.423,0,0,1,2145.514-360.3Z" transform="translate(-2124.265 370.627)" fill="#fff"/>
        </g>
        <g id="Grupo_56610" data-name="Grupo 56610" transform="translate(297.449 155.217)" opacity="0.8">
          <path id="Trazado_102630" data-name="Trazado 102630" d="M2155.746-276.306c.924-4.361,1.842-8.685,2.77-13.061l-2.712-.575c.316-1.491.622-2.931.941-4.433l2.713.576c.175-.828.33-1.6.5-2.364a16.441,16.441,0,0,1,.6-2.4,4.11,4.11,0,0,1,3.862-2.82c2.1-.117,4.062.636,6.121.964-.328,1.546-.64,3.02-.967,4.56-.7-.149-1.388-.3-2.076-.439-.345-.071-.691-.148-1.041-.186-.617-.068-.942.123-1.086.717-.242.993-.432,2-.656,3.055l4.025.854c-.445,1.448-.871,2.84-1.314,4.285l-3.65-.774-2.789,13.148Z" transform="translate(-2155.746 301.391)" fill="#371666"/>
        </g>
        <g id="Grupo_56611" data-name="Grupo 56611" transform="translate(254.53 156.893)">
          <path id="Trazado_102631" data-name="Trazado 102631" d="M2106.293-278.775a9.8,9.8,0,0,0,6.6-3.3,4.867,4.867,0,0,1-2.914-.435,4.818,4.818,0,0,1-2.134-2.038,4.966,4.966,0,0,0,1.081-.121,4.56,4.56,0,0,0,1.021-.36,4.847,4.847,0,0,1-3.047-1.164,4.794,4.794,0,0,1-1.633-2.842,4.873,4.873,0,0,0,2.261.188,4.806,4.806,0,0,1-2.532-2.514,4.789,4.789,0,0,1-.138-3.544,13.834,13.834,0,0,0,10.747,3.113,5.734,5.734,0,0,1-.2-.539,4.723,4.723,0,0,1,.1-3.14,4.663,4.663,0,0,1,2.8-2.805,4.725,4.725,0,0,1,4.51.565.121.121,0,0,0,.133.017,9.736,9.736,0,0,0,2.686-1.657l.044-.038a4.778,4.778,0,0,1-.516,1.647,5.082,5.082,0,0,1-1.044,1.356,8.6,8.6,0,0,0,1.319-.521,9.651,9.651,0,0,0,1.235-.722c-.092.222-.186.419-.285.614a9.791,9.791,0,0,1-1.57,2.24.118.118,0,0,0-.034.124,12,12,0,0,1,.289,1.785,13.918,13.918,0,0,1-.049,2.957,14.146,14.146,0,0,1-1.878,5.561,12.905,12.905,0,0,1-5.7,5.194,14.32,14.32,0,0,1-4.076,1.218,13.624,13.624,0,0,1-7.026-.812Z" transform="translate(-2104.588 299.392)" fill="#fff"/>
        </g>
        <g id="Grupo_56612" data-name="Grupo 56612" transform="translate(223.363 143.528)" opacity="0.8">
          <path id="Trazado_102632" data-name="Trazado 102632" d="M2076.885-309.032a2.367,2.367,0,0,1,1.259.335,2.475,2.475,0,0,1,1.014,1.293,5.177,5.177,0,0,1,.149,3.271,3.482,3.482,0,0,1-1.989,2.236,5.552,5.552,0,0,1-2.189.507q-3.487.136-6.974.278l-.16.006q-.278-6.957-.555-13.916a.411.411,0,0,1,.062-.012c2.478-.1,4.956-.206,7.434-.285a3.887,3.887,0,0,1,2.415.7,3.275,3.275,0,0,1,1.337,2.2,3.518,3.518,0,0,1-.131,1.956,2.287,2.287,0,0,1-1.54,1.364C2076.977-309.089,2076.93-309.1,2076.885-309.032Zm-5.8,5.325.559-.023c1.085-.044,2.172-.082,3.258-.131a1.5,1.5,0,0,0,1.6-1.347,2.853,2.853,0,0,0-.039-1.044,1.517,1.517,0,0,0-1.715-1.332q-1.8.072-3.606.145a.4.4,0,0,0-.2.026C2070.986-306.187,2071.035-304.961,2071.084-303.708Zm-.352-8.981c.042,1.048.083,2.074.124,3.1,1.332-.054,2.65-.1,3.968-.163a.891.891,0,0,0,.864-.654,2.8,2.8,0,0,0,.043-1.56,1.059,1.059,0,0,0-1.195-.878c-.391.038-.785.035-1.178.05Z" transform="translate(-2067.439 315.323)" fill="#371666"/>
          <path id="Trazado_102633" data-name="Trazado 102633" d="M2090.145-304.7l2.44-.1a3.314,3.314,0,0,1-.71,2.341,4.12,4.12,0,0,1-2.246,1.314,7.5,7.5,0,0,1-3.591.055,4.387,4.387,0,0,1-3.32-3.1,6.154,6.154,0,0,1,.064-4.064,4.6,4.6,0,0,1,2.569-2.874,6.341,6.341,0,0,1,2.937-.455,4.626,4.626,0,0,1,2.181.642,4.121,4.121,0,0,1,1.655,2.011,7.081,7.081,0,0,1,.511,3.1c0,.023-.008.046-.013.086l-7.191.287a2.559,2.559,0,0,0,.3,1.244,2.145,2.145,0,0,0,1.905,1.086A3.538,3.538,0,0,0,2089-303.3,1.492,1.492,0,0,0,2090.145-304.7Zm-.273-2.8a2.134,2.134,0,0,0-.913-1.751,2.319,2.319,0,0,0-1.6-.273,2.4,2.4,0,0,0-2.025,2.2Z" transform="translate(-2069.849 314.722)" fill="#371666"/>
          <path id="Trazado_102634" data-name="Trazado 102634" d="M2084.91-313.032c-.023-.568-.045-1.124-.068-1.692l5.728-.228c.023.565.044,1.121.068,1.692Z" transform="translate(-2070.241 315.263)" fill="#371666"/>
        </g>
        <path id="Trazado_102635" data-name="Trazado 102635" d="M2090.563-355.615l-3.8-11.68a.392.392,0,0,0-.217-.242,2.638,2.638,0,0,0-2.446.156q-1.413.807-2.819,1.623l-1.557.9-.119-.291c-.163-.4-.3-.753-.426-1.1a6.231,6.231,0,0,0-1.439-2.43,6.292,6.292,0,0,0-1.493-1.127,3.2,3.2,0,0,0-4,.867c-.284.374-.233.557-.136.7l1.777,2.573a2.251,2.251,0,0,1,.434,1.295c.018,1.185.052,2.279.087,3.405l.046,1.529-.252.139c-.243.134-.584.321-.869.483h0l0,0c-.1.059-.2.115-.283.164l-.115.067h0l-.208.121q-1.3.76-2.608,1.511l-1.7.979a1.206,1.206,0,0,0-.565.737,1.209,1.209,0,0,0,.121.92l5.2,9a1.222,1.222,0,0,0,.737.59,1.261,1.261,0,0,0,.789-.074,1.576,1.576,0,0,0,.148-.074l4.64-2.68a.813.813,0,0,0,.092-.059l.409-.242a.7.7,0,0,0,.335-.741l-.039-.194,6.854-3.954c.818-.469,1.636-.939,2.444-1.425a2.222,2.222,0,0,0,.988-1.234Zm-12.948,7.731c-1.035.6-2.071,1.194-3.131,1.811l-.236.136-.138-.234c-1.2-2.03-2.384-4.077-3.565-6.123l-1.5-2.6.226-.139c1-.62,2.031-1.213,3.03-1.786l1.033-.593.335-.2.7,1.141,4.535,7.856Zm11.39-7.359-.1.085q-1,.55-2,1.121l-5.133,2.974c-.068.04-.139.077-.239.128l-1.893,1.093-1.163-2.014c-1.029-1.8-2.041-3.548-3.062-5.306l-.635-1.1.8-.461a.27.27,0,0,0,.114-.262c-.063-1.716-.128-3.492-.148-5.246a3.872,3.872,0,0,0-.749-2.266c-.3-.409-.588-.83-.874-1.251l-.555-.812.158-.162a1.409,1.409,0,0,1,1.486-.279,4.6,4.6,0,0,1,2.892,2.868c.252.675.516,1.345.78,2.013l.29.736a.281.281,0,0,0,.18.165.315.315,0,0,0,.29-.068q2.577-1.486,5.125-2.96a2.15,2.15,0,0,1,.668-.267l.237-.044,2.79,8.673a.138.138,0,0,0,.03.1l.058.1.731,2.258Z" transform="translate(-1844.136 467.684)" fill="#fff"/>
        <path id="Trazado_102636" data-name="Trazado 102636" d="M1858.584-313.709l4.165-12.811a.427.427,0,0,0-.038-.355,2.9,2.9,0,0,0-2.268-1.44q-1.774-.2-3.546-.38l-1.962-.206.082-.336c.117-.464.219-.862.335-1.254a6.811,6.811,0,0,0,.292-3.083,6.906,6.906,0,0,0-.595-1.962,3.512,3.512,0,0,0-4.108-1.815c-.493.148-.567.343-.572.532l-.086,3.429a2.456,2.456,0,0,1-.451,1.427c-.748,1.064-1.425,2.055-2.121,3.076l-.946,1.386-.313-.039c-.3-.039-.724-.092-1.081-.133h0c-.131-.015-.253-.028-.356-.038l-.145-.015h0l-.263-.028c-1.1-.111-2.192-.227-3.287-.343l-2.136-.226a1.322,1.322,0,0,0-.976.288,1.32,1.32,0,0,0-.487.894l-1.2,11.331a1.343,1.343,0,0,0,.273,1,1.389,1.389,0,0,0,.748.443,1.561,1.561,0,0,0,.179.029l5.844.619a.791.791,0,0,0,.12.008l.519.049a.76.76,0,0,0,.774-.441l.09-.2,8.63.918c1.029.112,2.057.224,3.087.313a2.436,2.436,0,0,0,1.673-.456Zm-16.471-1.5c-1.3-.138-2.607-.277-3.944-.414l-.3-.032.029-.3c.242-2.579.517-5.155.791-7.73l.347-3.28.291.022c1.284.094,2.583.236,3.839.372l1.3.14.429.035-.119,1.461-1.05,9.892Zm14.85.828-.142.012c-.831-.107-1.663-.2-2.5-.3l-6.47-.676c-.085-.008-.173-.021-.294-.041l-2.384-.253.269-2.536c.248-2.258.48-4.463.709-6.681l.147-1.384,1.006.107a.294.294,0,0,0,.27-.159c1.051-1.561,2.14-3.178,3.255-4.746a4.249,4.249,0,0,0,.8-2.493c0-.558.013-1.115.033-1.673l.033-1.078.244-.041a1.543,1.543,0,0,1,1.5.711,5.042,5.042,0,0,1,.713,4.41c-.212.761-.411,1.525-.609,2.289l-.218.839a.311.311,0,0,0,.053.263.344.344,0,0,0,.3.127c2.163.231,4.308.46,6.454.684a2.354,2.354,0,0,1,.764.195l.238.113-3.124,9.49a.154.154,0,0,0-.039.111l-.013.126-.809,2.474Z" transform="translate(-1806.887 462.421)" fill="#fff"/>
        <g id="Grupo_56613" data-name="Grupo 56613" transform="translate(232.663 66.931)" opacity="0.9">
          <path id="Trazado_102637" data-name="Trazado 102637" d="M2093.949-387.491c-2.408.506-4.667.946-6.944,1.28a20.093,20.093,0,0,1-2.708.275,3.536,3.536,0,0,1-3.577-2.457,30.221,30.221,0,0,1-1.132-3.936,50.819,50.819,0,0,1-.912-5.028,12.817,12.817,0,0,1-.141-2.3,3.388,3.388,0,0,1,2.244-3.061,22.933,22.933,0,0,1,3.526-1.058c1.779-.451,3.572-.834,5.367-1.206,2.542-.528,5.091-1.007,7.659-1.383a22.306,22.306,0,0,1,2.4-.253,3.293,3.293,0,0,1,3.5,2.274,31.473,31.473,0,0,1,1.407,4.772,39.654,39.654,0,0,1,.816,5.094,9.8,9.8,0,0,1,.054,1.632,3.379,3.379,0,0,1-2.233,3.013,23.536,23.536,0,0,1-3.477,1.041C2097.809-388.29,2095.8-387.859,2093.949-387.491Zm-3.543-4.374c1.859-1.746,3.7-3.472,5.563-5.222L2088.8-399.7Z" transform="translate(-2078.524 406.623)" fill="#371666"/>
        </g>
        <g id="Grupo_56614" data-name="Grupo 56614" transform="translate(56.23)">
          <path id="Trazado_102638" data-name="Trazado 102638" d="M1879.378-483.831c.225-.238.425-.462.638-.674a5.927,5.927,0,0,1,5.185-1.836,6.232,6.232,0,0,1,5.254,5.033,5.869,5.869,0,0,1-1.559,5.153c-2.034,2.227-4.129,4.4-6.2,6.592l-3.121,3.308c-.059.062-.112.13-.159.185a.487.487,0,0,1-.229-.179q-4.553-4.822-9.107-9.643a6.3,6.3,0,0,1-1.845-4.882,5.917,5.917,0,0,1,4.951-5.5,6.247,6.247,0,0,1,4.8,1.081,5.141,5.141,0,0,1,.721.656Z" transform="translate(-1868.224 486.401)" fill="#fff"/>
        </g>
        <g id="Grupo_56615" data-name="Grupo 56615" transform="translate(0 94.372)">
          <path id="Trazado_102639" data-name="Trazado 102639" d="M1811.788-368.978c.141-.33.263-.636.4-.935a6.5,6.5,0,0,1,4.645-3.848,6.834,6.834,0,0,1,7.31,3.2,6.435,6.435,0,0,1,.341,5.894c-1.253,3.061-2.592,6.087-3.894,9.127q-.982,2.293-1.965,4.585c-.037.086-.066.176-.093.25a.528.528,0,0,1-.3-.1q-6.51-3.245-13.017-6.49a6.914,6.914,0,0,1-3.743-4.33,6.489,6.489,0,0,1,3.021-7.533,6.85,6.85,0,0,1,5.354-.7,5.636,5.636,0,0,1,.99.4Z" transform="translate(-1801.201 373.914)" fill="#371666"/>
        </g>
        <g id="Grupo_56617" data-name="Grupo 56617" transform="translate(42.87 163.45)">
          <path id="Trazado_102640" data-name="Trazado 102640" d="M1868-290.9l-13.313,7.874a4.86,4.86,0,0,0-1.709,6.656l3.686,6.232a4.86,4.86,0,0,0,6.656,1.709l7.286-4.309,5.064.79a1.553,1.553,0,0,0,1.575-2.325l-1.048-1.772.436-.258a4.86,4.86,0,0,0,1.709-6.656l-3.686-6.231A4.859,4.859,0,0,0,1868-290.9Z" transform="translate(-1852.3 291.577)" fill="#371666" opacity="0.8"/>
          <g id="Grupo_56616" data-name="Grupo 56616" transform="translate(8.334 8.419)">
            <path id="Trazado_102641" data-name="Trazado 102641" d="M1863.164-276.128a1.237,1.237,0,0,1,1.508.89,1.238,1.238,0,0,1-.89,1.508,1.239,1.239,0,0,1-1.508-.89A1.239,1.239,0,0,1,1863.164-276.128Z" transform="translate(-1862.234 280.676)" fill="#fff"/>
            <path id="Trazado_102642" data-name="Trazado 102642" d="M1867.677-278.815a1.237,1.237,0,0,1,1.508.89,1.237,1.237,0,0,1-.89,1.508,1.239,1.239,0,0,1-1.509-.89A1.239,1.239,0,0,1,1867.677-278.815Z" transform="translate(-1862.961 281.109)" fill="#fff"/>
            <path id="Trazado_102643" data-name="Trazado 102643" d="M1872.189-281.5a1.239,1.239,0,0,1,1.509.891,1.238,1.238,0,0,1-.89,1.508,1.239,1.239,0,0,1-1.509-.891A1.24,1.24,0,0,1,1872.189-281.5Z" transform="translate(-1863.688 281.542)" fill="#fff"/>
          </g>
        </g>
      </g>
    </g>
    <g id="Grupo_56586" data-name="Grupo 56586" transform="translate(1774.756 -524.57)">
      <g id="Grupo_56585" data-name="Grupo 56585" transform="translate(0 0)">
        <g id="Grupo_56071" data-name="Grupo 56071" transform="translate(127.659 35.356)">
          <g id="Grupo_56068" data-name="Grupo 56068" transform="translate(3.374)">
            <path id="Trazado_101122" data-name="Trazado 101122" d="M1948.658-471.181h-11.651a.676.676,0,0,1-.675-.677.676.676,0,0,1,.675-.675h11.651a.677.677,0,0,1,.676.677.677.677,0,0,1-.676.675Z" transform="translate(-1936.332 472.533)" fill="#495abf"/>
          </g>
          <g id="Grupo_56069" data-name="Grupo 56069" transform="translate(16.771)">
            <path id="Trazado_101123" data-name="Trazado 101123" d="M1955.887-471.181h-2.911a.676.676,0,0,1-.676-.675.675.675,0,0,1,.675-.677h2.912a.677.677,0,0,1,.677.675.677.677,0,0,1-.676.677Z" transform="translate(-1952.3 472.533)" fill="#495abf"/>
          </g>
          <g id="Grupo_56070" data-name="Grupo 56070">
            <path id="Trazado_101124" data-name="Trazado 101124" d="M1934.589-471.181h-1.6a.676.676,0,0,1-.676-.675.675.675,0,0,1,.675-.677h1.6a.677.677,0,0,1,.676.677A.677.677,0,0,1,1934.589-471.181Z" transform="translate(-1932.31 472.533)" fill="#495abf"/>
          </g>
        </g>
        <g id="Grupo_56074" data-name="Grupo 56074" transform="translate(11.011 77.786)">
          <g id="Grupo_56072" data-name="Grupo 56072">
            <path id="Trazado_101125" data-name="Trazado 101125" d="M1805.755-420.606h-11.806a.676.676,0,0,1-.677-.675.678.678,0,0,1,.676-.677h11.807a.676.676,0,0,1,.676.676.675.675,0,0,1-.675.676Z" transform="translate(-1793.272 421.958)" fill="#495abf"/>
          </g>
          <g id="Grupo_56073" data-name="Grupo 56073" transform="translate(15.643)">
            <path id="Trazado_101126" data-name="Trazado 101126" d="M1818.991-420.606h-6.4a.676.676,0,0,1-.676-.676.677.677,0,0,1,.676-.676h6.4a.676.676,0,0,1,.675.677A.675.675,0,0,1,1818.991-420.606Z" transform="translate(-1811.918 421.958)" fill="#495abf"/>
          </g>
        </g>
        <g id="Grupo_56078" data-name="Grupo 56078" transform="translate(44.634 270.819)">
          <g id="Grupo_56075" data-name="Grupo 56075" transform="translate(0 4.02)">
            <path id="Trazado_101127" data-name="Trazado 101127" d="M1865.281-185.728h-31.256a.678.678,0,0,1-.677-.676.676.676,0,0,1,.676-.676h31.257a.676.676,0,0,1,.677.675.678.678,0,0,1-.676.677Z" transform="translate(-1833.348 187.08)" fill="#495abf"/>
          </g>
          <g id="Grupo_56076" data-name="Grupo 56076" transform="translate(22.649)">
            <path id="Trazado_101128" data-name="Trazado 101128" d="M1864.092-190.52h-3.071a.676.676,0,0,1-.675-.677.675.675,0,0,1,.675-.675h3.071a.676.676,0,0,1,.677.675.678.678,0,0,1-.676.677Z" transform="translate(-1860.345 191.872)" fill="#495abf"/>
          </g>
          <g id="Grupo_56077" data-name="Grupo 56077" transform="translate(28.338)">
            <path id="Trazado_101129" data-name="Trazado 101129" d="M1874.632-190.52H1867.8a.678.678,0,0,1-.677-.676.676.676,0,0,1,.676-.676h6.83a.676.676,0,0,1,.677.675.678.678,0,0,1-.676.677Z" transform="translate(-1867.126 191.872)" fill="#495abf"/>
          </g>
        </g>
        <g id="Grupo_56079" data-name="Grupo 56079" transform="translate(48.795 138.948)">
          <path id="Trazado_101130" data-name="Trazado 101130" d="M1844.362-347.7h-5.376a.677.677,0,0,1-.678-.675.677.677,0,0,1,.676-.679h5.378a.677.677,0,0,1,.678.676.676.676,0,0,1-.676.678Z" transform="translate(-1838.308 349.056)" fill="#495abf"/>
        </g>
        <g id="Grupo_56080" data-name="Grupo 56080" transform="translate(0 211.639)">
          <path id="Trazado_101131" data-name="Trazado 101131" d="M1785.847-261.058h-5.022a.677.677,0,0,1-.678-.676.676.676,0,0,1,.676-.678h5.024a.677.677,0,0,1,.678.676.677.677,0,0,1-.676.678Z" transform="translate(-1780.147 262.412)" fill="#495abf"/>
        </g>
        <g id="Grupo_56081" data-name="Grupo 56081" transform="translate(31.82 204.38)">
          <path id="Trazado_101132" data-name="Trazado 101132" d="M1822.03-263.154a.675.675,0,0,1-.478-.2l-3.279-3.279a.678.678,0,0,1,0-.957l3.279-3.278a.677.677,0,0,1,.478-.2h0a.679.679,0,0,1,.48.2l3.278,3.278a.677.677,0,0,1,0,.957l-3.278,3.279A.681.681,0,0,1,1822.03-263.154Zm-2.323-3.955,2.322,2.322,2.322-2.322-2.322-2.322Z" transform="translate(-1818.074 271.065)" fill="#495abf"/>
        </g>
        <g id="Grupo_56082" data-name="Grupo 56082" transform="translate(58.499 21.707)">
          <path id="Trazado_101133" data-name="Trazado 101133" d="M1854.361-479.83a4.486,4.486,0,0,1-4.486-4.486,4.486,4.486,0,0,1,4.486-4.486,4.486,4.486,0,0,1,4.486,4.486A4.489,4.489,0,0,1,1854.361-479.83Zm0-7.618a3.133,3.133,0,0,0-3.132,3.132,3.132,3.132,0,0,0,3.132,3.132,3.131,3.131,0,0,0,3.132-3.132,3.136,3.136,0,0,0-3.132-3.132Z" transform="translate(-1849.875 488.802)" fill="#495abf"/>
        </g>
        <g id="Grupo_56083" data-name="Grupo 56083" transform="translate(240.43 75.804)">
          <path id="Trazado_101134" data-name="Trazado 101134" d="M2071.212-415.351a4.486,4.486,0,0,1-4.484-4.486,4.485,4.485,0,0,1,4.486-4.484,4.484,4.484,0,0,1,4.484,4.484A4.491,4.491,0,0,1,2071.212-415.351Zm0-7.618a3.132,3.132,0,0,0-3.134,3.132,3.134,3.134,0,0,0,3.132,3.134,3.132,3.132,0,0,0,3.134-3.132v0A3.135,3.135,0,0,0,2071.212-422.969Z" transform="translate(-2066.728 424.321)" fill="#495abf"/>
        </g>
        <g id="Grupo_56084" data-name="Grupo 56084" transform="translate(175.225 13.023)">
          <path id="Trazado_101135" data-name="Trazado 101135" d="M1991.943-493.28a2.936,2.936,0,0,1-2.937-2.936,2.936,2.936,0,0,1,2.937-2.936,2.936,2.936,0,0,1,2.936,2.936,2.936,2.936,0,0,1-2.936,2.936Zm0-4.516a1.582,1.582,0,0,0-1.583,1.58,1.582,1.582,0,0,0,1.58,1.583,1.582,1.582,0,0,0,1.583-1.58v0a1.583,1.583,0,0,0-1.58-1.579Z" transform="translate(-1989.007 499.153)" fill="#495abf"/>
        </g>
        <g id="Grupo_56096" data-name="Grupo 56096" transform="translate(259.381 216.385)">
          <g id="Grupo_56090" data-name="Grupo 56090" transform="translate(0 1.85)">
            <g id="Grupo_56085" data-name="Grupo 56085" transform="translate(8.364 14.918)">
              <path id="Trazado_101136" data-name="Trazado 101136" d="M2119.183-235.415h-19.219a.677.677,0,0,1-.678-.676.678.678,0,0,1,.676-.678h19.22a.677.677,0,0,1,.676.678.676.676,0,0,1-.676.676Z" transform="translate(-2099.286 236.769)" fill="#855db5"/>
            </g>
            <g id="Grupo_56086" data-name="Grupo 56086" transform="translate(13.786 4.837)">
              <path id="Trazado_101137" data-name="Trazado 101137" d="M2119.982-247.431h-13.557a.677.677,0,0,1-.676-.678.677.677,0,0,1,.676-.676h13.557a.677.677,0,0,1,.676.678A.676.676,0,0,1,2119.982-247.431Z" transform="translate(-2105.749 248.785)" fill="#f9e478"/>
            </g>
            <g id="Grupo_56087" data-name="Grupo 56087" transform="translate(22.326 10.241)">
              <path id="Trazado_101138" data-name="Trazado 101138" d="M2121.621-240.991h-5.016a.675.675,0,0,1-.676-.675.676.676,0,0,1,.675-.677h5.02a.678.678,0,0,1,.676.677.677.677,0,0,1-.676.675Z" transform="translate(-2115.929 242.343)" fill="#855db5"/>
            </g>
            <g id="Grupo_56088" data-name="Grupo 56088" transform="translate(0 10.241)">
              <path id="Trazado_101139" data-name="Trazado 101139" d="M2109.51-240.991h-19.517a.675.675,0,0,1-.676-.675.676.676,0,0,1,.676-.677h19.517a.677.677,0,0,1,.677.676.676.676,0,0,1-.676.676Z" transform="translate(-2089.317 242.343)" fill="#495abf"/>
            </g>
            <g id="Grupo_56089" data-name="Grupo 56089" transform="translate(5.02)">
              <path id="Trazado_101140" data-name="Trazado 101140" d="M2118.3-253.2h-22.323a.675.675,0,0,1-.676-.675.676.676,0,0,1,.675-.677H2118.3a.678.678,0,0,1,.676.677A.677.677,0,0,1,2118.3-253.2Z" transform="translate(-2095.301 254.55)" fill="#495abf"/>
            </g>
          </g>
          <g id="Grupo_56092" data-name="Grupo 56092" transform="translate(28.778 1.149)">
            <g id="Grupo_56091" data-name="Grupo 56091">
              <path id="Trazado_101141" data-name="Trazado 101141" d="M2150.933-240.275a2.339,2.339,0,0,1-2.315,2.357h-22.683a2.34,2.34,0,0,1-2.315-2.357v-12.752a2.34,2.34,0,0,1,2.315-2.357h22.683a2.339,2.339,0,0,1,2.315,2.357Z" transform="translate(-2123.619 255.385)" fill="#f3f3ff"/>
            </g>
          </g>
          <g id="Grupo_56095" data-name="Grupo 56095" transform="translate(27.629)">
            <g id="Grupo_56093" data-name="Grupo 56093">
              <path id="Trazado_101142" data-name="Trazado 101142" d="M2148.4-256.755h-22.683a3.489,3.489,0,0,0-3.465,3.507V-240.5a3.489,3.489,0,0,0,3.465,3.507H2148.4a3.49,3.49,0,0,0,3.465-3.507v-12.752A3.49,3.49,0,0,0,2148.4-256.755Zm2.315,16.26a2.339,2.339,0,0,1-2.315,2.357h-22.683a2.341,2.341,0,0,1-2.316-2.357v-12.752a2.341,2.341,0,0,1,2.316-2.357H2148.4a2.339,2.339,0,0,1,2.315,2.357Z" transform="translate(-2122.249 256.755)" fill="#495abf"/>
            </g>
            <g id="Grupo_56094" data-name="Grupo 56094" transform="translate(3.54 3.934)">
              <path id="Trazado_101143" data-name="Trazado 101143" d="M2148.811-251.839a.576.576,0,0,0-.806-.107h0l-10.27,7.906-10.342-7.909a.574.574,0,0,0-.805.108.574.574,0,0,0,.108.805l6.875,5.256-6.875,5.285a.576.576,0,0,0-.106.807.576.576,0,0,0,.457.225.564.564,0,0,0,.349-.12l7.12-5.477,2.873,2.2a.566.566,0,0,0,.349.118.576.576,0,0,0,.351-.118l2.847-2.194,7.069,5.473a.569.569,0,0,0,.351.122.576.576,0,0,0,.575-.577.577.577,0,0,0-.222-.452l-6.831-5.29,6.829-5.256A.575.575,0,0,0,2148.811-251.839Z" transform="translate(-2126.468 252.066)" fill="#855db5"/>
            </g>
          </g>
        </g>
        <g id="Grupo_56099" data-name="Grupo 56099" transform="translate(58.14 175.917)">
          <g id="Grupo_56097" data-name="Grupo 56097" transform="translate(0.008)">
            <path id="Trazado_101144" data-name="Trazado 101144" d="M1853.527-300.246a.677.677,0,0,1-.48-.2l-3.4-3.4a.677.677,0,0,1,.021-.957.676.676,0,0,1,.936,0l3.4,3.4a.677.677,0,0,1,0,.956.678.678,0,0,1-.48.2Z" transform="translate(-1849.456 304.991)" fill="#495abf"/>
          </g>
          <g id="Grupo_56098" data-name="Grupo 56098" transform="translate(0 0)">
            <path id="Trazado_101145" data-name="Trazado 101145" d="M1850.122-300.246a.672.672,0,0,1-.478-.2.679.679,0,0,1,0-.957l3.4-3.4a.677.677,0,0,1,.957.021.677.677,0,0,1,0,.936l-3.4,3.4A.674.674,0,0,1,1850.122-300.246Z" transform="translate(-1849.447 304.991)" fill="#495abf"/>
          </g>
        </g>
        <g id="Grupo_56102" data-name="Grupo 56102" transform="translate(115.941 33.024)">
          <g id="Grupo_56100" data-name="Grupo 56100" transform="translate(0.011 0.022)">
            <path id="Trazado_101146" data-name="Trazado 101146" d="M1922.427-470.542a.671.671,0,0,1-.48-.2l-3.4-3.4a.676.676,0,0,1,.02-.957.678.678,0,0,1,.937,0l3.4,3.4a.677.677,0,0,1,0,.956.679.679,0,0,1-.48.2Z" transform="translate(-1918.356 475.287)" fill="#495abf"/>
          </g>
          <g id="Grupo_56101" data-name="Grupo 56101">
            <path id="Trazado_101147" data-name="Trazado 101147" d="M1919.022-470.546a.677.677,0,0,1-.679-.674.678.678,0,0,1,.2-.482l3.4-3.4a.677.677,0,0,1,.957-.021.678.678,0,0,1,.02.957l-.02.021-3.4,3.4A.676.676,0,0,1,1919.022-470.546Z" transform="translate(-1918.343 475.313)" fill="#495abf"/>
          </g>
        </g>
        <g id="Grupo_56105" data-name="Grupo 56105" transform="translate(40.169 16.285)">
          <g id="Grupo_56103" data-name="Grupo 56103" transform="translate(0.011 0.001)">
            <path id="Trazado_101148" data-name="Trazado 101148" d="M1832.109-490.519a.67.67,0,0,1-.478-.2l-3.4-3.4a.677.677,0,0,1,.021-.957.676.676,0,0,1,.936,0l3.4,3.4a.675.675,0,0,1,0,.956.673.673,0,0,1-.482.2Z" transform="translate(-1828.04 495.264)" fill="#495abf"/>
          </g>
          <g id="Grupo_56104" data-name="Grupo 56104">
            <path id="Trazado_101149" data-name="Trazado 101149" d="M1828.7-490.519a.676.676,0,0,1-.677-.675.679.679,0,0,1,.2-.48l3.4-3.4a.677.677,0,0,1,.957.021.677.677,0,0,1,0,.936l-3.4,3.4A.67.67,0,0,1,1828.7-490.519Z" transform="translate(-1828.027 495.265)" fill="#495abf"/>
          </g>
        </g>
        <g id="Grupo_56108" data-name="Grupo 56108" transform="translate(298.816 73.133)">
          <g id="Grupo_56106" data-name="Grupo 56106" transform="translate(0)">
            <path id="Trazado_101150" data-name="Trazado 101150" d="M2140.4-422.747a.673.673,0,0,1-.478-.2l-3.4-3.4a.676.676,0,0,1,0-.956.676.676,0,0,1,.956,0l3.4,3.4a.677.677,0,0,1,0,.958.68.68,0,0,1-.477.2Z" transform="translate(-2136.322 427.505)" fill="#495abf"/>
          </g>
          <g id="Grupo_56107" data-name="Grupo 56107">
            <path id="Trazado_101151" data-name="Trazado 101151" d="M2137-422.747a.678.678,0,0,1-.677-.68.677.677,0,0,1,.2-.477l3.4-3.4a.676.676,0,0,1,.956,0,.676.676,0,0,1,0,.956h0l-3.4,3.4A.672.672,0,0,1,2137-422.747Z" transform="translate(-2136.322 427.505)" fill="#495abf"/>
          </g>
        </g>
        <g id="Grupo_56109" data-name="Grupo 56109" transform="translate(132.231)">
          <path id="Trazado_101152" data-name="Trazado 101152" d="M1941.716-506.765a.685.685,0,0,1-.479-.2l-3.279-3.278a.679.679,0,0,1,0-.957l3.279-3.279a.681.681,0,0,1,.958,0l3.278,3.279a.679.679,0,0,1,0,.957l-3.278,3.278A.685.685,0,0,1,1941.716-506.765Zm-2.321-3.957,2.321,2.322,2.322-2.322-2.322-2.322Z" transform="translate(-1937.76 514.676)" fill="#495abf"/>
        </g>
        <g id="Grupo_56117" data-name="Grupo 56117" transform="translate(153.94 11.842)">
          <g id="Grupo_56112" data-name="Grupo 56112">
            <g id="Grupo_56110" data-name="Grupo 56110" transform="translate(0.668 0.438)">
              <path id="Trazado_101153" data-name="Trazado 101153" d="M1976.174-493.933c0,5.445-4.284,7.863-5.868,7.863-1.552,0-5.869-2.449-5.869-7.863a5.872,5.872,0,0,1,5.635-6.1,5.873,5.873,0,0,1,6.1,5.635q.009.233,0,.466Z" transform="translate(-1964.432 500.039)" fill="#31d9e7"/>
            </g>
            <g id="Grupo_56111" data-name="Grupo 56111">
              <path id="Trazado_101154" data-name="Trazado 101154" d="M1970.18-485.477c-1.8,0-6.544-2.626-6.544-8.54a6.544,6.544,0,0,1,6.544-6.544,6.544,6.544,0,0,1,6.544,6.544C1976.724-488.1,1971.979-485.477,1970.18-485.477Zm0-13.858a5.326,5.326,0,0,0-5.193,5.318c0,5.024,3.943,7.187,5.193,7.187s5.191-2.164,5.191-7.187a5.326,5.326,0,0,0-5.191-5.316Z" transform="translate(-1963.636 500.561)" fill="#495abf"/>
            </g>
          </g>
          <g id="Grupo_56113" data-name="Grupo 56113" transform="translate(5.864 13.909)">
            <path id="Trazado_101155" data-name="Trazado 101155" d="M1971.3-472.2a.677.677,0,0,1-.677-.677h0V-483.3a.676.676,0,0,1,.675-.677.677.677,0,0,1,.677.676h0v10.428a.677.677,0,0,1-.676.677Z" transform="translate(-1970.626 483.982)" fill="#495abf"/>
          </g>
          <g id="Grupo_56116" data-name="Grupo 56116" transform="translate(4.759 13.731)">
            <g id="Grupo_56114" data-name="Grupo 56114" transform="translate(0.678 0.677)">
              <path id="Trazado_101156" data-name="Trazado 101156" d="M1972.231-482.286h-2.114l1.1-1.1Z" transform="translate(-1970.117 483.387)" fill="#c595ff"/>
            </g>
            <g id="Grupo_56115" data-name="Grupo 56115">
              <path id="Trazado_101157" data-name="Trazado 101157" d="M1972.1-481.741h-2.118a.677.677,0,0,1-.676-.679.674.674,0,0,1,.2-.477l1.1-1.1a.678.678,0,0,1,.961,0l.016.016,1.014,1.1a.676.676,0,0,1-.041.956.68.68,0,0,1-.458.178Z" transform="translate(-1969.309 484.194)" fill="#495abf"/>
            </g>
          </g>
        </g>
        <g id="Grupo_56125" data-name="Grupo 56125" transform="translate(15.205 172.403)">
          <g id="Grupo_56120" data-name="Grupo 56120">
            <g id="Grupo_56118" data-name="Grupo 56118" transform="translate(0.663 0.442)">
              <path id="Trazado_101158" data-name="Trazado 101158" d="M1810.8-302.547c0,5.445-4.285,7.863-5.867,7.863-1.552,0-5.873-2.449-5.873-7.863a5.873,5.873,0,0,1,5.635-6.1,5.873,5.873,0,0,1,6.1,5.635q.009.233,0,.466Z" transform="translate(-1799.061 308.653)" fill="#f9e478"/>
            </g>
            <g id="Grupo_56119" data-name="Grupo 56119">
              <path id="Trazado_101159" data-name="Trazado 101159" d="M1804.814-294.092c-1.8,0-6.544-2.626-6.544-8.54a6.544,6.544,0,0,1,6.541-6.547,6.544,6.544,0,0,1,6.547,6.541v.007C1811.358-296.717,1806.616-294.092,1804.814-294.092Zm0-13.858a5.328,5.328,0,0,0-5.193,5.318c0,5.024,3.943,7.186,5.193,7.186s5.192-2.162,5.192-7.186A5.327,5.327,0,0,0,1804.814-307.95Z" transform="translate(-1798.27 309.179)" fill="#495abf"/>
            </g>
          </g>
          <g id="Grupo_56121" data-name="Grupo 56121" transform="translate(5.867 13.917)">
            <path id="Trazado_101160" data-name="Trazado 101160" d="M1805.94-280.815a.677.677,0,0,1-.677-.671v-10.428a.677.677,0,0,1,.675-.677.677.677,0,0,1,.677.676h0v10.428A.676.676,0,0,1,1805.94-280.815Z" transform="translate(-1805.263 292.591)" fill="#495abf"/>
          </g>
          <g id="Grupo_56124" data-name="Grupo 56124" transform="translate(4.766 13.732)">
            <g id="Grupo_56122" data-name="Grupo 56122" transform="translate(0.676 0.679)">
              <path id="Trazado_101161" data-name="Trazado 101161" d="M1806.871-290.9h-2.114l1.1-1.1Z" transform="translate(-1804.757 292.002)" fill="#c595ff"/>
            </g>
            <g id="Grupo_56123" data-name="Grupo 56123">
              <path id="Trazado_101162" data-name="Trazado 101162" d="M1806.741-290.355h-2.114a.677.677,0,0,1-.676-.678.674.674,0,0,1,.2-.477l1.1-1.1a.675.675,0,0,1,.955,0l.022.023,1.014,1.1a.676.676,0,0,1-.041.956.68.68,0,0,1-.458.178Z" transform="translate(-1803.951 292.811)" fill="#495abf"/>
            </g>
          </g>
        </g>
      </g>
    </g>
    <g id="Grupo_56062" data-name="Grupo 56062" transform="translate(1834.776 -337.399)">
      <g id="Grupo_56049" data-name="Grupo 56049" transform="translate(55.774 41.861)">
        <g id="Grupo_56047" data-name="Grupo 56047">
          <path id="Trazado_101108" data-name="Trazado 101108" d="M1920.26-190.042a1.777,1.777,0,0,1-1-.748,4,4,0,0,1-.4-.711c-.059-.138-.118-.284-.173-.437s-.1-.317-.144-.488a11.24,11.24,0,0,1-.229-1.13l-.024-.157c-.007-.051-.013-.1-.018-.157-.013-.106-.023-.213-.034-.325-.021-.219-.037-.446-.051-.682-.007-.118-.014-.238-.019-.36,0-.062-.005-.123-.007-.185v-.185c0-.252,0-.5.007-.768l.011-.4c.005-.134.008-.273.019-.411q.03-.413.069-.847l.04-.439.023-.224.03-.222q.062-.449.133-.917l.074-.472.09-.476q.093-.479.2-.977c.032-.168.074-.33.115-.5l.123-.5.128-.511c.021-.084.042-.168.067-.258l.072-.252q.149-.516.309-1.044l.08-.264.088-.263.178-.531c.235-.717.512-1.426.794-2.162.034-.091.072-.181.109-.272l.115-.272.229-.549c.08-.184.157-.367.237-.55l.252-.549.252-.552c.084-.184.168-.37.264-.552.181-.365.365-.732.554-1.1.092-.185.192-.365.29-.549l.3-.55c.1-.184.2-.367.3-.55l.314-.544.317-.547.16-.273.168-.27q.336-.54.671-1.083c.229-.357.464-.711.7-1.067s.478-.706.721-1.056.488-.7.741-1.042.5-.688.762-1.028l.78-1.007.2-.252.2-.245.4-.492.4-.49.408-.48.407-.476c.138-.159.272-.319.411-.472l.829-.923c.138-.154.277-.3.42-.453l.419-.446.419-.445.419-.434c.28-.285.559-.575.839-.853l.839-.826.21-.2.211-.2.419-.4c.555-.529,1.114-1.026,1.663-1.519.136-.123.275-.242.411-.36l.409-.354c.273-.232.539-.466.81-.688.536-.445,1.06-.878,1.576-1.282l.383-.3.19-.15.1-.074c.03-.024.062-.049.1-.074l.4-.305c.134-.1.264-.2.4-.3,1.064-.783,2.111-1.485,3.1-2.09l.368-.222c.122-.072.242-.144.363-.213.24-.138.476-.27.7-.4.466-.252.9-.482,1.317-.68A26.388,26.388,0,0,1,1954-241c.227-.053.453-.1.679-.154l.335-.072c.112-.023.227-.044.341-.065.227-.042.455-.084.68-.118s.451-.064.671-.093.448-.055.671-.08.44-.035.658-.049.436-.029.649-.039.427-.008.637-.011a20.592,20.592,0,0,1,4.636.472c.173.039.346.08.517.122s.336.084.5.134c.331.095.651.194.963.3s.613.217.9.342l.217.09c.072.03.141.062.212.093.141.064.278.128.414.192s.27.133.4.2.259.138.386.208q.376.211.728.432c.233.15.455.305.671.461s.419.314.613.48a10.291,10.291,0,0,1,1.058,1.012,8.644,8.644,0,0,1,.839,1.069,7.868,7.868,0,0,1,.616,1.106,6.722,6.722,0,0,1,.4,1.139,6.222,6.222,0,0,1,.146,2.311,6.886,6.886,0,0,1-.671,2.218,8.522,8.522,0,0,1-.6,1.023,10,10,0,0,1-.742.97c-.27.312-.559.621-.868.917s-.629.587-.968.864c-.168.138-.342.279-.517.419s-.352.27-.533.4-.362.266-.547.4c-.091.065-.185.125-.277.19s-.187.131-.28.192-.187.127-.282.189l-.141.091-.141.093c-.189.125-.379.247-.57.365s-.379.242-.57.358c-.1.056-.19.118-.285.176l-.284.175c-.755.461-1.5.9-2.2,1.321q-.132.079-.264.154c-.084.053-.168.106-.258.157s-.168.1-.259.15-.168.1-.251.154-.168.095-.252.144-.168.1-.252.148l-.126.072-.128.076c-.084.049-.175.1-.261.144-.706.4-1.474.792-2.338,1.216-.215.1-.455.222-.714.342l-.85.419c-.612.3-1.314.658-2.1,1.079-.1.049-.2.106-.3.16l-.307.168-.679.381c-.466.258-.936.531-1.426.806-.245.138-.488.282-.738.425l-.376.217c-.125.072-.252.144-.379.221-.5.3-1.024.6-1.543.923l-.393.237-.2.118-.2.122-.8.492c-.268.168-.533.336-.8.5l-.405.252-.4.263-.408.261c-.136.088-.274.174-.408.266l-.813.539c-.139.088-.272.181-.407.273l-.405.279-.411.277-.4.284-.405.285-.2.141-.2.146-.81.58-.8.594c-.27.2-.531.4-.8.6s-.531.4-.788.608l-.781.616-.768.624-.192.155-.187.159-.378.315-.377.314-.368.319-.368.317c-.124.106-.252.21-.367.319l-.72.64c-.122.106-.237.215-.352.323l-.351.321-.351.321-.335.323-.341.323-.168.159c-.056.053-.115.106-.168.16-.437.432-.883.853-1.3,1.282l-.315.317-.159.157-.152.159q-.3.317-.608.628l-.152.155-.146.157-.291.309-.291.307c-.095.1-.194.2-.285.3q-.277.3-.554.6l-.275.293-.264.294q-.261.288-.523.57l-.131.141-.125.139-.247.275c-.168.184-.33.362-.494.536-.084.084-.159.173-.238.259l-.232.252c-.154.168-.307.336-.461.49l-.115.117-.109.118-.217.231c-.144.15-.288.3-.429.435q-.106.106-.211.206l-.1.1-.1.1c-.266.261-.53.5-.786.709-.127.107-.252.2-.378.3s-.242.18-.36.259a4.356,4.356,0,0,1-.69.384A1.929,1.929,0,0,1,1920.26-190.042Z" transform="translate(-1918.168 241.681)" fill="#31d9e7"/>
        </g>
        <g id="Grupo_56048" data-name="Grupo 56048" transform="translate(1.81 9.438)">
          <path id="Trazado_101109" data-name="Trazado 101109" d="M1973.7-229.438c-1.5-.178-3.007-.31-4.515-.367a39.82,39.82,0,0,0-4.519.084,30.593,30.593,0,0,0-4.452.684l-.547.139-.274.069c-.09.024-.18.051-.27.077l-.272.077c-.09.027-.179.049-.27.08l-.536.168c-.712.238-1.418.5-2.113.789s-1.378.607-2.052.941-1.337.695-1.993,1.069-1.3.767-1.936,1.175-1.264.826-1.89,1.258l-.469.319c-.155.107-.309.217-.464.326l-.464.326c-.155.109-.312.217-.464.33l-.923.666c-.153.109-.3.226-.455.336l-.455.341c-.15.115-.3.227-.453.342l-.448.347-.448.349-.224.175-.222.176-.885.711-.872.725-.219.181c-.072.06-.144.123-.215.184l-.43.37-.43.37c-.144.123-.284.252-.425.378l-.42.378c-.141.127-.284.252-.419.379l-.832.771q-1.65,1.558-3.211,3.206t-2.991,3.409l-.711.882-.69.9c-.235.3-.451.607-.671.912l-.336.456c-.109.154-.215.31-.325.466l-.323.466c-.106.155-.215.309-.317.467l-.623.947c-.053.08-.1.16-.152.24l-.149.242-.3.482c-.2.317-.389.647-.58.972l-.285.49c-.048.084-.093.168-.138.247l-.138.252-.272.5-.136.252c-.023.042-.046.084-.067.125l-.065.125-.515,1.007-.065.125-.06.128-.122.252-.243.509-.122.252-.062.128-.056.128-.227.518-.229.518-.056.128-.055.131-.106.263-.213.524-.106.263c-.035.088-.072.174-.1.264l-.394,1.06q-.755,2.134-1.32,4.329l-.57-.144q.569-2.219,1.342-4.382l.4-1.074c.032-.09.067-.178.1-.268l.107-.264.215-.531.107-.266.054-.133.058-.131.231-.523.231-.525.058-.131.062-.128.123-.259.245-.517.123-.259.062-.128.065-.127.522-1.021.065-.127c.021-.042.044-.084.067-.125l.138-.252.275-.5.138-.252c.046-.084.091-.168.141-.252l.288-.493c.194-.33.381-.661.587-.984l.3-.487.15-.243c.051-.084.1-.162.153-.242l.628-.957c.1-.16.213-.315.323-.472l.326-.471c.109-.157.215-.315.326-.469l.336-.462c.226-.309.446-.621.68-.923s.464-.6.7-.906l.717-.89q1.452-1.769,3.02-3.44t3.238-3.233l.839-.776c.138-.131.282-.252.42-.383l.427-.381c.143-.125.284-.252.429-.379l.432-.372.434-.372.217-.187.221-.181.88-.73.89-.714.222-.18.226-.174.451-.351.451-.349c.152-.117.305-.229.456-.344l.456-.344c.154-.113.3-.229.458-.341l.923-.671c.153-.113.31-.221.466-.33l.467-.33c.155-.109.31-.221.467-.328l.472-.321q.939-.648,1.9-1.266t1.961-1.185q1-.569,2.023-1.085t2.088-.957q1.061-.442,2.154-.8l.549-.174c.09-.03.184-.055.275-.084l.277-.08.277-.08.279-.07.559-.141a31.009,31.009,0,0,1,4.542-.7,40.032,40.032,0,0,1,4.587-.084c1.527.056,3.049.19,4.563.37Z" transform="translate(-1920.325 230.431)" fill="#fff"/>
        </g>
      </g>
      <g id="Grupo_56052" data-name="Grupo 56052" transform="translate(51.68 24.322)">
        <g id="Grupo_56050" data-name="Grupo 56050">
          <path id="Trazado_101110" data-name="Trazado 101110" d="M1920.977-194.885a1.754,1.754,0,0,1-1.293-.206,3.913,3.913,0,0,1-1.381-1.4c-.109-.168-.215-.336-.317-.508s-.2-.336-.307-.518c-.2-.36-.411-.749-.608-1.175-.1-.211-.2-.432-.3-.658s-.2-.462-.294-.706-.2-.49-.291-.748-.187-.52-.282-.79a47.722,47.722,0,0,1-1.887-7.723,57.608,57.608,0,0,1-.727-9.67c.016-1.727.109-3.5.294-5.285a54.257,54.257,0,0,1,.832-5.385,51.061,51.061,0,0,1,1.4-5.3c.279-.864.576-1.717.9-2.551l.118-.314c.04-.1.084-.206.125-.31l.252-.613.125-.305c.042-.1.084-.2.127-.3l.263-.594.263-.587c.088-.2.179-.384.27-.575l.274-.57.136-.282.139-.275c.187-.367.372-.73.559-1.086l.568-1.04c.093-.173.189-.336.285-.5l.285-.494.285-.485.288-.469.284-.462c.1-.154.189-.305.285-.45l.565-.866c.091-.143.187-.28.279-.419l.278-.4c.184-.266.363-.529.545-.776l.533-.727.128-.176.131-.168.252-.336.5-.637c.168-.2.323-.4.478-.587s.305-.368.451-.541.291-.336.429-.488a32.473,32.473,0,0,1,3.44-3.347,31.566,31.566,0,0,1,3.99-2.863,25.848,25.848,0,0,1,2.3-1.224c.2-.091.4-.182.6-.27l.608-.252c.2-.084.411-.159.616-.232l.307-.109.154-.053.157-.051a18.6,18.6,0,0,1,2.488-.629c.2-.034.408-.065.607-.1s.393-.044.587-.064.381-.029.566-.037l.277-.013h.27c.178,0,.354,0,.527.007s.341.019.5.032.326.029.485.048.315.04.466.065c.3.053.6.107.874.18.139.035.275.07.411.109s.263.084.389.123a8.833,8.833,0,0,1,2.564,1.342c.088.065.173.134.258.2s.168.139.242.21c.159.143.309.288.45.437a7.189,7.189,0,0,1,.747.945,6.3,6.3,0,0,1,.978,4.456,7.636,7.636,0,0,1-.263,1.169c-.055.194-.121.388-.2.582-.035.1-.072.194-.113.291s-.077.194-.12.291a21.88,21.88,0,0,1-1.192,2.278c-.055.093-.109.185-.168.277s-.107.185-.16.277c-.113.181-.211.367-.319.544-.053.09-.1.18-.152.268s-.1.176-.148.266-.1.174-.143.261l-.131.258c-.021.042-.044.084-.064.127l-.058.127c-.039.084-.084.168-.113.252l-.1.242-.084.237-.168.466c-.029.08-.056.155-.084.231s-.06.16-.09.238l-.1.238c-.034.084-.067.155-.1.24s-.072.168-.111.245-.077.168-.118.252c-.168.336-.352.691-.571,1.067a25.245,25.245,0,0,1-1.716,2.556q-1.1,1.446-2.336,2.837l-.671.742c-.12.133-.245.268-.374.408s-.252.284-.392.432l-.206.222-.1.115-.1.117q-.209.233-.432.476c-.148.162-.293.328-.446.5l-.229.252c-.077.084-.157.173-.232.263-.154.176-.31.357-.472.538-.084.091-.16.184-.24.277l-.24.282-.247.288-.243.291-.247.3c-.084.1-.168.2-.252.3-.168.2-.33.409-.5.616l-.5.637-.127.16-.122.162-.252.33q-.126.164-.252.336l-.245.336-.252.341c-.042.056-.084.115-.121.168l-.12.175-.243.349c-.04.058-.084.117-.123.176l-.118.18q-.483.714-.956,1.479c-.629,1.021-1.243,2.107-1.831,3.248s-1.146,2.337-1.674,3.569-1.024,2.5-1.488,3.788c-.928,2.569-1.727,5.2-2.433,7.7s-1.336,4.862-1.951,6.905c-.076.252-.152.5-.229.749s-.152.485-.229.72-.155.462-.229.684-.154.439-.231.649c-.157.419-.309.815-.467,1.181-.08.181-.159.36-.24.52s-.16.3-.24.439-.159.252-.238.368-.154.238-.227.349c-.15.224-.293.429-.437.607A1.9,1.9,0,0,1,1920.977-194.885Z" transform="translate(-1913.288 262.586)" fill="#95f7ff"/>
        </g>
        <g id="Grupo_56051" data-name="Grupo 56051" transform="translate(6.669 5.585)">
          <path id="Trazado_101111" data-name="Trazado 101111" d="M1953.182-255.353c-1.535.336-3.061.677-4.541,1.155a20.441,20.441,0,0,0-2.165.834,16.956,16.956,0,0,0-2.03,1.112,25.831,25.831,0,0,0-3.644,2.894c-.571.533-1.127,1.082-1.678,1.64l-.818.839c-.27.282-.538.568-.806.853a68.31,68.31,0,0,0-5.944,7.256,49.922,49.922,0,0,0-4.683,8.1,51.512,51.512,0,0,0-3.054,8.85,65.412,65.412,0,0,0-1.576,9.244,87.373,87.373,0,0,0-.411,9.383q.019,2.35.138,4.7c.023.392.04.783.065,1.175l.074,1.175c.014.2.029.388.048.578s.045.379.076.568a4.954,4.954,0,0,0,.309,1.1l-.566.152a5.236,5.236,0,0,1-.321-1.164c-.034-.2-.06-.4-.084-.6s-.035-.4-.05-.6l-.076-1.18c-.023-.393-.042-.786-.064-1.18q-.118-2.36-.139-4.724a88.323,88.323,0,0,1,.413-9.446,66.113,66.113,0,0,1,1.594-9.328,52.059,52.059,0,0,1,3.095-8.95,50.7,50.7,0,0,1,4.736-8.2,69.331,69.331,0,0,1,6-7.32c.272-.288.539-.575.813-.861l.824-.848c.554-.56,1.116-1.116,1.695-1.656a26.235,26.235,0,0,1,3.729-2.959,17.449,17.449,0,0,1,2.1-1.154,20.822,20.822,0,0,1,2.231-.859c1.51-.488,3.06-.834,4.593-1.169Z" transform="translate(-1921.237 255.929)" fill="#fff"/>
        </g>
      </g>
      <g id="Grupo_56055" data-name="Grupo 56055" transform="translate(32.763)">
        <g id="Grupo_56053" data-name="Grupo 56053">
          <path id="Trazado_101112" data-name="Trazado 101112" d="M1915.964-198.557c-.573.525-1.762.378-3.4-.409a19.452,19.452,0,0,1-2.769-1.665,33.345,33.345,0,0,1-3.257-2.652c-.288-.263-.575-.539-.868-.826s-.587-.587-.882-.894c-.587-.621-1.19-1.287-1.788-2.014s-1.2-1.5-1.783-2.349a30.537,30.537,0,0,1-1.711-2.751,25.538,25.538,0,0,1-1.525-3.3l-.044-.113-.039-.107-.077-.211-.154-.429c-.053-.144-.1-.288-.146-.432l-.143-.435q-.277-.876-.509-1.774a36.824,36.824,0,0,1-.741-3.65c-.187-1.231-.314-2.471-.392-3.707a55.926,55.926,0,0,1,.06-7.3c.168-2.377.448-4.678.769-6.875.159-1.1.33-2.176.5-3.218l.491-3.01c.317-1.945.6-3.766.812-5.449s.356-3.223.425-4.614c.035-.695.048-1.349.048-1.966,0-.31-.005-.607-.011-.9l-.016-.427v-.106l-.005-.1-.011-.2-.011-.2-.014-.2c-.011-.128-.018-.259-.029-.384l-.033-.37-.009-.091-.009-.088-.019-.176c-.022-.237-.056-.458-.084-.677-.014-.107-.032-.213-.046-.317s-.029-.208-.048-.307l-.05-.294-.011-.072-.014-.069-.024-.136c-.018-.09-.032-.178-.05-.264s-.037-.173-.053-.258l-.024-.125-.029-.123c-.018-.084-.035-.16-.051-.24-.035-.157-.072-.309-.1-.453-.272-1.162-.582-2.308-.923-3.433s-.707-2.229-1.091-3.306q-.288-.809-.587-1.6c-.2-.525-.4-1.042-.606-1.555s-.41-1.018-.612-1.517l-.305-.744c-.024-.062-.051-.123-.076-.184l-.077-.184c-.051-.122-.1-.243-.157-.37-.217-.5-.485-1.037-.773-1.594l-.051-.1c-.016-.034-.035-.07-.054-.106l-.107-.213-.106-.211-.109-.217-.106-.215-.1-.217c-.072-.146-.143-.293-.208-.437a18.65,18.65,0,0,1-.725-1.769c-.027-.072-.051-.146-.074-.219l-.069-.217c-.046-.148-.088-.293-.125-.435-.02-.072-.037-.143-.055-.213s-.035-.144-.051-.215c-.032-.143-.058-.284-.084-.419-.013-.069-.023-.136-.033-.2s-.02-.139-.029-.208c-.018-.136-.03-.27-.039-.4s-.016-.258-.018-.388,0-.252.007-.379.016-.243.029-.36.03-.237.051-.349a4.907,4.907,0,0,1,.168-.645,3.152,3.152,0,0,1,.115-.3c.043-.095.084-.192.132-.282a3.908,3.908,0,0,1,.319-.509,4.012,4.012,0,0,1,.824-.824,6.921,6.921,0,0,1,2.106-1.018c.192-.06.386-.117.58-.168l.293-.074c.1-.024.2-.049.3-.072l.3-.065.305-.062.311-.058.155-.027.16-.024.321-.048.162-.021.168-.019c.111-.013.224-.023.336-.034.054-.005.113-.011.168-.014l.175-.013a12.328,12.328,0,0,1,1.493-.005c.136.009.272.018.409.03h.053l.053.005.107.013.218.027c.074.009.144.018.22.029l.229.035.231.04c.038.007.075.013.116.021l.122.024a13.338,13.338,0,0,1,2.132.613c.192.069.4.155.6.24l.305.131c.1.044.2.088.305.138.2.093.409.192.616.293.1.05.206.1.309.157l.311.162a24.048,24.048,0,0,1,2.49,1.536,26.76,26.76,0,0,1,2.458,1.956,28.494,28.494,0,0,1,2.349,2.377,30,30,0,0,1,4.07,5.952,31.232,31.232,0,0,1,2.721,7.348c.074.336.152.671.224,1.035l.1.552.053.284.048.291.091.6c.032.2.056.409.084.619l.04.315.019.16.016.159.065.647c.021.219.037.439.053.663s.032.45.045.677c.019.455.044.923.05,1.4l0,.357v.359l0,.727c0,.243-.014.487-.021.735l-.013.372-.021.372-.019.376-.011.189-.014.189-.06.755c-.046.5-.095,1.019-.159,1.53-.125,1.026-.28,2.065-.47,3.1-.381,2.076-.885,4.155-1.467,6.2s-1.243,4.054-1.924,6.014c-.341.981-.686,1.948-1.028,2.9s-.671,1.873-1,2.793c-.653,1.839-1.264,3.636-1.791,5.382s-.97,3.44-1.293,5.066a32.083,32.083,0,0,0-.6,4.7c-.018.378-.027.747-.029,1.118v.55l.014.536a14.732,14.732,0,0,0,.192,2.033c.113.709.27,1.435.451,2.159s.387,1.446.608,2.156.456,1.4.693,2.082c.117.336.238.671.357,1s.238.653.358.97c.471,1.275.928,2.455,1.315,3.524s.717,2.029.943,2.863C1916.489-200.258,1916.545-199.085,1915.964-198.557Z" transform="translate(-1890.74 291.577)" fill="#31d9e7"/>
        </g>
        <g id="Grupo_56054" data-name="Grupo 56054" transform="translate(1.549 1.724)">
          <path id="Trazado_101113" data-name="Trazado 101113" d="M1893.045-289.522l.12.152.06.076.064.072.252.293c.084.095.176.189.264.284.044.046.088.093.134.139l.139.138.138.136.069.069.072.065.285.266c.1.084.2.168.294.258s.2.168.3.252c.2.168.405.336.61.5s.413.323.624.482c.419.317.845.631,1.269.947s.85.635,1.268.966c.211.162.42.336.623.5l.155.127.152.133.3.261a28.867,28.867,0,0,1,2.289,2.243,30.231,30.231,0,0,1,3.795,5.149,30.516,30.516,0,0,1,1.472,2.844c.058.12.111.243.168.365l.158.368c.1.245.2.494.3.741l.143.376.071.187c.023.062.046.125.069.189l.133.378.067.189.062.19a29.841,29.841,0,0,1,.839,3.091l.042.2.039.2.075.393c.014.065.027.133.037.2l.034.2.067.4c.039.264.08.529.112.794l.048.4c.016.133.033.264.046.4a36.113,36.113,0,0,1,.058,6.39,55.255,55.255,0,0,1-.871,6.317c-.4,2.086-.888,4.151-1.4,6.208s-1.06,4.1-1.567,6.15-.978,4.111-1.357,6.179a53.243,53.243,0,0,0-.8,6.258,34.709,34.709,0,0,0,.152,6.283,28.544,28.544,0,0,0,.55,3.089c.016.064.028.127.046.19l.05.189.1.379.111.374c.037.125.072.252.115.374l.122.372.032.093.032.093.067.184c.044.123.084.247.132.368l.141.367.072.184c.023.06.049.12.074.181l.15.362c.05.122.1.242.157.362l.159.36.168.357c.056.118.109.238.168.354l.175.352.084.178.09.174q.717,1.4,1.538,2.749a59.056,59.056,0,0,0,3.576,5.2c1.279,1.674,2.636,3.29,4.054,4.848l-.432.4q-2.147-2.355-4.087-4.886a59.052,59.052,0,0,1-3.608-5.253c-.552-.91-1.076-1.839-1.56-2.788l-.09-.178-.088-.178-.176-.36c-.06-.12-.115-.242-.168-.362l-.168-.363-.162-.367c-.053-.122-.109-.243-.159-.367l-.154-.37c-.027-.062-.053-.123-.077-.185l-.072-.187-.144-.374c-.046-.125-.09-.252-.136-.378l-.067-.189-.034-.095-.032-.1-.125-.381c-.042-.127-.084-.252-.118-.384l-.115-.386-.1-.39-.051-.194c-.016-.065-.03-.131-.046-.2a28.88,28.88,0,0,1-.56-3.154,35.128,35.128,0,0,1-.155-6.39,53.844,53.844,0,0,1,.8-6.327c.383-2.09.857-4.158,1.367-6.214s1.055-4.1,1.567-6.152,1-4.1,1.4-6.173a54.439,54.439,0,0,0,.862-6.249,35.44,35.44,0,0,0-.056-6.286c-.013-.131-.03-.259-.044-.389l-.048-.39c-.034-.259-.074-.518-.111-.778l-.065-.386-.034-.194c-.011-.065-.021-.128-.035-.194l-.076-.384-.037-.192-.042-.192a29.347,29.347,0,0,0-.826-3.03l-.062-.187-.065-.185-.131-.37c-.021-.062-.042-.123-.067-.185l-.069-.184-.139-.367c-.1-.243-.194-.487-.3-.728l-.155-.36c-.053-.122-.1-.242-.16-.36a30.042,30.042,0,0,0-1.444-2.79,29.614,29.614,0,0,0-3.723-5.048,28.417,28.417,0,0,0-2.241-2.2q-.591-.516-1.21-1.007c-.411-.325-.832-.64-1.258-.956s-.853-.628-1.273-.952c-.213-.159-.419-.325-.633-.487s-.419-.336-.622-.5c-.1-.084-.206-.168-.307-.259s-.2-.176-.3-.266l-.3-.273-.074-.069-.072-.07-.144-.143-.143-.141c-.05-.048-.093-.1-.141-.146-.091-.1-.185-.2-.277-.3l-.266-.307c-.021-.026-.044-.051-.065-.077l-.064-.08-.127-.159Z" transform="translate(-1892.587 289.522)" fill="#fff"/>
        </g>
      </g>
      <g id="Grupo_56058" data-name="Grupo 56058" transform="translate(0 30.788)">
        <g id="Grupo_56056" data-name="Grupo 56056">
          <path id="Trazado_101114" data-name="Trazado 101114" d="M1909.178-192.169a1.644,1.644,0,0,1-.852.949,4.386,4.386,0,0,1-.82.342c-.077.024-.16.049-.243.072s-.168.04-.258.058q-.267.055-.562.1a10.182,10.182,0,0,1-1.3.113c-.235.007-.48.009-.731.007-.127,0-.252,0-.388-.007s-.261-.013-.4-.021c-.268-.018-.544-.039-.831-.067-.143-.013-.288-.027-.435-.042l-.443-.062c-.3-.044-.6-.091-.923-.144l-.238-.04-.238-.048-.483-.1-.493-.109-.252-.056-.127-.029-.125-.034c-.335-.084-.679-.178-1.028-.275l-.263-.074c-.09-.024-.178-.049-.264-.077l-.531-.168-.539-.176c-.181-.06-.367-.118-.547-.185-.363-.133-.733-.268-1.107-.411-.093-.035-.189-.069-.282-.106l-.278-.115-.566-.235-.571-.242c-.19-.084-.379-.168-.571-.258l-.576-.266-.291-.136-.144-.069-.144-.07q-.576-.288-1.164-.587l-.149-.076-.144-.077-.291-.159-.587-.321-.3-.162-.146-.084-.146-.084-.587-.344-.587-.351c-.1-.058-.2-.118-.294-.18l-.292-.186-.587-.372-.295-.189c-.1-.062-.194-.128-.291-.192-.388-.261-.778-.524-1.169-.792s-.77-.55-1.159-.831c-.2-.139-.384-.285-.575-.43L1882-200a66.073,66.073,0,0,1-8.6-7.97c-1.316-1.453-2.561-2.951-3.724-4.473l-.43-.571-.215-.285c-.07-.095-.143-.19-.211-.288l-.824-1.151c-.268-.386-.529-.774-.79-1.159l-.194-.288-.189-.291-.372-.58-.185-.288c-.062-.1-.125-.194-.179-.282l-.336-.541-.336-.534-.319-.524-.315-.517-.3-.5-.3-.5-.288-.485-.555-.946-.525-.9-.97-1.678-2.858-4.936q-.5-.886-.954-1.717c-.076-.138-.15-.275-.222-.413l-.107-.206-.107-.2c-.071-.133-.141-.266-.21-.4l-.1-.2-.1-.19q-.773-1.515-1.426-2.918c-.872-1.869-1.58-3.582-2.186-5.238l-.222-.619-.109-.307c-.035-.1-.071-.2-.106-.309l-.1-.3-.1-.307c-.034-.1-.067-.2-.1-.3l-.1-.305c-.252-.808-.487-1.615-.671-2.414-.046-.2-.09-.4-.128-.6s-.074-.4-.106-.6-.058-.4-.084-.592c-.011-.1-.019-.2-.029-.3s-.014-.2-.019-.294a6.961,6.961,0,0,1,.227-2.314,4.974,4.974,0,0,1,1.141-2.037c.069-.076.142-.15.217-.222s.152-.141.232-.208a5.454,5.454,0,0,1,.519-.392,5.9,5.9,0,0,1,.587-.349c.206-.106.427-.21.656-.3a9.621,9.621,0,0,1,3.266-.626c.157-.005.312-.005.472,0s.321.005.485.013.328.019.5.034.336.029.5.05.342.046.515.07c.088.014.176.027.263.042l.263.048c.176.034.354.07.534.109s.357.084.538.131l.273.07.274.077c.181.053.367.109.552.168.365.12.742.252,1.112.4s.746.307,1.123.478.755.358,1.125.557a25.3,25.3,0,0,1,4.394,2.977,29.4,29.4,0,0,1,3.968,4.04c.075.093.153.189.226.282l.219.28c.144.187.288.376.432.568l.213.288.2.288c.138.194.274.388.408.587q.8,1.174,1.5,2.4c.06.1.122.206.18.312l.176.325q.18.331.37.688c.064.12.123.238.187.36l.187.372.194.383.1.2.1.2.388.813.1.21.1.21.2.429.2.437.2.443.2.45c.067.152.134.307.2.458l.4.931.393.949.4.965.393.978.79,1.978.2.5.2.5.2.5.192.471.19.469.095.238.1.237.408.956.432.97c.035.084.074.162.111.243l.115.243.227.49c.619,1.31,1.291,2.639,2.014,3.969a80.232,80.232,0,0,0,4.824,7.792l.328.466c.109.154.217.312.33.462l.664.91.671.89c.056.074.111.15.168.222l.168.217.341.434.168.217c.056.072.111.144.168.213l.344.419.341.419.084.106.084.1.173.2.344.409.168.2.084.1.084.1q.347.394.684.788l.084.1.084.1.173.19.341.379c.112.125.224.252.336.378l.341.365.336.363.168.181c.056.06.113.117.168.175q.336.349.661.695c.109.117.221.226.328.336l.325.336.321.328c.051.056.106.109.158.16l.159.157q.317.312.623.622l.077.077.075.074.154.148.3.294.294.291.146.146.144.138c.194.185.383.367.566.549l.272.272.27.252q.264.252.513.5c.084.084.162.168.243.247s.162.159.24.237c.157.155.307.31.452.464.285.31.555.587.792.866.118.139.231.277.336.411.051.067.1.134.15.2s.1.127.141.189a4.752,4.752,0,0,1,.434.727A1.8,1.8,0,0,1,1909.178-192.169Z" transform="translate(-1851.688 254.879)" fill="#95f7ff"/>
        </g>
        <g id="Grupo_56057" data-name="Grupo 56057" transform="translate(0.335 3.915)">
          <path id="Trazado_101115" data-name="Trazado 101115" d="M1852.256-250.213a20.344,20.344,0,0,1,2.5.93c.1.044.2.091.3.139l.3.143c.2.1.4.2.6.3s.393.21.587.319l.29.168.144.084.143.084a26.591,26.591,0,0,1,4.246,3.2,34.312,34.312,0,0,1,3.607,3.892q.825,1.037,1.58,2.128l.189.274c.064.091.123.184.185.275l.365.552c.123.184.24.37.358.557l.353.559c.931,1.5,1.784,3.044,2.6,4.6s1.594,3.135,2.374,4.71,1.546,3.151,2.349,4.708c.2.388.4.779.608,1.164l.311.576.155.289.16.285.323.57c.107.19.213.383.326.57.224.376.445.755.671,1.127q1.359,2.243,2.889,4.375t3.2,4.153l.419.5c.141.168.279.336.425.5l.866.984.885.968c.072.084.15.159.224.238l.227.237.453.474q1.825,1.878,3.8,3.608c1.315,1.149,2.677,2.247,4.089,3.272a51.943,51.943,0,0,0,4.385,2.858,42.394,42.394,0,0,0,9.575,4.144l-.162.565a43.079,43.079,0,0,1-9.707-4.2,52.763,52.763,0,0,1-4.435-2.892c-1.426-1.037-2.8-2.144-4.131-3.306s-2.6-2.377-3.833-3.641l-.457-.478-.229-.24c-.075-.08-.154-.159-.227-.24l-.893-.975-.874-1c-.146-.168-.285-.336-.429-.5l-.426-.5q-1.69-2.034-3.228-4.186t-2.913-4.412c-.227-.378-.45-.755-.671-1.138-.115-.189-.219-.381-.328-.573l-.326-.575-.162-.289-.155-.291-.314-.582c-.211-.388-.41-.779-.612-1.17-.808-1.564-1.578-3.144-2.354-4.718s-1.552-3.146-2.367-4.7-1.661-3.081-2.582-4.566l-.349-.554c-.117-.184-.231-.37-.354-.55l-.362-.544c-.059-.091-.12-.181-.181-.272l-.185-.27q-.745-1.075-1.559-2.1a33.748,33.748,0,0,0-3.546-3.823,25.853,25.853,0,0,0-4.151-3.128l-.139-.084-.141-.084-.282-.162c-.189-.106-.381-.206-.57-.31s-.386-.2-.58-.291l-.294-.139c-.1-.046-.2-.093-.294-.136a19.776,19.776,0,0,0-2.433-.9Z" transform="translate(-1852.087 250.213)" fill="#fff"/>
        </g>
      </g>
      <g id="Grupo_56061" data-name="Grupo 56061" transform="translate(57.241 73.897)">
        <g id="Grupo_56059" data-name="Grupo 56059">
          <path id="Trazado_101116" data-name="Trazado 101116" d="M1920.541-183.894a1.581,1.581,0,0,1-.515-.767,2.684,2.684,0,0,1-.074-1.2,4.313,4.313,0,0,1,.18-.739,5.682,5.682,0,0,1,.358-.811,11.364,11.364,0,0,1,1.106-1.656c.419-.539.869-1.058,1.253-1.548.194-.245.37-.483.52-.712l.106-.168.05-.084.012-.019.005-.011.012-.014.05-.056c.128-.154.263-.305.4-.461a30.6,30.6,0,0,1,3.828-3.615,37.258,37.258,0,0,1,4.666-3.16c.2-.12.411-.231.617-.344l.618-.336.622-.317.309-.155.155-.077.157-.072.621-.291.309-.143.309-.134c.413-.178.82-.354,1.226-.512a36.628,36.628,0,0,1,4.544-1.479l.5-.123.245-.06.241-.051c.317-.067.623-.128.912-.185s.566-.093.824-.133c.131-.019.252-.037.376-.053s.237-.027.347-.039a14.035,14.035,0,0,1,5.064.386c.192.053.383.109.57.168s.37.125.552.194a11.187,11.187,0,0,1,1.04.448,10.526,10.526,0,0,1,.952.529,10.308,10.308,0,0,1,.853.6c.134.1.262.213.388.325s.247.224.362.341a7.33,7.33,0,0,1,1.167,1.476,6.253,6.253,0,0,1,.411.794,6.231,6.231,0,0,1,.448,3.393,7.638,7.638,0,0,1-1.258,3.165c-.157.235-.328.466-.508.688s-.367.437-.565.643-.4.408-.617.6c-.107.095-.215.19-.326.28l-.335.272c-.228.178-.461.347-.7.5s-.485.317-.735.458-.508.284-.767.409c-.131.064-.263.122-.4.181s-.266.12-.4.174a12.562,12.562,0,0,1-3.456.859l-.5.044c-.179.014-.37.024-.575.035s-.419.029-.642.037l-.168.009-.175.011-.362.019c-.982.051-2.123.113-3.364.215-.31.021-.626.055-.949.084l-.243.021-.243.027-.5.051-.123.013-.125.016-.251.03-.508.058-.512.067c-.168.023-.346.04-.517.067-1.382.192-2.807.432-4.212.7s-2.788.587-4.1.885l-.488.111-.062.013h-.014l-.021.007-.042.014-.168.058c-.113.037-.221.069-.328.1a11.737,11.737,0,0,1-1.19.282,12.4,12.4,0,0,1-1.873.192c-.529.014-.977,0-1.389-.027-.2-.011-.4-.027-.6-.032l-.576-.019A3.089,3.089,0,0,1,1920.541-183.894Z" transform="translate(-1919.916 203.496)" fill="#a271dc"/>
        </g>
        <g id="Grupo_56060" data-name="Grupo 56060" transform="translate(0.457 8.058)">
          <path id="Trazado_101117" data-name="Trazado 101117" d="M1957.213-193.015a44.15,44.15,0,0,0-9.776-.289,44.611,44.611,0,0,0-4.853.653c-.8.148-1.6.328-2.394.518l-.594.152c-.2.053-.4.1-.587.157-.393.113-.789.217-1.174.341l-.587.18-.582.192c-.388.123-.773.264-1.157.4-.194.067-.382.143-.575.215l-.571.217-.568.231c-.189.077-.379.152-.566.235a45.372,45.372,0,0,0-4.394,2.162c-.709.405-1.413.818-2.1,1.258l-.517.336c-.175.113-.351.222-.529.33-.356.213-.717.413-1.079.61a22.718,22.718,0,0,0-2.1,1.242,7.656,7.656,0,0,0-.931.755c-.144.138-.28.284-.413.434a5.318,5.318,0,0,0-.365.474l-.344-.273c.122-.168.252-.341.386-.5a5.859,5.859,0,0,1,.434-.456,8.341,8.341,0,0,1,.981-.8,23.28,23.28,0,0,1,2.137-1.266q.54-.293,1.065-.6c.173-.106.346-.211.513-.323l.52-.336c.693-.448,1.405-.866,2.121-1.275a45.476,45.476,0,0,1,4.438-2.181c.187-.084.379-.16.57-.238l.573-.232.578-.221c.192-.072.384-.148.58-.215.388-.138.776-.28,1.167-.405l.587-.194.592-.181c.394-.123.792-.229,1.189-.344.2-.058.4-.106.6-.159l.6-.154c.8-.19,1.607-.374,2.418-.522a44.862,44.862,0,0,1,4.9-.659,44.756,44.756,0,0,1,9.871.293Z" transform="translate(-1920.461 193.891)" fill="#fff"/>
        </g>
      </g>
    </g>
  </g>
</svg>
