<svg xmlns="http://www.w3.org/2000/svg" width="88.333" height="88.333" viewBox="0 0 88.333 88.333">
  <g id="investigacion_1_" data-name="investigacion (1)" transform="translate(-1 -1)">
    <g id="Grupo_62905" data-name="Grupo 62905" transform="translate(2.425 2.425)">
      <g id="Grupo_62892" data-name="Grupo 62892" transform="translate(0 14.247)">
        <path id="Trazado_111164" data-name="Trazado 111164" d="M41.892,29.1v11.4a2.858,2.858,0,0,1-2.849,2.849H36.193v9.5A1.9,1.9,0,0,1,34.3,54.742a1.923,1.923,0,0,1-1.524-.755L24.8,43.344H4.849A2.858,2.858,0,0,1,2,40.495V14.849A2.858,2.858,0,0,1,4.849,12H39.043a2.858,2.858,0,0,1,2.849,2.849Z" transform="translate(-2 -12)" fill="#e6e9ed"/>
      </g>
      <g id="Grupo_62893" data-name="Grupo 62893" transform="translate(28.495 25.645)">
        <path id="Trazado_111165" data-name="Trazado 111165" d="M22,20h5.7V34.247H22Z" transform="translate(-22 -20)" fill="#ff826e"/>
      </g>
      <g id="Grupo_62894" data-name="Grupo 62894" transform="translate(17.097 19.946)">
        <path id="Trazado_111166" data-name="Trazado 111166" d="M14,16h5.7V35.946H14Z" transform="translate(-14 -16)" fill="#ff826e"/>
      </g>
      <g id="Grupo_62895" data-name="Grupo 62895" transform="translate(5.699 31.344)">
        <path id="Trazado_111167" data-name="Trazado 111167" d="M6,24h5.7v8.548H6Z" transform="translate(-6 -24)" fill="#ff826e"/>
      </g>
      <g id="Grupo_62896" data-name="Grupo 62896" transform="translate(56.989 59.839)">
        <path id="Trazado_111168" data-name="Trazado 111168" d="M53.4,45.425V63.946a5.7,5.7,0,0,1-11.4,0V45.425A1.429,1.429,0,0,1,43.425,44h8.548A1.429,1.429,0,0,1,53.4,45.425Z" transform="translate(-42 -44)" fill="#969faa"/>
      </g>
      <g id="Grupo_62897" data-name="Grupo 62897" transform="translate(59.839 53.969)">
        <path id="Trazado_111169" data-name="Trazado 111169" d="M49.7,39.88v5.87H44V39.88a23.831,23.831,0,0,0,5.7,0Z" transform="translate(-44 -39.88)" fill="#ccd1d9"/>
      </g>
      <g id="Grupo_62898" data-name="Grupo 62898" transform="translate(40.333 9.015)">
        <circle id="Elipse_4742" data-name="Elipse 4742" cx="22.284" cy="22.284" r="22.284" transform="translate(0 0)" fill="#dfb28b"/>
      </g>
      <g id="Grupo_62899" data-name="Grupo 62899" transform="translate(45.151 13.833)">
        <circle id="Elipse_4743" data-name="Elipse 4743" cx="17.466" cy="17.466" r="17.466" transform="translate(0 0)" fill="#69d6f4"/>
      </g>
      <g id="Grupo_62900" data-name="Grupo 62900" transform="translate(56.989 31.344)">
        <path id="Trazado_111170" data-name="Trazado 111170" d="M53.4,24v5.7H42V24H53.4Z" transform="translate(-42 -24)" fill="#aab2bd"/>
      </g>
      <g id="Grupo_62901" data-name="Grupo 62901" transform="translate(56.989 37.043)">
        <path id="Trazado_111171" data-name="Trazado 111171" d="M42,28H53.4A5.7,5.7,0,1,1,42,28Z" transform="translate(-42 -28)" fill="#aab2bd"/>
      </g>
      <g id="Grupo_62902" data-name="Grupo 62902" transform="translate(48.441 0)">
        <path id="Trazado_111172" data-name="Trazado 111172" d="M64.48,15.535a14.251,14.251,0,0,0-28.466,0c-.014.228-.014.47-.014.712a13.058,13.058,0,0,0,1.339,5.9c2.123,4.417,6.169,7.052,7.209,11.2h11.4c1.04-4.146,5.086-6.782,7.209-11.2a13.058,13.058,0,0,0,1.339-5.9c0-.242,0-.484-.014-.712Z" transform="translate(-36 -2)" fill="#ffeaa7"/>
      </g>
      <g id="Grupo_62903" data-name="Grupo 62903" transform="translate(54.14 11.398)">
        <path id="Trazado_111173" data-name="Trazado 111173" d="M45.7,12.849V15.7H42.849A2.858,2.858,0,0,1,40,12.849a2.849,2.849,0,0,1,5.7,0Z" transform="translate(-40 -10)" fill="#fcd770"/>
      </g>
      <g id="Grupo_62904" data-name="Grupo 62904" transform="translate(65.537 11.398)">
        <path id="Trazado_111174" data-name="Trazado 111174" d="M52.858,10.841A2.849,2.849,0,0,1,50.849,15.7H48V12.849A2.858,2.858,0,0,1,50.849,10,2.786,2.786,0,0,1,52.858,10.841Z" transform="translate(-48 -10)" fill="#fcd770"/>
      </g>
    </g>
    <g id="Grupo_62906" data-name="Grupo 62906" transform="translate(1 1)">
      <path id="Trazado_111175" data-name="Trazado 111175" d="M89.333,33.769a24.1,24.1,0,0,0-8.62-18.493,15.662,15.662,0,0,0-31.2,0,24.211,24.211,0,0,0-5.77,7.144v-2.9a4.279,4.279,0,0,0-4.274-4.274H5.274A4.279,4.279,0,0,0,1,19.521V45.167a4.279,4.279,0,0,0,4.274,4.274H24.508l7.55,10.067a3.325,3.325,0,0,0,5.985-1.993V49.441h1.425a4.279,4.279,0,0,0,4.274-4.274v-.024a24.275,24.275,0,0,0,17.1,12.446v3.25a2.852,2.852,0,0,0-2.849,2.849V82.209a7.124,7.124,0,0,0,14.247,0V63.688a2.852,2.852,0,0,0-2.849-2.849v-3.25a24.243,24.243,0,0,0,19.946-23.82Zm-34.7-5.187c1.527,1.858,2.838,3.473,3.361,5.415v5.471a7.124,7.124,0,0,0,14.247,0V34c.523-1.942,1.834-3.558,3.361-5.415a39.085,39.085,0,0,0,2.593-3.422,15.672,15.672,0,1,1-26.155,0,38.325,38.325,0,0,0,2.593,3.422ZM60.838,18.1H59.414a1.425,1.425,0,1,1,1.425-1.425Zm5.7,14.247H63.688v-11.4h2.849Zm2.849,2.849v2.849H60.838V35.193Zm-.262,5.7a4.249,4.249,0,0,1-8.024,0ZM65.113,3.849A12.837,12.837,0,0,1,77.935,16.672c0,4.575-2.308,7.384-4.539,10.1a20.229,20.229,0,0,0-3.624,5.571h-.385v-11.4h1.425a4.274,4.274,0,1,0-4.274-4.274V18.1H63.688V16.672a4.274,4.274,0,1,0-4.274,4.274h1.425v11.4h-.385a20.175,20.175,0,0,0-3.625-5.571c-2.231-2.717-4.539-5.527-4.539-10.1A12.837,12.837,0,0,1,65.113,3.849ZM69.387,18.1V16.672A1.425,1.425,0,1,1,70.812,18.1ZM40.892,45.167a1.426,1.426,0,0,1-1.425,1.425H35.193V57.515a.493.493,0,0,1-.855.285L25.933,46.591H5.274a1.426,1.426,0,0,1-1.425-1.425V19.521A1.426,1.426,0,0,1,5.274,18.1H39.468a1.426,1.426,0,0,1,1.425,1.425Zm2.849-11.4a21.246,21.246,0,0,1,5.9-14.712,14.427,14.427,0,0,0,.91,3.3,18.522,18.522,0,1,0,29.129,0,14.407,14.407,0,0,0,.91-3.3A21.363,21.363,0,1,1,43.742,33.769ZM69.387,82.209a4.274,4.274,0,0,1-8.548,0V63.688h8.548ZM66.537,60.838H63.688V57.916c.474.028.943.073,1.425.073s.95-.044,1.425-.073Z" transform="translate(-1 -1)" fill="#47286d"/>
      <path id="Trazado_111176" data-name="Trazado 111176" d="M27.8,34.946H24.946V15H16.4V34.946H13.548V26.4H5V37.8H36.344V20.7H27.8Zm-17.1,0H7.849v-5.7H10.7Zm8.548-17.1H22.1v17.1H19.247Zm11.4,5.7h2.849v11.4H30.645Z" transform="translate(0.699 4.946)" fill="#47286d"/>
    </g>
  </g>
</svg>
