<svg xmlns="http://www.w3.org/2000/svg" width="604" height="745" viewBox="0 0 604 745">
  <g id="Grupo_68165" data-name="Grupo 68165" transform="translate(-492 -4289)">
    <rect id="Rectángulo_6476" data-name="Rectángulo 6476" width="604" height="58" rx="7" transform="translate(492 4289)" fill="#bb83ff" opacity="0.5"/>
    <rect id="Rectángulo_6475" data-name="Rectángulo 6475" width="604" height="126" rx="3" transform="translate(492 4642)" fill="#bb83ff" opacity="0.15"/>
    <rect id="Rectángulo_6473" data-name="Rectángulo 6473" width="604" height="156" rx="3" transform="translate(492 4878)" fill="#bb83ff" opacity="0.15"/>
    <text id="Plan_de_medios_digitales_" data-name="Plan de medios digitales
" transform="translate(543 4300)" fill="#12263f" font-size="20" font-family="Roboto-Black, Roboto" font-weight="800"><tspan x="140.155" y="21">Plan de medios digitales</tspan></text>
    <g id="Grupo_62908" data-name="Grupo 62908" transform="translate(411 4263.8)">
      <path id="Trazado_111089" data-name="Trazado 111089" d="M1307.378,780.436a33.864,33.864,0,1,1,33.864-33.864A33.9,33.9,0,0,1,1307.378,780.436Zm0-61.089a27.225,27.225,0,1,0,27.225,27.224A27.255,27.255,0,0,0,1307.378,719.347Z" transform="translate(-801.146 -441.692)" fill="#f9e478"/>
      <path id="Trazado_111090" data-name="Trazado 111090" d="M1507.937,320.25a26.927,26.927,0,1,1,26.927-26.927A26.957,26.957,0,0,1,1507.937,320.25Zm0-47.214a20.287,20.287,0,1,0,20.287,20.287A20.31,20.31,0,0,0,1507.937,273.035Z" transform="translate(-953.864 -113.207)" fill="#bb83ff"/>
      <path id="Trazado_111091" data-name="Trazado 111091" d="M216.133,369.7a31.133,31.133,0,1,1,31.133-31.133A31.168,31.168,0,0,1,216.133,369.7Zm0-55.627a24.494,24.494,0,1,0,24.494,24.494A24.522,24.522,0,0,0,216.133,314.071Z" transform="translate(0 -143.409)" fill="#31d9e7"/>
      <path id="Trazado_111092" data-name="Trazado 111092" d="M401.868,872.488a22.944,22.944,0,1,1,22.944-22.945A22.97,22.97,0,0,1,401.868,872.488Zm0-39.25a16.305,16.305,0,1,0,16.305,16.305A16.323,16.323,0,0,0,401.868,833.238Z" transform="translate(-142.727 -525.516)" fill="#f17781"/>
      <path id="Trazado_111093" data-name="Trazado 111093" d="M537.4,692.117a11.289,11.289,0,1,1,11.289-11.289A11.3,11.3,0,0,1,537.4,692.117Zm0-15.938a4.65,4.65,0,1,0,4.65,4.65A4.655,4.655,0,0,0,537.4,676.178Z" transform="translate(-251.057 -409.92)" fill="#f9e478"/>
      <circle id="Elipse_4731" data-name="Elipse 4731" cx="6.31" cy="6.31" r="6.31" transform="matrix(0.973, -0.23, 0.23, 0.973, 190.234, 242.901)" fill="#89bbe1"/>
      <circle id="Elipse_4732" data-name="Elipse 4732" cx="6.31" cy="6.31" r="6.31" transform="translate(364.864 319.336) rotate(-13.283)" fill="#f17781"/>
      <circle id="Elipse_4733" data-name="Elipse 4733" cx="6.31" cy="6.31" r="6.31" transform="translate(525.889 237.714) rotate(-13.283)" fill="#f17781"/>
      <circle id="Elipse_4734" data-name="Elipse 4734" cx="6.31" cy="6.31" r="6.31" transform="translate(474.653 126.27) rotate(-79.099)" fill="#31d9e7"/>
      <circle id="Elipse_4735" data-name="Elipse 4735" cx="6.31" cy="6.31" r="6.31" transform="matrix(0.851, -0.526, 0.526, 0.851, 261.957, 119.217)" fill="#f17781"/>
      <circle id="Elipse_4736" data-name="Elipse 4736" cx="6.31" cy="6.31" r="6.31" transform="translate(371.708 150.155) rotate(-45)" fill="#f9e478"/>
      <circle id="Elipse_4737" data-name="Elipse 4737" cx="6.31" cy="6.31" r="6.31" transform="translate(253.573 283.045) rotate(-45)" fill="#8bc3b6"/>
      <path id="Trazado_111094" data-name="Trazado 111094" d="M1046.314,913.366a11.289,11.289,0,1,1,11.289-11.289A11.3,11.3,0,0,1,1046.314,913.366Zm0-15.938a4.65,4.65,0,1,0,4.65,4.65A4.655,4.655,0,0,0,1046.314,897.427Z" transform="translate(-625.618 -572.759)" fill="#31d9e7"/>
      <rect id="Rectángulo_6449" data-name="Rectángulo 6449" width="6.639" height="45.09" transform="matrix(0.505, -0.863, 0.863, 0.505, 439.775, 268.719)" fill="#f9e478"/>
      <rect id="Rectángulo_6450" data-name="Rectángulo 6450" width="94.593" height="6.639" transform="translate(439.611 216.526) rotate(-18.292)" fill="#bb83ff"/>
      <rect id="Rectángulo_6451" data-name="Rectángulo 6451" width="6.639" height="74.635" transform="matrix(0.287, -0.958, 0.958, 0.287, 242.169, 205.075)" fill="#31d9e7"/>
      <rect id="Rectángulo_6452" data-name="Rectángulo 6452" width="21.919" height="6.639" transform="translate(292.484 263.579) rotate(-12.189)" fill="#f9e478"/>
      <rect id="Rectángulo_6453" data-name="Rectángulo 6453" width="59.025" height="6.64" transform="translate(274.671 311.547) rotate(-28.874)" fill="#f17781"/>
      <rect id="Rectángulo_6454" data-name="Rectángulo 6454" width="6.64" height="21.09" transform="matrix(0.908, -0.419, 0.419, 0.908, 405.873, 303.592)" fill="#31d9e7"/>
      <path id="Trazado_111095" data-name="Trazado 111095" d="M720.225,231.52a11.289,11.289,0,1,1-10.408,12.106A11.3,11.3,0,0,1,720.225,231.52Zm1.2,15.894a4.65,4.65,0,1,0-4.986-4.287A4.655,4.655,0,0,0,721.423,247.413Z" transform="translate(-386.241 -87.514)" fill="#89bbe1"/>
      <rect id="Rectángulo_6455" data-name="Rectángulo 6455" width="6.64" height="21.09" transform="translate(335.491 164.601) rotate(-29.093)" fill="#89bbe1"/>
      <path id="Trazado_111096" data-name="Trazado 111096" d="M1110.758,159.819a11.289,11.289,0,1,1-15.666-3.073A11.3,11.3,0,0,1,1110.758,159.819Zm-13.229,8.89a4.65,4.65,0,1,0,1.266-6.453A4.655,4.655,0,0,0,1097.529,168.709Z" transform="translate(-666.156 -31.094)" fill="#f17781"/>
      <path id="Trazado_111097" data-name="Trazado 111097" d="M1045.738,220.664l-22.691,38.966-5.672-3.451,22.691-38.966Z" transform="translate(-612.628 -77.008)" fill="#f17781"/>
      <path id="Trazado_111098" data-name="Trazado 111098" d="M1085.268,433.289l7.487-.53a70.755,70.755,0,0,0-28.365-45.446l-3.929,6.373A63.278,63.278,0,0,1,1085.268,433.289Z" transform="translate(-644.34 -202.202)" fill="#f17781"/>
      <path id="Trazado_111099" data-name="Trazado 111099" d="M805.267,344.2a62.838,62.838,0,0,1,37.357,12.259l3.929-6.373a70.5,70.5,0,0,0-82.066-.366l4.813,5.748A62.821,62.821,0,0,1,805.267,344.2Z" transform="translate(-426.502 -164.97)" fill="#31d9e7"/>
      <path id="Trazado_111100" data-name="Trazado 111100" d="M716.584,391.675l-4.813-5.748a71.222,71.222,0,0,0-18.909,19.913l6.471,3.744A63.7,63.7,0,0,1,716.584,391.675Z" transform="translate(-373.787 -201.181)" fill="#f9e478"/>
      <path id="Trazado_111101" data-name="Trazado 111101" d="M791.647,487.254l-7.487.53A63.187,63.187,0,1,1,668.778,465.1l-6.471-3.743a70.632,70.632,0,1,0,129.339,25.9Z" transform="translate(-343.231 -256.697)" fill="#bb83ff" opacity="0.86"/>
      <path id="Trazado_111102" data-name="Trazado 111102" d="M445.271,879.1a.692.692,0,0,0-.545-.68l-2.478-.555,1.362-2.149a.693.693,0,0,0-.1-.866l-3.222-3.228a.71.71,0,0,0-.867-.1l-2.143,1.363-.554-2.482a.692.692,0,0,0-.68-.546h-4.556a.692.692,0,0,0-.68.545l-.554,2.483-2.141-1.362a.708.708,0,0,0-.869.095l-3.222,3.229a.7.7,0,0,0-.095.866l1.361,2.149-2.478.555a.693.693,0,0,0-.545.681v4.565a.693.693,0,0,0,.545.681l2.478.555-1.361,2.149a.693.693,0,0,0,.1.866l3.222,3.227a.708.708,0,0,0,.867.1l2.143-1.363.554,2.483a.7.7,0,0,0,.68.547h4.556a.691.691,0,0,0,.68-.545l.554-2.483,2.143,1.364a.71.71,0,0,0,.867-.1l3.22-3.228a.7.7,0,0,0,.1-.867l-1.362-2.149,2.478-.556a.693.693,0,0,0,.546-.68Zm-11.518,7.375h0l-.065,0a4.789,4.789,0,0,1,0-9.576l.085,0h.016a4.792,4.792,0,0,1-.03,9.584Z" transform="translate(-174.63 -557.358)" fill="#3f6fa4"/>
      <path id="Trazado_111103" data-name="Trazado 111103" d="M1537.817,315.427c-8.938,0-16.208,5.711-16.208,12.731s7.271,12.73,16.208,12.73c.468,0,.95-.017,1.437-.052l1.273,3.078a.728.728,0,0,0,.552.444.688.688,0,0,0,.131.012.739.739,0,0,0,.549-.245l4.641-5.164c4.777-2.341,7.627-6.375,7.627-10.8C1554.026,321.138,1546.755,315.427,1537.817,315.427Zm-6.074,16a1.938,1.938,0,1,1,1.938-1.938A1.94,1.94,0,0,1,1531.742,331.428Zm6.118,0a1.938,1.938,0,1,1,1.937-1.938A1.94,1.94,0,0,1,1537.86,331.428Zm5.836,0a1.938,1.938,0,1,1,1.937-1.938A1.939,1.939,0,0,1,1543.7,331.428Z" transform="translate(-983.744 -149.294)" fill="#47286d"/>
      <g id="Grupo_62878" data-name="Grupo 62878" transform="translate(336.674 195.149)">
        <path id="Trazado_111104" data-name="Trazado 111104" d="M849.321,572.422l22.988-9.27a1.517,1.517,0,0,0,.86-1.92l-.322-.9a.44.44,0,0,1,.068-.414c4.617-6.045,1.462-14.094,1.462-14.094l-4.63-11.836-.018-.056c-.088-.406-1.384-6.041-5.586-6.041a5.292,5.292,0,0,0-4.48,2,.45.45,0,0,1-.806-.146c-.29-1.215-1.249-2.75-4.19-3.084-3.265-.37-4.567,1.464-5.079,2.792a.443.443,0,0,1-.808.041c-1.055-2.189-3.305-4.727-6.148-3.78a5.13,5.13,0,0,0-3.255,2.86.447.447,0,0,1-.831,0l-4.726-12.145s-2.274-7.3-7.012-5.5-2.179,8.054-2.179,8.054l10.912,28.825a.448.448,0,0,1-.651.542l-5.206-3.147-.054-.038c-.377-.329-5.885-5.014-9.361-1.355s.349,7.642.645,7.942l.047.04L846.8,570.562l.143.173.433.924A1.517,1.517,0,0,0,849.321,572.422Z" transform="translate(-803.17 -488.124)" fill="#47286d"/>
        <path id="Trazado_111105" data-name="Trazado 111105" d="M961.952,726.828l-5.181-11.657a1.7,1.7,0,0,0-2.193-.888L929.209,724.5a1.7,1.7,0,0,0-.911,2.293l5.273,11.439a1.7,1.7,0,0,0,2.173.871l25.277-10A1.7,1.7,0,0,0,961.952,726.828Z" transform="translate(-883.627 -637.909)" fill="#47286d"/>
        <path id="Trazado_111106" data-name="Trazado 111106" d="M810.455,437.68a3.032,3.032,0,0,0,5.659-2.179l-3.168-8.225a3.032,3.032,0,0,0-5.659,2.18Z" transform="translate(-794.528 -425.333)" fill="#bb83ff"/>
        <path id="Trazado_111107" data-name="Trazado 111107" d="M762.823,475.082l8.056,3.577a3.032,3.032,0,1,0,2.461-5.543l-8.056-3.577a3.033,3.033,0,1,0-2.461,5.544Z" transform="translate(-760.625 -457.675)" fill="#bb83ff"/>
        <path id="Trazado_111108" data-name="Trazado 111108" d="M894.988,526.826l-8.057-3.577a3.033,3.033,0,0,0-2.461,5.543l8.057,3.577a3.032,3.032,0,1,0,2.461-5.543Z" transform="translate(-850.158 -497.206)" fill="#bb83ff"/>
        <path id="Trazado_111109" data-name="Trazado 111109" d="M773.613,522.876a3.033,3.033,0,0,0-3.92-1.74l-8.226,3.167a3.032,3.032,0,1,0,2.179,5.659l8.226-3.167A3.032,3.032,0,0,0,773.613,522.876Z" transform="translate(-759.524 -495.694)" fill="#bb83ff"/>
        <path id="Trazado_111110" data-name="Trazado 111110" d="M883.723,480.185a3.027,3.027,0,0,0,3.92,1.74l8.226-3.167a3.032,3.032,0,1,0-2.18-5.659l-8.226,3.167A3.033,3.033,0,0,0,883.723,480.185Z" transform="translate(-850.785 -460.34)" fill="#bb83ff"/>
        <path id="Trazado_111111" data-name="Trazado 111111" d="M809.278,560.793l3.577-8.056a3.033,3.033,0,1,0-5.544-2.461l-3.577,8.056a3.032,3.032,0,1,0,5.543,2.461Z" transform="translate(-791.87 -515.964)" fill="#bb83ff"/>
        <path id="Trazado_111112" data-name="Trazado 111112" d="M858.987,440.685a3.028,3.028,0,0,0,4-1.541l3.576-8.057a3.033,3.033,0,0,0-5.543-2.461l-3.576,8.058A3.033,3.033,0,0,0,858.987,440.685Z" transform="translate(-831.402 -426.428)" fill="#bb83ff"/>
      </g>
      <path id="Trazado_111113" data-name="Trazado 111113" d="M1379.4,769.213h-15.154a3.206,3.206,0,0,0-3.172,3.24v31.414a3.207,3.207,0,0,0,3.172,3.24H1379.4a3.207,3.207,0,0,0,3.172-3.24V772.453A3.206,3.206,0,0,0,1379.4,769.213Zm-5.606,35.239a.772.772,0,0,1-.771.773h-2.4a.773.773,0,0,1-.772-.773V803.13a.772.772,0,0,1,.772-.772h2.4a.772.772,0,0,1,.771.772Zm4.309-4.3H1365.54a1.546,1.546,0,0,1-1.546-1.545V774.384a1.546,1.546,0,0,1,1.546-1.546H1378.1a1.545,1.545,0,0,1,1.545,1.546V798.6A1.545,1.545,0,0,1,1378.1,800.15Z" transform="translate(-865.588 -483.28)" fill="#47286d"/>
      <g id="Grupo_62880" data-name="Grupo 62880" transform="translate(196.863 180.447)">
        <g id="Grupo_62879" data-name="Grupo 62879" transform="translate(0)">
          <path id="Trazado_111114" data-name="Trazado 111114" d="M260.31,380.006a8.121,8.121,0,0,0-1.031.066,8.664,8.664,0,0,0,.054-.941,9.481,9.481,0,0,0-18.515-2.879c-.289-.025-.56-.038-.823-.038a10.061,10.061,0,0,0,0,20.122H260.31a8.165,8.165,0,1,0,0-16.33Z" transform="translate(-229.934 -369.645)" fill="#f17781"/>
        </g>
      </g>
    </g>
    <g id="Elipse_4756" data-name="Elipse 4756" transform="translate(734 4818)" fill="#fff" stroke="#8a8a8a" stroke-width="3" stroke-dasharray="3 4">
      <circle cx="60" cy="60" r="60" stroke="none"/>
      <circle cx="60" cy="60" r="58.5" fill="none"/>
    </g>
    <ellipse id="Elipse_4757" data-name="Elipse 4757" cx="53.5" cy="54" rx="53.5" ry="54" transform="translate(741 4824)" fill="#bb83ff" opacity="0.5"/>
    <g id="business" transform="translate(763.306 4837.727)">
      <path id="Trazado_111115" data-name="Trazado 111115" d="M63.758,115.361H11.4a3.4,3.4,0,0,1-3.4-3.4V50.783a3.4,3.4,0,0,1,3.4-3.4H63.758a3.4,3.4,0,0,1,3.4,3.4V111.96A3.4,3.4,0,0,1,63.758,115.361Zm0,0" transform="translate(-6.885 -40.336)" fill="#f9e478"/>
      <path id="Trazado_111116" data-name="Trazado 111116" d="M370.095,50.783V111.96a3.4,3.4,0,0,1-3.4,3.4h-2.838a3.4,3.4,0,0,0,3.4-3.4V50.783a3.4,3.4,0,0,0-3.4-3.4h2.838A3.4,3.4,0,0,1,370.095,50.783Zm0,0" transform="translate(-309.821 -40.336)" fill="#ffd98f"/>
      <path id="Trazado_111117" data-name="Trazado 111117" d="M95.209,141.013H51.377a1.424,1.424,0,0,1-1.424-1.424V85.318a1.424,1.424,0,0,1,1.424-1.424H95.21a1.424,1.424,0,0,1,1.424,1.424v54.271a1.425,1.425,0,0,1-1.424,1.424Zm0,0" transform="translate(-42.599 -71.419)" fill="#fff5f5"/>
      <path id="Trazado_111118" data-name="Trazado 111118" d="M338.18,85.315v54.271a1.424,1.424,0,0,1-1.424,1.425H333.7a1.426,1.426,0,0,0,1.425-1.425V85.315a1.425,1.425,0,0,0-1.425-1.424h3.061A1.424,1.424,0,0,1,338.18,85.315Zm0,0" transform="translate(-284.146 -71.415)" fill="#efe2dd"/>
      <path id="Trazado_111119" data-name="Trazado 111119" d="M145.253,13.431v-.253A5.678,5.678,0,0,0,139.576,7.5h-.715a5.678,5.678,0,0,0-5.678,5.678v.253h-5.789V19.9a2.826,2.826,0,0,0,2.826,2.826h18a2.826,2.826,0,0,0,2.826-2.826v-6.47Zm0,0" transform="translate(-108.524 -6.385)" fill="#a1a1a7"/>
      <path id="Trazado_111120" data-name="Trazado 111120" d="M207.225,13.428V19.9a2.827,2.827,0,0,1-2.826,2.826h-2.933a2.826,2.826,0,0,0,2.826-2.826c0-.971.016-1.943,0-2.914-.024-1.447-1.082-1.251-2.239-1.251a3.387,3.387,0,0,1-3.236-1.433,11.346,11.346,0,0,1-.688-2.482,5.749,5.749,0,0,0-2.141-2.951c-.488-.347-1.981-1.315-2.6-1.126a5.668,5.668,0,0,1,1.653-.246h.714a5.679,5.679,0,0,1,5.679,5.679v.253Zm0,0" transform="translate(-164.706 -6.381)" fill="#929298"/>
      <path id="Trazado_111121" data-name="Trazado 111121" d="M57.373,39.883h-4.76a1.115,1.115,0,1,0,0,2.231h4.76A2.288,2.288,0,0,1,59.658,44.4v61.177a2.288,2.288,0,0,1-2.285,2.285H5.016a2.287,2.287,0,0,1-2.285-2.285v-35.6a1.116,1.116,0,0,0-2.231,0v35.6a4.521,4.521,0,0,0,4.516,4.516H57.373a4.521,4.521,0,0,0,4.516-4.516V44.4A4.521,4.521,0,0,0,57.373,39.883Zm0,0" transform="translate(-0.5 -33.952)" fill="#47286d"/>
      <path id="Trazado_111122" data-name="Trazado 111122" d="M1.616,31.96a1.115,1.115,0,0,0,1.116-1.115v-20.4A2.288,2.288,0,0,1,5.016,8.162H18.255v3.2H9.278A2.543,2.543,0,0,0,6.739,13.9V68.171A2.542,2.542,0,0,0,9.278,70.71H53.111a2.542,2.542,0,0,0,2.54-2.539V13.9a2.543,2.543,0,0,0-2.54-2.54H44.134v-3.2h3.273a1.115,1.115,0,1,0,0-2.231H38.291A6.8,6.8,0,0,0,31.552,0h-.715A6.8,6.8,0,0,0,24.1,5.931H5.016A4.521,4.521,0,0,0,.5,10.447v20.4A1.116,1.116,0,0,0,1.616,31.96Zm18.871-23.8H25.16a1.115,1.115,0,0,0,1.116-1.115V6.793a4.567,4.567,0,0,1,4.562-4.562h.715a4.567,4.567,0,0,1,4.562,4.562v.253A1.115,1.115,0,0,0,37.23,8.162H41.9v5.355a1.712,1.712,0,0,1-1.71,1.71h-18a1.712,1.712,0,0,1-1.71-1.71Zm1.71,9.3h18a3.945,3.945,0,0,0,3.939-3.866h8.978a.309.309,0,0,1,.308.308V68.171a.309.309,0,0,1-.308.308H9.278a.309.309,0,0,1-.308-.308V13.9a.309.309,0,0,1,.308-.308h8.979A3.945,3.945,0,0,0,22.2,17.458Zm0,0" transform="translate(-0.5 0)" fill="#47286d"/>
      <path id="Trazado_111123" data-name="Trazado 111123" d="M104.082,187.943a4.361,4.361,0,1,1-4.361-4.361A4.361,4.361,0,0,1,104.082,187.943Zm0,0" transform="translate(-81.253 -156.281)" fill="#f17781"/>
      <path id="Trazado_111124" data-name="Trazado 111124" d="M108.394,189.519a4.36,4.36,0,0,1-7.968,2.45,4.361,4.361,0,0,0,5.133-6.536,4.358,4.358,0,0,1,2.835,4.086Zm0,0" transform="translate(-85.566 -157.857)" fill="#d93131"/>
      <path id="Trazado_111125" data-name="Trazado 111125" d="M93.333,176.078a5.477,5.477,0,1,0,5.477,5.477A5.483,5.483,0,0,0,93.333,176.078Zm0,8.722a3.245,3.245,0,1,1,3.245-3.245,3.249,3.249,0,0,1-3.245,3.245Zm0,0" transform="translate(-74.865 -149.893)" fill="#47286d"/>
      <path id="Trazado_111126" data-name="Trazado 111126" d="M259.614,143.174l2.378-2.546a1.116,1.116,0,1,0-1.631-1.523l-2.273,2.435-2.274-2.435a1.116,1.116,0,1,0-1.631,1.523l2.378,2.546-2.378,2.546a1.115,1.115,0,1,0,1.631,1.523l2.274-2.434,2.273,2.434a1.115,1.115,0,0,0,1.631-1.523Zm0,0" transform="translate(-216.203 -118.117)" fill="#47286d"/>
      <path id="Trazado_111127" data-name="Trazado 111127" d="M100.818,276.959l2.378-2.546a1.116,1.116,0,1,0-1.631-1.523l-2.273,2.435-2.274-2.435a1.116,1.116,0,1,0-1.631,1.523l2.378,2.546-2.378,2.546a1.115,1.115,0,1,0,1.631,1.523l2.274-2.435,2.273,2.435a1.115,1.115,0,0,0,1.631-1.523Zm0,0" transform="translate(-81.022 -232.007)" fill="#47286d"/>
      <path id="Trazado_111128" data-name="Trazado 111128" d="M173.48,244.6a19.363,19.363,0,0,0-4.5-4.1l3.792-.459a1.116,1.116,0,1,0-.268-2.215l-7.223.875a1.115,1.115,0,0,0-.938,1.417l1.99,6.9a1.115,1.115,0,0,0,2.144-.618l-1.261-4.369a17.275,17.275,0,0,1,4.572,4.025c3.438,4.389,4.066,9.893,1.864,16.36a1.116,1.116,0,1,0,2.112.719c3.082-9.053.459-15.077-2.284-18.536Zm0,0" transform="translate(-139.941 -202.45)" fill="#47286d"/>
      <path id="Trazado_111129" data-name="Trazado 111129" d="M275.141,356.559l2.378-2.546a1.116,1.116,0,0,0-1.631-1.523l-2.274,2.435-2.273-2.435a1.116,1.116,0,0,0-1.631,1.523l2.378,2.546-2.378,2.546a1.115,1.115,0,1,0,1.631,1.523l2.273-2.434,2.274,2.434a1.115,1.115,0,0,0,1.631-1.523Zm0,0" transform="translate(-229.421 -299.77)" fill="#47286d"/>
    </g>
    <text id="Un_plan_de_medios_determina_las_tácticas_de_marketing_para_una_campaña_de_un_bien_o_servicio._" data-name="Un plan de medios determina las tácticas de marketing para una campaña de un bien o servicio.  
" transform="translate(596 4949)" fill="#12263f" font-size="16" font-family="Roboto-Regular, Roboto"><tspan x="2.832" y="17">Un plan de medios determina las tácticas de marketing </tspan><tspan x="55.09" y="41" xml:space="preserve">para una campaña de un bien o servicio.  </tspan></text>
    <text id="Según_Soria_2016_toda_empresa_requiere_de_la_estructura_de_un_plan_de_medios_que_busque_la_consecución_de_los_objetivos_propuestos_por_esta_encontrando_el_camino_más_adecuado_según_sus_necesidades_e_intereses._Con_ello_se_define_una_serie_fases._" data-name="Según Soria (2016), toda empresa requiere de la estructura de un plan de medios que busque la consecución de los objetivos propuestos por esta, encontrando el camino más adecuado según sus necesidades e intereses. Con ello, se define una serie fases. 
" transform="translate(515 4657.39)" fill="#12263f" font-size="16" font-family="Roboto-Regular, Roboto"><tspan x="0" y="17">Según Soria (2016), toda empresa requiere de la estructura de un plan de </tspan><tspan x="0" y="41">medios que busque la consecución de los objetivos propuestos por esta, </tspan><tspan x="0" y="65">encontrando el camino más adecuado según sus necesidades e intereses. </tspan><tspan x="0" y="89">Con ello, se define una serie fases. </tspan></text>
    <line id="Línea_282" data-name="Línea 282" y1="39.603" transform="translate(794 4769.5)" fill="none" stroke="#707070" stroke-width="3" stroke-dasharray="3 4" style="mix-blend-mode: multiply;isolation: isolate"/>
  </g>
</svg>
