<svg xmlns="http://www.w3.org/2000/svg" width="322" height="395" viewBox="0 0 322 395">
  <g id="Grupo_68164" data-name="Grupo 68164" transform="translate(-982 -2340)">
    <g id="Rectángulo_6999" data-name="Rectángulo 6999" transform="translate(1011 2340)" fill="none" stroke="#31d9e7" stroke-width="4">
      <rect width="293" height="395" rx="19" stroke="none"/>
      <rect x="2" y="2" width="289" height="391" rx="17" fill="none"/>
    </g>
    <circle id="Elipse_4867" data-name="Elipse 4867" cx="30.5" cy="30.5" r="30.5" transform="translate(982 2367)" fill="#31d9e7"/>
    <text id="Se_enfoca_en_buscar_un_diferenciador_que_no_es_exclusivo_pero_se_puede_utilizar_mientras_no_sea_usado_por_la_competencia._" data-name="Se enfoca en buscar un diferenciador que no es exclusivo, pero se puede utilizar mientras no sea usado por la competencia.
" transform="translate(1037 2598.5)" fill="#12263f" font-size="16" font-family="Roboto-Regular, Roboto"><tspan x="0" y="17">Se enfoca en buscar un </tspan><tspan x="0" y="39">diferenciador que no es exclusivo, </tspan><tspan x="0" y="61">pero se puede utilizar mientras no </tspan><tspan x="0" y="83">sea usado por la competencia.</tspan></text>
    <text id="La_proposición_argumental_virgen" data-name="La proposición argumental virgen" transform="translate(1037 2528.5)" fill="#12263f" font-size="20" font-family="Roboto-Black, Roboto" font-weight="800"><tspan x="1.443" y="21">La proposición argumental </tspan><tspan x="93.46" y="48">virgen</tspan></text>
    <text id="_3" data-name="3" transform="translate(1003.909 2378.5)" fill="#12263f" font-size="24" font-family="Roboto-Black, Roboto" font-weight="800"><tspan x="0" y="25">3</tspan></text>
    <g id="Layer_23" transform="translate(1085.117 2371.004)">
      <g id="Grupo_62777" data-name="Grupo 62777" transform="translate(28 -0.019)">
        <path id="Trazado_110835" data-name="Trazado 110835" d="M44.532,37.757h86.822l1.32-6.918a2.445,2.445,0,0,0-1.267-2.641l-8.186-4.278a2.552,2.552,0,0,1-1.267-1.584l-2.324-8.925a2.487,2.487,0,0,0-2.324-1.848l-9.242-.317a2.418,2.418,0,0,1-1.8-.845l-6.02-7.077A2.366,2.366,0,0,0,97.4,2.69l-8.45,3.75a2.641,2.641,0,0,1-2.007,0l-8.45-3.75a2.5,2.5,0,0,0-2.852.634L69.617,10.4a2.418,2.418,0,0,1-1.8.845l-9.242.317a2.538,2.538,0,0,0-2.324,1.848l-2.377,8.925a2.517,2.517,0,0,1-1.267,1.584L44.426,28.2a2.48,2.48,0,0,0-1.267,2.641Z" transform="translate(-35.131 -1.149)" fill="#edf4fc"/>
        <path id="Trazado_110836" data-name="Trazado 110836" d="M131.057,43.016l1.162-5.862-6.337-3.327a7.609,7.609,0,0,1-3.908-4.911L120.178,22l-7.13-.264A7.8,7.8,0,0,1,107.4,19.04L102.75,13.6,96.2,16.5a7.669,7.669,0,0,1-6.285,0l-6.549-2.9-4.647,5.492a7.8,7.8,0,0,1-5.651,2.693l-7.13.264-1.8,6.918a7.771,7.771,0,0,1-3.908,4.911L53.9,37.207l1.109,5.809Z" transform="translate(-40.222 -6.407)" fill="#f9e478"/>
        <path id="Trazado_110837" data-name="Trazado 110837" d="M79.4,55.237h51.28A28.828,28.828,0,0,0,91.969,42.615,29.3,29.3,0,0,0,79.4,55.237Z" transform="translate(-52.255 -18.628)" fill="#31d9e7"/>
        <path id="Trazado_110838" data-name="Trazado 110838" d="M32.188,69.3h99.655a1.7,1.7,0,0,1,1.69,1.69V93.54a1.7,1.7,0,0,1-1.69,1.69H32.188a1.7,1.7,0,0,1-1.69-1.69V70.99A1.637,1.637,0,0,1,32.188,69.3Z" transform="translate(-29.177 -32.692)" fill="#f17781"/>
        <path id="Trazado_110839" data-name="Trazado 110839" d="M131.4,118.5H44.579l-1.32,6.918a2.445,2.445,0,0,0,1.267,2.641l8.186,4.278a2.552,2.552,0,0,1,1.267,1.584l2.377,8.925a2.487,2.487,0,0,0,2.324,1.848l9.242.317a2.418,2.418,0,0,1,1.8.845l6.02,7.024a2.366,2.366,0,0,0,2.852.634l8.45-3.75a2.641,2.641,0,0,1,2.007,0l8.45,3.75a2.5,2.5,0,0,0,2.852-.634l6.02-7.024a2.418,2.418,0,0,1,1.8-.845l9.242-.317a2.538,2.538,0,0,0,2.324-1.848l2.377-8.925a2.517,2.517,0,0,1,1.267-1.584l8.186-4.278a2.48,2.48,0,0,0,1.267-2.641Z" transform="translate(-35.179 -55.908)" fill="#edf4fc"/>
        <path id="Trazado_110840" data-name="Trazado 110840" d="M54.962,118.5,53.8,124.362l6.337,3.327a7.609,7.609,0,0,1,3.908,4.911l1.8,6.918,7.13.264a7.8,7.8,0,0,1,5.651,2.693l4.647,5.44,6.549-2.9a7.669,7.669,0,0,1,6.285,0l6.549,2.9,4.647-5.44a7.8,7.8,0,0,1,5.651-2.693l7.13-.264,1.8-6.918a7.771,7.771,0,0,1,3.908-4.911l6.337-3.327-1.162-5.862Z" transform="translate(-40.175 -55.908)" fill="#f9e478"/>
        <path id="Trazado_110841" data-name="Trazado 110841" d="M208.041,11.053a5.236,5.236,0,0,1-4.225-4.119c0-.053-.053-.106-.106-.053a.052.052,0,0,0-.053.053,5.236,5.236,0,0,1-4.225,4.119c-.053,0-.106.053-.053.106a.052.052,0,0,0,.053.053,5.236,5.236,0,0,1,4.225,4.119c0,.053.053.106.106.053a.052.052,0,0,0,.053-.053,5.236,5.236,0,0,1,4.225-4.119c.053,0,.106-.053.053-.106C208.147,11.105,208.094,11.053,208.041,11.053Z" transform="translate(-108.862 -3.226)" fill="#f5c84c"/>
        <path id="Trazado_110842" data-name="Trazado 110842" d="M46.877,195.546H45.715v-1.162a1.584,1.584,0,0,0-3.169,0v1.162H41.384a1.584,1.584,0,1,0,0,3.169h1.162v1.162a1.584,1.584,0,1,0,3.169,0v-1.162h1.162a1.584,1.584,0,1,0,0-3.169Z" transform="translate(-33.568 -90.97)" fill="#70d6f9"/>
        <circle id="Elipse_4726" data-name="Elipse 4726" cx="1.69" cy="1.69" r="1.69" transform="translate(12.463 91.902)" fill="#87d147"/>
        <circle id="Elipse_4727" data-name="Elipse 4727" cx="1.69" cy="1.69" r="1.69" transform="translate(99.602 17.438)" fill="#fc657e"/>
        <circle id="Elipse_4728" data-name="Elipse 4728" cx="1.69" cy="1.69" r="1.69" transform="translate(88.512 100.352)" fill="#f5c84c"/>
        <path id="Trazado_110843" data-name="Trazado 110843" d="M149.5,168.4l-4.066.158a2.418,2.418,0,0,0-1.8.845l-6.02,7.024a2.366,2.366,0,0,1-2.852.634l-8.45-3.75a2.641,2.641,0,0,0-2.007,0l-2.007.9,10.3,38.5a.806.806,0,0,0,1.479.211l8.4-14.576a.849.849,0,0,1,1.109-.317l14.576,8.4a.8.8,0,0,0,1.109-.317.909.909,0,0,0,.106-.634Z" transform="translate(-72.499 -79.456)" fill="#bb83ff"/>
        <path id="Trazado_110844" data-name="Trazado 110844" d="M88.042,177.161a2.5,2.5,0,0,1-2.852-.634L79.17,169.5a2.418,2.418,0,0,0-1.8-.845l-4.066-.158-9.929,37.126a.843.843,0,0,0,.581,1,.7.7,0,0,0,.634-.106l14.576-8.4a.8.8,0,0,1,1.109.317l8.4,14.576a.849.849,0,0,0,1.109.317.672.672,0,0,0,.37-.475L97.5,185.505l-2.957-11.143Z" transform="translate(-44.684 -79.503)" fill="#8c5ac8"/>
        <path id="Trazado_110854" data-name="Trazado 110854" d="M79.4,118.5h51.28a28.731,28.731,0,0,1-51.28,0Z" transform="translate(-52.255 -55.908)" fill="#31d9e7"/>
        <path id="Trazado_110855" data-name="Trazado 110855" d="M133.675,60.882v-22.6a3.009,3.009,0,0,0-3.01-3.01h-4.806l1.056-5.334a3.791,3.791,0,0,0-1.954-4.066l-8.186-4.278a1.366,1.366,0,0,1-.581-.739l-2.376-8.925a3.724,3.724,0,0,0-3.538-2.8l-9.242-.317a1.1,1.1,0,0,1-.845-.422l-6.02-7.077a3.824,3.824,0,0,0-4.436-1l-8.45,3.75a1.466,1.466,0,0,1-.951,0L71.886.308a3.824,3.824,0,0,0-4.436,1L61.482,8.335a1.3,1.3,0,0,1-.845.422L51.4,9.074a3.786,3.786,0,0,0-3.538,2.8L45.481,20.8a1.366,1.366,0,0,1-.581.739l-8.186,4.278a3.791,3.791,0,0,0-1.954,4.066l1.056,5.334H31.01A3.009,3.009,0,0,0,28,38.226v22.55a3.009,3.009,0,0,0,3.01,3.01h4.806L34.76,69.121a3.791,3.791,0,0,0,1.954,4.066L44.9,77.465a1.366,1.366,0,0,1,.581.739l2.377,8.925a3.724,3.724,0,0,0,3.538,2.8l3.538.106-9.506,35.542a2.067,2.067,0,0,0,1.532,2.588,2.245,2.245,0,0,0,1.637-.211l14.153-8.186,8.186,14.153a2.126,2.126,0,0,0,3.908-.528l6.073-22.6,6.073,22.6a2.154,2.154,0,0,0,2.588,1.532,2.483,2.483,0,0,0,1.32-1l8.186-14.153,14.153,8.186a2.15,2.15,0,0,0,2.9-.792,2.18,2.18,0,0,0,.211-1.637l-9.506-35.542,3.538-.106a3.786,3.786,0,0,0,3.538-2.8l2.377-8.925a1.366,1.366,0,0,1,.581-.739l8.186-4.278a3.791,3.791,0,0,0,1.954-4.066l-1.056-5.334h4.806A2.786,2.786,0,0,0,133.675,60.882ZM43.1,31.414l5.492-2.8a9.156,9.156,0,0,0,4.595-5.756l1.584-5.968,6.179-.211a9.28,9.28,0,0,0,6.6-3.169l4.014-4.7,5.651,2.482a8.9,8.9,0,0,0,7.341,0L90.212,8.81l4.014,4.7a8.9,8.9,0,0,0,6.6,3.169l6.179.211,1.584,5.968a9.122,9.122,0,0,0,4.595,5.756l5.44,2.852-.739,3.8H107.375a30.106,30.106,0,0,0-52.917,0H43.9Zm14.312,3.855a27.453,27.453,0,0,1,46.791,0ZM37.929,28.192l8.186-4.278a3.727,3.727,0,0,0,1.9-2.377l2.377-8.925a1.126,1.126,0,0,1,1.056-.845l9.295-.37a3.9,3.9,0,0,0,2.746-1.32l6.02-7.024a1.153,1.153,0,0,1,1.32-.317l8.45,3.75a3.86,3.86,0,0,0,3.063,0l8.45-3.75a1.063,1.063,0,0,1,1.32.317l6.02,7.024a3.9,3.9,0,0,0,2.746,1.32l9.242.317a1.079,1.079,0,0,1,1.056.845l2.376,8.925a3.6,3.6,0,0,0,1.9,2.377l8.186,4.278a1.134,1.134,0,0,1,.581,1.215l-1.109,5.862H120.42l.845-4.278a1.311,1.311,0,0,0-.687-1.426l-6.337-3.327a6.386,6.386,0,0,1-3.221-4.066l-1.8-6.918a1.35,1.35,0,0,0-1.215-1l-7.13-.264a6.571,6.571,0,0,1-4.7-2.271l-4.7-5.334a1.389,1.389,0,0,0-1.532-.37L83.4,8.863a6.439,6.439,0,0,1-5.228,0l-6.549-2.9a1.306,1.306,0,0,0-1.532.37L65.5,11.768a6.385,6.385,0,0,1-4.7,2.271l-7.13.264a1.243,1.243,0,0,0-1.215,1L50.6,22.172a6.555,6.555,0,0,1-3.221,4.066l-6.337,3.327a1.311,1.311,0,0,0-.687,1.426l.845,4.278H38.509l-1.162-5.862a1.134,1.134,0,0,1,.581-1.215Zm-7.341,32.69v-22.6a.361.361,0,0,1,.37-.37h99.655a.361.361,0,0,1,.37.37v22.55a.361.361,0,0,1-.37.37H31.01a.338.338,0,0,1-.422-.317Zm87.931,6.865-5.44,2.852a9.156,9.156,0,0,0-4.595,5.756L106.9,82.324l-6.179.211a9.083,9.083,0,0,0-6.6,3.169l-4.014,4.7-5.651-2.482a8.9,8.9,0,0,0-7.341,0L71.464,90.4,67.45,85.7a8.9,8.9,0,0,0-6.6-3.169l-6.179-.211-1.584-5.968A9.123,9.123,0,0,0,48.491,70.6l-5.44-2.852.739-3.8H54.3a30.106,30.106,0,0,0,52.917,0h10.509Zm-14.312-3.855a27.453,27.453,0,0,1-46.791,0ZM72.52,131.755,64.7,118.235a2.15,2.15,0,0,0-2.9-.792l-13.52,7.816L57.627,90.3l3.01.106a1.1,1.1,0,0,1,.845.422L67.5,97.85a3.824,3.824,0,0,0,4.436,1l5.07-2.218,2.482,9.295Zm40.823-6.5-13.52-7.816a2.1,2.1,0,0,0-2.9.792L89.1,131.755l-7.024-26.194-1.584-5.915-1.109-4.119.951-.422a1.466,1.466,0,0,1,.951,0l8.45,3.75a3.824,3.824,0,0,0,4.436-1l6.02-7.024a1.3,1.3,0,0,1,.845-.422l3.01-.106Zm10.351-54.29-8.186,4.278a3.727,3.727,0,0,0-1.9,2.377l-2.377,8.925a1.126,1.126,0,0,1-1.056.845l-9.242.317a3.9,3.9,0,0,0-2.746,1.32l-6.073,7.077a1.153,1.153,0,0,1-1.32.317l-8.45-3.75a3.86,3.86,0,0,0-3.063,0l-2.007.9-6.5,2.852a1.063,1.063,0,0,1-1.32-.317l-6.02-7.024a3.9,3.9,0,0,0-2.746-1.32L56.624,87.6l-5.176-.158a1.079,1.079,0,0,1-1.056-.845l-2.324-8.925a3.6,3.6,0,0,0-1.9-2.377l-8.186-4.278a1.134,1.134,0,0,1-.581-1.215l1.162-5.862H41.2l-.845,4.278a1.311,1.311,0,0,0,.687,1.426l6.337,3.327A6.386,6.386,0,0,1,50.6,77.042l1.8,6.918a1.35,1.35,0,0,0,1.215,1l7.13.264a6.571,6.571,0,0,1,4.7,2.271l4.647,5.44a1.389,1.389,0,0,0,1.532.37l6.549-2.9a6.439,6.439,0,0,1,5.228,0l6.549,2.9a1.306,1.306,0,0,0,1.532-.37l4.647-5.44a6.385,6.385,0,0,1,4.7-2.271l7.13-.264a1.243,1.243,0,0,0,1.215-1l1.8-6.918a6.555,6.555,0,0,1,3.221-4.066l6.337-3.327a1.311,1.311,0,0,0,.687-1.426l-.792-4.331h2.693l1.109,5.862a1.036,1.036,0,0,1-.528,1.215Z" transform="translate(-28 0.019)" fill="#47286d"/>
        <path id="Trazado_110856" data-name="Trazado 110856" d="M122.32,133.641H127.6a1.32,1.32,0,1,0,0-2.641H122.32a1.32,1.32,0,1,0,0,2.641Z" transform="translate(-71.886 -61.807)" fill="#47286d"/>
      </g>
    </g>
  </g>
</svg>
