<svg xmlns="http://www.w3.org/2000/svg" width="93.767" height="97" viewBox="0 0 93.767 97">
  <g id="Fill_Outline" data-name="Fill Outline" transform="translate(-3 -2)">
    <g id="Color" transform="translate(11.083 3.617)">
      <g id="Grupo_62937" data-name="Grupo 62937">
        <path id="Trazado_111225" data-name="Trazado 111225" d="M53.072,61.122h3.794V54.656H53.072a9.7,9.7,0,0,0-1.77-3.062l1.9-3.288-5.6-3.233L45.7,48.36a9.637,9.637,0,0,0-3.537,0l-1.9-3.287-5.6,3.233,1.9,3.277a9.4,9.4,0,0,0-1.769,3.072H31v6.467h3.794a9.7,9.7,0,0,0,1.77,3.062l-1.9,3.288,5.6,3.233,1.9-3.288a9.637,9.637,0,0,0,3.537,0L47.6,70.7l5.6-3.233-1.9-3.277a9.4,9.4,0,0,0,1.769-3.072Zm-6.339-1.617a3.233,3.233,0,1,1-1.183-4.417A3.233,3.233,0,0,1,46.733,59.506Z" transform="translate(6.184 22.944)" fill="#31d9e7"/>
        <g id="Grupo_62935" data-name="Grupo 62935" transform="translate(17.742)">
          <path id="Trazado_111226" data-name="Trazado 111226" d="M46,31v8.083a4.85,4.85,0,0,0,4.85,4.85A2.071,2.071,0,0,1,52.86,45.5l.708,2.836a2.723,2.723,0,0,0,5.366-.661V31Z" transform="translate(-2.307 14.267)" fill="#f9ca78"/>
          <path id="Trazado_111227" data-name="Trazado 111227" d="M85.3,32.1a9.7,9.7,0,0,0-6.494-9.147c.008-.184.027-.365.027-.553A11.317,11.317,0,0,0,67.516,11.083c-.3,0-.6.023-.891.045a16.944,16.944,0,0,0-29.847,1.7,11.218,11.218,0,0,0-12.864,10.23,8.072,8.072,0,1,0,8.159,13.755A9.674,9.674,0,0,0,46.74,43.578a7.983,7.983,0,0,0,7.931.724,8.056,8.056,0,0,0,7.994,7.2c.1,0,.191-.026.288-.029a4.821,4.821,0,0,0,9.124,0c.1,0,.189.029.288.029a8.083,8.083,0,0,0,8.083-8.083,8,8,0,0,0-.485-2.663A9.7,9.7,0,0,0,85.3,32.1Z" transform="translate(-18.974 -3)" fill="#f9e478"/>
          <g id="Grupo_62934" data-name="Grupo 62934" transform="translate(0.006 5.717)">
            <path id="Trazado_111228" data-name="Trazado 111228" d="M77.214,39.569c-.1,0-.191-.026-.288-.029a4.821,4.821,0,0,1-9.124,0c-.1,0-.189.029-.288.029a8.056,8.056,0,0,1-7.994-7.2,7.891,7.891,0,0,1-7.275-.338A16.142,16.142,0,0,1,32.3,9.239a11.317,11.317,0,0,0-8.386,9.975,8.072,8.072,0,1,0,8.159,13.755,9.674,9.674,0,0,0,14.66,6.763,7.983,7.983,0,0,0,7.931.724,8.056,8.056,0,0,0,7.994,7.2c.1,0,.191-.026.288-.029a4.821,4.821,0,0,0,9.124,0c.1,0,.189.029.288.029a8.083,8.083,0,0,0,8.083-8.083c0-.221-.042-.432-.063-.647a8.057,8.057,0,0,1-3.17.647Z" transform="translate(-18.978 -4.869)" fill="#f9ca78"/>
            <path id="Trazado_111229" data-name="Trazado 111229" d="M57.577,24.925A19.3,19.3,0,0,1,48.2,22.5a9.687,9.687,0,0,0,18.763,0A19.3,19.3,0,0,1,57.577,24.925Z" transform="translate(-0.957 3.308)" fill="#f9ca78"/>
            <path id="Trazado_111230" data-name="Trazado 111230" d="M36.149,18.617A4.85,4.85,0,0,1,41,23.467a6.4,6.4,0,0,1,6.352,7.61,6.439,6.439,0,0,0-3.369-10.693,4.81,4.81,0,0,0-8.224-1.728c.133-.01.257-.039.391-.039Z" transform="translate(-8.63 -0.083)" fill="#f9ca78"/>
            <path id="Trazado_111231" data-name="Trazado 111231" d="M36.916,9.559A11.37,11.37,0,0,0,32.69,6.536a17.046,17.046,0,0,0-2.7,4.11,11.3,11.3,0,0,1,6.936,3.765,6.425,6.425,0,0,1,2.786-.658h.034a8.056,8.056,0,0,1,4.512-2.981,6.387,6.387,0,0,0-7.338-1.216Z" transform="translate(-12.189 -6.536)" fill="#f9ca78"/>
            <path id="Trazado_111232" data-name="Trazado 111232" d="M40.436,9.613A8.083,8.083,0,0,1,48.519,17.7,8.083,8.083,0,0,1,48.4,18.84a6.447,6.447,0,0,0-9.112-9.112,8.083,8.083,0,0,1,1.143-.115Z" transform="translate(-6.45 -5.63)" fill="#f9ca78"/>
          </g>
        </g>
        <path id="Trazado_111233" data-name="Trazado 111233" d="M51.693,63.039a19.258,19.258,0,0,1-6.158-2.955,3.224,3.224,0,0,1-4.4-4.409,19.238,19.238,0,0,1-3.581-9.635l-2.886,1.667,1.9,3.28a9.4,9.4,0,0,0-1.769,3.072H31v6.467h3.794a9.7,9.7,0,0,0,1.77,3.062l-1.9,3.288,5.6,3.233,1.9-3.288a9.637,9.637,0,0,0,3.537,0l1.9,3.287,5.6-3.233L51.3,63.6C51.448,63.421,51.561,63.219,51.693,63.039Z" transform="translate(6.184 23.541)" fill="#1db8c5"/>
        <g id="Grupo_62936" data-name="Grupo 62936" transform="translate(0 45.257)">
          <path id="Trazado_111234" data-name="Trazado 111234" d="M33.867,43.937A12.933,12.933,0,1,0,12.85,54.025V56.87H29.017V54.025A12.907,12.907,0,0,0,33.867,43.937Z" transform="translate(-7.999 -30.994)" fill="#f9e478"/>
          <rect id="Rectángulo_6484" data-name="Rectángulo 6484" width="22" height="6" rx="2" transform="translate(1.917 26.126)" fill="#d0d8da"/>
          <path id="Trazado_111235" data-name="Trazado 111235" d="M11,51H27.167v1.617a8.083,8.083,0,0,1-16.167,0Z" transform="translate(-6.149 -18.657)" fill="#93999a"/>
          <path id="Trazado_111236" data-name="Trazado 111236" d="M16.081,38.987a14.466,14.466,0,0,1,2.3-7.83,12.933,12.933,0,0,0-5.532,22.768V56.77H29.014V53.925c.173-.139.323-.3.495-.445A14.542,14.542,0,0,1,16.081,38.987Z" transform="translate(-7.996 -30.894)" fill="#f9ca78"/>
          <path id="Trazado_111237" data-name="Trazado 111237" d="M12.233,47a3.233,3.233,0,1,0,0,6.467H28.4a3.233,3.233,0,0,0,3.233-3.233H15.467A3.233,3.233,0,0,1,12.233,47Z" transform="translate(-7.382 -21.124)" fill="#93999a"/>
          <path id="Trazado_111238" data-name="Trazado 111238" d="M23.933,54.233h3.072a8.063,8.063,0,0,0,.162-1.617V51H11v1.617a8.067,8.067,0,0,0,5.183,7.524A8.061,8.061,0,0,1,23.933,54.233Z" transform="translate(-6.149 -18.657)" fill="#656b76"/>
        </g>
      </g>
    </g>
    <g id="Outline_copy" data-name="Outline copy" transform="translate(3 2)">
      <g id="Grupo_62938" data-name="Grupo 62938">
        <path id="Trazado_111239" data-name="Trazado 111239" d="M27.7,40.8a9.448,9.448,0,0,0,3.961-.867A11.3,11.3,0,0,0,46.4,46.473a1.617,1.617,0,1,0-1.193-3.005,7.985,7.985,0,0,1-2.957.566,8.129,8.129,0,0,1-7.978-6.85,1.617,1.617,0,0,0-2.6-1.027,6.371,6.371,0,0,1-3.974,1.41,6.467,6.467,0,0,1-2.546-12.408,1.617,1.617,0,0,0,.97-1.35,9.748,9.748,0,0,1,9.66-8.876,9.436,9.436,0,0,1,1.368.11h.055a9.572,9.572,0,0,1,4.538,1.967,8.032,8.032,0,0,0-2.727,6.006,1.617,1.617,0,1,0,3.233,0,4.85,4.85,0,0,1,4.85-4.85,1.617,1.617,0,0,0,0-3.233,7.988,7.988,0,0,0-2.36.393,12.815,12.815,0,0,0-4.915-2.968A15.407,15.407,0,0,1,52.759,5.233,15.221,15.221,0,0,1,61.268,7.82a1.617,1.617,0,0,0,1.8-2.685A18.43,18.43,0,0,0,52.759,2a18.664,18.664,0,0,0-16.328,9.719c-.215-.019-.432-.019-.647-.019A13.009,13.009,0,0,0,23.012,22.608,9.7,9.7,0,0,0,27.7,40.8Z" transform="translate(6.249 -2)" fill="#47286d"/>
        <path id="Trazado_111240" data-name="Trazado 111240" d="M94.293,29.632a11.326,11.326,0,0,0-6.478-10.221,12.917,12.917,0,0,0-21.5-9.134,8.838,8.838,0,0,0-5.162-1.662,1.617,1.617,0,1,0,0,3.233,5.658,5.658,0,0,1,5.658,5.658,1.617,1.617,0,0,0,3.233,0,8.83,8.83,0,0,0-1.486-4.91,9.692,9.692,0,0,1,16.036,7.335c0,.087-.008.173-.013.259l-.015.212a1.617,1.617,0,0,0,1.08,1.617,8.07,8.07,0,0,1,.97,14.831c-.013,0-.019.018-.032.026a8.066,8.066,0,0,1-9.318-1.52,1.617,1.617,0,1,0-2.286,2.286,11.173,11.173,0,0,0,11.189,2.84c.015.162.045.323.045.474a6.467,6.467,0,0,1-6.391,6.467c-.055,0-.242-.027-.3-.029a1.617,1.617,0,0,0-1.591,1.083,3.206,3.206,0,0,1-6.072,0,1.591,1.591,0,0,0-1.591-1.083.808.808,0,0,0-.226.021A6.407,6.407,0,0,1,63.8,42.342,8.045,8.045,0,0,0,60.306,28.17a5.668,5.668,0,0,0-5.621-5.005,1.617,1.617,0,0,0,0,3.233,2.425,2.425,0,0,1,2.425,2.425v.808a1.617,1.617,0,0,0,1.617,1.617,4.85,4.85,0,0,1,0,9.7,1.617,1.617,0,0,0,0,3.233,7.986,7.986,0,0,0,2.118-.323,9.627,9.627,0,0,0,7.582,6.617v3.406a6.467,6.467,0,0,0,6.467,6.467.451.451,0,0,1,.44.344l.71,2.836a4.273,4.273,0,0,0,5.317,3.125V74.9a4.85,4.85,0,0,1-4.85,4.85H73.276V78.132a1.617,1.617,0,0,0-1.617-1.617H68.943a11.214,11.214,0,0,0-.909-1.573l1.36-2.352a1.617,1.617,0,0,0-.593-2.208l-5.6-3.233a1.617,1.617,0,0,0-2.21.592l-1.356,2.352a11.576,11.576,0,0,0-1.819,0L56.463,67.74a1.617,1.617,0,0,0-2.21-.592l-5.6,3.233a1.617,1.617,0,0,0-.593,2.208l1.356,2.347c-.175.252-.338.508-.485.771s-.289.529-.419.808H45.793a1.617,1.617,0,0,0-1.617,1.617V79.75a8.093,8.093,0,0,0-8.083,8.083,4.85,4.85,0,0,1-4.85,4.85H28.009A4.839,4.839,0,0,1,23.4,89.267a9.715,9.715,0,0,0,7.842-9.519v-.3a4.821,4.821,0,0,0,0-9.105v-.782a14.5,14.5,0,0,0,2.824-18.218,1.617,1.617,0,0,0-2.786,1.644,11.271,11.271,0,0,1-2.668,14.565,1.617,1.617,0,0,0-.6,1.261v1.234H26.582L28,57.293a1.617,1.617,0,0,0-2.118-1.712l-4.339,1.447L17.2,55.581a1.617,1.617,0,0,0-2.118,1.712L16.5,70.048H15.076V68.82a1.617,1.617,0,0,0-.6-1.261A11.305,11.305,0,0,1,27.28,48.991a1.617,1.617,0,1,0,1.644-2.784A14.54,14.54,0,0,0,11.843,69.563v.778a4.821,4.821,0,0,0,0,9.105v.3a9.7,9.7,0,0,0,8.234,9.577,8.083,8.083,0,0,0,7.933,6.59h3.233a8.093,8.093,0,0,0,8.083-8.083,4.85,4.85,0,0,1,4.85-4.85V84.6a1.617,1.617,0,0,0,1.617,1.617h2.716a11.214,11.214,0,0,0,.909,1.573L48.056,90.14a1.617,1.617,0,1,0,2.8,1.617l1.9-3.288a1.617,1.617,0,0,0-.171-1.858,8.017,8.017,0,0,1-1.474-2.551,1.617,1.617,0,0,0-1.523-1.078H47.409V79.748h2.178a1.617,1.617,0,0,0,1.523-1.075,7.712,7.712,0,0,1,1.476-2.558,1.617,1.617,0,0,0,.171-1.858l-1.09-1.885,2.8-1.617,1.088,1.885a1.617,1.617,0,0,0,1.7.782,8.029,8.029,0,0,1,2.947,0,1.617,1.617,0,0,0,1.7-.781l1.09-1.888,2.8,1.617L64.693,74.26a1.617,1.617,0,0,0,.171,1.858,8.017,8.017,0,0,1,1.474,2.551,1.617,1.617,0,0,0,1.525,1.078h2.179V82.98H67.865a1.617,1.617,0,0,0-1.523,1.075,8.338,8.338,0,0,1-.614,1.35,8.125,8.125,0,0,1-.862,1.208,1.617,1.617,0,0,0-.171,1.858l1.09,1.885-2.8,1.617L61.9,90.1a1.617,1.617,0,0,0-1.7-.782,8.1,8.1,0,0,1-2.947,0,1.617,1.617,0,0,0-1.7.781l-1.9,3.288A1.617,1.617,0,0,0,56.461,95l1.356-2.352a11.178,11.178,0,0,0,1.817,0L60.991,95a1.617,1.617,0,0,0,2.21.592l5.6-3.233a1.617,1.617,0,0,0,.593-2.208L68.038,87.8c.175-.252.338-.508.485-.771s.288-.529.419-.808h2.718A1.617,1.617,0,0,0,73.276,84.6V82.982h3.233A8.093,8.093,0,0,0,84.593,74.9V54.816a1.617,1.617,0,0,0-3.233,0v7.658a1.107,1.107,0,0,1-2.182.268l-.708-2.834a3.68,3.68,0,0,0-3.576-2.794,3.233,3.233,0,0,1-3.233-3.233V53a6.418,6.418,0,0,0,8.829-2.385,9.713,9.713,0,0,0,8.955-9.671,8.98,8.98,0,0,0-.205-1.9,11.257,11.257,0,0,0,5.055-9.42ZM18.578,59.448l2.454.818a1.617,1.617,0,0,0,1.022,0l2.454-.818-1.187,10.6H19.764ZM13.459,73.282H29.626a1.617,1.617,0,1,1,0,3.233H13.459a1.617,1.617,0,0,1,0-3.233Zm1.617,6.467H28.009a6.467,6.467,0,0,1-12.933,0Z" transform="translate(-0.526 1.085)" fill="#47286d"/>
        <path id="Trazado_111241" data-name="Trazado 111241" d="M34.85,28.467a1.617,1.617,0,1,0,0-3.233,1.617,1.617,0,0,1-1.617-1.617,1.617,1.617,0,0,0-3.233,0A4.85,4.85,0,0,0,34.85,28.467Z" transform="translate(13.65 10.333)" fill="#47286d"/>
        <path id="Trazado_111242" data-name="Trazado 111242" d="M31.467,12A6.467,6.467,0,0,0,25,18.467a1.617,1.617,0,1,0,3.233,0,3.233,3.233,0,0,1,3.233-3.233,1.617,1.617,0,1,0,0-3.233Z" transform="translate(10.567 4.167)" fill="#47286d"/>
        <path id="Trazado_111243" data-name="Trazado 111243" d="M25.233,20.617a1.617,1.617,0,1,0-3.233,0,3.233,3.233,0,0,0,3.233,3.233,1.617,1.617,0,0,0,0-3.233Z" transform="translate(8.717 8.483)" fill="#47286d"/>
        <path id="Trazado_111244" data-name="Trazado 111244" d="M36.353,17.157a1.617,1.617,0,0,0,2.286,0,3.309,3.309,0,0,1,4.572,0A1.617,1.617,0,1,0,45.5,14.871a6.617,6.617,0,0,0-9.144,0,1.617,1.617,0,0,0,0,2.286Z" transform="translate(17.276 4.807)" fill="#47286d"/>
        <path id="Trazado_111245" data-name="Trazado 111245" d="M52.617,20A1.617,1.617,0,0,0,51,21.617a4.85,4.85,0,0,0,4.85,4.85,1.617,1.617,0,1,0,0-3.233,1.617,1.617,0,0,1-1.617-1.617A1.617,1.617,0,0,0,52.617,20Z" transform="translate(26.6 9.1)" fill="#47286d"/>
        <path id="Trazado_111246" data-name="Trazado 111246" d="M48.85,16.617a3.233,3.233,0,0,1-3.233,3.233,1.617,1.617,0,0,0,0,3.233,6.467,6.467,0,0,0,6.467-6.467,1.617,1.617,0,0,0-3.233,0Z" transform="translate(22.283 6.017)" fill="#47286d"/>
        <path id="Trazado_111247" data-name="Trazado 111247" d="M49.617,11a1.617,1.617,0,1,0,0,3.233,3.233,3.233,0,0,1,3.233,3.233,1.617,1.617,0,0,0,3.233,0A6.467,6.467,0,0,0,49.617,11Z" transform="translate(24.75 3.55)" fill="#47286d"/>
        <path id="Trazado_111248" data-name="Trazado 111248" d="M45,28.617a4.85,4.85,0,0,0,4.85,4.85,1.617,1.617,0,1,0,0-3.233,1.617,1.617,0,0,1-1.617-1.617,1.617,1.617,0,1,0-3.233,0Z" transform="translate(22.9 13.417)" fill="#47286d"/>
        <circle id="Elipse_4761" data-name="Elipse 4761" cx="2" cy="2" r="2" transform="translate(53 6)" fill="#47286d"/>
        <circle id="Elipse_4762" data-name="Elipse 4762" cx="1.5" cy="1.5" r="1.5" transform="translate(57 36)" fill="#47286d"/>
        <circle id="Elipse_4763" data-name="Elipse 4763" cx="1.5" cy="1.5" r="1.5" transform="translate(70 31)" fill="#47286d"/>
        <circle id="Elipse_4764" data-name="Elipse 4764" cx="1.5" cy="1.5" r="1.5" transform="translate(44 26)" fill="#47286d"/>
        <path id="Trazado_111249" data-name="Trazado 111249" d="M40.844,59.7a4.85,4.85,0,1,0-4.682-3.6,4.86,4.86,0,0,0,4.682,3.6Zm-1.392-5.658a1.617,1.617,0,1,1,.592,2.208A1.617,1.617,0,0,1,39.452,54.042Z" transform="translate(17.348 27.6)" fill="#47286d"/>
        <circle id="Elipse_4765" data-name="Elipse 4765" cx="1.5" cy="1.5" r="1.5" transform="translate(0 58)" fill="#47286d"/>
        <circle id="Elipse_4766" data-name="Elipse 4766" cx="1.5" cy="1.5" r="1.5" transform="translate(39 58)" fill="#47286d"/>
        <ellipse id="Elipse_4767" data-name="Elipse 4767" cx="2" cy="1.5" rx="2" ry="1.5" transform="translate(19 39)" fill="#47286d"/>
        <path id="Trazado_111250" data-name="Trazado 111250" d="M7.033,32.217a1.617,1.617,0,1,0,.592,2.208A1.617,1.617,0,0,0,7.033,32.217Z" transform="translate(-2.009 16.5)" fill="#47286d"/>
        <path id="Trazado_111251" data-name="Trazado 111251" d="M26.2,47.017a1.617,1.617,0,1,0-.592-2.208,1.617,1.617,0,0,0,.592,2.208Z" transform="translate(10.808 23.9)" fill="#47286d"/>
        <circle id="Elipse_4768" data-name="Elipse 4768" cx="1.617" cy="1.617" r="1.617" transform="translate(28.747 41.871) rotate(-15.009)" fill="#47286d"/>
        <path id="Trazado_111252" data-name="Trazado 111252" d="M27.817,35.017a1.617,1.617,0,1,0-2.208-.592A1.617,1.617,0,0,0,27.817,35.017Z" transform="translate(10.808 16.5)" fill="#47286d"/>
        <path id="Trazado_111253" data-name="Trazado 111253" d="M5.416,44.217a1.617,1.617,0,1,0,2.208.592A1.617,1.617,0,0,0,5.416,44.217Z" transform="translate(-2.009 23.9)" fill="#47286d"/>
        <path id="Trazado_111254" data-name="Trazado 111254" d="M11.425,30.625a1.617,1.617,0,1,0-2.208-.592,1.617,1.617,0,0,0,2.208.592Z" transform="translate(0.7 13.792)" fill="#47286d"/>
      </g>
    </g>
  </g>
</svg>
