<svg xmlns="http://www.w3.org/2000/svg" width="293.96" height="286.475" viewBox="0 0 293.96 286.475"><g transform="translate(-998 -602)"><g transform="translate(-2807.771 -1130.524)"><path d="M3833.075,1775.18c15.707-12.446,37.154-14.722,55.472-7.8,24.337,9.194,42.25,32.476,65.887,43.657a73.887,73.887,0,0,0,53.071,3.913c8.47-2.6,16.707-6.772,25.5-7.051,7.786-.246,15.478,2.644,22.1,7.151,19.476,13.264,29.255,41.549,22.688,65.65-3.515,12.9-11.06,24.112-19.851,33.509-18.159,19.419-42.249,32.042-67.427,35.328-14.053,1.834-28.309.838-42.311-1.415-30.513-4.912-60.575-16.038-85.7-35.659-30.077-23.491-59.887-64.466-48.626-107.18A57.258,57.258,0,0,1,3833.075,1775.18Z" fill="#dcbfff"/><path d="M4068.861,1809.684c-.989-2.53-1.811-5.74-.144-7.8a4.607,4.607,0,0,1,2.43-1.478c4.4-1.187,8.721,2.2,11.792,5.858a52.135,52.135,0,0,1,7.221,11.349,19.989,19.989,0,0,1,2.056,6.668,8.865,8.865,0,0,1-1.815,6.567C4080.351,1842.289,4071.6,1816.692,4068.861,1809.684Z" fill="#dcbfff"/><path d="M4000.831,1758.492c3.593-7.063,13.544-10.946,20.392-4.952,1.911,1.673,2.951,3.465,4.644,5.149,1.829,1.624,3.929,1.236,5.317-.731,2.421-3.434,4.647-4.743,8.981-5.006,4.515-.273,7.843,1.748,9.269,4.139,3.8,6.362.862,10.716,5.235,14.059,5.094,2.734,8.106-2.161,15.327-1.812,5.607.273,8.813,6.415,7.181,11.113a3.136,3.136,0,0,1-3.075,2.209h-83.039c-4.422,0-9.293-.432-9.513-5.964a7.913,7.913,0,0,1,6.3-8.2c5.842-.889,6.3,1.761,9.691,1.082C4000.981,1768.887,3998.229,1762.209,4000.831,1758.492Z" fill="#a271dc"/><path d="M3874.158,1776.273c-2.823-5.549-10.64-8.6-16.02-3.889-1.5,1.314-2.317,2.722-3.646,4.043a2.619,2.619,0,0,1-4.177-.574,8.028,8.028,0,0,0-7.055-3.932c-3.547-.215-6.161,1.372-7.282,3.252-2.982,5-.677,8.417-4.111,11.042-4,2.148-6.368-1.7-12.04-1.422-4.4.213-6.923,5.038-5.64,8.728a2.462,2.462,0,0,0,2.415,1.736h65.228c3.472,0,7.3-.339,7.47-4.685a6.214,6.214,0,0,0-4.95-6.443c-4.589-.7-4.948,1.384-7.614.849C3874.044,1784.439,3876.207,1779.192,3874.158,1776.273Z" fill="#a271dc"/><path d="M3857.694,1944.378l3.086,6.885a1.127,1.127,0,0,1-.568,1.491l-16.119,7.226a1.278,1.278,0,0,1-1.591-1.869l6.238-9.719S3853.671,1949.3,3857.694,1944.378Z" fill="#002a24"/><path d="M3878.174,1944.378l3.087,6.885a1.129,1.129,0,0,1-.568,1.491l-16.12,7.226a1.278,1.278,0,0,1-1.591-1.869l6.238-9.719S3874.152,1949.3,3878.174,1944.378Z" fill="#002a24"/><path d="M3912.993,1754.58l1.714,10.75,3.622-14.333s-5.076-2.463-5.3-1.567A39.936,39.936,0,0,0,3912.993,1754.58Z" fill="#362e69"/><path d="M3941.8,1777.718l1.567,18.585-16.4-.783,1.891-16.458Z" fill="#ffbd8b"/><path d="M3927.962,1786.889l.9-7.827,12.942-1.344.543,6.437C3939.773,1786.718,3935.145,1789.376,3927.962,1786.889Z" fill="#e59e6e"/><path d="M3917.906,1765.2c.986,2.039.463,4.332-1.169,5.121s-3.754-.225-4.74-2.265-.463-4.332,1.169-5.121S3916.92,1763.156,3917.906,1765.2Z" fill="#e59e6e"/><path d="M3915.526,1766.69c-.086-.532-.2-1.058-.329-1.581a17.525,17.525,0,1,1,34.524-5.225,3.785,3.785,0,0,1,3.387-.481c2.135.8,3.059,3.6,2.065,6.271s-3.531,4.185-5.665,3.39a3.328,3.328,0,0,1-.815-.446c-.329,8.618-6.926,15.672-15.349,16.067a15.722,15.722,0,0,1-10.927-3.758C3918.373,1777.955,3916.326,1771.644,3915.526,1766.69Z" fill="#ffbd8b"/><path d="M3928.3,1761.07c-.034,1-.042,1.984-.094,2.944a6.508,6.508,0,0,1-.541,2.6,2.5,2.5,0,0,0-.7,1.535,2.071,2.071,0,0,0,.765,1.622,3.38,3.38,0,0,0,3.016.588,4.179,4.179,0,0,1-2.466-1.149,1.33,1.33,0,0,1-.362-1.007c.041-.368.155-.443.6-1.059a3.915,3.915,0,0,0,.474-1.6,8.222,8.222,0,0,0-.006-1.545A10.529,10.529,0,0,0,3928.3,1761.07Z" fill="#bc7748"/><path d="M3934.121,1762.152a1.531,1.531,0,1,0,1.21-1.325A1.531,1.531,0,0,0,3934.121,1762.152Z" fill="#333"/><path d="M3921.04,1763.632a1.53,1.53,0,1,0,1.207-1.329A1.53,1.53,0,0,0,3921.04,1763.632Z" fill="#333"/><path d="M3936.68,1772.754a12.7,12.7,0,0,1-2.626,1.749,9.494,9.494,0,0,1-2.969.912,8.086,8.086,0,0,1-3.082-.227,11.4,11.4,0,0,1-2.867-1.3,8.513,8.513,0,0,0,2.777,1.6,7.3,7.3,0,0,0,3.221.33,8.367,8.367,0,0,0,3.063-1.038A9.152,9.152,0,0,0,3936.68,1772.754Z" fill="#bc7748"/><path d="M3932.194,1758.943a15.723,15.723,0,0,1,2.237-.537,7.783,7.783,0,0,1,2.124-.047,7.186,7.186,0,0,1,2.044.542c.509.159,1.744.886,2.066,1.026a5.143,5.143,0,0,0-3.975-2.765,5.158,5.158,0,0,0-2.513.335A4.7,4.7,0,0,0,3932.194,1758.943Z" fill="#473b1e"/><path d="M3925.455,1759.7a4.719,4.719,0,0,0-2.226-1.033,5.156,5.156,0,0,0-2.531.16,5.145,5.145,0,0,0-3.362,3.485c.293-.2,1.361-1.155,1.828-1.409a7.2,7.2,0,0,1,1.9-.928,7.792,7.792,0,0,1,2.094-.367A15.906,15.906,0,0,1,3925.455,1759.7Z" fill="#473b1e"/><path d="M3932.772,1864.9s3.42,23.2-19,27.243-50.308,2.836-50.308,2.836l-3.881,53.293-11.7.6s-30.133-74.047,11.576-85.623l37.483.184,15.434-1.1s15.618-3.858,15.8-3.124S3932.405,1865.267,3932.772,1864.9Z" fill="#3360a0"/><path d="M3953.373,1865.022s3.42,23.2-19,27.242-50.307,2.837-50.307,2.837l-3.881,53.293-11.7.6s-30.133-74.047,11.575-85.623l37.484.184,15.434-1.1s15.618-3.858,15.8-3.123S3953,1865.389,3953.373,1865.022Z" fill="#577ec4"/><path d="M3925.138,1788.892s-15.434,1.96-19.354,5.145S3883,1844.014,3883,1844.014l15.679,18.374,33.319.245s24.989,13.474,40.668.735,7.594-57.082-1.47-66.636-25.234-9.31-25.234-9.31S3931.263,1797.712,3925.138,1788.892Z" fill="#f17781"/><path d="M3955.027,1812.166a64.831,64.831,0,0,0-1.131,7.736c-.133,1.3-.19,2.6-.265,3.905-.039,1.305-.07,2.61-.052,3.918a51.68,51.68,0,0,0,.644,7.82,25.74,25.74,0,0,0,2.273,7.49,38.45,38.45,0,0,1-1.494-7.6c-.284-2.562-.382-5.145-.416-7.728-.053-2.583.01-5.171.092-7.761S3954.888,1814.768,3955.027,1812.166Z" fill="#c65260"/><path d="M3908.847,1810.451c-.706,3.795-1.452,7.576-2.211,11.351-.775,3.772-1.577,7.536-2.49,11.27s-1.905,7.447-3.118,11.086a54.5,54.5,0,0,1-2.082,5.355,20.662,20.662,0,0,1-2.961,4.913,18.756,18.756,0,0,0,3.4-4.693,44.3,44.3,0,0,0,2.38-5.309c.693-1.811,1.288-3.657,1.852-5.509q.814-2.787,1.5-5.6c.442-1.883.867-3.769,1.248-5.664s.729-3.8,1.033-5.7C3908.037,1818.133,3908.527,1814.3,3908.847,1810.451Z" fill="#c65260"/><path d="M3901.091,1851.8c.1-.775,5.986-1.641,8.15-1.753,1.64-.085,12.51-.448,16.208-.615l-.272.951.056,4.2.607,2.782c-3.244.206-11.174.516-12.825.843a40.5,40.5,0,0,0-6.031,2.1s-1.592-.362.43-1.234a9.713,9.713,0,0,0,3.246-2.325c.277-.31-.024-.863-.226-.81-5.505,1.442-6.071,1.681-6.071,1.681s-6.471-.036-.037-1.491c3.857-.871,5.239-1.378,5.582-1.811.147-.184-.115-.811-.35-.826-3.341-.206-9.338.979-7.7.2,1.339-.634,5.558-1.328,7.2-1.59.1-.015.263-.627-.185-.664C3905.7,1851.169,3901,1852.519,3901.091,1851.8Z" fill="#ffc0bb"/><path d="M3958.793,1842.391c-1.355.33-2.691.708-4.052.993-1.351.322-2.721.557-4.078.842-2.732.5-5.471.932-8.219,1.318-2.751.361-5.506.693-8.268.96s-5.549.507-8.272.659l-.367.02-.08.318a22.551,22.551,0,0,0-.5,2.748,22.168,22.168,0,0,0-.162,2.775,18,18,0,0,0,.24,2.778,12.823,12.823,0,0,0,.807,2.679l.032.075.059.039,3.026,2.03q1.512,1.016,3.042,2.008-1.423-1.14-2.869-2.249l-2.884-2.226.091.114a12.247,12.247,0,0,1-.634-2.576,17.811,17.811,0,0,1-.13-2.665,25.15,25.15,0,0,1,.243-2.667,21.8,21.8,0,0,1,.536-2.61l-.447.338c1.439-.038,2.8-.13,4.2-.232s2.782-.213,4.17-.36c2.774-.286,5.544-.632,8.3-1.072s5.5-.983,8.211-1.624c1.353-.346,2.708-.679,4.039-1.1C3956.167,1843.328,3957.482,1842.858,3958.793,1842.391Z" fill="#c65260"/><path d="M3831.392,1820.618h60.267l17.088,41.709h29.031a1.47,1.47,0,0,1,1.47,1.47h0a1.47,1.47,0,0,1-1.47,1.47H3851.42Z" fill="#9ba5a3"/><path d="M3861.276,1844.419a2.9,2.9,0,1,0,2.173-3.783A3.1,3.1,0,0,0,3861.276,1844.419Z" fill="#daeef7"/><path d="M3912.665,1744.409s-5.146.165.254-4.186,19.9-9.453,29.189-4.546c0,0,1.858-3.95,4.544-3.007s-1.746,3.661-1.746,3.661,3.43-.11,4.477,1.572c.773,1.244-1.327,1.3-2.475,1.243,1.952.332,9.438,5.06,5.681,20.154-1.335-.293-8.945-11.328-8.945-11.328s-17.4,9.668-15.682,1.98c0,0-18.03,11.252-15.472,1.957C3912.49,1751.909,3905.518,1752.42,3912.665,1744.409Z" fill="#362e69"/><path d="M3952.6,1759.391a3.3,3.3,0,0,0-2.991.723c-1.55,1.231-1.378,5.552-1.378,5.552s-7.4,4.771-6.619-15.416c.83-21.475,6.172,1.723,6.172,1.723Z" fill="#362e69"/><path d="M3913.512,1940.6l-32.85,5.423,1.085-4.594c3.265-13.83,1.642-30.791-3.147-44.509l1.432-.768,31.363-13.659Z" fill="#f3d7c3"/><path d="M4096.546,1942.806l-185.414-4.874-31.225,7.851,200.767,5.546Z" fill="#6e44aa"/><path d="M3879.557,1944.516c5.494-.587,10.876-2.463,16.205-3.893l14.966-4.019c.789-.212,1.162,1.32.372,1.533l-16.162,4.344c-5.056,1.36-10.126,3.068-15.339,3.627-.819.088-.857-1.505-.042-1.592Z" fill="#6e44aa"/><path d="M3911.129,1884.6a215.065,215.065,0,0,0-33.16,13.865c-1.118.58-2.164-1.527-1.035-2.113a218.145,218.145,0,0,1,33.634-14.088C3911.747,1881.881,3912.306,1884.217,3911.129,1884.6Z" fill="#6e44aa"/><path d="M4096.6,1887.947l-186.731-5.5,1.132,12.514a231.889,231.889,0,0,1,.764,30.3l-.635,12.675,185.414,4.874.172-.743a120.715,120.715,0,0,0-.116-54.116Z" fill="#a271dc"/><path d="M4087.589,2018.867l-172.1-.417.107-75.429,172.1.418.619,4.2a227.664,227.664,0,0,1-.095,67.029Z" fill="#2ed4e2"/><path d="M3968.714,2018.078l-34.15-.083.106-74.426,34.15.083Z" fill="#ffd47c"/><path d="M3961.067,2018.059l-19.174-.047.106-74.426,19.174.046Z" fill="#2ed4e2"/><path d="M3915.595,1943.441l172.1.417,2.374,19.428-174.48-15.759Z" fill="#15b8bc" opacity="0.56"/><path d="M3903.284,1949.085s8,47.846-1.6,67.594l13.8,1.771.107-75.009Z" fill="#e2e4e3"/><path d="M3882.144,1921.526l1.9-26.1s-4.62-7.43-9.722-1.052-.567,14.6-.638,14.882S3882.144,1921.526,3882.144,1921.526Z" fill="#577ec4"/><path d="M4014,1870.682H3998.47a.636.636,0,0,1-.05-1.271H4014a.636.636,0,0,1,.051,1.271Z" fill="#495abf"/><path d="M4020.211,1870.682h-3.879a.636.636,0,0,1-.05-1.271h3.933a.636.636,0,0,1,0,1.271Z" fill="#495abf"/><path d="M4024.545,1870.682h-2.134a.636.636,0,0,1,0-1.271h2.135a.636.636,0,0,1,0,1.271Z" fill="#495abf"/><path d="M4061,1861.058a6.18,6.18,0,1,1,6.179-6.18A6.179,6.179,0,0,1,4061,1861.058Zm0-10.494a4.314,4.314,0,1,0,4.314,4.314h0A4.321,4.321,0,0,0,4061,1850.564Z" fill="#495abf"/><path d="M4035.189,1847.768a.925.925,0,0,1-.657-.271l-4.688-4.689a.934.934,0,0,1,1.321-1.321h0l4.688,4.689a.932.932,0,0,1-.661,1.591Z" fill="#495abf"/><path d="M4030.5,1847.768a.932.932,0,0,1-.657-1.591l4.688-4.688a.934.934,0,0,1,1.321,1.321l-4.688,4.688A.93.93,0,0,1,4030.5,1847.768Z" fill="#495abf"/><path d="M3833.087,1762.159h-15.528a.636.636,0,1,1-.051-1.271h15.579a.636.636,0,0,1,.05,1.271Z" fill="#495abf"/><path d="M3839.3,1762.159h-3.879a.636.636,0,0,1-.051-1.271h3.934a.636.636,0,0,1,0,1.271Z" fill="#495abf"/><path d="M3843.634,1762.159H3841.5a.636.636,0,0,1,0-1.271h2.135a.636.636,0,0,1,0,1.271Z" fill="#495abf"/><path d="M3882.057,1752.535a4.21,4.21,0,1,1,4.21-4.21A4.21,4.21,0,0,1,3882.057,1752.535Zm0-7.149a2.939,2.939,0,1,0,2.939,2.939h0A2.944,2.944,0,0,0,3882.057,1745.386Z" fill="#495abf"/><path d="M3864.473,1743.481a.631.631,0,0,1-.448-.185l-3.194-3.194a.636.636,0,0,1,.9-.9h0l3.194,3.194a.635.635,0,0,1-.45,1.084Z" fill="#495abf"/><path d="M3861.279,1743.481a.635.635,0,0,1-.448-1.084l3.194-3.194a.636.636,0,0,1,.9.9l-3.194,3.194A.632.632,0,0,1,3861.279,1743.481Z" fill="#495abf"/><rect width="293.46" height="5.671" transform="translate(3805.772 2013.328)" fill="#6e44aa"/></g></g></svg>