<svg xmlns="http://www.w3.org/2000/svg" xmlns:xlink="http://www.w3.org/1999/xlink" width="610.021" height="291.568" viewBox="0 0 610.021 291.568">
  <defs>
    <linearGradient id="linear-gradient" y1="0.5" x2="1" y2="0.5" gradientUnits="objectBoundingBox">
      <stop offset="0" stop-color="#bb83ff"/>
      <stop offset="1" stop-color="#f17781"/>
    </linearGradient>
    <linearGradient id="linear-gradient-2" x1="0.296" y1="-0.218" x2="1.15" y2="2.793" gradientUnits="objectBoundingBox">
      <stop offset="0" stop-color="#fff"/>
      <stop offset="1" stop-color="#ccc"/>
    </linearGradient>
  </defs>
  <g id="Grupo_59540" data-name="Grupo 59540" transform="translate(-494.989 -939.226)">
    <path id="Trazado_106911" data-name="Trazado 106911" d="M2808.837,363a144.921,144.921,0,0,0-103.089-42.687q-2.621,0-5.228.093a145.4,145.4,0,0,0-72.793,22.432,132.028,132.028,0,0,0-28.189,24.429c-23.943,26.83-40.393,62.923-56.431,98.14-16.44,36.1-33.318,73.157-58.121,99.23a124.556,124.556,0,0,1-23.248,19.252,138.671,138.671,0,0,1-69.443,21.43q-2.416.082-4.839.085a139.326,139.326,0,0,1-127.578-83.3,3.269,3.269,0,0,0-.532-.813,139.319,139.319,0,0,1,217.078-162.239,7.321,7.321,0,1,0,4.319-4.827,145.777,145.777,0,1,0-93.434,257.656q2.614,0,5.217-.092a144.988,144.988,0,0,0,72.8-22.459,128.146,128.146,0,0,0,24.057-19.911c26.224-27.208,43.625-65.421,60.574-102.643,15.649-34.371,31.7-69.6,54.6-95.4a127.964,127.964,0,0,1,26.78-23.069,138.51,138.51,0,0,1,69.409-21.427q2.431-.084,4.872-.085a139.376,139.376,0,0,1,123.1,74.021,3.186,3.186,0,0,0,.522.7,139.311,139.311,0,0,1-204.3,178.015,7.1,7.1,0,0,0,.13-1.285,7.323,7.323,0,1,0-7.323,7.322h0a7.232,7.232,0,0,0,3.332-.836A145.775,145.775,0,0,0,2808.837,363Z" transform="translate(-1746.518 618.918)" fill="url(#linear-gradient)"/>
    <ellipse id="Elipse_4070" data-name="Elipse 4070" cx="88.469" cy="88.47" rx="88.469" ry="88.47" transform="translate(871.563 993.227)" fill="url(#linear-gradient-2)"/>
    <path id="Trazado_106945" data-name="Trazado 106945" d="M992.777,912.668a88.467,88.467,0,0,1-124.959,124.959A88.467,88.467,0,1,0,992.777,912.668Z" transform="translate(32.822 109.635)" fill="#ccc"/>
    <path id="Trazado_108365" data-name="Trazado 108365" d="M9.945-3.789A4.025,4.025,0,0,1,8.59-.9,4.76,4.76,0,0,1,5.367.156,4.28,4.28,0,0,1,1.926-1.316,6.038,6.038,0,0,1,.672-5.359v-.7A6.819,6.819,0,0,1,1.25-8.945,4.332,4.332,0,0,1,2.9-10.863a4.629,4.629,0,0,1,2.5-.668A4.637,4.637,0,0,1,8.57-10.477,4.326,4.326,0,0,1,9.961-7.516H7.617A2.376,2.376,0,0,0,7-9.113a2.271,2.271,0,0,0-1.605-.5,1.991,1.991,0,0,0-1.754.84,4.707,4.707,0,0,0-.6,2.605V-5.3a5.038,5.038,0,0,0,.559,2.7,1.954,1.954,0,0,0,1.762.852,2.314,2.314,0,0,0,1.621-.5A2.241,2.241,0,0,0,7.6-3.789ZM10.984-4.3a5.013,5.013,0,0,1,.484-2.242A3.546,3.546,0,0,1,12.863-8.07a4.069,4.069,0,0,1,2.113-.539A3.849,3.849,0,0,1,17.77-7.562a4.2,4.2,0,0,1,1.207,2.844l.016.578A4.418,4.418,0,0,1,17.906-1.02,3.775,3.775,0,0,1,14.992.156a3.793,3.793,0,0,1-2.918-1.172A4.5,4.5,0,0,1,10.984-4.2Zm2.258.16A3.16,3.16,0,0,0,13.7-2.3a1.5,1.5,0,0,0,1.3.638,1.5,1.5,0,0,0,1.281-.63,3.457,3.457,0,0,0,.461-2.015,3.128,3.128,0,0,0-.461-1.831,1.5,1.5,0,0,0-1.3-.649,1.474,1.474,0,0,0-1.281.646A3.516,3.516,0,0,0,13.242-4.144Zm9.219-4.309.07.977a2.951,2.951,0,0,1,2.43-1.133,2.453,2.453,0,0,1,2,.789,3.682,3.682,0,0,1,.672,2.359V0H25.375V-5.406a1.465,1.465,0,0,0-.312-1.043,1.4,1.4,0,0,0-1.039-.324,1.553,1.553,0,0,0-1.43.813V0H20.336V-8.453Zm9.586-2.078v2.078h1.445V-6.8H32.047v4.219a1.007,1.007,0,0,0,.18.672.9.9,0,0,0,.688.2,3.6,3.6,0,0,0,.664-.055V-.047a4.648,4.648,0,0,1-1.367.2,2.156,2.156,0,0,1-2.422-2.4V-6.8H28.555V-8.453h1.234v-2.078ZM38.641.156A4.15,4.15,0,0,1,35.613-.984a4.054,4.054,0,0,1-1.168-3.039v-.219a5.106,5.106,0,0,1,.492-2.277,3.612,3.612,0,0,1,1.395-1.547,3.914,3.914,0,0,1,2.059-.543,3.508,3.508,0,0,1,2.73,1.094,4.444,4.444,0,0,1,1,3.1v.922H36.734a2.1,2.1,0,0,0,.66,1.328,2,2,0,0,0,1.395.5,2.437,2.437,0,0,0,2.039-.945l1.109,1.242A3.389,3.389,0,0,1,40.563-.246,4.511,4.511,0,0,1,38.641.156Zm-.258-6.945a1.411,1.411,0,0,0-1.09.455,2.357,2.357,0,0,0-.535,1.3H39.9v-.181a1.681,1.681,0,0,0-.406-1.165A1.456,1.456,0,0,0,38.383-6.789Zm7.094-1.664.07.977a2.951,2.951,0,0,1,2.43-1.133,2.453,2.453,0,0,1,2,.789,3.682,3.682,0,0,1,.672,2.359V0H48.391V-5.406a1.465,1.465,0,0,0-.312-1.043,1.4,1.4,0,0,0-1.039-.324,1.553,1.553,0,0,0-1.43.813V0H43.352V-8.453ZM54.742,0H52.477V-8.453h2.266Zm-2.4-10.641a1.112,1.112,0,0,1,.34-.836,1.277,1.277,0,0,1,.926-.328,1.28,1.28,0,0,1,.922.328,1.105,1.105,0,0,1,.344.836,1.108,1.108,0,0,1-.348.844,1.283,1.283,0,0,1-.918.328,1.283,1.283,0,0,1-.918-.328A1.108,1.108,0,0,1,52.344-10.641ZM56.25-4.289a5.094,5.094,0,0,1,.887-3.148,2.877,2.877,0,0,1,2.426-1.172,2.589,2.589,0,0,1,2.039.922V-12h2.266V0H61.828l-.109-.9A2.657,2.657,0,0,1,59.547.156,2.869,2.869,0,0,1,57.152-1.02,5.258,5.258,0,0,1,56.25-4.289Zm2.258.168A3.337,3.337,0,0,0,58.922-2.3a1.349,1.349,0,0,0,1.2.634A1.511,1.511,0,0,0,61.6-2.548V-5.889a1.489,1.489,0,0,0-1.461-.884Q58.508-6.773,58.508-4.121ZM65.266-4.3a5.013,5.013,0,0,1,.484-2.242A3.546,3.546,0,0,1,67.145-8.07a4.069,4.069,0,0,1,2.113-.539,3.849,3.849,0,0,1,2.793,1.047,4.2,4.2,0,0,1,1.207,2.844l.016.578A4.418,4.418,0,0,1,72.188-1.02,3.775,3.775,0,0,1,69.273.156a3.793,3.793,0,0,1-2.918-1.172A4.5,4.5,0,0,1,65.266-4.2Zm2.258.16A3.16,3.16,0,0,0,67.977-2.3a1.5,1.5,0,0,0,1.3.638,1.5,1.5,0,0,0,1.281-.63,3.457,3.457,0,0,0,.461-2.015,3.128,3.128,0,0,0-.461-1.831,1.5,1.5,0,0,0-1.3-.649,1.474,1.474,0,0,0-1.281.646A3.516,3.516,0,0,0,67.523-4.144Z" transform="translate(924.087 1126.806)" fill="#636363"/>
    <g id="Grupo_59087" data-name="Grupo 59087" transform="translate(-1746.518 619.918)">
      <path id="Trazado_106909" data-name="Trazado 106909" d="M2672.662,414.678h69.683a6.637,6.637,0,0,1,6.636,6.637v53.091h-82.955V421.315A6.637,6.637,0,0,1,2672.662,414.678Z" fill="#afafaf"/>
      <path id="Trazado_106910" data-name="Trazado 106910" d="M2675.98,421.315h63.047a3.318,3.318,0,0,1,3.318,3.318v46.455h-69.683V424.633A3.318,3.318,0,0,1,2675.98,421.315Z" fill="#885cbe"/>
      <path id="Trazado_106911-2" data-name="Trazado 106911" d="M2695.89,391.451h43.137a3.318,3.318,0,0,1,3.318,3.318v3.318H2695.89v-6.636Z" fill="#dadcde"/>
      <path id="Trazado_106912" data-name="Trazado 106912" d="M2739.027,391.451h-56.41a3.317,3.317,0,0,0-3.318,3.318v69.683h56.409V394.769A3.318,3.318,0,0,1,2739.027,391.451Z" fill="#e9eef2"/>
      <path id="Trazado_106913" data-name="Trazado 106913" d="M2689.253,401.4h16.591v13.273h-16.591Z" fill="#c3c6c7"/>
      <g id="Grupo_59086" data-name="Grupo 59086">
        <path id="Trazado_106914" data-name="Trazado 106914" d="M2695.89,422.974h-3.318a1.659,1.659,0,1,1,0-3.318h3.318a1.659,1.659,0,1,1,0,3.318Z" fill="#dadcde"/>
        <path id="Trazado_106915" data-name="Trazado 106915" d="M2725.754,422.974h-23.228a1.659,1.659,0,0,1,0-3.318h23.228a1.659,1.659,0,1,1,0,3.318Z" fill="#dadcde"/>
        <path id="Trazado_106916" data-name="Trazado 106916" d="M2702.526,429.61h-13.273a1.659,1.659,0,0,1,0-3.318h13.273a1.659,1.659,0,1,1,0,3.318Z" fill="#dadcde"/>
        <path id="Trazado_106917" data-name="Trazado 106917" d="M2702.526,436.247h-13.273a1.659,1.659,0,0,1,0-3.318h13.273a1.659,1.659,0,1,1,0,3.318Z" fill="#dadcde"/>
        <path id="Trazado_106918" data-name="Trazado 106918" d="M2725.754,442.883h-36.5a1.659,1.659,0,0,1,0-3.318h36.5a1.659,1.659,0,1,1,0,3.318Z" fill="#dadcde"/>
        <path id="Trazado_106919" data-name="Trazado 106919" d="M2692.572,449.52h-3.319a1.66,1.66,0,0,1,0-3.319h3.319a1.66,1.66,0,0,1,0,3.319Z" fill="#dadcde"/>
        <path id="Trazado_106920" data-name="Trazado 106920" d="M2725.754,449.52h-26.546a1.66,1.66,0,0,1,0-3.319h26.546a1.66,1.66,0,0,1,0,3.319Z" fill="#dadcde"/>
        <path id="Trazado_106921" data-name="Trazado 106921" d="M2709.163,456.156h-19.91a1.659,1.659,0,0,1,0-3.318h19.91a1.659,1.659,0,0,1,0,3.318Z" fill="#dadcde"/>
      </g>
      <path id="Trazado_106922" data-name="Trazado 106922" d="M2659.389,471.088h96.229a13.274,13.274,0,0,1-13.273,13.273h-69.683a13.274,13.274,0,0,1-13.273-13.273Z" fill="#afafaf"/>
      <path id="Trazado_106923" data-name="Trazado 106923" d="M2715.407,477.724H2699.6a3.318,3.318,0,0,1-2.968-1.834l-2.4-4.8h26.545l-2.4,4.8A3.318,3.318,0,0,1,2715.407,477.724Z" fill="#e8e8e8"/>
      <path id="Trazado_106924" data-name="Trazado 106924" d="M2709.163,427.951h16.591v6.637h-16.591Z" fill="#c3c6c7"/>
      <path id="Trazado_106925" data-name="Trazado 106925" d="M2725.754,403.065H2715.8a1.66,1.66,0,0,1,0-3.319h9.955a1.66,1.66,0,0,1,0,3.319Z" fill="#dadcde"/>
      <path id="Trazado_106926" data-name="Trazado 106926" d="M2725.754,409.7h-13.273a1.659,1.659,0,0,1,0-3.318h13.273a1.659,1.659,0,1,1,0,3.318Z" fill="#dadcde"/>
      <path id="Trazado_106927" data-name="Trazado 106927" d="M2725.754,416.337h-13.273a1.659,1.659,0,0,1,0-3.318h13.273a1.659,1.659,0,1,1,0,3.318Z" fill="#dadcde"/>
      <path id="Trazado_106928" data-name="Trazado 106928" d="M2753.858,414.578l-4.776-4.776a6.008,6.008,0,0,0-8.5,0l-23.953,23.953a13.266,13.266,0,0,0-3.42,5.893l-4.049,14.849,14.849-4.05a13.285,13.285,0,0,0,5.893-3.42l23.953-23.953a6.009,6.009,0,0,0,0-8.5Z" fill="#fbe9d8"/>
      <path id="Trazado_106929" data-name="Trazado 106929" d="M2719.59,451.652l-10.427,2.845,2.845-10.428Z" fill="#6a7073"/>
      <path id="Trazado_106930" data-name="Trazado 106930" d="M2748.981,427.951l-19.075,19.076-.005,0-13.272-13.273,0,0,19.075-19.076Z" fill="#f17781"/>
      <path id="Trazado_106931" data-name="Trazado 106931" d="M2720.765,437.908,2740.671,418l4.977,4.976-19.907,19.907Z" fill="#ed5a6c"/>
      <path id="Trazado_106932" data-name="Trazado 106932" d="M2749.082,409.8l4.776,4.776a6.007,6.007,0,0,1,0,8.5l-4.877,4.877-13.273-13.273,4.877-4.876a6.008,6.008,0,0,1,8.5,0Z" fill="#eb423f"/>
      <path id="Trazado_106933" data-name="Trazado 106933" d="M2735.7,414.685l3.318-3.318,13.271,13.271-3.318,3.318Z" fill="#ffd33a"/>
    </g>
    <ellipse id="Elipse_4069" data-name="Elipse 4069" cx="88.469" cy="88.47" rx="88.469" ry="88.47" transform="translate(550.563 993.227)" fill="url(#linear-gradient-2)"/>
    <path id="Trazado_106944" data-name="Trazado 106944" d="M992.777,912.668a88.467,88.467,0,0,1-124.959,124.959A88.467,88.467,0,1,0,992.777,912.668Z" transform="translate(-288.178 109.635)" fill="#ccc"/>
    <path id="Trazado_108364" data-name="Trazado 108364" d="M9.945-3.789A4.025,4.025,0,0,1,8.59-.9,4.76,4.76,0,0,1,5.367.156,4.28,4.28,0,0,1,1.926-1.316,6.038,6.038,0,0,1,.672-5.359v-.7A6.819,6.819,0,0,1,1.25-8.945,4.332,4.332,0,0,1,2.9-10.863a4.629,4.629,0,0,1,2.5-.668A4.637,4.637,0,0,1,8.57-10.477,4.326,4.326,0,0,1,9.961-7.516H7.617A2.376,2.376,0,0,0,7-9.113a2.271,2.271,0,0,0-1.605-.5,1.991,1.991,0,0,0-1.754.84,4.707,4.707,0,0,0-.6,2.605V-5.3a5.038,5.038,0,0,0,.559,2.7,1.954,1.954,0,0,0,1.762.852,2.314,2.314,0,0,0,1.621-.5A2.241,2.241,0,0,0,7.6-3.789ZM16.234,0a2.507,2.507,0,0,1-.227-.758,2.732,2.732,0,0,1-2.133.914,3,3,0,0,1-2.059-.719A2.312,2.312,0,0,1,11-2.375a2.389,2.389,0,0,1,1-2.062,4.915,4.915,0,0,1,2.879-.727h1.039v-.484a1.393,1.393,0,0,0-.3-.937,1.183,1.183,0,0,0-.949-.352,1.345,1.345,0,0,0-.895.273.929.929,0,0,0-.324.75H11.188a2.268,2.268,0,0,1,.453-1.359,3,3,0,0,1,1.281-.98,4.669,4.669,0,0,1,1.859-.355,3.689,3.689,0,0,1,2.48.785,2.747,2.747,0,0,1,.918,2.207v3.664a4.041,4.041,0,0,0,.336,1.82V0ZM14.367-1.57a1.945,1.945,0,0,0,.922-.223,1.462,1.462,0,0,0,.625-.6V-3.844H15.07q-1.7,0-1.8,1.172l-.008.133a.9.9,0,0,0,.3.7A1.153,1.153,0,0,0,14.367-1.57Zm10.3-4.766a6.134,6.134,0,0,0-.812-.062,1.654,1.654,0,0,0-1.68.867V0H19.914V-8.453h2.133l.063,1.008a2.092,2.092,0,0,1,1.883-1.164,2.366,2.366,0,0,1,.7.1ZM30.414,0a2.507,2.507,0,0,1-.227-.758,2.732,2.732,0,0,1-2.133.914A3,3,0,0,1,26-.562a2.312,2.312,0,0,1-.816-1.812,2.389,2.389,0,0,1,1-2.062,4.915,4.915,0,0,1,2.879-.727h1.039v-.484a1.393,1.393,0,0,0-.3-.937,1.183,1.183,0,0,0-.949-.352,1.345,1.345,0,0,0-.895.273.929.929,0,0,0-.324.75H25.367a2.268,2.268,0,0,1,.453-1.359,3,3,0,0,1,1.281-.98,4.669,4.669,0,0,1,1.859-.355,3.689,3.689,0,0,1,2.48.785,2.747,2.747,0,0,1,.918,2.207v3.664A4.041,4.041,0,0,0,32.7-.133V0ZM28.547-1.57a1.945,1.945,0,0,0,.922-.223,1.462,1.462,0,0,0,.625-.6V-3.844H29.25q-1.7,0-1.8,1.172l-.008.133a.9.9,0,0,0,.3.7A1.153,1.153,0,0,0,28.547-1.57Zm9.063-.094a1.481,1.481,0,0,0,1.016-.344,1.2,1.2,0,0,0,.406-.914h2.117a2.9,2.9,0,0,1-.469,1.574A3.093,3.093,0,0,1,39.418-.238a3.949,3.949,0,0,1-1.77.395A3.67,3.67,0,0,1,34.789-1,4.56,4.56,0,0,1,33.742-4.18v-.148a4.508,4.508,0,0,1,1.039-3.117,3.627,3.627,0,0,1,2.852-1.164,3.555,3.555,0,0,1,2.543.9,3.2,3.2,0,0,1,.973,2.4H39.031a1.551,1.551,0,0,0-.406-1.072,1.354,1.354,0,0,0-1.031-.412,1.36,1.36,0,0,0-1.191.575A3.333,3.333,0,0,0,36-4.348v.235a3.375,3.375,0,0,0,.4,1.878A1.377,1.377,0,0,0,37.609-1.664Zm7.531-8.867v2.078h1.445V-6.8H45.141v4.219a1.007,1.007,0,0,0,.18.672.9.9,0,0,0,.688.2,3.6,3.6,0,0,0,.664-.055V-.047a4.648,4.648,0,0,1-1.367.2,2.156,2.156,0,0,1-2.422-2.4V-6.8H41.648V-8.453h1.234v-2.078ZM51.734.156A4.15,4.15,0,0,1,48.707-.984a4.054,4.054,0,0,1-1.168-3.039v-.219a5.106,5.106,0,0,1,.492-2.277,3.612,3.612,0,0,1,1.395-1.547,3.914,3.914,0,0,1,2.059-.543,3.508,3.508,0,0,1,2.73,1.094,4.444,4.444,0,0,1,1,3.1v.922H49.828a2.1,2.1,0,0,0,.66,1.328,2,2,0,0,0,1.395.5,2.437,2.437,0,0,0,2.039-.945l1.109,1.242A3.389,3.389,0,0,1,53.656-.246,4.511,4.511,0,0,1,51.734.156Zm-.258-6.945a1.411,1.411,0,0,0-1.09.455,2.357,2.357,0,0,0-.535,1.3h3.141v-.181a1.681,1.681,0,0,0-.406-1.165A1.456,1.456,0,0,0,51.477-6.789Zm9.766.453A6.134,6.134,0,0,0,60.43-6.4a1.654,1.654,0,0,0-1.68.867V0H56.492V-8.453h2.133l.063,1.008A2.092,2.092,0,0,1,60.57-8.609a2.366,2.366,0,0,1,.7.1ZM64.766,0H62.508V-8.453h2.258ZM64.1-11.883h2.461L64.4-9.461H62.563Zm7.188,9.547a.727.727,0,0,0-.41-.652,4.659,4.659,0,0,0-1.316-.426q-3.016-.633-3.016-2.562a2.323,2.323,0,0,1,.934-1.879,3.766,3.766,0,0,1,2.441-.754,4.053,4.053,0,0,1,2.574.758,2.388,2.388,0,0,1,.965,1.969H71.2a1.092,1.092,0,0,0-.312-.8A1.322,1.322,0,0,0,69.914-7a1.351,1.351,0,0,0-.883.258.814.814,0,0,0-.312.656.7.7,0,0,0,.355.605,3.657,3.657,0,0,0,1.2.4A9.8,9.8,0,0,1,71.7-4.7,2.336,2.336,0,0,1,73.484-2.43a2.2,2.2,0,0,1-.992,1.871A4.28,4.28,0,0,1,69.93.156a4.47,4.47,0,0,1-1.887-.379A3.166,3.166,0,0,1,66.75-1.262a2.414,2.414,0,0,1-.469-1.426h2.141a1.179,1.179,0,0,0,.445.922,1.766,1.766,0,0,0,1.109.32,1.635,1.635,0,0,0,.98-.246A.766.766,0,0,0,71.289-2.336Zm6.352-8.2v2.078h1.445V-6.8H77.641v4.219a1.007,1.007,0,0,0,.18.672.9.9,0,0,0,.688.2,3.6,3.6,0,0,0,.664-.055V-.047a4.648,4.648,0,0,1-1.367.2,2.156,2.156,0,0,1-2.422-2.4V-6.8H74.148V-8.453h1.234v-2.078ZM82.727,0H80.461V-8.453h2.266Zm-2.4-10.641a1.112,1.112,0,0,1,.34-.836,1.277,1.277,0,0,1,.926-.328,1.28,1.28,0,0,1,.922.328,1.105,1.105,0,0,1,.344.836,1.108,1.108,0,0,1-.348.844,1.283,1.283,0,0,1-.918.328,1.283,1.283,0,0,1-.918-.328A1.108,1.108,0,0,1,80.328-10.641ZM88.1-1.664a1.481,1.481,0,0,0,1.016-.344,1.2,1.2,0,0,0,.406-.914h2.117a2.9,2.9,0,0,1-.469,1.574A3.093,3.093,0,0,1,89.91-.238a3.949,3.949,0,0,1-1.77.395A3.67,3.67,0,0,1,85.281-1,4.56,4.56,0,0,1,84.234-4.18v-.148a4.508,4.508,0,0,1,1.039-3.117,3.627,3.627,0,0,1,2.852-1.164,3.555,3.555,0,0,1,2.543.9,3.2,3.2,0,0,1,.973,2.4H89.523a1.551,1.551,0,0,0-.406-1.072,1.354,1.354,0,0,0-1.031-.412,1.36,1.36,0,0,0-1.191.575,3.333,3.333,0,0,0-.4,1.866v.235a3.375,3.375,0,0,0,.4,1.878A1.377,1.377,0,0,0,88.1-1.664ZM97.828,0A2.507,2.507,0,0,1,97.6-.758a2.732,2.732,0,0,1-2.133.914A3,3,0,0,1,93.41-.562a2.312,2.312,0,0,1-.816-1.812,2.389,2.389,0,0,1,1-2.062,4.915,4.915,0,0,1,2.879-.727h1.039v-.484a1.393,1.393,0,0,0-.3-.937,1.183,1.183,0,0,0-.949-.352,1.345,1.345,0,0,0-.895.273.929.929,0,0,0-.324.75H92.781a2.268,2.268,0,0,1,.453-1.359,3,3,0,0,1,1.281-.98,4.669,4.669,0,0,1,1.859-.355,3.689,3.689,0,0,1,2.48.785,2.747,2.747,0,0,1,.918,2.207v3.664a4.041,4.041,0,0,0,.336,1.82V0ZM95.961-1.57a1.945,1.945,0,0,0,.922-.223,1.462,1.462,0,0,0,.625-.6V-3.844h-.844q-1.7,0-1.8,1.172l-.008.133a.9.9,0,0,0,.3.7A1.153,1.153,0,0,0,95.961-1.57Zm10.125-.766a.727.727,0,0,0-.41-.652,4.659,4.659,0,0,0-1.316-.426q-3.016-.633-3.016-2.562a2.323,2.323,0,0,1,.934-1.879,3.766,3.766,0,0,1,2.441-.754,4.053,4.053,0,0,1,2.574.758,2.388,2.388,0,0,1,.965,1.969H106a1.092,1.092,0,0,0-.312-.8A1.322,1.322,0,0,0,104.711-7a1.351,1.351,0,0,0-.883.258.814.814,0,0,0-.312.656.7.7,0,0,0,.355.605,3.657,3.657,0,0,0,1.2.4,9.8,9.8,0,0,1,1.422.379,2.336,2.336,0,0,1,1.789,2.273,2.2,2.2,0,0,1-.992,1.871,4.28,4.28,0,0,1-2.562.715,4.47,4.47,0,0,1-1.887-.379,3.166,3.166,0,0,1-1.293-1.039,2.414,2.414,0,0,1-.469-1.426h2.141a1.179,1.179,0,0,0,.445.922,1.766,1.766,0,0,0,1.109.32,1.635,1.635,0,0,0,.98-.246A.766.766,0,0,0,106.086-2.336Z" transform="translate(583.399 1126.806)" fill="#636363"/>
    <g id="Grupo_59088" data-name="Grupo 59088" transform="translate(-1746.518 619.918)">
      <path id="Trazado_106934" data-name="Trazado 106934" d="M2352.347,414.678h69.683a6.637,6.637,0,0,1,6.636,6.637v53.091h-82.955V421.315A6.637,6.637,0,0,1,2352.347,414.678Z" fill="#afafaf"/>
      <path id="Trazado_106935" data-name="Trazado 106935" d="M2355.666,421.315h63.046a3.318,3.318,0,0,1,3.318,3.318v46.455h-69.683V424.633A3.318,3.318,0,0,1,2355.666,421.315Z" fill="#6e33b5"/>
      <path id="Trazado_106936" data-name="Trazado 106936" d="M2375.575,391.451h43.137a3.318,3.318,0,0,1,3.318,3.318v3.318h-46.455v-6.636Z" fill="#dadcde"/>
      <path id="Trazado_106937" data-name="Trazado 106937" d="M2418.712,391.451H2362.3a3.317,3.317,0,0,0-3.318,3.318v69.683h56.409V394.769A3.318,3.318,0,0,1,2418.712,391.451Z" fill="#e9eef2"/>
      <path id="Trazado_106938" data-name="Trazado 106938" d="M2339.074,471.088H2435.3a13.274,13.274,0,0,1-13.273,13.273h-69.683a13.274,13.274,0,0,1-13.273-13.273Z" fill="#afafaf"/>
      <path id="Trazado_106939" data-name="Trazado 106939" d="M2395.092,477.724h-15.807a3.318,3.318,0,0,1-2.968-1.834l-2.4-4.8h26.545l-2.4,4.8A3.318,3.318,0,0,1,2395.092,477.724Z" fill="#e8e8e8"/>
    </g>
    <g id="Grupo_59089" data-name="Grupo 59089" transform="translate(-1747.518 620.918)">
      <path id="Trazado_106940" data-name="Trazado 106940" d="M2410.392,428.212c0,.529-.018,1.055-.055,1.575a22.52,22.52,0,0,1-6,13.83l-.013.013q-.27.291-.552.573a22.615,22.615,0,0,1-31.593.379l-.768-.768a22.617,22.617,0,0,1-.186-31.008l.012-.013c.181-.194.366-.385.553-.572a22.615,22.615,0,0,1,38.606,15.991Z" fill="#bb83ff"/>
      <path id="Trazado_106941" data-name="Trazado 106941" d="M2410.337,429.787a22.52,22.52,0,0,1-6,13.83l-.013.013q-.27.291-.552.573a22.615,22.615,0,0,1-31.593.379c-.135-.128-.268-.259-.4-.39l26.363-26.363.121-.12Z" fill="#31d9e7"/>
      <path id="Trazado_106942" data-name="Trazado 106942" d="M2386.839,442.983a5.473,5.473,0,0,1-9.451-4.395l-5.607,5.6-.005,0q-.186-.186-.369-.378a22.617,22.617,0,0,1-.186-31.008l.012-.013.558-.556,5.5,5.5a5.475,5.475,0,1,0,4.979,4.985l5.485,5.493.011.01-5.617,5.61a5.473,5.473,0,0,1,4.694,9.146Z" fill="#f17781"/>
      <path id="Trazado_106943" data-name="Trazado 106943" d="M2410.392,428.212c0,.529-.018,1.055-.055,1.575a22.52,22.52,0,0,1-6,13.83l-.013.013-.588.588-5.5-5.5a5.474,5.474,0,1,0-4.979-4.985l-5.5-5.5,5.617-5.61-.031,0a5.476,5.476,0,1,1,4.791-4.792c0,.012,0,.025,0,.037l.14-.14,5.476-5.469.914.915A22.528,22.528,0,0,1,2410.392,428.212Z" fill="#f9e478"/>
    </g>
  </g>
</svg>
