<svg xmlns="http://www.w3.org/2000/svg" xmlns:xlink="http://www.w3.org/1999/xlink" width="294.5" height="115.367" viewBox="0 0 294.5 115.367"><defs><linearGradient id="a" x1="0.603" y1="65.312" x2="0.603" y2="64.31" gradientUnits="objectBoundingBox"><stop offset="0" stop-color="#96d1f3"/><stop offset="1" stop-color="#ccfff4"/></linearGradient><linearGradient id="b" x1="0.568" y1="48.414" x2="0.568" y2="47.412" gradientUnits="objectBoundingBox"><stop offset="0" stop-color="#a8abff"/><stop offset="1" stop-color="#fac8ff"/></linearGradient></defs><g transform="translate(-10115.647 8924.239)"><rect width="294.5" height="96.969" transform="translate(10115.647 -8905.842)" fill="#fce6e8"/><path d="M10.063,17H8.555L2.828,8.234V17H1.32V5.625H2.828l5.742,8.8v-8.8h1.492Zm2.055-4.3a4.993,4.993,0,0,1,.488-2.234A3.643,3.643,0,0,1,13.965,8.93a3.7,3.7,0,0,1,1.988-.539,3.565,3.565,0,0,1,2.793,1.2,4.6,4.6,0,0,1,1.066,3.18v.1a5.036,5.036,0,0,1-.473,2.215,3.589,3.589,0,0,1-1.352,1.527,3.743,3.743,0,0,1-2.02.547,3.556,3.556,0,0,1-2.785-1.2A4.575,4.575,0,0,1,12.117,12.8Zm1.453.172a3.616,3.616,0,0,0,.652,2.258,2.211,2.211,0,0,0,3.5-.012,3.955,3.955,0,0,0,.648-2.418,3.61,3.61,0,0,0-.66-2.254,2.1,2.1,0,0,0-1.754-.863,2.075,2.075,0,0,0-1.727.852A3.925,3.925,0,0,0,13.57,12.867ZM25.711,9.844A4.331,4.331,0,0,0,25,9.789,1.9,1.9,0,0,0,23.07,11v6H21.625V8.547h1.406l.023.977A2.251,2.251,0,0,1,25.07,8.391a1.477,1.477,0,0,1,.641.109Zm2.688-1.3.039.938a3.122,3.122,0,0,1,2.508-1.094A2.417,2.417,0,0,1,33.359,9.75a3.2,3.2,0,0,1,1.1-.984,3.242,3.242,0,0,1,1.6-.375q2.781,0,2.828,2.945V17H37.438V11.422a1.941,1.941,0,0,0-.414-1.355,1.823,1.823,0,0,0-1.391-.449,1.917,1.917,0,0,0-1.336.48,1.949,1.949,0,0,0-.617,1.293V17H32.227V11.461a1.613,1.613,0,0,0-1.8-1.844,1.934,1.934,0,0,0-1.945,1.211V17H27.031V8.547ZM46.281,17a3.036,3.036,0,0,1-.2-.891,3.225,3.225,0,0,1-2.406,1.047,2.984,2.984,0,0,1-2.051-.707,2.287,2.287,0,0,1-.8-1.793,2.39,2.39,0,0,1,1-2.051,4.733,4.733,0,0,1,2.824-.73h1.406v-.664A1.623,1.623,0,0,0,45.6,10a1.821,1.821,0,0,0-1.336-.449,2.107,2.107,0,0,0-1.3.391,1.151,1.151,0,0,0-.523.945H40.992a2,2,0,0,1,.449-1.223,3.066,3.066,0,0,1,1.219-.934,4.1,4.1,0,0,1,1.691-.344,3.342,3.342,0,0,1,2.289.73,2.635,2.635,0,0,1,.859,2.012v3.891a4.757,4.757,0,0,0,.3,1.852V17Zm-2.4-1.1a2.54,2.54,0,0,0,1.289-.352,2.127,2.127,0,0,0,.883-.914V12.9H44.922q-2.656,0-2.656,1.555a1.316,1.316,0,0,0,.453,1.063A1.742,1.742,0,0,0,43.883,15.9Zm10.8-1.141a1.064,1.064,0,0,0-.441-.91,4.249,4.249,0,0,0-1.539-.559,7.277,7.277,0,0,1-1.742-.562,2.479,2.479,0,0,1-.953-.781,1.869,1.869,0,0,1-.309-1.078,2.193,2.193,0,0,1,.879-1.758,3.432,3.432,0,0,1,2.246-.719,3.532,3.532,0,0,1,2.332.742,2.357,2.357,0,0,1,.895,1.9H54.6a1.3,1.3,0,0,0-.5-1.023,1.888,1.888,0,0,0-1.27-.43,1.976,1.976,0,0,0-1.234.344,1.082,1.082,0,0,0-.445.9.877.877,0,0,0,.414.789,5.1,5.1,0,0,0,1.5.508,7.8,7.8,0,0,1,1.754.578,2.558,2.558,0,0,1,1,.809,1.988,1.988,0,0,1,.324,1.152,2.163,2.163,0,0,1-.906,1.816,3.8,3.8,0,0,1-2.352.684,4.257,4.257,0,0,1-1.8-.359,2.922,2.922,0,0,1-1.223-1,2.42,2.42,0,0,1-.441-1.395h1.445a1.5,1.5,0,0,0,.582,1.152,2.258,2.258,0,0,0,1.434.426,2.331,2.331,0,0,0,1.316-.332A1.02,1.02,0,0,0,54.688,14.758ZM61.625,12.7a4.952,4.952,0,0,1,.922-3.129,3.137,3.137,0,0,1,4.766-.168V5h1.445V17H67.43l-.07-.906a2.943,2.943,0,0,1-2.414,1.063,2.887,2.887,0,0,1-2.395-1.2,5.008,5.008,0,0,1-.926-3.141Zm1.445.164a3.749,3.749,0,0,0,.594,2.25,1.92,1.92,0,0,0,1.641.813A2.108,2.108,0,0,0,67.313,14.7V10.813a2.125,2.125,0,0,0-1.992-1.2,1.929,1.929,0,0,0-1.656.82A4.128,4.128,0,0,0,63.07,12.867Zm11.438,4.289a3.693,3.693,0,0,1-2.8-1.129,4.19,4.19,0,0,1-1.078-3.02v-.266a5.073,5.073,0,0,1,.48-2.246,3.748,3.748,0,0,1,1.344-1.547,3.378,3.378,0,0,1,1.871-.559,3.166,3.166,0,0,1,2.563,1.086,4.7,4.7,0,0,1,.914,3.109v.6H72.078a3,3,0,0,0,.73,2.02,2.3,2.3,0,0,0,1.777.77,2.517,2.517,0,0,0,1.3-.312,3.259,3.259,0,0,0,.93-.828l.883.688A3.55,3.55,0,0,1,74.508,17.156Zm-.18-7.578a1.928,1.928,0,0,0-1.469.637A3.1,3.1,0,0,0,72.125,12h4.234v-.109a2.753,2.753,0,0,0-.594-1.707A1.815,1.815,0,0,0,74.328,9.578ZM2.664,36.2H1.219V27.747H2.664ZM1.1,25.5a.863.863,0,0,1,.215-.594.807.807,0,0,1,.637-.242.819.819,0,0,1,.641.242.854.854,0,0,1,.219.594.826.826,0,0,1-.219.586.834.834,0,0,1-.641.234.821.821,0,0,1-.637-.234A.834.834,0,0,1,1.1,25.5Zm5.242,2.242.047,1.063a3.08,3.08,0,0,1,2.531-1.219q2.68,0,2.7,3.023V36.2H10.18V30.606a1.946,1.946,0,0,0-.418-1.352,1.675,1.675,0,0,0-1.277-.437,2.086,2.086,0,0,0-1.234.375,2.546,2.546,0,0,0-.828.984V36.2H4.977V27.747ZM15.766,25.7v2.047h1.578v1.117H15.766v5.249a1.173,1.173,0,0,0,.211.763.888.888,0,0,0,.719.254,3.5,3.5,0,0,0,.688-.094V36.2a4.215,4.215,0,0,1-1.109.155,1.8,1.8,0,0,1-1.461-.586,2.517,2.517,0,0,1-.492-1.664V28.864H12.781V27.747H14.32V25.7Zm6.773,10.656a3.693,3.693,0,0,1-2.8-1.129,4.19,4.19,0,0,1-1.078-3.02v-.266a5.073,5.073,0,0,1,.48-2.246,3.748,3.748,0,0,1,1.344-1.547,3.378,3.378,0,0,1,1.871-.559,3.166,3.166,0,0,1,2.563,1.086,4.7,4.7,0,0,1,.914,3.109v.6H20.109a3,3,0,0,0,.73,2.02,2.3,2.3,0,0,0,1.777.77,2.517,2.517,0,0,0,1.3-.312,3.259,3.259,0,0,0,.93-.828l.883.688A3.55,3.55,0,0,1,22.539,36.356Zm-.18-7.578a1.928,1.928,0,0,0-1.469.637,3.1,3.1,0,0,0-.734,1.785h4.234v-.109a2.753,2.753,0,0,0-.594-1.707A1.815,1.815,0,0,0,22.359,28.778Zm9.234.266a4.331,4.331,0,0,0-.711-.055,1.9,1.9,0,0,0-1.93,1.211v6H27.508V27.747h1.406l.023.977a2.251,2.251,0,0,1,2.016-1.133,1.477,1.477,0,0,1,.641.109ZM37.828,36.2a3.036,3.036,0,0,1-.2-.891,3.225,3.225,0,0,1-2.406,1.047,2.984,2.984,0,0,1-2.051-.707,2.287,2.287,0,0,1-.8-1.793,2.39,2.39,0,0,1,1-2.051,4.733,4.733,0,0,1,2.824-.73H37.6v-.664a1.623,1.623,0,0,0-.453-1.207,1.821,1.821,0,0,0-1.336-.449,2.107,2.107,0,0,0-1.3.391,1.151,1.151,0,0,0-.523.945H32.539a2,2,0,0,1,.449-1.223,3.066,3.066,0,0,1,1.219-.934,4.1,4.1,0,0,1,1.691-.344,3.342,3.342,0,0,1,2.289.73,2.635,2.635,0,0,1,.859,2.012v3.891a4.757,4.757,0,0,0,.3,1.852V36.2Zm-2.4-1.1a2.54,2.54,0,0,0,1.289-.352,2.127,2.127,0,0,0,.883-.914V32.1H36.469q-2.656,0-2.656,1.555a1.316,1.316,0,0,0,.453,1.063A1.742,1.742,0,0,0,35.43,35.1Zm9.273.078a2.082,2.082,0,0,0,1.352-.469,1.649,1.649,0,0,0,.641-1.172h1.367a2.621,2.621,0,0,1-.5,1.383,3.293,3.293,0,0,1-1.23,1.047,3.55,3.55,0,0,1-1.629.391A3.482,3.482,0,0,1,41.957,35.2a4.59,4.59,0,0,1-1.02-3.152v-.242a5.089,5.089,0,0,1,.453-2.2,3.451,3.451,0,0,1,1.3-1.492,3.7,3.7,0,0,1,2-.531,3.39,3.39,0,0,1,2.363.852,3.043,3.043,0,0,1,1,2.211H46.7a1.992,1.992,0,0,0-.621-1.348,1.932,1.932,0,0,0-1.379-.527,2.023,2.023,0,0,0-1.707.793,3.724,3.724,0,0,0-.605,2.293v.273a3.65,3.65,0,0,0,.6,2.25A2.033,2.033,0,0,0,44.7,35.177Zm8.375,0a2.082,2.082,0,0,0,1.352-.469,1.649,1.649,0,0,0,.641-1.172h1.367a2.621,2.621,0,0,1-.5,1.383,3.293,3.293,0,0,1-1.23,1.047,3.55,3.55,0,0,1-1.629.391A3.482,3.482,0,0,1,50.332,35.2a4.59,4.59,0,0,1-1.02-3.152v-.242a5.089,5.089,0,0,1,.453-2.2,3.451,3.451,0,0,1,1.3-1.492,3.7,3.7,0,0,1,2-.531,3.39,3.39,0,0,1,2.363.852,3.043,3.043,0,0,1,1,2.211H55.07a1.992,1.992,0,0,0-.621-1.348,1.932,1.932,0,0,0-1.379-.527,2.023,2.023,0,0,0-1.707.793,3.724,3.724,0,0,0-.605,2.293v.273a3.65,3.65,0,0,0,.6,2.25A2.033,2.033,0,0,0,53.078,35.177ZM59.633,36.2H58.188V27.747h1.445ZM58.07,25.5a.863.863,0,0,1,.215-.594.807.807,0,0,1,.637-.242.819.819,0,0,1,.641.242.854.854,0,0,1,.219.594.826.826,0,0,1-.219.586.834.834,0,0,1-.641.234.821.821,0,0,1-.637-.234A.834.834,0,0,1,58.07,25.5ZM61.563,31.9a4.993,4.993,0,0,1,.488-2.234A3.643,3.643,0,0,1,63.41,28.13a3.7,3.7,0,0,1,1.988-.539,3.565,3.565,0,0,1,2.793,1.2,4.6,4.6,0,0,1,1.066,3.18v.1a5.036,5.036,0,0,1-.473,2.215,3.589,3.589,0,0,1-1.352,1.527,3.743,3.743,0,0,1-2.02.547,3.556,3.556,0,0,1-2.785-1.2A4.575,4.575,0,0,1,61.563,32Zm1.453.172a3.616,3.616,0,0,0,.652,2.258,2.211,2.211,0,0,0,3.5-.012,3.955,3.955,0,0,0,.648-2.418,3.61,3.61,0,0,0-.66-2.254,2.1,2.1,0,0,0-1.754-.863,2.075,2.075,0,0,0-1.727.852A3.925,3.925,0,0,0,63.016,32.067ZM66.055,24.2H67.8l-2.094,2.3-1.164,0Zm6.383,3.547.047,1.063a3.08,3.08,0,0,1,2.531-1.219q2.68,0,2.7,3.023V36.2H76.273V30.606a1.946,1.946,0,0,0-.418-1.352,1.675,1.675,0,0,0-1.277-.437,2.086,2.086,0,0,0-1.234.375,2.546,2.546,0,0,0-.828.984V36.2H71.07V27.747Zm14.188,6.336,1.969-6.336h1.547l-3.4,9.758q-.789,2.109-2.508,2.109l-.273-.023-.539-.1V38.317l.391.031a1.923,1.923,0,0,0,1.145-.3,2.149,2.149,0,0,0,.676-1.086l.32-.859-3.016-8.359h1.578ZM4.484,54.377a2.082,2.082,0,0,0,1.352-.469,1.649,1.649,0,0,0,.641-1.172H7.844a2.621,2.621,0,0,1-.5,1.383,3.293,3.293,0,0,1-1.23,1.047,3.55,3.55,0,0,1-1.629.391A3.482,3.482,0,0,1,1.738,54.4a4.59,4.59,0,0,1-1.02-3.152v-.242a5.089,5.089,0,0,1,.453-2.2,3.451,3.451,0,0,1,1.3-1.492,3.7,3.7,0,0,1,2-.531,3.39,3.39,0,0,1,2.363.852,3.043,3.043,0,0,1,1,2.211H6.477a1.992,1.992,0,0,0-.621-1.348,1.932,1.932,0,0,0-1.379-.527,2.023,2.023,0,0,0-1.707.793,3.724,3.724,0,0,0-.605,2.293v.273a3.65,3.65,0,0,0,.6,2.25A2.033,2.033,0,0,0,4.484,54.377Zm4.6-3.281a4.993,4.993,0,0,1,.488-2.234,3.643,3.643,0,0,1,1.359-1.531,3.7,3.7,0,0,1,1.988-.539,3.565,3.565,0,0,1,2.793,1.2,4.6,4.6,0,0,1,1.066,3.18v.1a5.036,5.036,0,0,1-.473,2.215,3.589,3.589,0,0,1-1.352,1.527,3.743,3.743,0,0,1-2.02.547,3.556,3.556,0,0,1-2.785-1.2A4.575,4.575,0,0,1,9.086,51.2Zm1.453.172a3.616,3.616,0,0,0,.652,2.258,2.211,2.211,0,0,0,3.5-.012,3.955,3.955,0,0,0,.648-2.418,3.61,3.61,0,0,0-.66-2.254,2.1,2.1,0,0,0-1.754-.863,2.075,2.075,0,0,0-1.727.852A3.925,3.925,0,0,0,10.539,51.267Zm9.422-4.32.047,1.063a3.08,3.08,0,0,1,2.531-1.219q2.68,0,2.7,3.023V55.4H23.8V49.806a1.946,1.946,0,0,0-.418-1.352,1.675,1.675,0,0,0-1.277-.437,2.086,2.086,0,0,0-1.234.375,2.546,2.546,0,0,0-.828.984V55.4H18.594V46.947Zm10.25,6.492L32.3,46.947h1.477L30.75,55.4h-1.1l-3.062-8.453h1.477ZM36.742,55.4H35.3V46.947h1.445ZM35.18,44.7a.863.863,0,0,1,.215-.594.807.807,0,0,1,.637-.242.819.819,0,0,1,.641.242.854.854,0,0,1,.219.594.826.826,0,0,1-.219.586.834.834,0,0,1-.641.234.821.821,0,0,1-.637-.234A.834.834,0,0,1,35.18,44.7Zm6.664,8.734,2.094-6.492h1.477L42.383,55.4h-1.1l-3.062-8.453H39.7Zm8.469,2.117a3.693,3.693,0,0,1-2.8-1.129,4.19,4.19,0,0,1-1.078-3.02v-.266a5.073,5.073,0,0,1,.48-2.246,3.748,3.748,0,0,1,1.344-1.547,3.378,3.378,0,0,1,1.871-.559A3.166,3.166,0,0,1,52.7,47.877a4.7,4.7,0,0,1,.914,3.109v.6H47.883a3,3,0,0,0,.73,2.02,2.3,2.3,0,0,0,1.777.77,2.517,2.517,0,0,0,1.3-.312,3.258,3.258,0,0,0,.93-.828l.883.688A3.55,3.55,0,0,1,50.313,55.556Zm-.18-7.578a1.928,1.928,0,0,0-1.469.637A3.1,3.1,0,0,0,47.93,50.4h4.234v-.109a2.753,2.753,0,0,0-.594-1.707A1.815,1.815,0,0,0,50.133,47.978Zm6.516-1.031.047,1.063a3.08,3.08,0,0,1,2.531-1.219q2.68,0,2.7,3.023V55.4H60.484V49.806a1.946,1.946,0,0,0-.418-1.352,1.675,1.675,0,0,0-1.277-.437,2.086,2.086,0,0,0-1.234.375,2.546,2.546,0,0,0-.828.984V55.4H55.281V46.947ZM67.5,54.377a2.082,2.082,0,0,0,1.352-.469,1.649,1.649,0,0,0,.641-1.172h1.367a2.621,2.621,0,0,1-.5,1.383,3.293,3.293,0,0,1-1.23,1.047,3.55,3.55,0,0,1-1.629.391A3.482,3.482,0,0,1,64.754,54.4a4.59,4.59,0,0,1-1.02-3.152v-.242a5.089,5.089,0,0,1,.453-2.2,3.451,3.451,0,0,1,1.3-1.492,3.7,3.7,0,0,1,2-.531,3.39,3.39,0,0,1,2.363.852,3.043,3.043,0,0,1,1,2.211H69.492a1.992,1.992,0,0,0-.621-1.348,1.932,1.932,0,0,0-1.379-.527,2.023,2.023,0,0,0-1.707.793,3.724,3.724,0,0,0-.605,2.293v.273a3.65,3.65,0,0,0,.6,2.25A2.033,2.033,0,0,0,67.5,54.377ZM74.055,55.4H72.609V46.947h1.445ZM72.492,44.7a.863.863,0,0,1,.215-.594.807.807,0,0,1,.637-.242.819.819,0,0,1,.641.242.854.854,0,0,1,.219.594.826.826,0,0,1-.219.586.834.834,0,0,1-.641.234.821.821,0,0,1-.637-.234A.834.834,0,0,1,72.492,44.7Zm9.094,10.7a3.036,3.036,0,0,1-.2-.891,3.225,3.225,0,0,1-2.406,1.047,2.984,2.984,0,0,1-2.051-.707,2.288,2.288,0,0,1-.8-1.793,2.39,2.39,0,0,1,1-2.051,4.733,4.733,0,0,1,2.824-.73h1.406v-.664a1.623,1.623,0,0,0-.453-1.207,1.821,1.821,0,0,0-1.336-.449,2.107,2.107,0,0,0-1.3.391,1.151,1.151,0,0,0-.523.945H76.3a2,2,0,0,1,.449-1.223,3.066,3.066,0,0,1,1.219-.934,4.1,4.1,0,0,1,1.691-.344,3.342,3.342,0,0,1,2.289.73,2.635,2.635,0,0,1,.859,2.012v3.891a4.757,4.757,0,0,0,.3,1.852V55.4Zm-2.4-1.1a2.54,2.54,0,0,0,1.289-.352,2.127,2.127,0,0,0,.883-.914V51.3H80.227q-2.656,0-2.656,1.555a1.316,1.316,0,0,0,.453,1.063A1.742,1.742,0,0,0,79.188,54.3Zm5.914.344a.905.905,0,0,1,.223-.625.848.848,0,0,1,.668-.25.874.874,0,0,1,.676.25.887.887,0,0,1,.23.625.839.839,0,0,1-.23.6.89.89,0,0,1-.676.242.8.8,0,0,1-.891-.844Z" transform="translate(10235.671 -8893.511)"/><g transform="translate(7404.874 -9967.699)"><circle cx="26.352" cy="26.352" r="26.352" transform="translate(2745.333 1057.595)" fill="url(#a)"/><path d="M2811.293,1060.31v3.513h-15.971v-3.513a7.987,7.987,0,0,1,5-7.408,3.99,3.99,0,0,0,5.964,0A7.987,7.987,0,0,1,2811.293,1060.31Zm-68.087-7.409h0a3.99,3.99,0,0,1-5.966,0h0a7.987,7.987,0,0,0-5,7.409v3.513h15.971v-3.513A7.988,7.988,0,0,0,2743.206,1052.9Zm63.085,60.37h0a3.99,3.99,0,0,1-5.966,0h0a7.989,7.989,0,0,0-5,7.409v3.514h15.971v-3.514a7.989,7.989,0,0,0-5-7.409Zm-63.085,0h0a3.99,3.99,0,0,1-5.966,0h0a7.988,7.988,0,0,0-5,7.409v3.514h15.971v-3.514A7.989,7.989,0,0,0,2743.206,1113.271Z" fill="url(#b)"/><path d="M2808.019,1052.424a5.16,5.16,0,0,0,.479-2.176v-1.6a5.191,5.191,0,1,0-10.381,0c.064,1.145-.212,2.28.48,3.773-6.053,3.6-4.118,10.33-4.473,12.6h18.367C2812.133,1062.734,2814.073,1056.024,2808.019,1052.424Zm-7.506-3.773a2.8,2.8,0,1,1,5.59,0v1.6a2.8,2.8,0,0,1-5.59,0Zm9.582,13.975H2796.52c.164-.845-.984-5.863,3.581-8.3a5.172,5.172,0,0,0,6.413,0c4.545,2.427,3.432,7.529,3.581,8.3Zm-65.162-10.2c.7-1.5.416-2.63.48-3.773a5.191,5.191,0,1,0-10.381,0c.063,1.145-.213,2.28.479,3.773-6.052,3.6-4.117,10.33-4.472,12.6h18.367C2749.047,1062.734,2750.988,1056.024,2744.933,1052.424Zm-7.506-3.773a2.8,2.8,0,1,1,5.59,0v1.6a2.8,2.8,0,0,1-5.59,0Zm9.583,13.975h-13.575c.164-.845-.985-5.863,3.581-8.3a5.171,5.171,0,0,0,6.413,0C2747.974,1056.752,2746.86,1061.854,2747.01,1062.626Zm61.009,50.168c.7-1.5.416-2.629.479-3.773a5.191,5.191,0,0,0-10.381,0v1.6a5.161,5.161,0,0,0,.48,2.176c-6.053,3.6-4.118,10.331-4.473,12.6h18.367C2812.133,1123.1,2814.073,1116.4,2808.019,1112.794Zm-7.506-3.773a2.8,2.8,0,1,1,5.59,0v1.6a2.8,2.8,0,0,1-5.59,0Zm9.582,13.975H2796.52c.164-.845-.984-5.863,3.581-8.3a5.174,5.174,0,0,0,6.413,0c4.545,2.426,3.432,7.528,3.581,8.3Zm-65.162-10.2a5.161,5.161,0,0,0,.48-2.176v-1.6a5.191,5.191,0,0,0-10.381,0v1.6a5.16,5.16,0,0,0,.479,2.176,9.142,9.142,0,0,0-4.472,7.886v4.712h18.367C2749.047,1123.1,2750.988,1116.4,2744.933,1112.794Zm-7.506-3.773a2.8,2.8,0,1,1,5.59,0v1.6a2.8,2.8,0,0,1-5.59,0ZM2747.01,1123h-13.575v-2.316a6.755,6.755,0,0,1,3.581-5.984,5.174,5.174,0,0,0,6.413,0C2747.974,1117.122,2746.86,1122.224,2747.01,1123Zm61.811-54.824c.32.753.622,1.528.9,2.3l-2.259.8c-.257-.727-.54-1.454-.841-2.162Zm-2.98,32.32a38.044,38.044,0,0,0,3.318-22.475l2.367-.369a40.431,40.431,0,0,1-3.53,23.89Zm2.89-24.757c-.166-.755-.357-1.512-.568-2.251l2.3-.658c.224.787.428,1.593.6,2.395Zm-71.967-6.651a38.23,38.23,0,0,0-2.223,22.612l-2.347.484a40.623,40.623,0,0,1,2.366-24.035Zm-3.276,27.86c-.263-.775-.505-1.57-.72-2.362l2.312-.628c.2.745.43,1.492.677,2.22Zm1.872,4.568c-.357-.738-.7-1.5-1.007-2.255l2.217-.909c.292.713.61,1.426.946,2.119Zm18.838-51.247-1.107-2.125c.728-.379,1.477-.74,2.225-1.072l.972,2.19C2755.585,1049.57,2754.882,1049.909,2754.2,1050.265Zm4.24-1.883-.835-2.246a40.425,40.425,0,0,1,36.937,4.572l-1.361,1.971a38.027,38.027,0,0,0-34.741-4.3Zm-8.152,4.232-1.355-1.975c.654-.449,1.329-.883,2.007-1.292l1.235,2.053C2751.536,1051.784,2750.9,1052.192,2750.286,1052.614Zm30.953,68.058.6,2.32a40.556,40.556,0,0,1-29.656-3.727l1.161-2.095a38.154,38.154,0,0,0,27.9,3.5Zm4.412-1.436.881,2.228c-.763.3-1.544.583-2.323.836l-.742-2.278C2784.2,1119.784,2784.934,1119.52,2785.651,1119.236Zm4.2-1.97,1.15,2.1c-.719.393-1.459.769-2.2,1.118l-1.017-2.169C2788.479,1117.989,2789.176,1117.635,2789.851,1117.266Zm-18.166-60.869a27.55,27.55,0,1,0,27.55,27.55A27.581,27.581,0,0,0,2771.685,1056.4Zm-7.928,3.677a21.154,21.154,0,0,0-3.4,4.661,30.077,30.077,0,0,0-1.657,3.555,25.3,25.3,0,0,1-3.936-2.941A25.166,25.166,0,0,1,2763.757,1060.074Zm-10.685,6.97a27.619,27.619,0,0,0,4.82,3.551,44.478,44.478,0,0,0-1.923,12.154h-9.409a25.058,25.058,0,0,1,6.512-15.705Zm-6.512,18.1h9.409a43.963,43.963,0,0,0,2.189,12.966,27.591,27.591,0,0,0-4.6,3.259,25.067,25.067,0,0,1-7-16.225Zm8.748,17.879a25.155,25.155,0,0,1,3.71-2.645,29.331,29.331,0,0,0,1.341,2.78,21.15,21.15,0,0,0,3.4,4.661A25.175,25.175,0,0,1,2755.308,1103.024Zm15.179,5.973c-2.986-.517-5.8-2.954-8.03-6.995a27.268,27.268,0,0,1-1.308-2.734,25.057,25.057,0,0,1,9.338-2.276V1109Zm0-14.4a27.463,27.463,0,0,0-10.172,2.42,41.679,41.679,0,0,1-1.95-11.869h12.122v9.449Zm0-11.845h-12.122a42.263,42.263,0,0,1,1.686-11.027,27.379,27.379,0,0,0,10.436,2.535Zm0-10.889a24.992,24.992,0,0,1-9.661-2.422,28.026,28.026,0,0,1,1.631-3.546c2.229-4.042,5.044-6.479,8.03-6.995Zm26.323,10.889H2787.4a44.441,44.441,0,0,0-1.923-12.154,27.569,27.569,0,0,0,4.82-3.551,25.054,25.054,0,0,1,6.512,15.705Zm-8.206-17.4a25.209,25.209,0,0,1-3.936,2.941,30,30,0,0,0-1.657-3.555,21.151,21.151,0,0,0-3.4-4.661A25.174,25.174,0,0,1,2788.6,1065.349Zm-15.721-6.452c2.986.516,5.8,2.954,8.03,6.995a27.889,27.889,0,0,1,1.631,3.546,25,25,0,0,1-9.661,2.422Zm0,15.36a27.373,27.373,0,0,0,10.436-2.535,42.273,42.273,0,0,1,1.686,11.027h-12.122Zm0,10.888H2785a41.7,41.7,0,0,1-1.949,11.869,27.472,27.472,0,0,0-10.173-2.42v-9.449Zm0,23.852v-12.006a25.076,25.076,0,0,1,9.338,2.277,27.321,27.321,0,0,1-1.308,2.734c-2.229,4.041-5.044,6.478-8.03,6.995Zm6.731-1.177a23.512,23.512,0,0,0,4.738-7.441,25.181,25.181,0,0,1,3.71,2.645A25.173,25.173,0,0,1,2779.614,1107.82Zm10.2-6.45a27.5,27.5,0,0,0-4.6-3.259,43.963,43.963,0,0,0,2.19-12.966h9.408a25.068,25.068,0,0,1-7,16.225Z" fill="#692fbc"/></g></g></svg>