<svg xmlns="http://www.w3.org/2000/svg" xmlns:xlink="http://www.w3.org/1999/xlink" width="294.5" height="115.367" viewBox="0 0 294.5 115.367">
  <defs>
    <linearGradient id="linear-gradient" x1="-36.9" y1="69.158" x2="-36.9" y2="69.187" gradientUnits="objectBoundingBox">
      <stop offset="0" stop-color="#96d1f3"/>
      <stop offset="1" stop-color="#ccfff4"/>
    </linearGradient>
    <linearGradient id="linear-gradient-2" x1="-264.259" y1="200.585" x2="-264.259" y2="200.673" gradientUnits="objectBoundingBox">
      <stop offset="0" stop-color="#a8abff"/>
      <stop offset="1" stop-color="#fac8ff"/>
    </linearGradient>
    <linearGradient id="linear-gradient-3" x1="-269.004" y1="200.585" x2="-269.004" y2="200.673" xlink:href="#linear-gradient-2"/>
    <linearGradient id="linear-gradient-4" x1="-185.362" y1="227.079" x2="-185.362" y2="227.182" xlink:href="#linear-gradient-2"/>
  </defs>
  <g id="Grupo_59541" data-name="Grupo 59541" transform="translate(-495.309 -1339.609)">
    <rect id="Rectángulo_5557" data-name="Rectángulo 5557" width="294.5" height="96.969" transform="translate(495.309 1358.007)" fill="#f1e5ff"/>
    <path id="Trazado_108366" data-name="Trazado 108366" d="M9.688-3.609A4.185,4.185,0,0,1,8.355-.824a4.365,4.365,0,0,1-2.98.98,4.008,4.008,0,0,1-3.23-1.445A5.815,5.815,0,0,1,.93-5.156V-6.25A6.481,6.481,0,0,1,1.5-9.039,4.231,4.231,0,0,1,3.1-10.887a4.47,4.47,0,0,1,2.406-.645A4.11,4.11,0,0,1,8.414-10.52a4.235,4.235,0,0,1,1.273,2.8H8.18a3.268,3.268,0,0,0-.848-1.975A2.565,2.565,0,0,0,5.508-10.3,2.684,2.684,0,0,0,3.254-9.241a4.882,4.882,0,0,0-.816,3.026v1.1a5.018,5.018,0,0,0,.773,2.948A2.5,2.5,0,0,0,5.375-1.07a2.887,2.887,0,0,0,1.918-.566A3.143,3.143,0,0,0,8.18-3.609Zm1.438-.7a4.993,4.993,0,0,1,.488-2.234A3.643,3.643,0,0,1,12.973-8.07a3.7,3.7,0,0,1,1.988-.539,3.565,3.565,0,0,1,2.793,1.2,4.6,4.6,0,0,1,1.066,3.18v.1a5.036,5.036,0,0,1-.473,2.215A3.589,3.589,0,0,1,17-.391a3.743,3.743,0,0,1-2.02.547,3.556,3.556,0,0,1-2.785-1.2A4.575,4.575,0,0,1,11.125-4.2Zm1.453.172a3.616,3.616,0,0,0,.652,2.258,2.088,2.088,0,0,0,1.746.852,2.075,2.075,0,0,0,1.75-.863A3.955,3.955,0,0,0,17.375-4.3a3.61,3.61,0,0,0-.66-2.254,2.1,2.1,0,0,0-1.754-.863,2.075,2.075,0,0,0-1.727.852A3.925,3.925,0,0,0,12.578-4.133Zm9.414-4.32.039.938a3.122,3.122,0,0,1,2.508-1.094A2.417,2.417,0,0,1,26.953-7.25a3.2,3.2,0,0,1,1.1-.984,3.242,3.242,0,0,1,1.6-.375q2.781,0,2.828,2.945V0H31.031V-5.578a1.941,1.941,0,0,0-.414-1.355,1.823,1.823,0,0,0-1.391-.449,1.916,1.916,0,0,0-1.336.48,1.949,1.949,0,0,0-.617,1.293V0H25.82V-5.539a1.613,1.613,0,0,0-1.8-1.844A1.934,1.934,0,0,0,22.07-6.172V0H20.625V-8.453Zm19.8,4.32a5.062,5.062,0,0,1-.883,3.109A2.829,2.829,0,0,1,38.523.156,3.1,3.1,0,0,1,36.1-.82V3.25H34.656v-11.7h1.32l.07.938A2.977,2.977,0,0,1,38.5-8.609a2.882,2.882,0,0,1,2.41,1.148,5.117,5.117,0,0,1,.887,3.2ZM40.352-4.3a3.735,3.735,0,0,0-.609-2.258,1.963,1.963,0,0,0-1.672-.828A2.125,2.125,0,0,0,36.1-6.219V-2.18a2.129,2.129,0,0,0,1.984,1.156,1.954,1.954,0,0,0,1.652-.824A4.077,4.077,0,0,0,40.352-4.3Zm7.367-2.859a4.331,4.331,0,0,0-.711-.055A1.9,1.9,0,0,0,45.078-6V0H43.633V-8.453h1.406l.023.977a2.251,2.251,0,0,1,2.016-1.133,1.477,1.477,0,0,1,.641.109ZM52.555.156a3.693,3.693,0,0,1-2.8-1.129,4.19,4.19,0,0,1-1.078-3.02v-.266A5.073,5.073,0,0,1,49.16-6.5,3.748,3.748,0,0,1,50.5-8.051a3.378,3.378,0,0,1,1.871-.559,3.166,3.166,0,0,1,2.563,1.086,4.7,4.7,0,0,1,.914,3.109v.6H50.125a3,3,0,0,0,.73,2.02,2.3,2.3,0,0,0,1.777.77,2.517,2.517,0,0,0,1.3-.312,3.259,3.259,0,0,0,.93-.828l.883.688A3.55,3.55,0,0,1,52.555.156Zm-.18-7.578a1.928,1.928,0,0,0-1.469.637A3.1,3.1,0,0,0,50.172-5h4.234v-.109a2.753,2.753,0,0,0-.594-1.707A1.815,1.815,0,0,0,52.375-7.422Zm6.516-1.031.047,1.063a3.08,3.08,0,0,1,2.531-1.219q2.68,0,2.7,3.023V0H62.727V-5.594a1.946,1.946,0,0,0-.418-1.352,1.675,1.675,0,0,0-1.277-.437,2.086,2.086,0,0,0-1.234.375,2.546,2.546,0,0,0-.828.984V0H57.523V-8.453ZM71.273-2.242a1.064,1.064,0,0,0-.441-.91,4.249,4.249,0,0,0-1.539-.559,7.277,7.277,0,0,1-1.742-.562,2.479,2.479,0,0,1-.953-.781,1.869,1.869,0,0,1-.309-1.078,2.193,2.193,0,0,1,.879-1.758,3.432,3.432,0,0,1,2.246-.719,3.532,3.532,0,0,1,2.332.742,2.357,2.357,0,0,1,.895,1.9H71.188a1.3,1.3,0,0,0-.5-1.023,1.888,1.888,0,0,0-1.27-.43,1.976,1.976,0,0,0-1.234.344,1.082,1.082,0,0,0-.445.9.877.877,0,0,0,.414.789,5.1,5.1,0,0,0,1.5.508A7.8,7.8,0,0,1,71.4-4.3a2.558,2.558,0,0,1,1,.809,1.988,1.988,0,0,1,.324,1.152,2.163,2.163,0,0,1-.906,1.816,3.8,3.8,0,0,1-2.352.684,4.257,4.257,0,0,1-1.8-.359,2.922,2.922,0,0,1-1.223-1A2.42,2.42,0,0,1,66-2.6h1.445a1.5,1.5,0,0,0,.582,1.152,2.258,2.258,0,0,0,1.434.426,2.331,2.331,0,0,0,1.316-.332A1.02,1.02,0,0,0,71.273-2.242ZM76.172,0H74.727V-8.453h1.445ZM74.609-10.7a.863.863,0,0,1,.215-.594.807.807,0,0,1,.637-.242.819.819,0,0,1,.641.242.854.854,0,0,1,.219.594.826.826,0,0,1-.219.586.834.834,0,0,1-.641.234.821.821,0,0,1-.637-.234A.834.834,0,0,1,74.609-10.7ZM85.641-4.133A5.026,5.026,0,0,1,84.75-1.02,2.846,2.846,0,0,1,82.359.156,2.947,2.947,0,0,1,79.883-.977L79.813,0H78.484V-12H79.93v4.477a2.93,2.93,0,0,1,2.414-1.086,2.863,2.863,0,0,1,2.418,1.164,5.177,5.177,0,0,1,.879,3.188ZM84.2-4.3a3.906,3.906,0,0,0-.57-2.281,1.888,1.888,0,0,0-1.641-.8A2.122,2.122,0,0,0,79.93-6.055V-2.4A2.181,2.181,0,0,0,82-1.07a1.878,1.878,0,0,0,1.617-.8A4.153,4.153,0,0,0,84.2-4.3ZM89.031,0H87.586V-12h1.445Zm5.82.156a3.693,3.693,0,0,1-2.8-1.129,4.19,4.19,0,0,1-1.078-3.02v-.266a5.073,5.073,0,0,1,.48-2.246A3.748,3.748,0,0,1,92.8-8.051a3.378,3.378,0,0,1,1.871-.559,3.166,3.166,0,0,1,2.563,1.086,4.7,4.7,0,0,1,.914,3.109v.6H92.422a3,3,0,0,0,.73,2.02,2.3,2.3,0,0,0,1.777.77,2.517,2.517,0,0,0,1.3-.312,3.259,3.259,0,0,0,.93-.828l.883.688A3.55,3.55,0,0,1,94.852.156Zm-.18-7.578a1.928,1.928,0,0,0-1.469.637A3.1,3.1,0,0,0,92.469-5H96.7v-.109a2.753,2.753,0,0,0-.594-1.707A1.815,1.815,0,0,0,94.672-7.422ZM109,0a3.036,3.036,0,0,1-.2-.891A3.225,3.225,0,0,1,106.391.156a2.984,2.984,0,0,1-2.051-.707,2.288,2.288,0,0,1-.8-1.793,2.39,2.39,0,0,1,1-2.051,4.733,4.733,0,0,1,2.824-.73h1.406v-.664A1.623,1.623,0,0,0,108.32-7a1.821,1.821,0,0,0-1.336-.449,2.108,2.108,0,0,0-1.3.391,1.151,1.151,0,0,0-.523.945h-1.453a2,2,0,0,1,.449-1.223,3.066,3.066,0,0,1,1.219-.934,4.1,4.1,0,0,1,1.691-.344,3.342,3.342,0,0,1,2.289.73,2.635,2.635,0,0,1,.859,2.012v3.891a4.757,4.757,0,0,0,.3,1.852V0Zm-2.4-1.1a2.54,2.54,0,0,0,1.289-.352,2.127,2.127,0,0,0,.883-.914V-4.1h-1.133q-2.656,0-2.656,1.555a1.316,1.316,0,0,0,.453,1.063A1.742,1.742,0,0,0,106.6-1.1Z" transform="translate(609.9 1384.811)"/>
    <path id="Trazado_108367" data-name="Trazado 108367" d="M3.055-10.5v2.047H4.633v1.117H3.055v5.249a1.173,1.173,0,0,0,.211.763.888.888,0,0,0,.719.254,3.5,3.5,0,0,0,.688-.094V0A4.215,4.215,0,0,1,3.563.156,1.8,1.8,0,0,1,2.1-.43a2.517,2.517,0,0,1-.492-1.664V-7.336H.07V-8.453H1.609V-10.5ZM5.781-4.3A4.993,4.993,0,0,1,6.27-6.539,3.643,3.643,0,0,1,7.629-8.07a3.7,3.7,0,0,1,1.988-.539,3.565,3.565,0,0,1,2.793,1.2,4.6,4.6,0,0,1,1.066,3.18v.1A5.036,5.036,0,0,1,13-1.918,3.589,3.589,0,0,1,11.652-.391a3.743,3.743,0,0,1-2.02.547,3.556,3.556,0,0,1-2.785-1.2A4.575,4.575,0,0,1,5.781-4.2Zm1.453.172a3.616,3.616,0,0,0,.652,2.258,2.088,2.088,0,0,0,1.746.852,2.075,2.075,0,0,0,1.75-.863A3.955,3.955,0,0,0,12.031-4.3a3.61,3.61,0,0,0-.66-2.254,2.1,2.1,0,0,0-1.754-.863,2.075,2.075,0,0,0-1.727.852A3.925,3.925,0,0,0,7.234-4.133Zm7.7-.164a4.952,4.952,0,0,1,.922-3.129,2.915,2.915,0,0,1,2.414-1.184,2.932,2.932,0,0,1,2.352,1.016V-12H22.07V0H20.742l-.07-.906A2.943,2.943,0,0,1,18.258.156a2.887,2.887,0,0,1-2.395-1.2,5.008,5.008,0,0,1-.926-3.141Zm1.445.164a3.749,3.749,0,0,0,.594,2.25,1.92,1.92,0,0,0,1.641.813A2.108,2.108,0,0,0,20.625-2.3V-6.187a2.125,2.125,0,0,0-1.992-1.2,1.929,1.929,0,0,0-1.656.82A4.128,4.128,0,0,0,16.383-4.133ZM23.93-4.3a4.993,4.993,0,0,1,.488-2.234A3.643,3.643,0,0,1,25.777-8.07a3.7,3.7,0,0,1,1.988-.539,3.565,3.565,0,0,1,2.793,1.2,4.6,4.6,0,0,1,1.066,3.18v.1a5.036,5.036,0,0,1-.473,2.215A3.589,3.589,0,0,1,29.8-.391a3.743,3.743,0,0,1-2.02.547A3.556,3.556,0,0,1,25-1.039,4.575,4.575,0,0,1,23.93-4.2Zm1.453.172a3.616,3.616,0,0,0,.652,2.258,2.088,2.088,0,0,0,1.746.852,2.075,2.075,0,0,0,1.75-.863A3.955,3.955,0,0,0,30.18-4.3a3.61,3.61,0,0,0-.66-2.254,2.1,2.1,0,0,0-1.754-.863,2.075,2.075,0,0,0-1.727.852A3.925,3.925,0,0,0,25.383-4.133ZM38.359-2.242a1.064,1.064,0,0,0-.441-.91,4.249,4.249,0,0,0-1.539-.559,7.277,7.277,0,0,1-1.742-.562,2.479,2.479,0,0,1-.953-.781,1.869,1.869,0,0,1-.309-1.078,2.193,2.193,0,0,1,.879-1.758A3.432,3.432,0,0,1,36.5-8.609a3.532,3.532,0,0,1,2.332.742,2.357,2.357,0,0,1,.895,1.9H38.273a1.3,1.3,0,0,0-.5-1.023,1.888,1.888,0,0,0-1.27-.43,1.976,1.976,0,0,0-1.234.344,1.082,1.082,0,0,0-.445.9.877.877,0,0,0,.414.789,5.1,5.1,0,0,0,1.5.508,7.8,7.8,0,0,1,1.754.578,2.558,2.558,0,0,1,1,.809A1.988,1.988,0,0,1,39.8-2.344,2.163,2.163,0,0,1,38.9-.527a3.8,3.8,0,0,1-2.352.684A4.257,4.257,0,0,1,34.75-.2a2.922,2.922,0,0,1-1.223-1A2.42,2.42,0,0,1,33.086-2.6h1.445a1.5,1.5,0,0,0,.582,1.152,2.258,2.258,0,0,0,1.434.426,2.331,2.331,0,0,0,1.316-.332A1.02,1.02,0,0,0,38.359-2.242ZM47.219,0H45.773V-12h1.445Zm1.93-4.3a4.993,4.993,0,0,1,.488-2.234A3.643,3.643,0,0,1,51-8.07a3.7,3.7,0,0,1,1.988-.539,3.565,3.565,0,0,1,2.793,1.2,4.6,4.6,0,0,1,1.066,3.18v.1a5.036,5.036,0,0,1-.473,2.215A3.589,3.589,0,0,1,55.02-.391,3.743,3.743,0,0,1,53,.156a3.556,3.556,0,0,1-2.785-1.2A4.575,4.575,0,0,1,49.148-4.2Zm1.453.172a3.616,3.616,0,0,0,.652,2.258A2.088,2.088,0,0,0,53-1.023a2.075,2.075,0,0,0,1.75-.863A3.955,3.955,0,0,0,55.4-4.3a3.61,3.61,0,0,0-.66-2.254,2.1,2.1,0,0,0-1.754-.863,2.075,2.075,0,0,0-1.727.852A3.925,3.925,0,0,0,50.6-4.133ZM63.578-2.242a1.064,1.064,0,0,0-.441-.91A4.249,4.249,0,0,0,61.6-3.711a7.277,7.277,0,0,1-1.742-.562,2.479,2.479,0,0,1-.953-.781,1.869,1.869,0,0,1-.309-1.078,2.193,2.193,0,0,1,.879-1.758,3.432,3.432,0,0,1,2.246-.719,3.532,3.532,0,0,1,2.332.742,2.357,2.357,0,0,1,.895,1.9H63.492a1.3,1.3,0,0,0-.5-1.023,1.888,1.888,0,0,0-1.27-.43,1.976,1.976,0,0,0-1.234.344,1.082,1.082,0,0,0-.445.9.877.877,0,0,0,.414.789,5.1,5.1,0,0,0,1.5.508A7.8,7.8,0,0,1,63.7-4.3a2.558,2.558,0,0,1,1,.809,1.988,1.988,0,0,1,.324,1.152,2.163,2.163,0,0,1-.906,1.816,3.8,3.8,0,0,1-2.352.684,4.257,4.257,0,0,1-1.8-.359,2.922,2.922,0,0,1-1.223-1A2.42,2.42,0,0,1,58.3-2.6H59.75a1.5,1.5,0,0,0,.582,1.152,2.258,2.258,0,0,0,1.434.426,2.331,2.331,0,0,0,1.316-.332A1.02,1.02,0,0,0,63.578-2.242Zm10.8,2.4a3.693,3.693,0,0,1-2.8-1.129A4.19,4.19,0,0,1,70.5-3.992v-.266A5.073,5.073,0,0,1,70.98-6.5a3.748,3.748,0,0,1,1.344-1.547A3.378,3.378,0,0,1,74.2-8.609a3.166,3.166,0,0,1,2.563,1.086,4.7,4.7,0,0,1,.914,3.109v.6H71.945a3,3,0,0,0,.73,2.02,2.3,2.3,0,0,0,1.777.77,2.517,2.517,0,0,0,1.3-.312,3.259,3.259,0,0,0,.93-.828l.883.688A3.55,3.55,0,0,1,74.375.156ZM74.2-7.422a1.928,1.928,0,0,0-1.469.637A3.1,3.1,0,0,0,71.992-5h4.234v-.109a2.753,2.753,0,0,0-.594-1.707A1.815,1.815,0,0,0,74.2-7.422ZM80.7-8.453l.039.938A3.122,3.122,0,0,1,83.25-8.609,2.417,2.417,0,0,1,85.664-7.25a3.2,3.2,0,0,1,1.1-.984,3.242,3.242,0,0,1,1.6-.375q2.781,0,2.828,2.945V0H89.742V-5.578a1.941,1.941,0,0,0-.414-1.355,1.823,1.823,0,0,0-1.391-.449A1.916,1.916,0,0,0,86.6-6.9a1.949,1.949,0,0,0-.617,1.293V0H84.531V-5.539a1.613,1.613,0,0,0-1.8-1.844,1.934,1.934,0,0,0-1.945,1.211V0H79.336V-8.453Zm19.8,4.32a5.062,5.062,0,0,1-.883,3.109A2.829,2.829,0,0,1,97.234.156,3.1,3.1,0,0,1,94.813-.82V3.25H93.367v-11.7h1.32l.07.938a2.977,2.977,0,0,1,2.453-1.094,2.882,2.882,0,0,1,2.41,1.148,5.117,5.117,0,0,1,.887,3.2ZM99.063-4.3a3.735,3.735,0,0,0-.609-2.258,1.963,1.963,0,0,0-1.672-.828,2.125,2.125,0,0,0-1.969,1.164V-2.18A2.129,2.129,0,0,0,96.8-1.023a1.954,1.954,0,0,0,1.652-.824A4.077,4.077,0,0,0,99.063-4.3ZM103.914,0h-1.445V-12h1.445Zm5.82.156a3.693,3.693,0,0,1-2.8-1.129,4.19,4.19,0,0,1-1.078-3.02v-.266a5.073,5.073,0,0,1,.48-2.246,3.748,3.748,0,0,1,1.344-1.547,3.378,3.378,0,0,1,1.871-.559,3.166,3.166,0,0,1,2.563,1.086,4.7,4.7,0,0,1,.914,3.109v.6H107.3a3,3,0,0,0,.73,2.02,2.3,2.3,0,0,0,1.777.77,2.517,2.517,0,0,0,1.3-.312,3.259,3.259,0,0,0,.93-.828l.883.688A3.55,3.55,0,0,1,109.734.156Zm-.18-7.578a1.928,1.928,0,0,0-1.469.637A3.1,3.1,0,0,0,107.352-5h4.234v-.109a2.753,2.753,0,0,0-.594-1.707A1.815,1.815,0,0,0,109.555-7.422ZM119.922,0a3.036,3.036,0,0,1-.2-.891A3.225,3.225,0,0,1,117.313.156a2.984,2.984,0,0,1-2.051-.707,2.288,2.288,0,0,1-.8-1.793,2.39,2.39,0,0,1,1-2.051,4.733,4.733,0,0,1,2.824-.73H119.7v-.664A1.623,1.623,0,0,0,119.242-7a1.821,1.821,0,0,0-1.336-.449,2.108,2.108,0,0,0-1.3.391,1.151,1.151,0,0,0-.523.945h-1.453a2,2,0,0,1,.449-1.223,3.066,3.066,0,0,1,1.219-.934,4.1,4.1,0,0,1,1.691-.344,3.342,3.342,0,0,1,2.289.73,2.635,2.635,0,0,1,.859,2.012v3.891a4.757,4.757,0,0,0,.3,1.852V0Zm-2.4-1.1a2.54,2.54,0,0,0,1.289-.352,2.127,2.127,0,0,0,.883-.914V-4.1h-1.133q-2.656,0-2.656,1.555a1.316,1.316,0,0,0,.453,1.063A1.742,1.742,0,0,0,117.523-1.1Zm5.531-3.2a4.952,4.952,0,0,1,.922-3.129,2.915,2.915,0,0,1,2.414-1.184,2.932,2.932,0,0,1,2.352,1.016V-12h1.445V0h-1.328l-.07-.906A2.943,2.943,0,0,1,126.375.156a2.887,2.887,0,0,1-2.395-1.2,5.008,5.008,0,0,1-.926-3.141Zm1.445.164a3.749,3.749,0,0,0,.594,2.25,1.92,1.92,0,0,0,1.641.813A2.109,2.109,0,0,0,128.742-2.3V-6.187a2.125,2.125,0,0,0-1.992-1.2,1.929,1.929,0,0,0-1.656.82A4.128,4.128,0,0,0,124.5-4.133Zm7.547-.172a4.993,4.993,0,0,1,.488-2.234,3.642,3.642,0,0,1,1.359-1.531,3.7,3.7,0,0,1,1.988-.539,3.565,3.565,0,0,1,2.793,1.2,4.6,4.6,0,0,1,1.066,3.18v.1a5.036,5.036,0,0,1-.473,2.215,3.589,3.589,0,0,1-1.352,1.527,3.743,3.743,0,0,1-2.02.547,3.556,3.556,0,0,1-2.785-1.2A4.575,4.575,0,0,1,132.047-4.2Zm1.453.172a3.616,3.616,0,0,0,.652,2.258,2.088,2.088,0,0,0,1.746.852,2.075,2.075,0,0,0,1.75-.863A3.954,3.954,0,0,0,138.3-4.3a3.61,3.61,0,0,0-.66-2.254,2.1,2.1,0,0,0-1.754-.863,2.075,2.075,0,0,0-1.727.852A3.925,3.925,0,0,0,133.5-4.133Zm12.977,1.891a1.064,1.064,0,0,0-.441-.91,4.249,4.249,0,0,0-1.539-.559,7.277,7.277,0,0,1-1.742-.562,2.479,2.479,0,0,1-.953-.781,1.869,1.869,0,0,1-.309-1.078,2.193,2.193,0,0,1,.879-1.758,3.432,3.432,0,0,1,2.246-.719,3.532,3.532,0,0,1,2.332.742,2.357,2.357,0,0,1,.895,1.9h-1.453a1.3,1.3,0,0,0-.5-1.023,1.888,1.888,0,0,0-1.27-.43,1.976,1.976,0,0,0-1.234.344,1.082,1.082,0,0,0-.445.9.877.877,0,0,0,.414.789,5.1,5.1,0,0,0,1.5.508A7.8,7.8,0,0,1,146.6-4.3a2.558,2.558,0,0,1,1,.809,1.988,1.988,0,0,1,.324,1.152,2.163,2.163,0,0,1-.906,1.816,3.8,3.8,0,0,1-2.352.684,4.257,4.257,0,0,1-1.8-.359,2.922,2.922,0,0,1-1.223-1A2.42,2.42,0,0,1,141.2-2.6h1.445a1.5,1.5,0,0,0,.582,1.152,2.258,2.258,0,0,0,1.434.426,2.331,2.331,0,0,0,1.316-.332A1.02,1.02,0,0,0,146.477-2.242Zm3.359,1.484a.905.905,0,0,1,.223-.625.848.848,0,0,1,.668-.25.874.874,0,0,1,.676.25.887.887,0,0,1,.23.625.839.839,0,0,1-.23.6.89.89,0,0,1-.676.242.863.863,0,0,1-.668-.242A.855.855,0,0,1,149.836-.758Z" transform="translate(609.9 1404.011)"/>
    <g id="Grupo_59086" data-name="Grupo 59086" transform="translate(-1456.875 630.326)">
      <g id="Filled">
        <path id="Trazado_106909" data-name="Trazado 106909" d="M1996.939,761.951v21.9h53.081v-21.9a9.651,9.651,0,0,0-7.31-9.363l-12.636-3.159h-13.19l-12.635,3.159A9.651,9.651,0,0,0,1996.939,761.951Z" fill="url(#linear-gradient)"/>
        <g id="Grupo_59085" data-name="Grupo 59085">
          <path id="Trazado_106910" data-name="Trazado 106910" d="M2030.074,743.477h-13.19v5.952a6.6,6.6,0,0,0,13.19.515c.007-.172.007-.343,0-.515Z" fill="#fff"/>
          <path id="Trazado_106911" data-name="Trazado 106911" d="M2035.543,727.392a12.064,12.064,0,1,0-24.128,0h15.972a6.434,6.434,0,0,1,5.475,3.055l2.674,4.332c0-.1.007-.206.007-.309v-7.078Z" fill="#fff"/>
          <path id="Trazado_106912" data-name="Trazado 106912" d="M2027.387,727.392h-15.972v7.078a12.062,12.062,0,0,0,24.12.309l-2.673-4.332a6.434,6.434,0,0,0-5.475-3.055Z" fill="#fff"/>
          <path id="Trazado_106913" data-name="Trazado 106913" d="M1973.454,783.851h79.783v6.435h-79.783Z" fill="#fff"/>
          <path id="Trazado_106914" data-name="Trazado 106914" d="M2018.493,783.851h-41.822v-20.91a4.826,4.826,0,0,1,4.826-4.826h32.17a4.826,4.826,0,0,1,4.826,4.826h0Z" fill="#fff"/>
        </g>
        <path id="Trazado_106915" data-name="Trazado 106915" d="M2011.415,738.169H2008.2a3.217,3.217,0,0,1-3.217-3.217h0v-4.825a3.217,3.217,0,0,1,3.217-3.217h3.217Z" fill="url(#linear-gradient-2)"/>
        <path id="Trazado_106916" data-name="Trazado 106916" d="M2035.543,738.169h3.217a3.217,3.217,0,0,0,3.217-3.217h0v-4.825a3.217,3.217,0,0,0-3.217-3.217h-3.217Z" fill="url(#linear-gradient-3)"/>
        <circle id="Elipse_4069" data-name="Elipse 4069" cx="4.826" cy="4.826" r="4.826" transform="translate(1992.756 766.158)" fill="url(#linear-gradient-4)"/>
      </g>
      <path id="Trazado_106917" data-name="Trazado 106917" d="M2051.226,782.645V761.951A10.838,10.838,0,0,0,2043,751.418l-11.721-2.931V745.2a13.34,13.34,0,0,0,4.525-5.819h2.954a4.43,4.43,0,0,0,4.424-4.424v-4.825a4.418,4.418,0,0,0-1.623-3.422,18.094,18.094,0,0,0-36.163,0c-2.481,2.035-1.331,4.819-1.623,8.247a4.429,4.429,0,0,0,4.423,4.424h2.955a13.34,13.34,0,0,0,4.525,5.819v3.292l-11.721,2.931a10.923,10.923,0,0,0-6.978,5.491H1981.5a6.038,6.038,0,0,0-6.032,6.032v19.7h-3.217v8.847h82.2v-8.843Zm-16.889-52.1a7.892,7.892,0,0,0-6.95-4.354h-14.7a10.857,10.857,0,0,1,21.647,1.206Zm6.434-.413v4.825a2.013,2.013,0,0,1-2.011,2.011h-2.249c.39-2.042.177-2.9.239-8.847h2.01a2.013,2.013,0,0,1,2.011,2.006Zm-32.57,6.831a2.013,2.013,0,0,1-2.01-2.011v-4.825a2.012,2.012,0,0,1,2.01-2.011h2.011v6.354a13.377,13.377,0,0,0,.238,2.493Zm2.122-11.26c-2.179,0-2.118-.01-2.434.012a15.683,15.683,0,0,1,31.187,0c-.317-.022-.256-.007-2.434-.012a13.267,13.267,0,0,0-26.319,0Zm2.3,8.767V728.6h14.765c4.251,0,5.2,4.3,6.93,6.5a10.857,10.857,0,0,1-21.695-.631Zm16.246,12.122v2.837a5.388,5.388,0,0,1-10.777,0v-2.837A13.225,13.225,0,0,0,2028.869,746.592Zm-24.326,7.166,11.284-2.821a7.8,7.8,0,0,0,15.307,0l11.284,2.821a8.433,8.433,0,0,1,6.4,8.193v20.694h-8.2V763.906H2038.2v18.739h-18.5v-19.7a6.038,6.038,0,0,0-6.032-6.032h-13.847a8.505,8.505,0,0,1,4.722-3.151Zm-26.664,9.183a3.623,3.623,0,0,1,3.619-3.62h32.17a3.623,3.623,0,0,1,3.619,3.62v19.7h-39.408Zm74.153,26.138h-77.371v-4.021h77.371Zm-54.449-24.128a6.032,6.032,0,1,0,6.032,6.032h0a6.039,6.039,0,0,0-6.033-6.032Zm0,9.651a3.619,3.619,0,1,1,3.619-3.619,3.619,3.619,0,0,1-3.619,3.619Z" fill="#692fbc"/>
    </g>
  </g>
</svg>
