<svg xmlns="http://www.w3.org/2000/svg" width="237.262" height="205.379" viewBox="0 0 237.262 205.379">
  <g id="Grupo_65214" data-name="Grupo 65214" transform="translate(-118.437 -39.63)">
    <g id="Grupo_63449" data-name="Grupo 63449" transform="translate(269.665 185.236)">
      <rect id="Rectángulo_6518" data-name="Rectángulo 6518" width="59.189" height="28.882" rx="14.441" transform="translate(0 4.214)" fill="#e09c28"/>
      <rect id="Rectángulo_6519" data-name="Rectángulo 6519" width="59.189" height="28.882" rx="14.441" transform="translate(2.426)" fill="#fff"/>
      <path id="Trazado_111690" data-name="Trazado 111690" d="M484.045,376.779l3.132,6.346,7,1.018-5.067,4.939,1.2,6.974-6.263-3.293-6.263,3.293,1.2-6.974-5.067-4.939,7-1.018Z" transform="translate(-465.674 -371.977)" fill="#f9e478"/>
      <g id="Grupo_63448" data-name="Grupo 63448" transform="translate(32.53 8.888)">
        <path id="Trazado_111691" data-name="Trazado 111691" d="M532.218,389.893a3.526,3.526,0,0,1,2.529.892,3.208,3.208,0,0,1,.94,2.444,3.553,3.553,0,0,1-1.132,2.825,4.771,4.771,0,0,1-3.237.989,6.347,6.347,0,0,1-2.953-.592v-2a6.652,6.652,0,0,0,2.87.712q2.121,0,2.121-1.739,0-1.656-2.2-1.656a5.482,5.482,0,0,0-.877.079,6.307,6.307,0,0,0-.78.169l-.921-.5.412-5.583h5.943V387.9h-3.912l-.2,2.151.262-.052A5.18,5.18,0,0,1,532.218,389.893Z" transform="translate(-528.365 -385.936)" fill="#44649e"/>
        <path id="Trazado_111692" data-name="Trazado 111692" d="M552.719,385.936l-4.084,10.957h-2.076l4.084-10.957Z" transform="translate(-538.442 -385.936)" fill="#44649e"/>
        <path id="Trazado_111693" data-name="Trazado 111693" d="M566.069,389.893a3.527,3.527,0,0,1,2.529.892,3.207,3.207,0,0,1,.94,2.444,3.553,3.553,0,0,1-1.131,2.825,4.772,4.772,0,0,1-3.238.989,6.347,6.347,0,0,1-2.953-.592v-2a6.652,6.652,0,0,0,2.871.712q2.121,0,2.121-1.739,0-1.656-2.2-1.656a5.488,5.488,0,0,0-.877.079,6.3,6.3,0,0,0-.779.169l-.922-.5.412-5.583h5.943V387.9h-3.912l-.2,2.151.262-.052A5.183,5.183,0,0,1,566.069,389.893Z" transform="translate(-547.115 -385.936)" fill="#44649e"/>
      </g>
    </g>
    <g id="Grupo_63452" data-name="Grupo 63452" transform="translate(247.596 104.246)">
      <rect id="Rectángulo_6520" data-name="Rectángulo 6520" width="103.709" height="72.281" rx="14.154" transform="translate(0 4.009)" fill="#e09c28"/>
      <rect id="Rectángulo_6521" data-name="Rectángulo 6521" width="103.709" height="72.281" rx="14.154" transform="translate(2.045 0)" fill="#fff"/>
      <g id="Grupo_63450" data-name="Grupo 63450" transform="translate(17.213 24.358)">
        <line id="Línea_289" data-name="Línea 289" x1="73.373" fill="none" stroke="#4badb0" stroke-miterlimit="10" stroke-width="1"/>
        <line id="Línea_290" data-name="Línea 290" x1="73.373" transform="translate(0 8.629)" fill="none" stroke="#4badb0" stroke-miterlimit="10" stroke-width="1"/>
        <line id="Línea_291" data-name="Línea 291" x1="73.373" transform="translate(0 17.258)" fill="none" stroke="#4badb0" stroke-miterlimit="10" stroke-width="1"/>
        <line id="Línea_292" data-name="Línea 292" x1="73.373" transform="translate(0 25.887)" fill="none" stroke="#4badb0" stroke-miterlimit="10" stroke-width="1"/>
        <line id="Línea_293" data-name="Línea 293" x1="73.373" transform="translate(0 34.516)" fill="none" stroke="#4badb0" stroke-miterlimit="10" stroke-width="1"/>
      </g>
      <path id="Trazado_111694" data-name="Trazado 111694" d="M507.955,184.471h-91.08a6.314,6.314,0,0,0-6.315,6.314v8.921H514.269v-8.921A6.314,6.314,0,0,0,507.955,184.471Z" transform="translate(-408.515 -184.471)" fill="#bb83ff"/>
      <g id="Grupo_63451" data-name="Grupo 63451" transform="translate(70.41 5.18)">
        <circle id="Elipse_4826" data-name="Elipse 4826" cx="2.438" cy="2.438" r="2.438" transform="translate(22.365)" fill="none" stroke="#fff" stroke-miterlimit="10" stroke-width="1"/>
        <circle id="Elipse_4827" data-name="Elipse 4827" cx="2.438" cy="2.438" r="2.438" transform="translate(11.182)" fill="none" stroke="#fff" stroke-miterlimit="10" stroke-width="1"/>
        <circle id="Elipse_4828" data-name="Elipse 4828" cx="2.438" cy="2.438" r="2.438" fill="none" stroke="#fff" stroke-miterlimit="10" stroke-width="1"/>
      </g>
    </g>
    <g id="Grupo_63454" data-name="Grupo 63454" transform="translate(247.596 65.449)">
      <rect id="Rectángulo_6522" data-name="Rectángulo 6522" width="103.709" height="26.654" rx="13.327" transform="translate(0 2.804)" fill="#e09c28"/>
      <rect id="Rectángulo_6523" data-name="Rectángulo 6523" width="103.709" height="26.654" rx="13.327" transform="translate(2.045)" fill="#fff"/>
      <g id="Grupo_63453" data-name="Grupo 63453" transform="translate(10.545 5.731)">
        <path id="Trazado_111695" data-name="Trazado 111695" d="M437.223,110.352l2.351,4.763,5.256.764-3.8,3.708.9,5.235-4.7-2.472-4.7,2.472.9-5.235-3.8-3.708,5.256-.764Z" transform="translate(-429.615 -110.352)" fill="#f9e478"/>
        <path id="Trazado_111696" data-name="Trazado 111696" d="M477.287,110.352l2.351,4.763,5.256.764-3.8,3.708.9,5.235-4.7-2.472-4.7,2.472.9-5.235-3.8-3.708,5.256-.764Z" transform="translate(-451.806 -110.352)" fill="#f9e478"/>
        <path id="Trazado_111697" data-name="Trazado 111697" d="M517.351,110.352l2.351,4.763,5.256.764-3.8,3.708.9,5.235-4.7-2.472-4.7,2.472.9-5.235-3.8-3.708,5.256-.764Z" transform="translate(-473.997 -110.352)" fill="#f9e478"/>
        <path id="Trazado_111698" data-name="Trazado 111698" d="M557.415,110.352l2.351,4.763,5.256.764-3.8,3.708.9,5.235-4.7-2.472-4.7,2.472.9-5.235-3.8-3.708,5.256-.764Z" transform="translate(-496.188 -110.352)" fill="#f9e478"/>
        <path id="Trazado_111699" data-name="Trazado 111699" d="M597.479,110.352l2.351,4.763,5.256.764-3.8,3.708.9,5.235-4.7-2.472-4.7,2.472.9-5.235-3.8-3.708,5.256-.764Z" transform="translate(-518.379 -110.352)" fill="#f9e478"/>
      </g>
    </g>
    <g id="Grupo_63455" data-name="Grupo 63455" transform="translate(126.506 178.831)">
      <rect id="Rectángulo_6524" data-name="Rectángulo 6524" width="98.434" height="19.47" rx="9.735" transform="translate(0)" fill="#e09c28"/>
    </g>
    <g id="Grupo_63457" data-name="Grupo 63457" transform="translate(125.526 175.521)">
      <rect id="Rectángulo_6525" data-name="Rectángulo 6525" width="98.434" height="19.47" rx="9.735" transform="translate(0)" fill="#bb83ff"/>
      <g id="Grupo_63456" data-name="Grupo 63456" transform="translate(5.358 4.536)">
        <circle id="Elipse_4829" data-name="Elipse 4829" cx="4.501" cy="4.501" r="4.501" fill="#bb83ff" stroke="#fff" stroke-miterlimit="10" stroke-width="2"/>
        <line id="Línea_294" data-name="Línea 294" x1="4.154" y1="4.154" transform="translate(7.683 7.683)" fill="none" stroke="#fff" stroke-miterlimit="10" stroke-width="2"/>
      </g>
    </g>
    <path id="Trazado_111700" data-name="Trazado 111700" d="M127.587,101.458c-12.38,12.806-9.5,35.753,8.281,38.537,23.714,3.713,56.127-19.1,75.868-7.527" transform="translate(0 -34.245)" fill="none" stroke="#ffdfab" stroke-miterlimit="10" stroke-width="3" stroke-dasharray="7"/>
    <g id="Grupo_63458" data-name="Grupo 63458" transform="translate(125.526 111.264)">
      <rect id="Rectángulo_6526" data-name="Rectángulo 6526" width="55.332" height="55.332" rx="16.991" transform="translate(2.274 2.501)" fill="#e09c28"/>
      <rect id="Rectángulo_6527" data-name="Rectángulo 6527" width="55.332" height="55.332" rx="16.991" transform="translate(0)" fill="#fff"/>
      <path id="Trazado_111701" data-name="Trazado 111701" d="M180.227,230.226v1.163l-5.386-4.31a19.707,19.707,0,0,1-6.81-10.711l-.7-2.917a.855.855,0,0,0-.832-.655,6.159,6.159,0,0,0-6.227,6.922l.394,3.717a.871.871,0,0,0,.04.182l1.653,4.922H152a4.2,4.2,0,0,0-1.5,8.087,4.214,4.214,0,0,0,1.6,6.66,4.214,4.214,0,0,0,1.6,6.66,4.206,4.206,0,0,0-1.026,2.759,4.161,4.161,0,0,0,4.126,4.185h15.226a19.313,19.313,0,0,0,8.193-1.838v.982h9.126v-25.81Zm-.463,23.154a17.583,17.583,0,0,1-7.73,1.8H156.809a2.475,2.475,0,0,1,0-4.949.855.855,0,1,0,0-1.711h-1.6a2.475,2.475,0,0,1,0-4.949.856.856,0,1,0,0-1.711h-1.6a2.475,2.475,0,0,1,0-4.949.856.856,0,0,0,0-1.711H152a2.475,2.475,0,0,1,0-4.949h11.55a.855.855,0,0,0,.811-1.128l-2-5.961-.385-3.625a4.526,4.526,0,0,1,1.1-3.558,4.444,4.444,0,0,1,2.759-1.429l.535,2.219a21.427,21.427,0,0,0,7.4,11.645l6.455,5.166v19.571Z" transform="translate(-140.946 -207.178)" fill="#44649e"/>
    </g>
    <g id="Grupo_63459" data-name="Grupo 63459" transform="translate(156.525 39.63)">
      <circle id="Elipse_4830" data-name="Elipse 4830" cx="23.384" cy="23.384" r="23.384" transform="translate(0 45.572) rotate(-77.015)" fill="#fff"/>
      <path id="Trazado_111702" data-name="Trazado 111702" d="M304.2,107.007l19.71,14.267-23.426-4.006Z" transform="translate(-256.476 -76.949)" fill="#fff"/>
      <path id="Trazado_111703" data-name="Trazado 111703" d="M256.173,77.8c-4.078-1.192-8.846,3.137-8.846,3.137s-4.768-4.329-8.846-3.137-6.551,6.373-4.266,11.794c2.7,6.4,9.159,10.791,13.111,13.175C251.28,100.389,257.742,96,260.439,89.6,262.725,84.177,260.251,79,256.173,77.8Z" transform="translate(-219.287 -60.659)" fill="#c91818"/>
    </g>
    <g id="Grupo_63460" data-name="Grupo 63460" transform="translate(121.429 44.439)">
      <path id="Trazado_111704" data-name="Trazado 111704" d="M141.353,68.947l2.432,12.144,23.779-30.681Z" transform="translate(-133.239 -50.409)" fill="#ffdfab"/>
      <path id="Trazado_111705" data-name="Trazado 111705" d="M131.279,68.947,157.49,50.409,123.165,61.163Z" transform="translate(-123.165 -50.409)" fill="#fff"/>
      <path id="Trazado_111706" data-name="Trazado 111706" d="M146.628,71.48l23.858-21.071L153.747,82.247Z" transform="translate(-136.161 -50.409)" fill="#fff"/>
    </g>
    <g id="Grupo_63476" data-name="Grupo 63476" transform="translate(168.923 43.039)">
      <path id="Trazado_111707" data-name="Trazado 111707" d="M362.5,385H298.654L291.7,436.3h34.927l1.7-19.926h4.5l1.7,19.926h34.927Z" transform="translate(-264.006 -234.332)" fill="#1b2963"/>
      <path id="Trazado_111708" data-name="Trazado 111708" d="M373.176,405.912,370.34,385H306.5l-.641,4.728C310.634,394.963,329.163,411.02,373.176,405.912Z" transform="translate(-271.848 -234.332)" fill="#141f4a"/>
      <g id="Grupo_63461" data-name="Grupo 63461" transform="translate(62.013 157.101)">
        <line id="Línea_295" data-name="Línea 295" y1="24.399" transform="translate(4.558 0.544)" fill="none" stroke="#090e21" stroke-miterlimit="10" stroke-width="1"/>
        <path id="Trazado_111709" data-name="Trazado 111709" d="M368.631,399.422v12.347A5.287,5.287,0,0,0,373.189,417h0" transform="translate(-368.631 -399.422)" fill="none" stroke="#090e21" stroke-miterlimit="10" stroke-width="1"/>
      </g>
      <path id="Trazado_111710" data-name="Trazado 111710" d="M301.575,403.808l.141-.032C315.167,400.712,316.271,385,316.271,385H304.125Z" transform="translate(-269.477 -234.332)" fill="#090e21"/>
      <path id="Trazado_111711" data-name="Trazado 111711" d="M437.856,403.808l-.142-.032C424.264,400.712,423.16,385,423.16,385h12.146Z" transform="translate(-336.821 -234.332)" fill="#090e21"/>
      <path id="Trazado_111712" data-name="Trazado 111712" d="M346.648,165.053a32.108,32.108,0,0,0-20.606-14.637L306.549,146.2l-8.379-.818-8.379.818L270.3,150.416a32.108,32.108,0,0,0-20.606,14.637l-16.5,27L264.009,207.1l.965,46.151a88.94,88.94,0,0,0,66.394,0l.964-46.151,30.819-15.051Z" transform="translate(-231.6 -101.611)" fill="#31d9e7"/>
      <path id="Trazado_111713" data-name="Trazado 111713" d="M455.421,247.1l14.1-6.884s-1.188-6.372-4.871-9.649a7.576,7.576,0,0,1-2.5-5.057,27.7,27.7,0,0,0-1.3-6.194,2.483,2.483,0,0,0-4.848.7Z" transform="translate(-354.69 -141.605)" fill="#147b84"/>
      <path id="Trazado_111714" data-name="Trazado 111714" d="M370.214,247.515H301.553l-.274-14.871h69.208Z" transform="translate(-269.314 -149.946)" fill="#4badb0"/>
      <line id="Línea_296" data-name="Línea 296" x1="0.798" y2="38.188" transform="translate(100.731 67.084)" fill="none" stroke="#090e21" stroke-miterlimit="10" stroke-width="1"/>
      <path id="Trazado_111715" data-name="Trazado 111715" d="M370.267,291.712h-67.83l-.312-14.871h68.454Z" transform="translate(-269.782 -174.426)" fill="#4badb0"/>
      <path id="Trazado_111716" data-name="Trazado 111716" d="M374.42,148.1l-8.812-1.907-8.379-.818-8.379.818-9.033,1.955c2.39,3.455,10.553,6.686,17.284,6.686C363.865,154.838,372.073,151.577,374.42,148.1Z" transform="translate(-290.659 -101.611)" fill="#147b84"/>
      <path id="Trazado_111717" data-name="Trazado 111717" d="M483.678,240.6l2.563,4.193-30.819,15.05.1-4.927Z" transform="translate(-354.69 -154.353)" fill="#147b84"/>
      <g id="Grupo_63463" data-name="Grupo 63463" transform="translate(60.837 55.184)">
        <rect id="Rectángulo_6528" data-name="Rectángulo 6528" width="20.116" height="33.683" rx="8.113" fill="#fff"/>
        <path id="Trazado_111718" data-name="Trazado 111718" d="M372.037,182.822h0a1.749,1.749,0,0,1-1.749-1.749v-3.787a1.749,1.749,0,0,1,1.749-1.749h0a1.749,1.749,0,0,1,1.749,1.749v3.787A1.749,1.749,0,0,1,372.037,182.822Z" transform="translate(-368.373 -173.499)" fill="#1b2963"/>
        <g id="Grupo_63462" data-name="Grupo 63462" transform="translate(2.727 2.896)">
          <circle id="Elipse_4831" data-name="Elipse 4831" cx="0.937" cy="0.937" r="0.937" fill="#090e21"/>
          <circle id="Elipse_4832" data-name="Elipse 4832" cx="0.937" cy="0.937" r="0.937" transform="translate(0 3.693)" fill="#090e21"/>
        </g>
      </g>
      <path id="Trazado_111719" data-name="Trazado 111719" d="M263.11,331.461c6.348-1.923,9.69-6.791,11.438-11.044l-11.741-4.7-7.446-36.97,5.53-11.463-25.078-12.247-4.464,11.4a25.009,25.009,0,0,0,3.03,23.787L257.317,321.9Z" transform="translate(-229.626 -162.346)" fill="#ff6b6b"/>
      <line id="Línea_297" data-name="Línea 297" x2="1.61" y2="9.021" transform="translate(24.125 107.375)" fill="none" stroke="#7d2929" stroke-miterlimit="10" stroke-width="1"/>
      <path id="Trazado_111720" data-name="Trazado 111720" d="M242.941,264.575l21.931,5.951,1.566-3.247-25.078-12.247-1.41,3.6A4.47,4.47,0,0,0,242.941,264.575Z" transform="translate(-235.173 -162.346)" fill="#ed4e4e"/>
      <g id="Grupo_63464" data-name="Grupo 63464" transform="translate(65.209 64.999)">
        <path id="Trazado_111721" data-name="Trazado 111721" d="M425.414,226.579l-22.143-16.961L392.1,195.223a3.669,3.669,0,0,0-2.654-1.412l-12.614-.841v3.425l9.692,1.332-10.732,3.71,1.04,8.338,2.607-.537.521,3.044,4.757-.761,5.8,2.7s1.9,3.77,5.613,3.2c0,0,13.918,28.272,20.739,38.194s17.194,11.993,25.839,6.1c9.1-6.2,5.63-23.533,4.031-28.249a77.375,77.375,0,0,0-6.512-14.128Z" transform="translate(-375.797 -192.97)" fill="#ff6b6b"/>
        <path id="Trazado_111722" data-name="Trazado 111722" d="M505.725,259.579a73.137,73.137,0,0,0-3.888-7.511l-14.82,7.245,4.739,3.588a7.792,7.792,0,0,0,9.29.087Z" transform="translate(-437.4 -225.703)" fill="#ed4e4e"/>
        <line id="Línea_298" data-name="Línea 298" x2="16.624" y2="12.586" transform="translate(45.54 30.522)" fill="none" stroke="#7d2929" stroke-miterlimit="10" stroke-width="1"/>
        <path id="Trazado_111723" data-name="Trazado 111723" d="M399.853,202.989l1.455-.518,6.02,6.013" transform="translate(-389.121 -198.232)" fill="none" stroke="#7d2929" stroke-miterlimit="10" stroke-width="1"/>
        <path id="Trazado_111724" data-name="Trazado 111724" d="M376.908,217.351l10.542-2.822,6.7,4.218" transform="translate(-376.412 -204.911)" fill="none" stroke="#7d2929" stroke-miterlimit="10" stroke-width="1"/>
        <path id="Trazado_111725" data-name="Trazado 111725" d="M383.972,227.59l6.58-1.485,5.516,2.143" transform="translate(-380.325 -211.323)" fill="none" stroke="#7d2929" stroke-miterlimit="10" stroke-width="1"/>
      </g>
      <path id="Trazado_111726" data-name="Trazado 111726" d="M284.772,247.1l-14.1-6.884s1.188-6.372,4.871-9.649a7.576,7.576,0,0,0,2.5-5.057,27.672,27.672,0,0,1,1.3-6.194,2.483,2.483,0,0,1,4.848.7Z" transform="translate(-252.363 -141.605)" fill="#147b84"/>
      <path id="Trazado_111727" data-name="Trazado 111727" d="M235.753,240.6l-2.563,4.193,30.819,15.05-.1-4.927Z" transform="translate(-231.6 -154.353)" fill="#147b84"/>
      <line id="Línea_299" data-name="Línea 299" x2="0.798" y2="38.188" transform="translate(31.611 66.638)" fill="none" stroke="#090e21" stroke-miterlimit="10" stroke-width="1"/>
      <g id="Grupo_63465" data-name="Grupo 63465" transform="translate(51.154 34.362)">
        <path id="Trazado_111728" data-name="Trazado 111728" d="M367.832,134.519l-.607-10.225h-15.29l-.607,10.225-7.037,1.494c1.979,2.892,9.284,5.631,15.289,5.631s13.311-2.74,15.29-5.631Z" transform="translate(-344.29 -124.294)" fill="#ff6b6b"/>
        <path id="Trazado_111729" data-name="Trazado 111729" d="M376.934,131.087l-.4-6.793H361.24l-.149,2.518a10.542,10.542,0,0,0,9.858,5.825A11.953,11.953,0,0,0,376.934,131.087Z" transform="translate(-353.596 -124.294)" fill="#ed4e4e"/>
        <line id="Línea_300" data-name="Línea 300" x2="5.369" y2="2.469" transform="translate(8.687 12.269)" fill="none" stroke="#7d2929" stroke-miterlimit="10" stroke-width="1"/>
      </g>
      <g id="Grupo_63475" data-name="Grupo 63475" transform="translate(49.173)">
        <path id="Trazado_111730" data-name="Trazado 111730" d="M363.376,67.031a83.365,83.365,0,0,0-12.232.878s.317,8.225,1.036,17.231c.753,9.439,7.424,11.147,11.2,11.147s10.443-1.707,11.2-11.147c.719-9.006,1.036-17.231,1.036-17.231A83.367,83.367,0,0,0,363.376,67.031Z" transform="translate(-346.106 -58.215)" fill="#ff6b6b"/>
        <path id="Trazado_111731" data-name="Trazado 111731" d="M374.266,57.467A4.75,4.75,0,0,0,371.112,53a4.177,4.177,0,0,0-5.945-2.9c-.576-2.61-5.088-3.8-6.884-1.858-1.8-1.946-6.309-.752-6.884,1.858a4.177,4.177,0,0,0-5.945,2.9,4.745,4.745,0,0,0-1.125,8.363l1.581,8.419.93.313,1.292-8a4.761,4.761,0,0,0,3.461-3.22,5.019,5.019,0,0,0,6.692-.642,5.019,5.019,0,0,0,6.692.642,4.759,4.759,0,0,0,3.461,3.22l1.292,8,.929-.313,1.581-8.419A4.743,4.743,0,0,0,374.266,57.467Z" transform="translate(-341.206 -47.27)" fill="#090e21"/>
        <g id="Grupo_63468" data-name="Grupo 63468" transform="translate(4.505 18.431)">
          <g id="Grupo_63466" data-name="Grupo 63466" transform="translate(4.133)">
            <ellipse id="Elipse_4833" data-name="Elipse 4833" cx="3.849" cy="4.071" rx="3.849" ry="4.071" fill="none" stroke="#fff" stroke-miterlimit="10" stroke-width="1"/>
            <ellipse id="Elipse_4834" data-name="Elipse 4834" cx="3.849" cy="4.071" rx="3.849" ry="4.071" transform="translate(9.565)" fill="none" stroke="#fff" stroke-miterlimit="10" stroke-width="1"/>
            <line id="Línea_301" data-name="Línea 301" x2="1.928" transform="translate(7.668 3.56)" fill="none" stroke="#fff" stroke-miterlimit="10" stroke-width="1"/>
          </g>
          <g id="Grupo_63467" data-name="Grupo 63467" transform="translate(0 3.137)">
            <line id="Línea_302" data-name="Línea 302" x1="4.264" fill="none" stroke="#fff" stroke-miterlimit="10" stroke-width="1"/>
            <line id="Línea_303" data-name="Línea 303" x1="4.264" transform="translate(21.265)" fill="none" stroke="#fff" stroke-miterlimit="10" stroke-width="1"/>
          </g>
        </g>
        <path id="Trazado_111732" data-name="Trazado 111732" d="M376.914,98.425v2.334a3.5,3.5,0,0,1-.978,2.347h2.1" transform="translate(-359.838 -75.604)" fill="none" stroke="#7d2929" stroke-miterlimit="10" stroke-width="1"/>
        <g id="Grupo_63469" data-name="Grupo 63469" transform="translate(11.204 23.187)">
          <path id="Trazado_111733" data-name="Trazado 111733" d="M366.939,100.233a.987.987,0,1,1-.987-.987A.987.987,0,0,1,366.939,100.233Z" transform="translate(-364.965 -99.246)" fill="#090e21"/>
          <path id="Trazado_111734" data-name="Trazado 111734" d="M389.709,100.233a.987.987,0,1,1-.987-.987A.987.987,0,0,1,389.709,100.233Z" transform="translate(-377.577 -99.246)" fill="#090e21"/>
        </g>
        <g id="Grupo_63470" data-name="Grupo 63470" transform="translate(12.665 27.255)">
          <path id="Trazado_111735" data-name="Trazado 111735" d="M369.39,109.327s2,2.72,7.215,1.472" transform="translate(-368.877 -108.898)" fill="none" stroke="#7d2929" stroke-miterlimit="10" stroke-width="1"/>
          <line id="Línea_304" data-name="Línea 304" y1="0.821" x2="1.164" fill="none" stroke="#7d2929" stroke-miterlimit="10" stroke-width="1"/>
        </g>
        <g id="Grupo_63471" data-name="Grupo 63471" transform="translate(9.183 16.467)">
          <path id="Trazado_111736" data-name="Trazado 111736" d="M360.434,85.052c2.335-1.6,5.623-.827,6.814.914" transform="translate(-360.434 -84.181)" fill="none" stroke="#090e21" stroke-miterlimit="10" stroke-width="2"/>
          <path id="Trazado_111737" data-name="Trazado 111737" d="M388.232,85.052c-2.335-1.6-5.624-.827-6.814.914" transform="translate(-372.057 -84.181)" fill="none" stroke="#090e21" stroke-miterlimit="10" stroke-width="2"/>
        </g>
        <path id="Trazado_111738" data-name="Trazado 111738" d="M378.264,117.282c0,.327-.552.591-1.234.591s-1.234-.265-1.234-.591.552-.592,1.234-.592S378.264,116.955,378.264,117.282Z" transform="translate(-359.761 -85.721)" fill="#ed4e4e"/>
        <g id="Grupo_63474" data-name="Grupo 63474" transform="translate(0 20.085)">
          <g id="Grupo_63472" data-name="Grupo 63472">
            <path id="Trazado_111739" data-name="Trazado 111739" d="M346.854,96c.6,2.468-.435,4.843-2.321,5.305s-3.906-1.163-4.511-3.632.435-4.843,2.321-5.306S346.25,93.533,346.854,96Z" transform="translate(-339.85 -92.291)" fill="#ff6b6b"/>
            <path id="Trazado_111740" data-name="Trazado 111740" d="M343.48,97.393c.8-2.25,3.385-1.766,4.245,1.5" transform="translate(-341.861 -94.35)" fill="none" stroke="#7d2929" stroke-miterlimit="10" stroke-width="1"/>
          </g>
          <g id="Grupo_63473" data-name="Grupo 63473" transform="translate(27.364)">
            <path id="Trazado_111741" data-name="Trazado 111741" d="M401.36,96c-.6,2.468.435,4.843,2.322,5.305s3.906-1.163,4.511-3.632-.435-4.843-2.321-5.306S401.965,93.533,401.36,96Z" transform="translate(-401.188 -92.291)" fill="#ff6b6b"/>
            <path id="Trazado_111742" data-name="Trazado 111742" d="M408.374,97.393c-.8-2.25-3.384-1.766-4.244,1.5" transform="translate(-402.818 -94.35)" fill="none" stroke="#7d2929" stroke-miterlimit="10" stroke-width="1"/>
          </g>
        </g>
      </g>
    </g>
    <g id="Grupo_63479" data-name="Grupo 63479" transform="translate(310.612 133.946)">
      <path id="Trazado_111743" data-name="Trazado 111743" d="M586.542,294.869l-1.974-2.487L556.561,257.1h0l-.339-.428a3.738,3.738,0,0,0-.97-.86l-7.71-4.733a.2.2,0,0,0-.3.237L550.1,259.9a3.734,3.734,0,0,0,.617,1.14l.339.427h0l28.007,35.286,1.974,2.488a3.512,3.512,0,1,0,5.5-4.367Z" transform="translate(-547.232 -251.044)" opacity="0.22"/>
      <g id="Grupo_63478" data-name="Grupo 63478" transform="translate(0.02 0.011)">
        <path id="Trazado_111744" data-name="Trazado 111744" d="M547.3,251.358l3.821,8.2a3.726,3.726,0,0,0,.743,1.062l4.727,4.727,4.968-4.968-4.727-4.727a3.733,3.733,0,0,0-1.062-.743l-8.2-3.821A.2.2,0,0,0,547.3,251.358Z" transform="translate(-547.278 -251.069)" fill="#ff6b6b"/>
        <path id="Trazado_111745" data-name="Trazado 111745" d="M559.314,263.105c-1.371,1.371-1.933,3.034-1.254,3.714l31.855,31.855,4.968-4.967-31.855-31.855C562.348,261.172,560.685,261.733,559.314,263.105Z" transform="translate(-553.09 -256.882)" fill="#44649e"/>
        <path id="Trazado_111746" data-name="Trazado 111746" d="M548.97,252.761a7.052,7.052,0,0,1,.764-.662l-2.167-1.01a.2.2,0,0,0-.269.269l1.01,2.168A6.968,6.968,0,0,1,548.97,252.761Z" transform="translate(-547.278 -251.069)" fill="#090e21"/>
        <g id="Grupo_63477" data-name="Grupo 63477" transform="translate(6.091 6.091)">
          <line id="Línea_305" data-name="Línea 305" x2="30.203" y2="30.203" transform="translate(0 1.929)" fill="none" stroke="#fff" stroke-miterlimit="10" stroke-width="1"/>
          <line id="Línea_306" data-name="Línea 306" x2="30.203" y2="30.203" transform="translate(1.929)" fill="none" stroke="#fff" stroke-miterlimit="10" stroke-width="1"/>
        </g>
        <path id="Trazado_111747" data-name="Trazado 111747" d="M630.718,334.509c-1.372,1.372-1.933,3.034-1.254,3.714l2.245,2.245a3.512,3.512,0,1,0,4.968-4.967l-2.245-2.246C633.753,332.576,632.09,333.138,630.718,334.509Z" transform="translate(-592.64 -296.431)" fill="#fff"/>
      </g>
    </g>
    <g id="Grupo_63480" data-name="Grupo 63480" transform="translate(145.643 44.998)">
      <path id="Trazado_111748" data-name="Trazado 111748" d="M264.888,422.634c-4.127.859-5.286,2.018-6.145,6.145a.4.4,0,0,1-.785,0c-.859-4.127-2.018-5.286-6.145-6.145a.4.4,0,0,1,0-.785c4.127-.859,5.286-2.017,6.145-6.145a.4.4,0,0,1,.785,0c.859,4.128,2.017,5.286,6.145,6.145A.4.4,0,0,1,264.888,422.634Z" transform="translate(-218.458 -253.122)" fill="#fff"/>
      <path id="Trazado_111749" data-name="Trazado 111749" d="M444.692,58.91c-4.127.86-5.286,2.018-6.145,6.145a.4.4,0,0,1-.785,0c-.859-4.127-2.017-5.286-6.145-6.145a.4.4,0,0,1,0-.785c4.127-.86,5.286-2.018,6.145-6.145a.4.4,0,0,1,.785,0c.86,4.127,2.018,5.286,6.145,6.145A.4.4,0,0,1,444.692,58.91Z" transform="translate(-318.049 -51.661)" fill="#fff"/>
      <path id="Trazado_111750" data-name="Trazado 111750" d="M617.724,382.927c-3.51.73-4.494,1.715-5.225,5.224a.341.341,0,0,1-.667,0c-.731-3.509-1.715-4.494-5.225-5.224a.341.341,0,0,1,0-.668c3.51-.73,4.494-1.715,5.225-5.225a.341.341,0,0,1,.667,0c.731,3.509,1.715,4.494,5.225,5.225A.341.341,0,0,1,617.724,382.927Z" transform="translate(-414.999 -231.73)" fill="#fff"/>
      <path id="Trazado_111751" data-name="Trazado 111751" d="M508.637,66.636c-2.312.481-2.961,1.13-3.443,3.443a.225.225,0,0,1-.44,0c-.482-2.313-1.13-2.962-3.443-3.443a.225.225,0,0,1,0-.44c2.313-.482,2.961-1.13,3.443-3.443a.225.225,0,0,1,.44,0c.481,2.313,1.13,2.961,3.443,3.443A.225.225,0,0,1,508.637,66.636Z" transform="translate(-356.729 -57.706)" fill="#fff"/>
      <path id="Trazado_111752" data-name="Trazado 111752" d="M184.947,151.431c-2.313.481-2.962,1.13-3.443,3.443a.225.225,0,0,1-.44,0c-.481-2.313-1.13-2.962-3.443-3.443a.225.225,0,0,1,0-.44c2.313-.481,2.962-1.13,3.443-3.443a.225.225,0,0,1,.44,0c.481,2.313,1.13,2.962,3.443,3.443A.225.225,0,0,1,184.947,151.431Z" transform="translate(-177.442 -104.672)" fill="#fff"/>
      <path id="Trazado_111753" data-name="Trazado 111753" d="M207.611,410.836c-2.313.482-2.962,1.13-3.443,3.443a.225.225,0,0,1-.44,0c-.481-2.313-1.13-2.961-3.443-3.443a.225.225,0,0,1,0-.44c2.313-.481,2.962-1.13,3.443-3.443a.225.225,0,0,1,.44,0c.481,2.312,1.13,2.961,3.443,3.443A.225.225,0,0,1,207.611,410.836Z" transform="translate(-189.995 -248.352)" fill="#fff"/>
    </g>
  </g>
</svg>
