<svg xmlns="http://www.w3.org/2000/svg" xmlns:xlink="http://www.w3.org/1999/xlink" width="189.53" height="227.71" viewBox="0 0 189.53 227.71">
  <defs>
    <clipPath id="clip-path">
      <circle id="Elipse_4802" data-name="Elipse 4802" cx="20.017" cy="20.017" r="20.017" fill="none"/>
    </clipPath>
  </defs>
  <g id="Grupo_63016" data-name="Grupo 63016" transform="translate(-560.345 4.636)">
    <g id="Grupo_62977" data-name="Grupo 62977" transform="translate(585.152 -4.636)">
      <path id="Trazado_111389" data-name="Trazado 111389" d="M743,87.03H634.221A17.881,17.881,0,0,1,616.36,69.169V57.757A17.882,17.882,0,0,1,634.221,39.9H761.236A17.882,17.882,0,0,1,779.1,57.757V69.169A17.881,17.881,0,0,1,761.236,87.03h-4.948l-5.315,10.629Z" transform="translate(-614.375 -17.801)" fill="#bb83ff"/>
      <g id="Grupo_62965" data-name="Grupo 62965" transform="translate(66.573 27.194)">
        <g id="Grupo_62960" data-name="Grupo 62960" transform="translate(65.474)" style="mix-blend-mode: multiply;isolation: isolate">
          <path id="Trazado_111390" data-name="Trazado 111390" d="M879.9,63.434l4.942-1.647L889,64.925l-.039-5.209,4.269-2.985-4.966-1.573-1.52-4.983-3.03,4.237-5.209-.094L881.6,58.51Z" transform="translate(-878.504 -50.175)" fill="#47286d"/>
        </g>
        <g id="Grupo_62961" data-name="Grupo 62961" transform="translate(49.106)" style="mix-blend-mode: multiply;isolation: isolate">
          <path id="Trazado_111391" data-name="Trazado 111391" d="M846.907,63.434l4.942-1.647,4.158,3.138-.039-5.209,4.269-2.985-4.966-1.573-1.52-4.983-3.031,4.237-5.209-.094,3.093,4.192Z" transform="translate(-845.513 -50.175)" fill="#47286d"/>
        </g>
        <g id="Grupo_62962" data-name="Grupo 62962" transform="translate(32.737)" style="mix-blend-mode: multiply;isolation: isolate">
          <path id="Trazado_111392" data-name="Trazado 111392" d="M813.916,63.434l4.942-1.647,4.159,3.138-.039-5.209,4.269-2.985-4.966-1.573-1.52-4.983-3.031,4.237-5.209-.094,3.093,4.192Z" transform="translate(-812.522 -50.175)" fill="#47286d"/>
        </g>
        <g id="Grupo_62963" data-name="Grupo 62963" transform="translate(16.369)" style="mix-blend-mode: multiply;isolation: isolate">
          <path id="Trazado_111393" data-name="Trazado 111393" d="M780.925,63.434l4.942-1.647,4.158,3.138-.039-5.209,4.269-2.985-4.966-1.573-1.52-4.983-3.031,4.237-5.209-.094,3.093,4.192Z" transform="translate(-779.531 -50.175)" fill="#47286d"/>
        </g>
        <g id="Grupo_62964" data-name="Grupo 62964" style="mix-blend-mode: multiply;isolation: isolate">
          <path id="Trazado_111394" data-name="Trazado 111394" d="M747.934,63.434l4.942-1.647,4.158,3.138L757,59.716l4.269-2.985L756.3,55.158l-1.52-4.983-3.031,4.237-5.209-.094,3.093,4.192Z" transform="translate(-746.54 -50.175)" fill="#47286d"/>
        </g>
      </g>
      <circle id="Elipse_4799" data-name="Elipse 4799" cx="22.327" cy="22.327" r="22.327" transform="translate(9.744 5.722)" fill="#bb83ff"/>
      <circle id="Elipse_4800" data-name="Elipse 4800" cx="20.08" cy="20.08" r="20.08" transform="matrix(0.809, -0.588, 0.588, 0.809, 4.023, 23.609)" fill="#fff"/>
      <g id="Grupo_62966" data-name="Grupo 62966" transform="translate(132.048 25.375)">
        <path id="Trazado_111395" data-name="Trazado 111395" d="M879.9,59.767l4.942-1.647L889,61.258l-.039-5.209,4.269-2.985-4.966-1.573-1.52-4.983-3.03,4.237-5.209-.094,3.093,4.192Z" transform="translate(-878.505 -46.508)" fill="#f9b418"/>
        <path id="Trazado_111396" data-name="Trazado 111396" d="M886.744,46.508l1.52,4.983,4.746,1.5a17.935,17.935,0,0,1-4.717,1.515,17.283,17.283,0,0,1-7.069-.173l-2.719-3.684,5.209.094Z" transform="translate(-878.505 -46.508)" fill="#f9eb18"/>
      </g>
      <g id="Grupo_62967" data-name="Grupo 62967" transform="translate(115.68 25.375)">
        <path id="Trazado_111397" data-name="Trazado 111397" d="M846.908,59.767l4.942-1.647,4.159,3.138-.039-5.209,4.269-2.985-4.966-1.573-1.52-4.983-3.031,4.237-5.209-.094,3.093,4.192Z" transform="translate(-845.514 -46.508)" fill="#f9b418"/>
        <path id="Trazado_111398" data-name="Trazado 111398" d="M853.753,46.508l1.52,4.983,4.746,1.5a17.933,17.933,0,0,1-4.717,1.515,17.283,17.283,0,0,1-7.069-.173l-2.719-3.684,5.209.094Z" transform="translate(-845.514 -46.508)" fill="#f9eb18"/>
      </g>
      <g id="Grupo_62968" data-name="Grupo 62968" transform="translate(99.311 25.375)">
        <path id="Trazado_111399" data-name="Trazado 111399" d="M813.917,59.767l4.942-1.647,4.158,3.138-.039-5.209,4.269-2.985-4.966-1.573-1.52-4.983-3.031,4.237-5.209-.094,3.093,4.192Z" transform="translate(-812.523 -46.508)" fill="#d6d6d6"/>
        <path id="Trazado_111400" data-name="Trazado 111400" d="M820.762,46.508l1.52,4.983,4.746,1.5a17.931,17.931,0,0,1-4.717,1.515,17.281,17.281,0,0,1-7.068-.173l-2.719-3.684,5.209.094Z" transform="translate(-812.523 -46.508)" fill="#fcfcfc"/>
      </g>
      <g id="Grupo_62969" data-name="Grupo 62969" transform="translate(82.942 25.375)">
        <path id="Trazado_111401" data-name="Trazado 111401" d="M780.926,59.767l4.942-1.647,4.158,3.138-.039-5.209,4.269-2.985-4.966-1.573-1.52-4.983-3.031,4.237-5.209-.094,3.093,4.192Z" transform="translate(-779.532 -46.508)" fill="#d6d6d6"/>
        <path id="Trazado_111402" data-name="Trazado 111402" d="M787.771,46.508l1.52,4.983,4.746,1.5a17.931,17.931,0,0,1-4.717,1.515,17.281,17.281,0,0,1-7.068-.173l-2.719-3.684,5.209.094Z" transform="translate(-779.532 -46.508)" fill="#fcfcfc"/>
      </g>
      <g id="Grupo_62970" data-name="Grupo 62970" transform="translate(66.574 25.375)">
        <path id="Trazado_111403" data-name="Trazado 111403" d="M747.935,59.767l4.942-1.647,4.158,3.138L757,56.049l4.269-2.985L756.3,51.491l-1.52-4.983-3.031,4.237-5.209-.094,3.093,4.192Z" transform="translate(-746.541 -46.508)" fill="#d6d6d6"/>
        <path id="Trazado_111404" data-name="Trazado 111404" d="M754.78,46.508l1.52,4.983,4.746,1.5a17.931,17.931,0,0,1-4.717,1.515,17.281,17.281,0,0,1-7.068-.173l-2.719-3.684,5.209.094Z" transform="translate(-746.541 -46.508)" fill="#fcfcfc"/>
      </g>
      <g id="Grupo_62976" data-name="Grupo 62976" transform="translate(12.054 8.031)">
        <g id="Grupo_62975" data-name="Grupo 62975" clip-path="url(#clip-path)">
          <rect id="Rectángulo_6499" data-name="Rectángulo 6499" width="21.334" height="25.552" transform="translate(8.743 15.593)"/>
          <path id="Trazado_111405" data-name="Trazado 111405" d="M655.594,44.477a2.2,2.2,0,1,1-4.272.54,2.2,2.2,0,1,1,4.272-.54Z" transform="translate(-644.031 -26.936)" fill="#c98e59"/>
          <path id="Trazado_111406" data-name="Trazado 111406" d="M692.286,44.477a2.2,2.2,0,1,0,4.272.54,2.2,2.2,0,1,0-4.272-.54Z" transform="translate(-664.672 -26.936)" fill="#c98e59"/>
          <path id="Trazado_111407" data-name="Trazado 111407" d="M676.328,68.053l-2.977,1.436-2.945-1.436V58.525h5.922Z" transform="translate(-653.66 -35.219)" fill="#dbaa79"/>
          <path id="Trazado_111408" data-name="Trazado 111408" d="M672.4,72.088a50.15,50.15,0,0,0-6.946-2.109c-.014,3.814-5.83,4.093-6.078.248,0,0-4.23.17-6.7,1.985s-4.286,9.257-4.286,9.257H676.78S674.357,73.032,672.4,72.088Z" transform="translate(-642.567 -40.99)" fill="#792099"/>
          <g id="Grupo_62971" data-name="Grupo 62971" transform="translate(11.782 35.323)">
            <path id="Trazado_111409" data-name="Trazado 111409" d="M661.874,82.745,660.4,87.9h1.446Z" transform="translate(-660.401 -82.745)" fill="#621582"/>
            <path id="Trazado_111410" data-name="Trazado 111410" d="M689.507,82.964l.348,5.047h1.259Z" transform="translate(-675.066 -82.855)" fill="#621582"/>
          </g>
          <path id="Trazado_111411" data-name="Trazado 111411" d="M675.385,31.482a12.528,12.528,0,0,0,.11-1.642V27.944c0-6.347-4.769-11.54-10.6-11.54h0c-5.828,0-10.6,5.193-10.6,11.54v1.895a12.528,12.528,0,0,0,.11,1.642,6.046,6.046,0,0,0-.505,2.406c0,4.423,8.405,8.009,10.993,8.009s10.993-3.586,10.993-8.009A6.037,6.037,0,0,0,675.385,31.482Z" transform="translate(-645.346 -13.996)" fill="#e5be93"/>
          <path id="Trazado_111412" data-name="Trazado 111412" d="M675.6,50.079h-2.239s0,.861,1.206.861S675.6,50.079,675.6,50.079Z" transform="translate(-655.147 -30.963)" fill="#c98e59"/>
          <path id="Trazado_111413" data-name="Trazado 111413" d="M670.977,53.247a11.319,11.319,0,0,1-4.573-.937c.353,2.712,2.263,4.787,4.573,4.787s4.221-2.075,4.574-4.787A11.321,11.321,0,0,1,670.977,53.247Z" transform="translate(-651.644 -32.088)" fill="#ea9186"/>
          <path id="Trazado_111414" data-name="Trazado 111414" d="M672.233,54.66a8.648,8.648,0,0,1-3.337-.648,3.337,3.337,0,0,0,6.674,0A8.65,8.65,0,0,1,672.233,54.66Z" transform="translate(-652.9 -32.945)" fill="#fbffff"/>
          <path id="Trazado_111415" data-name="Trazado 111415" d="M664.348,46.644c-.045.525-.8.889-1.69.812s-1.572-.563-1.528-1.088.8-.888,1.69-.812S664.393,46.119,664.348,46.644Z" transform="translate(-648.986 -28.679)" fill="#ea9186"/>
          <path id="Trazado_111416" data-name="Trazado 111416" d="M683.515,46.644c.045.525.8.889,1.69.812s1.572-.563,1.528-1.088-.8-.888-1.69-.812S683.47,46.119,683.515,46.644Z" transform="translate(-660.264 -28.679)" fill="#ea9186"/>
          <g id="Grupo_62974" data-name="Grupo 62974" transform="translate(14.484 14.61)">
            <g id="Grupo_62972" data-name="Grupo 62972">
              <path id="Trazado_111417" data-name="Trazado 111417" d="M667.793,42.764c.034.993-.375,1.813-.911,1.831s-1-.772-1.032-1.765.375-1.813.911-1.831S667.76,41.77,667.793,42.764Z" transform="translate(-665.847 -40.997)"/>
              <path id="Trazado_111418" data-name="Trazado 111418" d="M668.545,42.764c-.033-.993-.5-1.784-1.033-1.766-.015,0-.028.008-.043.009a2.968,2.968,0,0,0-.128,1c.033.993.5,1.784,1.032,1.766.015,0,.028-.008.043-.009A2.982,2.982,0,0,0,668.545,42.764Z" transform="translate(-666.599 -40.997)" fill="#2b3333"/>
              <path id="Trazado_111419" data-name="Trazado 111419" d="M668.153,42.381c.013.393-.148.718-.361.725s-.4-.306-.409-.7.148-.718.361-.725S668.139,41.988,668.153,42.381Z" transform="translate(-666.621 -41.342)" fill="#e5e5e5"/>
            </g>
            <g id="Grupo_62973" data-name="Grupo 62973" transform="translate(7.751)">
              <path id="Trazado_111420" data-name="Trazado 111420" d="M683.416,42.764c.033.993-.375,1.813-.911,1.831s-1-.772-1.033-1.765.375-1.813.911-1.831S683.382,41.77,683.416,42.764Z" transform="translate(-681.469 -40.997)"/>
              <path id="Trazado_111421" data-name="Trazado 111421" d="M684.168,42.764c-.034-.993-.5-1.784-1.033-1.766-.014,0-.028.008-.042.009a2.969,2.969,0,0,0-.128,1c.034.993.5,1.784,1.032,1.766.015,0,.028-.008.043-.009A2.967,2.967,0,0,0,684.168,42.764Z" transform="translate(-682.221 -40.997)" fill="#2b3333"/>
              <ellipse id="Elipse_4801" data-name="Elipse 4801" cx="0.385" cy="0.713" rx="0.385" ry="0.713" transform="translate(0.738 0.353) rotate(-1.953)" fill="#e5e5e5"/>
            </g>
          </g>
          <path id="Trazado_111422" data-name="Trazado 111422" d="M665.359,16.463c-5.607-.323-11.784,4.465-10.915,12.776a40.209,40.209,0,0,0,14.458-7.3c.743,2.128,3.018,6.465,7,7.424C676.947,20.555,671.809,16.836,665.359,16.463Z" transform="translate(-645.576 -14.019)"/>
        </g>
      </g>
      <line id="Línea_283" data-name="Línea 283" x2="93.938" transform="translate(60.034 48.06)" fill="none" stroke="#fff" stroke-linecap="round" stroke-linejoin="round" stroke-width="2"/>
      <line id="Línea_284" data-name="Línea 284" x2="93.938" transform="translate(60.034 58.975)" fill="none" stroke="#fff" stroke-linecap="round" stroke-linejoin="round" stroke-width="2"/>
      <path id="Trazado_111423" data-name="Trazado 111423" d="M674.406,111.491H641.991a4.644,4.644,0,0,1-4.631-4.631h0a4.644,4.644,0,0,1,4.631-4.631h32.416a4.644,4.644,0,0,1,4.631,4.631h0A4.644,4.644,0,0,1,674.406,111.491Z" transform="translate(-624.956 -49.208)" fill="#fff"/>
    </g>
    <g id="Grupo_62996" data-name="Grupo 62996" transform="translate(558.36 76.17)">
      <path id="Trazado_111425" data-name="Trazado 111425" d="M598.455,238.363H707.236A17.881,17.881,0,0,0,725.1,220.5V209.09a17.882,17.882,0,0,0-17.861-17.861H580.221A17.882,17.882,0,0,0,562.36,209.09V220.5a17.881,17.881,0,0,0,17.861,17.861h4.948l5.315,10.629Z" transform="translate(-560.375 -174.856)" fill="#f17781"/>
      <g id="Grupo_62983" data-name="Grupo 62983" transform="translate(19.935 21.473)">
        <g id="Grupo_62978" data-name="Grupo 62978" transform="translate(65.474)" style="mix-blend-mode: multiply;isolation: isolate">
          <path id="Trazado_111426" data-name="Trazado 111426" d="M731.9,214.768l4.942-1.647L741,216.259l-.039-5.209,4.269-2.985-4.966-1.573-1.52-4.983-3.031,4.237-5.209-.094,3.093,4.192Z" transform="translate(-730.504 -201.508)" fill="#47286d"/>
        </g>
        <g id="Grupo_62979" data-name="Grupo 62979" transform="translate(49.106)" style="mix-blend-mode: multiply;isolation: isolate">
          <path id="Trazado_111427" data-name="Trazado 111427" d="M698.907,214.768l4.942-1.647,4.158,3.138-.039-5.209,4.269-2.985-4.966-1.573-1.52-4.983-3.031,4.237-5.209-.094,3.094,4.192Z" transform="translate(-697.513 -201.508)" fill="#47286d"/>
        </g>
        <g id="Grupo_62980" data-name="Grupo 62980" transform="translate(32.737)" style="mix-blend-mode: multiply;isolation: isolate">
          <path id="Trazado_111428" data-name="Trazado 111428" d="M665.916,214.768l4.942-1.647,4.158,3.138-.039-5.209,4.269-2.985-4.966-1.573-1.52-4.983-3.031,4.237-5.209-.094,3.093,4.192Z" transform="translate(-664.522 -201.508)" fill="#47286d"/>
        </g>
        <g id="Grupo_62981" data-name="Grupo 62981" transform="translate(16.369)" style="mix-blend-mode: multiply;isolation: isolate">
          <path id="Trazado_111429" data-name="Trazado 111429" d="M632.925,214.768l4.942-1.647,4.158,3.138-.039-5.209,4.269-2.985-4.966-1.573-1.52-4.983-3.031,4.237-5.209-.094,3.093,4.192Z" transform="translate(-631.531 -201.508)" fill="#47286d"/>
        </g>
        <g id="Grupo_62982" data-name="Grupo 62982" style="mix-blend-mode: multiply;isolation: isolate">
          <path id="Trazado_111430" data-name="Trazado 111430" d="M599.934,214.768l4.942-1.647,4.158,3.138L609,211.049l4.269-2.985-4.966-1.573-1.52-4.983-3.031,4.237-5.209-.094,3.093,4.192Z" transform="translate(-598.54 -201.508)" fill="#47286d"/>
        </g>
      </g>
      <circle id="Elipse_4803" data-name="Elipse 4803" cx="22.327" cy="22.327" r="22.327" transform="translate(112.309)" fill="#f17781"/>
      <circle id="Elipse_4804" data-name="Elipse 4804" cx="20.039" cy="20.039" r="20.039" transform="translate(114.596 2.288)" fill="#fff"/>
      <g id="Grupo_62984" data-name="Grupo 62984" transform="translate(85.41 19.653)">
        <path id="Trazado_111431" data-name="Trazado 111431" d="M731.9,211.1l4.942-1.647L741,212.591l-.039-5.209,4.269-2.985-4.966-1.573-1.52-4.983-3.03,4.237-5.209-.094,3.093,4.192Z" transform="translate(-730.505 -197.841)" fill="#f9b418"/>
        <path id="Trazado_111432" data-name="Trazado 111432" d="M738.744,197.841l1.52,4.983,4.746,1.5a17.937,17.937,0,0,1-4.717,1.515,17.291,17.291,0,0,1-7.069-.174l-2.719-3.684,5.209.094Z" transform="translate(-730.505 -197.841)" fill="#f9eb18"/>
      </g>
      <g id="Grupo_62985" data-name="Grupo 62985" transform="translate(69.041 19.653)">
        <path id="Trazado_111433" data-name="Trazado 111433" d="M698.908,211.1l4.942-1.647,4.159,3.138-.039-5.209,4.269-2.985-4.966-1.573-1.52-4.983-3.031,4.237-5.209-.094,3.093,4.192Z" transform="translate(-697.514 -197.841)" fill="#f9b418"/>
        <path id="Trazado_111434" data-name="Trazado 111434" d="M705.753,197.841l1.52,4.983,4.746,1.5a17.934,17.934,0,0,1-4.717,1.515,17.291,17.291,0,0,1-7.069-.174l-2.719-3.684,5.209.094Z" transform="translate(-697.514 -197.841)" fill="#f9eb18"/>
      </g>
      <g id="Grupo_62986" data-name="Grupo 62986" transform="translate(52.673 19.653)">
        <path id="Trazado_111435" data-name="Trazado 111435" d="M665.917,211.1l4.942-1.647,4.158,3.138-.039-5.209,4.269-2.985-4.966-1.573-1.52-4.983-3.031,4.237-5.209-.094,3.093,4.192Z" transform="translate(-664.523 -197.841)" fill="#f9b418"/>
        <path id="Trazado_111436" data-name="Trazado 111436" d="M672.762,197.841l1.52,4.983,4.746,1.5a17.93,17.93,0,0,1-4.717,1.515,17.288,17.288,0,0,1-7.068-.174l-2.719-3.684,5.209.094Z" transform="translate(-664.523 -197.841)" fill="#f9eb18"/>
      </g>
      <g id="Grupo_62987" data-name="Grupo 62987" transform="translate(36.304 19.653)">
        <path id="Trazado_111437" data-name="Trazado 111437" d="M632.926,211.1l4.942-1.647,4.158,3.138-.039-5.209,4.269-2.985-4.966-1.573-1.52-4.983-3.031,4.237-5.209-.094,3.093,4.192Z" transform="translate(-631.532 -197.841)" fill="#f9b418"/>
        <path id="Trazado_111438" data-name="Trazado 111438" d="M639.771,197.841l1.52,4.983,4.746,1.5a17.932,17.932,0,0,1-4.717,1.515,17.288,17.288,0,0,1-7.068-.174l-2.719-3.684,5.209.094Z" transform="translate(-631.532 -197.841)" fill="#f9eb18"/>
      </g>
      <g id="Grupo_62988" data-name="Grupo 62988" transform="translate(19.936 19.653)">
        <path id="Trazado_111439" data-name="Trazado 111439" d="M599.935,211.1l4.942-1.647,4.159,3.138L609,207.382l4.269-2.985-4.966-1.573-1.52-4.983-3.031,4.237-5.209-.094,3.093,4.192Z" transform="translate(-598.541 -197.841)" fill="#f9b418"/>
        <path id="Trazado_111440" data-name="Trazado 111440" d="M606.78,197.841l1.52,4.983,4.746,1.5a17.932,17.932,0,0,1-4.717,1.515,17.288,17.288,0,0,1-7.068-.174l-2.719-3.684,5.209.094Z" transform="translate(-598.541 -197.841)" fill="#f9eb18"/>
      </g>
      <g id="Grupo_62995" data-name="Grupo 62995" transform="translate(114.618 2.31)">
        <g id="Grupo_62994" data-name="Grupo 62994" clip-path="url(#clip-path)">
          <g id="Grupo_62993" data-name="Grupo 62993" transform="translate(5.822 0.944)">
            <path id="Trazado_111441" data-name="Trazado 111441" d="M846.734,195.811a2.2,2.2,0,1,0,2.471-2.379A2.454,2.454,0,0,0,846.734,195.811Z" transform="translate(-824.084 -179.213)" fill="#c98e59"/>
            <path id="Trazado_111442" data-name="Trazado 111442" d="M810.042,195.811a2.2,2.2,0,1,1-2.471-2.379A2.454,2.454,0,0,1,810.042,195.811Z" transform="translate(-803.444 -179.213)" fill="#c98e59"/>
            <path id="Trazado_111443" data-name="Trazado 111443" d="M824.378,215.957l2.977,4.865,2.945-4.865v-6.1h-5.922Z" transform="translate(-812.833 -187.496)" fill="#dbaa79"/>
            <path id="Trazado_111444" data-name="Trazado 111444" d="M804.3,223.015c1.961-.944,7.624-1.888,7.624-1.888l2.033,1.525c.145.218,1.6,3.122,1.6,3.122l1.961-3.413,2.106-1.234s4.719.944,7.188,2.759,2.687,8.823,2.687,8.823H801.109S802.343,223.959,804.3,223.015Z" transform="translate(-801.109 -193.174)" fill="#fc3224"/>
            <path id="Trazado_111445" data-name="Trazado 111445" d="M824.182,224.562l1.722-1.55-3.293-6.422-1.452,2.4Z" transform="translate(-811.211 -190.888)" fill="#faffff"/>
            <path id="Trazado_111446" data-name="Trazado 111446" d="M832.255,224.562l-1.722-1.55,3.293-6.422,1.452,2.4Z" transform="translate(-815.934 -190.888)" fill="#faffff"/>
            <g id="Grupo_62989" data-name="Grupo 62989" transform="translate(4.647 34.379)">
              <path id="Trazado_111447" data-name="Trazado 111447" d="M843.35,234.078l1.473,5.156h-1.446Z" transform="translate(-827.039 -234.078)" fill="#e20500"/>
              <path id="Trazado_111448" data-name="Trazado 111448" d="M812.082,234.3l-.348,5.047h-1.259Z" transform="translate(-810.475 -234.189)" fill="#e20500"/>
            </g>
            <path id="Trazado_111449" data-name="Trazado 111449" d="M809.008,182.816a12.529,12.529,0,0,1-.11-1.642v-1.895c0-6.347,4.769-11.54,10.6-11.54h0c5.828,0,10.6,5.193,10.6,11.54v1.895a12.456,12.456,0,0,1-.11,1.642,6.034,6.034,0,0,1,.505,2.405c0,4.424-6.868,7.837-10.993,8.009s-10.993-3.586-10.993-8.009A6.034,6.034,0,0,1,809.008,182.816Z" transform="translate(-804.834 -166.274)" fill="#e5be93"/>
            <path id="Trazado_111450" data-name="Trazado 111450" d="M828.842,201.413h2.239s0,.861-1.206.861S828.842,201.413,828.842,201.413Z" transform="translate(-815.078 -183.241)" fill="#c98e59"/>
            <path id="Trazado_111451" data-name="Trazado 111451" d="M826.527,204.641a11.142,11.142,0,0,0,4.5-.922c-.347,2.669-2.228,4.711-4.5,4.711s-4.155-2.042-4.5-4.711A11.144,11.144,0,0,0,826.527,204.641Z" transform="translate(-811.648 -184.403)" fill="#eaaa86"/>
            <path id="Trazado_111452" data-name="Trazado 111452" d="M827.114,205.558a10.179,10.179,0,0,0,3.924-.762,3.924,3.924,0,0,1-7.849,0A10.18,10.18,0,0,0,827.114,205.558Z" transform="translate(-812.234 -184.945)" fill="#fbffff"/>
            <path id="Trazado_111453" data-name="Trazado 111453" d="M823.724,165.906c.947.431,1.809-1.119,1.809-1.119l.086,1.808,2.153-.258s-1.464.775-.861,1.55,3.359,1.808,3.7,6.029c.28,3.435-.276,4.921-.4,7.412-.638-1.039-.484-6.408-3.307-8.446s-4.268.33-5.675.715a5.136,5.136,0,0,1-3.885-.027c-4.392-2.153-6.8-1.636-8.155,5.435C807.447,167.2,816.145,164.959,823.724,165.906Z" transform="translate(-805.069 -164.787)"/>
            <path id="Trazado_111454" data-name="Trazado 111454" d="M839.1,197.977c.045.525.8.889,1.69.812s1.572-.563,1.528-1.088-.8-.889-1.69-.812S839.055,197.453,839.1,197.977Z" transform="translate(-820.25 -180.957)" fill="#ea9186"/>
            <ellipse id="Elipse_4805" data-name="Elipse 4805" cx="0.954" cy="1.615" rx="0.954" ry="1.615" transform="translate(7.663 17.695) rotate(-85.101)" fill="#ea9186"/>
            <g id="Grupo_62992" data-name="Grupo 62992" transform="translate(10.03 13.666)">
              <g id="Grupo_62990" data-name="Grupo 62990" transform="translate(7.751)">
                <path id="Trazado_111455" data-name="Trazado 111455" d="M836.949,194.1c-.034.993.375,1.813.911,1.831s1-.773,1.032-1.766-.375-1.813-.911-1.831S836.982,193.1,836.949,194.1Z" transform="translate(-836.947 -192.331)"/>
                <path id="Trazado_111456" data-name="Trazado 111456" d="M836.949,194.1c.033-.993.5-1.784,1.033-1.766.015,0,.028.008.043.01a2.963,2.963,0,0,1,.128,1c-.033.993-.5,1.784-1.032,1.765-.015,0-.028-.008-.043-.009A2.982,2.982,0,0,1,836.949,194.1Z" transform="translate(-836.947 -192.33)" fill="#2b3333"/>
                <path id="Trazado_111457" data-name="Trazado 111457" d="M837.784,193.714c-.013.393.148.718.361.725s.4-.306.409-.7-.148-.718-.361-.725S837.8,193.321,837.784,193.714Z" transform="translate(-837.368 -192.675)" fill="#e5e5e5"/>
              </g>
              <g id="Grupo_62991" data-name="Grupo 62991">
                <path id="Trazado_111458" data-name="Trazado 111458" d="M821.326,194.1c-.033.993.375,1.813.911,1.831s1-.773,1.033-1.766-.375-1.813-.911-1.831S821.36,193.1,821.326,194.1Z" transform="translate(-821.324 -192.331)"/>
                <path id="Trazado_111459" data-name="Trazado 111459" d="M821.326,194.1c.034-.993.5-1.784,1.033-1.766.014,0,.028.008.042.01a2.967,2.967,0,0,1,.129,1c-.034.993-.5,1.784-1.033,1.765-.014,0-.028-.008-.042-.009A2.966,2.966,0,0,1,821.326,194.1Z" transform="translate(-821.324 -192.33)" fill="#2b3333"/>
                <path id="Trazado_111460" data-name="Trazado 111460" d="M822.162,193.714c-.013.393.148.718.36.725s.4-.306.409-.7-.148-.718-.361-.725S822.176,193.321,822.162,193.714Z" transform="translate(-821.746 -192.675)" fill="#e5e5e5"/>
              </g>
            </g>
          </g>
        </g>
      </g>
      <line id="Línea_285" data-name="Línea 285" x1="93.938" transform="translate(12.735 42.338)" fill="none" stroke="#fff" stroke-linecap="round" stroke-linejoin="round" stroke-width="2"/>
      <line id="Línea_286" data-name="Línea 286" x1="93.938" transform="translate(12.735 55.9)" fill="none" stroke="#fff" stroke-linecap="round" stroke-linejoin="round" stroke-width="2"/>
      <path id="Trazado_111461" data-name="Trazado 111461" d="M789.991,262.824h32.416a4.644,4.644,0,0,0,4.631-4.631h0a4.644,4.644,0,0,0-4.631-4.631H789.991a4.644,4.644,0,0,0-4.631,4.631h0A4.644,4.644,0,0,0,789.991,262.824Z" transform="translate(-672.734 -206.263)" fill="#fff"/>
    </g>
    <g id="Grupo_63015" data-name="Grupo 63015" transform="translate(585.152 144.433)">
      <path id="Trazado_111463" data-name="Trazado 111463" d="M743,385.03H634.221a17.881,17.881,0,0,1-17.861-17.861V355.757A17.882,17.882,0,0,1,634.221,337.9H761.236A17.882,17.882,0,0,1,779.1,355.757v11.411a17.881,17.881,0,0,1-17.861,17.861h-4.948l-5.315,10.629Z" transform="translate(-614.375 -317.017)" fill="#31d9e7"/>
      <g id="Grupo_63002" data-name="Grupo 63002" transform="translate(66.573 25.979)">
        <g id="Grupo_62997" data-name="Grupo 62997" transform="translate(65.474)" style="mix-blend-mode: multiply;isolation: isolate">
          <path id="Trazado_111464" data-name="Trazado 111464" d="M879.9,361.434l4.942-1.647L889,362.925l-.039-5.209,4.269-2.985-4.966-1.573-1.52-4.983-3.03,4.237-5.209-.094,3.093,4.192Z" transform="translate(-878.504 -348.175)" fill="#47286d"/>
        </g>
        <g id="Grupo_62998" data-name="Grupo 62998" transform="translate(49.106)" style="mix-blend-mode: multiply;isolation: isolate">
          <path id="Trazado_111465" data-name="Trazado 111465" d="M846.907,361.434l4.942-1.647,4.158,3.138-.039-5.209,4.269-2.985-4.966-1.573-1.52-4.983-3.031,4.237-5.209-.094,3.093,4.192Z" transform="translate(-845.513 -348.175)" fill="#47286d"/>
        </g>
        <g id="Grupo_62999" data-name="Grupo 62999" transform="translate(32.737)" style="mix-blend-mode: multiply;isolation: isolate">
          <path id="Trazado_111466" data-name="Trazado 111466" d="M813.916,361.434l4.942-1.647,4.159,3.138-.039-5.209,4.269-2.985-4.966-1.573-1.52-4.983-3.031,4.237-5.209-.094,3.093,4.192Z" transform="translate(-812.522 -348.175)" fill="#47286d"/>
        </g>
        <g id="Grupo_63000" data-name="Grupo 63000" transform="translate(16.369)" style="mix-blend-mode: multiply;isolation: isolate">
          <path id="Trazado_111467" data-name="Trazado 111467" d="M780.925,361.434l4.942-1.647,4.158,3.138-.039-5.209,4.269-2.985-4.966-1.573-1.52-4.983-3.031,4.237-5.209-.094,3.093,4.192Z" transform="translate(-779.531 -348.175)" fill="#47286d"/>
        </g>
        <g id="Grupo_63001" data-name="Grupo 63001" style="mix-blend-mode: multiply;isolation: isolate">
          <path id="Trazado_111468" data-name="Trazado 111468" d="M747.934,361.434l4.942-1.647,4.158,3.138L757,357.716l4.269-2.985-4.966-1.573-1.52-4.983-3.031,4.237-5.209-.094,3.093,4.192Z" transform="translate(-746.54 -348.175)" fill="#47286d"/>
        </g>
      </g>
      <circle id="Elipse_4807" data-name="Elipse 4807" cx="22.327" cy="22.327" r="22.327" transform="translate(9.744 4.506)" fill="#31d9e7"/>
      <circle id="Elipse_4808" data-name="Elipse 4808" cx="20.092" cy="20.092" r="20.092" transform="translate(5.238 17.486) rotate(-25.795)" fill="#fff"/>
      <g id="Grupo_63003" data-name="Grupo 63003" transform="translate(132.048 24.159)">
        <path id="Trazado_111469" data-name="Trazado 111469" d="M879.9,357.767l4.942-1.647L889,359.258l-.039-5.209,4.269-2.985-4.966-1.573-1.52-4.983-3.03,4.237-5.209-.094,3.093,4.192Z" transform="translate(-878.505 -344.508)" fill="#f9b418"/>
        <path id="Trazado_111470" data-name="Trazado 111470" d="M886.744,344.508l1.52,4.983,4.746,1.5a17.934,17.934,0,0,1-4.717,1.515,17.283,17.283,0,0,1-7.069-.173l-2.719-3.684,5.209.094Z" transform="translate(-878.505 -344.508)" fill="#f9eb18"/>
      </g>
      <g id="Grupo_63004" data-name="Grupo 63004" transform="translate(115.68 24.159)">
        <path id="Trazado_111471" data-name="Trazado 111471" d="M846.908,357.767l4.942-1.647,4.159,3.138-.039-5.209,4.269-2.985-4.966-1.573-1.52-4.983-3.031,4.237-5.209-.094,3.093,4.192Z" transform="translate(-845.514 -344.508)" fill="#f9b418"/>
        <path id="Trazado_111472" data-name="Trazado 111472" d="M853.753,344.508l1.52,4.983,4.746,1.5a17.933,17.933,0,0,1-4.717,1.515,17.282,17.282,0,0,1-7.069-.173l-2.719-3.684,5.209.094Z" transform="translate(-845.514 -344.508)" fill="#f9eb18"/>
      </g>
      <g id="Grupo_63005" data-name="Grupo 63005" transform="translate(99.311 24.159)">
        <path id="Trazado_111473" data-name="Trazado 111473" d="M813.917,357.767l4.942-1.647,4.158,3.138-.039-5.209,4.269-2.985-4.966-1.573-1.52-4.983-3.031,4.237-5.209-.094,3.093,4.192Z" transform="translate(-812.523 -344.508)" fill="#f9b418"/>
        <path id="Trazado_111474" data-name="Trazado 111474" d="M820.762,344.508l1.52,4.983,4.746,1.5a17.93,17.93,0,0,1-4.717,1.515,17.28,17.28,0,0,1-7.068-.173l-2.719-3.684,5.209.094Z" transform="translate(-812.523 -344.508)" fill="#f9eb18"/>
      </g>
      <g id="Grupo_63006" data-name="Grupo 63006" transform="translate(82.942 24.159)">
        <path id="Trazado_111475" data-name="Trazado 111475" d="M780.926,357.767l4.942-1.647,4.158,3.138-.039-5.209,4.269-2.985-4.966-1.573-1.52-4.983-3.031,4.237-5.209-.094,3.093,4.192Z" transform="translate(-779.532 -344.508)" fill="#f9b418"/>
        <path id="Trazado_111476" data-name="Trazado 111476" d="M787.771,344.508l1.52,4.983,4.746,1.5a17.931,17.931,0,0,1-4.717,1.515,17.28,17.28,0,0,1-7.068-.173l-2.719-3.684,5.209.094Z" transform="translate(-779.532 -344.508)" fill="#f9eb18"/>
      </g>
      <g id="Grupo_63007" data-name="Grupo 63007" transform="translate(66.574 24.159)">
        <path id="Trazado_111477" data-name="Trazado 111477" d="M747.935,357.767l4.942-1.647,4.158,3.138L757,354.049l4.269-2.985-4.966-1.573-1.52-4.983-3.031,4.237-5.209-.094,3.093,4.192Z" transform="translate(-746.541 -344.508)" fill="#d6d6d6"/>
        <path id="Trazado_111478" data-name="Trazado 111478" d="M754.78,344.508l1.52,4.983,4.746,1.5a17.931,17.931,0,0,1-4.717,1.515,17.28,17.28,0,0,1-7.068-.173l-2.719-3.684,5.209.094Z" transform="translate(-746.541 -344.508)" fill="#fcfcfc"/>
      </g>
      <g id="Grupo_63014" data-name="Grupo 63014" transform="translate(12.054 6.815)">
        <g id="Grupo_63013" data-name="Grupo 63013" clip-path="url(#clip-path)">
          <g id="Grupo_63012" data-name="Grupo 63012" transform="translate(5.822 3.396)">
            <path id="Trazado_111479" data-name="Trazado 111479" d="M655.594,342.477a2.2,2.2,0,1,1-2.471-2.379A2.453,2.453,0,0,1,655.594,342.477Z" transform="translate(-649.853 -328.332)" fill="#634731"/>
            <path id="Trazado_111480" data-name="Trazado 111480" d="M692.286,342.477a2.2,2.2,0,1,0,2.471-2.379A2.453,2.453,0,0,0,692.286,342.477Z" transform="translate(-670.493 -328.332)" fill="#634731"/>
            <path id="Trazado_111481" data-name="Trazado 111481" d="M676.328,362.624l-2.977,4.865-2.945-4.865v-6.1h5.922Z" transform="translate(-659.482 -336.615)" fill="#634731"/>
            <path id="Trazado_111482" data-name="Trazado 111482" d="M673.585,369.681c-1.961-.944-7.624-1.888-7.624-1.888l-2.033,1.525c-.145.218-1.6,3.122-1.6,3.122l-1.961-3.413-2.106-1.234s-4.719.944-7.188,2.759-2.687,8.823-2.687,8.823H676.78S675.545,370.625,673.585,369.681Z" transform="translate(-648.389 -342.292)" fill="#fc9a24"/>
            <g id="Grupo_63008" data-name="Grupo 63008" transform="translate(5.96 31.927)">
              <path id="Trazado_111483" data-name="Trazado 111483" d="M661.874,380.745,660.4,385.9h1.446Z" transform="translate(-660.401 -380.745)" fill="#e26900"/>
              <path id="Trazado_111484" data-name="Trazado 111484" d="M693.007,380.964l.348,5.047h1.259Z" transform="translate(-676.83 -380.855)" fill="#e26900"/>
            </g>
            <path id="Trazado_111485" data-name="Trazado 111485" d="M675.385,330.485a12.528,12.528,0,0,0,.11-1.642v-1.895A10.271,10.271,0,0,0,664.9,316.4h0a10.271,10.271,0,0,0-10.6,10.552v1.895a12.434,12.434,0,0,0,.11,1.642,6.037,6.037,0,0,0-.506,2.406c0,4.423,6.868,7.837,10.993,8.009s10.993-3.586,10.993-8.009A6.037,6.037,0,0,0,675.385,330.485Z" transform="translate(-651.168 -316.396)" fill="#7f6044"/>
            <path id="Trazado_111486" data-name="Trazado 111486" d="M675.6,348.079h-2.239s0,.861,1.206.861S675.6,348.079,675.6,348.079Z" transform="translate(-660.969 -332.359)" fill="#634731"/>
            <path id="Trazado_111487" data-name="Trazado 111487" d="M671.05,351.308a11.143,11.143,0,0,1-4.5-.922,4.985,4.985,0,0,0,4.7,4.553c2.274,0,3.953-1.884,4.3-4.553A11.146,11.146,0,0,1,671.05,351.308Z" transform="translate(-657.538 -333.522)" fill="#9b7657"/>
            <path id="Trazado_111488" data-name="Trazado 111488" d="M671.636,352.224a10.17,10.17,0,0,1-3.924-.762,4.207,4.207,0,0,0,4.125,3.027c1.982,0,2.977-.827,3.723-3.027A10.171,10.171,0,0,1,671.636,352.224Z" transform="translate(-658.125 -334.064)" fill="#fbffff"/>
            <g id="Grupo_63011" data-name="Grupo 63011" transform="translate(8.662 11.214)">
              <g id="Grupo_63009" data-name="Grupo 63009">
                <path id="Trazado_111489" data-name="Trazado 111489" d="M667.793,340.763c.034.993-.375,1.813-.911,1.831s-1-.772-1.032-1.765.375-1.813.911-1.831S667.76,339.77,667.793,340.763Z" transform="translate(-665.847 -338.997)"/>
                <path id="Trazado_111490" data-name="Trazado 111490" d="M668.545,340.763c-.033-.993-.5-1.784-1.033-1.766-.015,0-.028.008-.043.009a2.968,2.968,0,0,0-.128,1c.033.993.5,1.784,1.032,1.766.015,0,.028-.008.043-.009A2.982,2.982,0,0,0,668.545,340.763Z" transform="translate(-666.599 -338.997)" fill="#2b3333"/>
                <path id="Trazado_111491" data-name="Trazado 111491" d="M668.153,340.381c.013.393-.148.718-.361.725s-.4-.306-.409-.7.148-.718.361-.725S668.139,339.988,668.153,340.381Z" transform="translate(-666.621 -339.342)" fill="#e5e5e5"/>
              </g>
              <g id="Grupo_63010" data-name="Grupo 63010" transform="translate(7.751)">
                <path id="Trazado_111492" data-name="Trazado 111492" d="M683.416,340.763c.033.993-.375,1.813-.911,1.831s-1-.772-1.033-1.765.375-1.813.911-1.831S683.382,339.77,683.416,340.763Z" transform="translate(-681.469 -338.997)"/>
                <path id="Trazado_111493" data-name="Trazado 111493" d="M684.168,340.763c-.034-.993-.5-1.784-1.033-1.766-.014,0-.028.008-.042.009a2.969,2.969,0,0,0-.128,1c.034.993.5,1.784,1.032,1.766.015,0,.028-.008.043-.009A2.967,2.967,0,0,0,684.168,340.763Z" transform="translate(-682.221 -338.997)" fill="#2b3333"/>
                <ellipse id="Elipse_4809" data-name="Elipse 4809" cx="0.385" cy="0.713" rx="0.385" ry="0.713" transform="translate(0.738 0.353) rotate(-1.953)" fill="#e5e5e5"/>
              </g>
            </g>
            <path id="Trazado_111494" data-name="Trazado 111494" d="M666.659,334.527a.562.562,0,0,0-.485-.278,3.944,3.944,0,0,0-2.849.774c-.354.3.1.852.486.63a4.858,4.858,0,0,1,2.363-.281.56.56,0,0,0,.485-.278A.569.569,0,0,0,666.659,334.527Z" transform="translate(-655.85 -325.383)" fill="#191919"/>
            <path id="Trazado_111495" data-name="Trazado 111495" d="M683.723,334.9c-.17-.366-.708-.5-1.143-.576a4.265,4.265,0,0,0-1.791-.061c-.638.16-.6.956.128.985.631.025,1.3.061,1.931.047C683.054,335.293,683.88,335.241,683.723,334.9Z" transform="translate(-664.488 -325.363)" fill="#191919"/>
          </g>
        </g>
      </g>
      <line id="Línea_287" data-name="Línea 287" x2="93.938" transform="translate(60.034 46.844)" fill="none" stroke="#fff" stroke-linecap="round" stroke-linejoin="round" stroke-width="2"/>
      <line id="Línea_288" data-name="Línea 288" x2="93.938" transform="translate(60.034 57.759)" fill="none" stroke="#fff" stroke-linecap="round" stroke-linejoin="round" stroke-width="2"/>
      <path id="Trazado_111496" data-name="Trazado 111496" d="M674.406,409.491H641.991a4.644,4.644,0,0,1-4.631-4.631h0a4.644,4.644,0,0,1,4.631-4.631h32.416a4.644,4.644,0,0,1,4.631,4.631h0A4.644,4.644,0,0,1,674.406,409.491Z" transform="translate(-624.956 -348.424)" fill="#fff"/>
    </g>
  </g>
</svg>
