<svg xmlns="http://www.w3.org/2000/svg" width="213.687" height="225.667" viewBox="0 0 213.687 225.667">
  <g id="rating" transform="translate(-13.589)">
    <g id="Grupo_61131" data-name="Grupo 61131" transform="translate(16.895 3.306)">
      <path id="Trazado_107980" data-name="Trazado 107980" d="M404.507,354.342V303.815a32.639,32.639,0,0,0-29.3-32.466c-1.1-.112-2.21.16-3.337.16-18.024,0-31.894,14.508-31.894,32.532V354.13Z" transform="translate(-199.427 -155.041)" fill="#855b51"/>
      <path id="Trazado_107981" data-name="Trazado 107981" d="M374.46,271.189a32.636,32.636,0,0,0-29.108,32.444v50.154l-7.052.163V303.634A32.634,32.634,0,0,1,370.934,271,32.2,32.2,0,0,1,374.46,271.189Z" transform="translate(-198.488 -154.861)" fill="#724d44"/>
      <path id="Trazado_107982" data-name="Trazado 107982" d="M409.891,438.042V403.848l-1.352-4,1.352-11.737H391.675l.771,18.566-.771,6.171v25.189l9.1,1.371Z" transform="translate(-228.337 -220.357)" fill="#c48958"/>
      <path id="Trazado_107983" data-name="Trazado 107983" d="M368.157,432.191l-17.9,7.087,2.174,24.783h25.187l-1.315-1.446c-6.274-6.9-7.5-15.822-7.734-25.114C368.516,435.457,368.157,434.255,368.157,432.191Z" transform="translate(-205.174 -245.006)" fill="#f9e478"/>
      <path id="Trazado_107984" data-name="Trazado 107984" d="M368.523,436.411l-.057.022-17.771,7.3-.525-5.977,18.3-7.519.769,3.073Z" transform="translate(-205.126 -243.915)" fill="#ffb65f"/>
      <path id="Trazado_107985" data-name="Trazado 107985" d="M440.138,437.942l-18.695-7.7c0,11.289-.122,22.9-7.858,31.361l-1.253,1.371h30.222a4.412,4.412,0,0,0,4.412-4.412V448.141A11.029,11.029,0,0,0,440.138,437.942Z" transform="translate(-239.89 -243.914)" fill="#f9e478"/>
      <path id="Trazado_107986" data-name="Trazado 107986" d="M391.676,388.12h0s0,15.705,0,15.706,0,6.984.057,9.029l4.58-1.882a1.763,1.763,0,0,0,1.093-1.631v-1.957a.879.879,0,0,1,1.029-.865,14.03,14.03,0,0,0,2.339.2,17.228,17.228,0,0,0,9.11-2.869V388.119H391.676Z" transform="translate(-228.336 -220.359)" fill="#b27a49"/>
      <path id="Trazado_107987" data-name="Trazado 107987" d="M367.551,325.873c.039,1.588-.57,2.815-.237,4.436,2.411,11.712,11.906,23.482,19.786,23.482,9.111,0,20.364-15.71,20.364-28.892,0-8.158-2.752-15.361-7.974-19.665-1.087-.9-1.981-.813-3.279-1.44a.711.711,0,0,0-1,.473,27.443,27.443,0,0,1-20.757,19.806l-6.345,1.1C367.78,325.242,367.551,325.873,367.551,325.873Z" transform="translate(-214.658 -173.161)" fill="#c48958"/>
      <path id="Trazado_107988" data-name="Trazado 107988" d="M375.181,327.35a31.676,31.676,0,0,0,23.708-23.2,17.768,17.768,0,0,0-3.576-2.3.711.711,0,0,0-1,.473A27.326,27.326,0,0,1,373.7,322.2l-7,1.5a.705.705,0,0,0-.557.7v0a27.379,27.379,0,0,0,.573,4.829Z" transform="translate(-214.06 -172.078)" fill="#b27a49"/>
      <path id="Trazado_107989" data-name="Trazado 107989" d="M90.911,441.752l-25.523-9.093c-4.8,5.546-13.13,4.91-17.933-.638l-18.424,7.656c-4.132,1.7-6.941,4.991-6.941,9.459v9.977a4.412,4.412,0,0,0,4.412,4.412l.877.441h19.79l8.82-1.13,9.4,1.13H81.667l9.244-1.637Z" transform="translate(-21.649 -244.911)" fill="#bae6ef"/>
      <path id="Trazado_107990" data-name="Trazado 107990" d="M97.692,398.126H81l.075,13.251c1.586,1.83,2.631,3.967,4.772,4.589a12.04,12.04,0,0,0,12.48-3.675l.006-.007v-7Z" transform="translate(-54.594 -225.955)" fill="#f2d1a5"/>
      <path id="Trazado_107991" data-name="Trazado 107991" d="M50.647,434.985l-19.194,8.687-1.354.567a5.277,5.277,0,0,0-3.279,4.9v14.831H25.5a4.411,4.411,0,0,1-4.412-4.412V449.135a11.03,11.03,0,0,1,6.827-10.195l17.853-6.919A24.844,24.844,0,0,0,50.647,434.985Z" transform="translate(-21.09 -244.911)" fill="#31d9e7"/>
      <path id="Trazado_107992" data-name="Trazado 107992" d="M95.06,438.813,74.247,462.971H56.031l-15.156-20.3-2.939-4.485,9.978-3.47,8.121-4.48a12.046,12.046,0,0,0,18.212,0v0Z" transform="translate(-30.511 -243.915)" fill="#f8f7f7"/>
      <path id="Trazado_107993" data-name="Trazado 107993" d="M84.73,398.13H79v15.055l4.553,2.832a6.732,6.732,0,0,1,1.177-.059v-7.366a.879.879,0,0,1,1.017-.867,15.317,15.317,0,0,0,2.355.186,18.649,18.649,0,0,0,9.11-2.622V398.13Z" transform="translate(-53.476 -225.957)" fill="#f2bb88"/>
      <g id="Grupo_61126" data-name="Grupo 61126" transform="translate(6.832 186.325)">
        <path id="Trazado_107994" data-name="Trazado 107994" d="M61.012,433.92v0L40.12,442.674l-3.53-4.729,18.692-7.7A11.551,11.551,0,0,0,61.012,433.92Z" transform="translate(-36.59 -430.24)" fill="#e8e8e8"/>
      </g>
      <path id="Trazado_107995" data-name="Trazado 107995" d="M94.014,313.744c0-13.863-7.114-22.318-20.977-22.318S52.06,299.88,52.06,313.744a28.3,28.3,0,0,0,1.011,8.772c3.449,10.721,12.413,19.992,19.966,19.992,7.49,0,16.356-9.1,19.871-19.7A28.45,28.45,0,0,0,94.014,313.744Z" transform="translate(-38.41 -166.284)" fill="#f2d1a5"/>
      <path id="Trazado_107996" data-name="Trazado 107996" d="M84.315,294.2A14.212,14.212,0,0,0,80.3,295.24l-.017.045a8.451,8.451,0,0,0-.852-3.029,27.672,27.672,0,0,0-6.953-.83c-13.864,0-21.418,8.454-21.418,22.318a28.8,28.8,0,0,0,1.456,8.77c.307-.279.64-.591,1-.961,2.745-2.8,7.362-7.451,12.807-9.828,3.33-1.454,6.148-1.855,8.327-3.75a.885.885,0,0,1,1.354.216c.993,1.7,3.2,4.049,7.662,6.7a28.8,28.8,0,0,1,8.681,7.919,28.958,28.958,0,0,0,1.547-9.064c0-9.182-3.317-15.987-9.582-19.539Z" transform="translate(-37.851 -166.283)" fill="#f2bb88"/>
      <path id="Trazado_107997" data-name="Trazado 107997" d="M112.785,286.125a14.582,14.582,0,0,1,5.567-1.612,12.506,12.506,0,0,1,9.142,3.512c8.339,8.444,3.961,21.464.758,27.179a.881.881,0,0,1-1.431.158,54.1,54.1,0,0,0-10.841-9.35,20.388,20.388,0,0,1-4.421-3.8c-1.412-1.63-1.855-3.756-2.474-5.533Z" transform="translate(-70.3 -162.418)" fill="#8e868e"/>
      <path id="Trazado_107998" data-name="Trazado 107998" d="M116.7,292.783a24.757,24.757,0,0,1-5.9,9.423,15.907,15.907,0,0,1-3.081-5.175l4.267-11.389a14.691,14.691,0,0,1,5.6-1.133,18.154,18.154,0,0,1-.886,8.273Z" transform="translate(-69.537 -162.416)" fill="#766d78"/>
      <path id="Trazado_107999" data-name="Trazado 107999" d="M72.966,273.337a10.213,10.213,0,0,0-7.262-4.223c-5.12-.815-11.515,1.55-17.39,5.844-11.075,8.094-8.81,23.953-5.336,30.994a.883.883,0,0,0,1.511.132c.606-.836,1.566-1.452,2.914-2.828a35.573,35.573,0,0,1,13.248-8.506C71.762,290.706,76.758,279.26,72.966,273.337Z" transform="translate(-31.737 -153.717)" fill="#8e868e"/>
      <path id="Trazado_108000" data-name="Trazado 108000" d="M65.622,269.064a27.026,27.026,0,0,0-11.953,5.029c-9.608,7.021-9,20.94-6.4,29.1a30.232,30.232,0,0,0-2.918,3.429.885.885,0,0,1-1.512-.132c-3.473-7.043-5.981-24.3,5.1-32.4,5.9-4.311,12.557-5.866,17.683-5.029Z" transform="translate(-31.604 -153.656)" fill="#766d78"/>
      <path id="Trazado_108001" data-name="Trazado 108001" d="M82.741,141.27,72.5,141.213a4.729,4.729,0,0,0-3.316,1.358l-6.9,6.779a2.364,2.364,0,0,1-3.328-.012L52.2,142.594a4.727,4.727,0,0,0-3.34-1.381H38.226a8.51,8.51,0,0,1-8.51-8.51V102.91c0-3.727,1.955-7.335,5.29-8.486a8.5,8.5,0,0,1,2.779-.464H91.959v39.185a8.493,8.493,0,0,1-.465,2.782C90.341,139.26,86.467,141.27,82.741,141.27Z" transform="translate(-25.914 -55.852)" fill="#f8f7f7"/>
      <path id="Trazado_108002" data-name="Trazado 108002" d="M90.933,136.517a8.509,8.509,0,0,1-8.039,5.73H72.386a4.741,4.741,0,0,0-3.319,1.357l-7.339,7.22a2.365,2.365,0,0,1-3.328-.013l-7.2-7.184a4.742,4.742,0,0,0-3.341-1.38H37.227a8.51,8.51,0,0,1-8.507-8.511V103.064a8.5,8.5,0,0,1,5.73-8.044v38.716a2.78,2.78,0,0,0,2.777,2.781H47.862a10.389,10.389,0,0,1,7.387,3.054l3.6,3.6a1.768,1.768,0,0,0,2.486.009l3.716-3.658a10.459,10.459,0,0,1,7.334-3Z" transform="translate(-25.357 -56.445)" fill="#e8e8e8"/>
      <g id="Grupo_61127" data-name="Grupo 61127" transform="translate(20.904 53.354)">
        <path id="Trazado_108003" data-name="Trazado 108003" d="M82.382,130.669a1.028,1.028,0,0,0,1.4-.009,7.862,7.862,0,0,1,5.394-2.109,7.708,7.708,0,0,1,7.7,7.736c-.08,5.567-6.02,10.33-10.079,12.94a15.96,15.96,0,0,1-3.254,1.324,1.03,1.03,0,0,1-.931.01c-2.43-1.2-12.888-6.526-12.731-14.292a7.409,7.409,0,0,1,4.3-6.94,7.553,7.553,0,0,1,.866-.493,7.4,7.4,0,0,1,1.983-.286,7.709,7.709,0,0,1,5.358,2.117Z" transform="translate(-69.279 -128.552)" fill="#f17781"/>
        <path id="Trazado_108004" data-name="Trazado 108004" d="M86.035,149.589c-1.432.921-2.636,1.573-3.257,1.9a1.018,1.018,0,0,1-.93.013c-2.433-1.2-13.487-7.087-13.328-14.853A8.043,8.043,0,0,1,74.28,129.2a7.9,7.9,0,0,0-1.794,4.8C72.358,140.294,81.327,146.729,86.035,149.589Z" transform="translate(-68.517 -128.914)" fill="#dc4955"/>
      </g>
      <path id="Trazado_108005" data-name="Trazado 108005" d="M395.145,141.212H384.637a4.729,4.729,0,0,0-3.316,1.358l-6.9,7.22a2.364,2.364,0,0,1-3.328-.012l-6.758-7.184a4.728,4.728,0,0,0-3.34-1.381H350.363a8.51,8.51,0,0,1-8.51-8.51l.562-37.872L351,93.959h44.589a8.51,8.51,0,0,1,8.51,8.51v30.674a8.5,8.5,0,0,1-.465,2.782C402.479,139.259,398.871,141.212,395.145,141.212Z" transform="translate(-200.475 -55.852)" fill="#f8f7f7"/>
      <g id="Grupo_61128" data-name="Grupo 61128" transform="translate(158.481 53.354)">
        <path id="Trazado_108006" data-name="Trazado 108006" d="M394.521,130.669a1.028,1.028,0,0,0,1.4-.009,7.862,7.862,0,0,1,5.393-2.109,7.709,7.709,0,0,1,7.7,7.736c-.08,5.567-6.02,10.33-10.079,12.94a15.96,15.96,0,0,1-3.254,1.324,1.03,1.03,0,0,1-.931.01c-2.43-1.2-12.888-6.526-12.731-14.292a7.409,7.409,0,0,1,4.3-6.94,7.559,7.559,0,0,1,.865-.493,7.4,7.4,0,0,1,1.983-.286A7.708,7.708,0,0,1,394.521,130.669Z" transform="translate(-381.418 -128.552)" fill="#f17781"/>
        <path id="Trazado_108007" data-name="Trazado 108007" d="M398.173,149.589c-1.433.921-2.636,1.573-3.257,1.9a1.018,1.018,0,0,1-.93.013c-2.433-1.2-13.487-7.087-13.328-14.853a8.043,8.043,0,0,1,5.761-7.449,7.9,7.9,0,0,0-1.794,4.8C384.5,140.294,393.466,146.729,398.173,149.589Z" transform="translate(-380.656 -128.914)" fill="#dc4955"/>
      </g>
      <path id="Trazado_108008" data-name="Trazado 108008" d="M384.516,135.924a10.41,10.41,0,0,0-7.334,3l-4.337,4.271a.886.886,0,0,1-1.243,0l-4.218-4.214A10.452,10.452,0,0,0,360,135.924H349.361a2.781,2.781,0,0,1-2.781-2.781v-15.43a.883.883,0,0,1,.214-.571,12.077,12.077,0,0,0,1.135-1.573,17.57,17.57,0,0,0,2.508-9.049V93.959H340.85v39.183a8.511,8.511,0,0,0,8.511,8.511H360a4.742,4.742,0,0,1,3.341,1.38l7.2,7.184a2.365,2.365,0,0,0,3.328.013l7.339-7.22a4.739,4.739,0,0,1,3.315-1.357h10.508a8.511,8.511,0,0,0,8.044-5.73H384.516Z" transform="translate(-199.914 -55.852)" fill="#e8e8e8"/>
      <path id="Trazado_108009" data-name="Trazado 108009" d="M232.222,68.948l-12.739.431a7.092,7.092,0,0,0-5.285,2.363l-7.4,8.141a3.31,3.31,0,0,1-4.951-.02l-6.842-8.285a7.092,7.092,0,0,0-5.323-2.406l-14.6.817a11.822,11.822,0,0,1-11.821-11.821V19.321A11.816,11.816,0,0,1,175.079,7.5h58.49a11.819,11.819,0,0,1,11.819,11.819V58.17a11.765,11.765,0,0,1-1.688,6.09c-2.068,3.433-7.18,4.688-11.479,4.688Z" transform="translate(-100.597 -7.5)" fill="#f8f7f7"/>
      <path id="Trazado_108010" data-name="Trazado 108010" d="M243.7,66.4a11.823,11.823,0,0,1-10.133,5.73H219.478a7.106,7.106,0,0,0-5.289,2.362l-7.378,8.247a3.306,3.306,0,0,1-4.95-.018l-7.206-8.185a7.087,7.087,0,0,0-5.324-2.407h-14.25A11.822,11.822,0,0,1,163.26,60.311V21.463a11.822,11.822,0,0,1,5.73-10.133V60.311a6.093,6.093,0,0,0,6.091,6.091h14.25a12.814,12.814,0,0,1,9.626,4.35l4.421,5.02a1.319,1.319,0,0,0,1.975,0l4.571-5.1a12.809,12.809,0,0,1,9.556-4.271Z" transform="translate(-100.598 -9.642)" fill="#e8e8e8"/>
      <path id="Trazado_108011" data-name="Trazado 108011" d="M229.537,47.206a1.578,1.578,0,0,0,2.153-.013,12.064,12.064,0,0,1,8.275-3.235,11.826,11.826,0,0,1,11.809,11.869c-.129,8.953-10.136,16.551-16.344,20.409a29.2,29.2,0,0,1-3.982,1.861,1.578,1.578,0,0,1-1.428.015c-3.729-1.84-20.008-9.692-19.768-21.606.1-5.115,2.781-10.355,7.5-11.947a11.366,11.366,0,0,1,3.563-.6A11.824,11.824,0,0,1,229.537,47.206Z" transform="translate(-126.876 -27.889)" fill="#f17781"/>
      <path id="Trazado_108012" data-name="Trazado 108012" d="M234.393,77c-1.807,1.124-3.292,1.93-4.117,2.358a1.583,1.583,0,0,1-1.428.018C225.119,77.536,208.159,68.509,208.4,56.6a12.332,12.332,0,0,1,8.321-11.266,12.143,12.143,0,0,0-3.473,8.18C213.042,63.7,227.781,73.283,234.393,77Z" transform="translate(-125.839 -28.656)" fill="#dc4955"/>
      <path id="Trazado_108013" data-name="Trazado 108013" d="M253.142,357.911H230.2l1.085,15.3L230.2,381.3l0,0c1.035,1.194,1.758,2.607,3.05,3.462a16.088,16.088,0,0,0,16.6.619c1.333-.8,2.2-2.829,3.284-4.077l.007-.008v-9.717l-.927-1.522Z" transform="translate(-138.033 -203.465)" fill="#e3a76f"/>
      <path id="Trazado_108014" data-name="Trazado 108014" d="M237.425,422.472l-12-4.945-11.953-3.634c-6.052,6.985-16.892,7.616-22.941.628l-23.072,7.951a13.237,13.237,0,0,0-8.194,12.238l.441,18.236,4.406.881h28.958l9.373-2.124,8.306,2.124h34.872V434.71A13.237,13.237,0,0,0,237.425,422.472Z" transform="translate(-98.363 -234.773)" fill="#bb83ff"/>
      <path id="Trazado_108015" data-name="Trazado 108015" d="M235.93,357.91H230.2V381.3c.719.831.4,2.231,1.234,2.864.955.721,3.087.647,4.152,1.112h0l0-10.878a.881.881,0,0,1,1.082-.859,23.057,23.057,0,0,0,5,.763,25.135,25.135,0,0,0,11.473-2.72V357.911H235.93Z" transform="translate(-138.034 -203.465)" fill="#d6995c"/>
      <path id="Trazado_108016" data-name="Trazado 108016" d="M194.291,415.486l-13.269,5.676-13.382,5.515a7.481,7.481,0,0,0-4.65,6.938v19.12h-5.73v-19.12a13.233,13.233,0,0,1,8.194-12.235l11.94-4.919,5.447-1.682,6.33-2.841A13.043,13.043,0,0,0,194.291,415.486Z" transform="translate(-97.242 -233.678)" fill="#b3e59f"/>
      <path id="Trazado_108017" data-name="Trazado 108017" d="M250.478,415.893c-.286.335-.48.555-.5.577A61.165,61.165,0,0,0,235.8,451.7v.489H218.122v-.317A61.147,61.147,0,0,0,207.2,420.622a52.611,52.611,0,0,0-3-4.384l-.132-.172,11.519-4.642a13.864,13.864,0,0,0,5.39,3.523,15.183,15.183,0,0,0,17.547-3.972l0,0Z" transform="translate(-123.417 -233.138)" fill="#f8f7f7"/>
      <path id="Trazado_108018" data-name="Trazado 108018" d="M220.341,414.946l-13.774,5.677q-1.633-2.34-3.5-4.531l-.132-.172,12.015-4.95a15.155,15.155,0,0,0,3.561,3.024q.178.112.357.212a15.222,15.222,0,0,0,1.468.74Z" transform="translate(-122.789 -233.138)" fill="#e8e8e8"/>
      <path id="Trazado_108019" data-name="Trazado 108019" d="M249.429,261.224c0-16.6-8.35-29.906-24.952-29.906s-24.13,13.419-24.13,30.022c0,2.771-1.267,5.671-.77,8.513,2.481,14.184,11.069,27.917,24.9,27.917,14.727,0,23.509-15.571,25.306-30.677.228-1.923-.353-3.994-.353-5.869Z" transform="translate(-120.843 -132.669)" fill="#e3a76f"/>
      <path id="Trazado_108020" data-name="Trazado 108020" d="M249.322,261.38c0-12.14-4.843-22.592-13.935-27.337a.444.444,0,0,1-.78-.394,25.307,25.307,0,0,0-10.935-2.33c-16.6,0-25.649,13.459-25.649,30.061a49.409,49.409,0,0,0,.751,8.473,11.805,11.805,0,0,1,1.417-1.359c4.343-4.087,10.575-4.233,11.238-8.507a.884.884,0,0,1,1.108-.738c4.94,1.371,12.962-1.759,15.645-7.191a.88.88,0,0,1,1.377-.261,9.625,9.625,0,0,0,7.246,1.991.885.885,0,0,1,.931.591c2.494,7.291,9.333,4.616,11.239,12.714A48.407,48.407,0,0,0,249.322,261.38Z" transform="translate(-120.039 -132.669)" fill="#d6995c"/>
      <g id="Grupo_61129" data-name="Grupo 61129" transform="translate(67.329 84.625)">
        <path id="Trazado_108021" data-name="Trazado 108021" d="M238.073,221.008c-.231-.067-.663-.149-1.021-.211a.437.437,0,0,1-.326-.612,9.255,9.255,0,0,0-14.9-10.5.438.438,0,0,1-.743-.223A11.235,11.235,0,0,0,203,202.877a.443.443,0,0,1-.623-.062,9.245,9.245,0,0,0-16.255,4.7.442.442,0,0,1-.414.386,13.2,13.2,0,0,0-3,.522c-5.468,1.621-8.862,6.92-8.862,12.914a11.871,11.871,0,0,0,3.376,8.328.421.421,0,0,1,.111.311,39.222,39.222,0,0,0,.415,8.954c1.322,7.052,6.753,8.993,6.753,8.993,0-2.079,1.008-2.875,2.169-3.834,2.7-2.228,7.349-2.63,8.523-6.738a.431.431,0,0,1,.485-.316,22.637,22.637,0,0,0,3.138.371,15.869,15.869,0,0,0,14.813-10.18.423.423,0,0,1,.729-.1,10.8,10.8,0,0,0,11.4,3.709.433.433,0,0,1,.532.29c2.705,8.837,9.473,5.985,9.473,14.233,4.433-2,7.083-8.845,8.346-13.392a8.907,8.907,0,0,0-6.042-10.956Z" transform="translate(-173.849 -199.5)" fill="#855b51"/>
      </g>
      <g id="Grupo_61130" data-name="Grupo 61130" transform="translate(66.735 93.55)">
        <path id="Trazado_108022" data-name="Trazado 108022" d="M185.917,255.412A5.29,5.29,0,0,0,184,259.791a12.665,12.665,0,0,1-7.535-9.3,39.812,39.812,0,0,1-.458-8.916.418.418,0,0,0-.11-.309,13.216,13.216,0,0,1,6.06-21.518,13.211,13.211,0,0,0-1.212,18.873.418.418,0,0,1,.11.309,39.812,39.812,0,0,0,.458,8.917A12.32,12.32,0,0,0,185.917,255.412Z" transform="translate(-172.5 -219.75)" fill="#724d44"/>
      </g>
    </g>
    <g id="Grupo_61133" data-name="Grupo 61133" transform="translate(13.589 0)">
      <g id="Grupo_61132" data-name="Grupo 61132" transform="translate(0 0)">
        <path id="Trazado_108023" data-name="Trazado 108023" d="M388.328,149.907a4.349,4.349,0,0,0,3.922-.043c3.512-1.831,14.982-8.52,15.113-17.724a11.069,11.069,0,0,0-17.1-9.3,10.961,10.961,0,0,0-6.007-1.785,11.394,11.394,0,0,0-11.1,10.975C372.963,141.577,384.72,148.127,388.328,149.907Zm-4.1-22.245h.031a4.413,4.413,0,0,1,3.036,1.217h0a4.342,4.342,0,0,0,5.924,0,4.464,4.464,0,0,1,7.532,3.162c-.063,4.356-6.235,8.97-10.534,11.4-4.345-2.339-10.543-6.844-10.453-11.285A4.691,4.691,0,0,1,384.228,127.662Z" transform="translate(-214.673 -67.696)" fill="#47286d"/>
        <path id="Trazado_108024" data-name="Trazado 108024" d="M76.191,149.907a4.349,4.349,0,0,0,3.921-.043c3.512-1.831,14.981-8.52,15.114-17.725a11.069,11.069,0,0,0-17.1-9.3,10.966,10.966,0,0,0-6.085-1.785,11.23,11.23,0,0,0-11.026,10.975c-.192,9.552,11.565,16.1,15.173,17.882Zm-4.1-22.245h.031a4.411,4.411,0,0,1,3.036,1.217h0a4.342,4.342,0,0,0,5.924,0,4.464,4.464,0,0,1,7.532,3.162c-.063,4.356-6.235,8.97-10.534,11.4-4.345-2.339-10.542-6.844-10.453-11.285A4.69,4.69,0,0,1,72.091,127.662Z" transform="translate(-40.112 -67.696)" fill="#47286d"/>
        <path id="Trazado_108025" data-name="Trazado 108025" d="M33.031,92.413H43.666a1.415,1.415,0,0,1,1,.415l7.2,7.185a5.687,5.687,0,0,0,7.98.028l7.339-7.22a1.413,1.413,0,0,1,1-.409H78.694A11.829,11.829,0,0,0,90.51,80.6V68.2a15.057,15.057,0,0,0,5.132.9h14.252a3.789,3.789,0,0,1,2.842,1.284l7.206,8.186a6.619,6.619,0,0,0,4.939,2.244h.026a6.62,6.62,0,0,0,4.93-2.2l7.38-8.248a3.789,3.789,0,0,1,2.821-1.261h14.094a15.068,15.068,0,0,0,4.659-.737V80.6a11.829,11.829,0,0,0,11.816,11.816h10.635a1.415,1.415,0,0,1,1,.415l7.2,7.185a5.687,5.687,0,0,0,7.981.028l7.339-7.22a1.414,1.414,0,0,1,1-.408h10.508A11.829,11.829,0,0,0,228.087,80.6V49.922a11.829,11.829,0,0,0-11.815-11.816H169.257V15.125A15.142,15.142,0,0,0,154.132,0H127.2a3.306,3.306,0,1,0,0,6.611h26.93a8.523,8.523,0,0,1,8.513,8.513V53.975a8.523,8.523,0,0,1-8.513,8.514H140.038a10.411,10.411,0,0,0-7.749,3.464L124.9,74.2,117.7,66.016a10.4,10.4,0,0,0-7.8-3.527H95.642a8.523,8.523,0,0,1-8.514-8.514V15.125a8.523,8.523,0,0,1,8.514-8.513h16.133a3.306,3.306,0,0,0,0-6.611H95.642A15.142,15.142,0,0,0,80.517,15.125V38.107H33.031A11.829,11.829,0,0,0,21.215,49.923V80.6A11.829,11.829,0,0,0,33.031,92.413ZM216.272,44.719a5.21,5.21,0,0,1,5.2,5.2V80.6a5.21,5.21,0,0,1-5.2,5.2H205.764a7.985,7.985,0,0,0-5.634,2.306l-6.674,6.566-6.538-6.525a7.981,7.981,0,0,0-5.675-2.347H170.607a5.21,5.21,0,0,1-5.2-5.2V64.048a15.063,15.063,0,0,0,3.854-10.073V44.718h47.015Zm-188.445,5.2a5.21,5.21,0,0,1,5.2-5.2H80.517v9.257A15.053,15.053,0,0,0,83.9,63.494V80.6a5.21,5.21,0,0,1-5.2,5.2H68.186a7.987,7.987,0,0,0-5.634,2.306l-6.674,6.566-6.538-6.525A7.981,7.981,0,0,0,43.666,85.8H33.03a5.21,5.21,0,0,1-5.2-5.2V49.923Z" transform="translate(-17.854 0)" fill="#47286d"/>
        <path id="Trazado_108026" data-name="Trazado 108026" d="M200.9,51.562c-.275,13.613,16.994,23.2,22.291,25.814a4.9,4.9,0,0,0,4.42-.048c5.169-2.694,22.049-12.507,22.238-25.652.28-7.724-6.766-15.389-15.151-15.222a15.336,15.336,0,0,0-9.318,3.132,15.133,15.133,0,0,0-9.318-3.132A15.451,15.451,0,0,0,200.9,51.562Zm15.211-8.5h.061a8.528,8.528,0,0,1,5.868,2.348h0a4.891,4.891,0,0,0,6.675,0,8.739,8.739,0,0,1,5.984-2.347c4.059-.071,8.652,3.6,8.54,8.515-.105,7.318-9.538,14.952-17.906,19.471C216.839,66.7,207.357,59.19,207.507,51.7A8.9,8.9,0,0,1,216.109,43.066Z" transform="translate(-118.339 -20.385)" fill="#47286d"/>
        <path id="Trazado_108027" data-name="Trazado 108027" d="M225.281,307.605v-48.15a35.952,35.952,0,0,0-52.342-31.987,3.306,3.306,0,0,0,3.021,5.881,29,29,0,0,1,13.381-3.223,29.362,29.362,0,0,1,29.329,29.329v42.319c-.09-.039-.176-.085-.268-.122h0l-16.648-6.86v-6.462c6.362-6.352,11.253-16.539,11.253-25.91,0-12.069-5.373-21.552-14.373-25.368a3.312,3.312,0,0,0-2.562-.007,3.439,3.439,0,0,0-1.958,2.345,23.847,23.847,0,0,1-18.266,18.178l-7.566,1.619a3.834,3.834,0,0,0-2.606,3.894c.229,9.28,5.039,19.117,11.251,25.29v6.421l-13.151,5.419a16.463,16.463,0,0,0-3.764-3.4V259.454a29.143,29.143,0,0,1,5.3-16.816,3.305,3.305,0,1,0-5.413-3.8,35.719,35.719,0,0,0-6.494,20.612v34.3l-18.09-7.454V273.74c8.282-6.708,13.189-18.777,14.1-30.65,4.334-3.11,6.865-9.4,8.264-14.435a12.263,12.263,0,0,0-1.609-10.1,12.117,12.117,0,0,0-4.979-4.272,12.679,12.679,0,0,0,.148-3.37,12.554,12.554,0,0,0-17.895-10.206,14.55,14.55,0,0,0-19.917-6.026,12.565,12.565,0,0,0-19.707,5.988,16.529,16.529,0,0,0-9.933,26.35,41.752,41.752,0,0,0,.563,8.562,15.729,15.729,0,0,0,7.718,10.833,54.164,54.164,0,0,0,1.262,6.4,3.484,3.484,0,0,0,4.036,2.36,3.305,3.305,0,0,0,2.36-4.036,47.589,47.589,0,0,1-1.267-6.867c-.146-1.278.331-1.84,3.23-3.255,1.961-.938,4.464-2.136,6.021-4.6,6.586.734,13.945-2.932,17.521-8.554a14.785,14.785,0,0,0,9.2,2.427,15.332,15.332,0,0,0,5.9,6.506c1.969,1.357,2.576,1.779,2.587,4.274-.684,15.449-9.232,31.4-22.382,31.4-7.267,0-12.146-4.618-14.96-8.491a3.306,3.306,0,0,0-5.349,3.885,30.847,30.847,0,0,0,5.536,5.9V286.3l-21.906,9.026a16.525,16.525,0,0,0-6.61,4.948l-13.3-5.48V284.628a38.5,38.5,0,0,0,10.732-16.813,3.3,3.3,0,0,0,2.314-1.486c3.437-5.368,10.038-21.648-.545-32.364-4.159-4.211-10.011-5.1-14.839-4.173a10.452,10.452,0,0,0-.692-1.273c-4.464-6.975-16-7.953-26.269-2.226a3.306,3.306,0,1,0,3.221,5.773c7.7-4.294,15.255-3.459,17.48.016.921,1.439.98,3.651.162,6.07a17.749,17.749,0,0,1-10.823,10.454,38.815,38.815,0,0,0-14.94,9.779c-1.243-4.36-1.959-10.589-.252-16.25a3.306,3.306,0,1,0-6.33-1.908c-3.05,10.116-.062,21.718,2.919,26.374a3.3,3.3,0,0,0,2.393,1.5,38.6,38.6,0,0,0,10.642,16.5v10.191c-.3.133-16.512,6.788-16.834,6.945a14.284,14.284,0,0,0-8.689,13.17v10.417a7.727,7.727,0,0,0,7.718,7.718H219.559a7.726,7.726,0,0,0,7.718-7.718V314.906a14.31,14.31,0,0,0-2-7.3Zm-85.548-81.983a3.305,3.305,0,0,0-4.2-2.253,7.5,7.5,0,0,1-8.524-2.931,3.305,3.305,0,0,0-5.877.824,12.535,12.535,0,0,1-11.935,8.643,22.5,22.5,0,0,1-2.906-.382,3.306,3.306,0,0,0-3.848,2.536c-.285,1.294-1.267,1.879-3.607,3A13.465,13.465,0,0,0,93.3,239.1a9.041,9.041,0,0,1-2.45-4.737,36.927,36.927,0,0,1-.4-8.225,3.306,3.306,0,0,0-.87-2.5,9.911,9.911,0,0,1,6.978-16.642,3.306,3.306,0,0,0,3.194-3,5.94,5.94,0,0,1,10.654-3.027,3.306,3.306,0,0,0,4.81.486,7.929,7.929,0,0,1,13.1,5.063,3.306,3.306,0,0,0,5.829,1.739,5.9,5.9,0,0,1,5.126-2.132,5.949,5.949,0,0,1,4.675,8.784,3.305,3.305,0,0,0,2.552,4.88,5.55,5.55,0,0,1,4.071,2.433,5.657,5.657,0,0,1,.739,4.659,31.2,31.2,0,0,1-3.354,8.125,12.823,12.823,0,0,0-3.876-3.653C142.181,230.05,140.684,229.018,139.733,225.622Zm37.5,38.411a30.485,30.485,0,0,0,22.078-18.977c4.5,3.509,7.088,9.725,7.088,17.364,0,11.863-10.323,25.586-17.059,25.586-6.242,0-15.563-11.683-16.9-22.948Zm-62.569,62.4a64.953,64.953,0,0,0-12.307-31.581l5.929-2.443a18.461,18.461,0,0,0,12.246,4.651h0a18.466,18.466,0,0,0,12.253-4.65l5.835,2.4a64.986,64.986,0,0,0-12.41,31.618Zm30.293-29.009,9.743,4.015a9.9,9.9,0,0,1,6.148,9.182v15.812H132.874A58.284,58.284,0,0,1,144.954,297.422Zm-24.425-18.335a22.7,22.7,0,0,0,8.17-1.494v9.6a11.86,11.86,0,0,1-8.166,3.256h0a11.86,11.86,0,0,1-8.164-3.253V277.6A22.854,22.854,0,0,0,120.529,279.087Zm-46.92,47.343H67.844l5.765-6.693Zm.039-16.869-14.53,16.869H44.075L28.92,306.142l12.744-5.251a15.343,15.343,0,0,0,9.858,3.586h0a15.34,15.34,0,0,0,9.86-3.587l12.834,5.288A16.562,16.562,0,0,0,73.648,309.562ZM71.736,238.61c5.754,5.827,3.942,14.664,1.673,20.2a55.952,55.952,0,0,0-9.054-7.321,15.943,15.943,0,0,1-5.442-5.676,21.563,21.563,0,0,0,2.852-5.544,17.18,17.18,0,0,0,.844-3.921C65.359,235.788,69.167,236.009,71.736,238.61Zm-37.7,24.856a32.109,32.109,0,0,1,12.9-8.647,26.026,26.026,0,0,0,7.263-4.051,23.038,23.038,0,0,0,6.588,6.29,49.608,49.608,0,0,1,8.159,6.65C66.4,274.563,57.513,283.6,51.522,283.6s-15.01-9.189-17.487-20.132Zm17.487,26.742a14.881,14.881,0,0,0,5.805-1.275v6.728a8.735,8.735,0,0,1-5.8,2.2h0a8.734,8.734,0,0,1-5.8-2.205v-6.736a14.8,14.8,0,0,0,5.8,1.285ZM20.2,325.324V314.907a7.694,7.694,0,0,1,2.659-5.83l12.963,17.354H21.307A1.108,1.108,0,0,1,20.2,325.324Zm60.02-14.705a9.9,9.9,0,0,1,6.148-9.182l9.661-3.981A58.264,58.264,0,0,1,108,326.431H80.221V310.618Zm87.236,15.812V310.618a16.611,16.611,0,0,0-.631-4.513l10.128-4.174c.128,8.329.9,17.081,5.533,24.5ZM183.538,297v-3.815a12.43,12.43,0,0,0,11.6-.006c0,.008,0,3.493,0,3.837,0,9.921,0,20.158-5.8,27.7-5.8-7.531-5.8-17.779-5.8-27.71A.036.036,0,0,0,183.538,297Zm37.127,28.326a1.108,1.108,0,0,1-1.106,1.106H196.193c4.635-7.425,5.407-16.174,5.535-24.5l14.155,5.833h0a7.7,7.7,0,0,1,4.782,7.142Z" transform="translate(-13.589 -107.375)" fill="#47286d"/>
      </g>
    </g>
  </g>
</svg>
