<svg xmlns="http://www.w3.org/2000/svg" width="292" height="273.914" viewBox="0 0 292 273.914">
  <g id="Grupo_68147" data-name="Grupo 68147" transform="translate(-804 -3948.453)">
    <rect id="Rectángulo_6995" data-name="Rectángulo 6995" width="292" height="36" transform="translate(804 3948.453)" fill="#bb83ff" opacity="0.5"/>
    <line id="Línea_313" data-name="Línea 313" y1="33" transform="translate(947.5 3991.104)" fill="none" stroke="#707070" stroke-width="3" stroke-dasharray="3 4" style="mix-blend-mode: multiply;isolation: isolate"/>
    <g id="Elipse_4857" data-name="Elipse 4857" transform="translate(851 4026.367)" fill="#fff" stroke="#8a8a8a" stroke-width="3" stroke-dasharray="3 4">
      <circle cx="98" cy="98" r="98" stroke="none"/>
      <circle cx="98" cy="98" r="96.5" fill="none"/>
    </g>
    <text id="Decisión" transform="translate(824 3954.453)" fill="#12263f" font-size="18" font-family="Roboto-Black, Roboto" font-weight="800"><tspan x="90.918" y="19">Decisión</tspan></text>
    <ellipse id="Elipse_4861" data-name="Elipse 4861" cx="87.5" cy="87" rx="87.5" ry="87" transform="translate(863 4037.367)" fill="#bb83ff" opacity="0.12"/>
    <g id="toma-de-decisiones" transform="translate(894.881 4065.209)">
      <path id="Trazado_113648" data-name="Trazado 113648" d="M158.65,285.762l-19.393-6.634h-19.1l-19.393,6.634a8.983,8.983,0,0,0-6.076,8.5v34.065h70.04V294.261A8.983,8.983,0,0,0,158.65,285.762Z" transform="translate(-74.064 -217.689)" fill="#bb83ff"/>
      <path id="Trazado_113649" data-name="Trazado 113649" d="M126.693,279.124,107.3,285.758a8.984,8.984,0,0,0-6.074,8.5v34.065H94.69V294.259a8.984,8.984,0,0,1,6.074-8.5l19.395-6.634Z" transform="translate(-74.067 -217.686)" fill="#a06cde"/>
      <path id="Trazado_113650" data-name="Trazado 113650" d="M230.714,206.044v15.929l-9.557,7.2-9.557-7.2,0-3.572,0-12.358Z" transform="translate(-165.515 -160.523)" fill="#ffb09e"/>
      <path id="Trazado_113651" data-name="Trazado 113651" d="M230.721,206.044V218.4a19.337,19.337,0,0,1-8.307,1.862h-2.5a19.351,19.351,0,0,1-8.3-1.86l0-12.358Z" transform="translate(-165.523 -160.523)" fill="#f89580"/>
      <path id="Trazado_113652" data-name="Trazado 113652" d="M223.335,227.529l-2.178,1.64-9.557-7.2.007-15.929h4.356l-.007,15.929Z" transform="translate(-165.515 -160.523)" fill="#f89580"/>
      <path id="Trazado_113653" data-name="Trazado 113653" d="M180.232,73.863V93.75a15.138,15.138,0,0,0,15.138,15.138h2.5A15.138,15.138,0,0,0,213.009,93.75V73.863a4.636,4.636,0,0,0-4.636-4.636H184.868A4.636,4.636,0,0,0,180.232,73.863Z" transform="translate(-140.978 -53.504)" fill="#ffcebf"/>
      <path id="Trazado_113654" data-name="Trazado 113654" d="M198.8,108.856c-.307.02-.616.028-.928.028h-2.5A15.137,15.137,0,0,1,180.23,93.748V73.861a4.636,4.636,0,0,1,4.637-4.637h4.356a4.636,4.636,0,0,0-4.637,4.637V93.748A15.136,15.136,0,0,0,198.8,108.856Z" transform="translate(-140.977 -53.501)" fill="#ffb09e"/>
      <path id="Trazado_113655" data-name="Trazado 113655" d="M330.727,109.139h3.28a4.551,4.551,0,0,1,4.551,4.551v3.41a4.551,4.551,0,0,1-4.551,4.551h-3.28Z" transform="translate(-258.696 -84.723)" fill="#ffb09e"/>
      <path id="Trazado_113656" data-name="Trazado 113656" d="M231.182,312.229l-6.765,4.132,3.383,6.016h6.765l3.383-6.016Z" transform="translate(-175.54 -243.581)" fill="#68748f"/>
      <path id="Trazado_113657" data-name="Trazado 113657" d="M228.776,316.358l3.382,6.016H227.8l-3.382-6.016,6.765-4.134,2.178,1.331Z" transform="translate(-175.543 -243.577)" fill="#5d6980"/>
      <path id="Trazado_113658" data-name="Trazado 113658" d="M227.8,358.822l-3.383,31.907h13.53l-3.383-31.907Z" transform="translate(-175.54 -280.026)" fill="#68748f"/>
      <path id="Trazado_113659" data-name="Trazado 113659" d="M232.158,358.824l-3.382,31.907H224.42l3.382-31.907Z" transform="translate(-175.543 -280.028)" fill="#5d6980"/>
      <path id="Trazado_113660" data-name="Trazado 113660" d="M152.105,109.139h-3.28a4.551,4.551,0,0,0-4.551,4.551v3.41a4.551,4.551,0,0,0,4.551,4.551h3.28Z" transform="translate(-112.852 -84.723)" fill="#ffb09e"/>
      <g id="Grupo_68125" data-name="Grupo 68125" transform="translate(1.634 49.868)">
        <path id="Trazado_113661" data-name="Trazado 113661" d="M197.329,279.184l9.557,7.2-13.531,8.267V280.533Z" transform="translate(-152.877 -267.601)" fill="#eaf6ff"/>
        <path id="Trazado_113662" data-name="Trazado 113662" d="M265.037,279.184l-9.557,7.2,13.53,8.267V280.533Z" transform="translate(-201.472 -267.601)" fill="#eaf6ff"/>
        <circle id="Elipse_4863" data-name="Elipse 4863" cx="20.243" cy="20.243" r="20.243" fill="#eaf6ff"/>
        <circle id="Elipse_4864" data-name="Elipse 4864" cx="20.243" cy="20.243" r="20.243" transform="translate(68.051)" fill="#eaf6ff"/>
      </g>
      <g id="Grupo_68126" data-name="Grupo 68126" transform="translate(10.012 59.938)">
        <path id="Trazado_113663" data-name="Trazado 113663" d="M56.144,292.584a3.409,3.409,0,0,1-2.41-1l-6.765-6.765a3.409,3.409,0,0,1,4.82-4.82l3.986,3.986,7.79-10.386a3.408,3.408,0,1,1,5.454,4.09l-10.148,13.53a3.409,3.409,0,0,1-2.485,1.355Q56.265,292.584,56.144,292.584Z" transform="translate(-45.971 -272.237)" fill="#31d9e7"/>
      </g>
      <path id="Trazado_113664" data-name="Trazado 113664" d="M379.353,282.409l4.355-4.355a3.409,3.409,0,1,0-4.82-4.82l-4.355,4.355-4.355-4.355a3.409,3.409,0,1,0-4.82,4.82l4.355,4.355-4.355,4.355a3.408,3.408,0,0,0,4.82,4.82l4.355-4.355,4.355,4.355a3.408,3.408,0,0,0,4.82-4.82Z" transform="translate(-285.004 -212.298)" fill="#f17781"/>
      <path id="Trazado_113665" data-name="Trazado 113665" d="M204.638,30.283h-4.373a10.889,10.889,0,0,1-10.4-7.659l-1-3.23-3.57,5.747a10.89,10.89,0,0,1-9.25,5.143H165.184V21.394A13.068,13.068,0,0,1,178.252,8.326H191.57a13.068,13.068,0,0,1,13.068,13.068Z" transform="translate(-129.208 -5.867)" fill="#68748f"/>
      <path id="Trazado_113666" data-name="Trazado 113666" d="M178.248,8.324h6.534a13.068,13.068,0,0,0-13.068,13.068v8.89H165.18v-8.89A13.068,13.068,0,0,1,178.248,8.324Z" transform="translate(-129.205 -5.865)" fill="#5d6980"/>
      <g id="Grupo_68127" data-name="Grupo 68127" transform="translate(0 0.826)">
        <path id="Trazado_113667" data-name="Trazado 113667" d="M217.23,135.527a1.633,1.633,0,0,0,1.633-1.633v-2.144a1.633,1.633,0,1,0-3.267,0v2.144A1.633,1.633,0,0,0,217.23,135.527Z" transform="translate(-168.641 -101.957)" fill="#47286d"/>
        <path id="Trazado_113668" data-name="Trazado 113668" d="M281.848,135.527a1.633,1.633,0,0,0,1.633-1.633v-2.144a1.633,1.633,0,1,0-3.267,0v2.144A1.633,1.633,0,0,0,281.848,135.527Z" transform="translate(-219.186 -101.957)" fill="#47286d"/>
        <path id="Trazado_113669" data-name="Trazado 113669" d="M234.9,188.106a5.736,5.736,0,0,0,5.73-5.73,1.633,1.633,0,1,0-3.267,0,2.463,2.463,0,0,1-4.926,0,1.633,1.633,0,1,0-3.267,0A5.737,5.737,0,0,0,234.9,188.106Z" transform="translate(-179.258 -141.558)" fill="#47286d"/>
        <path id="Trazado_113670" data-name="Trazado 113670" d="M111.8,70.11A21.877,21.877,0,0,0,93.34,48.5a1.634,1.634,0,0,0-.505,3.228,18.606,18.606,0,1,1-6.547.13,1.633,1.633,0,0,0-.635-3.2A21.892,21.892,0,0,0,69.9,61.34c-.065-.032-3.067-1.06-3.067-1.06V53.744a17.713,17.713,0,0,0,6.832-15.181c3.748.288,7.831-1.934,7.831-6.185v-3.41a6.2,6.2,0,0,0-4.432-5.93v-7.51a14.718,14.718,0,0,0-14.7-14.7H49.044a14.718,14.718,0,0,0-14.7,14.7V23a6.2,6.2,0,0,0-4.554,5.965v3.41c0,4.185,4.064,6.506,7.831,6.185a17.489,17.489,0,0,0,6.832,15.181V60.28l-2.61.886A21.878,21.878,0,1,0,4.054,82.8a1.634,1.634,0,0,0,2.66-1.9,18.609,18.609,0,1,1,33.764-11.17c-.1,10.21-8.168,18.988-18.6,18.988a18.506,18.506,0,0,1-10.489-3.234,1.633,1.633,0,1,0-1.844,2.7A21.72,21.72,0,0,0,18.989,91.8v18.842a1.633,1.633,0,0,0,1.633,1.633H90.661a1.633,1.633,0,0,0,1.633-1.633V91.859A21.908,21.908,0,0,0,111.8,70.11ZM77.687,88.234V109H63.869L62.752,98.478a1.633,1.633,0,0,0-3.249.345L60.584,109H50.7l3.029-28.575h3.826l1.2,11.315A1.633,1.633,0,1,0,62,91.4L60.7,79.142,63,75.057l5.32,3.25a1.617,1.617,0,0,0,1.386.147,22.007,22.007,0,0,0,7.981,9.78ZM58.069,77.162H53.215l-2.142-3.809,4.569-2.791,4.569,2.791ZM67.539,74l-8.994-5.5,6.947-5.231,2.047.7V74Zm10.69-45.034v3.41c0,2.474-2.606,3.225-4.564,2.918V26.049C75.623,25.743,78.229,26.494,78.229,28.967ZM37.61,15.527A11.447,11.447,0,0,1,49.044,4.093H62.362A11.447,11.447,0,0,1,73.8,15.527v7.255H71.057c-5.432,0-8.614-4.9-9.843-9.741-.447-1.762-2.135-2.042-2.947-.377-2.241,4.591-5.637,10.118-11.432,10.118H37.61V15.527ZM33.055,32.378v-3.41c0-2.349,2.632-3.2,4.564-2.918V35.3C35.067,35.36,33.055,34.314,33.055,32.378Zm7.831,7.869v-14.2h5.947a12.448,12.448,0,0,0,10.638-5.915l1.684-2.711A12.458,12.458,0,0,0,70.4,26.03V40.246c0,17.947-29.511,17.926-29.511,0ZM63.565,55.628v5.008L55.642,66.6l-7.923-5.966V55.628C51.953,57.833,59.079,57.888,63.565,55.628ZM43.745,63.97l2.047-.7,6.947,5.231L43.745,74V63.97ZM42.063,78.544a1.436,1.436,0,0,0,.9-.237l5.32-3.25,2.3,4.086L47.415,109H33.6V88.576A22.011,22.011,0,0,0,42.063,78.544ZM22.256,91.983a21.743,21.743,0,0,0,8.074-1.695V109H22.256ZM80.954,109V90.061a21.721,21.721,0,0,0,8.073,1.906V109Z" transform="translate(0 -0.826)" fill="#47286d"/>
        <path id="Trazado_113671" data-name="Trazado 113671" d="M46.722,286.881a5.044,5.044,0,0,0,7.6-.54l10.148-13.53A5.042,5.042,0,0,0,56.4,266.76l-6.66,8.88-2.654-2.654a5.042,5.042,0,1,0-7.13,7.13ZM42.266,275.3a1.777,1.777,0,0,1,2.51,0l3.986,3.986a1.634,1.634,0,0,0,2.462-.175l7.79-10.386a1.775,1.775,0,1,1,2.84,2.13l-10.148,13.53a1.775,1.775,0,0,1-2.675.19l-6.765-6.765a1.778,1.778,0,0,1,0-2.511Z" transform="translate(-30.101 -207.265)" fill="#47286d"/>
        <path id="Trazado_113672" data-name="Trazado 113672" d="M379.006,266.221a5.048,5.048,0,0,0-7.13,0l-3.2,3.2-3.2-3.2a5.042,5.042,0,0,0-7.13,7.13l3.2,3.2-3.2,3.2a5.048,5.048,0,0,0,0,7.131q3.565,2.953,7.13,0l3.2-3.2,3.2,3.2q3.565,2.953,7.13,0a5.048,5.048,0,0,0,0-7.13l-3.2-3.2,3.2-3.2A5.048,5.048,0,0,0,379.006,266.221Zm-2.31,4.82-4.355,4.355a1.634,1.634,0,0,0,0,2.31l4.355,4.355a1.775,1.775,0,1,1-2.51,2.51l-4.355-4.355a1.634,1.634,0,0,0-2.31,0l-4.355,4.355a1.775,1.775,0,0,1-2.51-2.51l4.355-4.355a1.633,1.633,0,0,0,0-2.31l-4.355-4.355a1.775,1.775,0,1,1,2.51-2.51l4.355,4.355a1.634,1.634,0,0,0,2.31,0l4.355-4.355a1.775,1.775,0,0,1,2.51,2.51Z" transform="translate(-279.147 -207.266)" fill="#47286d"/>
      </g>
    </g>
  </g>
</svg>
