<svg xmlns="http://www.w3.org/2000/svg" width="292" height="273.914" viewBox="0 0 292 273.914">
  <g id="Grupo_68146" data-name="Grupo 68146" transform="translate(-492 -3948.453)">
    <rect id="Rectángulo_6994" data-name="Rectángulo 6994" width="292" height="36" transform="translate(492 3948.453)" fill="#bb83ff" opacity="0.5"/>
    <line id="Línea_312" data-name="Línea 312" y1="33" transform="translate(635.5 3991.104)" fill="none" stroke="#707070" stroke-width="3" stroke-dasharray="3 4" style="mix-blend-mode: multiply;isolation: isolate"/>
    <g id="Elipse_4856" data-name="Elipse 4856" transform="translate(539 4026.367)" fill="#fff" stroke="#8a8a8a" stroke-width="3" stroke-dasharray="3 4">
      <circle cx="98" cy="98" r="98" stroke="none"/>
      <circle cx="98" cy="98" r="96.5" fill="none"/>
    </g>
    <text id="Investigación" transform="translate(527 3954.453)" fill="#12263f" font-size="18" font-family="Roboto-Black, Roboto" font-weight="800"><tspan x="56.253" y="19">Investigación</tspan></text>
    <ellipse id="Elipse_4860" data-name="Elipse 4860" cx="87.5" cy="87" rx="87.5" ry="87" transform="translate(551 4037.367)" fill="#bb83ff" opacity="0.12"/>
    <g id="investigacion_2_" data-name="investigacion (2)" transform="translate(595.001 4067.84)">
      <path id="Trazado_113632" data-name="Trazado 113632" d="M404.862,277.394a3.046,3.046,0,0,1-4.306,0l-19.951-19.951,4.306-4.306,19.951,19.951A3.046,3.046,0,0,1,404.862,277.394Zm0,0" transform="translate(-303.351 -201.755)" fill="#484b63"/>
      <path id="Trazado_113633" data-name="Trazado 113633" d="M7.5,62.5H71.439v89.717H7.5Zm0,0" transform="translate(-5.978 -49.813)" fill="#bb83ff" opacity="0.19"/>
      <path id="Trazado_113634" data-name="Trazado 113634" d="M40,307.727H52.179V340.61H40Zm0,0" transform="translate(-31.881 -245.264)" fill="#f17781"/>
      <path id="Trazado_113635" data-name="Trazado 113635" d="M134,247.727h12.179v45.062H134Zm0,0" transform="translate(-106.801 -197.443)" fill="#f9e478"/>
      <path id="Trazado_113636" data-name="Trazado 113636" d="M230,269.727h12.179v40.6H230Zm0,0" transform="translate(-183.315 -214.977)" fill="#31d9e7"/>
      <path id="Trazado_113637" data-name="Trazado 113637" d="M70,307.727h6.089V340.61H70Zm0,0" transform="translate(-55.792 -245.264)" fill="#d65d67"/>
      <path id="Trazado_113638" data-name="Trazado 113638" d="M164,247.727h6.089v45.062H164Zm0,0" transform="translate(-130.712 -197.443)" fill="#ffbd54"/>
      <path id="Trazado_113639" data-name="Trazado 113639" d="M260,269.727h6.089v40.6H260Zm0,0" transform="translate(-207.226 -214.977)" fill="#3bb3e3"/>
      <path id="Trazado_113640" data-name="Trazado 113640" d="M192.008,16.957a32.273,32.273,0,1,0,0,45.641,32.273,32.273,0,0,0,0-45.641Zm0,0" transform="translate(-109.124 -5.98)" fill="#50536e"/>
      <path id="Trazado_113641" data-name="Trazado 113641" d="M211.66,82.248a26.184,26.184,0,1,1,0-37.03A26.214,26.214,0,0,1,211.66,82.248Zm0,0" transform="translate(-133.081 -29.936)" fill="#b5fcff"/>
      <path id="Trazado_113642" data-name="Trazado 113642" d="M302.473,45.222a26.146,26.146,0,0,0-21.559-7.48,26.171,26.171,0,0,1,0,51.991,26.175,26.175,0,0,0,21.559-44.511Zm0,0" transform="translate(-223.895 -29.939)" fill="#71f6fc"/>
      <path id="Trazado_113643" data-name="Trazado 113643" d="M102.591,69.857,86.972,54.236a33.807,33.807,0,0,0,1.354-39,1.522,1.522,0,1,0-2.544,1.674,30.78,30.78,0,1,1-3.976-4.876l.083.084A1.522,1.522,0,0,0,84.05,9.973l-.087-.088a33.833,33.833,0,0,0-47.8,0q-.621.621-1.2,1.265H1.522A1.523,1.523,0,0,0,0,12.673v6.733a1.522,1.522,0,1,0,3.045,0V14.2H32.523a33.534,33.534,0,0,0-3,5.122H10.554a1.522,1.522,0,1,0,0,3.045H28.261a33.727,33.727,0,0,0-1.093,3.722H10.554a1.522,1.522,0,1,0,0,3.045H26.605A34.018,34.018,0,0,0,26.3,32.85H10.554a1.523,1.523,0,0,0,0,3.045h15.8a33.83,33.83,0,0,0,3.408,12.858H27.2a1.522,1.522,0,0,0-1.522,1.523V95.345A1.522,1.522,0,0,0,27.2,96.868H39.378A1.522,1.522,0,0,0,40.9,95.345V61.63a33.544,33.544,0,0,0,4.263,2.5V95.345a1.523,1.523,0,0,0,1.522,1.523H58.864a1.522,1.522,0,0,0,1.522-1.523V67.568a34.346,34.346,0,0,0,3.553-.219V90.866a1.522,1.522,0,1,0,3.045,0V66.859A33.568,33.568,0,0,0,80.514,60.7L96.129,76.315a4.568,4.568,0,0,0,6.461-6.459ZM37.856,93.822H28.722V51.8h2.743a33.816,33.816,0,0,0,4.7,5.888q.823.823,1.689,1.575Zm10.353,0V65.436a33.888,33.888,0,0,0,9.134,2.024V93.822Zm52.229-19.661a1.523,1.523,0,0,1-2.154,0L82.861,58.739c.373-.342.741-.691,1.1-1.051s.71-.727,1.052-1.1l15.421,15.424a1.524,1.524,0,0,1,0,2.153Zm0,0" transform="translate(0)" fill="#47286d"/>
      <path id="Trazado_113644" data-name="Trazado 113644" d="M65.463,192.035a1.522,1.522,0,0,0-1.522,1.522v3.451H3.045V122.131a1.522,1.522,0,1,0-3.045,0v76.4a1.522,1.522,0,0,0,1.522,1.522h63.94a1.522,1.522,0,0,0,1.522-1.522v-4.974A1.522,1.522,0,0,0,65.463,192.035Zm0,0" transform="translate(-0.001 -96.127)" fill="#47286d"/>
      <path id="Trazado_113645" data-name="Trazado 113645" d="M32.5,301.717v32.888a1.523,1.523,0,0,0,1.522,1.522H46.2a1.523,1.523,0,0,0,1.522-1.522V301.717A1.523,1.523,0,0,0,46.2,300.2H34.022A1.523,1.523,0,0,0,32.5,301.717Zm3.045,1.523H44.68v29.842H35.545Zm0,0" transform="translate(-25.904 -239.261)" fill="#47286d"/>
      <path id="Trazado_113646" data-name="Trazado 113646" d="M57.406,198.226a1.523,1.523,0,0,0,0-3.045H46.022a1.523,1.523,0,0,0,0,3.045Zm0,0" transform="translate(-35.468 -155.562)" fill="#47286d"/>
      <path id="Trazado_113647" data-name="Trazado 113647" d="M187.172,29.988a27.667,27.667,0,1,0,19.592,8.1A27.519,27.519,0,0,0,187.172,29.988Zm17.439,45.14a24.7,24.7,0,1,1,7.211-17.441A24.492,24.492,0,0,1,204.611,75.128Zm0,0" transform="translate(-127.107 -23.901)" fill="#47286d"/>
    </g>
  </g>
</svg>
