<svg xmlns="http://www.w3.org/2000/svg" width="292" height="273.914" viewBox="0 0 292 273.914">
  <g id="Grupo_68166" data-name="Grupo 68166" transform="translate(-1116 -3948.453)">
    <rect id="Rectángulo_6996" data-name="Rectángulo 6996" width="292" height="36" transform="translate(1116 3948.453)" fill="#bb83ff" opacity="0.5"/>
    <line id="Línea_314" data-name="Línea 314" y1="33" transform="translate(1259.5 3991.104)" fill="none" stroke="#707070" stroke-width="3" stroke-dasharray="3 4" style="mix-blend-mode: multiply;isolation: isolate"/>
    <g id="Elipse_4858" data-name="Elipse 4858" transform="translate(1163 4026.367)" fill="#fff" stroke="#8a8a8a" stroke-width="3" stroke-dasharray="3 4">
      <circle cx="98" cy="98" r="98" stroke="none"/>
      <circle cx="98" cy="98" r="96.5" fill="none"/>
    </g>
    <path id="Trazado_113715" data-name="Trazado 113715" d="M90.15,16.609H85.922L85.184,19h-3.3L86.582,6.2h2.9L94.21,19H90.9Zm-3.489-2.382h2.751l-1.38-4.438Zm12.366,2.663a1.317,1.317,0,0,0,.967-.338,1.241,1.241,0,0,0,.334-.945H103.1a3.288,3.288,0,0,1-1.121,2.566,4.168,4.168,0,0,1-2.887,1,4.22,4.22,0,0,1-3.27-1.3,5.125,5.125,0,0,1-1.2-3.6v-.123a5.792,5.792,0,0,1,.532-2.544,3.872,3.872,0,0,1,1.534-1.7,4.573,4.573,0,0,1,2.373-.593,4.116,4.116,0,0,1,2.944,1.028,3.647,3.647,0,0,1,1.09,2.786h-2.777A1.626,1.626,0,0,0,99.967,12,1.244,1.244,0,0,0,99,11.6q-1.151,0-1.345,1.468a10.357,10.357,0,0,0-.062,1.283,4.068,4.068,0,0,0,.343,1.986A1.187,1.187,0,0,0,99.027,16.891Zm9.352,0a1.317,1.317,0,0,0,.967-.338,1.241,1.241,0,0,0,.334-.945h2.777a3.288,3.288,0,0,1-1.121,2.566,4.168,4.168,0,0,1-2.887,1,4.22,4.22,0,0,1-3.27-1.3,5.125,5.125,0,0,1-1.2-3.6v-.123a5.792,5.792,0,0,1,.532-2.544,3.872,3.872,0,0,1,1.534-1.7,4.573,4.573,0,0,1,2.373-.593,4.116,4.116,0,0,1,2.944,1.028,3.647,3.647,0,0,1,1.09,2.786h-2.777a1.626,1.626,0,0,0-.36-1.134,1.244,1.244,0,0,0-.967-.4q-1.151,0-1.345,1.468a10.357,10.357,0,0,0-.062,1.283,4.068,4.068,0,0,0,.343,1.986A1.187,1.187,0,0,0,108.378,16.891ZM116.833,19h-2.971V9.49h2.971ZM113.687,7.038A1.322,1.322,0,0,1,114.144,6a1.943,1.943,0,0,1,2.373,0,1.322,1.322,0,0,1,.457,1.037,1.322,1.322,0,0,1-.457,1.037,1.943,1.943,0,0,1-2.373,0A1.322,1.322,0,0,1,113.687,7.038Zm4.6,7.119a5.613,5.613,0,0,1,.554-2.536,3.96,3.96,0,0,1,1.591-1.709,4.791,4.791,0,0,1,2.435-.6,4.373,4.373,0,0,1,3.366,1.323,5.076,5.076,0,0,1,1.23,3.6v.105a4.925,4.925,0,0,1-1.235,3.529,4.384,4.384,0,0,1-3.344,1.305,4.434,4.434,0,0,1-3.261-1.217,4.761,4.761,0,0,1-1.327-3.3Zm2.962.185a3.538,3.538,0,0,0,.413,1.934,1.376,1.376,0,0,0,1.222.615q1.582,0,1.617-2.435v-.3q0-2.558-1.635-2.558-1.485,0-1.608,2.206ZM123.267,5.5H126.4l-2.443,2.76-2.417,0Zm8.218,3.99.1,1.116A3.225,3.225,0,0,1,134.3,9.314a2.713,2.713,0,0,1,2.219.888,4.226,4.226,0,0,1,.76,2.672V19h-2.971V13a1.6,1.6,0,0,0-.29-1.059,1.342,1.342,0,0,0-1.055-.338,1.413,1.413,0,0,0-1.292.686V19h-2.962V9.49Z" transform="translate(1152 3954.453)" fill="#12263f"/>
    <ellipse id="Elipse_4862" data-name="Elipse 4862" cx="87.5" cy="87" rx="87.5" ry="87" transform="translate(1175 4037.367)" fill="#bb83ff" opacity="0.12"/>
    <g id="rinse" transform="translate(1211.42 4072.766)">
      <g id="Grupo_62946" data-name="Grupo 62946" transform="translate(2.615 2.615)">
        <g id="Grupo_62939" data-name="Grupo 62939" transform="translate(4.846 11.308)">
          <path id="Trazado_111255" data-name="Trazado 111255" d="M50.233,9v9.693H22.77a1.62,1.62,0,0,0-1.615,1.615V34.848h3.974A2.48,2.48,0,0,1,27.2,38.709L18.812,51.277a3.008,3.008,0,0,1-5.008,0L5.42,38.709a2.48,2.48,0,0,1,2.068-3.861h3.974V17.077A8.08,8.08,0,0,1,19.539,9Z" transform="translate(-5 -9)" fill="#f17781"/>
        </g>
        <g id="Grupo_62940" data-name="Grupo 62940" transform="translate(46.849 42.002)">
          <path id="Trazado_111256" data-name="Trazado 111256" d="M75.813,41.909a2.48,2.48,0,0,1-2.068,3.861H69.771V63.54a8.08,8.08,0,0,1-8.077,8.077H31V61.925H58.463a1.62,1.62,0,0,0,1.615-1.615V45.77H56.1a2.48,2.48,0,0,1-2.068-3.861l8.384-12.568a3.008,3.008,0,0,1,5.008,0Z" transform="translate(-31 -28)" fill="#f17781"/>
        </g>
        <g id="Grupo_62941" data-name="Grupo 62941" transform="translate(43.618 59.772)">
          <path id="Trazado_111257" data-name="Trazado 111257" d="M38.693,39v3.231a3.24,3.24,0,0,1-3.231,3.231H32.231A3.24,3.24,0,0,1,29,42.231V39h9.693Z" transform="translate(-29 -39)" fill="#aab2bd"/>
        </g>
        <g id="Grupo_62942" data-name="Grupo 62942" transform="translate(35.543 30.691)">
          <path id="Trazado_111258" data-name="Trazado 111258" d="M41.769,48.8V50.08H32.076V48.868a4.784,4.784,0,0,0-2.1-4.055A12.92,12.92,0,1,1,43.9,44.8,4.728,4.728,0,0,0,41.769,48.8Z" transform="translate(-24.002 -20.998)" fill="#f9e478"/>
        </g>
        <g id="Grupo_62943" data-name="Grupo 62943" transform="translate(0 64.619)">
          <path id="Trazado_111259" data-name="Trazado 111259" d="M34.309,54.924v6.462l-4.087,1.357c-.1.242-.178.468-.291.695L31.87,67.3,27.3,71.87l-3.861-1.939c-.226.113-.452.194-.695.291l-1.357,4.087H14.924l-1.357-4.087c-.242-.1-.468-.178-.695-.291L9.011,71.87,4.439,67.3l1.939-3.861c-.113-.226-.194-.452-.291-.695L2,61.386V54.924l4.087-1.357c.1-.242.178-.468.291-.695L4.439,49.011l4.572-4.572,3.861,1.939c.226-.113.452-.194.695-.291L14.924,42h6.462l1.357,4.087c.242.1.468.178.695.291L27.3,44.439l4.572,4.572-1.939,3.861c.113.226.194.452.291.695Zm-9.693,3.231a6.462,6.462,0,1,0-6.462,6.462A6.46,6.46,0,0,0,24.617,58.155Z" transform="translate(-2 -42)" fill="#31d9e7"/>
        </g>
        <g id="Grupo_62944" data-name="Grupo 62944" transform="translate(64.619 0)">
          <path id="Trazado_111260" data-name="Trazado 111260" d="M74.309,14.924v6.462l-4.087,1.357c-.1.242-.178.468-.291.695L71.87,27.3,67.3,31.87l-3.861-1.939c-.226.113-.452.194-.695.291l-1.357,4.087H54.924l-1.357-4.087c-.242-.1-.468-.178-.695-.291L49.011,31.87,44.439,27.3l1.939-3.861c-.113-.226-.194-.452-.291-.695L42,21.386V14.924l4.087-1.357c.1-.242.178-.468.291-.695L44.439,9.011l4.572-4.572,3.861,1.939c.226-.113.452-.194.695-.291L54.924,2h6.462l1.357,4.087c.242.1.468.178.695.291L67.3,4.439,71.87,9.011l-1.939,3.861c.113.226.194.452.291.695Zm-9.693,3.231a6.462,6.462,0,1,0-6.462,6.462A6.46,6.46,0,0,0,64.617,18.155Z" transform="translate(-42 -2)" fill="#31d9e7"/>
        </g>
        <g id="Grupo_62945" data-name="Grupo 62945" transform="translate(45.651 40.024)">
          <ellipse id="Elipse_4769" data-name="Elipse 4769" cx="3" cy="3.5" rx="3" ry="3.5" transform="translate(-0.266 -0.48)" fill="#fcd770"/>
        </g>
      </g>
      <g id="Grupo_62947" data-name="Grupo 62947" transform="translate(1 1)">
        <path id="Trazado_111261" data-name="Trazado 111261" d="M76.54,14.374l-3.968-1.321,1.871-3.74L68.227,3.1l-3.74,1.871L63.166,1h-8.79L53.055,4.968,49.315,3.1,43.1,9.313l1.871,3.74L41,14.374v8.79l3.968,1.321L43.1,28.226l6.216,6.216,3.74-1.871,1.321,3.969h8.79l1.321-3.968,3.74,1.871,6.216-6.216-1.871-3.74,3.969-1.321Zm-3.231,6.462L69.6,22.072l-.271.716c-.079.208-.162.41-.249.611l-.313.7,1.746,3.493-2.922,2.922L64.1,28.767l-.7.313c-.2.089-.4.17-.611.249l-.716.271-1.236,3.709H56.7L55.467,29.6l-.716-.271c-.208-.079-.41-.162-.611-.249l-.7-.313-3.493,1.746-2.922-2.922L48.772,24.1l-.313-.7c-.089-.2-.17-.4-.249-.611l-.271-.716-3.708-1.236V16.7l3.709-1.236.271-.716c.079-.208.162-.41.249-.611l.313-.7L47.027,9.95,49.95,7.027l3.493,1.746.7-.313c.2-.089.4-.17.611-.249l.716-.271L56.7,4.231h4.134L62.074,7.94l.716.271c.208.079.41.162.611.249l.7.313,3.493-1.746L70.515,9.95l-1.746,3.493.313.7c.089.2.17.4.249.611l.271.716L73.309,16.7Z" transform="translate(23.619 -1)" fill="#47286d"/>
        <path id="Trazado_111262" data-name="Trazado 111262" d="M55.077,7a8.077,8.077,0,1,0,8.077,8.077A8.087,8.087,0,0,0,55.077,7Zm0,12.924a4.846,4.846,0,1,1,4.846-4.846A4.852,4.852,0,0,1,55.077,19.924Z" transform="translate(27.312 2.693)" fill="#47286d"/>
        <path id="Trazado_111263" data-name="Trazado 111263" d="M34.443,49.313,28.227,43.1l-3.74,1.871L23.166,41H14.374l-1.321,3.968L9.313,43.1,3.1,49.313l1.871,3.74L1,54.374v8.79l3.968,1.321L3.1,68.226l6.216,6.216,3.74-1.871,1.321,3.969h8.79l1.321-3.968,3.74,1.871,6.216-6.216-1.871-3.74,3.969-1.321v-8.79l-3.968-1.321ZM33.309,56.7v4.134L29.6,62.074l-.271.716c-.079.208-.162.41-.249.611l-.313.7,1.746,3.493-2.922,2.922L24.1,68.768l-.7.313c-.2.089-.4.17-.611.249l-.716.271-1.236,3.708H16.7L15.467,69.6l-.716-.271c-.208-.079-.41-.162-.611-.249l-.7-.313L9.95,70.513,7.027,67.591,8.774,64.1l-.313-.7c-.089-.2-.17-.4-.249-.611l-.271-.716L4.231,60.836V56.7L7.94,55.467l.271-.716c.079-.208.162-.41.249-.611l.313-.7L7.027,49.95,9.95,47.027l3.493,1.746.7-.313c.2-.089.4-.17.611-.249l.716-.271L16.7,44.231h4.134l1.236,3.709.716.271c.208.079.41.162.611.249l.7.313,3.493-1.746,2.922,2.922-1.746,3.493.313.7c.089.2.17.4.249.611l.271.716Z" transform="translate(-1 23.619)" fill="#47286d"/>
        <path id="Trazado_111264" data-name="Trazado 111264" d="M15.077,47a8.077,8.077,0,1,0,8.077,8.077A8.087,8.087,0,0,0,15.077,47Zm0,12.924a4.846,4.846,0,1,1,4.846-4.846A4.852,4.852,0,0,1,15.077,59.924Z" transform="translate(2.693 27.312)" fill="#47286d"/>
        <path id="Trazado_111265" data-name="Trazado 111265" d="M31.078,49.482v4.443a4.852,4.852,0,0,0,4.846,4.846h3.231A4.852,4.852,0,0,0,44,53.925V49.416a3.111,3.111,0,0,1,1.393-2.649,14.541,14.541,0,1,0-15.675.023A3.175,3.175,0,0,1,31.078,49.482Zm8.077,6.058H35.924a1.616,1.616,0,0,1-1.615-1.615V52.309H40.77v1.615A1.616,1.616,0,0,1,39.155,55.54Zm-3.231-21a1.615,1.615,0,1,1,1.615,1.615A1.616,1.616,0,0,1,35.924,34.539Zm-9.6-1.5a11.348,11.348,0,0,1,9.887-9.736,11.718,11.718,0,0,1,1.339-.078A11.175,11.175,0,0,1,45.069,26.1a11.3,11.3,0,0,1-1.422,17.948,6.3,6.3,0,0,0-2.856,5.029H39.155v-9.99a4.846,4.846,0,1,0-3.231,0v9.99h-1.64a6.3,6.3,0,0,0-2.825-5.013,11.262,11.262,0,0,1-5.131-11.022Z" transform="translate(12.54 10.694)" fill="#47286d"/>
        <path id="Trazado_111266" data-name="Trazado 111266" d="M68.781,29.063a4.635,4.635,0,0,0-7.712,0l-8.381,12.57A4.1,4.1,0,0,0,56.1,48h2.367V60.925H31v3.231H58.463a3.234,3.234,0,0,0,3.231-3.231V44.77H56.1a.864.864,0,0,1-.719-1.344l8.381-12.57a1.455,1.455,0,0,1,2.334,0l8.381,12.57a.856.856,0,0,1,.145.48.868.868,0,0,1-.866.864h-5.6V64.156a6.468,6.468,0,0,1-6.462,6.462H31v3.231H61.694a9.7,9.7,0,0,0,9.693-9.693V48h2.367a4.095,4.095,0,0,0,3.407-6.367Z" transform="translate(17.464 15.002)" fill="#47286d"/>
        <path id="Trazado_111267" data-name="Trazado 111267" d="M27,54h3.231v3.231H27Z" transform="translate(15.002 31.62)" fill="#47286d"/>
        <path id="Trazado_111268" data-name="Trazado 111268" d="M13.068,52.786a4.635,4.635,0,0,0,7.712,0l8.381-12.57a4.1,4.1,0,0,0-3.409-6.368H23.386V20.924H50.849V17.693H23.386a3.234,3.234,0,0,0-3.231,3.231V37.078h5.6a.864.864,0,0,1,.719,1.344L18.09,50.993a1.455,1.455,0,0,1-2.334,0L7.376,38.423a.856.856,0,0,1-.145-.48.865.865,0,0,1,.864-.864h5.6V17.693a6.468,6.468,0,0,1,6.462-6.462H50.849V8H20.155a9.7,9.7,0,0,0-9.693,9.693V33.848H8.1a4.095,4.095,0,0,0-3.407,6.367Z" transform="translate(0.846 3.308)" fill="#47286d"/>
        <path id="Trazado_111269" data-name="Trazado 111269" d="M35,8h3.231v3.231H35Z" transform="translate(19.926 3.308)" fill="#47286d"/>
      </g>
    </g>
  </g>
</svg>
