<svg xmlns="http://www.w3.org/2000/svg" width="466.559" height="305.432" viewBox="0 0 466.559 305.432">
  <g id="Grupo_68122" data-name="Grupo 68122" transform="translate(-301.774 -3900.141)">
    <g id="Grupo_68007" data-name="Grupo 68007" transform="translate(343.107 3893.189)">
      <g id="Grupo_67408" data-name="Grupo 67408" transform="translate(27.992 234.047)" opacity="0.33" style="mix-blend-mode: multiply;isolation: isolate">
        <g id="Grupo_67395" data-name="Grupo 67395" transform="translate(46.029)">
          <g id="Grupo_67394" data-name="Grupo 67394">
            <g id="Grupo_67393" data-name="Grupo 67393">
              <g id="Grupo_67392" data-name="Grupo 67392">
                <path id="Trazado_113412" data-name="Trazado 113412" d="M29.538,63.393h73.537A10.2,10.2,0,0,0,113.238,53.23h0a10.2,10.2,0,0,0-10.163-10.169H29.538A10.2,10.2,0,0,0,19.375,53.23h0A10.2,10.2,0,0,0,29.538,63.393Z" transform="translate(-19.375 -43.061)" fill="#bb83ff"/>
              </g>
            </g>
          </g>
        </g>
        <g id="Grupo_67399" data-name="Grupo 67399" transform="translate(44.105 39.539)">
          <g id="Grupo_67398" data-name="Grupo 67398">
            <g id="Grupo_67397" data-name="Grupo 67397">
              <g id="Grupo_67396" data-name="Grupo 67396">
                <path id="Trazado_113413" data-name="Trazado 113413" d="M29.238,69.674h78A10.191,10.191,0,0,0,117.4,59.511h0a10.191,10.191,0,0,0-10.163-10.163h-78A10.2,10.2,0,0,0,19.069,59.511h0A10.2,10.2,0,0,0,29.238,69.674Z" transform="translate(-19.069 -49.348)" fill="#bb83ff"/>
              </g>
            </g>
          </g>
        </g>
        <g id="Grupo_67403" data-name="Grupo 67403" transform="translate(0 39.539)">
          <g id="Grupo_67402" data-name="Grupo 67402">
            <g id="Grupo_67401" data-name="Grupo 67401">
              <g id="Grupo_67400" data-name="Grupo 67400">
                <path id="Trazado_113414" data-name="Trazado 113414" d="M22.219,69.674H37.174A10.191,10.191,0,0,0,47.337,59.511h0A10.191,10.191,0,0,0,37.174,49.348H22.219A10.191,10.191,0,0,0,12.056,59.511h0A10.191,10.191,0,0,0,22.219,69.674Z" transform="translate(-12.056 -49.348)" fill="#bb83ff"/>
              </g>
            </g>
          </g>
        </g>
        <g id="Grupo_67407" data-name="Grupo 67407" transform="translate(62.475 19.779)">
          <g id="Grupo_67406" data-name="Grupo 67406">
            <g id="Grupo_67405" data-name="Grupo 67405">
              <g id="Grupo_67404" data-name="Grupo 67404">
                <path id="Trazado_113415" data-name="Trazado 113415" d="M31,57.532V55.218a9.039,9.039,0,0,0-9.006-9.012H71.17a9.04,9.04,0,0,0-9.012,9.012v2.314a9.033,9.033,0,0,0,9.012,9H21.99A9.032,9.032,0,0,0,31,57.532Z" transform="translate(-21.99 -46.206)" fill="#bb83ff"/>
              </g>
            </g>
          </g>
        </g>
      </g>
      <g id="Grupo_67425" data-name="Grupo 67425" transform="translate(25.042 117.801)" opacity="0.33" style="mix-blend-mode: multiply;isolation: isolate">
        <g id="Grupo_67412" data-name="Grupo 67412" transform="translate(46.029)">
          <g id="Grupo_67411" data-name="Grupo 67411">
            <g id="Grupo_67410" data-name="Grupo 67410">
              <g id="Grupo_67409" data-name="Grupo 67409">
                <path id="Trazado_113416" data-name="Trazado 113416" d="M29.075,44.9h73.531A10.187,10.187,0,0,0,112.77,34.74h0a10.2,10.2,0,0,0-10.163-10.163H29.075A10.2,10.2,0,0,0,18.906,34.74h0A10.193,10.193,0,0,0,29.075,44.9Z" transform="translate(-18.906 -24.577)" fill="#bb83ff"/>
              </g>
            </g>
          </g>
        </g>
        <g id="Grupo_67416" data-name="Grupo 67416" transform="translate(44.111 39.533)">
          <g id="Grupo_67415" data-name="Grupo 67415">
            <g id="Grupo_67414" data-name="Grupo 67414">
              <g id="Grupo_67413" data-name="Grupo 67413">
                <path id="Trazado_113417" data-name="Trazado 113417" d="M28.764,51.2h78a10.2,10.2,0,0,0,10.163-10.169h0A10.2,10.2,0,0,0,106.76,30.863h-78A10.2,10.2,0,0,0,18.6,41.026h0A10.2,10.2,0,0,0,28.764,51.2Z" transform="translate(-18.601 -30.863)" fill="#bb83ff"/>
              </g>
            </g>
          </g>
        </g>
        <g id="Grupo_67420" data-name="Grupo 67420" transform="translate(0 39.533)">
          <g id="Grupo_67419" data-name="Grupo 67419">
            <g id="Grupo_67418" data-name="Grupo 67418">
              <g id="Grupo_67417" data-name="Grupo 67417">
                <path id="Trazado_113418" data-name="Trazado 113418" d="M21.756,51.2H36.705A10.2,10.2,0,0,0,46.868,41.026h0A10.2,10.2,0,0,0,36.705,30.863H21.756A10.2,10.2,0,0,0,11.587,41.026h0A10.2,10.2,0,0,0,21.756,51.2Z" transform="translate(-11.587 -30.863)" fill="#bb83ff"/>
              </g>
            </g>
          </g>
        </g>
        <g id="Grupo_67424" data-name="Grupo 67424" transform="translate(62.475 19.779)">
          <g id="Grupo_67423" data-name="Grupo 67423">
            <g id="Grupo_67422" data-name="Grupo 67422">
              <g id="Grupo_67421" data-name="Grupo 67421">
                <path id="Trazado_113419" data-name="Trazado 113419" d="M30.527,39.042V36.728a9.029,9.029,0,0,0-9.006-9.006H70.7a9.034,9.034,0,0,0-9.012,9.006v2.314A9.039,9.039,0,0,0,70.7,48.048H21.521A9.033,9.033,0,0,0,30.527,39.042Z" transform="translate(-21.521 -27.722)" fill="#bb83ff"/>
              </g>
            </g>
          </g>
        </g>
      </g>
      <g id="Grupo_67442" data-name="Grupo 67442" transform="translate(223.957 137.259)" opacity="0.33" style="mix-blend-mode: multiply;isolation: isolate">
        <g id="Grupo_67429" data-name="Grupo 67429" transform="translate(28.552)">
          <g id="Grupo_67428" data-name="Grupo 67428">
            <g id="Grupo_67427" data-name="Grupo 67427">
              <g id="Grupo_67426" data-name="Grupo 67426">
                <path id="Trazado_113420" data-name="Trazado 113420" d="M56.322,44.8h61.94a8.592,8.592,0,0,0,8.566-8.566h0a8.59,8.59,0,0,0-8.566-8.559H56.322a8.59,8.59,0,0,0-8.566,8.559h0A8.592,8.592,0,0,0,56.322,44.8Z" transform="translate(-47.756 -27.671)" fill="#bb83ff"/>
              </g>
            </g>
          </g>
        </g>
        <g id="Grupo_67433" data-name="Grupo 67433" transform="translate(37.155 33.307)">
          <g id="Grupo_67432" data-name="Grupo 67432">
            <g id="Grupo_67431" data-name="Grupo 67431">
              <g id="Grupo_67430" data-name="Grupo 67430">
                <path id="Trazado_113421" data-name="Trazado 113421" d="M57.683,50.086h65.708a8.586,8.586,0,0,0,8.566-8.559h0a8.586,8.586,0,0,0-8.566-8.559H57.683a8.581,8.581,0,0,0-8.559,8.559h0A8.581,8.581,0,0,0,57.683,50.086Z" transform="translate(-49.124 -32.967)" fill="#bb83ff"/>
              </g>
            </g>
          </g>
        </g>
        <g id="Grupo_67437" data-name="Grupo 67437" transform="translate(0 33.307)">
          <g id="Grupo_67436" data-name="Grupo 67436">
            <g id="Grupo_67435" data-name="Grupo 67435">
              <g id="Grupo_67434" data-name="Grupo 67434">
                <path id="Trazado_113422" data-name="Trazado 113422" d="M51.775,50.086h12.6a8.586,8.586,0,0,0,8.566-8.559h0a8.586,8.586,0,0,0-8.566-8.559h-12.6a8.581,8.581,0,0,0-8.559,8.559h0A8.581,8.581,0,0,0,51.775,50.086Z" transform="translate(-43.216 -32.967)" fill="#bb83ff"/>
              </g>
            </g>
          </g>
        </g>
        <g id="Grupo_67441" data-name="Grupo 67441" transform="translate(50.664 16.66)">
          <g id="Grupo_67440" data-name="Grupo 67440">
            <g id="Grupo_67439" data-name="Grupo 67439">
              <g id="Grupo_67438" data-name="Grupo 67438">
                <path id="Trazado_113423" data-name="Trazado 113423" d="M58.857,39.86V37.9a7.609,7.609,0,0,0-7.585-7.585H92.7A7.611,7.611,0,0,0,85.107,37.9V39.86A7.611,7.611,0,0,0,92.7,47.445H51.272A7.609,7.609,0,0,0,58.857,39.86Z" transform="translate(-51.272 -30.32)" fill="#bb83ff"/>
              </g>
            </g>
          </g>
        </g>
      </g>
      <g id="Grupo_67459" data-name="Grupo 67459" transform="translate(194.437 252.518)" opacity="0.33" style="mix-blend-mode: multiply;isolation: isolate">
        <g id="Grupo_67446" data-name="Grupo 67446" transform="translate(2.541 39.533)">
          <g id="Grupo_67445" data-name="Grupo 67445">
            <g id="Grupo_67444" data-name="Grupo 67444">
              <g id="Grupo_67443" data-name="Grupo 67443">
                <path id="Trazado_113424" data-name="Trazado 113424" d="M122.62,52.284H49.089A10.2,10.2,0,0,0,38.926,62.447h0A10.2,10.2,0,0,0,49.089,72.616H122.62a10.2,10.2,0,0,0,10.169-10.169h0A10.2,10.2,0,0,0,122.62,52.284Z" transform="translate(-38.926 -52.284)" fill="#bb83ff"/>
              </g>
            </g>
          </g>
        </g>
        <g id="Grupo_67450" data-name="Grupo 67450">
          <g id="Grupo_67449" data-name="Grupo 67449">
            <g id="Grupo_67448" data-name="Grupo 67448">
              <g id="Grupo_67447" data-name="Grupo 67447">
                <path id="Trazado_113425" data-name="Trazado 113425" d="M126.681,46h-78A10.2,10.2,0,0,0,38.522,56.161h0A10.191,10.191,0,0,0,48.685,66.324h78a10.191,10.191,0,0,0,10.163-10.163h0A10.2,10.2,0,0,0,126.681,46Z" transform="translate(-38.522 -45.998)" fill="#bb83ff"/>
              </g>
            </g>
          </g>
        </g>
        <g id="Grupo_67454" data-name="Grupo 67454" transform="translate(107.152)">
          <g id="Grupo_67453" data-name="Grupo 67453">
            <g id="Grupo_67452" data-name="Grupo 67452">
              <g id="Grupo_67451" data-name="Grupo 67451">
                <path id="Trazado_113426" data-name="Trazado 113426" d="M80.672,46H65.723A10.2,10.2,0,0,0,55.56,56.161h0A10.191,10.191,0,0,0,65.723,66.324H80.672A10.2,10.2,0,0,0,90.841,56.161h0A10.2,10.2,0,0,0,80.672,46Z" transform="translate(-55.56 -45.998)" fill="#bb83ff"/>
              </g>
            </g>
          </g>
        </g>
        <g id="Grupo_67458" data-name="Grupo 67458" transform="translate(30.778 19.76)">
          <g id="Grupo_67457" data-name="Grupo 67457">
            <g id="Grupo_67456" data-name="Grupo 67456">
              <g id="Grupo_67455" data-name="Grupo 67455">
                <path id="Trazado_113427" data-name="Trazado 113427" d="M83.59,58.14v2.314A9.034,9.034,0,0,0,92.6,69.466H43.416a9.04,9.04,0,0,0,9.012-9.012V58.14a9.033,9.033,0,0,0-9.012-9H92.6A9.028,9.028,0,0,0,83.59,58.14Z" transform="translate(-43.416 -49.14)" fill="#bb83ff"/>
              </g>
            </g>
          </g>
        </g>
      </g>
      <g id="Grupo_67476" data-name="Grupo 67476" transform="translate(89.505 6.951)" opacity="0.33" style="mix-blend-mode: multiply;isolation: isolate">
        <g id="Grupo_67463" data-name="Grupo 67463" transform="translate(0 39.533)">
          <g id="Grupo_67462" data-name="Grupo 67462">
            <g id="Grupo_67461" data-name="Grupo 67461">
              <g id="Grupo_67460" data-name="Grupo 67460">
                <path id="Trazado_113428" data-name="Trazado 113428" d="M171.566,13.237H32A10.2,10.2,0,0,0,21.837,23.4h0A10.2,10.2,0,0,0,32,33.569H171.566A10.2,10.2,0,0,0,181.729,23.4h0A10.2,10.2,0,0,0,171.566,13.237Z" transform="translate(-21.837 -13.237)" fill="#bb83ff"/>
              </g>
            </g>
          </g>
        </g>
        <g id="Grupo_67467" data-name="Grupo 67467" transform="translate(31.948)">
          <g id="Grupo_67466" data-name="Grupo 67466">
            <g id="Grupo_67465" data-name="Grupo 67465">
              <g id="Grupo_67464" data-name="Grupo 67464">
                <path id="Trazado_113429" data-name="Trazado 113429" d="M115.076,6.951h-78A10.2,10.2,0,0,0,26.917,17.114h0A10.2,10.2,0,0,0,37.08,27.283h78a10.2,10.2,0,0,0,10.169-10.169h0A10.2,10.2,0,0,0,115.076,6.951Z" transform="translate(-26.917 -6.951)" fill="#bb83ff"/>
              </g>
            </g>
          </g>
        </g>
        <g id="Grupo_67471" data-name="Grupo 67471" transform="translate(136.151)">
          <g id="Grupo_67470" data-name="Grupo 67470">
            <g id="Grupo_67469" data-name="Grupo 67469">
              <g id="Grupo_67468" data-name="Grupo 67468">
                <path id="Trazado_113430" data-name="Trazado 113430" d="M68.6,6.951H53.649A10.2,10.2,0,0,0,43.486,17.114h0A10.2,10.2,0,0,0,53.649,27.283H68.6A10.2,10.2,0,0,0,78.767,17.114h0A10.2,10.2,0,0,0,68.6,6.951Z" transform="translate(-43.486 -6.951)" fill="#bb83ff"/>
              </g>
            </g>
          </g>
        </g>
        <g id="Grupo_67475" data-name="Grupo 67475" transform="translate(52.035 19.76)">
          <g id="Grupo_67474" data-name="Grupo 67474">
            <g id="Grupo_67473" data-name="Grupo 67473">
              <g id="Grupo_67472" data-name="Grupo 67472">
                <path id="Trazado_113431" data-name="Trazado 113431" d="M84.253,19.1V21.42c0,4.949,5.459,9,12.138,9H30.111c6.679,0,12.144-4.05,12.144-9V19.1c0-4.956-5.465-9.006-12.144-9.006h66.28C89.712,10.093,84.253,14.143,84.253,19.1Z" transform="translate(-30.111 -10.093)" fill="#bb83ff"/>
              </g>
            </g>
          </g>
        </g>
      </g>
      <g id="Grupo_67536" data-name="Grupo 67536" transform="translate(9.043 132.448)">
        <g id="Grupo_67528" data-name="Grupo 67528" transform="translate(24.776 8.28)">
          <g id="Grupo_67527" data-name="Grupo 67527">
            <g id="Grupo_67526" data-name="Grupo 67526">
              <g id="Grupo_67525" data-name="Grupo 67525">
                <rect id="Rectángulo_6953" data-name="Rectángulo 6953" width="17.35" height="2.616" fill="#4c4c4c"/>
              </g>
            </g>
          </g>
        </g>
        <g id="Grupo_67532" data-name="Grupo 67532" transform="translate(10.094 2.028)">
          <g id="Grupo_67531" data-name="Grupo 67531">
            <g id="Grupo_67530" data-name="Grupo 67530">
              <g id="Grupo_67529" data-name="Grupo 67529">
                <rect id="Rectángulo_6954" data-name="Rectángulo 6954" width="22.524" height="2.616" fill="#4c4c4c"/>
              </g>
            </g>
          </g>
        </g>
        <g id="Grupo_67535" data-name="Grupo 67535">
          <g id="Grupo_67534" data-name="Grupo 67534">
            <g id="Grupo_67533" data-name="Grupo 67533">
              <path id="Trazado_113439" data-name="Trazado 113439" d="M9.043,30.239a3.339,3.339,0,1,1,3.339,3.346A3.34,3.34,0,0,1,9.043,30.239Z" transform="translate(-9.043 -26.906)" fill="#4c4c4c"/>
            </g>
          </g>
        </g>
      </g>
      <g id="Grupo_67548" data-name="Grupo 67548" transform="translate(81.563 31.139)">
        <g id="Grupo_67540" data-name="Grupo 67540" transform="translate(0 8.892)">
          <g id="Grupo_67539" data-name="Grupo 67539">
            <g id="Grupo_67538" data-name="Grupo 67538">
              <g id="Grupo_67537" data-name="Grupo 67537">
                <rect id="Rectángulo_6955" data-name="Rectángulo 6955" width="17.35" height="2.616" fill="#4c4c4c"/>
              </g>
            </g>
          </g>
        </g>
        <g id="Grupo_67544" data-name="Grupo 67544" transform="translate(9.51 2.026)">
          <g id="Grupo_67543" data-name="Grupo 67543">
            <g id="Grupo_67542" data-name="Grupo 67542">
              <g id="Grupo_67541" data-name="Grupo 67541">
                <rect id="Rectángulo_6956" data-name="Rectángulo 6956" width="22.524" height="2.616" fill="#4c4c4c"/>
              </g>
            </g>
          </g>
        </g>
        <g id="Grupo_67547" data-name="Grupo 67547" transform="translate(35.456)">
          <g id="Grupo_67546" data-name="Grupo 67546">
            <g id="Grupo_67545" data-name="Grupo 67545">
              <path id="Trazado_113440" data-name="Trazado 113440" d="M32.885,14.13A3.336,3.336,0,1,1,29.545,10.8,3.336,3.336,0,0,1,32.885,14.13Z" transform="translate(-26.212 -10.797)" fill="#4c4c4c"/>
            </g>
          </g>
        </g>
      </g>
      <g id="Grupo_67560" data-name="Grupo 67560" transform="translate(32.514 258.461)">
        <g id="Grupo_67552" data-name="Grupo 67552" transform="translate(24.778 8.287)">
          <g id="Grupo_67551" data-name="Grupo 67551">
            <g id="Grupo_67550" data-name="Grupo 67550">
              <g id="Grupo_67549" data-name="Grupo 67549">
                <rect id="Rectángulo_6957" data-name="Rectángulo 6957" width="17.35" height="2.611" fill="#4c4c4c"/>
              </g>
            </g>
          </g>
        </g>
        <g id="Grupo_67556" data-name="Grupo 67556" transform="translate(10.096 2.029)">
          <g id="Grupo_67555" data-name="Grupo 67555">
            <g id="Grupo_67554" data-name="Grupo 67554">
              <g id="Grupo_67553" data-name="Grupo 67553">
                <rect id="Rectángulo_6958" data-name="Rectángulo 6958" width="22.522" height="2.616" fill="#4c4c4c"/>
              </g>
            </g>
          </g>
        </g>
        <g id="Grupo_67559" data-name="Grupo 67559">
          <g id="Grupo_67558" data-name="Grupo 67558">
            <g id="Grupo_67557" data-name="Grupo 67557">
              <path id="Trazado_113441" data-name="Trazado 113441" d="M12.775,50.282a3.339,3.339,0,1,1,3.339,3.333A3.342,3.342,0,0,1,12.775,50.282Z" transform="translate(-12.775 -46.943)" fill="#4c4c4c"/>
            </g>
          </g>
        </g>
      </g>
      <g id="Grupo_67572" data-name="Grupo 67572" transform="translate(117.527 301.491)">
        <g id="Grupo_67564" data-name="Grupo 67564" transform="translate(0 0)">
          <g id="Grupo_67563" data-name="Grupo 67563">
            <g id="Grupo_67562" data-name="Grupo 67562">
              <g id="Grupo_67561" data-name="Grupo 67561">
                <rect id="Rectángulo_6959" data-name="Rectángulo 6959" width="17.35" height="2.616" fill="#4c4c4c"/>
              </g>
            </g>
          </g>
        </g>
        <g id="Grupo_67568" data-name="Grupo 67568" transform="translate(9.51 6.252)">
          <g id="Grupo_67567" data-name="Grupo 67567">
            <g id="Grupo_67566" data-name="Grupo 67566">
              <g id="Grupo_67565" data-name="Grupo 67565">
                <rect id="Rectángulo_6960" data-name="Rectángulo 6960" width="22.522" height="2.616" fill="#4c4c4c"/>
              </g>
            </g>
          </g>
        </g>
        <g id="Grupo_67571" data-name="Grupo 67571" transform="translate(35.45 4.226)">
          <g id="Grupo_67570" data-name="Grupo 67570">
            <g id="Grupo_67569" data-name="Grupo 67569">
              <path id="Trazado_113442" data-name="Trazado 113442" d="M46.559,65.505a3.339,3.339,0,1,1-3.339-3.333A3.336,3.336,0,0,1,46.559,65.505Z" transform="translate(-39.88 -62.172)" fill="#4c4c4c"/>
            </g>
          </g>
        </g>
      </g>
      <g id="Grupo_67584" data-name="Grupo 67584" transform="translate(292.52 293.151)">
        <g id="Grupo_67576" data-name="Grupo 67576" transform="translate(24.777 8.285)">
          <g id="Grupo_67575" data-name="Grupo 67575">
            <g id="Grupo_67574" data-name="Grupo 67574">
              <g id="Grupo_67573" data-name="Grupo 67573">
                <rect id="Rectángulo_6961" data-name="Rectángulo 6961" width="17.35" height="2.611" fill="#4c4c4c"/>
              </g>
            </g>
          </g>
        </g>
        <g id="Grupo_67580" data-name="Grupo 67580" transform="translate(10.095 2.026)">
          <g id="Grupo_67579" data-name="Grupo 67579">
            <g id="Grupo_67578" data-name="Grupo 67578">
              <g id="Grupo_67577" data-name="Grupo 67577">
                <rect id="Rectángulo_6962" data-name="Rectángulo 6962" width="22.521" height="2.616" fill="#4c4c4c"/>
              </g>
            </g>
          </g>
        </g>
        <g id="Grupo_67583" data-name="Grupo 67583">
          <g id="Grupo_67582" data-name="Grupo 67582">
            <g id="Grupo_67581" data-name="Grupo 67581">
              <path id="Trazado_113443" data-name="Trazado 113443" d="M54.118,55.792a3.336,3.336,0,1,1,3.339,3.339A3.336,3.336,0,0,1,54.118,55.792Z" transform="translate(-54.118 -52.459)" fill="#4c4c4c"/>
            </g>
          </g>
        </g>
      </g>
      <g id="Grupo_67596" data-name="Grupo 67596" transform="translate(267.76 42.572)">
        <g id="Grupo_67588" data-name="Grupo 67588" transform="translate(24.774 8.286)">
          <g id="Grupo_67587" data-name="Grupo 67587">
            <g id="Grupo_67586" data-name="Grupo 67586">
              <g id="Grupo_67585" data-name="Grupo 67585">
                <rect id="Rectángulo_6963" data-name="Rectángulo 6963" width="17.35" height="2.616" fill="#4c4c4c"/>
              </g>
            </g>
          </g>
        </g>
        <g id="Grupo_67592" data-name="Grupo 67592" transform="translate(10.092 2.028)">
          <g id="Grupo_67591" data-name="Grupo 67591">
            <g id="Grupo_67590" data-name="Grupo 67590">
              <g id="Grupo_67589" data-name="Grupo 67589">
                <rect id="Rectángulo_6964" data-name="Rectángulo 6964" width="22.521" height="2.616" fill="#4c4c4c"/>
              </g>
            </g>
          </g>
        </g>
        <g id="Grupo_67595" data-name="Grupo 67595">
          <g id="Grupo_67594" data-name="Grupo 67594">
            <g id="Grupo_67593" data-name="Grupo 67593">
              <path id="Trazado_113444" data-name="Trazado 113444" d="M50.181,15.948a3.336,3.336,0,1,1,3.339,3.346A3.332,3.332,0,0,1,50.181,15.948Z" transform="translate(-50.181 -12.615)" fill="#4c4c4c"/>
            </g>
          </g>
        </g>
      </g>
      <g id="Grupo_67771" data-name="Grupo 67771" transform="translate(180.821 107.732)">
        <g id="Grupo_67766" data-name="Grupo 67766" transform="translate(11.748)">
          <g id="Grupo_67761" data-name="Grupo 67761">
            <g id="Grupo_67760" data-name="Grupo 67760">
              <g id="Grupo_67759" data-name="Grupo 67759">
                <g id="Grupo_67758" data-name="Grupo 67758">
                  <path id="Trazado_113476" data-name="Trazado 113476" d="M51.237,22.976A13.012,13.012,0,1,0,64.243,35.988,13.009,13.009,0,0,0,51.237,22.976Zm0,24.156A11.147,11.147,0,1,1,62.381,35.988,11.141,11.141,0,0,1,51.237,47.132Z" transform="translate(-38.225 -22.976)" fill="#262834" fill-rule="evenodd"/>
                </g>
              </g>
            </g>
          </g>
          <g id="Grupo_67765" data-name="Grupo 67765" transform="translate(6.358 6.358)">
            <g id="Grupo_67764" data-name="Grupo 67764">
              <g id="Grupo_67763" data-name="Grupo 67763">
                <g id="Grupo_67762" data-name="Grupo 67762">
                  <path id="Trazado_113477" data-name="Trazado 113477" d="M45.89,23.987a6.651,6.651,0,1,0,6.654,6.654A6.664,6.664,0,0,0,45.89,23.987Z" transform="translate(-39.236 -23.987)" fill="#262834" fill-rule="evenodd"/>
                </g>
              </g>
            </g>
          </g>
        </g>
        <g id="Grupo_67770" data-name="Grupo 67770" transform="translate(0 12.792)">
          <g id="Grupo_67769" data-name="Grupo 67769">
            <g id="Grupo_67768" data-name="Grupo 67768">
              <g id="Grupo_67767" data-name="Grupo 67767">
                <path id="Trazado_113478" data-name="Trazado 113478" d="M39.891,108.56H36.357V92.17c0-4.214,1.195-7.327,3.56-9.232a10,10,0,0,1,7.647-1.818h3.868a7.666,7.666,0,0,0,5.717-2.05,9.19,9.19,0,0,0,2.22-5.849V25.01h3.541V73.184a12.7,12.7,0,0,1-3.226,8.364,11.078,11.078,0,0,1-8.251,3.107H47.218l-.182-.038A6.562,6.562,0,0,0,42.118,85.7c-1.478,1.207-2.226,3.39-2.226,6.471Z" transform="translate(-36.357 -25.01)" fill="#262834"/>
              </g>
            </g>
          </g>
        </g>
      </g>
      <g id="Grupo_67865" data-name="Grupo 67865" transform="translate(47.569 76.099)">
        <g id="Grupo_67860" data-name="Grupo 67860" transform="translate(17.647)">
          <g id="Grupo_67855" data-name="Grupo 67855">
            <g id="Grupo_67854" data-name="Grupo 67854">
              <g id="Grupo_67853" data-name="Grupo 67853">
                <g id="Grupo_67852" data-name="Grupo 67852">
                  <path id="Trazado_113497" data-name="Trazado 113497" d="M30.987,17.946A13.015,13.015,0,1,0,43.993,30.964,13.015,13.015,0,0,0,30.987,17.946Zm0,24.162A11.147,11.147,0,1,1,42.131,30.964,11.145,11.145,0,0,1,30.987,42.108Z" transform="translate(-17.975 -17.946)" fill="#262834" fill-rule="evenodd"/>
                </g>
              </g>
            </g>
          </g>
          <g id="Grupo_67859" data-name="Grupo 67859" transform="translate(6.358 6.364)">
            <g id="Grupo_67858" data-name="Grupo 67858">
              <g id="Grupo_67857" data-name="Grupo 67857">
                <g id="Grupo_67856" data-name="Grupo 67856">
                  <path id="Trazado_113498" data-name="Trazado 113498" d="M25.64,18.958a6.651,6.651,0,1,0,6.654,6.654A6.668,6.668,0,0,0,25.64,18.958Z" transform="translate(-18.986 -18.958)" fill="#262834" fill-rule="evenodd"/>
                </g>
              </g>
            </g>
          </g>
        </g>
        <g id="Grupo_67864" data-name="Grupo 67864" transform="translate(0 12.792)">
          <g id="Grupo_67863" data-name="Grupo 67863">
            <g id="Grupo_67862" data-name="Grupo 67862">
              <g id="Grupo_67861" data-name="Grupo 67861">
                <path id="Trazado_113499" data-name="Trazado 113499" d="M18.71,103.53H15.169V87.147c0-4.22,1.195-7.327,3.56-9.245a10.065,10.065,0,0,1,7.654-1.811h9.761a7.663,7.663,0,0,0,5.717-2.044,9.212,9.212,0,0,0,2.22-5.855V19.98H47.62V68.154a12.724,12.724,0,0,1-3.226,8.371,11.078,11.078,0,0,1-8.251,3.107H26.036l-.182-.038a6.56,6.56,0,0,0-4.918,1.082c-1.478,1.207-2.226,3.39-2.226,6.471Z" transform="translate(-15.169 -19.98)" fill="#262834"/>
              </g>
            </g>
          </g>
        </g>
      </g>
    </g>
    <g id="Grupo_68008" data-name="Grupo 68008" transform="translate(224.044 3798.102)">
      <g id="Grupo_68121" data-name="Grupo 68121" transform="translate(77.73 153.6)">
        <g id="Grupo_68008-2" data-name="Grupo 68008" transform="translate(70.594 96.17)" opacity="0.3">
          <path id="Trazado_113520" data-name="Trazado 113520" d="M608.813,983.9c-3.177-11.65,15.63-18.464,15.63-18.464s21.842,10.832,25.439,9.284-16.866-12.908-16.866-12.908c6.123-4.438,27.338-6.189,27.338-6.189s11,21.138,14.1,18.753-10.693-18.22-10.693-18.22c7.389-1.8,17.554,2.086,17.554,2.086,14.335,7.636,3.79,25.649,3.79,25.649a38.74,38.74,0,0,0,13.16,12.83h0a28.091,28.091,0,0,1,4.391,2.9l-1.713,1.005c-.41-.377-.824-.731-1.245-1.057a.011.011,0,0,0-.008-.006l-.018-.014c-.273-.2-.662-.473-1.142-.809h0l0,0c-1.125-.717-1.922-1.266-2.466-1.682l0,0c-3.455-2.3-8.173-5.16-10.2-5.155a3.849,3.849,0,0,0-.094-1c.03.319.061.652.094,1,.755,8-13.29,17.654-22.441,20.772s-6.943-1.275-4.739-7.6,12-10.742,13.859-13.805-2.977-2.195-8.176,1.42-4.726,10.657-13.03,16.657-24.715-6.612-24.715-6.612c7.179-1.679,16.1-11.421,15.293-13.761s-16.813,7.333-19.695,8.179S611.99,995.549,608.813,983.9Z" transform="translate(-608.452 -955.623)" fill="#aec3ff"/>
        </g>
        <g id="Grupo_68009" data-name="Grupo 68009" transform="translate(265.777 130.585)">
          <path id="Trazado_113521" data-name="Trazado 113521" d="M1839.592,1231.153c11.682-11.346-5.476-32.161-5.476-32.161s-32.791-2.413-35.9-6.677,28.438-3.411,28.438-3.411c-4.064-9.355-27.492-25.946-27.492-25.946s-27.273,16.995-29.241,12.095,24.916-13.816,24.916-13.816c-7.342-7.163-21.812-9.624-21.812-9.624-21.882-.972-22,27.177-22,27.177s-9.579,5.686-24.083,5.865h0a37.889,37.889,0,0,0-7.085.35l1.3,2.343c.734-.157,1.458-.283,2.171-.373a.015.015,0,0,1,.013,0l.031,0c.451-.04,1.094-.1,1.881-.156h.007c1.8-.061,3.1-.151,4.018-.26l.008,0c5.587-.294,13.029-.382,15.374,1.012a5.183,5.183,0,0,1,.8-1.1l-.8,1.1c-6.369,8.774,3.315,29.615,11.8,39.514s8.935,3.284,10.713-5.566-6.557-20.7-6.616-25.538,4.962-.5,8.518,7.259-1.826,15.616,3.7,28.28S1806,1240.8,1806,1240.8c-7.183-6.876-10.858-24.31-8.312-26.471s14.488,20.051,17.253,23.011S1827.91,1242.5,1839.592,1231.153Z" transform="translate(-1719.852 -1151.588)" fill="#dfebfd"/>
        </g>
        <g id="Grupo_68012" data-name="Grupo 68012" transform="translate(93.698 70.765)">
          <g id="Grupo_68010" data-name="Grupo 68010" transform="translate(10.191)" opacity="0.5">
            <path id="Trazado_113522" data-name="Trazado 113522" d="M832.305,830.163s-14.923-15.546-31.366-19.14a2.393,2.393,0,0,0-2.377,3.822l.071.088C801.044,817.9,820.54,823.359,832.305,830.163Z" transform="translate(-798.041 -810.965)" fill="#c5ddff"/>
          </g>
          <g id="Grupo_68011" data-name="Grupo 68011" transform="translate(0 10.154)" opacity="0.5">
            <path id="Trazado_113523" data-name="Trazado 113523" d="M789.219,881.914s-24.827-14.775-46.849-12.982a2.538,2.538,0,0,0-2.356,2.592c.039.877.541,1.913,2.048,2.986C746.082,877.37,772.233,877.481,789.219,881.914Z" transform="translate(-740.012 -868.781)" fill="#c5ddff"/>
          </g>
        </g>
        <g id="Grupo_68015" data-name="Grupo 68015" transform="translate(316.153 92.492)" opacity="0.5">
          <g id="Grupo_68013" data-name="Grupo 68013" transform="translate(1.64)" opacity="0.5">
            <path id="Trazado_113524" data-name="Trazado 113524" d="M2016.036,970.458s3.543-22.153,15.477-34.982a2.491,2.491,0,0,1,4.3,1.859c0,.039-.005.078-.008.117C2035.5,941.417,2022.063,957.657,2016.036,970.458Z" transform="translate(-2016.036 -934.683)" fill="#aec3ff"/>
          </g>
          <g id="Grupo_68014" data-name="Grupo 68014" transform="translate(0 2.827)" opacity="0.5">
            <path id="Trazado_113525" data-name="Trazado 113525" d="M2006.7,990.046s12.472-27.368,32.374-38.9a2.642,2.642,0,0,1,3.553.819c.487.773.672,1.957.019,3.769C2040.9,960.567,2018.6,976.177,2006.7,990.046Z" transform="translate(-2006.699 -950.782)" fill="#aec3ff"/>
          </g>
        </g>
        <g id="Grupo_68016" data-name="Grupo 68016" transform="translate(211.982 15.953)" opacity="0.2">
          <path id="Trazado_113526" data-name="Trazado 113526" d="M1417.293,560.284l8.689-.954a1.937,1.937,0,0,1,1.822.878q.751,1.173,1.61,2.3a32.518,32.518,0,0,0,3.429,3.85,1.912,1.912,0,0,1,.465,2.1l-3.356,8.5a1.877,1.877,0,0,0,.918,2.383l7.474,3.728a1.856,1.856,0,0,0,2.381-.653l4.546-7.078a1.863,1.863,0,0,1,2.088-.8,33.766,33.766,0,0,0,10.593,1.085,1.924,1.924,0,0,1,1.922,1.341l1.52,4.887a1.943,1.943,0,0,0,2.2,1.318l8.133-1.621a1.7,1.7,0,0,0,.47-.155,1.865,1.865,0,0,0,1.045-1.9l-.705-6.492-.175-1.582a33.406,33.406,0,0,0,3.949-2.592,33.878,33.878,0,0,0,4.637-4.269,1.863,1.863,0,0,1,2.081-.5l6.842,2.711a1.931,1.931,0,0,0,2.44-.937l2.851-5.714.813-1.64a1.956,1.956,0,0,0-.688-2.522l-5.912-3.8a1.861,1.861,0,0,1-.829-2.031,33.521,33.521,0,0,0,.923-7.11,5.924,5.924,0,0,0,.02-.6,1.008,1.008,0,0,1,.014-.2,1.906,1.906,0,0,1,1.349-1.629l7.929-2.485a1.4,1.4,0,0,0,.259-.1,1.939,1.939,0,0,0,1.051-2.1l-1.6-8.11a1.929,1.929,0,0,0-2.1-1.542l-9.063,1a1.864,1.864,0,0,1-1.868-.986,34.111,34.111,0,0,0-2.824-4.348q-.851-1.115-1.775-2.137a1.965,1.965,0,0,1-.366-2.036l3.223-8.169a1.875,1.875,0,0,0-.906-2.368l-7.4-3.677a1.96,1.96,0,0,0-2.53.694l-3.6,5.6a1.925,1.925,0,0,1-2.243.787,33.7,33.7,0,0,0-10.216-1.865,1.914,1.914,0,0,1-1.8-1.351l-2.237-7.147a1.979,1.979,0,0,0-2.262-1.346l-8.082,1.594a1.892,1.892,0,0,0-1.517,2.069l.037.379.822,7.542a1.934,1.934,0,0,1-1.051,1.941l-.007.006a33.491,33.491,0,0,0-5.02,3.17c-.857.654-1.664,1.341-2.448,2.059a1.9,1.9,0,0,1-2,.384l-6.946-2.752a1.963,1.963,0,0,0-2.482.945l-3.666,7.367a2.116,2.116,0,0,0-.189.648,1.954,1.954,0,0,0,.87,1.832l4.731,3.025a1.953,1.953,0,0,1,.88,1.7,2.078,2.078,0,0,1-.1.531,33.568,33.568,0,0,0-1.743,13.159,1.889,1.889,0,0,1-1.019,1.809,1.925,1.925,0,0,1-.3.123l-6.422,2.008a1.922,1.922,0,0,0-1.31,2.2l.036.188,1.556,7.906A1.956,1.956,0,0,0,1417.293,560.284Zm55.646-24.511a22.442,22.442,0,0,1,1.168,4.016,17.65,17.65,0,0,1-1.283,9.532c-.131.268-.268.529-.406.789-8.544,15.755-30.817,12.554-34.435-5.26a18.3,18.3,0,0,1,.677-8.314,11.925,11.925,0,0,1,.669-1.638,20.753,20.753,0,0,1,4.162-5.694A18.108,18.108,0,0,1,1472.939,535.773Z" transform="translate(-1413.535 -498.859)" fill="#91b5f8"/>
        </g>
        <g id="Grupo_68017" data-name="Grupo 68017" transform="translate(323.356 25.003)">
          <path id="Trazado_113527" data-name="Trazado 113527" d="M2050.045,588.533l5.4-.592a1.2,1.2,0,0,1,1.131.545q.467.728,1,1.428a20.212,20.212,0,0,0,2.129,2.391,1.187,1.187,0,0,1,.289,1.307l-2.084,5.277a1.165,1.165,0,0,0,.57,1.48l4.641,2.315a1.152,1.152,0,0,0,1.479-.406l2.823-4.4a1.157,1.157,0,0,1,1.3-.5,20.979,20.979,0,0,0,6.578.674,1.194,1.194,0,0,1,1.194.833l.944,3.035a1.207,1.207,0,0,0,1.369.818l5.05-1.007a1.05,1.05,0,0,0,.292-.1,1.158,1.158,0,0,0,.649-1.18l-.438-4.031-.109-.982a20.755,20.755,0,0,0,2.452-1.61,21.06,21.06,0,0,0,2.88-2.651,1.157,1.157,0,0,1,1.292-.308l4.249,1.683a1.2,1.2,0,0,0,1.515-.582l1.771-3.548.5-1.018a1.215,1.215,0,0,0-.427-1.566l-3.672-2.362a1.155,1.155,0,0,1-.515-1.261,20.845,20.845,0,0,0,.573-4.415,3.712,3.712,0,0,0,.012-.374.615.615,0,0,1,.009-.126,1.184,1.184,0,0,1,.838-1.012l4.924-1.543a.889.889,0,0,0,.161-.063,1.2,1.2,0,0,0,.653-1.3l-1-5.036a1.2,1.2,0,0,0-1.3-.957l-5.628.62a1.158,1.158,0,0,1-1.16-.612,21.164,21.164,0,0,0-1.754-2.7q-.528-.692-1.1-1.327a1.22,1.22,0,0,1-.227-1.265l2-5.073a1.165,1.165,0,0,0-.563-1.47l-4.595-2.284a1.217,1.217,0,0,0-1.571.431l-2.234,3.477a1.2,1.2,0,0,1-1.393.489,20.923,20.923,0,0,0-6.344-1.158,1.188,1.188,0,0,1-1.117-.839l-1.389-4.438a1.229,1.229,0,0,0-1.4-.836l-5.019.99a1.175,1.175,0,0,0-.942,1.285l.023.236.51,4.684a1.2,1.2,0,0,1-.653,1.205l0,0a20.8,20.8,0,0,0-3.117,1.968c-.532.406-1.033.833-1.52,1.279a1.179,1.179,0,0,1-1.241.239l-4.313-1.709a1.219,1.219,0,0,0-1.541.587l-2.277,4.575a1.313,1.313,0,0,0-.118.4,1.214,1.214,0,0,0,.54,1.138l2.938,1.879a1.212,1.212,0,0,1,.546,1.058,1.311,1.311,0,0,1-.061.33,20.837,20.837,0,0,0-1.083,8.171,1.174,1.174,0,0,1-.633,1.124,1.227,1.227,0,0,1-.188.076l-3.988,1.247a1.193,1.193,0,0,0-.813,1.365l.022.117.967,4.91A1.214,1.214,0,0,0,2050.045,588.533Zm34.556-15.221a13.956,13.956,0,0,1,.725,2.494,10.961,10.961,0,0,1-.8,5.919c-.081.166-.167.328-.252.49-5.306,9.784-19.137,7.8-21.384-3.267a11.364,11.364,0,0,1,.42-5.163,7.349,7.349,0,0,1,.416-1.017,12.881,12.881,0,0,1,2.584-3.536A11.245,11.245,0,0,1,2084.6,573.312Z" transform="translate(-2047.711 -550.388)" fill="#31d9e7"/>
        </g>
        <g id="Grupo_68018" data-name="Grupo 68018" transform="translate(291.114)">
          <path id="Trazado_113528" data-name="Trazado 113528" d="M1867.236,438.206l3.685-1.237a.862.862,0,0,1,.875.209q.437.439.917.846a14.447,14.447,0,0,0,1.854,1.349.85.85,0,0,1,.4.87l-.654,4.01a.835.835,0,0,0,.624.949l3.6.913a.825.825,0,0,0,.973-.509l1.306-3.505a.829.829,0,0,1,.831-.546,15.014,15.014,0,0,0,4.705-.531.856.856,0,0,1,.962.4l1.123,1.98a.864.864,0,0,0,1.082.364l3.38-1.474a.752.752,0,0,0,.19-.112.829.829,0,0,0,.274-.925l-.921-2.754-.225-.671a14.9,14.9,0,0,0,1.47-1.5,15.1,15.1,0,0,0,1.611-2.294.828.828,0,0,1,.857-.412l3.229.531a.859.859,0,0,0,.971-.638l.7-2.752.2-.789a.87.87,0,0,0-.538-1.031l-2.928-1.093a.827.827,0,0,1-.552-.8,14.923,14.923,0,0,0-.272-3.176c-.011-.092-.029-.175-.048-.264a.436.436,0,0,1-.013-.089.847.847,0,0,1,.432-.835l3.21-1.83a.62.62,0,0,0,.1-.068.861.861,0,0,0,.258-1.011l-1.464-3.372a.858.858,0,0,0-1.058-.471l-3.843,1.291a.829.829,0,0,1-.905-.252,15.137,15.137,0,0,0-1.638-1.622q-.475-.4-.973-.761a.874.874,0,0,1-.352-.85l.628-3.854a.834.834,0,0,0-.618-.943l-3.563-.9a.872.872,0,0,0-1.034.541l-1.034,2.773a.856.856,0,0,1-.9.554,14.98,14.98,0,0,0-4.615.156.851.851,0,0,1-.909-.417l-1.648-2.894a.88.88,0,0,0-1.11-.371l-3.36,1.457a.841.841,0,0,0-.464,1.042l.052.161,1.071,3.2a.86.86,0,0,1-.273.943l0,0a14.9,14.9,0,0,0-1.881,1.852c-.311.365-.6.74-.869,1.126a.844.844,0,0,1-.832.356l-3.278-.539a.873.873,0,0,0-.989.646l-.9,3.548a.93.93,0,0,0-.021.3.869.869,0,0,0,.551.714l2.342.867a.868.868,0,0,1,.544.657.926.926,0,0,1,.007.24,14.928,14.928,0,0,0,.487,5.882.84.84,0,0,1-.272.882.863.863,0,0,1-.12.082l-2.6,1.48a.855.855,0,0,0-.361,1.079l.033.079,1.424,3.288A.87.87,0,0,0,1867.236,438.206Zm21.859-15.913a10,10,0,0,1,.887,1.634,7.849,7.849,0,0,1,.344,4.263c-.032.129-.067.255-.1.381a8.11,8.11,0,0,1-15.952-2.7,5.289,5.289,0,0,1,.136-.775,9.227,9.227,0,0,1,1.27-2.868A8.052,8.052,0,0,1,1889.095,422.293Z" transform="translate(-1864.124 -408.018)" fill="#f17781"/>
        </g>
        <g id="Grupo_68019" data-name="Grupo 68019" transform="translate(29.085 211.7)">
          <path id="Trazado_113529" data-name="Trazado 113529" d="M372.883,1631.1h15.888c.852-.722-.589-2.362-2.094-2.473a9.277,9.277,0,0,0-2.425.287c-.219-2.9-1.467-15.959-6.173-15.434-5.291.587,0,5.749,1.5,8.805a72.7,72.7,0,0,1,2.811,7.042c-.43.093-.874.185-1.329.268-.7-2.154-3.311-9.4-6.629-8.975-3.9.494-2.33,3.4.432,5.122,2.026,1.268,4.514,3.069,5.7,3.94a16.876,16.876,0,0,1-3.107.249C374.727,1629.869,373.4,1630.671,372.883,1631.1Z" transform="translate(-372.093 -1613.467)" fill="#a8d29f"/>
        </g>
        <g id="Grupo_68020" data-name="Grupo 68020" transform="translate(401.272 209.007)">
          <path id="Trazado_113530" data-name="Trazado 113530" d="M2509.631,1618.078h-17.966c-.963-.817.666-2.671,2.368-2.8a10.5,10.5,0,0,1,2.742.325c.247-3.284,1.659-18.046,6.98-17.453,5.983.664,0,6.5-1.691,9.957a82.08,82.08,0,0,0-3.178,7.963c.485.105.988.208,1.5.3.793-2.435,3.744-10.625,7.5-10.148,4.406.559,2.635,3.843-.488,5.792-2.291,1.434-5.1,3.471-6.441,4.455a19.1,19.1,0,0,0,3.514.281C2507.547,1616.683,2509.049,1617.59,2509.631,1618.078Z" transform="translate(-2491.378 -1598.136)" fill="#a8d29f"/>
        </g>
        <g id="Grupo_68049" data-name="Grupo 68049" transform="translate(125.823 63.141)">
          <g id="Grupo_68032" data-name="Grupo 68032">
            <g id="Grupo_68021" data-name="Grupo 68021" transform="translate(85.605 55.252)">
              <path id="Trazado_113531" data-name="Trazado 113531" d="M1419.147,1083.14l-8.691,103.332s-.911,6.264,3.749,6.275c7.661.018,38.13,0,38.13,0s-5.766-1.3-5.7-4.238c.082-3.458,10.157-106.347,10.157-106.347Z" transform="translate(-1410.384 -1082.162)" fill="#47286d"/>
            </g>
            <g id="Grupo_68022" data-name="Grupo 68022" transform="translate(88.11 53.377)">
              <path id="Trazado_113532" data-name="Trazado 113532" d="M1466.959,1182.112c-1.507,0-31,.054-38.465-.041-3.251-.04-3.821-2.891-3.848-4.735a9.23,9.23,0,0,1,.1-1.538l.226-2.686.576-6.845.509-6.048.654-7.771.551-6.559,6.175-73.425,37.65-.977s-4.243,43.058-7.245,74.4c-.335,3.492-.654,6.841-.948,9.966q-.143,1.5-.277,2.923c-.278,2.966-.533,5.689-.754,8.093-.117,1.267-.225,2.445-.322,3.524-.383,4.227-.608,6.926-.611,7.439a4.332,4.332,0,0,0,.073.837C1461.619,1181.963,1466.393,1182.112,1466.959,1182.112Z" transform="translate(-1424.645 -1071.486)" fill="#c5a3ef"/>
            </g>
            <g id="Grupo_68023" data-name="Grupo 68023" transform="translate(2.934 0)">
              <path id="Trazado_113533" data-name="Trazado 113533" d="M939.642,767.552l21.168,85.029,2.9,11.645,9.859,39.6h183.169L1120.4,767.552Z" transform="translate(-939.642 -767.552)" fill="#c5a3ef"/>
            </g>
            <g id="Grupo_68024" data-name="Grupo 68024">
              <path id="Trazado_113534" data-name="Trazado 113534" d="M925.869,767.551l-2.934.978L955.9,906.788l3.9-2.958Z" transform="translate(-922.935 -767.551)" fill="#47286d"/>
            </g>
            <g id="Grupo_68025" data-name="Grupo 68025" transform="translate(32.96 136.279)">
              <path id="Trazado_113535" data-name="Trazado 113535" d="M1110.614,1546.5h182.042l5.027-2.958H1114.514Z" transform="translate(-1110.614 -1543.545)" fill="#47286d"/>
            </g>
            <g id="Grupo_68026" data-name="Grupo 68026" transform="translate(96.888 164.003)">
              <rect id="Rectángulo_6989" data-name="Rectángulo 6989" width="39.415" height="1.873" transform="translate(39.415 1.873) rotate(180)" fill="#47286d"/>
            </g>
            <g id="Grupo_68027" data-name="Grupo 68027" transform="translate(89.012 139.236)">
              <path id="Trazado_113536" data-name="Trazado 113536" d="M1467.051,1560.383l-.2,1.432-37.068,7.489.509-6.048.242-2.873Z" transform="translate(-1429.78 -1560.383)" fill="#47286d"/>
            </g>
            <g id="Grupo_68028" data-name="Grupo 68028" transform="translate(88.111 152.285)" opacity="0.5">
              <path id="Trazado_113537" data-name="Trazado 113537" d="M1466.964,1646.4c-1.507,0-31,.055-38.465-.041-3.251-.04-3.821-2.891-3.848-4.736l36.893-6.941c-.383,4.227-.608,6.926-.611,7.439a4.328,4.328,0,0,0,.073.836C1461.625,1646.253,1466.4,1646.4,1466.964,1646.4Z" transform="translate(-1424.651 -1634.684)" fill="#bb83ff"/>
            </g>
            <g id="Grupo_68029" data-name="Grupo 68029" transform="translate(2.934)">
              <path id="Trazado_113538" data-name="Trazado 113538" d="M939.641,767.551H1120.4l29.328,109.525H966.907Z" transform="translate(-939.641 -767.551)" fill="#bb83ff"/>
            </g>
            <g id="Grupo_68030" data-name="Grupo 68030" transform="translate(10.421 5.867)">
              <path id="Trazado_113539" data-name="Trazado 113539" d="M1176.343,899.871H1007.1l-6.048-24.092-2.34-9.322-.954-3.8L991.543,837.9l-.322-1.289-3.286-13.087-1.47-5.856-1.254-5-2.94-11.71h166.8l3.229,11.71,1.376,5,1.615,5.856,10.635,38.578v0l.9,3.268.419,1.517,7.343,26.634Z" transform="translate(-982.271 -800.959)" fill="#505aba"/>
            </g>
            <g id="Grupo_68031" data-name="Grupo 68031" transform="translate(30.2 109.525)">
              <path id="Trazado_113540" data-name="Trazado 113540" d="M1163.572,1391.2l-61.952,27.073L1094.9,1391.2Z" transform="translate(-1094.898 -1391.203)" fill="#bb83ff"/>
            </g>
          </g>
          <g id="Grupo_68048" data-name="Grupo 68048" transform="translate(72.83 17.58)">
            <g id="Grupo_68037" data-name="Grupo 68037" transform="translate(11.577)">
              <g id="Grupo_68034" data-name="Grupo 68034" transform="translate(0.058 0.057)">
                <g id="Grupo_68033" data-name="Grupo 68033">
                  <path id="Trazado_113541" data-name="Trazado 113541" d="M1433.471,918.131c-13.827,0-26.942-11.249-29.235-25.076s7.091-25.077,20.918-25.077,26.942,11.249,29.235,25.077S1447.3,918.131,1433.471,918.131Zm-7.6-45.83c-11.443,0-19.209,9.31-17.311,20.753s12.751,20.753,24.195,20.753,19.209-9.31,17.311-20.753S1437.314,872.3,1425.871,872.3Z" transform="translate(-1403.891 -867.978)" fill="#e6f0ff"/>
                </g>
              </g>
              <g id="Grupo_68036" data-name="Grupo 68036">
                <g id="Grupo_68035" data-name="Grupo 68035">
                  <path id="Trazado_113542" data-name="Trazado 113542" d="M1433.208,917.92c-13.859,0-27-11.275-29.3-25.134s7.107-25.134,20.965-25.134a30.883,30.883,0,0,1,29.3,25.134,1.832,1.832,0,0,1-1.851,2.219,2.726,2.726,0,0,1-2.587-2.219,25.429,25.429,0,0,0-24.128-20.7c-11.412,0-19.156,9.284-17.264,20.7s12.716,20.7,24.128,20.7a2.726,2.726,0,0,1,2.587,2.219A1.832,1.832,0,0,1,1433.208,917.92Z" transform="translate(-1403.56 -867.652)" fill="#31d9e7"/>
                </g>
              </g>
            </g>
            <g id="Grupo_68045" data-name="Grupo 68045" transform="translate(0 67.143)">
              <g id="Grupo_68038" data-name="Grupo 68038" transform="translate(0 0)">
                <path id="Trazado_113543" data-name="Trazado 113543" d="M1426.444,1252.353l.4,2.4a1.968,1.968,0,0,1-1.984,2.378h-84.013a2.931,2.931,0,0,1-2.773-2.378l-.4-2.4a1.968,1.968,0,0,1,1.984-2.378h84.013A2.931,2.931,0,0,1,1426.444,1252.353Z" transform="translate(-1337.641 -1249.975)" fill="#e6f0ff"/>
              </g>
              <g id="Grupo_68044" data-name="Grupo 68044">
                <g id="Grupo_68039" data-name="Grupo 68039" transform="translate(0 0)">
                  <path id="Trazado_113544" data-name="Trazado 113544" d="M1399.3,1249.975l1.187,7.155h-59.646a2.931,2.931,0,0,1-2.773-2.378l-.4-2.4a1.968,1.968,0,0,1,1.984-2.378Z" transform="translate(-1337.641 -1249.975)" fill="#bb83ff"/>
                </g>
                <g id="Grupo_68040" data-name="Grupo 68040" transform="translate(31.523)">
                  <path id="Trazado_113545" data-name="Trazado 113545" d="M1534.9,1249.975l-5.413,7.155h-12.348l5.413-7.155Z" transform="translate(-1517.139 -1249.975)" fill="#31d9e7"/>
                </g>
                <g id="Grupo_68041" data-name="Grupo 68041" transform="translate(51.404)">
                  <path id="Trazado_113546" data-name="Trazado 113546" d="M1640.6,1249.975l1.187,7.155h-11.445l5.413-7.155Z" transform="translate(-1630.345 -1249.975)" fill="#31d9e7"/>
                </g>
                <g id="Grupo_68042" data-name="Grupo 68042" transform="translate(11.642)">
                  <path id="Trazado_113547" data-name="Trazado 113547" d="M1421.692,1249.975l-5.413,7.155h-12.348l5.413-7.155Z" transform="translate(-1403.932 -1249.975)" fill="#31d9e7"/>
                </g>
                <g id="Grupo_68043" data-name="Grupo 68043" transform="translate(0 0)">
                  <path id="Trazado_113548" data-name="Trazado 113548" d="M1347.162,1249.975l-5.413,7.155h-.905a2.931,2.931,0,0,1-2.773-2.378l-.4-2.4a1.968,1.968,0,0,1,1.984-2.378Z" transform="translate(-1337.641 -1249.975)" fill="#31d9e7"/>
                </g>
              </g>
            </g>
            <g id="Grupo_68046" data-name="Grupo 68046" transform="translate(22.791 20.211)">
              <path id="Trazado_113549" data-name="Trazado 113549" d="M1472.337,985.083h-4.682l-.238-1.437h6.545l.205,1.237-2.864,8.075h-1.836Z" transform="translate(-1467.416 -983.487)" fill="#e6f0ff"/>
              <path id="Trazado_113550" data-name="Trazado 113550" d="M1515.186,987.553c-.441-2.661.824-4.815,3.272-4.815s4.4,2.128,4.842,4.815c.441,2.661-.824,4.816-3.272,4.816S1515.632,990.241,1515.186,987.553Zm6.425,0c-.3-1.836-1.5-3.339-2.935-3.339s-2.112,1.463-1.8,3.339c.3,1.836,1.485,3.339,2.935,3.339S1521.92,989.416,1521.611,987.553Z" transform="translate(-1506.725 -982.738)" fill="#e6f0ff"/>
              <path id="Trazado_113551" data-name="Trazado 113551" d="M1567.325,985.422a1.868,1.868,0,0,1,1.813-2.381,2.737,2.737,0,0,1,2.577,2.381,1.867,1.867,0,0,1-1.813,2.381A2.737,2.737,0,0,1,1567.325,985.422Zm3.206,0a1.479,1.479,0,0,0-1.249-1.357c-.625,0-.9.612-.773,1.357a1.469,1.469,0,0,0,1.249,1.357C1570.384,986.779,1570.655,986.167,1570.531,985.422Zm4.172-2.275h1.317l-5.266,9.312h-1.317Zm-.961,7.037a1.868,1.868,0,0,1,1.813-2.381,2.737,2.737,0,0,1,2.576,2.381,1.867,1.867,0,0,1-1.813,2.381A2.737,2.737,0,0,1,1573.742,990.185Zm3.206,0a1.479,1.479,0,0,0-1.249-1.357c-.625,0-.9.612-.773,1.357a1.468,1.468,0,0,0,1.249,1.357C1576.8,991.541,1577.071,990.929,1576.948,990.185Z" transform="translate(-1549.748 -982.988)" fill="#e6f0ff"/>
            </g>
            <g id="Grupo_68047" data-name="Grupo 68047" transform="translate(34.702 61.365)">
              <path id="Trazado_113552" data-name="Trazado 113552" d="M1535.238,1217.772h.5l.4,2.411h1.509l.076.459h-2.013Z" transform="translate(-1535.238 -1217.649)" fill="#e6f0ff"/>
              <path id="Trazado_113553" data-name="Trazado 113553" d="M1550.07,1222.664a.935.935,0,0,1,.968-1.132,1.377,1.377,0,0,1,1.34,1.132.935.935,0,0,1-.973,1.128A1.375,1.375,0,0,1,1550.07,1222.664Zm1.812,0a.821.821,0,0,0-.78-.7.542.542,0,0,0-.536.7.823.823,0,0,0,.776.7A.544.544,0,0,0,1551.882,1222.664Z" transform="translate(-1547.452 -1220.749)" fill="#e6f0ff"/>
              <path id="Trazado_113554" data-name="Trazado 113554" d="M1567.124,1223.8l-.044-.267a.731.731,0,0,1-.649.312.846.846,0,0,1-.883-.676c-.08-.48.255-.71.76-.71a1.964,1.964,0,0,1,.614.09l-.007-.041a.546.546,0,0,0-.61-.463,1.356,1.356,0,0,0-.6.135l-.2-.4a1.668,1.668,0,0,1,.794-.18,1.012,1.012,0,0,1,1.1.914l.213,1.283Zm-.138-.906a1.542,1.542,0,0,0-.51-.086c-.312,0-.475.127-.439.344a.435.435,0,0,0,.471.32c.328,0,.543-.184.5-.455Z" transform="translate(-1560.19 -1220.807)" fill="#e6f0ff"/>
              <path id="Trazado_113555" data-name="Trazado 113555" d="M1579.13,1218.979a.858.858,0,0,1,.818-1.124,1.081,1.081,0,0,1,.8.381l-.193-1.164h.5l.5,2.993h-.5l-.06-.361a.711.711,0,0,1-.671.406A1.275,1.275,0,0,1,1579.13,1218.979Zm1.751,0a.8.8,0,0,0-.742-.693c-.34,0-.58.263-.507.7a.79.79,0,0,0,.738.693A.543.543,0,0,0,1580.881,1218.979Z" transform="translate(-1571.405 -1217.072)" fill="#e6f0ff"/>
              <path id="Trazado_113556" data-name="Trazado 113556" d="M1593.767,1217.212h.533l.078.472h-.533Zm.154.8h.5l.359,2.165h-.5Z" transform="translate(-1583.488 -1217.187)" fill="#e6f0ff"/>
              <path id="Trazado_113557" data-name="Trazado 113557" d="M1601.155,1221.577h.5l.056.336a.639.639,0,0,1,.613-.381.905.905,0,0,1,.909.832l.229,1.378h-.5l-.2-1.23a.551.551,0,0,0-.551-.529c-.287,0-.454.2-.4.537l.2,1.222h-.5Z" transform="translate(-1589.579 -1220.749)" fill="#e6f0ff"/>
              <path id="Trazado_113558" data-name="Trazado 113558" d="M1616.212,1224.148l.123-.373a1.606,1.606,0,0,0,.809.23c.443,0,.647-.23.574-.664l-.028-.168a.748.748,0,0,1-.7.4,1.194,1.194,0,0,1-1.153-1.021.809.809,0,0,1,.815-1.017,1.12,1.12,0,0,1,.82.369l-.054-.324h.5l.286,1.722a.985.985,0,0,1-.139.816,1.052,1.052,0,0,1-.841.291A2.1,2.1,0,0,1,1616.212,1224.148Zm1.379-1.6a.741.741,0,0,0-.735-.6.487.487,0,0,0-.515.6.723.723,0,0,0,.714.6A.5.5,0,0,0,1617.591,1222.549Z" transform="translate(-1601.671 -1220.749)" fill="#e6f0ff"/>
            </g>
          </g>
        </g>
        <g id="Grupo_68075" data-name="Grupo 68075" transform="translate(56.449 121.312)">
          <g id="Grupo_68070" data-name="Grupo 68070">
            <g id="Grupo_68050" data-name="Grupo 68050" transform="translate(44.706)">
              <path id="Trazado_113559" data-name="Trazado 113559" d="M799,1103.4s.424-4.618-4.736-4.618a6.061,6.061,0,0,1,2.372,1.272,6.1,6.1,0,0,0-6.871,1.037c-3.581,2.968-1.356,10.413-2.445,11.826s-5.329,1.7-4.811,6.267,13.458,10.295,12.627,14.076c0,0,5.071-7.455,1.445-10.856a6.72,6.72,0,0,1,1.947,3.644s.48-3.864-1.979-5.1c-2.176-1.094-3.958-5.093-3.769-5.808S799,1103.4,799,1103.4Z" transform="translate(-782.469 -1098.785)" fill="#2c3a64"/>
            </g>
            <g id="Grupo_68051" data-name="Grupo 68051" transform="translate(50.695 26.787)">
              <path id="Trazado_113560" data-name="Trazado 113560" d="M822.041,1251.316s3.854,15.945,7.638,19.133c2.274,1.916,9.036,6.313,9.036,6.313l-2.813,1.021s-9.379-3.168-11.478-5.636-7.849-14.839-7.849-14.839Z" transform="translate(-816.575 -1251.316)" fill="#ffb27d"/>
            </g>
            <g id="Grupo_68052" data-name="Grupo 68052" transform="translate(54.78 51.839)">
              <path id="Trazado_113561" data-name="Trazado 113561" d="M863.35,1400.184l-.906-2.243a6.362,6.362,0,0,0-5.9-3.979H839.836v55.866h69.119v-45.264H869.842A7,7,0,0,1,863.35,1400.184Z" transform="translate(-839.836 -1393.961)" fill="#f17781"/>
            </g>
            <g id="Grupo_68053" data-name="Grupo 68053" transform="translate(17.534 39.728)">
              <path id="Trazado_113562" data-name="Trazado 113562" d="M630.153,1340.073c.034.061.07.124.106.188.843,1.466,2.778,5.058,4.909,8.989,1.008,1.865,2.063,3.807,3.065,5.633,1.725,3.153,3.295,5.96,4.21,7.444.931,1.509,1.617,2.568,1.894,2.992l0,0a.7.7,0,0,1,.09.437,22.9,22.9,0,0,0,.061,3.953,30.325,30.325,0,0,0,9.909,19.642l2.564.379s-3.629-13.443-4.7-21.042a14.621,14.621,0,0,1-.2-3.013,31.47,31.47,0,0,0-.828-8.225A184.243,184.243,0,0,0,646,1338.416c-.12-.372-3.725-13.416-3.725-13.416-3.026,2.645-14.065,3.737-14.065,3.737S626.337,1333.287,630.153,1340.073Z" transform="translate(-627.75 -1325)" fill="#2f539b"/>
            </g>
            <g id="Grupo_68054" data-name="Grupo 68054" transform="translate(41.369 101.75)">
              <path id="Trazado_113563" data-name="Trazado 113563" d="M774.232,1684.12h-10.7a5.878,5.878,0,0,1,.3-2.868c.536-1.187,1.3-1.225.1-3.086.68.7,2.866.99,4.413.782a13.106,13.106,0,0,0,1.855,2.824C770.9,1682.273,774.016,1682.094,774.232,1684.12Z" transform="translate(-763.472 -1678.165)" fill="#233862"/>
            </g>
            <g id="Grupo_68055" data-name="Grupo 68055" transform="translate(19.937 48.491)">
              <path id="Trazado_113564" data-name="Trazado 113564" d="M641.433,1381.208c.034.061.07.124.106.187.843,1.466,5.4,9.891,7.536,13.821a56.992,56.992,0,0,1-.752-20.319Z" transform="translate(-641.433 -1374.898)" fill="#233862"/>
            </g>
            <g id="Grupo_68056" data-name="Grupo 68056" transform="translate(51.436 3.893)">
              <path id="Trazado_113565" data-name="Trazado 113565" d="M829.136,1121.029c.07-.281-6.112,2.794-6.426,3.142-2.9,3.216-2.073,7.413-.414,7.453,1.064.026.858,1.795.858,1.795l11.853-5.014S833.581,1120.082,829.136,1121.029Z" transform="translate(-820.791 -1120.954)" fill="#2c3a64"/>
            </g>
            <g id="Grupo_68057" data-name="Grupo 68057" transform="translate(49.56 24.393)">
              <path id="Trazado_113566" data-name="Trazado 113566" d="M816.35,1237.682s1.8,3.6,1.579,6.527c0,0-2.175,3.433-7.816,4.3C810.113,1248.512,814.963,1237.679,816.35,1237.682Z" transform="translate(-810.113 -1237.682)" fill="#aec3ff"/>
            </g>
            <g id="Grupo_68058" data-name="Grupo 68058" transform="translate(1.419 37.494)">
              <path id="Trazado_113567" data-name="Trazado 113567" d="M562.848,1319.05l.036-2c-3.988.5-13.75-4.765-13.75-4.765s-4.172,2.775-4.743,10.7c-.279,3.868-2.042,20.225-2.237,25.109-.071,1.77-.095,3.034-.1,3.538a.009.009,0,0,1,0,.005.7.7,0,0,1-.169.412,22.838,22.838,0,0,0-2.161,3.312c-6.085,11.321-2.9,26.7-2.9,26.7l1.413-.359s5.145-15.947,8.508-22.845a14.431,14.431,0,0,1,1.523-2.607,31.469,31.469,0,0,0,3.912-7.282C554.659,1343.036,562.848,1319.05,562.848,1319.05Z" transform="translate(-535.987 -1312.283)" fill="#2f539b"/>
            </g>
            <g id="Grupo_68059" data-name="Grupo 68059" transform="translate(0 101.673)">
              <path id="Trazado_113568" data-name="Trazado 113568" d="M538.67,1683.758h-10.7a5.877,5.877,0,0,1,.3-2.868c.536-1.187,1.374-1.727,1.174-3.163A3.854,3.854,0,0,0,532.78,1679a11.745,11.745,0,0,0,1.857,2.407C535.336,1681.911,538.455,1681.732,538.67,1683.758Z" transform="translate(-527.91 -1677.726)" fill="#233862"/>
            </g>
            <g id="Grupo_68060" data-name="Grupo 68060" transform="translate(14.141 18.328)">
              <path id="Trazado_113569" data-name="Trazado 113569" d="M643.125,1222.34c-1.438.245.235,1.388-1.742,1.6-2.814.307-5.719.517-7.241,1.124a1.633,1.633,0,0,0-1.042.844c-.66,1.984-4.838,5.392-4.838,5.392-18.634-.848-19.834-9.153-19.834-9.153,12.094-11.745,22.382-18.147,30.885-18.94a15.133,15.133,0,0,1,6.168.649c2.974,1.324,4.6,5.353,4.6,5.353S648.587,1221.408,643.125,1222.34Z" transform="translate(-608.428 -1203.147)" fill="#aec3ff"/>
            </g>
            <g id="Grupo_68061" data-name="Grupo 68061" transform="translate(38.553 23.964)">
              <path id="Trazado_113570" data-name="Trazado 113570" d="M755.978,1250.4c-2.814.307-5.719.517-7.241,1.124-4.4-8.768,3.764-16.284,3.764-16.284S755.361,1246.882,755.978,1250.4Z" transform="translate(-747.435 -1235.239)" fill="#94b0ed"/>
            </g>
            <g id="Grupo_68062" data-name="Grupo 68062" transform="translate(40.927 22.382)">
              <path id="Trazado_113571" data-name="Trazado 113571" d="M769.548,1226.241s-7.076-.386-8.333,4.056,2.359,22.176,3.138,24.006c1.419,3.332,8.573,13.257,8.573,13.257l2.293-1.188s-4.606-14.529-5.634-15.966C767.971,1248.149,771.667,1228.174,769.548,1226.241Z" transform="translate(-760.952 -1226.233)" fill="#ffb27d"/>
            </g>
            <g id="Grupo_68063" data-name="Grupo 68063" transform="translate(52.593 62.212)">
              <path id="Trazado_113572" data-name="Trazado 113572" d="M829.983,1453.34a10.445,10.445,0,0,1,1.068,1.1c.476.582.057.792,1.424,3.425,0,0-.07.366-.367.3s-1.328-1.088-1.857-1.015c0,0-.378.312-.42,1.344a24.89,24.89,0,0,1-.21,3.5c-.168.4-1.4-1.682-2-3.188-.53-1.32-.014-5.773-.014-5.773Z" transform="translate(-827.382 -1453.031)" fill="#ffb27d"/>
            </g>
            <g id="Grupo_68064" data-name="Grupo 68064" transform="translate(39.794 21.07)">
              <path id="Trazado_113573" data-name="Trazado 113573" d="M754.5,1230.079c.018.1,6.7,1.229,10.873-.891,0,0,3.489-10.931-1.5-10.408s-7.939,2.094-8.065,4.481A45.952,45.952,0,0,1,754.5,1230.079Z" transform="translate(-754.503 -1218.761)" fill="#aec3ff"/>
            </g>
            <g id="Grupo_68065" data-name="Grupo 68065" transform="translate(51.027 15.539)">
              <path id="Trazado_113574" data-name="Trazado 113574" d="M818.471,1191.535a4.445,4.445,0,0,0,1.343,3.113c.887.913,2.169,1.626,3.069.726a9.773,9.773,0,0,0,1.393-1.682c.778-1.337,1.7-2.7,1.7-2.7l-4.005-3.509-.239-.21a10.207,10.207,0,0,1-2.983,3.385A.93.93,0,0,0,818.471,1191.535Z" transform="translate(-818.463 -1187.269)" fill="#ffb27d"/>
            </g>
            <g id="Grupo_68066" data-name="Grupo 68066" transform="translate(54.466 15.749)">
              <path id="Trazado_113575" data-name="Trazado 113575" d="M842.122,1191.972s-.926,1.364-1.7,2.7c-2.489-1.534-2.492-4.616-2.3-6.213Z" transform="translate(-838.044 -1188.462)" fill="#ed985f"/>
            </g>
            <g id="Grupo_68067" data-name="Grupo 68067" transform="translate(54.3 8.592)">
              <path id="Trazado_113576" data-name="Trazado 113576" d="M841.454,1160.135s-6.044-3.363-3.892-7.1,2.822-6.679,6.772-4.69,3.872,3.842,3.457,5.263S843.082,1160.914,841.454,1160.135Z" transform="translate(-837.099 -1147.71)" fill="#ffb27d"/>
            </g>
            <g id="Grupo_68068" data-name="Grupo 68068" transform="translate(53.664 8.087)">
              <path id="Trazado_113577" data-name="Trazado 113577" d="M845.829,1149.064c-.277-1.657-1.119-1.815-1.705-1.7a4.834,4.834,0,0,0-5.879-2.251,8.23,8.23,0,0,1-4.764,2.861s.7,1.305,3.591,2.113a4.938,4.938,0,0,0,2.851-.228,16.13,16.13,0,0,1-4.1,1.546c3.808.349,7.432-3.133,7.808-3.506a5.421,5.421,0,0,1,.3,2.495c-.251,1.122-1.247,3.155-.639,3.418C843.29,1153.808,846.245,1151.548,845.829,1149.064Z" transform="translate(-833.481 -1144.831)" fill="#2c3a64"/>
            </g>
            <g id="Grupo_68069" data-name="Grupo 68069" transform="translate(73.051 52.126)">
              <path id="Trazado_113578" data-name="Trazado 113578" d="M944.764,1395.714s-1.687,1.265-.415,2.092,3.54,1.05,3.55.508C947.93,1396.493,947.021,1395.2,944.764,1395.714Z" transform="translate(-943.874 -1395.6)" fill="#ffb27d"/>
            </g>
          </g>
          <g id="Grupo_68071" data-name="Grupo 68071" transform="translate(66.709 69.532)">
            <path id="Trazado_113579" data-name="Trazado 113579" d="M913.939,1516.252h35.714c1.472,0,2.607-2.251,2.625-3.844.058-5-5.311-13-17.484-9.459,0,0-3.435-9.271-15.5-8.147-7.087.66-11.036,7.891-11.512,14.336A6.451,6.451,0,0,0,913.939,1516.252Z" transform="translate(-907.759 -1494.707)" fill="#fff"/>
          </g>
          <g id="Grupo_68074" data-name="Grupo 68074" transform="translate(80.384 78.658)">
            <g id="Grupo_68072" data-name="Grupo 68072" transform="translate(5.126 4.86)">
              <rect id="Rectángulo_6990" data-name="Rectángulo 6990" width="6.917" height="15.891" transform="translate(6.917 15.891) rotate(180)" fill="#31d9e7"/>
            </g>
            <g id="Grupo_68073" data-name="Grupo 68073">
              <path id="Trazado_113580" data-name="Trazado 113580" d="M1002.8,1554.745H985.629l8.584-8.069Z" transform="translate(-985.629 -1546.676)" fill="#31d9e7"/>
            </g>
          </g>
        </g>
        <g id="Grupo_68078" data-name="Grupo 68078" transform="translate(290.147 125.331)">
          <g id="Grupo_68076" data-name="Grupo 68076">
            <path id="Trazado_113581" data-name="Trazado 113581" d="M1875.478,1130l-9.026,2.074-4.483,8.1-3.353-18.506Z" transform="translate(-1858.615 -1121.671)" fill="#233862"/>
          </g>
          <g id="Grupo_68077" data-name="Grupo 68077" transform="translate(6.032 8.619)">
            <rect id="Rectángulo_6991" data-name="Rectángulo 6991" width="1.649" height="9.54" transform="matrix(0.799, -0.602, 0.602, 0.799, 0, 0.992)" fill="#233862"/>
          </g>
        </g>
        <g id="Grupo_68104" data-name="Grupo 68104" transform="translate(139.043 4.401)">
          <g id="Grupo_68099" data-name="Grupo 68099">
            <g id="Grupo_68079" data-name="Grupo 68079" transform="translate(27.043 73.43)">
              <path id="Trazado_113582" data-name="Trazado 113582" d="M1152.466,860.661a1.054,1.054,0,0,0-.188,1.128.009.009,0,0,0,0,.006,7.013,7.013,0,0,0,2.215,2.43c.133.108.252.205.355.3.027.024.054.048.08.072l.061.055c.974.9.607,1.1,2.357,2.925,1.995,2.075,3.368,2.113,3.759,1.924.33-.161-.341-1.262-1.085-2.5-.036-.06-.072-.12-.109-.18-.1-.165-.2-.332-.3-.5-.872-1.489-.648-2.188-.441-4.4.168-1.8,2.8-10.06,2.8-10.06l-3.823-.658s-1.151,6.577-2.42,7.59c-.678.54-1.437.547-2.089.947q-.069.042-.136.085A5.022,5.022,0,0,0,1152.466,860.661Z" transform="translate(-1152.194 -851.198)" fill="#ffb27d"/>
            </g>
            <g id="Grupo_68080" data-name="Grupo 68080" transform="translate(27.043 82.052)">
              <path id="Trazado_113583" data-name="Trazado 113583" d="M1152.466,901.136a1.054,1.054,0,0,0-.188,1.128.009.009,0,0,0,0,.006,8.121,8.121,0,0,0,2.219,2.423c.132.109.248.21.352.3.027.024.054.048.08.072l.061.055c.974.9.607,1.1,2.357,2.925,1.995,2.075,3.368,2.113,3.759,1.924.33-.161-.341-1.262-1.085-2.5a8.5,8.5,0,0,1-3.556-2.62c-1.157-1.477-1.943-3.36-2.731-4.515l-.225-.042A5.016,5.016,0,0,0,1152.466,901.136Z" transform="translate(-1152.194 -900.295)" fill="#233862"/>
            </g>
            <g id="Grupo_68081" data-name="Grupo 68081" transform="translate(55.081 72.267)">
              <path id="Trazado_113584" data-name="Trazado 113584" d="M1314.905,852.812c.236,1.18,1.918.983,3.8.524s1.432.087,4.107-.209,3.484-1.293,3.566-1.691c.073-.353-1.248-.477-2.666-.641-.178-.02-.357-.042-.536-.064-1.6-.2-2.772-1.233-4.226-2.081-1.377-.8-3.432-4.077-3.432-4.077l-3.668.291s1.925,2.923,2.669,4.194a4.433,4.433,0,0,1,.36,2.5A4.707,4.707,0,0,0,1314.905,852.812Z" transform="translate(-1311.848 -844.573)" fill="#ffb27d"/>
            </g>
            <g id="Grupo_68082" data-name="Grupo 68082" transform="translate(58.082 78.489)">
              <path id="Trazado_113585" data-name="Trazado 113585" d="M1332.791,882.543c1.879-.459,1.432.087,4.107-.21s3.484-1.293,3.566-1.691c.073-.353-1.248-.477-2.666-.641l-.013.027a7.537,7.537,0,0,1-3.83,1.191c-1.814.044-3.736-.476-4.989-.455a4.707,4.707,0,0,0,.028,1.255C1329.23,883.2,1330.912,883,1332.791,882.543Z" transform="translate(-1328.938 -880.002)" fill="#233862"/>
            </g>
            <g id="Grupo_68083" data-name="Grupo 68083" transform="translate(31.499 51.174)">
              <path id="Trazado_113586" data-name="Trazado 113586" d="M1190.155,730.346l-3.429,9.226-4.476,12.047a7.249,7.249,0,0,1-2.378-.217,10.306,10.306,0,0,1-2.3-1.119s1.243-12.935,3.562-20.36a13.222,13.222,0,0,1,1.995-4.315C1186.723,721.359,1190.155,730.346,1190.155,730.346Z" transform="translate(-1177.572 -724.467)" fill="#94b0ed"/>
            </g>
            <g id="Grupo_68084" data-name="Grupo 68084" transform="translate(7.432 40.558)">
              <path id="Trazado_113587" data-name="Trazado 113587" d="M1073.694,665.863c-1.952-.63-7.044-.01-12.568.99a3.747,3.747,0,0,1-3.869-1.747h0l-13.9-1.085s-4.587,10.172-2.076,16.654a2.439,2.439,0,0,0,2.429,1.567h0s8.4.012,11.087.012c6.913,0,14.63-4.752,15.629-4.952,1.634-.327,2.288,2.941,3.922,6.373s15.36,15.2,15.36,15.2a12.084,12.084,0,0,0,2.981-.306,2.934,2.934,0,0,0,1.28-.808S1078.76,667.5,1073.694,665.863Z" transform="translate(-1040.53 -664.021)" fill="#aec3ff"/>
            </g>
            <g id="Grupo_68085" data-name="Grupo 68085" transform="translate(0.051)">
              <path id="Trazado_113588" data-name="Trazado 113588" d="M1021.132,433.9a4.932,4.932,0,0,0-2.655-.691,7.371,7.371,0,0,1-1.282-.078c-5.305-.778-8.5,6.928-8.688,9.257-.344,4.275-2.605,4.927-5.788,7.6-6.383,5.368-4.511,11.606-1.021,13.924,2.094,1.391,5.785,0,5.785,0,.052.037,10.094-5.614,15.044-8.339C1029.948,454.523,1024.114,435.676,1021.132,433.9Z" transform="translate(-998.5 -433.077)" fill="#233862"/>
            </g>
            <g id="Grupo_68086" data-name="Grupo 68086" transform="translate(13.157 12.397)">
              <path id="Trazado_113589" data-name="Trazado 113589" d="M1079.9,511.45a6.544,6.544,0,0,1-4.079.125c-1.546-.683-2.717-3.226-2.694-3.228.7-.033,1.475-.647,2.07-4.681l.3.107,5.034,1.812s-.365,1.615-.6,3.153C1079.732,510.031,1079.625,511.268,1079.9,511.45Z" transform="translate(-1073.127 -503.667)" fill="#ffb27d"/>
            </g>
            <g id="Grupo_68087" data-name="Grupo 68087" transform="translate(15.526 12.504)">
              <path id="Trazado_113590" data-name="Trazado 113590" d="M1091.653,506.09s-.2.872-.494,2.5a5.685,5.685,0,0,1-4.54-4.311Z" transform="translate(-1086.619 -504.278)" fill="#ed975d"/>
            </g>
            <g id="Grupo_68088" data-name="Grupo 68088" transform="translate(15.022 3.803)">
              <path id="Trazado_113591" data-name="Trazado 113591" d="M1090.036,466.848s-6.888-.925-6.246-5.205.185-7.283,4.61-6.874,5.033,2.171,5.166,3.651S1091.844,466.978,1090.036,466.848Z" transform="translate(-1083.748 -454.732)" fill="#ffb27d"/>
            </g>
            <g id="Grupo_68089" data-name="Grupo 68089" transform="translate(13.046 3.425)">
              <path id="Trazado_113592" data-name="Trazado 113592" d="M1084.037,454.3s-4.409,3.8-7.409,4.106-4.135-.656-4.135-.656a11.708,11.708,0,0,0,2.831-3.836,2.11,2.11,0,0,1,1.739-1.243C1079.206,452.483,1083.266,452.4,1084.037,454.3Z" transform="translate(-1072.494 -452.578)" fill="#233862"/>
            </g>
            <g id="Grupo_68090" data-name="Grupo 68090" transform="translate(21.833 3.981)">
              <path id="Trazado_113593" data-name="Trazado 113593" d="M1122.528,456.57a10.858,10.858,0,0,1,1.94,2.484,8.336,8.336,0,0,1,.226,4.432s2.3-4.469,1-6.64C1124.311,454.544,1122.528,456.57,1122.528,456.57Z" transform="translate(-1122.528 -455.746)" fill="#233862"/>
            </g>
            <g id="Grupo_68091" data-name="Grupo 68091" transform="translate(7.246 16.916)">
              <path id="Trazado_113594" data-name="Trazado 113594" d="M1057.952,542.808c-.208,13.943-.057,11.029-1.582,12.353a5.857,5.857,0,0,1-2.761.6c-4.275.284-11.791-.421-12.077-1.211-.986-2.734-.29-3.583-1.113-7.769-.086-.445-.192-.927-.317-1.452-.686-2.875-1.354-3.853,1.08-8.471,2.207-4.184,4.5-7.579,4.706-7.456,5.823,3.457,6.293.551,6.293.551S1058.054,536.007,1057.952,542.808Z" transform="translate(-1039.468 -529.397)" fill="#f99746"/>
            </g>
            <g id="Grupo_68092" data-name="Grupo 68092" transform="translate(31.499 56.629)">
              <path id="Trazado_113595" data-name="Trazado 113595" d="M1186.726,765.182l-4.476,12.047a7.249,7.249,0,0,1-2.378-.217,10.306,10.306,0,0,1-2.3-1.119s1.243-12.935,3.562-20.36Z" transform="translate(-1177.572 -755.532)" fill="#aec3ff"/>
            </g>
            <g id="Grupo_68093" data-name="Grupo 68093" transform="translate(19.96 17.469)">
              <path id="Trazado_113596" data-name="Trazado 113596" d="M1111.865,532.549s5.992,1.016,6.7,3.6,3.02,18.238,3.02,18.238-1.689,1.65-3.1.243-4.428-14.651-4.428-14.651Z" transform="translate(-1111.865 -532.549)" fill="#f99746"/>
            </g>
            <g id="Grupo_68094" data-name="Grupo 68094" transform="translate(8.197 28.491)">
              <path id="Trazado_113597" data-name="Trazado 113597" d="M1058.077,610.1c-4.275.284-11.791-.421-12.077-1.211-.986-2.734-.29-3.583-1.113-7.769l2.062-5.807s-.341,6.466,1.566,8.167,7.808,3.283,8.735,4.7A5.2,5.2,0,0,1,1058.077,610.1Z" transform="translate(-1044.887 -595.311)" fill="#ed7d2b"/>
            </g>
            <g id="Grupo_68095" data-name="Grupo 68095" transform="translate(16.488 39.905)">
              <path id="Trazado_113598" data-name="Trazado 113598" d="M1092.1,660.955s4.218-.939,4.9-.565a9.9,9.9,0,0,1,2.552,2.212c.208.474-1.515-.36-2.076-.51a4.987,4.987,0,0,0-1.792.392,5.954,5.954,0,0,1-3.211.322Z" transform="translate(-1092.097 -660.302)" fill="#ffb27d"/>
            </g>
            <g id="Grupo_68096" data-name="Grupo 68096" transform="translate(0 16.916)">
              <path id="Trazado_113599" data-name="Trazado 113599" d="M1011.873,529.4s-5.664.349-7.624,3.083c-2.76,3.849-8.235,20.254-5.1,22.442,3.534,2.464,16.082.645,16.082.645s.418-1.952-.163-2.9-10.023-2.469-10.459-2.905,5.447-8.5,5.447-9.8S1011.873,529.4,1011.873,529.4Z" transform="translate(-998.21 -529.398)" fill="#f99746"/>
            </g>
            <g id="Grupo_68097" data-name="Grupo 68097" transform="translate(21.591 41.167)">
              <path id="Trazado_113600" data-name="Trazado 113600" d="M1121.153,667.489a8.154,8.154,0,0,0,1.173,1.276.866.866,0,0,0,.477.1l-.6-1.072Z" transform="translate(-1121.153 -667.489)" fill="#ffb27d"/>
            </g>
            <g id="Grupo_68098" data-name="Grupo 68098" transform="translate(21.387 39.993)">
              <path id="Trazado_113601" data-name="Trazado 113601" d="M1119.99,660.8l2.57,1.248a.458.458,0,0,1-.426.165,6.133,6.133,0,0,1-1.114-.306Z" transform="translate(-1119.99 -660.804)" fill="#ffb27d"/>
            </g>
          </g>
          <g id="Grupo_68103" data-name="Grupo 68103" transform="translate(16.488 28.314)">
            <g id="Grupo_68100" data-name="Grupo 68100" transform="translate(0 14.612)">
              <path id="Trazado_113602" data-name="Trazado 113602" d="M1118.938,677.507H1092.1v.592h26.6Z" transform="translate(-1092.097 -677.507)" fill="#233862"/>
            </g>
            <g id="Grupo_68101" data-name="Grupo 68101" transform="translate(6.276)">
              <path id="Trazado_113603" data-name="Trazado 113603" d="M1127.835,609.507h20.326l6.114-15.2h-20.295Z" transform="translate(-1127.835 -594.302)" fill="#233862"/>
            </g>
            <g id="Grupo_68102" data-name="Grupo 68102" transform="translate(19.496 6.635)">
              <path id="Trazado_113604" data-name="Trazado 113604" d="M1205.087,633.049a.7.7,0,0,0-.69-.968,1.386,1.386,0,0,0-1.245.968.7.7,0,0,0,.69.968A1.387,1.387,0,0,0,1205.087,633.049Z" transform="translate(-1203.112 -632.081)" fill="#fff"/>
            </g>
          </g>
        </g>
        <g id="Grupo_68119" data-name="Grupo 68119" transform="translate(350.243 86.611)">
          <g id="Grupo_68105" data-name="Grupo 68105" transform="translate(25.279 23.194)">
            <path id="Trazado_113605" data-name="Trazado 113605" d="M2344.759,1033.26s9.85,10.021,10.354,14.181-5.107,10.655-5.107,10.655Z" transform="translate(-2344.759 -1033.26)" fill="#bf5b63"/>
          </g>
          <g id="Grupo_68106" data-name="Grupo 68106" transform="translate(5.234 134.819)">
            <path id="Trazado_113606" data-name="Trazado 113606" d="M2245.036,1670.767s-.376,5.863-1.511,5.945c-.151.011-5.754,0-5.754,0l-7.153-.057a2.321,2.321,0,0,1,2.142-2.083c2.092-.359,5.594-1.821,6.867-4.582C2240.966,1667.084,2245.036,1670.767,2245.036,1670.767Z" transform="translate(-2230.619 -1668.872)" fill="#0e2644"/>
          </g>
          <g id="Grupo_68107" data-name="Grupo 68107" transform="translate(21.165 134.854)">
            <path id="Trazado_113607" data-name="Trazado 113607" d="M2335.749,1670.964s-.376,5.863-1.511,5.944c-.151.011-5.754,0-5.754,0l-7.152-.057a2.321,2.321,0,0,1,2.142-2.083c2.092-.36,5.594-1.822,6.867-4.582C2331.679,1667.281,2335.749,1670.964,2335.749,1670.964Z" transform="translate(-2321.332 -1669.069)" fill="#0e2644"/>
          </g>
          <g id="Grupo_68108" data-name="Grupo 68108" transform="translate(11.867 64.756)">
            <path id="Trazado_113608" data-name="Trazado 113608" d="M2268.388,1278.842s1.845,11.968,8.777,33.222,7.864,30.452,7.864,30.452l7.487-.194s.114-23.211-3.079-33.9-.61-38.5-.61-38.5Z" transform="translate(-2268.388 -1269.921)" fill="#163560"/>
          </g>
          <g id="Grupo_68109" data-name="Grupo 68109" transform="translate(8.234 65.359)">
            <path id="Trazado_113609" data-name="Trazado 113609" d="M2247.708,1273.355a290.419,290.419,0,0,0,2.767,40.172c3.071,22.143,1.994,31.538,1.994,31.538l7.471.265s4.513-22.135,3.257-33.218,6.2-38.007,6.2-38.007Z" transform="translate(-2247.7 -1273.355)" fill="#1c468a"/>
          </g>
          <g id="Grupo_68110" data-name="Grupo 68110" transform="translate(13.06 14.284)">
            <path id="Trazado_113610" data-name="Trazado 113610" d="M2284.917,991.443l-3.986,2.6-5.75-1.084c.08-.464.465-2.388.814-4.131.021-.1.042-.206.062-.306.3-1.483.558-2.756.558-2.756l5.378-2.359,2-.879c-.005.031-.159,1.646-.18,1.882A13.7,13.7,0,0,0,2284.917,991.443Z" transform="translate(-2275.181 -982.528)" fill="#ffb27d"/>
          </g>
          <g id="Grupo_68111" data-name="Grupo 68111" transform="translate(12.233 20.047)">
            <path id="Trazado_113611" data-name="Trazado 113611" d="M2272.776,1017.158c.112-.047,6.932-2.043,7.672-1.8s1.175,1.68,1.175,1.68l-11.154,2.5A5.538,5.538,0,0,1,2272.776,1017.158Z" transform="translate(-2270.469 -1015.34)" fill="#ed7d2b"/>
          </g>
          <g id="Grupo_68112" data-name="Grupo 68112" transform="translate(6.958 21.687)">
            <path id="Trazado_113612" data-name="Trazado 113612" d="M2266.27,1070.633c-1.167,5.268-20.4,5.851-25.342,1.056-.563-.547-.585-3.084-.365-6.5.43-6.683,1.788-16.734,1.851-21.87a40.656,40.656,0,0,1,.836-7.32,59.455,59.455,0,0,1,2.458-8.758s9.4-3.016,11.154-2.5C2265.323,1027.248,2267.437,1065.365,2266.27,1070.633Z" transform="translate(-2240.433 -1024.682)" fill="#f17781"/>
          </g>
          <g id="Grupo_68113" data-name="Grupo 68113" transform="translate(7.088 32.016)">
            <path id="Trazado_113613" data-name="Trazado 113613" d="M2241.172,1113.67c.43-6.683,1.788-16.734,1.851-21.87a40.635,40.635,0,0,1,.836-7.32l5.651-.985S2255.741,1107.439,2241.172,1113.67Z" transform="translate(-2241.172 -1083.496)" fill="#bf5b63"/>
          </g>
          <g id="Grupo_68114" data-name="Grupo 68114" transform="translate(8.55 52.005)">
            <path id="Trazado_113614" data-name="Trazado 113614" d="M2251.118,1198.192a1.329,1.329,0,0,1-.427,1.538,2.578,2.578,0,0,0-1.153,2.349c.184.732,1.955,1.93,2.57,1.738s1.869-1.152,1.735-1.538.849-3.385-.647-4.544A1.21,1.21,0,0,0,2251.118,1198.192Z" transform="translate(-2249.501 -1197.316)" fill="#ffb27d"/>
          </g>
          <g id="Grupo_68115" data-name="Grupo 68115" transform="translate(0 23.213)">
            <path id="Trazado_113615" data-name="Trazado 113615" d="M2217.21,1033.369s-5.358.706-9.763,7.167-7.3,11.264-6.5,13.6,8.158,10.437,9.429,10.44a3.407,3.407,0,0,0,3.444-3s-4.66-8.273-3.635-9.436c.438-.5,6.237-5.116,7.131-2.8C2218.8,1053.164,2217.21,1033.369,2217.21,1033.369Z" transform="translate(-2200.814 -1033.369)" fill="#f17781"/>
          </g>
          <g id="Grupo_68116" data-name="Grupo 68116" transform="translate(13.874 15.163)">
            <path id="Trazado_113616" data-name="Trazado 113616" d="M2287.236,988.609c-1.184,2-5.585,3.715-7.42,4.346.021-.1.042-.206.062-.306.3-1.483.558-2.757.558-2.757l5.378-2.359C2287,987.52,2287.725,987.788,2287.236,988.609Z" transform="translate(-2279.816 -987.533)" fill="#fca56b"/>
          </g>
          <g id="Grupo_68117" data-name="Grupo 68117" transform="translate(11.395 2.956)">
            <path id="Trazado_113617" data-name="Trazado 113617" d="M2266.775,932.26s8.649,2.719,10.259-2.693,3.811-8.707-1.643-10.671-7.146-.22-8.123,1.456S2264.567,931.414,2266.775,932.26Z" transform="translate(-2265.701 -918.025)" fill="#ffb27d"/>
          </g>
          <g id="Grupo_68118" data-name="Grupo 68118" transform="translate(12.494)">
            <path id="Trazado_113618" data-name="Trazado 113618" d="M2272.768,905.953s.539,6.3,1.843,6.033,2.486-.471,2.291,1.428-2.007,4.089,2.009,4.434,9.813-10,8.714-11.965C2284.453,900.217,2268.182,899.04,2272.768,905.953Z" transform="translate(-2271.959 -901.192)" fill="#163560"/>
          </g>
        </g>
        <g id="Grupo_68120" data-name="Grupo 68120" transform="translate(0 229.017)">
          <rect id="Rectángulo_6992" data-name="Rectángulo 6992" width="466.559" height="1.281" rx="0.641" fill="#2e3552"/>
        </g>
      </g>
    </g>
  </g>
</svg>
