<svg xmlns="http://www.w3.org/2000/svg" width="292" height="273.914" viewBox="0 0 292 273.914">
  <g id="Grupo_68145" data-name="Grupo 68145" transform="translate(-180 -3948.453)">
    <rect id="Rectángulo_6993" data-name="Rectángulo 6993" width="292" height="36" transform="translate(180 3948.453)" fill="#bb83ff" opacity="0.5"/>
    <line id="Línea_311" data-name="Línea 311" y1="33" transform="translate(323.5 3991.104)" fill="none" stroke="#707070" stroke-width="3" stroke-dasharray="3 4" style="mix-blend-mode: multiply;isolation: isolate"/>
    <g id="Elipse_4855" data-name="Elipse 4855" transform="translate(227 4026.367)" fill="#fff" stroke="#8a8a8a" stroke-width="3" stroke-dasharray="3 4">
      <circle cx="98" cy="98" r="98" stroke="none"/>
      <circle cx="98" cy="98" r="96.5" fill="none"/>
    </g>
    <text id="Concienciación" transform="translate(229 3954.453)" fill="#12263f" font-size="18" font-family="Roboto-Black, Roboto" font-weight="800"><tspan x="34.633" y="19">Concienciación</tspan></text>
    <ellipse id="Elipse_4859" data-name="Elipse 4859" cx="87.5" cy="87" rx="87.5" ry="87" transform="translate(239 4037.367)" fill="#bb83ff" opacity="0.12"/>
    <g id="conciencia-de-si-mismo" transform="translate(273.726 4047.925)">
      <g id="Grupo_68123" data-name="Grupo 68123" transform="translate(1.602 32.002)">
        <path id="Trazado_113619" data-name="Trazado 113619" d="M43.282,36.826A30.9,30.9,0,0,0,12.478,70.1l.638,8.255a2.074,2.074,0,0,1-.307,1.256l-1.7,2.734A23.534,23.534,0,0,0,7.563,94.771,1.148,1.148,0,0,0,8.711,95.92h5.224l2.37,13.776a4.918,4.918,0,0,0,4.827,4.084l13.927.054a4.025,4.025,0,0,1,4.009,4.025V126.3a3.179,3.179,0,0,0,3.2,3.179l9.738-.036,1.963-1.346H67.576l.653,1.286h.054l-.015-28.9,6.436-21.4A32.813,32.813,0,0,0,43.282,36.826Z" transform="translate(-7.563 -36.789)" fill="#f17781"/>
        <path id="Trazado_113620" data-name="Trazado 113620" d="M47.608,137.243v-9.77A9.073,9.073,0,0,0,38.57,118.4l-8.9-.035a4.918,4.918,0,0,1-4.827-4.084l-1.815-10.55a3.884,3.884,0,0,0-3.828-3.226H17.25A1.148,1.148,0,0,1,16.1,99.357a23.535,23.535,0,0,1,3.546-12.423l1.7-2.734a2.075,2.075,0,0,0,.306-1.256l-.638-8.255A30.807,30.807,0,0,1,30.41,50.033,30.908,30.908,0,0,0,12.478,80.512l.638,8.255a2.074,2.074,0,0,1-.307,1.256l-1.7,2.734a23.534,23.534,0,0,0-3.546,12.423,1.148,1.148,0,0,0,1.148,1.148h5.224l2.37,13.776a4.918,4.918,0,0,0,4.827,4.084l13.927.054a4.025,4.025,0,0,1,4.009,4.025v8.444a3.179,3.179,0,0,0,3.2,3.179l6.705-.04a3.173,3.173,0,0,1-1.364-2.608Z" transform="translate(-7.563 -47.198)" fill="#fe646f"/>
        <path id="Trazado_113621" data-name="Trazado 113621" d="M245.3,82.172l-1.7-2.734a2.077,2.077,0,0,1-.307-1.256l.638-8.255a30.9,30.9,0,0,0-30.8-33.276,32.813,32.813,0,0,0-31.422,42.266l6.436,21.4.008,28.973h.022l2.223-2.253h12.818L204.4,129.3l9.744.008a3.179,3.179,0,0,0,3.2-3.179v-8.444a4.025,4.025,0,0,1,4.009-4.025l13.927-.054a4.918,4.918,0,0,0,4.827-4.084l2.37-13.776H247.7a1.148,1.148,0,0,0,1.148-1.148A23.536,23.536,0,0,0,245.3,82.172Z" transform="translate(-143.709 -36.65)" fill="#31d9e7"/>
        <path id="Trazado_113622" data-name="Trazado 113622" d="M204.416,117.752l6.436-21.4A33.01,33.01,0,0,0,196.265,58.6a32.983,32.983,0,0,0-14.533,37.754l6.436,21.4V146.61l8.124.029,8.124-.038V117.752Z" transform="translate(-143.725 -53.953)" fill="#f9e478"/>
        <path id="Trazado_113623" data-name="Trazado 113623" d="M112.148,271.164l9.82-8.23a1.046,1.046,0,0,1,1.718.8V268h14.824a1.077,1.077,0,0,1,1.077,1.077v5.778a1.077,1.077,0,0,1-1.077,1.077H123.687V280.2a1.046,1.046,0,0,1-1.718.8l-9.821-8.23a1.046,1.046,0,0,1,0-1.6Z" transform="translate(-89.701 -214.812)" fill="#31d9e7"/>
        <path id="Trazado_113624" data-name="Trazado 113624" d="M321.106,130.688l-9.821-8.23a1.046,1.046,0,0,0-1.718.8v4.264H294.744a1.077,1.077,0,0,0-1.077,1.077v5.778a1.077,1.077,0,0,0,1.077,1.077h14.824v4.264a1.046,1.046,0,0,0,1.718.8l9.821-8.23A1.046,1.046,0,0,0,321.106,130.688Z" transform="translate(-233.068 -104.09)" fill="#f17781"/>
      </g>
      <g id="Grupo_68124" data-name="Grupo 68124" transform="translate(0 30.753)">
        <path id="Trazado_113625" data-name="Trazado 113625" d="M289.45,287.5a1.588,1.588,0,0,0-1.979,1.063l-2.671,8.879a1.588,1.588,0,0,0-.067.458v28.649a1.589,1.589,0,1,0,3.177,0V298.132l2.6-8.655A1.588,1.588,0,0,0,289.45,287.5Z" transform="translate(-224.424 -233.064)" fill="#47286d"/>
        <path id="Trazado_113626" data-name="Trazado 113626" d="M311.184,207.254a1.589,1.589,0,0,0-1.808,1.333,31.8,31.8,0,0,1-.986,4.389l-1.773,5.894a1.589,1.589,0,1,0,3.042.915l1.773-5.894a34.988,34.988,0,0,0,1.085-4.829A1.588,1.588,0,0,0,311.184,207.254Z" transform="translate(-241.619 -169.856)" fill="#47286d"/>
        <path id="Trazado_113627" data-name="Trazado 113627" d="M28.912,107.258,15.076,107.2a3.292,3.292,0,0,1-3.236-2.738L9.485,90.78a1.589,1.589,0,0,0-1.566-1.319H3.182A21.77,21.77,0,0,1,6.461,78.4L8.15,75.688a3.626,3.626,0,0,0,.539-2.208l-.634-8.2A29.106,29.106,0,0,1,37.075,33.93c.369,0,.753.007,1.141.021a1.589,1.589,0,0,0,.113-3.175c-.425-.015-.847-.023-1.253-.023A32.283,32.283,0,0,0,4.887,65.523l.634,8.2a.471.471,0,0,1-.07.286L3.763,76.728A24.947,24.947,0,0,0,0,89.909a2.733,2.733,0,0,0,2.73,2.73H6.581l2.127,12.367a6.465,6.465,0,0,0,6.355,5.376l13.837.054a2.415,2.415,0,0,1,2.4,2.41v11.566a1.589,1.589,0,1,0,3.177,0V112.846a5.6,5.6,0,0,0-5.566-5.588Z" transform="translate(0 -30.753)" fill="#47286d"/>
        <path id="Trazado_113628" data-name="Trazado 113628" d="M242.14,76.728l-1.689-2.717a.472.472,0,0,1-.07-.286l.634-8.2a32.283,32.283,0,0,0-32.187-34.77,34.03,34.03,0,0,0-17.1,4.541,33.621,33.621,0,0,0-8.224-3.4,1.589,1.589,0,1,0-.812,3.072,30.344,30.344,0,0,1,6.016,2.3,34.478,34.478,0,0,0-7.321,7.277,33.882,33.882,0,0,0-5.3,30.246l1.355,4.5a1.589,1.589,0,0,0,3.042-.915l-1.355-4.5a30.734,30.734,0,0,1,4.81-27.435,31.17,31.17,0,0,1,7.8-7.409A31.328,31.328,0,0,1,201.8,49.857a1.589,1.589,0,1,0,2.773-1.55,34.5,34.5,0,0,0-9.806-11.041,30.94,30.94,0,0,1,14.062-3.336,29.106,29.106,0,0,1,29.02,31.349l-.634,8.2a3.626,3.626,0,0,0,.539,2.208l1.689,2.717a21.771,21.771,0,0,1,3.279,11.056h-4.738a1.589,1.589,0,0,0-1.566,1.319l-2.354,13.686a3.292,3.292,0,0,1-3.236,2.738l-13.837.054a5.6,5.6,0,0,0-5.565,5.587v11.566a1.589,1.589,0,0,0,3.177,0V112.846a2.415,2.415,0,0,1,2.4-2.41l13.837-.054A6.465,6.465,0,0,0,237.195,105l2.127-12.366h3.851a2.733,2.733,0,0,0,2.73-2.73A24.944,24.944,0,0,0,242.14,76.728Z" transform="translate(-137.629 -30.753)" fill="#47286d"/>
        <path id="Trazado_113629" data-name="Trazado 113629" d="M213.046,347.714a1.589,1.589,0,0,0-1.589,1.589v24.76a1.589,1.589,0,1,0,3.177,0V349.3A1.589,1.589,0,0,0,213.046,347.714Z" transform="translate(-166.669 -280.579)" fill="#47286d"/>
        <path id="Trazado_113630" data-name="Trazado 113630" d="M303.59,136.187a2.65,2.65,0,0,0,1.121.251,2.617,2.617,0,0,0,1.685-.619l9.821-8.23a2.634,2.634,0,0,0,0-4.039l-9.82-8.23a2.634,2.634,0,0,0-4.327,2.019v2.675H288.834a2.668,2.668,0,0,0-2.665,2.665v5.778a2.668,2.668,0,0,0,2.665,2.665H302.07V133.8A2.61,2.61,0,0,0,303.59,136.187Zm-14.244-8.24v-4.754h14.312a1.589,1.589,0,0,0,1.589-1.589v-3.1l8.433,7.067-8.433,7.067v-3.1a1.589,1.589,0,0,0-1.589-1.589Z" transform="translate(-225.556 -96.92)" fill="#47286d"/>
        <path id="Trazado_113631" data-name="Trazado 113631" d="M132.6,260.492H119.363v-2.675a2.635,2.635,0,0,0-4.327-2.019l-9.821,8.23a2.634,2.634,0,0,0,0,4.038l9.821,8.23a2.616,2.616,0,0,0,1.685.619,2.647,2.647,0,0,0,1.121-.251,2.61,2.61,0,0,0,1.52-2.387V271.6H132.6a2.668,2.668,0,0,0,2.665-2.665v-5.778A2.668,2.668,0,0,0,132.6,260.492Zm-.512,7.932H117.774a1.589,1.589,0,0,0-1.589,1.589v3.1l-8.433-7.067,8.433-7.067v3.1a1.589,1.589,0,0,0,1.589,1.589h14.312Z" transform="translate(-82.187 -207.643)" fill="#47286d"/>
      </g>
    </g>
  </g>
</svg>
