<svg xmlns="http://www.w3.org/2000/svg" width="297.336" height="168.828" viewBox="0 0 297.336 168.828">
  <g id="Grupo_64230" data-name="Grupo 64230" transform="translate(-56.228 -71.756)">
    <g id="Background_Complete" data-name="Background Complete" transform="translate(56.228 72.267)">
      <g id="Grupo_64083" data-name="Grupo 64083" transform="translate(0 0)">
        <g id="Grupo_64061" data-name="Grupo 64061" transform="translate(75.849)">
          <path id="Trazado_112215" data-name="Trazado 112215" d="M223.729,79.568a3.489,3.489,0,0,0,2.078-3.228,3.279,3.279,0,1,0-6.543-.03,3.484,3.484,0,0,0,2.085,3.258c-5.035.758-4.807,6.23-4.807,6.23l11.906.055S228.72,80.321,223.729,79.568Z" transform="translate(-216.541 -72.836)" fill="#e0e0e0"/>
        </g>
        <g id="Grupo_64062" data-name="Grupo 64062" transform="translate(270.811 24.133)">
          <path id="Trazado_112216" data-name="Trazado 112216" d="M634.132,135.229l-5.526-5.944,1.789-1.663,3.815,4.1,8.01-7.881,1.713,1.741Z" transform="translate(-628.606 -123.843)" fill="#d7b6ff"/>
        </g>
        <path id="Trazado_112217" data-name="Trazado 112217" d="M458.178,210.642c0-4.061-4.268-6.635-8.619-4.6a4.941,4.941,0,0,0-2.289,2.194,7.262,7.262,0,0,0,.381,6.553l3.386,8.583a1.459,1.459,0,0,0,2.719-.011l3.32-8.627A10.617,10.617,0,0,0,458.178,210.642Zm-4.088,3.535c-2.925,1.7-5.89-1.443-4.286-4.545a2.436,2.436,0,0,1,.929-.985c2.925-1.7,5.89,1.443,4.286,4.545A2.436,2.436,0,0,1,454.09,214.177Z" transform="translate(-261.925 -142.643)" fill="#d7b6ff"/>
        <g id="Grupo_64074" data-name="Grupo 64074" transform="translate(237.968 63.264)">
          <g id="Grupo_64063" data-name="Grupo 64063">
            <path id="Trazado_112218" data-name="Trazado 112218" d="M567.792,270.247c-9.119-8.327-9.64-21.528-7.658-33.057.331-1.925.4-3.993,1.559-5.562s3.5-2.429,5.14-1.373c1.362.875,1.768,2.633,2.393,4.127a11.517,11.517,0,0,0,4,4.963,4.456,4.456,0,0,0,3.973.911c1.816-.688,2.33-2.964,2.581-4.89q.7-5.38,1.4-10.761a17.839,17.839,0,0,1,1.369-5.631,6.046,6.046,0,0,1,4.35-3.512c1.923-.257,4.072,1.112,4.206,3.048a17.737,17.737,0,0,1-.273,2.4,2.044,2.044,0,0,0,.939,2.069,2.4,2.4,0,0,0,2.261-.589,25.761,25.761,0,0,0,5.6-6.292,35.718,35.718,0,0,1,5.316-6.556,10.662,10.662,0,0,1,7.68-2.971c2.812.227,5.553,2.336,5.888,5.137s-1.643,5.339-3.687,7.294a43.6,43.6,0,0,1-10.22,7.276,3.584,3.584,0,0,0-1.735,1.4c-.6,1.224.459,2.667,1.683,3.265a23.083,23.083,0,0,0,4.479,1.129c1.5.386,3.051,1.273,3.432,2.769.528,2.076-1.419,3.907-3.242,5.031a37.7,37.7,0,0,1-11.886,4.767,12.751,12.751,0,0,0-4.366,1.4,3.562,3.562,0,0,0-1.713,3.918c.513,1.453,2.246,2.132,3.785,2.064a26.407,26.407,0,0,0,4.5-1.024c2.814-.63,6.247.028,7.65,2.547a6.076,6.076,0,0,1-.08,5.472,14.125,14.125,0,0,1-3.6,4.347,37.789,37.789,0,0,1-17.515,8.9c-6.5,1.272-12.336,1.057-18.2-2.019" transform="translate(-559.19 -206.548)" fill="#bb83ff" opacity="0.45"/>
          </g>
          <g id="Grupo_64065" data-name="Grupo 64065" transform="translate(9.327 2.137)">
            <g id="Grupo_64064" data-name="Grupo 64064">
              <path id="Trazado_112219" data-name="Trazado 112219" d="M578.9,277.319c1.055-4.528.788-5.925,3.326-11.525a172.759,172.759,0,0,1,9.469-17.6l2.722-4.486c.9-1.471,1.785-2.928,2.744-4.3a86.772,86.772,0,0,1,5.968-7.574c2.017-2.318,4.016-4.445,5.9-6.421s3.685-3.778,5.393-5.355a69.631,69.631,0,0,1,8.612-6.841c1.078-.727,1.931-1.264,2.515-1.621l.665-.4c.151-.089.232-.129.232-.129s-.07.056-.216.154l-.65.426c-.573.373-1.416.925-2.482,1.665a72.813,72.813,0,0,0-8.535,6.9c-1.7,1.583-3.479,3.393-5.359,5.371s-3.866,4.113-5.874,6.432a87.228,87.228,0,0,0-5.935,7.56c-.953,1.368-1.834,2.815-2.731,4.29l-2.721,4.485a176.275,176.275,0,0,0-9.474,17.557c-2.546,5.58-2.292,6.953-3.371,11.461" transform="translate(-578.903 -211.066)" fill="#e0e0e0"/>
            </g>
          </g>
          <g id="Grupo_64067" data-name="Grupo 64067" transform="translate(27.559 8.913)">
            <g id="Grupo_64066" data-name="Grupo 64066">
              <path id="Trazado_112220" data-name="Trazado 112220" d="M617.544,246.937a4.66,4.66,0,0,1-.065-.847c-.026-.546-.038-1.336-.041-2.312-.008-1.953.071-4.649.164-7.622s.125-5.666.075-7.614c-.022-.974-.05-1.762-.077-2.307a4.64,4.64,0,0,1-.007-.849,4.756,4.756,0,0,1,.121.841c.062.543.122,1.331.17,2.307.1,1.952.105,4.653.011,7.63-.1,2.947-.185,5.614-.251,7.616-.021.933-.038,1.709-.052,2.309A4.679,4.679,0,0,1,617.544,246.937Z" transform="translate(-617.438 -225.387)" fill="#e0e0e0"/>
            </g>
          </g>
          <g id="Grupo_64069" data-name="Grupo 64069" transform="translate(27.666 28.82)">
            <g id="Grupo_64068" data-name="Grupo 64068">
              <path id="Trazado_112221" data-name="Trazado 112221" d="M643.346,267.926a.9.9,0,0,1-.264.007l-.75-.038c-.651-.037-1.592-.091-2.756-.121-2.327-.078-5.548-.068-9.1.1s-6.758.471-9.07.756c-1.157.134-2.09.269-2.736.359l-.744.1a.9.9,0,0,1-.264.016.885.885,0,0,1,.253-.074l.736-.154c.64-.125,1.571-.292,2.728-.453,2.31-.337,5.523-.668,9.084-.843s6.789-.145,9.121-.014c1.166.056,2.108.142,2.756.213l.747.093A.9.9,0,0,1,643.346,267.926Z" transform="translate(-617.663 -267.462)" fill="#e0e0e0"/>
            </g>
          </g>
          <g id="Grupo_64071" data-name="Grupo 64071" transform="translate(4.7 23.127)">
            <g id="Grupo_64070" data-name="Grupo 64070">
              <path id="Trazado_112222" data-name="Trazado 112222" d="M577.419,288.741a1.546,1.546,0,0,1-.123-.326c-.079-.249-.178-.565-.3-.955-.258-.83-.6-2.04-1.009-3.54-.815-3-1.814-7.177-2.857-11.8s-2.009-8.806-2.772-11.815c-.38-1.477-.692-2.684-.917-3.562-.1-.4-.183-.717-.247-.969a1.559,1.559,0,0,1-.067-.344,1.615,1.615,0,0,1,.124.327c.078.248.177.564.3.955.258.83.6,2.04,1.008,3.54.816,3,1.814,7.177,2.858,11.8s2.009,8.8,2.772,11.814c.381,1.476.692,2.684.918,3.561.1.4.183.718.247.97A1.579,1.579,0,0,1,577.419,288.741Z" transform="translate(-569.123 -255.428)" fill="#e0e0e0"/>
            </g>
          </g>
          <g id="Grupo_64073" data-name="Grupo 64073" transform="translate(12.995 50.421)">
            <g id="Grupo_64072" data-name="Grupo 64072">
              <path id="Trazado_112223" data-name="Trazado 112223" d="M621.393,313.12a1.754,1.754,0,0,1-.35.083l-1.012.18-3.723.64c-3.142.544-7.474,1.348-12.257,2.248s-9.125,1.674-12.279,2.166c-1.577.247-2.854.434-3.739.548l-1.02.126a1.638,1.638,0,0,1-.359.024,1.673,1.673,0,0,1,.35-.082l1.011-.18,3.722-.639c3.143-.544,7.474-1.349,12.259-2.25s9.124-1.673,12.276-2.165c1.577-.246,2.854-.434,3.74-.547l1.02-.127A1.675,1.675,0,0,1,621.393,313.12Z" transform="translate(-586.656 -313.116)" fill="#e0e0e0"/>
            </g>
          </g>
        </g>
        <g id="Grupo_64082" data-name="Grupo 64082" transform="translate(0 68.173)">
          <path id="Trazado_112224" data-name="Trazado 112224" d="M57.2,217.648s2.818-3.207,9.244,3.874a110.633,110.633,0,0,1,9.3,11.389s1.576,1.421,2.453-.027,1.629-5.082,3.8-5.054c2.248.029,3.568,2.17,4.1,5.7s1.983,11.216,2.117,11.911.782,1.562,1.537.672,4.48-8.295,7.888-6.317,3.276,12.051,3.283,13.153.327,1.486.884,1.607,1.575-2.485,2.72-4.548,2.835-4.253,4.706-2.947,4.23,8.2.654,21.4l-2.057,6.011-6.241,1.331c-13.529,2.035-20.1-1.1-21.185-3.108s1.288-3.435,3.468-4.336,4.887-1.612,4.83-2.18-.4-.93-1.5-1.063-11.115-1.16-12.689-4.772,6.21-6.462,7.181-7.11.172-1.4-.491-1.6-8.145-2.537-11.589-3.471-5.419-2.492-5.189-4.728c.221-2.156,3.918-2.485,5.456-3.19s.308-2.433.308-2.433a110.688,110.688,0,0,1-10.246-10.549c-6.3-7.2-2.686-9.671-2.686-9.671" transform="translate(-56.228 -216.924)" fill="#bb83ff" opacity="0.42"/>
          <g id="Grupo_64075" data-name="Grupo 64075" transform="translate(6.734 7.056)">
            <path id="Trazado_112225" data-name="Trazado 112225" d="M70.461,231.837a.944.944,0,0,1,.124.123l.346.377,1.313,1.466,4.808,5.41L92.982,257c6.237,6.936,11.854,13.241,15.881,17.839l4.749,5.462,1.278,1.5.328.393a.917.917,0,0,1,.105.14.891.891,0,0,1-.124-.123l-.346-.377-1.313-1.466-4.808-5.409c-4.06-4.568-9.7-10.854-15.933-17.789s-11.851-13.238-15.878-17.836l-4.749-5.462-1.278-1.5-.328-.393A.877.877,0,0,1,70.461,231.837Z" transform="translate(-70.461 -231.837)" fill="#e0e0e0"/>
          </g>
          <g id="Grupo_64076" data-name="Grupo 64076" transform="translate(24.822 16.033)">
            <path id="Trazado_112226" data-name="Trazado 112226" d="M108.786,250.811a13.055,13.055,0,0,1,.085,1.707l.129,4.117c.053,1.608.092,3.066.087,4.122,0,.528-.015.956-.032,1.251a1.647,1.647,0,0,1-.055.458,15.8,15.8,0,0,1-.087-1.706c-.043-1.12-.1-2.543-.159-4.117-.053-1.609-.072-3.068-.057-4.124.009-.528.02-.955.039-1.25A1.694,1.694,0,0,1,108.786,250.811Z" transform="translate(-108.691 -250.811)" fill="#e0e0e0"/>
          </g>
          <g id="Grupo_64077" data-name="Grupo 64077" transform="translate(11.155 27.698)">
            <path id="Trazado_112227" data-name="Trazado 112227" d="M93.246,275.717c0,.068-3.011.08-6.722.027s-6.72-.151-6.719-.219,3.011-.08,6.723-.027S93.247,275.649,93.246,275.717Z" transform="translate(-79.804 -275.464)" fill="#e0e0e0"/>
          </g>
          <g id="Grupo_64078" data-name="Grupo 64078" transform="translate(24.591 39.663)">
            <path id="Trazado_112228" data-name="Trazado 112228" d="M119.785,300.758a1.757,1.757,0,0,1-.432.185c-.283.105-.7.243-1.211.407-1.029.324-2.462.736-4.066,1.106s-3.072.637-4.139.8c-.533.081-.966.136-1.266.168a1.766,1.766,0,0,1-.47.024,13.978,13.978,0,0,1,1.706-.364c1.057-.2,2.514-.493,4.112-.866s3.034-.753,4.073-1.033A13.888,13.888,0,0,1,119.785,300.758Z" transform="translate(-108.202 -300.754)" fill="#e0e0e0"/>
          </g>
          <g id="Grupo_64079" data-name="Grupo 64079" transform="translate(36.042 28.952)">
            <path id="Trazado_112229" data-name="Trazado 112229" d="M135.2,278.116a10.385,10.385,0,0,1-.324,1.58c-.23.968-.565,2.3-.951,3.77s-.747,2.8-1.021,3.752a10.356,10.356,0,0,1-.493,1.536,10.533,10.533,0,0,1,.324-1.58c.231-.969.566-2.3.951-3.771s.747-2.795,1.021-3.751A10.509,10.509,0,0,1,135.2,278.116Z" transform="translate(-132.405 -278.116)" fill="#e0e0e0"/>
          </g>
          <g id="Grupo_64080" data-name="Grupo 64080" transform="translate(46.662 37.998)">
            <path id="Trazado_112230" data-name="Trazado 112230" d="M158.559,297.235a2.411,2.411,0,0,1-.1.547l-.359,1.468c-.314,1.236-.763,2.94-1.275,4.817s-.987,3.575-1.344,4.8l-.435,1.447a2.417,2.417,0,0,1-.192.522,2.4,2.4,0,0,1,.1-.547q.145-.6.359-1.468c.314-1.236.763-2.94,1.275-4.818s.987-3.574,1.344-4.8l.435-1.447A2.392,2.392,0,0,1,158.559,297.235Z" transform="translate(-154.852 -297.235)" fill="#e0e0e0"/>
          </g>
          <g id="Grupo_64081" data-name="Grupo 64081" transform="translate(31.877 51.244)">
            <path id="Trazado_112231" data-name="Trazado 112231" d="M138.388,325.236a2.8,2.8,0,0,1-.562.2c-.365.114-.9.264-1.558.442-1.321.353-3.156.8-5.2,1.219s-3.911.722-5.265.911c-.677.1-1.226.163-1.606.2a2.8,2.8,0,0,1-.594.036,2.734,2.734,0,0,1,.581-.132l1.593-.28c1.345-.233,3.2-.564,5.243-.98s3.879-.837,5.208-1.146l1.576-.366A2.73,2.73,0,0,1,138.388,325.236Z" transform="translate(-123.602 -325.232)" fill="#e0e0e0"/>
          </g>
        </g>
      </g>
    </g>
    <g id="Icons" transform="translate(59.334 80.943)">
      <g id="Grupo_64085" data-name="Grupo 64085" transform="translate(0 55.695)">
        <g id="Grupo_64084" data-name="Grupo 64084">
          <path id="Trazado_112232" data-name="Trazado 112232" d="M83.183,224.38a1.386,1.386,0,0,0,.669-.237,1.264,1.264,0,0,0,.476-.7,2.021,2.021,0,0,0,.044-.55q0-.3,0-.642c.017-1.826.041-4.446.07-7.676q.014-1.216.028-2.544.007-.663.016-1.353a3.929,3.929,0,0,0-.019-.673,1.147,1.147,0,0,0-.3-.568,1.08,1.08,0,0,0-.57-.307,5.6,5.6,0,0,0-.712-.018l-1.5,0-3.131.005-13.941.011a1.132,1.132,0,0,0-1.1,1.039q-.016.911-.031,1.81-.026,1.806-.053,3.557c-.036,2.331-.07,4.58-.1,6.724q-.006.4-.013.8a1.192,1.192,0,0,0,.169.694,1.085,1.085,0,0,0,.532.444,1.885,1.885,0,0,0,.718.072l2.953.006,5.3.015,7.677.038,2.087.023.543.012a1.072,1.072,0,0,1,.185.012,1.036,1.036,0,0,1-.185.013l-.543.012-2.087.023-7.677.04-5.3.016-2.953.006a2.08,2.08,0,0,1-.8-.084,1.3,1.3,0,0,1-.643-.532,1.414,1.414,0,0,1-.2-.813q0-.4.01-.8c.028-2.143.058-4.393.089-6.724q.024-1.749.049-3.557.016-.908.031-1.829a1.379,1.379,0,0,1,1.346-1.264l13.941.009,3.131.005,1.5,0a5.491,5.491,0,0,1,.751.025,1.285,1.285,0,0,1,.678.369,1.349,1.349,0,0,1,.348.671,3.955,3.955,0,0,1,.02.715q-.012.689-.023,1.353-.023,1.326-.044,2.544c-.062,3.23-.114,5.849-.149,7.675q-.008.339-.015.642a2.1,2.1,0,0,1-.058.568,1.309,1.309,0,0,1-.518.719,1.192,1.192,0,0,1-.511.193A.674.674,0,0,1,83.183,224.38Z" transform="translate(-62.791 -208.888)" fill="#455a64"/>
        </g>
        <path id="Trazado_112233" data-name="Trazado 112233" d="M84.658,220.882l2.584,1.568L84.6,224l-2.64,1.549.056-3.117.056-3.117Z" transform="translate(-72.892 -214.381)" fill="#455a64"/>
      </g>
      <g id="Grupo_64086" data-name="Grupo 64086" transform="translate(241.262 7.759)">
        <path id="Trazado_112234" data-name="Trazado 112234" d="M582.551,116.785a4.773,4.773,0,0,0,2.844-4.416,4.486,4.486,0,1,0-8.954-.042,4.767,4.767,0,0,0,2.853,4.458c-6.89,1.038-6.577,8.526-6.577,8.526l16.292.075S589.381,117.816,582.551,116.785Z" transform="translate(-572.715 -107.573)" fill="#e8505b"/>
      </g>
      <g id="Grupo_64090" data-name="Grupo 64090" transform="translate(127.983 0)">
        <g id="Grupo_64088" data-name="Grupo 64088">
          <rect id="Rectángulo_6567" data-name="Rectángulo 6567" width="26.538" height="17.888" transform="translate(0.147 2.614) rotate(-5.419)" fill="#fff"/>
          <g id="Grupo_64087" data-name="Grupo 64087">
            <path id="Trazado_112235" data-name="Trazado 112235" d="M361.548,109.088s-.018-.115-.042-.329-.057-.539-.1-.944c-.085-.835-.209-2.044-.366-3.587-.306-3.1-.745-7.535-1.279-12.938l.107.089-26.415,2.53c-.026.029.208-.253.109-.132v.014l0,.018,0,.037.007.074.014.149.028.3.056.592q.056.592.112,1.179l.221,2.333q.219,2.315.43,4.553l.8,8.559-.123-.1,19.018-1.748,5.448-.486,1.454-.124.378-.029a1.1,1.1,0,0,1,.133-.006.69.69,0,0,1-.118.018l-.364.041-1.429.15-5.416.544-19.081,1.866-.112.011-.011-.113c-.26-2.713-.534-5.578-.82-8.558q-.213-2.236-.434-4.553-.11-1.158-.222-2.333-.055-.588-.112-1.179l-.056-.592-.028-.3-.014-.149-.007-.074,0-.037V93.8c-.1.118.135-.167.113-.137l26.42-2.482.1-.009.009.1c.493,5.433.9,9.894,1.182,13.008.135,1.535.24,2.739.314,3.569q.05.6.077.928C361.545,108.986,361.548,109.088,361.548,109.088Z" transform="translate(-333.291 -91.173)" fill="#455a64"/>
          </g>
        </g>
        <g id="Grupo_64089" data-name="Grupo 64089" transform="translate(0.147 0.107)">
          <path id="Trazado_112236" data-name="Trazado 112236" d="M360.022,91.4a1.733,1.733,0,0,1-.2.264l-.623.725-2.33,2.646-7.816,8.741-.07.078-.089-.056-.7-.448-10.341-6.634-3.119-2.034-.841-.563a1.926,1.926,0,0,1-.284-.211,1.9,1.9,0,0,1,.311.168l.866.525,3.161,1.968,10.38,6.573.7.448-.158.022,7.872-8.69,2.387-2.594.656-.7A1.782,1.782,0,0,1,360.022,91.4Z" transform="translate(-333.603 -91.399)" fill="#455a64"/>
        </g>
      </g>
      <g id="Grupo_64093" data-name="Grupo 64093" transform="translate(81.582 14.207)">
        <g id="Grupo_64091" data-name="Grupo 64091" transform="translate(0)">
          <path id="Trazado_112237" data-name="Trazado 112237" d="M249.451,128.352a11.981,11.981,0,0,0-.267-1.71,6.746,6.746,0,0,0-.789-1.856,6.963,6.963,0,0,0-8.361-2.951,6.956,6.956,0,0,0-3.219,2.42,6.9,6.9,0,0,0,0,8.195,6.959,6.959,0,0,0,3.219,2.421,6.986,6.986,0,0,0,8.361-2.951,6.744,6.744,0,0,0,.789-1.856,11.96,11.96,0,0,0,.267-1.71.41.41,0,0,1,.007.115l0,.337a3.239,3.239,0,0,1-.044.546,4.912,4.912,0,0,1-.132.737,6.654,6.654,0,0,1-.764,1.9,7.121,7.121,0,0,1-4.795,3.392,7.164,7.164,0,0,1-3.762-.3,7.161,7.161,0,0,1-3.336-2.491,7.125,7.125,0,0,1,0-8.481,7.161,7.161,0,0,1,3.336-2.49,7.158,7.158,0,0,1,3.762-.3,7.121,7.121,0,0,1,4.8,3.391,6.673,6.673,0,0,1,.764,1.9,4.983,4.983,0,0,1,.132.737,3.2,3.2,0,0,1,.044.546l0,.337A.4.4,0,0,1,249.451,128.352Z" transform="translate(-235.221 -121.2)" fill="#263238"/>
        </g>
        <g id="Grupo_64092" data-name="Grupo 64092" transform="translate(12.696 11.535)">
          <path id="Trazado_112238" data-name="Trazado 112238" d="M273.065,152.971c-.038.057-2.534-1.552-5.574-3.592s-5.475-3.741-5.437-3.8,2.533,1.552,5.574,3.593S273.1,152.915,273.065,152.971Z" transform="translate(-262.054 -145.58)" fill="#263238"/>
        </g>
      </g>
      <g id="Grupo_64094" data-name="Grupo 64094" transform="translate(120.678 34.757)">
        <path id="Trazado_112239" data-name="Trazado 112239" d="M323.379,176.019l-5.526-5.944,1.789-1.663,3.815,4.1,8.01-7.881,1.713,1.741Z" transform="translate(-317.853 -164.634)" fill="#e8505b"/>
      </g>
    </g>
    <g id="Speech_Bubbles" data-name="Speech Bubbles" transform="translate(73.525 71.755)">
      <g id="Grupo_64100" data-name="Grupo 64100" transform="translate(233.102 49.533)">
        <g id="Grupo_64095" data-name="Grupo 64095">
          <path id="Trazado_112240" data-name="Trazado 112240" d="M619.406,176.55s.09,0,.268,0l.33.011c.131.012.282.037.454.061a6.031,6.031,0,0,1,2.766,1.213,6.2,6.2,0,0,1,2.325,4.139,14.3,14.3,0,0,1,.046,1.472q0,.758,0,1.564,0,1.612.009,3.408t.008,3.763q0,.984,0,2.008a7.264,7.264,0,0,1-.208,2.093,6.189,6.189,0,0,1-4.671,4.495,10.85,10.85,0,0,1-2.389.15l-21.12.014.086-.035-4.766,4.767-.21.211v-5.064l.123.123a11.789,11.789,0,0,1-1.567-.058,6.206,6.206,0,0,1-1.519-.395,6.231,6.231,0,0,1-3.8-4.558,7.948,7.948,0,0,1-.123-1.5q0-.739,0-1.471,0-2.929,0-5.746,0-1.407,0-2.783a21.537,21.537,0,0,1,.085-2.73,6.214,6.214,0,0,1,5.209-5.178,18.463,18.463,0,0,1,2.433-.076l8.821.015,12.735.038,3.453.023.9.012c.2,0,.305.012.305.012s-.1.009-.305.012l-.9.012-3.453.023-12.735.039-8.821.015a18.531,18.531,0,0,0-2.4.08,5.979,5.979,0,0,0-5.019,5.008,21.546,21.546,0,0,0-.078,2.7q0,1.375,0,2.783,0,2.814,0,5.746a17.43,17.43,0,0,0,.12,2.924,5.99,5.99,0,0,0,3.649,4.378,5.963,5.963,0,0,0,1.459.378,11.5,11.5,0,0,0,1.535.055h.124v4.89l-.21-.087,4.767-4.766.036-.035h.051l21.12.014a10.692,10.692,0,0,0,2.344-.139,5.993,5.993,0,0,0,4.531-4.338,7.057,7.057,0,0,0,.209-2.044q0-1.024,0-2.008,0-1.966.008-3.763t.009-3.408q0-.806,0-1.564a14.248,14.248,0,0,0-.036-1.458,6.1,6.1,0,0,0-4.973-5.321c-.17-.026-.32-.056-.45-.071l-.328-.022C619.5,176.562,619.406,176.55,619.406,176.55Z" transform="translate(-585.461 -176.446)" fill="#263238"/>
        </g>
        <g id="Grupo_64099" data-name="Grupo 64099" transform="translate(12.338 11.525)">
          <g id="Grupo_64096" data-name="Grupo 64096" transform="translate(0 0.061)">
            <path id="Trazado_112241" data-name="Trazado 112241" d="M614.381,202.4c-.021,0-.026-.121-.089-.32a1.359,1.359,0,0,0-.5-.691,1.278,1.278,0,0,0-1.194-.158,1.249,1.249,0,0,0,0,2.34,1.278,1.278,0,0,0,1.194-.159,1.359,1.359,0,0,0,.5-.691c.063-.2.068-.321.089-.32s.042.122,0,.344a1.355,1.355,0,0,1-.488.806,1.44,1.44,0,0,1-1.377.234,1.466,1.466,0,0,1,0-2.767,1.437,1.437,0,0,1,1.377.234,1.353,1.353,0,0,1,.488.806A.586.586,0,0,1,614.381,202.4Z" transform="translate(-611.539 -200.935)" fill="#263238"/>
          </g>
          <g id="Grupo_64097" data-name="Grupo 64097" transform="translate(6.273)">
            <path id="Trazado_112242" data-name="Trazado 112242" d="M627.639,202.271a2.242,2.242,0,0,1-.089-.32,1.359,1.359,0,0,0-.5-.691,1.278,1.278,0,0,0-1.194-.159,1.249,1.249,0,0,0,0,2.34,1.28,1.28,0,0,0,1.194-.159,1.361,1.361,0,0,0,.5-.691,2.27,2.27,0,0,1,.089-.32c.013,0,.042.122,0,.344a1.354,1.354,0,0,1-.488.806,1.437,1.437,0,0,1-1.377.234,1.466,1.466,0,0,1,0-2.767,1.44,1.44,0,0,1,1.377.234,1.354,1.354,0,0,1,.488.806C627.681,202.149,627.652,202.272,627.639,202.271Z" transform="translate(-624.797 -200.806)" fill="#263238"/>
          </g>
          <g id="Grupo_64098" data-name="Grupo 64098" transform="translate(12.546)">
            <path id="Trazado_112243" data-name="Trazado 112243" d="M640.9,202.271c-.021,0-.026-.121-.089-.32a1.359,1.359,0,0,0-.5-.691,1.279,1.279,0,0,0-1.194-.159,1.249,1.249,0,0,0,0,2.34,1.28,1.28,0,0,0,1.194-.159,1.361,1.361,0,0,0,.5-.691,2.254,2.254,0,0,1,.089-.32.586.586,0,0,1,0,.344,1.354,1.354,0,0,1-.488.806,1.437,1.437,0,0,1-1.377.234,1.466,1.466,0,0,1,0-2.767,1.439,1.439,0,0,1,1.377.234,1.354,1.354,0,0,1,.488.806C640.939,202.149,640.91,202.272,640.9,202.271Z" transform="translate(-638.055 -200.806)" fill="#263238"/>
          </g>
        </g>
      </g>
      <g id="Grupo_64102" data-name="Grupo 64102" transform="translate(0 8.649)">
        <path id="Trazado_112244" data-name="Trazado 112244" d="M142.61,129.33c0-4.062-4.268-6.635-8.619-4.6a4.94,4.94,0,0,0-2.29,2.195,7.26,7.26,0,0,0,.381,6.552l3.386,8.583a1.459,1.459,0,0,0,2.719-.011l3.32-8.627A10.619,10.619,0,0,0,142.61,129.33Zm-4.088,3.534c-2.925,1.7-5.89-1.443-4.286-4.545a2.438,2.438,0,0,1,.929-.985c2.925-1.7,5.89,1.443,4.286,4.545A2.435,2.435,0,0,1,138.523,132.864Z" transform="translate(-112.96 -107.94)" fill="#e8505b"/>
        <g id="Grupo_64101" data-name="Grupo 64101">
          <path id="Trazado_112245" data-name="Trazado 112245" d="M137.473,125.448h0s.023.053.059.157.088.26.155.458l.59,1.788,2.231,6.859.03.094-.1-.018-9.535-1.746-.066-.012v-.067h0l.129.064a23.744,23.744,0,0,1-11.03,4.551,24.017,24.017,0,0,1-3.381.225,26.019,26.019,0,0,1-3.513-.294,25.266,25.266,0,0,1-3.566-.8l-1.762-.643a6.719,6.719,0,0,1-.87-.378l-.862-.414a24.509,24.509,0,0,1-6.367-4.615,23.494,23.494,0,0,1-4.679-6.813,23.842,23.842,0,0,1,22.621-33.782,23.784,23.784,0,0,1,22.885,22.33,22.648,22.648,0,0,1-.648,7.278,23.162,23.162,0,0,1-1.57,4.352c-.232.476-.416.837-.55,1.065l-.206.361.181-.361c.128-.247.307-.607.53-1.086a24.016,24.016,0,0,0,1.522-4.354,22.71,22.71,0,0,0,.6-7.247,23.708,23.708,0,0,0-36.8-18.153,23.637,23.637,0,0,0-8.353,29.5,23.281,23.281,0,0,0,4.627,6.75,24.306,24.306,0,0,0,6.3,4.579l.854.412a6.506,6.506,0,0,0,.861.375l1.745.64a25.139,25.139,0,0,0,3.532.8,25.878,25.878,0,0,0,3.482.3,23.65,23.65,0,0,0,14.314-4.7l.129-.1v.16h0l-.066-.079,9.527,1.788-.067.076-2.177-6.876-.562-1.8c-.06-.2-.106-.352-.14-.462s-.044-.161-.044-.161h0Z" transform="translate(-92.785 -90.036)" fill="#263238"/>
        </g>
      </g>
      <g id="Grupo_64113" data-name="Grupo 64113" transform="translate(161.098)">
        <g id="Grupo_64110" data-name="Grupo 64110" transform="translate(10.179 10.357)">
          <g id="Grupo_64103" data-name="Grupo 64103">
            <path id="Trazado_112246" data-name="Trazado 112246" d="M481.6,107.493a3.74,3.74,0,0,1-.1-.841,6.954,6.954,0,0,0-.113-1.01,9.914,9.914,0,0,0-.265-1.356,12.706,12.706,0,0,0-1.409-3.49,13.075,13.075,0,0,0-3.246-3.738,12.931,12.931,0,0,0-12.188-2.095,12.117,12.117,0,0,0-3.3,1.682,11.767,11.767,0,0,0-2.783,2.672,12.826,12.826,0,0,0-.37,15.206,11.771,11.771,0,0,0,2.65,2.8,12.123,12.123,0,0,0,3.212,1.84,13.029,13.029,0,0,0,15.7-5.078,12.708,12.708,0,0,0,1.576-3.417,9.832,9.832,0,0,0,.33-1.342,6.9,6.9,0,0,0,.162-1,3.739,3.739,0,0,1,.136-.835,3.684,3.684,0,0,1,.01.848,5.855,5.855,0,0,1-.094,1.025,9.16,9.16,0,0,1-.271,1.382,12.431,12.431,0,0,1-1.505,3.558,13.408,13.408,0,0,1-9.187,6.208,13.531,13.531,0,0,1-7.1-.723,12.724,12.724,0,0,1-3.4-1.917,12.422,12.422,0,0,1-2.808-2.944,13.479,13.479,0,0,1,.391-16.05,12.428,12.428,0,0,1,2.947-2.8,12.729,12.729,0,0,1,3.484-1.749,13.529,13.529,0,0,1,7.126-.378,13.4,13.4,0,0,1,8.875,6.647,12.442,12.442,0,0,1,1.331,3.627,9.22,9.22,0,0,1,.2,1.394,5.914,5.914,0,0,1,.044,1.029A3.679,3.679,0,0,1,481.6,107.493Z" transform="translate(-454.79 -93.645)" fill="#455a64"/>
          </g>
          <g id="Grupo_64104" data-name="Grupo 64104" transform="translate(3.405 5.076)">
            <path id="Trazado_112247" data-name="Trazado 112247" d="M482.743,104.884c.029.041-.209.248-.67.591l-.851.611c-.169.115-.345.246-.542.369l-.651.34a14.926,14.926,0,0,1-7.774,1.958l-1.177-.053-1.129-.176c-.185-.031-.369-.056-.549-.092l-.527-.14c-.347-.1-.69-.178-1.017-.282a17.033,17.033,0,0,1-3.3-1.52,7.544,7.544,0,0,1-2.568-2.109c.071-.082,1.035.734,2.82,1.661a19.856,19.856,0,0,0,3.247,1.329c.317.092.647.162.981.247l.507.126.526.079,1.079.159,1.121.045a16.093,16.093,0,0,0,7.528-1.691l.659-.286c.2-.105.383-.218.558-.314l.9-.5C482.42,104.972,482.714,104.843,482.743,104.884Z" transform="translate(-461.986 -104.374)" fill="#455a64"/>
          </g>
          <g id="Grupo_64105" data-name="Grupo 64105" transform="translate(3.003 17.787)">
            <path id="Trazado_112248" data-name="Trazado 112248" d="M461.14,135.116c-.029-.041.209-.248.67-.59l.851-.611c.169-.115.345-.246.542-.369l.651-.341a14.925,14.925,0,0,1,7.774-1.958l1.177.053,1.129.176c.185.031.369.056.549.092l.527.141c.347.1.69.178,1.017.282a17.059,17.059,0,0,1,3.3,1.52,7.557,7.557,0,0,1,2.568,2.109c-.071.082-1.035-.734-2.82-1.661a19.9,19.9,0,0,0-3.247-1.329c-.317-.092-.647-.161-.981-.247l-.507-.126-.526-.079-1.079-.159-1.121-.045a16.094,16.094,0,0,0-7.528,1.69l-.659.286c-.2.105-.383.217-.558.314l-.9.5C461.463,135.028,461.169,135.157,461.14,135.116Z" transform="translate(-461.138 -131.239)" fill="#455a64"/>
          </g>
          <g id="Grupo_64106" data-name="Grupo 64106" transform="translate(0.358 13.349)">
            <path id="Trazado_112249" data-name="Trazado 112249" d="M481.987,122.665c0,.2-5.928.22-13.229.043s-13.217-.484-13.212-.685,5.927-.22,13.23-.042S481.992,122.464,481.987,122.665Z" transform="translate(-455.546 -121.859)" fill="#455a64"/>
          </g>
          <g id="Grupo_64107" data-name="Grupo 64107" transform="translate(12.805 0.303)">
            <path id="Trazado_112250" data-name="Trazado 112250" d="M482.018,120.717c-.2,0-.22-5.926-.042-13.224s.484-13.213.684-13.208.22,5.925.043,13.226S482.218,120.722,482.018,120.717Z" transform="translate(-481.854 -94.285)" fill="#455a64"/>
          </g>
          <g id="Grupo_64108" data-name="Grupo 64108" transform="translate(6.391 0.295)">
            <path id="Trazado_112251" data-name="Trazado 112251" d="M474.877,120.688a10.614,10.614,0,0,1-3.188-3.147,17.788,17.788,0,0,1-2.363-4.291,15.949,15.949,0,0,1-1.023-5.925,15.161,15.161,0,0,1,1.335-5.865,18.39,18.39,0,0,1,2.582-4.159,11.267,11.267,0,0,1,3.3-3.029c.071.083-1.259,1.165-2.894,3.346a19.8,19.8,0,0,0-2.372,4.108,15.239,15.239,0,0,0-1.223,5.613,16.108,16.108,0,0,0,.925,5.681,19.079,19.079,0,0,0,2.154,4.224C473.639,119.5,474.95,120.608,474.877,120.688Z" transform="translate(-468.299 -94.268)" fill="#455a64"/>
          </g>
          <g id="Grupo_64109" data-name="Grupo 64109" transform="translate(13.262 0.302)">
            <path id="Trazado_112252" data-name="Trazado 112252" d="M483.466,94.287a10.607,10.607,0,0,1,3.188,3.147,17.784,17.784,0,0,1,2.363,4.291,15.943,15.943,0,0,1,1.023,5.925,15.168,15.168,0,0,1-1.335,5.865,18.37,18.37,0,0,1-2.582,4.159,11.267,11.267,0,0,1-3.3,3.029c-.071-.082,1.259-1.165,2.894-3.346a19.8,19.8,0,0,0,2.373-4.108,15.232,15.232,0,0,0,1.223-5.613,16.1,16.1,0,0,0-.925-5.681,19.1,19.1,0,0,0-2.153-4.224C484.7,95.478,483.392,94.367,483.466,94.287Z" transform="translate(-482.821 -94.283)" fill="#455a64"/>
          </g>
        </g>
        <g id="Grupo_64112" data-name="Grupo 64112">
          <g id="Grupo_64111" data-name="Grupo 64111">
            <path id="Trazado_112253" data-name="Trazado 112253" d="M443.823,115.333v0h0s-.056.018-.161.044l-.469.114-1.834.428-7.03,1.612-.1.022.026-.1c.714-2.58,1.588-5.736,2.587-9.342l.017-.064.067.006h0l-.075.122A23.745,23.745,0,0,1,433.3,96.793a24.054,24.054,0,0,1,.076-3.388,26.107,26.107,0,0,1,.605-3.473,25.309,25.309,0,0,1,1.112-3.481l.8-1.7a6.632,6.632,0,0,1,.453-.833l.489-.822A24.5,24.5,0,0,1,442,77.167a23.481,23.481,0,0,1,7.2-4.056,23.841,23.841,0,0,1,31.638,25.534,23.782,23.782,0,0,1-24.275,20.81,22.645,22.645,0,0,1-7.192-1.292,23.23,23.23,0,0,1-4.2-1.951c-.453-.273-.8-.489-1.011-.642l-.342-.238.344.212c.235.15.578.36,1.035.625a23.969,23.969,0,0,0,4.2,1.9,22.712,22.712,0,0,0,7.164,1.245,23.708,23.708,0,0,0,21.352-35.037A23.637,23.637,0,0,0,449.28,73.338a23.275,23.275,0,0,0-7.134,4.009,24.31,24.31,0,0,0-5.121,5.869l-.486.813a6.514,6.514,0,0,0-.45.824l-.793,1.681a25.172,25.172,0,0,0-1.108,3.448,25.856,25.856,0,0,0-.607,3.441,23.87,23.87,0,0,0-.083,3.36,23.629,23.629,0,0,0,3.493,11.316l.085.137-.16-.015h0l.084-.058c-1.014,3.6-1.9,6.753-2.628,9.33l-.07-.073,7.043-1.558,1.84-.4.473-.1c.106-.021.164-.029.164-.029h0Z" transform="translate(-433.275 -71.755)" fill="#263238"/>
          </g>
        </g>
      </g>
    </g>
    <g id="Character_3" data-name="Character 3" transform="translate(241.462 123.665)">
      <g id="Grupo_64149" data-name="Grupo 64149">
        <path id="Trazado_112254" data-name="Trazado 112254" d="M488.623,187.284c-2.313.539-3.8,2.883-4.289,5.206s-.253,4.735-.475,7.1-1.05,4.878-3.04,6.174l1.981.573a5.409,5.409,0,0,1-2.327,2.982,4.414,4.414,0,0,0,2.706.922c-1.165.309-1.488,1.972-.844,2.992a4.836,4.836,0,0,0,3.037,1.8,7.974,7.974,0,0,0,4.211.128,6.739,6.739,0,0,0,4.085-4.119,17.344,17.344,0,0,0,.925-5.9,52.642,52.642,0,0,0-1.429-14.924,5.213,5.213,0,0,0-1.734-3.108c-1-.69-2.7-.411-3,.765" transform="translate(-464.982 -184.243)" fill="#e8505b"/>
        <path id="Trazado_112255" data-name="Trazado 112255" d="M523.671,301.038c-.549-2.094-3.749-13.871-6.608-21.566-3.173-8.541-9.721-10.3-9.721-10.3-14.738-5.029-27.982-5.058-42.124-.156-.453.141-.892.291-1.314.455l-.046.016h0c-10.489,4.117-11.571,15.2-11.571,15.2l-4.407,26.887a5.94,5.94,0,0,0-.106.645l-.042.255h.018a6.3,6.3,0,0,0,3.6,6.071,20.68,20.68,0,0,0,17.089.077l-3.67,5.346h43.71l-2.923-7.066.972-4.249,6.771,8.147a6.3,6.3,0,0,0,3.117,2.032c7.805.907,9.069-10.718,7.6-17.482h0" transform="translate(-447.732 -225.673)" fill="#f9e478"/>
        <path id="Trazado_112256" data-name="Trazado 112256" d="M523.333,265.745s-7.05,35.476-9.536,35.212-14.137-34.542-14.137-34.542S514.553,262.442,523.333,265.745Z" transform="translate(-475.091 -225.18)" fill="#ffbe9d"/>
        <g id="Grupo_64137" data-name="Grupo 64137" transform="translate(20.396)">
          <g id="Grupo_64136" data-name="Grupo 64136">
            <g id="Grupo_64135" data-name="Grupo 64135">
              <g id="Grupo_64129" data-name="Grupo 64129" transform="translate(0.789 3.969)">
                <g id="Grupo_64114" data-name="Grupo 64114">
                  <path id="Trazado_112257" data-name="Trazado 112257" d="M499.562,229.074c-.037-4.084-.151-8.383-.151-8.383s-5.266-.842-6.4-7.7c-1.079-6.54-.092-21.664-.092-21.664h0a19.728,19.728,0,0,1,21.974,4.9h0L514.65,229.4a7.115,7.115,0,0,1-7.486,6.833h0A7.518,7.518,0,0,1,499.562,229.074Z" transform="translate(-492.507 -189.859)" fill="#ffbe9d"/>
                </g>
                <g id="Grupo_64118" data-name="Grupo 64118" transform="translate(0.984 11.351)">
                  <g id="Grupo_64115" data-name="Grupo 64115" transform="translate(1.174 0.76)">
                    <path id="Trazado_112258" data-name="Trazado 112258" d="M497.069,216.259a.88.88,0,0,0,.854.883.841.841,0,0,0,.9-.8.88.88,0,0,0-.853-.884A.843.843,0,0,0,497.069,216.259Z" transform="translate(-497.068 -215.458)" fill="#263238"/>
                  </g>
                  <g id="Grupo_64117" data-name="Grupo 64117">
                    <g id="Grupo_64116" data-name="Grupo 64116">
                      <path id="Trazado_112259" data-name="Trazado 112259" d="M494.6,214.787c.11.114.774-.383,1.721-.387s1.644.466,1.746.35c.05-.052-.062-.258-.366-.477a2.416,2.416,0,0,0-1.4-.422,2.321,2.321,0,0,0-1.369.451C494.644,214.527,494.547,214.736,494.6,214.787Z" transform="translate(-494.587 -213.851)" fill="#263238"/>
                    </g>
                  </g>
                </g>
                <g id="Grupo_64122" data-name="Grupo 64122" transform="translate(10.871 11.635)">
                  <g id="Grupo_64119" data-name="Grupo 64119" transform="translate(0.868 0.936)">
                    <path id="Trazado_112260" data-name="Trazado 112260" d="M517.319,217.231a.88.88,0,0,0,.854.883.841.841,0,0,0,.9-.8.881.881,0,0,0-.853-.884A.843.843,0,0,0,517.319,217.231Z" transform="translate(-517.318 -216.43)" fill="#263238"/>
                  </g>
                  <g id="Grupo_64121" data-name="Grupo 64121">
                    <g id="Grupo_64120" data-name="Grupo 64120">
                      <path id="Trazado_112261" data-name="Trazado 112261" d="M515.5,215.387c.11.114.775-.383,1.722-.387s1.644.466,1.746.35c.05-.052-.061-.258-.367-.477a2.417,2.417,0,0,0-1.4-.422,2.322,2.322,0,0,0-1.369.451C515.542,215.127,515.444,215.336,515.5,215.387Z" transform="translate(-515.484 -214.451)" fill="#263238"/>
                    </g>
                  </g>
                </g>
                <g id="Grupo_64124" data-name="Grupo 64124" transform="translate(5.072 11.722)">
                  <g id="Grupo_64123" data-name="Grupo 64123">
                    <path id="Trazado_112262" data-name="Trazado 112262" d="M505.645,222.53a6.289,6.289,0,0,0-1.541-.268c-.242-.024-.471-.071-.513-.235a1.232,1.232,0,0,1,.157-.718l.7-1.846a31.594,31.594,0,0,0,1.577-4.828,31.715,31.715,0,0,0-1.962,4.69c-.235.648-.46,1.266-.674,1.857a1.4,1.4,0,0,0-.12.95.609.609,0,0,0,.4.352,1.649,1.649,0,0,0,.411.054A6.147,6.147,0,0,0,505.645,222.53Z" transform="translate(-503.227 -214.634)" fill="#263238"/>
                  </g>
                </g>
                <g id="Grupo_64125" data-name="Grupo 64125" transform="translate(6.903 28.324)">
                  <path id="Trazado_112263" data-name="Trazado 112263" d="M507.1,252.232a17.461,17.461,0,0,0,9.178-2.509s-2.2,4.729-9.076,4.129Z" transform="translate(-507.098 -249.723)" fill="#eb996e"/>
                </g>
                <g id="Grupo_64126" data-name="Grupo 64126" transform="translate(7.811 21.246)">
                  <path id="Trazado_112264" data-name="Trazado 112264" d="M509.109,235.417a1.707,1.707,0,0,1,1.526-.643,1.556,1.556,0,0,1,1.08.571.987.987,0,0,1,.082,1.128,1.147,1.147,0,0,1-1.24.322,3.586,3.586,0,0,1-1.215-.715,1.048,1.048,0,0,1-.272-.278.318.318,0,0,1,0-.353" transform="translate(-509.016 -234.764)" fill="#eb996e"/>
                </g>
                <g id="Grupo_64128" data-name="Grupo 64128" transform="translate(7.278 20.256)">
                  <g id="Grupo_64127" data-name="Grupo 64127">
                    <path id="Trazado_112265" data-name="Trazado 112265" d="M510.893,232.672c-.154-.008-.15,1.02-1.025,1.755s-1.971.629-1.978.773c-.014.064.245.2.708.208a2.561,2.561,0,0,0,1.652-.587,2.231,2.231,0,0,0,.794-1.471C511.08,232.919,510.963,232.665,510.893,232.672Z" transform="translate(-507.889 -232.672)" fill="#263238"/>
                  </g>
                </g>
              </g>
              <g id="Grupo_64130" data-name="Grupo 64130">
                <path id="Trazado_112266" data-name="Trazado 112266" d="M510.316,186.274c-2.448,3.626-9.032,7.425-13.778,8.365.543-.742,3.436-2.6,3.979-3.338-2.13,1.65-5.18,3.86-8.04,4.056a1.739,1.739,0,0,1-.987-.136,1.328,1.328,0,0,1-.52-1.069,28.628,28.628,0,0,1,.089-6.223,6.886,6.886,0,0,1,2.4-4.482c1.809-1.449,4.429-1.845,6.9-1.948a15.694,15.694,0,0,1,6.124.713c1.91.715,3.557,2.166,3.866,3.94" transform="translate(-490.84 -181.471)" fill="#e8505b"/>
              </g>
              <g id="Grupo_64131" data-name="Grupo 64131" transform="translate(17.203 1.642)">
                <path id="Trazado_112267" data-name="Trazado 112267" d="M537.588,204.7a38.906,38.906,0,0,0,.6-4.6c.14-3.546,1.2-16.342-10.992-15.075l.69,3.441s-2.273,7.966,2.962,13.34c0,0-1.491,11.225,2.151,14.852,0,0,3.909-8.132,4.585-11.958" transform="translate(-527.2 -184.941)" fill="#e8505b"/>
              </g>
              <g id="Grupo_64132" data-name="Grupo 64132" transform="translate(20.472 17.826)">
                <path id="Trazado_112268" data-name="Trazado 112268" d="M534.337,219.24a4.1,4.1,0,0,1,2.211.128,2.858,2.858,0,0,1,1.627,1.458,2.986,2.986,0,0,1,.032,2.194,5.059,5.059,0,0,1-1.239,1.853,3.427,3.427,0,0,1-1.328.893,1.635,1.635,0,0,1-1.53-.228" transform="translate(-534.109 -219.147)" fill="#ffbe9d"/>
              </g>
              <g id="Grupo_64134" data-name="Grupo 64134" transform="translate(21.099 18.848)">
                <g id="Grupo_64133" data-name="Grupo 64133">
                  <path id="Trazado_112269" data-name="Trazado 112269" d="M535.468,224.825c-.084.028.238.47.908.285a1.444,1.444,0,0,0,.825-.729,3.267,3.267,0,0,0,.358-1.22,1.921,1.921,0,0,0-.318-1.291,1.276,1.276,0,0,0-.968-.563c-.69-.011-.9.468-.823.482.055.056.322-.193.775-.087a1.238,1.238,0,0,1,.774,1.413c-.078.756-.363,1.449-.765,1.624C535.816,224.955,535.514,224.764,535.468,224.825Z" transform="translate(-535.434 -221.307)" fill="#eb996e"/>
                </g>
              </g>
            </g>
          </g>
        </g>
        <g id="Grupo_64138" data-name="Grupo 64138" transform="translate(16.919 63.781)">
          <path id="Trazado_112270" data-name="Trazado 112270" d="M483.614,328.725c-.068,0-.123-2.787-.123-6.225s.055-6.225.123-6.225.123,2.786.123,6.225S483.682,328.725,483.614,328.725Z" transform="translate(-483.491 -316.276)" fill="#263238"/>
        </g>
        <g id="Grupo_64140" data-name="Grupo 64140" transform="translate(28.088 48.991)">
          <g id="Grupo_64139" data-name="Grupo 64139" transform="translate(0 14.451)">
            <path id="Trazado_112271" data-name="Trazado 112271" d="M513.817,315.642s-6.136.068-6.524,1.426c-.643,2.255.506,14.616.506,14.616l5.653,1.877s2.726-.629,1.468-5.872a38.338,38.338,0,0,0-3.737-9.438s7.512.21,7.3-1.468S513.817,315.642,513.817,315.642Z" transform="translate(-507.098 -315.56)" fill="#ffbe9d"/>
            <path id="Trazado_112272" data-name="Trazado 112272" d="M516.138,323.2c.338-.064,7.848-.686,7.376.514s-7.376,1.5-7.376,1.5Z" transform="translate(-511.861 -319.47)" fill="#ffbe9d"/>
          </g>
          <path id="Trazado_112273" data-name="Trazado 112273" d="M537.9,285.017l-.927,23.451-3.426,9L512.5,317.9l-.85-29.046Z" transform="translate(-509.495 -285.017)" fill="#47286d"/>
        </g>
        <g id="Grupo_64141" data-name="Grupo 64141" transform="translate(2.576 71.788)">
          <path id="Trazado_112274" data-name="Trazado 112274" d="M478.4,333.2a1.3,1.3,0,0,1-.258.133l-.757.338-2.8,1.2-9.284,3.873-5.123,2.1a29.661,29.661,0,0,0-4.091,1.881,7.953,7.953,0,0,0-2.289,1.947c-.432.569-.589.941-.615.927a1.261,1.261,0,0,1,.112-.268,4.524,4.524,0,0,1,.426-.716,7.659,7.659,0,0,1,2.275-2.038,28.022,28.022,0,0,1,4.1-1.942l5.116-2.123,9.312-3.806,2.833-1.128.775-.3A1.263,1.263,0,0,1,478.4,333.2Z" transform="translate(-453.177 -333.198)" fill="#263238"/>
        </g>
        <g id="Grupo_64142" data-name="Grupo 64142" transform="translate(20.711 80.977)">
          <path id="Trazado_112275" data-name="Trazado 112275" d="M505.549,352.621a4.128,4.128,0,0,1-.46.564c-.309.352-.769.85-1.36,1.442-1.176,1.193-2.88,2.76-4.838,4.4s-3.8,3.044-5.15,4.029c-.675.494-1.23.882-1.617,1.145a4.132,4.132,0,0,1-.617.386,4.159,4.159,0,0,1,.561-.464l1.569-1.206c1.325-1.019,3.14-2.444,5.1-4.078s3.671-3.177,4.874-4.335c.606-.574,1.083-1.053,1.413-1.383A4.1,4.1,0,0,1,505.549,352.621Z" transform="translate(-491.506 -352.621)" fill="#263238"/>
        </g>
        <g id="Grupo_64143" data-name="Grupo 64143" transform="translate(52.847 80.022)">
          <path id="Trazado_112276" data-name="Trazado 112276" d="M573.032,366.566c-.052.044-3.139-3.494-6.9-7.9s-6.761-8.017-6.709-8.062,3.139,3.493,6.9,7.9S573.084,366.522,573.032,366.566Z" transform="translate(-559.427 -350.602)" fill="#263238"/>
        </g>
        <g id="Grupo_64144" data-name="Grupo 64144" transform="translate(56.48 69.742)">
          <path id="Trazado_112277" data-name="Trazado 112277" d="M583.026,338.079a4.062,4.062,0,0,1-.684-.243c-.435-.17-1.057-.434-1.819-.776-1.524-.683-3.6-1.706-5.8-2.981s-4.128-2.563-5.48-3.543c-.677-.49-1.215-.9-1.58-1.189a4.143,4.143,0,0,1-.552-.471,4.11,4.11,0,0,1,.609.394l1.623,1.124c1.375.941,3.3,2.2,5.5,3.472s4.253,2.315,5.754,3.037l1.784.846A4.1,4.1,0,0,1,583.026,338.079Z" transform="translate(-567.106 -328.875)" fill="#263238"/>
        </g>
        <g id="Grupo_64145" data-name="Grupo 64145" transform="translate(60.092 62.588)">
          <path id="Trazado_112278" data-name="Trazado 112278" d="M576.156,324.968c-.068.009-.437-2.495-.825-5.591s-.648-5.614-.581-5.622.437,2.494.825,5.591S576.224,324.959,576.156,324.968Z" transform="translate(-574.74 -313.755)" fill="#263238"/>
        </g>
        <g id="Grupo_64146" data-name="Grupo 64146" transform="translate(40.495 22.321)">
          <path id="Trazado_112279" data-name="Trazado 112279" d="M536.531,228.648a1.448,1.448,0,0,1-.194.3l-.6.806-2.179,2.827-.018-.152,3.553,2.791.322.255-.173.02,3.074-3.852.017.142-2.315-1.886-.634-.537c-.144-.126-.217-.2-.211-.206a1.088,1.088,0,0,1,.249.158l.669.493,2.368,1.818.08.062-.063.081-3.041,3.879-.076.1-.1-.077-.322-.254-3.534-2.815-.086-.069.068-.083,2.249-2.772.646-.768A1.47,1.47,0,0,1,536.531,228.648Z" transform="translate(-533.321 -228.647)" fill="#263238"/>
        </g>
        <g id="Grupo_64148" data-name="Grupo 64148" transform="translate(36.547 61.94)">
          <g id="Grupo_64147" data-name="Grupo 64147">
            <path id="Trazado_112280" data-name="Trazado 112280" d="M541.163,330.116A83.437,83.437,0,0,1,531,329.027c-3.981-.636-3.938-1-3.8-1.453.381-1.223,7.04.852,5.846-.429s-8.415-1.585-7.965-2.845c.587-1.642,7.522.659,8.122.81.583.147.817-.717.268-.824-.788-.154-9.033-1.979-8.472-3.6.311-.9,1.864-.145,1.864-.145s7.6,2.28,7.842,1.506-4.18-2.275-5.7-2.672c-1.506-.392-1.95-1.272-1.241-1.8.484-.36,5.178.743,6.676,1.171s5.591,1.673,4.03-.591c-.025-.036-.043-.071-.067-.107-1.6-2.188-2.1-4.4-1.815-5.143a.936.936,0,0,1,1.684.005.952.952,0,0,1,.154.362c.011.058.04.133.057.2a13.507,13.507,0,0,0,1.38,2.408,7.309,7.309,0,0,0,1.724,1.782c.777.565,2.738,2.638,3.329,3.006" transform="translate(-524.977 -312.384)" fill="#ffbe9d"/>
          </g>
        </g>
      </g>
    </g>
    <g id="Character_2" data-name="Character 2" transform="translate(96.789 124.039)">
      <g id="Grupo_64190" data-name="Grupo 64190">
        <g id="Grupo_64175" data-name="Grupo 64175" transform="translate(34.816)">
          <g id="Grupo_64162" data-name="Grupo 64162" transform="translate(5.846 4.114)">
            <g id="Grupo_64161" data-name="Grupo 64161">
              <g id="Grupo_64156" data-name="Grupo 64156">
                <g id="Grupo_64155" data-name="Grupo 64155">
                  <g id="Grupo_64150" data-name="Grupo 64150">
                    <path id="Trazado_112281" data-name="Trazado 112281" d="M243.84,238.246h0a8.3,8.3,0,0,1-8.15-8.05c-.111-3.688-.2-7.239-.2-7.239s-6.77-.629-7.266-7.328-.284-22.167-.284-22.167h0a23.348,23.348,0,0,1,23.6,1.5l1.04.7-.288,34.35A8.3,8.3,0,0,1,243.84,238.246Z" transform="translate(-227.899 -190.956)" fill="#b78876"/>
                  </g>
                  <g id="Grupo_64152" data-name="Grupo 64152" transform="translate(4.985 12.482)">
                    <g id="Grupo_64151" data-name="Grupo 64151">
                      <path id="Trazado_112282" data-name="Trazado 112282" d="M240.876,225.4a4.485,4.485,0,0,0-1.513-.224c-.243-.011-.436-.054-.462-.183a1.322,1.322,0,0,1,.131-.7l.614-1.921a25.726,25.726,0,0,0,1.277-5.03,25.757,25.757,0,0,0-1.779,4.875l-.575,1.934a1.545,1.545,0,0,0-.07,1.012.634.634,0,0,0,.44.36,1.541,1.541,0,0,0,.415.028A4.486,4.486,0,0,0,240.876,225.4Z" transform="translate(-238.434 -217.338)" fill="#263238"/>
                    </g>
                  </g>
                  <g id="Grupo_64153" data-name="Grupo 64153" transform="translate(6.043 21.379)">
                    <path id="Trazado_112283" data-name="Trazado 112283" d="M245.117,236.142a22.591,22.591,0,0,1-4.447,1.595,2.556,2.556,0,0,0,3.074.83C245.705,237.709,245.117,236.142,245.117,236.142Z" transform="translate(-240.67 -236.142)" fill="#fff"/>
                  </g>
                  <g id="Grupo_64154" data-name="Grupo 64154" transform="translate(7.579 28.882)">
                    <path id="Trazado_112284" data-name="Trazado 112284" d="M243.917,255.022A15.622,15.622,0,0,0,252.5,252s-1.769,4.953-8.5,4.762Z" transform="translate(-243.917 -251.999)" fill="#a36957"/>
                  </g>
                </g>
              </g>
              <g id="Grupo_64160" data-name="Grupo 64160" transform="translate(24.278 11.976)">
                <g id="Grupo_64157" data-name="Grupo 64157">
                  <path id="Trazado_112285" data-name="Trazado 112285" d="M279.244,217.284a1.012,1.012,0,0,1,.968-1.015c1.251-.035,3.3.462,3.49,3.915.274,4.932-4.47,3.7-4.486,3.561C279.2,223.634,279.231,219.2,279.244,217.284Z" transform="translate(-279.212 -216.268)" fill="#b78876"/>
                </g>
                <g id="Grupo_64159" data-name="Grupo 64159" transform="translate(1.086 1.584)">
                  <g id="Grupo_64158" data-name="Grupo 64158">
                    <path id="Trazado_112286" data-name="Trazado 112286" d="M281.511,223.57c.021-.017.089.055.238.114a.863.863,0,0,0,.643-.023,2.13,2.13,0,0,0,.877-1.962,2.836,2.836,0,0,0-.309-1.217.994.994,0,0,0-.683-.624.438.438,0,0,0-.494.264c-.059.142-.022.238-.047.248s-.111-.077-.082-.283a.549.549,0,0,1,.177-.319.649.649,0,0,1,.468-.152,1.21,1.21,0,0,1,.94.715,2.928,2.928,0,0,1,.374,1.358,2.235,2.235,0,0,1-1.135,2.2.922.922,0,0,1-.793-.087C281.526,223.689,281.494,223.58,281.511,223.57Z" transform="translate(-281.507 -219.615)" fill="#a36957"/>
                  </g>
                </g>
              </g>
            </g>
          </g>
          <g id="Grupo_64166" data-name="Grupo 64166" transform="translate(6.427 15.978)">
            <g id="Grupo_64163" data-name="Grupo 64163" transform="translate(1.562 1.113)">
              <path id="Trazado_112287" data-name="Trazado 112287" d="M232.428,219.269a.911.911,0,0,0,.941.854.871.871,0,0,0,.878-.885.911.911,0,0,0-.94-.855A.872.872,0,0,0,232.428,219.269Z" transform="translate(-232.428 -218.383)" fill="#263238"/>
            </g>
            <g id="Grupo_64165" data-name="Grupo 64165">
              <g id="Grupo_64164" data-name="Grupo 64164">
                <path id="Trazado_112288" data-name="Trazado 112288" d="M229.144,217.118c.121.111.773-.448,1.751-.514s1.728.371,1.826.244c.048-.057-.082-.262-.41-.467a2.5,2.5,0,0,0-1.472-.342,2.4,2.4,0,0,0-1.383.557C229.172,216.847,229.085,217.069,229.144,217.118Z" transform="translate(-229.127 -216.031)" fill="#263238"/>
              </g>
            </g>
          </g>
          <g id="Grupo_64170" data-name="Grupo 64170" transform="translate(16.348 15.978)">
            <g id="Grupo_64167" data-name="Grupo 64167" transform="translate(1.356 0.944)">
              <path id="Trazado_112289" data-name="Trazado 112289" d="M252.96,218.913a.911.911,0,0,0,.941.854.87.87,0,0,0,.878-.885.911.911,0,0,0-.94-.855A.872.872,0,0,0,252.96,218.913Z" transform="translate(-252.96 -218.027)" fill="#263238"/>
            </g>
            <g id="Grupo_64169" data-name="Grupo 64169">
              <g id="Grupo_64168" data-name="Grupo 64168">
                <path id="Trazado_112290" data-name="Trazado 112290" d="M250.112,217.118c.121.111.774-.448,1.751-.514s1.728.371,1.826.244c.048-.057-.08-.262-.41-.467a2.5,2.5,0,0,0-1.472-.342,2.4,2.4,0,0,0-1.383.557C250.14,216.847,250.053,217.069,250.112,217.118Z" transform="translate(-250.094 -216.031)" fill="#263238"/>
              </g>
            </g>
          </g>
          <g id="Grupo_64171" data-name="Grupo 64171" transform="translate(2.154)">
            <path id="Trazado_112291" data-name="Trazado 112291" d="M220.094,182.261" transform="translate(-220.094 -182.261)" fill="none" stroke="#4e585d" stroke-miterlimit="10" stroke-width="0.05"/>
          </g>
          <path id="Trazado_112292" data-name="Trazado 112292" d="M263.278,189.37a5.871,5.871,0,0,0,1.116,6.293,23.182,23.182,0,0,1,2.063,1.964c1.185,1.575.992,3.741,1.177,5.7a3.8,3.8,0,0,0,.968,2.492,1.607,1.607,0,0,0,2.383-.122,2.37,2.37,0,0,0,.246-.787q.616-3.278,1.233-6.556a14.073,14.073,0,0,0,.333-4.964,7.009,7.009,0,0,0-8.756-5.567" transform="translate(-240.447 -185.066)" fill="#263238"/>
          <path id="Trazado_112293" data-name="Trazado 112293" d="M239.4,185.314a20.113,20.113,0,0,1-5.162-1.888,7.569,7.569,0,0,0-5.127-.582c-1.145.324-2.229,1.012-3.41,1s-2.221-.708-3.341-1.062a5.957,5.957,0,0,0-4.631.474,3.96,3.96,0,0,0-2.184,3.012c-.093,1.323,1.088,2.694,2.272,2.318a2.583,2.583,0,0,0-1.122,3.471,3.178,3.178,0,0,0,3.335,1.568,6.034,6.034,0,0,0,3.34-2.036,2.746,2.746,0,0,0,2.879,2.468,6.974,6.974,0,0,0,3.744-1.711,10.089,10.089,0,0,1,3.621-2.069,28.4,28.4,0,0,1,2.856-.21,3,3,0,0,0,2.422-1.433c.459-.907,2.28-1.946,1.326-1.972" transform="translate(-215.542 -182.395)" fill="#263238"/>
          <g id="Grupo_64172" data-name="Grupo 64172" transform="translate(10.388 5.316)">
            <path id="Trazado_112294" data-name="Trazado 112294" d="M237.5,198.361a5.438,5.438,0,0,0,.505.27,2.42,2.42,0,0,0,1.518,0,4.06,4.06,0,0,0,.978-.43c.331-.2.666-.452,1.025-.713a8.464,8.464,0,0,1,1.188-.758,3.415,3.415,0,0,1,1.486-.373c1.054-.019,2.007.265,2.869.187A2.6,2.6,0,0,0,249,195.491a2.853,2.853,0,0,0,.574-1.418c.038-.367,0-.574.025-.577.008,0,.022.049.042.147a1.886,1.886,0,0,1,.029.437,2.787,2.787,0,0,1-.53,1.515,2.818,2.818,0,0,1-.818.774,2.755,2.755,0,0,1-1.234.4c-.917.092-1.885-.189-2.881-.167a4.467,4.467,0,0,0-2.549,1.07c-.362.255-.7.5-1.055.7a4.093,4.093,0,0,1-1.036.423,2.406,2.406,0,0,1-1.6-.075,1.448,1.448,0,0,1-.368-.243C237.527,198.406,237.493,198.367,237.5,198.361Z" transform="translate(-237.498 -193.496)" fill="#263238"/>
          </g>
          <g id="Grupo_64173" data-name="Grupo 64173" transform="translate(22.976 0.58)">
            <path id="Trazado_112295" data-name="Trazado 112295" d="M264.3,183.487a5.022,5.022,0,0,0,.754,3.022,2.7,2.7,0,0,1-.754-3.022Z" transform="translate(-264.104 -183.486)" fill="#263238"/>
          </g>
          <g id="Grupo_64174" data-name="Grupo 64174" transform="translate(23.995 0.473)">
            <path id="Trazado_112296" data-name="Trazado 112296" d="M267.954,183.265c.052.054-.558.632-1.015,1.536s-.58,1.732-.654,1.722a3.957,3.957,0,0,1,1.669-3.258Z" transform="translate(-266.258 -183.261)" fill="#263238"/>
          </g>
        </g>
        <path id="Trazado_112297" data-name="Trazado 112297" d="M322.44,331.545l10.3,26.5H316.974l-7.347-18.866Z" transform="translate(-230.296 -260.914)" fill="#b78876"/>
        <path id="Trazado_112298" data-name="Trazado 112298" d="M178.272,246.1s-13.572,13.982-19.451,13.982c-1.92,0-3.426-23.287-3.449-30h0a8.666,8.666,0,0,1,1.321-2.411,11.223,11.223,0,0,1,1.706-1.884,11.742,11.742,0,0,1,2.663-1.719c.918-.323.994-1.579.159-1.829s-3.385.578-5.667,2.742-1.6-2.678-1.381-4.446.632-7.264.141-7.748c-.721-.708-1.637-.051-1.813,1.719-.178,1.792-1.077,7.051-2.007,6.915s.312-9.123.312-9.123.574-1.887-.494-2.079c-1.928-.347-2.528,9.288-2.563,10.205-.024.638-1.041.528-.978-.157.064-.7,1.434-8.945-.524-9.316-1.5-.285-.569,7.923-1.8,9.5s-.071-6.313-1.52-6.526c-.538-.079-.954-.063-.968,4.546-.008,2.477.944,6.22.578,10.991h0c.627,14.079-.065,53.622,15.6,48.934a78.983,78.983,0,0,0,29-16.441Z" transform="translate(-141.957 -196.988)" fill="#b78876"/>
        <g id="Grupo_64176" data-name="Grupo 64176" transform="translate(74.338 61.646)">
          <path id="Trazado_112299" data-name="Trazado 112299" d="M299.08,312.553a2.552,2.552,0,0,1,.154.556c.084.361.192.887.314,1.539.245,1.3.531,3.115.754,5.127s.338,3.843.384,5.169c.023.663.033,1.2.029,1.57a2.592,2.592,0,0,1-.029.577,2.59,2.59,0,0,1-.067-.573l-.107-1.565c-.09-1.32-.233-3.143-.454-5.151s-.481-3.816-.681-5.125l-.237-1.55A2.634,2.634,0,0,1,299.08,312.553Z" transform="translate(-299.075 -312.553)" fill="#263238"/>
        </g>
        <g id="Grupo_64189" data-name="Grupo 64189" transform="translate(19.087 39.281)">
          <g id="Grupo_64182" data-name="Grupo 64182" transform="translate(0 2.839)">
            <g id="Grupo_64181" data-name="Grupo 64181">
              <g id="Grupo_64180" data-name="Grupo 64180">
                <g id="Grupo_64179" data-name="Grupo 64179">
                  <g id="Grupo_64178" data-name="Grupo 64178">
                    <g id="Grupo_64177" data-name="Grupo 64177">
                      <path id="Trazado_112300" data-name="Trazado 112300" d="M197.226,326.3l43.4.221-1.462-9.162a70.675,70.675,0,0,0-.064-13.065l2.2,5.959,17.937-8.968s-6.521-17.388-11.978-23.276c-6.9-7.441-19.3-6.7-19.3-6.7l-8.385,5.7-7.717-5.435a37.5,37.5,0,0,0-11.924,3.468l-.4.115,0,.083c-4.552,2.379-11.043,8.173-17.23,13.8l7.14,6.951,7.908,7.366a6.585,6.585,0,0,1,1.351-.058C198.833,304.067,197.226,326.3,197.226,326.3Z" transform="translate(-182.299 -271.284)" fill="#31d9e7"/>
                    </g>
                  </g>
                </g>
              </g>
            </g>
            <path id="Trazado_112301" data-name="Trazado 112301" d="M299.331,306.685l5.9,21.032-2.368,1.184-2.2-5.959S298.527,310.474,299.331,306.685Z" transform="translate(-243.864 -289.936)" opacity="0.2"/>
          </g>
          <path id="Trazado_112302" data-name="Trazado 112302" d="M243.738,268.3v-2.272s6.777-.525,8.149,7.48c0,0,2.208-7.48,8.783-8.229l.937,3.5s-3.115,9.74-3.567,9.824-6.154,1.748-6.154,1.748l-3.3-.749-3.669-4.176Z" transform="translate(-214.669 -265.283)" fill="#455a64"/>
          <g id="Grupo_64183" data-name="Grupo 64183" transform="translate(38.725 3.228)">
            <path id="Trazado_112303" data-name="Trazado 112303" d="M272.517,272.106a2.382,2.382,0,0,1-.374.4c-.247.247-.608.6-1.033,1.056a24.14,24.14,0,0,0-2.938,3.865c-.208.338-.4.677-.58,1l-.109.2-.105-.2-1.928-3.61a1.6,1.6,0,0,0-.433-.493.967.967,0,0,0-.456-.166,1.024,1.024,0,0,0-.414.073c-.01,0,.109-.152.416-.16a1.006,1.006,0,0,1,.52.148,1.656,1.656,0,0,1,.5.512c.535.892,1.217,2.148,2.007,3.58h-.213c.18-.331.373-.674.583-1.016a20.884,20.884,0,0,1,3.023-3.857c.445-.444.826-.78,1.094-1.006A2.294,2.294,0,0,1,272.517,272.106Z" transform="translate(-264.148 -272.105)" fill="#263238"/>
          </g>
          <g id="Grupo_64184" data-name="Grupo 64184" transform="translate(28.629 3.632)">
            <path id="Trazado_112304" data-name="Trazado 112304" d="M242.81,272.959a1.747,1.747,0,0,1,.323.341c.2.23.472.567.809.987.675.839,1.593,2.01,2.6,3.311l.16.209-.205.016a8.486,8.486,0,0,0,.558-2.11,2.5,2.5,0,0,1,.936-1.578,1.382,1.382,0,0,1,1.221-.157.888.888,0,0,1,.286.184c.051.059.074.091.068.1a2.078,2.078,0,0,0-.385-.193,1.326,1.326,0,0,0-1.1.21,2.384,2.384,0,0,0-.813,1.487,8.05,8.05,0,0,1-.56,2.178l-.089.167-.117-.152-.16-.208c-1-1.3-1.9-2.489-2.538-3.356-.319-.433-.575-.787-.747-1.034A1.721,1.721,0,0,1,242.81,272.959Z" transform="translate(-242.809 -272.959)" fill="#263238"/>
          </g>
          <g id="Grupo_64185" data-name="Grupo 64185" transform="translate(33.443 8.276)">
            <path id="Trazado_112305" data-name="Trazado 112305" d="M252.988,332.351a.49.49,0,0,1,0-.129c0-.1.009-.223.015-.377.019-.349.045-.832.079-1.445.08-1.275.2-3.085.336-5.315.309-4.5.734-10.692,1.2-17.529.5-6.837.948-13.026,1.276-17.528.174-2.228.315-4.036.414-5.31.053-.612.1-1.094.125-1.443.016-.153.028-.276.039-.375a.494.494,0,0,1,.022-.127.507.507,0,0,1,0,.129l-.014.377c-.019.349-.045.833-.079,1.446-.081,1.274-.2,3.085-.337,5.314-.309,4.5-.734,10.692-1.2,17.531-.5,6.835-.948,13.023-1.276,17.524-.174,2.228-.316,4.037-.415,5.31-.053.612-.1,1.094-.125,1.443-.016.153-.028.276-.039.375A.512.512,0,0,1,252.988,332.351Z" transform="translate(-252.983 -282.775)" fill="#263238"/>
          </g>
          <g id="Grupo_64186" data-name="Grupo 64186" transform="translate(16.393 15.762)">
            <path id="Trazado_112306" data-name="Trazado 112306" d="M218.425,298.6a4.484,4.484,0,0,1-.042.752c-.042.526-.1,1.214-.163,2.043-.13,1.726-.261,4.113-.409,6.752s-.307,5.029-.481,6.754c-.083.863-.171,1.559-.241,2.039a4.381,4.381,0,0,1-.137.741,4.484,4.484,0,0,1,.042-.752c.042-.526.1-1.213.163-2.043.13-1.725.261-4.113.409-6.753s.307-5.028.481-6.753c.083-.863.17-1.559.241-2.039A4.38,4.38,0,0,1,218.425,298.6Z" transform="translate(-216.946 -298.597)" fill="#263238"/>
          </g>
          <g id="Grupo_64187" data-name="Grupo 64187" transform="translate(32.765 5.287)">
            <path id="Trazado_112307" data-name="Trazado 112307" d="M257.7,280.264s-2.326,3.039-1.986,3.5,1.986,2.65,1.986,2.65h1.413s1.326-3.718.985-4.191A20.886,20.886,0,0,0,257.7,280.264Z" transform="translate(-253.723 -278.463)" fill="#e8505b"/>
            <path id="Trazado_112308" data-name="Trazado 112308" d="M264.636,278.527l-2.568,2.01.985,1.885,2.642-1.948Z" transform="translate(-257.092 -277.548)" fill="#e8505b"/>
            <path id="Trazado_112309" data-name="Trazado 112309" d="M251.55,278.7l2.342,1.956,1.3-1.956-2.958-2.247Z" transform="translate(-251.55 -276.458)" fill="#e8505b"/>
            <path id="Trazado_112310" data-name="Trazado 112310" d="M255.965,292.831l-3.574,32.008,3.517,11.132,4.689-11.03-3.086-32.491Z" transform="translate(-251.993 -284.883)" fill="#e8505b"/>
          </g>
          <g id="Grupo_64188" data-name="Grupo 64188" transform="translate(54.694 6.633)">
            <path id="Trazado_112311" data-name="Trazado 112311" d="M304.935,279.952a3.245,3.245,0,0,0-.463-.317,2,2,0,0,0-1.47-.083,4.567,4.567,0,0,0-1.832,1.293,10.81,10.81,0,0,0-1.674,2.237,11.316,11.316,0,0,0-1.418,4.852c-.079,1.308.09,2.116.037,2.122a2.583,2.583,0,0,1-.123-.562,9.3,9.3,0,0,1-.088-1.568,10.792,10.792,0,0,1,1.378-4.965,10.456,10.456,0,0,1,1.728-2.276,4.586,4.586,0,0,1,1.944-1.3,2.031,2.031,0,0,1,1.565.166,1.345,1.345,0,0,1,.335.275C304.915,279.9,304.941,279.948,304.935,279.952Z" transform="translate(-297.899 -279.302)" fill="#263238"/>
          </g>
        </g>
      </g>
    </g>
    <g id="Character_1" data-name="Character 1" transform="translate(172.65 129.058)">
      <g id="Grupo_64229" data-name="Grupo 64229">
        <path id="Trazado_112312" data-name="Trazado 112312" d="M373.571,196.969a16.282,16.282,0,0,0-6.386,8.3,41.854,41.854,0,0,0-2.092,10.426,202.981,202.981,0,0,0-.98,28.117c11.467,1.451,23.021,2.905,34.553,2.12-2-13.168-3.266-26.32-1.664-39.542" transform="translate(-334.8 -195.028)" fill="#263238"/>
        <g id="Grupo_64204" data-name="Grupo 64204" transform="translate(0 39.179)">
          <g id="Grupo_64192" data-name="Grupo 64192" transform="translate(1.925 0.938)">
            <g id="Grupo_64191" data-name="Grupo 64191">
              <path id="Trazado_112313" data-name="Trazado 112313" d="M368.963,348.919l-8.347-16.884,3.187-12.347c.374,2.616.707,4.887.707,4.887l17.909-.947a1.137,1.137,0,0,0,1.065-1.294l-3.5-24.7s-1.119-11.458-11.966-15.716h0l-.048-.017c-.436-.17-.891-.325-1.359-.471-14.626-5.07-28.322-5.04-43.564.161,0,0-6.771,1.822-10.052,10.654s-6.633,21.818-6.633,21.818l15.206,5.37.1-2.567,3.361,12.849-7.37,18.717,25.714.635Z" transform="translate(-306.362 -277.657)" fill="#e8505b"/>
            </g>
          </g>
          <path id="Trazado_112314" data-name="Trazado 112314" d="M304.251,354.276l-1.706,8.065a12.612,12.612,0,0,0,10.707,14.845l37.427,3.842a14.872,14.872,0,0,0,16.487-13.481h0l-47.189-4.5.3-4.528Z" transform="translate(-302.294 -317.088)" fill="#e8505b"/>
          <path id="Trazado_112315" data-name="Trazado 112315" d="M405.1,362.506l2.907-.538s6.891-7.537,8.182-7.644c1.064-.088,6.925-.031,8.967-.009a.71.71,0,0,1,.7.711h0a.71.71,0,0,1-.683.71l-6.925.269-.033.557,6.935.092c.706.054,1.159,1.172-1.1,1.374l-5.8.206v.361l5.882.822c.3.042,1.079.194,1.086.493,0,0,.356.737-1.32.947-.575.072-5.681-.1-5.681-.1l.2.459,5.286,1.14a.751.751,0,0,1,.586.839h0a.751.751,0,0,1-.813.643l-5.648-.524-5.542,4.427h-7.412Z" transform="translate(-356.336 -317.088)" fill="#ffbe9d"/>
          <path id="Trazado_112316" data-name="Trazado 112316" d="M366.477,276.919s7.291,37.282,9.862,37.01,14.62-35.723,14.62-35.723S375.556,273.5,366.477,276.919Z" transform="translate(-336.11 -275.676)" fill="#fafafa"/>
          <g id="Grupo_64193" data-name="Grupo 64193" transform="translate(62.511 25.847)">
            <path id="Trazado_112317" data-name="Trazado 112317" d="M434.537,341.79c-.068,0-.123-2.571-.123-5.742s.055-5.742.123-5.742.124,2.571.124,5.742S434.605,341.79,434.537,341.79Z" transform="translate(-434.414 -330.306)" fill="#263238"/>
          </g>
          <g id="Grupo_64194" data-name="Grupo 64194" transform="translate(17.864 26.362)">
            <path id="Trazado_112318" data-name="Trazado 112318" d="M340.06,342.6a11.036,11.036,0,0,1,.153-1.653c.125-1.017.316-2.421.542-3.969s.443-2.949.613-3.96a11.048,11.048,0,0,1,.326-1.629,11.113,11.113,0,0,1-.153,1.654c-.126,1.018-.316,2.421-.542,3.968s-.443,2.946-.613,3.957A11.16,11.16,0,0,1,340.06,342.6Z" transform="translate(-340.051 -331.394)" fill="#263238"/>
          </g>
          <g id="Grupo_64195" data-name="Grupo 64195" transform="translate(38.894 38.389)">
            <path id="Trazado_112319" data-name="Trazado 112319" d="M384.54,390.77a1.794,1.794,0,0,1-.022-.345c0-.251-.01-.58-.017-.991-.007-.86,0-2.1.031-3.642.057-3.075.223-7.32.434-12.006s.4-8.929.506-12c.045-1.515.083-2.751.109-3.638.012-.41.022-.739.03-.989a1.809,1.809,0,0,1,.027-.345,1.852,1.852,0,0,1,.022.345c0,.251.009.58.017.99.007.86,0,2.1-.031,3.642-.057,3.075-.223,7.32-.434,12.008s-.4,8.928-.506,12c-.045,1.515-.083,2.751-.109,3.638l-.03.99A1.843,1.843,0,0,1,384.54,390.77Z" transform="translate(-384.498 -356.813)" fill="#263238"/>
          </g>
          <g id="Grupo_64196" data-name="Grupo 64196" transform="translate(39.906 2.456)">
            <path id="Trazado_112320" data-name="Trazado 112320" d="M401.52,280.867c.012,0,.025.161.08.463a6.756,6.756,0,0,0,.373,1.287,14.372,14.372,0,0,0,.944,1.9,25.929,25.929,0,0,1,1.341,2.5,6.019,6.019,0,0,1,.568,3.386,4.358,4.358,0,0,1-.76,1.784,11.916,11.916,0,0,1-1.336,1.543,23.734,23.734,0,0,0-2.837,3.257,7.737,7.737,0,0,0-1.464,4.283,5.3,5.3,0,0,0,.5,2.244,20,20,0,0,1,.918,2.122,3.178,3.178,0,0,1,.15,1.149,2.384,2.384,0,0,1-.358,1.087,5.918,5.918,0,0,1-1.574,1.478l-5.927,4.368-4.009,2.927-1.1.786-.289.2a.06.06,0,1,1-.015-.02l.274-.219,1.07-.823,3.962-2.991,5.9-4.41a5.748,5.748,0,0,0,1.51-1.42,2.137,2.137,0,0,0,.319-.98,2.944,2.944,0,0,0-.142-1.061,20.2,20.2,0,0,0-.912-2.094,5.535,5.535,0,0,1-.523-2.342,7.954,7.954,0,0,1,1.511-4.419,23.643,23.643,0,0,1,2.876-3.281,6.285,6.285,0,0,0,2.056-3.2,5.874,5.874,0,0,0-.527-3.282,27.022,27.022,0,0,0-1.3-2.5,13.667,13.667,0,0,1-.914-1.937,6.082,6.082,0,0,1-.332-1.313,3.185,3.185,0,0,1-.032-.351A.442.442,0,0,1,401.52,280.867Z" transform="translate(-386.639 -280.867)" fill="#263238"/>
          </g>
          <g id="Grupo_64197" data-name="Grupo 64197" transform="translate(25.696 1.256)">
            <path id="Trazado_112321" data-name="Trazado 112321" d="M371.109,314.947a.4.4,0,0,1-.115-.013l-.334-.062a11.335,11.335,0,0,1-1.262-.346,12.67,12.67,0,0,1-4.161-2.387,12.282,12.282,0,0,1-3.817-5.958,12.725,12.725,0,0,1-.494-4.193,14.3,14.3,0,0,1,.3-2.218,5.093,5.093,0,0,0,.062-2.212,1.8,1.8,0,0,0-.574-.893,3.019,3.019,0,0,0-.971-.487c-.352-.119-.717-.216-1.069-.362a3.09,3.09,0,0,1-.959-.621,3.768,3.768,0,0,1-.974-1.955,8,8,0,0,1-.115-2.079,28.886,28.886,0,0,1,3.54-11.333c.281-.493.507-.871.672-1.12l.186-.284c.044-.063.067-.094.071-.092a.444.444,0,0,1-.049.105l-.166.3c-.15.257-.363.643-.63,1.141a31.351,31.351,0,0,0-1.908,4.387,29.093,29.093,0,0,0-1.489,6.914,7.813,7.813,0,0,0,.119,2.017,3.54,3.54,0,0,0,.912,1.831,2.838,2.838,0,0,0,.883.568c.333.138.692.233,1.054.355a3.241,3.241,0,0,1,1.05.529,2.046,2.046,0,0,1,.654,1.015,5.278,5.278,0,0,1-.058,2.325,14.191,14.191,0,0,0-.3,2.185,12.56,12.56,0,0,0,.471,4.119,12.256,12.256,0,0,0,3.713,5.889,13,13,0,0,0,4.078,2.428c.531.191.953.313,1.241.388l.328.086A.417.417,0,0,1,371.109,314.947Z" transform="translate(-356.605 -278.331)" fill="#263238"/>
          </g>
          <path id="Trazado_112322" data-name="Trazado 112322" d="M393.966,370.653l-31.352-1.013.048,10.4,20.758,4.565,14.606,2.332a15.2,15.2,0,0,0,14.932-17.3l-.038.01Z" transform="translate(-334.074 -325.182)" fill="#e8505b"/>
          <g id="Grupo_64198" data-name="Grupo 64198" transform="translate(28.54 44.453)">
            <path id="Trazado_112323" data-name="Trazado 112323" d="M402.6,370.449a2.534,2.534,0,0,1-.406.028l-1.165.033-4.287.078c-3.62.053-8.621.114-14.146.061s-10.528-.254-14.141-.5c-1.806-.121-3.267-.237-4.275-.339l-1.16-.119a2.5,2.5,0,0,1-.4-.058,2.518,2.518,0,0,1,.407.008l1.163.073c1.01.072,2.471.162,4.278.26,3.613.2,8.61.372,14.133.426s10.522.019,14.141.011h4.287l1.166.013A2.519,2.519,0,0,1,402.6,370.449Z" transform="translate(-362.614 -369.63)" fill="#263238"/>
          </g>
          <path id="Trazado_112324" data-name="Trazado 112324" d="M338.937,362.506l-2.906-.538s-6.891-7.537-8.183-7.644c-1.063-.088-6.925-.031-8.966-.009a.71.71,0,0,0-.7.711h0a.711.711,0,0,0,.683.71l6.925.269.033.557-6.935.092c-.706.054-1.159,1.172,1.1,1.374l5.8.206v.361l-5.882.822c-.3.042-1.079.194-1.086.493,0,0-.356.737,1.32.947.575.072,5.681-.1,5.681-.1l-.2.459-5.286,1.14a.751.751,0,0,0-.585.839h0a.751.751,0,0,0,.813.643l5.648-.524,5.542,4.427h7.412Z" transform="translate(-310.664 -317.088)" fill="#ffbe9d"/>
          <g id="Grupo_64199" data-name="Grupo 64199" transform="translate(29.064 54.859)">
            <path id="Trazado_112325" data-name="Trazado 112325" d="M398.053,398.356a1.915,1.915,0,0,1-.356-.021l-1.015-.109c-.881-.1-2.153-.259-3.722-.477-3.139-.434-7.465-1.121-12.211-2.051s-9.012-1.929-12.083-2.713c-1.535-.391-2.774-.722-3.627-.964l-.981-.282a1.953,1.953,0,0,1-.337-.114,1.859,1.859,0,0,1,.35.067l.992.238,3.644.888c3.079.74,7.346,1.709,12.089,2.64s9.058,1.642,12.188,2.12l3.709.555,1.009.154A2.028,2.028,0,0,1,398.053,398.356Z" transform="translate(-363.722 -391.623)" fill="#263238"/>
          </g>
          <g id="Grupo_64200" data-name="Grupo 64200" transform="translate(28.203 44.67)">
            <path id="Trazado_112326" data-name="Trazado 112326" d="M362.567,380.327a8.017,8.017,0,0,1-.272-1.482c-.126-.922-.259-2.2-.332-3.619s-.073-2.705-.042-3.635a8.077,8.077,0,0,1,.117-1.5,10.4,10.4,0,0,1,.057,1.5c.014.928.041,2.208.114,3.621s.177,2.689.259,3.613A10.448,10.448,0,0,1,362.567,380.327Z" transform="translate(-361.902 -370.089)" fill="#263238"/>
          </g>
          <g id="Grupo_64201" data-name="Grupo 64201" transform="translate(31.359 44.812)">
            <path id="Trazado_112327" data-name="Trazado 112327" d="M369.51,380.892a1.373,1.373,0,0,1-.138-.4c-.074-.258-.165-.635-.263-1.105a26.9,26.9,0,0,1-.454-7.466c.04-.478.084-.864.127-1.129a1.38,1.38,0,0,1,.088-.409,13.229,13.229,0,0,1-.041,1.548c-.036.953-.049,2.271.038,3.724s.262,2.758.414,3.7A13.388,13.388,0,0,1,369.51,380.892Z" transform="translate(-368.572 -370.388)" fill="#263238"/>
          </g>
          <g id="Grupo_64202" data-name="Grupo 64202" transform="translate(29.074 46.178)">
            <path id="Trazado_112328" data-name="Trazado 112328" d="M364.07,373.433c.026.029-.155.159-.148.457a.563.563,0,0,0,.191.422.508.508,0,0,0,.776-.448.561.561,0,0,0-.269-.377c-.255-.155-.458-.064-.469-.1-.028-.016.191-.2.549-.054a.71.71,0,0,1,.414.492.719.719,0,0,1-1.146.66.712.712,0,0,1-.219-.6C363.8,373.5,364.071,373.4,364.07,373.433Z" transform="translate(-363.743 -373.276)" fill="#263238"/>
          </g>
          <g id="Grupo_64203" data-name="Grupo 64203" transform="translate(4.667 56.77)">
            <path id="Trazado_112329" data-name="Trazado 112329" d="M342.591,395.747a1.641,1.641,0,0,1-.323.01c-.211-.005-.521,0-.92,0a25.153,25.153,0,0,0-3.365.316,49.511,49.511,0,0,0-4.9,1.088c-1.828.482-3.829,1.068-5.97,1.534a25.537,25.537,0,0,1-6.138.666,15.351,15.351,0,0,1-4.951-.947,11.066,11.066,0,0,1-2.962-1.668,7.779,7.779,0,0,1-.688-.619,1.541,1.541,0,0,1-.218-.237c.02-.021.327.3.965.78a11.669,11.669,0,0,0,2.964,1.581,15.552,15.552,0,0,0,4.9.883,25.993,25.993,0,0,0,6.08-.679c2.13-.464,4.13-1.042,5.965-1.514a45.829,45.829,0,0,1,4.93-1.04,22.052,22.052,0,0,1,3.39-.24c.4.009.713.022.923.044A1.575,1.575,0,0,1,342.591,395.747Z" transform="translate(-312.157 -395.662)" fill="#263238"/>
          </g>
        </g>
        <g id="Grupo_64228" data-name="Grupo 64228" transform="translate(27.136)">
          <g id="Grupo_64227" data-name="Grupo 64227" transform="translate(5.392)">
            <g id="Grupo_64226" data-name="Grupo 64226">
              <g id="Grupo_64220" data-name="Grupo 64220" transform="translate(0.835 4.404)">
                <g id="Grupo_64205" data-name="Grupo 64205">
                  <path id="Trazado_112330" data-name="Trazado 112330" d="M388.336,242.585c.746-4.157,1.606-8.521,1.606-8.521s5.516.054,7.857-6.742c2.233-6.481,3.847-22.072,3.847-22.072h0a20.4,20.4,0,0,0-23.252,1.185h0L372.9,240.3a7.359,7.359,0,0,0,6.449,8.263h0A7.774,7.774,0,0,0,388.336,242.585Z" transform="translate(-372.808 -202.175)" fill="#ffbe9d"/>
                </g>
                <g id="Grupo_64209" data-name="Grupo 64209" transform="translate(22.831 12.715)">
                  <g id="Grupo_64206" data-name="Grupo 64206" transform="translate(0.091 1.058)">
                    <path id="Trazado_112331" data-name="Trazado 112331" d="M423.071,232.265a.91.91,0,0,1-1.024.752.871.871,0,0,1-.782-.971.911.911,0,0,1,1.023-.753A.872.872,0,0,1,423.071,232.265Z" transform="translate(-421.257 -231.285)" fill="#263238"/>
                  </g>
                  <g id="Grupo_64208" data-name="Grupo 64208">
                    <g id="Grupo_64207" data-name="Grupo 64207">
                      <path id="Trazado_112332" data-name="Trazado 112332" d="M424.6,230.338c-.132.1-.722-.525-1.688-.692s-1.758.19-1.841.054c-.042-.062.108-.253.456-.423a2.5,2.5,0,0,1,1.5-.188,2.4,2.4,0,0,1,1.318.7C424.6,230.066,424.663,230.3,424.6,230.338Z" transform="translate(-421.063 -229.049)" fill="#263238"/>
                    </g>
                  </g>
                </g>
                <g id="Grupo_64213" data-name="Grupo 64213" transform="translate(12.701 11.292)">
                  <g id="Grupo_64210" data-name="Grupo 64210" transform="translate(0.314 0.911)">
                    <path id="Trazado_112333" data-name="Trazado 112333" d="M402.13,228.948a.91.91,0,0,1-1.024.752.871.871,0,0,1-.782-.971.911.911,0,0,1,1.023-.753A.872.872,0,0,1,402.13,228.948Z" transform="translate(-400.317 -227.968)" fill="#263238"/>
                  </g>
                  <g id="Grupo_64212" data-name="Grupo 64212">
                    <g id="Grupo_64211" data-name="Grupo 64211">
                      <path id="Trazado_112334" data-name="Trazado 112334" d="M403.19,227.331c-.132.1-.723-.525-1.688-.693s-1.757.191-1.841.054c-.042-.061.107-.252.457-.423a2.5,2.5,0,0,1,1.5-.188,2.4,2.4,0,0,1,1.318.7C403.189,227.059,403.253,227.289,403.19,227.331Z" transform="translate(-399.653 -226.042)" fill="#263238"/>
                    </g>
                  </g>
                </g>
                <g id="Grupo_64215" data-name="Grupo 64215" transform="translate(18.479 12.237)">
                  <g id="Grupo_64214" data-name="Grupo 64214">
                    <path id="Trazado_112335" data-name="Trazado 112335" d="M411.865,236.155a6.511,6.511,0,0,1,1.617-.007c.251.018.493.01.564-.15a1.276,1.276,0,0,0-.035-.759l-.4-2a32.749,32.749,0,0,1-.772-5.2,32.792,32.792,0,0,1,1.189,5.121q.191,1.052.366,2.01a1.451,1.451,0,0,1-.043.989.628.628,0,0,1-.469.289,1.7,1.7,0,0,1-.429-.016A6.361,6.361,0,0,1,411.865,236.155Z" transform="translate(-411.865 -228.039)" fill="#263238"/>
                  </g>
                </g>
                <g id="Grupo_64216" data-name="Grupo 64216" transform="translate(8.211 27.742)">
                  <path id="Trazado_112336" data-name="Trazado 112336" d="M399.086,264.957a18.059,18.059,0,0,1-8.923-4.147s1.426,5.2,8.538,5.781Z" transform="translate(-390.163 -260.81)" fill="#eb996e"/>
                </g>
                <g id="Grupo_64217" data-name="Grupo 64217" transform="translate(14.662 21.683)">
                  <path id="Trazado_112337" data-name="Trazado 112337" d="M406.8,248.928a1.766,1.766,0,0,0-1.445-.92,1.612,1.612,0,0,0-1.2.4,1.021,1.021,0,0,0-.279,1.136,1.184,1.184,0,0,0,1.208.543,3.707,3.707,0,0,0,1.363-.519,1.083,1.083,0,0,0,.326-.237.327.327,0,0,0,.062-.36" transform="translate(-403.797 -248.004)" fill="#eb996e"/>
                </g>
                <g id="Grupo_64219" data-name="Grupo 64219" transform="translate(15.245 20.52)">
                  <g id="Grupo_64218" data-name="Grupo 64218">
                    <path id="Trazado_112338" data-name="Trazado 112338" d="M405.306,245.547c.159.018-.024,1.066.741,1.967s1.9.983,1.883,1.13c0,.068-.284.16-.758.089a2.645,2.645,0,0,1-1.582-.884,2.305,2.305,0,0,1-.555-1.638C405.073,245.767,405.236,245.528,405.306,245.547Z" transform="translate(-405.029 -245.546)" fill="#263238"/>
                  </g>
                </g>
              </g>
              <g id="Grupo_64221" data-name="Grupo 64221" transform="translate(11.14)">
                <path id="Trazado_112339" data-name="Trazado 112339" d="M394.6,196.534c1.867,4.121,7.922,9.135,12.6,10.914-.425-.85-3.053-3.242-3.478-4.092,1.886,2.051,4.613,4.833,7.5,5.528a1.8,1.8,0,0,0,1.03.033,1.375,1.375,0,0,0,.715-1,29.62,29.62,0,0,0,.987-6.36,7.122,7.122,0,0,0-1.669-4.984c-1.594-1.791-4.2-2.649-6.7-3.182a16.235,16.235,0,0,0-6.367-.333c-2.07.4-4,1.592-4.624,3.347" transform="translate(-394.588 -192.867)" fill="#263238"/>
              </g>
              <g id="Grupo_64222" data-name="Grupo 64222" transform="translate(0 0.373)">
                <path id="Trazado_112340" data-name="Trazado 112340" d="M371.046,212.471a40.14,40.14,0,0,1,.18-4.795c.471-3.639,1.606-16.87,13.818-13.465l-1.3,3.389s.938,8.515-5.33,13.088c0,0,.027,8.5-4.315,11.566,0,0-3.028-5.764-3.054-9.783" transform="translate(-371.044 -193.656)" fill="#263238"/>
              </g>
              <g id="Grupo_64223" data-name="Grupo 64223" transform="translate(2.98 16.515)">
                <path id="Trazado_112341" data-name="Trazado 112341" d="M381.993,228.085a4.232,4.232,0,0,0-2.276-.252,2.954,2.954,0,0,0-1.911,1.2,3.088,3.088,0,0,0-.413,2.231,5.221,5.221,0,0,0,.942,2.1,3.538,3.538,0,0,0,1.2,1.14,1.692,1.692,0,0,0,1.6.033" transform="translate(-377.342 -227.772)" fill="#ffbe9d"/>
              </g>
              <g id="Grupo_64225" data-name="Grupo 64225" transform="translate(4.566 17.55)">
                <g id="Grupo_64224" data-name="Grupo 64224">
                  <path id="Trazado_112342" data-name="Trazado 112342" d="M382.548,233.7c.081.043-.324.438-.975.133a1.494,1.494,0,0,1-.715-.887,3.387,3.387,0,0,1-.154-1.306,1.983,1.983,0,0,1,.548-1.26,1.32,1.32,0,0,1,1.084-.407c.706.108.838.634.756.634-.066.047-.295-.252-.775-.223a1.281,1.281,0,0,0-1.034,1.307,2.112,2.112,0,0,0,.5,1.788C382.17,233.769,382.513,233.628,382.548,233.7Z" transform="translate(-380.695 -229.961)" fill="#eb996e"/>
                </g>
              </g>
            </g>
          </g>
          <path id="Trazado_112343" data-name="Trazado 112343" d="M371.446,242.056c-1.9,11.314-.351,22.878-.013,34.345a6.632,6.632,0,0,1-.458,3.231,4.91,4.91,0,0,1-4.172,2.3,34.968,34.968,0,0,1-4.965-.421q-.268-1.65-.536-3.3l-1.656,3.8q1.1-12.07,2.4-24.119" transform="translate(-359.647 -218.783)" fill="#263238"/>
        </g>
      </g>
    </g>
  </g>
</svg>
