<svg xmlns="http://www.w3.org/2000/svg" width="196" height="196" viewBox="0 0 196 196">
  <g id="Grupo_68141" data-name="Grupo 68141" transform="translate(-696 -802.367)">
    <g id="Elipse_4775" data-name="Elipse 4775" transform="translate(696 802.367)" fill="#fff" stroke="#8a8a8a" stroke-width="3" stroke-dasharray="3 4">
      <circle cx="98" cy="98" r="98" stroke="none"/>
      <circle cx="98" cy="98" r="96.5" fill="none"/>
    </g>
    <g id="Grupo_68140" data-name="Grupo 68140">
      <ellipse id="Elipse_4776" data-name="Elipse 4776" cx="87.5" cy="87" rx="87.5" ry="87" transform="translate(707 813.367)" fill="#f17781" opacity="0.5"/>
      <g id="rinse" transform="translate(742 847)">
        <g id="Grupo_62946" data-name="Grupo 62946" transform="translate(2.677 2.677)">
          <g id="Grupo_62939" data-name="Grupo 62939" transform="translate(5.032 11.742)">
            <path id="Trazado_111255" data-name="Trazado 111255" d="M51.968,9V19.065H23.452a1.682,1.682,0,0,0-1.677,1.677v15.1H25.9a2.575,2.575,0,0,1,2.147,4.009L19.342,52.9a3.124,3.124,0,0,1-5.2,0L5.436,39.848a2.575,2.575,0,0,1,2.147-4.009H11.71V17.387A8.39,8.39,0,0,1,20.1,9Z" transform="translate(-5 -9)" fill="#f17781"/>
          </g>
          <g id="Grupo_62940" data-name="Grupo 62940" transform="translate(48.645 43.613)">
            <path id="Trazado_111256" data-name="Trazado 111256" d="M77.532,42.443a2.575,2.575,0,0,1-2.147,4.009H71.258V64.9a8.39,8.39,0,0,1-8.387,8.387H31V63.226H59.516a1.682,1.682,0,0,0,1.677-1.677v-15.1H57.067a2.575,2.575,0,0,1-2.147-4.009l8.706-13.05a3.124,3.124,0,0,1,5.2,0Z" transform="translate(-31 -28)" fill="#f17781"/>
          </g>
          <g id="Grupo_62941" data-name="Grupo 62941" transform="translate(45.29 62.065)">
            <path id="Trazado_111257" data-name="Trazado 111257" d="M39.065,39v3.355A3.365,3.365,0,0,1,35.71,45.71H32.355A3.365,3.365,0,0,1,29,42.355V39H39.065Z" transform="translate(-29 -39)" fill="#aab2bd"/>
          </g>
          <g id="Grupo_62942" data-name="Grupo 62942" transform="translate(36.906 31.868)">
            <path id="Trazado_111258" data-name="Trazado 111258" d="M42.451,49.87v1.325H32.386V49.937a4.967,4.967,0,0,0-2.181-4.21,13.416,13.416,0,1,1,14.459-.017A4.91,4.91,0,0,0,42.451,49.87Z" transform="translate(-24.002 -20.998)" fill="#f9e478"/>
          </g>
          <g id="Grupo_62943" data-name="Grupo 62943" transform="translate(0 67.097)">
            <path id="Trazado_111259" data-name="Trazado 111259" d="M35.548,55.419v6.71L31.3,63.538c-.1.252-.185.486-.3.721l2.013,4.009-4.747,4.747L24.259,71c-.235.117-.47.2-.721.3l-1.409,4.244h-6.71L14.01,71.3c-.252-.1-.486-.185-.721-.3L9.28,73.015,4.533,68.268l2.013-4.009c-.117-.235-.2-.47-.3-.721L2,62.129v-6.71L6.244,54.01c.1-.252.185-.486.3-.721L4.533,49.28,9.28,44.533l4.009,2.013c.235-.117.47-.2.721-.3L15.419,42h6.71l1.409,4.244c.252.1.486.185.721.3l4.009-2.013,4.747,4.747L31,53.289c.117.235.2.47.3.721ZM25.484,58.774a6.71,6.71,0,1,0-6.71,6.71A6.708,6.708,0,0,0,25.484,58.774Z" transform="translate(-2 -42)" fill="#31d9e7"/>
          </g>
          <g id="Grupo_62944" data-name="Grupo 62944" transform="translate(67.097 0)">
            <path id="Trazado_111260" data-name="Trazado 111260" d="M75.548,15.419v6.71L71.3,23.538c-.1.252-.185.486-.3.721l2.013,4.009-4.747,4.747L64.259,31c-.235.117-.47.2-.721.3l-1.409,4.244h-6.71L54.01,31.3c-.252-.1-.486-.185-.721-.3L49.28,33.015l-4.747-4.747,2.013-4.009c-.117-.235-.2-.47-.3-.721L42,22.129v-6.71l4.244-1.409c.1-.252.185-.486.3-.721L44.533,9.28,49.28,4.533l4.009,2.013c.235-.117.47-.2.721-.3L55.419,2h6.71l1.409,4.244c.252.1.486.185.721.3l4.009-2.013L73.015,9.28,71,13.289c.117.235.2.47.3.721ZM65.484,18.774a6.71,6.71,0,1,0-6.71,6.71A6.708,6.708,0,0,0,65.484,18.774Z" transform="translate(-42 -2)" fill="#31d9e7"/>
          </g>
          <g id="Grupo_62945" data-name="Grupo 62945" transform="translate(47.323 41.323)">
            <ellipse id="Elipse_4769" data-name="Elipse 4769" cx="3" cy="3.5" rx="3" ry="3.5" transform="translate(0 0)" fill="#fcd770"/>
          </g>
        </g>
        <g id="Grupo_62947" data-name="Grupo 62947" transform="translate(1 1)">
          <path id="Trazado_111261" data-name="Trazado 111261" d="M77.9,14.887l-4.12-1.372,1.942-3.883L69.271,3.177,65.388,5.12,64.016,1H54.889L53.517,5.12,49.634,3.177,43.179,9.632l1.942,3.883L41,14.887v9.127l4.12,1.372L43.177,29.27l6.455,6.455,3.883-1.942L54.887,37.9h9.127l1.372-4.12,3.883,1.942,6.455-6.455-1.942-3.883L77.9,24.016ZM74.548,21.6,70.7,22.88l-.282.743c-.082.216-.168.426-.258.634l-.325.726,1.813,3.627L68.61,31.645l-3.627-1.813-.726.325c-.208.092-.418.176-.634.258l-.743.282L61.6,34.548H57.3L56.021,30.7l-.743-.282c-.216-.082-.426-.168-.634-.258l-.726-.325-3.627,1.813L47.257,28.61l1.813-3.627-.325-.726c-.092-.208-.176-.418-.258-.634L48.2,22.88,44.355,21.6V17.3l3.851-1.283.282-.743c.082-.216.168-.426.258-.634l.325-.726-1.813-3.625,3.034-3.034,3.627,1.813.726-.325c.208-.092.418-.176.634-.258l.743-.282,1.283-3.851H61.6l1.283,3.851.743.282c.216.082.426.168.634.258l.726.325,3.627-1.813,3.034,3.034-1.813,3.627.325.726c.092.208.176.418.258.634l.282.743,3.85,1.283Z" transform="translate(26.097 -1)" fill="#47286d"/>
          <path id="Trazado_111262" data-name="Trazado 111262" d="M55.387,7a8.387,8.387,0,1,0,8.387,8.387A8.4,8.4,0,0,0,55.387,7Zm0,13.419a5.032,5.032,0,1,1,5.032-5.032A5.038,5.038,0,0,1,55.387,20.419Z" transform="translate(30.161 3.065)" fill="#47286d"/>
          <path id="Trazado_111263" data-name="Trazado 111263" d="M35.726,49.632l-6.455-6.455L25.388,45.12,24.016,41H14.887l-1.372,4.12L9.632,43.177,3.177,49.632,5.12,53.515,1,54.887v9.127l4.12,1.372L3.177,69.27l6.455,6.455,3.883-1.942L14.887,77.9h9.127l1.372-4.12,3.883,1.942,6.455-6.455-1.942-3.883L37.9,64.016V54.889l-4.12-1.372Zm-1.178,7.674V61.6L30.7,62.882l-.282.743c-.082.216-.168.426-.258.634l-.325.726,1.813,3.627L28.61,71.646l-3.627-1.813-.726.325c-.208.092-.418.176-.634.258l-.743.282L21.6,74.548H17.3L16.021,70.7l-.743-.282c-.216-.082-.426-.168-.634-.258l-.726-.325-3.625,1.813L7.258,68.61l1.813-3.627-.325-.726c-.092-.208-.176-.418-.258-.634l-.282-.743L4.355,61.6V57.3l3.851-1.283.282-.743c.082-.216.168-.426.258-.634l.325-.726L7.258,50.293l3.034-3.034,3.627,1.813.726-.325c.208-.092.418-.176.634-.258l.743-.282,1.283-3.851H21.6l1.283,3.851.743.282c.216.082.426.168.634.258l.726.325,3.627-1.813,3.034,3.034-1.813,3.627.325.726c.092.208.176.418.258.634l.282.743Z" transform="translate(-1 26.097)" fill="#47286d"/>
          <path id="Trazado_111264" data-name="Trazado 111264" d="M15.387,47a8.387,8.387,0,1,0,8.387,8.387A8.4,8.4,0,0,0,15.387,47Zm0,13.419a5.032,5.032,0,1,1,5.032-5.032A5.038,5.038,0,0,1,15.387,60.419Z" transform="translate(3.065 30.161)" fill="#47286d"/>
          <path id="Trazado_111265" data-name="Trazado 111265" d="M31.387,50.613v4.613a5.038,5.038,0,0,0,5.032,5.032h3.355a5.038,5.038,0,0,0,5.032-5.032V50.544a3.231,3.231,0,0,1,1.446-2.751,15.1,15.1,0,1,0-16.276.023A3.3,3.3,0,0,1,31.387,50.613Zm8.387,6.29H36.42a1.678,1.678,0,0,1-1.677-1.677V53.548h6.71v1.677A1.678,1.678,0,0,1,39.774,56.9ZM36.42,35.1A1.677,1.677,0,1,1,38.1,36.774,1.678,1.678,0,0,1,36.42,35.1Zm-9.964-1.553a11.783,11.783,0,0,1,10.266-10.11,12.166,12.166,0,0,1,1.391-.081,11.6,11.6,0,0,1,7.8,2.982,11.736,11.736,0,0,1-1.476,18.636,6.539,6.539,0,0,0-2.966,5.222h-1.7V39.82a5.032,5.032,0,1,0-3.355,0V50.193h-1.7a6.539,6.539,0,0,0-2.934-5.205,11.693,11.693,0,0,1-5.327-11.445Z" transform="translate(13.903 11.871)" fill="#47286d"/>
          <path id="Trazado_111266" data-name="Trazado 111266" d="M70.23,29.142a4.813,4.813,0,0,0-8.008,0l-8.7,13.052a4.255,4.255,0,0,0,3.539,6.612h2.457V62.226H31v3.355H59.516a3.358,3.358,0,0,0,3.355-3.355V45.452H57.059a.9.9,0,0,1-.746-1.4L65.015,31a1.511,1.511,0,0,1,2.424,0l8.7,13.052a.888.888,0,0,1,.151.5.9.9,0,0,1-.9.9H69.581V65.581a6.716,6.716,0,0,1-6.71,6.71H31v3.355H62.871A10.075,10.075,0,0,0,72.935,65.581V48.806h2.457A4.252,4.252,0,0,0,78.931,42.2Z" transform="translate(19.323 16.613)" fill="#47286d"/>
          <path id="Trazado_111267" data-name="Trazado 111267" d="M27,54h3.355v3.355H27Z" transform="translate(16.613 34.903)" fill="#47286d"/>
          <path id="Trazado_111268" data-name="Trazado 111268" d="M13.415,54.5a4.813,4.813,0,0,0,8.008,0l8.7-13.052a4.255,4.255,0,0,0-3.539-6.612H24.129V21.419H52.645V18.065H24.129a3.358,3.358,0,0,0-3.355,3.355V38.194h5.812a.9.9,0,0,1,.746,1.4l-8.7,13.052a1.511,1.511,0,0,1-2.424,0l-8.7-13.052a.888.888,0,0,1-.151-.5.9.9,0,0,1,.9-.9h5.812V18.065a6.716,6.716,0,0,1,6.71-6.71H52.645V8H20.774A10.075,10.075,0,0,0,10.71,18.065V34.839H8.252a4.252,4.252,0,0,0-3.538,6.611Z" transform="translate(1.032 3.742)" fill="#47286d"/>
          <path id="Trazado_111269" data-name="Trazado 111269" d="M35,8h3.355v3.355H35Z" transform="translate(22.032 3.742)" fill="#47286d"/>
        </g>
      </g>
    </g>
  </g>
</svg>
