<svg xmlns="http://www.w3.org/2000/svg" xmlns:xlink="http://www.w3.org/1999/xlink" width="239.992" height="237.999" viewBox="0 0 239.992 237.999">
  <defs>
    <linearGradient id="linear-gradient" x1="1.07" y1="1.115" x2="0.334" y2="0.32" gradientUnits="objectBoundingBox">
      <stop offset="0" stop-color="#b37cff"/>
      <stop offset="1" stop-color="#f895e7"/>
    </linearGradient>
    <linearGradient id="linear-gradient-2" x1="-30.353" y1="0.5" x2="-29.353" y2="0.5" gradientUnits="objectBoundingBox">
      <stop offset="0" stop-color="#53d8ff"/>
      <stop offset="1" stop-color="#3840f7"/>
    </linearGradient>
    <linearGradient id="linear-gradient-3" x1="-31.262" y1="0.5" x2="-30.262" y2="0.5" gradientUnits="objectBoundingBox">
      <stop offset="0" stop-color="#2b3582"/>
      <stop offset="1" stop-color="#150e42"/>
    </linearGradient>
    <linearGradient id="linear-gradient-4" x1="-109.651" y1="0.5" x2="-108.651" y2="0.5" gradientUnits="objectBoundingBox">
      <stop offset="0" stop-color="#f9b776"/>
      <stop offset="1" stop-color="#f47960"/>
    </linearGradient>
    <linearGradient id="linear-gradient-5" x1="-91.218" y1="0.5" x2="-90.218" y2="0.5" xlink:href="#linear-gradient-2"/>
    <linearGradient id="linear-gradient-6" x1="-61.818" y1="0.5" x2="-60.818" y2="0.5" xlink:href="#linear-gradient-3"/>
    <linearGradient id="linear-gradient-7" x1="-102.225" y1="0.5" x2="-101.225" y2="0.5" xlink:href="#linear-gradient-4"/>
    <linearGradient id="linear-gradient-8" x1="1.98" y1="-1.235" x2="0.116" y2="0.958" xlink:href="#linear-gradient-2"/>
    <linearGradient id="linear-gradient-9" x1="-69.573" y1="5.021" x2="-69.215" y2="4.213" xlink:href="#linear-gradient-2"/>
    <linearGradient id="linear-gradient-10" x1="-40.964" y1="-0.004" x2="-40.979" y2="1.888" xlink:href="#linear-gradient-4"/>
    <linearGradient id="linear-gradient-11" x1="-51.541" y1="7.588" x2="-53.06" y2="8.926" xlink:href="#linear-gradient-4"/>
    <linearGradient id="linear-gradient-12" x1="-1.261" y1="-1.522" x2="1.688" y2="1.713" xlink:href="#linear-gradient-3"/>
    <linearGradient id="linear-gradient-13" x1="-148.074" y1="23.569" x2="-144.783" y2="21.213" xlink:href="#linear-gradient-4"/>
    <linearGradient id="linear-gradient-14" x1="-74.406" y1="0.5" x2="-73.406" y2="0.5" xlink:href="#linear-gradient-4"/>
    <linearGradient id="linear-gradient-15" x1="-43.515" y1="-1.222" x2="-45.208" y2="3.818" xlink:href="#linear-gradient-4"/>
  </defs>
  <g id="Grupo_63508" data-name="Grupo 63508" transform="translate(-443.283 -455.001)">
    <path id="Trazado_111754" data-name="Trazado 111754" d="M728.4,615.476c-24.742,54.63-87.494,77-136.187,71.94-13.3-1.382-40.045-4.162-60.553-24.388-39.384-38.842-31.528-118.139,7.919-164.094,5.08-5.918,40.215-45.545,93.634-43.883,39.111,1.217,66.1,23.891,69.385,26.714a107.708,107.708,0,0,1,21.382,25.313C743.037,538.3,743.866,581.338,728.4,615.476Z" transform="translate(-57.175)" opacity="0.3" fill="url(#linear-gradient)"/>
    <g id="Grupo_63485" data-name="Grupo 63485" transform="translate(443.283 456.343)">
      <g id="Grupo_63482" data-name="Grupo 63482" transform="translate(7.999 0)">
        <path id="Trazado_111755" data-name="Trazado 111755" d="M593.706,610.353s.72-30.273-13.223-38.375-40.454-13.168-41.448-56.636c-.582-25.448-1.211-36.575-1.633-41.427a2.865,2.865,0,0,1,3.384-3.068c13.205,2.488,56.1,12.727,65.1,42.007C616.546,547.566,593.706,610.353,593.706,610.353Z" transform="translate(-537.39 -470.796)" fill="#d2acff"/>
        <path id="Trazado_111756" data-name="Trazado 111756" d="M687.418,612.185c14.5,12.928,31.257,35.808,40.191,58.688a107.584,107.584,0,0,1,5.958,26.037,119.946,119.946,0,0,1-.923,32.751.969.969,0,0,1-1.132.771.982.982,0,0,1-.775-1.113,132.8,132.8,0,0,0-3.075-47.824c-5.274-19.582-17.039-38.568-29.207-54.671l-1.252-1.586c-9.427-12.107-11.412-12.2-10.531-13.04A.551.551,0,0,1,687.418,612.185Z" transform="translate(-673.81 -600.04)" fill="#47286d"/>
      </g>
      <g id="Grupo_63483" data-name="Grupo 63483" transform="translate(0 80.546)">
        <path id="Trazado_111757" data-name="Trazado 111757" d="M530.005,1535.608c1.886.925-17.859-23.905-24.045-62.9-2.915-18.377-2.953-41.4-13.421-50.274-8.712-7.385-38.359-2.722-48.06-.951a1.455,1.455,0,0,0-.677,2.545c4.652,3.907,14.6,13.122,17.2,22.409,3.418,12.241,15.056,20.027,25.475,22.135s16.215,4.152,21.291,20.814S524.645,1532.979,530.005,1535.608Z" transform="translate(-443.283 -1418.393)" fill="#f17781"/>
        <path id="Trazado_111758" data-name="Trazado 111758" d="M614.884,1515.554c12.376.518,25.661,6.164,32.4,16.754l.636,1.01a237.486,237.486,0,0,1,14.425,33.177.332.332,0,0,1-.211.42.339.339,0,0,1-.416-.2c-3.223-7.888-7.852-17.889-11.539-25.368-3.954-8.161-6.721-13.688-15.739-18.982a50.213,50.213,0,0,0-19.6-6.282.266.266,0,0,1,.038-.531Z" transform="translate(-600.044 -1507.295)" fill="#47286d"/>
      </g>
      <g id="Grupo_63484" data-name="Grupo 63484" transform="translate(1.382 126.284)">
        <path id="Trazado_111759" data-name="Trazado 111759" d="M536.419,2031.235c1.119.59-6.306-12.19-6.876-23.45s-3.11-30.478-12.82-41.974-20.343-12.545-33.742-2.094c-11.165,8.709-18.13,13.1-22.215,13.921a1.543,1.543,0,0,0-1.035,2.25c2.62,4.824,10.027,15.906,22.463,15.126,15.863-1,35.088-11.307,40.948-2.7s5.107,13.416,5.287,17.493S529.01,2027.329,536.419,2031.235Z" transform="translate(-459.543 -1956.493)" fill="#64f3ff"/>
        <path id="Trazado_111760" data-name="Trazado 111760" d="M787.225,2112.532c4.86-4.659,12.774-9.237,19.691-8.384,9,1.45,14.995,7.46,18.265,16.406a54.567,54.567,0,0,1,2.56,10.483.3.3,0,0,1-.579.12c-.55-2.187-1.095-4.477-1.91-6.845-4.744-15.281-14.87-17.339-15.263-17.652-.766.076-5.406-3.4-16.419,2.527a48.924,48.924,0,0,0-5.937,3.806l-.01.008a.308.308,0,0,1-.4-.468Z" transform="translate(-759.286 -2091.503)" fill="#47286d"/>
      </g>
    </g>
    <g id="Grupo_63496" data-name="Grupo 63496" transform="translate(497.171 472.374)">
      <g id="Grupo_63487" data-name="Grupo 63487" transform="translate(0 0)">
        <g id="Grupo_63486" data-name="Grupo 63486">
          <path id="Trazado_111761" data-name="Trazado 111761" d="M1087.278,660.251a10.924,10.924,0,0,0-9.967,10.861c-.1,34.576-.26,153.837,1.994,196.048a8.482,8.482,0,0,0,8.383,8.033c22.149.239,85.859.677,122.027-1.637a14.284,14.284,0,0,0,13.386-14.27c-.044-36.288-.624-138.344-5.594-184.993a11.657,11.657,0,0,0-10.692-10.389C1182.657,662.023,1118.51,657.534,1087.278,660.251Z" transform="translate(-1077.263 -659.4)" fill="#47286d"/>
          <path id="Trazado_111762" data-name="Trazado 111762" d="M1174.363,791.65c-.435,29.576-1.673,127.965.489,164.279a10.091,10.091,0,0,0,9.53,9.676c20.961.73,74.71,2.144,105.338-1.226A11.344,11.344,0,0,0,1299.6,953.2c.766-30.183,2.836-121.82.735-157.728a11.168,11.168,0,0,0-10.2-10.669c-22.7-1.529-80.974-5.056-107.019-2.887A9.742,9.742,0,0,0,1174.363,791.65Z" transform="translate(-1165.424 -770.877)" fill="#31d9e7"/>
          <path id="Trazado_111763" data-name="Trazado 111763" d="M1778.125,711.686a1.534,1.534,0,0,0,1.486,1.5c4.033.123,15.395.47,20.473.653a1.535,1.535,0,0,0,1.555-1.859,1.566,1.566,0,0,0-1.43-1.376,196.151,196.151,0,0,0-20.647-.488A1.586,1.586,0,0,0,1778.125,711.686Z" transform="translate(-1718.544 -705.692)" fill="#1f5aa9"/>
        </g>
      </g>
      <g id="Grupo_63493" data-name="Grupo 63493" transform="translate(9.584 4.206)">
        <g id="Grupo_63488" data-name="Grupo 63488" transform="translate(50.353)">
          <path id="Trazado_111764" data-name="Trazado 111764" d="M1788.531,709.555a.91.91,0,0,1,.429.095l7.492,3.608a3.7,3.7,0,0,0,3.445-.121l7.219-4.126a.911.911,0,0,1,.422-.125.94.94,0,0,1,.719.313.876.876,0,0,1,.219.729l-1.116,8.24a3.7,3.7,0,0,0,1.18,3.238l6.155,5.591a.914.914,0,0,1-.451,1.576l-8.182,1.485a3.7,3.7,0,0,0-2.715,2.123l-3.416,7.582a.914.914,0,0,1-1.638.058l-3.94-7.323a3.7,3.7,0,0,0-2.858-1.926l-8.266-.905a.914.914,0,0,1-.561-1.54l5.747-6.01a3.7,3.7,0,0,0,.949-3.313l-1.693-8.141a.876.876,0,0,1,.167-.742A.941.941,0,0,1,1788.531,709.555Z" transform="translate(-1782.411 -708.885)" fill="#f9e478"/>
          <path id="Trazado_111765" data-name="Trazado 111765" d="M2060.486,842a.209.209,0,0,1,.2.138,4.906,4.906,0,0,0,1.306,1.945l2.342,2.127a.209.209,0,0,1-.281.31l-2.342-2.127a5.326,5.326,0,0,1-1.418-2.112.209.209,0,0,1,.189-.281Z" transform="translate(-2036.665 -830.686)" fill="#f9e478"/>
          <path id="Trazado_111766" data-name="Trazado 111766" d="M1943.939,764.19a.209.209,0,0,1,.111.391l-.966.552a5.307,5.307,0,0,1-4.936.174.209.209,0,1,1,.182-.377,4.889,4.889,0,0,0,4.547-.16l.967-.552A.208.208,0,0,1,1943.939,764.19Z" transform="translate(-1924.802 -759.489)" fill="#f9e478"/>
          <path id="Trazado_111767" data-name="Trazado 111767" d="M1827.933,748.871a1.683,1.683,0,0,1,.494.056.209.209,0,1,1-.108.4,1.274,1.274,0,0,0-1.21.315,1.259,1.259,0,0,0-.373,1.2l.877,4.219a5.307,5.307,0,0,1-1.36,4.748l-2.978,3.115a1.287,1.287,0,0,0,.79,2.169l4.283.469a5.306,5.306,0,0,1,4.1,2.761l2.042,3.795a1.288,1.288,0,0,0,2.308-.081l1.77-3.929a5.306,5.306,0,0,1,3.891-3.042l4.24-.769a1.278,1.278,0,0,0,.66-.332.209.209,0,1,1,.289.3,1.7,1.7,0,0,1-.874.441l-4.24.769a4.888,4.888,0,0,0-3.584,2.8l-1.77,3.929a1.706,1.706,0,0,1-3.057.108l-2.042-3.795a4.887,4.887,0,0,0-3.773-2.543l-4.283-.469a1.706,1.706,0,0,1-1.047-2.875l2.978-3.115a4.888,4.888,0,0,0,1.253-4.374l-.877-4.219a1.711,1.711,0,0,1,1.607-2.056Z" transform="translate(-1819.091 -745.471)" fill="#f9e478"/>
        </g>
        <g id="Grupo_63489" data-name="Grupo 63489" transform="translate(13.648 14.197)">
          <path id="Trazado_111768" data-name="Trazado 111768" d="M1355.258,876.423a.7.7,0,0,1,.328.073l5.727,2.758a2.831,2.831,0,0,0,2.633-.093l5.519-3.154a.7.7,0,0,1,.322-.1.72.72,0,0,1,.55.239.67.67,0,0,1,.167.557l-.854,6.3a2.831,2.831,0,0,0,.9,2.476l4.706,4.274a.7.7,0,0,1-.345,1.2l-6.255,1.135a2.831,2.831,0,0,0-2.076,1.623l-2.611,5.8a.7.7,0,0,1-1.252.044l-3.012-5.6a2.83,2.83,0,0,0-2.185-1.473l-6.319-.692a.7.7,0,0,1-.429-1.178l4.393-4.595a2.831,2.831,0,0,0,.725-2.533l-1.294-6.224a.67.67,0,0,1,.128-.567A.72.72,0,0,1,1355.258,876.423Z" transform="translate(-1350.579 -875.911)" fill="#f9e478"/>
          <path id="Trazado_111769" data-name="Trazado 111769" d="M1563.165,977.677a.16.16,0,0,1,.156.105,3.749,3.749,0,0,0,1,1.487l1.79,1.626a.16.16,0,1,1-.215.237l-1.79-1.626a4.075,4.075,0,0,1-1.084-1.614.16.16,0,0,1,.145-.215Z" transform="translate(-1544.954 -969.027)" fill="#f9e478"/>
          <path id="Trazado_111770" data-name="Trazado 111770" d="M1474.066,918.192a.16.16,0,0,1,.085.3l-.739.422a4.057,4.057,0,0,1-3.774.133.16.16,0,1,1,.139-.288,3.737,3.737,0,0,0,3.476-.122l.739-.422A.159.159,0,0,1,1474.066,918.192Z" transform="translate(-1459.435 -914.598)" fill="#f9e478"/>
          <path id="Trazado_111771" data-name="Trazado 111771" d="M1385.38,906.479a1.285,1.285,0,0,1,.377.043.16.16,0,1,1-.083.309.974.974,0,0,0-.925.24.963.963,0,0,0-.285.914l.671,3.225a4.057,4.057,0,0,1-1.04,3.63l-2.276,2.381a.984.984,0,0,0,.6,1.659l3.275.359a4.057,4.057,0,0,1,3.131,2.11l1.561,2.9a.984.984,0,0,0,1.764-.062l1.353-3a4.056,4.056,0,0,1,2.975-2.326l3.241-.588a.977.977,0,0,0,.5-.254.16.16,0,1,1,.221.231,1.3,1.3,0,0,1-.668.337l-3.241.588a3.736,3.736,0,0,0-2.74,2.142l-1.353,3a1.3,1.3,0,0,1-2.338.082l-1.561-2.9a3.737,3.737,0,0,0-2.884-1.944l-3.275-.359a1.3,1.3,0,0,1-.8-2.2l2.276-2.381a3.736,3.736,0,0,0,.958-3.344l-.671-3.225a1.309,1.309,0,0,1,1.229-1.572Z" transform="translate(-1378.62 -903.88)" fill="#f9e478"/>
        </g>
        <g id="Grupo_63490" data-name="Grupo 63490" transform="translate(0 43.422)">
          <path id="Trazado_111772" data-name="Trazado 111772" d="M1192.948,1220.051a.435.435,0,0,1,.205.046l3.584,1.726a1.771,1.771,0,0,0,1.648-.058l3.454-1.974a.438.438,0,0,1,.2-.06.451.451,0,0,1,.344.15.419.419,0,0,1,.1.348l-.534,3.942a1.772,1.772,0,0,0,.564,1.549l2.945,2.675a.437.437,0,0,1-.216.754l-3.914.71a1.772,1.772,0,0,0-1.3,1.016l-1.634,3.627a.437.437,0,0,1-.784.028l-1.885-3.5a1.771,1.771,0,0,0-1.367-.922l-3.954-.433a.437.437,0,0,1-.268-.737l2.749-2.875a1.771,1.771,0,0,0,.454-1.585l-.81-3.895a.419.419,0,0,1,.08-.355A.45.45,0,0,1,1192.948,1220.051Z" transform="translate(-1190.02 -1219.73)" fill="#f9e478"/>
          <path id="Trazado_111773" data-name="Trazado 111773" d="M1323.05,1283.412a.1.1,0,0,1,.1.066,2.347,2.347,0,0,0,.625.931l1.12,1.018a.1.1,0,0,1-.135.148l-1.12-1.018a2.549,2.549,0,0,1-.678-1.01.1.1,0,0,1,.09-.134Z" transform="translate(-1311.654 -1277.999)" fill="#f9e478"/>
          <path id="Trazado_111774" data-name="Trazado 111774" d="M1267.294,1246.188a.1.1,0,0,1,.053.187l-.462.264a2.539,2.539,0,0,1-2.361.083.1.1,0,1,1,.087-.18,2.338,2.338,0,0,0,2.175-.077l.462-.264A.1.1,0,0,1,1267.294,1246.188Z" transform="translate(-1258.139 -1243.939)" fill="#f9e478"/>
          <path id="Trazado_111775" data-name="Trazado 111775" d="M1211.8,1238.86a.8.8,0,0,1,.236.027.1.1,0,0,1-.052.193.609.609,0,0,0-.579.151.6.6,0,0,0-.179.572l.42,2.018a2.538,2.538,0,0,1-.651,2.271l-1.425,1.49a.616.616,0,0,0,.378,1.038l2.049.224a2.539,2.539,0,0,1,1.959,1.321l.977,1.815a.616.616,0,0,0,1.1-.039l.847-1.88a2.538,2.538,0,0,1,1.861-1.455l2.028-.368a.612.612,0,0,0,.316-.159.1.1,0,0,1,.138.145.813.813,0,0,1-.418.211l-2.028.368a2.338,2.338,0,0,0-1.715,1.34l-.847,1.88a.816.816,0,0,1-1.463.052l-.977-1.815a2.338,2.338,0,0,0-1.8-1.217l-2.049-.224a.816.816,0,0,1-.5-1.375l1.425-1.49a2.338,2.338,0,0,0,.6-2.092l-.42-2.018a.819.819,0,0,1,.769-.983Z" transform="translate(-1207.567 -1237.234)" fill="#f9e478"/>
        </g>
        <g id="Grupo_63491" data-name="Grupo 63491" transform="translate(93.271 19.007)">
          <path id="Trazado_111776" data-name="Trazado 111776" d="M2307.127,932.564a.693.693,0,0,0-.326.083l-5.641,2.932a2.831,2.831,0,0,1-2.635-.012l-5.613-2.985a.7.7,0,0,0-.325-.086.719.719,0,0,0-.542.256.669.669,0,0,0-.15.562l1.045,6.271a2.831,2.831,0,0,1-.826,2.5l-4.573,4.416a.7.7,0,0,0,.382,1.194l6.287.944a2.829,2.829,0,0,1,2.124,1.559l2.787,5.714a.7.7,0,0,0,1.253.006l2.84-5.687a2.831,2.831,0,0,1,2.139-1.539l6.3-.885a.7.7,0,0,0,.393-1.19l-4.531-4.459a2.83,2.83,0,0,1-.8-2.51l1.1-6.26a.67.67,0,0,0-.145-.563A.72.72,0,0,0,2307.127,932.564Z" transform="translate(-2287.326 -932.496)" fill="#f9e478"/>
          <path id="Trazado_111777" data-name="Trazado 111777" d="M2332.916,1033.853a.16.16,0,0,0-.153.11,3.746,3.746,0,0,1-.953,1.517l-1.74,1.68a.16.16,0,1,0,.222.23l1.74-1.68a4.071,4.071,0,0,0,1.034-1.647.16.16,0,0,0-.151-.21Z" transform="translate(-2326.392 -1025.238)" fill="#f9e478"/>
          <path id="Trazado_111778" data-name="Trazado 111778" d="M2402.633,973.111a.16.16,0,0,0-.076.3l.751.4a4.058,4.058,0,0,0,3.776.018.16.16,0,0,0-.148-.284,3.738,3.738,0,0,1-3.478-.016l-.751-.4A.157.157,0,0,0,2402.633,973.111Z" transform="translate(-2392.685 -969.659)" fill="#f9e478"/>
          <path id="Trazado_111779" data-name="Trazado 111779" d="M2337.716,958.589a1.283,1.283,0,0,0-.376.054.16.16,0,1,0,.092.306.974.974,0,0,1,.932.212.964.964,0,0,1,.313.9l-.572,3.244a4.056,4.056,0,0,0,1.15,3.6l2.348,2.311a.984.984,0,0,1-.553,1.676l-3.262.458a4.056,4.056,0,0,0-3.065,2.2l-1.472,2.947a.984.984,0,0,1-1.765-.008l-1.444-2.961A4.056,4.056,0,0,0,2327,971.3l-3.258-.489a.977.977,0,0,1-.512-.238.16.16,0,0,0-.214.238,1.3,1.3,0,0,0,.679.317l3.257.489a3.736,3.736,0,0,1,2.8,2.058l1.444,2.961a1.3,1.3,0,0,0,2.339.011l1.472-2.947a3.737,3.737,0,0,1,2.824-2.031l3.262-.458a1.3,1.3,0,0,0,.733-2.221l-2.348-2.311a3.737,3.737,0,0,1-1.059-3.313l.572-3.244a1.308,1.308,0,0,0-1.276-1.533Z" transform="translate(-2319.932 -956.371)" fill="#f9e478"/>
        </g>
        <g id="Grupo_63492" data-name="Grupo 63492" transform="translate(114.51 41.809)">
          <path id="Trazado_111780" data-name="Trazado 111780" d="M2549.588,1200.8a.436.436,0,0,0-.2.052l-3.53,1.835a1.772,1.772,0,0,1-1.649-.008l-3.512-1.868a.436.436,0,0,0-.2-.054.451.451,0,0,0-.339.16.42.42,0,0,0-.094.352l.654,3.924a1.772,1.772,0,0,1-.517,1.566l-2.861,2.763a.437.437,0,0,0,.239.747l3.934.59a1.772,1.772,0,0,1,1.329.975l1.744,3.576a.437.437,0,0,0,.784,0l1.777-3.559a1.772,1.772,0,0,1,1.339-.963l3.939-.553a.437.437,0,0,0,.246-.745l-2.835-2.79a1.771,1.771,0,0,1-.5-1.571l.691-3.917a.419.419,0,0,0-.091-.352A.45.45,0,0,0,2549.588,1200.8Z" transform="translate(-2537.197 -1200.756)" fill="#f9e478"/>
          <path id="Trazado_111781" data-name="Trazado 111781" d="M2565.725,1264.182a.1.1,0,0,0-.1.069,2.354,2.354,0,0,1-.6.949l-1.089,1.051a.1.1,0,1,0,.139.144l1.088-1.051a2.545,2.545,0,0,0,.647-1.03.1.1,0,0,0-.063-.126A.1.1,0,0,0,2565.725,1264.182Z" transform="translate(-2561.643 -1258.791)" fill="#f9e478"/>
          <path id="Trazado_111782" data-name="Trazado 111782" d="M2609.353,1226.172a.1.1,0,0,0-.048.188l.47.25a2.538,2.538,0,0,0,2.363.011.1.1,0,1,0-.092-.177,2.338,2.338,0,0,1-2.177-.01l-.47-.25A.1.1,0,0,0,2609.353,1226.172Z" transform="translate(-2603.127 -1224.012)" fill="#f9e478"/>
          <path id="Trazado_111783" data-name="Trazado 111783" d="M2568.729,1217.084a.808.808,0,0,0-.235.034.1.1,0,1,0,.058.192.609.609,0,0,1,.583.133.6.6,0,0,1,.2.566l-.358,2.03a2.538,2.538,0,0,0,.72,2.25l1.469,1.446a.616.616,0,0,1-.346,1.049l-2.041.287a2.539,2.539,0,0,0-1.918,1.38l-.921,1.844a.616.616,0,0,1-1.1-.005l-.9-1.853a2.538,2.538,0,0,0-1.905-1.4l-2.039-.306a.611.611,0,0,1-.321-.149.1.1,0,0,0-.134.149.813.813,0,0,0,.425.2l2.039.306a2.338,2.338,0,0,1,1.755,1.288l.9,1.853a.816.816,0,0,0,1.464.007l.921-1.844a2.338,2.338,0,0,1,1.767-1.271l2.041-.287a.816.816,0,0,0,.459-1.39l-1.469-1.446a2.338,2.338,0,0,1-.663-2.073l.358-2.03a.819.819,0,0,0-.8-.96Z" transform="translate(-2557.601 -1215.696)" fill="#f9e478"/>
        </g>
      </g>
      <g id="Grupo_63495" data-name="Grupo 63495" transform="translate(15.235 69.019)">
        <rect id="Rectángulo_6529" data-name="Rectángulo 6529" width="112.687" height="109.526" rx="17.694" fill="#fff" opacity="0.35"/>
        <g id="Grupo_63494" data-name="Grupo 63494" transform="translate(6.197 5.282)">
          <rect id="Rectángulo_6530" data-name="Rectángulo 6530" width="52.41" height="6.699" rx="3.349" transform="translate(26.643)" fill="#fff" opacity="0.72"/>
          <rect id="Rectángulo_6531" data-name="Rectángulo 6531" width="101.148" height="6.124" rx="3.062" transform="translate(0.313 14.354)" fill="#fff" opacity="0.72"/>
          <rect id="Rectángulo_6532" data-name="Rectángulo 6532" width="64.636" height="6.124" rx="3.062" transform="translate(0 28.134)" fill="#fff" opacity="0.72"/>
          <rect id="Rectángulo_6533" data-name="Rectángulo 6533" width="98.073" height="6.124" rx="3.062" transform="translate(0.47 42.119)" fill="#fff" opacity="0.72"/>
          <rect id="Rectángulo_6534" data-name="Rectángulo 6534" width="81.267" height="6.124" rx="3.062" transform="translate(0.157 55.898)" fill="#fff" opacity="0.72"/>
          <rect id="Rectángulo_6535" data-name="Rectángulo 6535" width="101.148" height="6.124" rx="3.062" transform="translate(0.627 70.638)" fill="#fff" opacity="0.72"/>
          <rect id="Rectángulo_6536" data-name="Rectángulo 6536" width="59.76" height="6.124" rx="3.062" transform="translate(0.313 84.418)" fill="#fff" opacity="0.72"/>
        </g>
      </g>
    </g>
    <g id="Grupo_63507" data-name="Grupo 63507" transform="translate(530.121 561.93)">
      <g id="Grupo_63502" data-name="Grupo 63502" transform="translate(68.286 10.138)">
        <g id="Grupo_63497" data-name="Grupo 63497" transform="translate(30.454 110.614)">
          <path id="Trazado_111784" data-name="Trazado 111784" d="M2626.975,3237.961c2.565.222,7.016.582,10.525.736a10.13,10.13,0,0,0,4.024-.394c0,.079,0,.154-.007.223a.726.726,0,0,1-.69.685,123.436,123.436,0,0,1-13.782.014.517.517,0,0,1-.421-.777A4.191,4.191,0,0,1,2626.975,3237.961Z" transform="translate(-2626.552 -3229.092)" fill="url(#linear-gradient-2)"/>
          <path id="Trazado_111785" data-name="Trazado 111785" d="M2642.051,3182.947c-3.509-.154-7.961-.515-10.525-.736,2.521-3.094,10.525-5.179,10.525-5.179h2.261a9.48,9.48,0,0,1,1.763,5.521A10.124,10.124,0,0,1,2642.051,3182.947Z" transform="translate(-2631.103 -3173.342)" fill="url(#linear-gradient-3)"/>
          <path id="Trazado_111786" data-name="Trazado 111786" d="M2741.031,3133.615l-.211,4.186a.956.956,0,0,1-.816.9,3.72,3.72,0,0,1-1.7-.141,1.131,1.131,0,0,1-.76-.869l-.731-4.075Z" transform="translate(-2727.442 -3133.615)" fill="url(#linear-gradient-4)"/>
        </g>
        <g id="Grupo_63499" data-name="Grupo 63499" transform="translate(65.814 106.702)">
          <g id="Grupo_63498" data-name="Grupo 63498" transform="translate(0.996 3.885)">
            <path id="Trazado_111787" data-name="Trazado 111787" d="M3090.2,3231.715a2.03,2.03,0,0,0,1.826-1.351l0,.017a1.446,1.446,0,0,1-.974,1.648,6.364,6.364,0,0,1-2.7.422,2.68,2.68,0,0,1-2.022-.933l-.007-.008A6.792,6.792,0,0,0,3090.2,3231.715Z" transform="translate(-3083.609 -3222.113)" fill="url(#linear-gradient-5)"/>
            <path id="Trazado_111788" data-name="Trazado 111788" d="M3055.619,3133.295h1.864c2.84-.058,4.623,5.931,5.206,8.25a2.03,2.03,0,0,1-1.826,1.351,6.785,6.785,0,0,1-3.869-.2,17.81,17.81,0,0,1-2.66-6.7A2.352,2.352,0,0,1,3055.619,3133.295Z" transform="translate(-3054.268 -3133.294)" fill="url(#linear-gradient-6)"/>
          </g>
          <path id="Trazado_111789" data-name="Trazado 111789" d="M3046.522,3087.589l1.035,4.117a1.117,1.117,0,0,1-.582,1.266,3.968,3.968,0,0,1-2.144.519.934.934,0,0,1-.761-.622l-1.52-4.332Z" transform="translate(-3042.551 -3087.589)" fill="url(#linear-gradient-7)"/>
        </g>
        <path id="Trazado_111790" data-name="Trazado 111790" d="M2675.421,2471.43c-1.288,1.142-5.477,1.293-5.477,1.293-15.09-36.218-21.263-41.363-21.263-41.363,2.179,13.67.351,43.934.351,43.934-2.49,1.1-5.7,0-5.7,0a233.277,233.277,0,0,0-7.706-57.284c10.2-.229,15.623-3.719,17.394-5.12C2661.521,2426.6,2675.421,2471.43,2675.421,2471.43Z" transform="translate(-2604.401 -2363.538)" fill="url(#linear-gradient-8)"/>
        <path id="Trazado_111791" data-name="Trazado 111791" d="M2503.115,1920.219c1.931,9.629,1.239,26.863.784,34.724-.128,2.209,1.415,5.272,2.661,7.362a.655.655,0,0,1-.265.922,45.462,45.462,0,0,1-17.353,4.811,1.168,1.168,0,0,1-1.176-.873c-6.079-22.7-13.14-37.2-13.14-37.2C2482.422,1917.514,2503.115,1920.219,2503.115,1920.219Z" transform="translate(-2457.087 -1912.516)" fill="#bb83ff"/>
        <path id="Trazado_111792" data-name="Trazado 111792" d="M2709.669,2555.765a.484.484,0,0,0,.412-.734,15.16,15.16,0,0,0-5.983-5.194.483.483,0,0,0-.42.87,14.455,14.455,0,0,1,5.578,4.827A.484.484,0,0,0,2709.669,2555.765Z" transform="translate(-2666.418 -2488.799)" fill="url(#linear-gradient-9)"/>
        <g id="Grupo_63500" data-name="Grupo 63500" transform="translate(43.872 7.703)">
          <path id="Trazado_111793" data-name="Trazado 111793" d="M2871.394,2240.805a33.129,33.129,0,0,1-6.117,14.576l-1.393-1.136a43.016,43.016,0,0,0,.694-13.931A16.675,16.675,0,0,1,2871.394,2240.805Z" transform="translate(-2857.129 -2213.17)" fill="#bb83ff"/>
          <path id="Trazado_111794" data-name="Trazado 111794" d="M2784.417,1934.772l2.156-11.881s14.406,11.012,12.109,27.635a16.677,16.677,0,0,0-6.816-.491C2791.207,1944.7,2789.24,1938.91,2784.417,1934.772Z" transform="translate(-2784.417 -1922.891)" fill="#bb83ff"/>
        </g>
        <g id="Grupo_63501" data-name="Grupo 63501" transform="translate(0 17.447)">
          <path id="Trazado_111795" data-name="Trazado 111795" d="M2417.811,2037.523l5.561,11.976c-.9,7.23-4.783,10.357-8.971,11.556a25.419,25.419,0,0,0-1.867-7.8C2417.884,2047.731,2417.811,2037.523,2417.811,2037.523Z" transform="translate(-2400.271 -2037.523)" fill="#bb83ff"/>
          <path id="Trazado_111796" data-name="Trazado 111796" d="M2280.535,2222.615a25.417,25.417,0,0,1,1.868,7.8c-11.173,4.335-14.13-4.073-14.13-4.073l2.065-.364C2275,2226.469,2278.259,2224.965,2280.535,2222.615Z" transform="translate(-2268.273 -2206.882)" fill="#bb83ff"/>
        </g>
        <path id="Trazado_111797" data-name="Trazado 111797" d="M2534.9,1834.929l2.685,9.869a1.92,1.92,0,0,0,2.568,1.277,38.943,38.943,0,0,0,3.869-1.767,2.587,2.587,0,0,0,.913-3.718l-5.582-8.322Z" transform="translate(-2512.239 -1832.268)" fill="url(#linear-gradient-10)"/>
      </g>
      <g id="Grupo_63503" data-name="Grupo 63503" transform="translate(82.287 0)">
        <path id="Trazado_111798" data-name="Trazado 111798" d="M2465.8,1758.314c-.024.17,2.239,11.262,2.239,11.262l6.306-1.427-.583-10.832S2466.211,1755.477,2465.8,1758.314Z" transform="translate(-2463.013 -1753.013)" fill="url(#linear-gradient-11)"/>
        <path id="Trazado_111799" data-name="Trazado 111799" d="M2442.32,1719.717l.754,5.678a.791.791,0,0,1,0,.217c-.064.445-.395,1.96-1.924,1.527a7.2,7.2,0,0,0-3.54-.462.8.8,0,0,0-.55.925,34.552,34.552,0,0,0,1.451,5.169.8.8,0,0,0,.969.472,25.78,25.78,0,0,0,5.559-2.275.8.8,0,0,0,.39-.72c-.061-1.434-.228-5.791-.087-7.012.133-1.146,1.54-1.833,2.151-2.08a.786.786,0,0,0,.438-.439,2.074,2.074,0,0,0-1.4-3.024.8.8,0,0,1-.507-1.036,2.078,2.078,0,0,0-1.165-2.872,2.931,2.931,0,0,0-3.5.843.8.8,0,0,1-1.02.12.633.633,0,0,0-.72.025.788.788,0,0,1-1.116-.338,2.389,2.389,0,0,0-2.776-1.383c-2.826.484-3.146,3.615-2.4,5.45s3.78,1.136,5.3.211c1.157-.7,2.658.034,3.311.428A.793.793,0,0,1,2442.32,1719.717Z" transform="translate(-2432.987 -1713)" fill="url(#linear-gradient-12)"/>
        <path id="Trazado_111800" data-name="Trazado 111800" d="M2575.855,1810.2s-1.162-3.253.032-4.05,2.961-.383,2.572,1.974C2577.975,1811.053,2575.855,1810.2,2575.855,1810.2Z" transform="translate(-2563.248 -1797.891)" fill="url(#linear-gradient-13)"/>
      </g>
      <path id="Trazado_111801" data-name="Trazado 111801" d="M2230.792,2231.562c-.562.439-2.489-.478-3.668-1.112a1.357,1.357,0,0,1-.656-1.6c.284-.895.757-2.05,1.339-2.2C2228.773,2226.409,2233.109,2229.751,2230.792,2231.562Z" transform="translate(-2161.677 -2182.979)" fill="url(#linear-gradient-14)"/>
      <g id="Grupo_63506" data-name="Grupo 63506" transform="translate(0 32.578)">
        <g id="Grupo_63505" data-name="Grupo 63505">
          <path id="Trazado_111802" data-name="Trazado 111802" d="M1944.556,2161.276l-114.173-34.511-5.144,16.783,114.188,35.628a5.239,5.239,0,0,0,6.21-2.593,22.281,22.281,0,0,0,2.108-11.171A4.487,4.487,0,0,0,1944.556,2161.276Z" transform="translate(-1794.611 -2124.173)" fill="#47286d"/>
          <g id="Grupo_63504" data-name="Grupo 63504">
            <path id="Trazado_111803" data-name="Trazado 111803" d="M1465.746,2096.272l15.6,1.156a13.643,13.643,0,0,1-2.692,8.211l-13.361-7.918A.78.78,0,0,1,1465.746,2096.272Z" transform="translate(-1464.907 -2096.27)" fill="#47286d"/>
            <path id="Trazado_111804" data-name="Trazado 111804" d="M1648.64,2111.335a21.627,21.627,0,0,1-5.143,16.783l-16.883-10.005a13.641,13.641,0,0,0,2.692-8.211Z" transform="translate(-1612.868 -2108.743)" fill="#f9e478"/>
          </g>
        </g>
        <path id="Trazado_111805" data-name="Trazado 111805" d="M2035.987,2233.143a.33.33,0,0,0,.079-.646l-109.221-32.776a.33.33,0,1,0-.19.632l109.222,32.776A.315.315,0,0,0,2035.987,2233.143Z" transform="translate(-1887.191 -2190.915)" fill="#bb83ff"/>
        <path id="Trazado_111806" data-name="Trazado 111806" d="M2017.862,2310.331a.33.33,0,0,0,.079-.646l-109.221-32.777a.33.33,0,0,0-.19.633l109.221,32.777A.322.322,0,0,0,2017.862,2310.331Z" transform="translate(-1870.606 -2261.541)" fill="#bb83ff"/>
      </g>
      <path id="Trazado_111807" data-name="Trazado 111807" d="M2770.321,2398.1l-6.5-.53-2.816,2.6s.666.921,2.75.392a29.837,29.837,0,0,1,4.937-.659s2.876,1.3,2.911-1.129Z" transform="translate(-2650.833 -2339.38)" fill="url(#linear-gradient-15)"/>
    </g>
  </g>
</svg>
