<svg xmlns="http://www.w3.org/2000/svg" xmlns:xlink="http://www.w3.org/1999/xlink" width="210.245" height="167.615" viewBox="0 0 210.245 167.615"><defs><clipPath id="a"><path d="M149.685,217.861c-1.494-3.154-3.32-21.246-.831-23.569a14.776,14.776,0,0,1,6.64-3.32c.829-.166-.831-11.12,2.655-11.785,1.957-.372,4.149.332,3.983,6.64-.218,8.322-1.328,31.7-1.328,31.7Z" transform="translate(-147.627 -179.106)" fill="#efbd7d"/></clipPath><clipPath id="b"><path d="M183.147,209.163c-.99-1.9.441-3.611,3.143-7.755.666-1.02.134-3.2-1.2-5.992-2.791-5.863-4.685-10.107-1.333-12.119,3.331-2,4,3.6,5.593,7.857s2,6.924,3.065,6.924a8.583,8.583,0,0,1,2.679-.616c1.723-.107,1.556.684,2.677.747,1.158.064,2.219-.677,3.672-.436.511.084,1.274.652,2.117.935.747.248,2.427-.373,3.547.684,2.886,2.725.488,19.329.488,19.329l-11.9,4.26s-5.329-3.309-7.451-4.855C186.882,217.131,184.764,212.276,183.147,209.163Z" transform="translate(-181.973 -182.88)" fill="#efbd7d"/></clipPath></defs><g transform="translate(-147.627 -117.933)"><g transform="translate(318.444 167.843)"><circle cx="10.628" cy="10.628" r="10.628" fill="#4396ca"/><g transform="translate(4.756 7.671)"><path d="M250.8,157.1a1.046,1.046,0,0,1-.658-.231l-3.87-3.095a1.054,1.054,0,1,1,1.317-1.646l3.247,2.6,6.124-4.374a1.054,1.054,0,1,1,1.224,1.715l-6.771,4.837A1.057,1.057,0,0,1,250.8,157.1Z" transform="translate(-245.882 -150.157)" fill="#fff"/></g></g><g transform="translate(302.512 150.21)"><circle cx="9.882" cy="9.882" r="9.882" fill="#ffcb2f"/><g transform="translate(3.077 2.927)"><path d="M242.831,137.634l2.1,4.261,4.7.683-3.4,3.316.8,4.683-4.206-2.211-4.206,2.211.8-4.683-3.4-3.316,4.7-.683Z" transform="translate(-236.026 -137.634)" fill="#fff"/></g></g><g transform="translate(281.491 164.473)"><circle cx="9.882" cy="9.882" r="9.882" fill="#4396ca"/><g transform="translate(3.934 6.018)"><path d="M235.029,147.628c-1.48-.8-3.42.2-4.326,1.581-.906-1.378-2.947-2.377-4.428-1.581a2.8,2.8,0,0,0-1.1,4.04c.842,1.565,5.514,5.382,5.523,5.336.009.046,4.682-3.77,5.523-5.336A2.825,2.825,0,0,0,235.029,147.628Z" transform="translate(-224.742 -147.346)" fill="#fff"/></g></g><g transform="translate(303.037 175.278)"><path d="M246.635,156.043a6.018,6.018,0,1,1-6.018-6.018A6.017,6.017,0,0,1,246.635,156.043Z" transform="translate(-234.598 -150.025)" fill="#025482"/><g transform="translate(2.686 2.686)"><g transform="translate(2.647)"><rect width="1.372" height="6.666" fill="#fff"/></g><g transform="translate(0 2.647)"><rect width="6.666" height="1.372" fill="#fff"/></g></g></g><g transform="translate(224.013 192.488)"><path d="M201.229,162.092a6.019,6.019,0,1,1-8.418-1.253A6.018,6.018,0,0,1,201.229,162.092Z" transform="translate(-190.374 -159.656)" fill="#025482"/><g transform="translate(2.932 2.932)"><g transform="translate(0.551)"><rect width="1.372" height="6.666" transform="translate(0 0.817) rotate(-36.528)" fill="#fff"/></g><g transform="translate(0 0.551)"><rect width="6.666" height="1.372" transform="translate(0 3.968) rotate(-36.528)" fill="#fff"/></g></g></g><g transform="translate(147.627 207.94)"><g transform="translate(9.622)"><rect width="85.149" height="57.015" rx="2.787" fill="#062c3f"/><g transform="translate(3.319 3.552)"><path d="M227.269,220.2H159.5a4.5,4.5,0,0,1-4.632-4.358V174.651a4.5,4.5,0,0,1,4.632-4.36h67.769a4.5,4.5,0,0,1,4.63,4.36v41.192A4.5,4.5,0,0,1,227.269,220.2Z" transform="translate(-154.869 -170.291)" fill="#97e4ff"/></g><g transform="translate(81.802 23.875)"><path d="M199.782,181.664a.994.994,0,0,1,.994.993v7.278a.994.994,0,0,1-.994.994h0a.992.992,0,0,1-.992-.994v-7.278a.992.992,0,0,1,.992-.993Z" transform="translate(-198.79 -181.664)" fill="#3287b2"/></g></g><g transform="translate(33.727 19.563)"><rect width="35.459" height="17.251" rx="1.743" fill="#4396ca"/></g><g transform="translate(0 19.304)"><path d="M149.685,217.861c-1.494-3.154-3.32-21.246-.831-23.569a14.776,14.776,0,0,1,6.64-3.32c.829-.166-.831-11.12,2.655-11.785,1.957-.372,4.149.332,3.983,6.64-.218,8.322-1.328,31.7-1.328,31.7Z" transform="translate(-147.627 -179.106)" fill="#efbd7d"/><g clip-path="url(#a)"><g transform="translate(7.755 3.178)"><rect width="0.527" height="12.884" transform="matrix(1, -0.028, 0.028, 1, 0, 0.015)" fill="#61b3db"/></g></g></g><g transform="translate(9.61 20.629)"><circle cx="1.743" cy="1.743" r="1.743" fill="#ef9a6f"/></g><g transform="translate(1.808 57.56)"><path d="M148.639,200.515h11.37v17.678a1.161,1.161,0,0,1-1.161,1.161H149.8a1.161,1.161,0,0,1-1.161-1.161Z" transform="translate(-148.639 -200.515)" fill="#cdeefc"/></g><g transform="translate(74.954 57.56)"><path d="M189.573,200.515l12.044,4.33,2.064,13.348a1.161,1.161,0,0,1-1.161,1.161H190.735a1.161,1.161,0,0,1-1.161-1.161Z" transform="translate(-189.573 -200.515)" fill="#cdeefc"/></g><g transform="translate(61.373 26.048)"><path d="M183.147,209.163c-.99-1.9.441-3.611,3.143-7.755.666-1.02.134-3.2-1.2-5.992-2.791-5.863-4.685-10.107-1.333-12.119,3.331-2,4,3.6,5.593,7.857s2,6.924,3.065,6.924a8.583,8.583,0,0,1,2.679-.616c1.723-.107,1.556.684,2.677.747,1.158.064,2.219-.677,3.672-.436.511.084,1.274.652,2.117.935.747.248,2.427-.373,3.547.684,2.886,2.725.488,19.329.488,19.329l-11.9,4.26s-5.329-3.309-7.451-4.855C186.882,217.131,184.764,212.276,183.147,209.163Z" transform="translate(-181.973 -182.88)" fill="#efbd7d"/><g clip-path="url(#b)"><g transform="translate(3.949 15.842)"><rect width="0.527" height="12.883" transform="matrix(0.966, -0.258, 0.258, 0.966, 0, 0.136)" fill="#61b3db"/></g></g><g transform="translate(1.464 2.05)"><circle cx="1.743" cy="1.743" r="1.743" fill="#ef9a6f"/></g></g><g transform="translate(0.066 55.9)"><path d="M149.074,199.586h11.7V204.9h-11.7a1.411,1.411,0,0,1-1.41-1.412V201A1.411,1.411,0,0,1,149.074,199.586Z" transform="translate(-147.664 -199.586)" fill="#e6f9ff"/></g><g transform="translate(72.389 61.632)"><rect width="16.097" height="5.311" rx="0.789" transform="matrix(0.941, -0.338, 0.338, 0.941, 0, 5.446)" fill="#e6f9ff"/></g><g transform="translate(43.645 25.497)"><path d="M172.052,188.187v-5.614h2.85a1.672,1.672,0,0,1,1.3.448,1.478,1.478,0,0,1,.407,1.024,1.3,1.3,0,0,1-.236.759,1.208,1.208,0,0,1-.706.466,1.249,1.249,0,0,1,1.09,1.308,1.769,1.769,0,0,1-.384,1.117,2.057,2.057,0,0,1-1.644.491Zm1.589-3.463h.8a.521.521,0,0,0,.423-.152.507.507,0,0,0,.123-.325c0-.313-.191-.468-.575-.468h-.768Zm0,2.212h.838a.611.611,0,0,0,.459-.154.5.5,0,0,0,.146-.347.533.533,0,0,0-.143-.357.675.675,0,0,0-.52-.163h-.781Z" transform="translate(-172.052 -182.572)" fill="#fff"/><path d="M179.9,182.572v3.719a1.761,1.761,0,0,1-.627,1.519,2.682,2.682,0,0,1-1.635.463,2.957,2.957,0,0,1-1.7-.443,1.634,1.634,0,0,1-.643-1.447v-3.81h1.751v3.608a.856.856,0,0,0,.17.588.71.71,0,0,0,.545.186.906.906,0,0,0,.509-.134.51.51,0,0,0,.238-.3,3.437,3.437,0,0,0,.039-.658v-3.286Z" transform="translate(-169.508 -182.572)" fill="#fff"/><path d="M183.567,182.572l-1.757,3.236v2.378h-1.674v-2.378l-1.889-3.236h1.885l.985,1.851.943-1.851Z" transform="translate(-167.177 -182.572)" fill="#fff"/></g><g transform="translate(75.479 6.143)" opacity="0.19"><path d="M194.127,198.15a2.13,2.13,0,0,1-2.13,2.13h0a2.13,2.13,0,0,1-2.13-2.13V173.871a2.131,2.131,0,0,1,2.13-2.13h0a2.131,2.131,0,0,1,2.13,2.13Z" transform="translate(-189.867 -171.741)" fill="#fff"/></g><g transform="translate(82.082 6.143)" opacity="0.19"><path d="M197.822,182.6a2.129,2.129,0,0,1-2.13,2.128h0a2.129,2.129,0,0,1-2.13-2.128v-8.733a2.131,2.131,0,0,1,2.13-2.13h0a2.131,2.131,0,0,1,2.13,2.13Z" transform="translate(-193.562 -171.741)" fill="#fff"/></g></g><g transform="translate(275.93 135.704)"><circle cx="12.94" cy="12.94" r="12.94" fill="#062c3f"/><g transform="translate(5.006 7.591)"><path d="M237.367,143.237H223.283a1.054,1.054,0,0,1-1.052-1.054v-9a1.053,1.053,0,0,1,1.052-1.052h14.084a1.053,1.053,0,0,1,1.052,1.052v9A1.054,1.054,0,0,1,237.367,143.237Zm-13.03-2.109h11.976v-6.9H224.337Z" transform="translate(-222.23 -132.126)" fill="#fff"/></g><g transform="translate(11.276 10.913)"><path d="M229.742,135.986a2,2,0,1,1-2-2A2,2,0,0,1,229.742,135.986Z" transform="translate(-225.739 -133.985)" fill="#fff"/></g><g transform="translate(15.577 5.709)"><path d="M229.465,134.784a1.317,1.317,0,0,1-1.319-1.317V132.39a1.318,1.318,0,0,1,2.636,0v1.078A1.317,1.317,0,0,1,229.465,134.784Z" transform="translate(-228.146 -131.073)" fill="#fff"/></g></g><g transform="translate(202.255 142.637)"><circle cx="11.974" cy="11.974" r="11.974" fill="#4396ca"/><g transform="translate(5.955 5.85)"><path d="M182.584,146.676a1.053,1.053,0,0,1-.734-1.808l9.778-9.537a1.054,1.054,0,0,1,1.471,1.51l-9.778,9.535A1.05,1.05,0,0,1,182.584,146.676Z" transform="translate(-181.531 -135.032)" fill="#fff"/></g><g transform="translate(6.163 5.696)"><path d="M186.236,137.239a2.294,2.294,0,1,1-2.294-2.293A2.295,2.295,0,0,1,186.236,137.239Z" transform="translate(-181.647 -134.946)" fill="#fff"/></g><g transform="translate(13.527 12.819)"><path d="M190.355,141.225a2.294,2.294,0,1,1-2.293-2.293A2.293,2.293,0,0,1,190.355,141.225Z" transform="translate(-185.768 -138.932)" fill="#fff"/></g><g transform="translate(14.865 14.156)"><circle cx="0.956" cy="0.956" r="0.956" fill="#4396ca"/></g><g transform="translate(7.502 7.034)"><circle cx="0.956" cy="0.956" r="0.956" fill="#4396ca"/></g></g><g transform="translate(305.263 190.34)"><path d="M259.792,170.428a11.974,11.974,0,1,1-11.974-11.974A11.974,11.974,0,0,1,259.792,170.428Z" transform="translate(-235.844 -158.454)" fill="#ffd56c"/><g transform="translate(3.592 7.213)"><path d="M255,168s-3.3,4.875-9.042,4.56a11.119,11.119,0,0,1-8.1-4.56s2.359-5.346,8.1-5.5A9.572,9.572,0,0,1,255,168Z" transform="translate(-237.854 -162.491)" fill="#fff"/><g transform="translate(5.112 1.505)"><path d="M247.948,166.95a3.617,3.617,0,1,1-3.617-3.617A3.616,3.616,0,0,1,247.948,166.95Z" transform="translate(-240.715 -163.333)" fill="#ffd56c"/></g></g></g><g transform="translate(174.318 150.852)"><circle cx="13.262" cy="13.262" r="13.262" fill="#ffcb2f"/><g transform="translate(9.301 5.368)"><path d="M171.384,148.6c0-.831.032-1.011-.8-1.3-1.612-.586-2.816-1.692-2.816-3.468a3.593,3.593,0,0,1,3.077-3.583c.309-.066.49-.13.506-.554.016-.359.554-.325.847-.325.325,0,.293.147.293.391,0,.438.57.373,1.058.456.261.048,1.955.341,1.955.717,0,.13-.652,2.035-.879,2.035-.391,0-.8-.668-1.726-.668-.407,0-.343.554-.343.815v1.417c0,.765.05,1.01.831,1.3,1.907.668,3.143,1.9,3.143,3.91,0,2.312-1.5,3.876-3.4,3.876-.357,0-.5.261-.5.65,0,.407-.261.327-.6.327-.309,0-.554.08-.57-.277-.018-.538-.277-.7-.831-.7-.913,0-2.623-.8-2.623-1.108,0-.375.554-2.573.847-2.573.62,0,1.026.961,2.1.961.488,0,.44-.457.44-.783Zm0-5.505c0-.472.082-.8-.325-.8-.733,0-1.092.717-1.092,1.385a1.615,1.615,0,0,0,1.124,1.4c.245,0,.293-.6.293-1.076Zm1.172,7.165c0,.375,0,.636.474.636a1.263,1.263,0,0,0,1.3-1.287,1.887,1.887,0,0,0-1.449-1.467c-.359,0-.327.309-.327.636Z" transform="translate(-167.769 -139.36)" fill="#fff"/></g></g><g transform="translate(223.074 162.091)"><circle cx="13.262" cy="13.262" r="13.262" fill="#cdeefc"/><g transform="translate(3.544 7.302)"><path d="M208,146.788c.643.214,1.078,1.558.6,3.713s-1.2,7.064-1.2,7.064h-1.8s.838-5.268-.838-5.747-2.755,5.747-6.587,5.747-6.226.12-6.345-.958,5.148-2.035,7.3-4.789C202.321,147.749,206.921,146.429,208,146.788Z" transform="translate(-191.832 -146.731)" fill="#fff"/></g></g><g transform="translate(195.27 175.737)"><circle cx="13.262" cy="13.262" r="13.262" fill="#062c3f"/><g transform="translate(4.828 7.543)"><path d="M192.45,165.821h-14.4a1.054,1.054,0,0,1-1.054-1.054v-9.21a1.054,1.054,0,0,1,1.054-1.054h14.4a1.054,1.054,0,0,1,1.054,1.054v9.21A1.054,1.054,0,0,1,192.45,165.821Zm-13.35-2.109h12.3v-7.1H179.1Z" transform="translate(-176.991 -154.503)" fill="#fff"/><g transform="translate(0.422 0.211)"><path d="M185.266,162.076a1.063,1.063,0,0,1-.633-.211l-7.407-5.557,1.265-1.687,6.756,5.069,6.361-5.052,1.31,1.651-7,5.557A1.054,1.054,0,0,1,185.266,162.076Z" transform="translate(-177.227 -154.621)" fill="#fff"/></g></g></g><g transform="translate(274.406 186.957)"><circle cx="12.94" cy="12.94" r="12.94" transform="matrix(0.161, -0.987, 0.987, 0.161, 0, 25.544)" fill="#062c3f"/><g transform="translate(5.588 5.587)"><path d="M230.965,178.212a9.262,9.262,0,1,1,9.262-9.262A9.272,9.272,0,0,1,230.965,178.212Zm0-16.416a7.155,7.155,0,1,0,7.155,7.155A7.162,7.162,0,0,0,230.965,161.8Z" transform="translate(-221.703 -159.687)" fill="#fff"/></g><g transform="translate(10.681 11.38)"><path d="M228.722,167.452a1.049,1.049,0,0,1-.474-.113l-3.116-1.571a1.054,1.054,0,0,1,.949-1.882l2.618,1.321,3.883-2.146a1.054,1.054,0,0,1,1.02,1.844l-4.371,2.414A1.032,1.032,0,0,1,228.722,167.452Z" transform="translate(-224.553 -162.929)" fill="#fff"/></g></g><g transform="translate(166.868 180.398)"><path d="M182.343,164.864a11.974,11.974,0,1,1-11.974-11.974A11.974,11.974,0,0,1,182.343,164.864Z" transform="translate(-158.395 -152.89)" fill="#a6e2f7"/><g transform="translate(5.818 5.832)"><g transform="translate(0 0.1)"><path d="M170.425,170.05a1.055,1.055,0,0,1-.745-.309l-2.462-2.464-2.264,2.264a1.054,1.054,0,0,1-1.79-.609l-1.5-11.531a1.053,1.053,0,1,1,2.089-.273l1.228,9.41,1.5-1.5a1.053,1.053,0,0,1,1.489,0l2.464,2.464,1.161-1.16a1.053,1.053,0,0,1,1.488,1.49l-1.9,1.9A1.051,1.051,0,0,1,170.425,170.05Z" transform="translate(-161.651 -156.21)" fill="#fff"/></g><g transform="translate(0.1)"><path d="M172.588,167.887a1.044,1.044,0,0,1-.745-.309,1.055,1.055,0,0,1,0-1.49l1.16-1.16-2.464-2.464a1.053,1.053,0,0,1,0-1.488l1.5-1.5-9.41-1.228a1.053,1.053,0,0,1,.273-2.089l11.531,1.5a1.054,1.054,0,0,1,.609,1.79l-2.264,2.264,2.464,2.462a1.055,1.055,0,0,1,0,1.49l-1.9,1.9A1.044,1.044,0,0,1,172.588,167.887Z" transform="translate(-161.707 -156.154)" fill="#fff"/></g></g></g><g transform="translate(271.399 205.381)"><g transform="translate(7.391 47.042)"><path d="M260.554,209.864H223.136a2.108,2.108,0,0,1,0-4.215h37.418a4.062,4.062,0,0,0,4.058-4.056v-.125a4.063,4.063,0,0,0-4.058-4.056H223.136a2.107,2.107,0,1,1,0-4.214h37.418a8.279,8.279,0,0,1,8.272,8.27v.125A8.281,8.281,0,0,1,260.554,209.864Z" transform="translate(-221.029 -193.197)" fill="#4396ca"/></g><g transform="translate(0 12.38)"><path d="M267.622,212.655a1.619,1.619,0,0,1-.457-.066,1.581,1.581,0,0,1-1.056-1.971l10.175-33.658H220.717l6.486,33.817a1.581,1.581,0,0,1-3.106.6l-7.2-37.573h63.648l-11.408,37.734A1.58,1.58,0,0,1,267.622,212.655Z" transform="translate(-216.893 -173.799)" fill="#4396ca"/></g><g transform="translate(59.939 1.054)"><path d="M252.017,181.948a1.579,1.579,0,0,1-1.488-2.112l4.414-12.374h10.523a1.581,1.581,0,0,1,0,3.161h-8.295L253.506,180.9A1.58,1.58,0,0,1,252.017,181.948Z" transform="translate(-250.436 -167.461)" fill="#4396ca"/></g><g transform="translate(72.349)"><path d="M268.871,172.139h-8.856a2.634,2.634,0,0,1,0-5.268h8.856a2.634,2.634,0,0,1,0,5.268Z" transform="translate(-257.381 -166.871)" fill="#4396ca"/></g><g transform="translate(40.423 65.168)"><circle cx="7.5" cy="7.5" r="7.5" fill="#a6e2f7"/></g><g transform="translate(5.149 65.168)"><circle cx="7.5" cy="7.5" r="7.5" fill="#a6e2f7"/></g><g transform="translate(44.424 69.168)"><circle cx="3.5" cy="3.5" r="3.5" fill="#fff"/></g><g transform="translate(8.786 69.168)"><path d="M221.81,209.08a3.5,3.5,0,1,0,3.5-3.5A3.5,3.5,0,0,0,221.81,209.08Z" transform="translate(-221.81 -205.579)" fill="#fff"/></g><g transform="translate(41.615 13.722)"><path d="M241.765,211.168a1.59,1.59,0,0,1-1.56-1.853l5.818-33.455a1.581,1.581,0,0,1,3.115.541l-5.818,33.455A1.583,1.583,0,0,1,241.765,211.168Z" transform="translate(-240.182 -174.55)" fill="#4396ca"/></g><g transform="translate(33.433 13.356)"><path d="M237.184,210.6c-.034,0-.07,0-.105,0a1.58,1.58,0,0,1-1.472-1.68l2.182-33.094a1.58,1.58,0,0,1,3.154.209l-2.182,33.092A1.58,1.58,0,0,1,237.184,210.6Z" transform="translate(-235.603 -174.346)" fill="#4396ca"/></g><g transform="translate(11.068 13.722)"><path d="M229.938,211.166a1.581,1.581,0,0,1-1.558-1.335l-5.273-33.455a1.581,1.581,0,1,1,3.124-.491l5.271,33.455a1.582,1.582,0,0,1-1.315,1.808A1.663,1.663,0,0,1,229.938,211.166Z" transform="translate(-223.087 -174.55)" fill="#4396ca"/></g><g transform="translate(23.433 13.356)"><path d="M233.222,210.6a1.58,1.58,0,0,1-1.578-1.5L230.009,176a1.58,1.58,0,1,1,3.156-.155l1.637,33.092a1.581,1.581,0,0,1-1.5,1.656C233.275,210.6,233.249,210.6,233.222,210.6Z" transform="translate(-230.007 -174.345)" fill="#4396ca"/></g><g transform="translate(3.978 23.904)"><path d="M273.066,183.409H220.7a1.581,1.581,0,0,1,0-3.161h52.367a1.581,1.581,0,0,1,0,3.161Z" transform="translate(-219.119 -180.248)" fill="#4396ca"/></g><g transform="translate(5.795 35.54)"><path d="M267.9,189.921H221.717a1.581,1.581,0,1,1,0-3.161H267.9a1.581,1.581,0,1,1,0,3.161Z" transform="translate(-220.136 -186.76)" fill="#4396ca"/></g></g><g transform="translate(213.345 127.895)"><circle cx="6.498" cy="6.498" r="6.498" fill="#4396ca"/></g><g transform="translate(193.852 141.242)"><circle cx="3.688" cy="3.688" r="3.688" fill="#025482"/></g><g transform="translate(273.93 180.227)"><circle cx="3.688" cy="3.688" r="3.688" fill="#025482"/></g><g transform="translate(333.462 192.168)"><path d="M256.541,161.936a2.458,2.458,0,1,1-2.459-2.459A2.459,2.459,0,0,1,256.541,161.936Z" transform="translate(-251.625 -159.477)" fill="#97e4ff"/></g><g transform="translate(267.784 128.247)"><path d="M224.353,128.446a4.742,4.742,0,1,1-4.742-4.741A4.742,4.742,0,0,1,224.353,128.446Z" transform="translate(-214.87 -123.705)" fill="#ffd56c"/></g><g transform="translate(224.105 117.933)"><circle cx="18.79" cy="18.79" r="18.79" transform="translate(0 36.679) rotate(-77.425)" fill="#97e4ff"/><g transform="translate(7.309 9.555)"><g transform="translate(0 9.766)"><path d="M201.34,142.393a6.823,6.823,0,1,1,6.822-6.822A6.83,6.83,0,0,1,201.34,142.393Zm0-11.538a4.716,4.716,0,1,0,4.716,4.716A4.721,4.721,0,0,0,201.34,130.855Z" transform="translate(-194.516 -128.746)" fill="#fff"/></g><g transform="translate(15.988 10.079)"><path d="M210.285,142.566a6.822,6.822,0,1,1,6.824-6.822A6.831,6.831,0,0,1,210.285,142.566Zm0-11.538A4.716,4.716,0,1,0,215,135.743,4.721,4.721,0,0,0,210.285,131.028Z" transform="translate(-203.463 -128.921)" fill="#fff"/></g><g transform="translate(6.259 7.62)"><path d="M208.987,137.352h-.013l-9.914-.118a1.053,1.053,0,0,1-.91-1.564l4.2-7.58a1.048,1.048,0,0,1,.851-.541,1.031,1.031,0,0,1,.917.422l5.715,7.7a1.053,1.053,0,0,1-.845,1.681Zm-8.138-2.2,6.025.07-3.474-4.676Z" transform="translate(-198.019 -127.545)" fill="#fff"/></g><g transform="translate(8.825 2.488)"><path d="M204.825,128.181a1.031,1.031,0,0,1-.325-.052l-4.315-1.4a1.054,1.054,0,1,1,.65-2l4.315,1.4a1.054,1.054,0,0,1-.325,2.057Z" transform="translate(-199.455 -124.673)" fill="#fff"/></g><g transform="translate(21.757 2.49)"><path d="M207.747,139.611a.866.866,0,0,1-.116-.007,1.054,1.054,0,0,1-.933-1.162l1.415-12.832a1.063,1.063,0,0,1,1.163-.931,1.051,1.051,0,0,1,.931,1.161l-1.413,12.832A1.056,1.056,0,0,1,207.747,139.611Z" transform="translate(-206.692 -124.674)" fill="#fff"/></g><g transform="translate(20.218)"><path d="M213.724,130.054a1.036,1.036,0,0,1-.591-.184l-6.842-4.664a1.054,1.054,0,0,1,1.187-1.742l6.842,4.666a1.054,1.054,0,0,1-.6,1.924Z" transform="translate(-205.83 -123.281)" fill="#fff"/></g><g transform="translate(17.228 15.319)"><rect width="5.583" height="2.107" fill="#fff"/></g><g transform="translate(10.575 3.539)"><path d="M201.488,131.683a1.054,1.054,0,0,1-1.054-1.052v-4.315a1.053,1.053,0,1,1,2.107,0v4.315A1.053,1.053,0,0,1,201.488,131.683Z" transform="translate(-200.434 -125.261)" fill="#fff"/></g></g></g><g transform="translate(255.14 155.642)"><path d="M231.326,150.8a11.766,11.766,0,1,1-11.767-11.765A11.766,11.766,0,0,1,231.326,150.8Z" transform="translate(-207.794 -139.036)" fill="#ffcb2f"/><g transform="translate(2.809 8.104)"><path d="M213.3,151.448a3.938,3.938,0,1,1,3.938-3.938A3.943,3.943,0,0,1,213.3,151.448Zm0-5.77a1.832,1.832,0,1,0,1.832,1.832A1.833,1.833,0,0,0,213.3,145.678Z" transform="translate(-209.366 -143.571)" fill="#fff"/><g transform="translate(9.333)"><path d="M218.527,151.448a3.938,3.938,0,1,1,3.938-3.938A3.943,3.943,0,0,1,218.527,151.448Zm0-5.77a1.832,1.832,0,1,0,1.832,1.832A1.834,1.834,0,0,0,218.527,145.678Z" transform="translate(-214.589 -143.571)" fill="#fff"/></g><g transform="translate(7.163 2.884)"><rect width="2.885" height="2.107" fill="#fff"/></g></g></g></g></svg>