<svg xmlns="http://www.w3.org/2000/svg" width="199.34" height="199.335" viewBox="0 0 199.34 199.335">
  <g id="Fill_Outline" data-name="Fill Outline" transform="translate(-1.999 -1.999)">
    <g id="Color" transform="translate(8.591 8.647)">
      <circle id="Elipse_4783" data-name="Elipse 4783" cx="23" cy="23" r="23" transform="translate(140.076 0.019)" fill="#31d9e7"/>
      <path id="Trazado_111354" data-name="Trazado 111354" d="M86.7,41.778A23.255,23.255,0,1,1,61.852,4.37,23.229,23.229,0,0,0,79.261,43.007,22.85,22.85,0,0,0,86.7,41.778Z" transform="translate(93.549 -3.141)" fill="#00b4d8"/>
      <circle id="Elipse_4784" data-name="Elipse 4784" cx="10" cy="10" r="10" transform="translate(153.076 13.019)" fill="#f9dbaf"/>
      <path id="Trazado_111355" data-name="Trazado 111355" d="M75.465,23.136a23.126,23.126,0,0,1-26.445,0A9.9,9.9,0,0,1,58.92,14h6.644A9.9,9.9,0,0,1,75.465,23.136Z" transform="translate(100.601 19.222)" fill="#f9dbaf"/>
      <path id="Trazado_111356" data-name="Trazado 111356" d="M69.505,20.555A9.967,9.967,0,1,1,57.08,8.13a10.3,10.3,0,0,0-.432,2.89,9.967,9.967,0,0,0,9.967,9.967,10.3,10.3,0,0,0,2.89-.432Z" transform="translate(102.872 5.591)" fill="#edb88e"/>
      <path id="Trazado_111357" data-name="Trazado 111357" d="M75.465,22.9a23.126,23.126,0,0,1-26.445,0,9.91,9.91,0,0,1,7.309-8.8,22.893,22.893,0,0,0,15.88,6.312,24.375,24.375,0,0,0,2.691-.166,9.967,9.967,0,0,1,.565,2.658Z" transform="translate(100.601 19.454)" fill="#edb88e"/>
      <path id="Trazado_111358" data-name="Trazado 111358" d="M75.465,21.109v.1a23.126,23.126,0,0,1-26.445,0,9.847,9.847,0,0,1,3.056-6.379,23.089,23.089,0,0,0,16.81,7.209A23.84,23.84,0,0,0,75.465,21.109Z" transform="translate(100.601 21.149)" fill="#da9367"/>
      <circle id="Elipse_4785" data-name="Elipse 4785" cx="23" cy="23" r="23" transform="translate(140.076 140.019)" fill="#31d9e7"/>
      <path id="Trazado_111359" data-name="Trazado 111359" d="M86.7,83.778A23.255,23.255,0,1,1,61.852,46.37,23.232,23.232,0,0,0,86.7,83.778Z" transform="translate(93.549 94.391)" fill="#00b4d8"/>
      <circle id="Elipse_4786" data-name="Elipse 4786" cx="10" cy="10" r="10" transform="translate(153.076 153.019)" fill="#f9dbaf"/>
      <path id="Trazado_111360" data-name="Trazado 111360" d="M75.465,65.136a23.126,23.126,0,0,1-26.445,0A9.9,9.9,0,0,1,58.92,56h6.644a9.9,9.9,0,0,1,9.9,9.136Z" transform="translate(100.601 116.754)" fill="#f9dbaf"/>
      <path id="Trazado_111361" data-name="Trazado 111361" d="M69.505,62.555A9.967,9.967,0,1,1,57.08,50.13a10.3,10.3,0,0,0-.432,2.89,9.967,9.967,0,0,0,9.967,9.967A10.3,10.3,0,0,0,69.505,62.555Z" transform="translate(102.872 103.123)" fill="#edb88e"/>
      <path id="Trazado_111362" data-name="Trazado 111362" d="M75.465,64.9a23.126,23.126,0,0,1-26.445,0,9.91,9.91,0,0,1,7.309-8.8,22.893,22.893,0,0,0,15.88,6.312,24.375,24.375,0,0,0,2.691-.166,9.967,9.967,0,0,1,.565,2.658Z" transform="translate(100.601 116.986)" fill="#edb88e"/>
      <path id="Trazado_111363" data-name="Trazado 111363" d="M75.465,63.109v.1a23.126,23.126,0,0,1-26.445,0,9.847,9.847,0,0,1,3.056-6.379,23.089,23.089,0,0,0,16.81,7.209,23.84,23.84,0,0,0,6.578-.93Z" transform="translate(100.601 118.681)" fill="#da9367"/>
      <circle id="Elipse_4787" data-name="Elipse 4787" cx="23" cy="23" r="23" transform="translate(0.076 0.019)" fill="#31d9e7"/>
      <path id="Trazado_111364" data-name="Trazado 111364" d="M44.7,41.778A23.255,23.255,0,1,1,19.852,4.37,23.229,23.229,0,0,0,37.261,43.007,22.85,22.85,0,0,0,44.7,41.778Z" transform="translate(-3.983 -3.141)" fill="#00b4d8"/>
      <circle id="Elipse_4788" data-name="Elipse 4788" cx="10" cy="10" r="10" transform="translate(13.076 13.019)" fill="#f9dbaf"/>
      <path id="Trazado_111365" data-name="Trazado 111365" d="M33.465,23.136a23.126,23.126,0,0,1-26.445,0A9.9,9.9,0,0,1,16.92,14h6.644a9.9,9.9,0,0,1,9.9,9.136Z" transform="translate(3.069 19.222)" fill="#f9dbaf"/>
      <path id="Trazado_111366" data-name="Trazado 111366" d="M27.505,20.555A9.967,9.967,0,1,1,15.08,8.13a10.3,10.3,0,0,0-.432,2.89,9.967,9.967,0,0,0,9.967,9.967A10.3,10.3,0,0,0,27.505,20.555Z" transform="translate(5.34 5.591)" fill="#edb88e"/>
      <path id="Trazado_111367" data-name="Trazado 111367" d="M33.465,22.9a23.126,23.126,0,0,1-26.445,0,9.91,9.91,0,0,1,7.309-8.8,22.893,22.893,0,0,0,15.88,6.312,24.376,24.376,0,0,0,2.691-.166,9.967,9.967,0,0,1,.565,2.658Z" transform="translate(3.069 19.454)" fill="#edb88e"/>
      <path id="Trazado_111368" data-name="Trazado 111368" d="M33.465,21.109v.1a23.126,23.126,0,0,1-26.445,0,9.847,9.847,0,0,1,3.056-6.379,23.089,23.089,0,0,0,16.81,7.209,23.84,23.84,0,0,0,6.578-.93Z" transform="translate(3.069 21.149)" fill="#da9367"/>
      <circle id="Elipse_4789" data-name="Elipse 4789" cx="23" cy="23" r="23" transform="translate(0.076 140.019)" fill="#31d9e7"/>
      <path id="Trazado_111369" data-name="Trazado 111369" d="M44.7,83.778A23.255,23.255,0,1,1,19.852,46.37,23.232,23.232,0,0,0,44.7,83.778Z" transform="translate(-3.983 94.391)" fill="#00b4d8"/>
      <circle id="Elipse_4790" data-name="Elipse 4790" cx="10" cy="10" r="10" transform="translate(13.076 153.019)" fill="#f9dbaf"/>
      <path id="Trazado_111370" data-name="Trazado 111370" d="M33.465,65.136a23.126,23.126,0,0,1-26.445,0A9.9,9.9,0,0,1,16.92,56h6.644a9.9,9.9,0,0,1,9.9,9.136Z" transform="translate(3.069 116.754)" fill="#f9dbaf"/>
      <path id="Trazado_111371" data-name="Trazado 111371" d="M27.505,62.555A9.967,9.967,0,1,1,15.08,50.13a10.3,10.3,0,0,0-.432,2.89,9.967,9.967,0,0,0,9.967,9.967,10.3,10.3,0,0,0,2.89-.432Z" transform="translate(5.34 103.123)" fill="#edb88e"/>
      <path id="Trazado_111372" data-name="Trazado 111372" d="M33.465,64.9a23.126,23.126,0,0,1-26.445,0,9.91,9.91,0,0,1,7.309-8.8,22.893,22.893,0,0,0,15.88,6.312,24.376,24.376,0,0,0,2.691-.166,9.967,9.967,0,0,1,.565,2.658Z" transform="translate(3.069 116.986)" fill="#edb88e"/>
      <path id="Trazado_111373" data-name="Trazado 111373" d="M33.465,63.109v.1a23.126,23.126,0,0,1-26.445,0,9.847,9.847,0,0,1,3.056-6.379,23.089,23.089,0,0,0,16.81,7.209,23.84,23.84,0,0,0,6.578-.93Z" transform="translate(3.069 118.681)" fill="#da9367"/>
      <path id="Trazado_111374" data-name="Trazado 111374" d="M118.263,32.179a33.082,33.082,0,0,0-46.786,0A33.084,33.084,0,1,0,24.69,78.969l35.089,35.089a16.541,16.541,0,0,0,23.395,0l35.089-35.089a33.086,33.086,0,0,0,0-46.79Z" transform="translate(21.6 38.936)" fill="#f17781"/>
      <path id="Trazado_111375" data-name="Trazado 111375" d="M103.711,92.719,83.147,113.283a16.5,16.5,0,0,1-23.388,0L24.676,78.2A33.132,33.132,0,0,1,39.527,22.82a57.188,57.188,0,0,0-1.3,12.226A58.158,58.158,0,0,0,96.369,93.184,59.264,59.264,0,0,0,103.711,92.719Z" transform="translate(21.624 39.704)" fill="#e36670"/>
      <path id="Trazado_111376" data-name="Trazado 111376" d="M43.644,48.289H37V35h6.644a6.644,6.644,0,0,1,0,13.289Z" transform="translate(72.688 67.988)" fill="#48cae4"/>
      <path id="Trazado_111377" data-name="Trazado 111377" d="M29.644,48.289h6.644V35H29.644a6.644,6.644,0,0,0,0,13.289Z" transform="translate(40.177 67.988)" fill="#48cae4"/>
      <g id="Grupo_62959" data-name="Grupo 62959" transform="translate(63.177 102.988)">
        <path id="Trazado_111378" data-name="Trazado 111378" d="M36.289,47.066v.9H29.644A6.694,6.694,0,0,1,23,41.319a6.617,6.617,0,0,1,4.251-6.179A57.55,57.55,0,0,0,36.289,47.066Z" transform="translate(-23 -34.675)" fill="#00b4d8"/>
        <path id="Trazado_111379" data-name="Trazado 111379" d="M49.425,44.9a6.744,6.744,0,0,1-5.781,3.389H37V35h6.644v3.322A6.661,6.661,0,0,0,49.425,44.9Z" transform="translate(9.511 -35)" fill="#00b4d8"/>
        <path id="Trazado_111380" data-name="Trazado 111380" d="M23.26,44.9a6.744,6.744,0,0,0,5.781,3.389h6.644V35H29.041v3.322A6.661,6.661,0,0,1,23.26,44.9Z" transform="translate(-22.396 -35)" fill="#00b4d8"/>
      </g>
      <path id="Trazado_111381" data-name="Trazado 111381" d="M35.685,44.466v.9H29.041a6.744,6.744,0,0,1-5.781-3.389,6.694,6.694,0,0,0,5.714-5.714,56.546,56.546,0,0,0,6.711,8.206Z" transform="translate(40.781 70.914)" fill="#0096c7"/>
      <path id="Trazado_111382" data-name="Trazado 111382" d="M45.933,78.833A19.933,19.933,0,0,1,26,58.9V48.933a19.933,19.933,0,0,1,39.866,0V58.9A19.933,19.933,0,0,1,45.933,78.833Z" transform="translate(47.144 54.055)" fill="#fcea42"/>
      <path id="Trazado_111383" data-name="Trazado 111383" d="M64.106,65.875A19.933,19.933,0,0,1,26,57.669V47.7A19.953,19.953,0,0,1,37.727,29.53a19.867,19.867,0,0,0-1.761,8.206V47.7A19.933,19.933,0,0,0,64.106,65.875Z" transform="translate(47.144 55.286)" fill="#fdc741"/>
      <path id="Trazado_111384" data-name="Trazado 111384" d="M55.036,56.6A19.933,19.933,0,0,1,26,38.859V37.63A58.082,58.082,0,0,0,55.036,56.6Z" transform="translate(47.144 74.095)" fill="#efad1b"/>
    </g>
    <g id="Outline_copy" data-name="Outline copy" transform="translate(1.999 1.999)">
      <path id="Trazado_111385" data-name="Trazado 111385" d="M188.284,150.876a99.3,99.3,0,0,0,0-98.433A26.488,26.488,0,0,0,194.1,18.072a3.323,3.323,0,1,0-5.671,3.465,19.79,19.79,0,0,1-2.226,23.7,13.332,13.332,0,0,0-4.681-4.787,13.289,13.289,0,1,0-20.179,0,13.289,13.289,0,0,0-4.681,4.787,19.893,19.893,0,0,1,23.285-31.335,3.323,3.323,0,0,0,2.85-6,26.475,26.475,0,0,0-31.893,7.156,99.5,99.5,0,0,0-88.922-4.82,3.324,3.324,0,0,0,2.658,6.093A92.865,92.865,0,0,1,147.365,20.7,26.459,26.459,0,0,0,174.756,58.25V88.379a9.967,9.967,0,0,1-9.967,9.967h-3.322a2.833,2.833,0,0,0-.332.07,36.381,36.381,0,0,0-59.467-23.159A36.016,36.016,0,0,0,85.057,67.45V45.191A16.631,16.631,0,0,0,68.446,28.58h-10.2A26.578,26.578,0,1,0,15.059,52.443a99.3,99.3,0,0,0,0,98.45,26.578,26.578,0,1,0,37.385,37.381,99.307,99.307,0,0,0,98.523-.04,26.428,26.428,0,0,0,40.092,1.093,3.322,3.322,0,0,0-4.837-4.528,13.372,13.372,0,0,0-4.7-4.814,13.289,13.289,0,1,0-20.179,0,13.355,13.355,0,0,0-4.678,4.781,19.933,19.933,0,1,1,34.441-10.189,3.322,3.322,0,1,0,6.559,1.06,26.455,26.455,0,0,0-9.382-24.76ZM171.434,25.258A6.644,6.644,0,1,1,164.79,31.9,6.644,6.644,0,0,1,171.434,25.258Zm-9.478,24.176a6.528,6.528,0,0,1,6.156-4.242h6.644a6.531,6.531,0,0,1,6.156,4.242,19.9,19.9,0,0,1-18.956,0ZM11.969,31.9a19.933,19.933,0,1,1,34.7,13.339,13.332,13.332,0,0,0-4.681-4.787,13.289,13.289,0,1,0-20.179,0,13.289,13.289,0,0,0-4.681,4.787A19.837,19.837,0,0,1,11.969,31.9ZM31.9,38.546A6.644,6.644,0,1,1,38.546,31.9,6.644,6.644,0,0,1,31.9,38.546ZM28.58,45.191h6.644a6.531,6.531,0,0,1,6.156,4.242,19.9,19.9,0,0,1-18.956,0,6.528,6.528,0,0,1,6.156-4.242ZM8.647,101.668A92.786,92.786,0,0,1,20.7,55.968,26.488,26.488,0,0,0,58.247,35.224h10.2a9.967,9.967,0,0,1,9.967,9.967V66.785a37.088,37.088,0,0,0-8.734,1.043,3.322,3.322,0,0,0,1.564,6.455,29.568,29.568,0,0,1,28.076,7.84,3.419,3.419,0,0,0,4.7,0,29.763,29.763,0,1,1,42.09,42.093l-35.093,35.075a13.538,13.538,0,0,1-18.694,0L57.23,124.2a29.528,29.528,0,0,1,3.176-44.793,3.322,3.322,0,1,0-3.987-5.315A35.654,35.654,0,0,0,42.2,98.416a2.992,2.992,0,0,0-.332-.07,16.631,16.631,0,0,0-16.611,16.611V145.73a26.106,26.106,0,0,0-4.558,1.638,92.786,92.786,0,0,1-12.053-45.7Zm13.777,87.3a6.528,6.528,0,0,1,6.156-4.242h6.644a6.531,6.531,0,0,1,6.156,4.242,19.9,19.9,0,0,1-18.956,0ZM31.9,178.079a6.644,6.644,0,1,1,6.644-6.644A6.644,6.644,0,0,1,31.9,178.079Zm24.066,4.561a26.342,26.342,0,0,0-1.4-25.036,3.323,3.323,0,0,0-5.671,3.465,19.79,19.79,0,0,1-2.226,23.7,13.332,13.332,0,0,0-4.681-4.787,13.289,13.289,0,1,0-20.179,0,13.289,13.289,0,0,0-4.681,4.787,19.893,19.893,0,0,1,23.285-31.335,3.323,3.323,0,1,0,2.85-6A26.3,26.3,0,0,0,31.9,144.857v-29.9a9.967,9.967,0,0,1,9.967-9.967c.03,0,.056-.017.09-.017a36.106,36.106,0,0,0,10.575,23.92l35.089,35.1a19.71,19.71,0,0,0,10.867,5.545,16.578,16.578,0,0,0,16.468,15.189h28.571a92.762,92.762,0,0,1-87.55-2.083Zm121.047,7.927a19.857,19.857,0,0,1-15.053-1.621,6.531,6.531,0,0,1,6.149-4.223h6.644a6.531,6.531,0,0,1,6.139,4.2,19.672,19.672,0,0,1-3.88,1.644Zm-5.581-25.777a6.644,6.644,0,1,1-6.644,6.644A6.644,6.644,0,0,1,171.434,164.79Zm-7.412-18.88a26.521,26.521,0,0,0-18.279,32.169H114.957a9.947,9.947,0,0,1-9.827-8.588,19.7,19.7,0,0,0,10.581-5.5L150.8,128.91a36.106,36.106,0,0,0,10.575-23.92c.033,0,.056.017.09.017h3.322A16.631,16.631,0,0,0,181.4,88.4V57.1a2.988,2.988,0,0,0-.11-.538c.458-.183.9-.385,1.345-.595a92.663,92.663,0,0,1,0,91.387,26.322,26.322,0,0,0-18.614-1.445Z" transform="translate(-1.999 -1.999)" fill="#47286d"/>
      <path id="Trazado_111386" data-name="Trazado 111386" d="M31.967,67.86h3.322a3.322,3.322,0,0,0,3.322-3.322V51.249a16.611,16.611,0,1,1,33.222,0V64.538A13.289,13.289,0,0,1,58.544,77.826a4.727,4.727,0,0,1-3.322-1.375l-.973-.973a3.322,3.322,0,1,0-4.7,4.7l.974.97a11.239,11.239,0,0,0,8.02,3.326A19.953,19.953,0,0,0,78.178,67.86h.3a9.967,9.967,0,0,0,0-19.933h-.266a23.225,23.225,0,0,0-45.979,0h-.266a9.967,9.967,0,0,0,0,19.933ZM81.8,57.893a3.322,3.322,0,0,1-3.322,3.322V54.571A3.322,3.322,0,0,1,81.8,57.893ZM31.967,54.571v6.644a3.322,3.322,0,1,1,0-6.644Z" transform="translate(44.447 58.387)" fill="#47286d"/>
      <circle id="Elipse_4791" data-name="Elipse 4791" cx="3.322" cy="3.322" r="3.322" transform="translate(88.041 106.314)" fill="#47286d"/>
      <circle id="Elipse_4792" data-name="Elipse 4792" cx="3.322" cy="3.322" r="3.322" transform="translate(104.652 106.314)" fill="#47286d"/>
      <path id="Trazado_111387" data-name="Trazado 111387" d="M37.619,38.971a1.369,1.369,0,0,1-1.947,0,3.324,3.324,0,1,0-4.7,4.7,8.036,8.036,0,0,0,11.342,0,3.324,3.324,0,1,0-4.7-4.7Z" transform="translate(63.023 81.601)" fill="#47286d"/>
    </g>
  </g>
</svg>
