<svg xmlns="http://www.w3.org/2000/svg" xmlns:xlink="http://www.w3.org/1999/xlink" width="265.647" height="170.858" viewBox="0 0 265.647 170.858"><defs><clipPath id="a"><path d="M109.338,104.315a31.058,31.058,0,1,0,62.116,0c0-17.153-13.905-37.09-31.058-37.09S109.338,87.161,109.338,104.315Z" transform="translate(-109.338 -67.225)" fill="none"/></clipPath></defs><g transform="translate(-63.967)"><path d="M72.3,217.757a60.923,60.923,0,0,0,50.951,27.081H292.809c34.081,0,53.192-39.847,31.089-62.285s-2.58-41.6-36.672-59.594c-33.028-17.431-44.3,19.725-74.731-4.587s-74.724-22.019-84.456,2.752-7.439,33.488-28.081,38.992-40.826,36.7-28.441,56.422Q71.9,217.155,72.3,217.757Z" transform="translate(-3.759 -77.058)" fill="#bb83ff" opacity="0.21"/><g transform="translate(73.894 88.237)"><g transform="translate(2.186 47.944)"><path d="M481.773,371.7c17.862,1.515,29.9,35,74.556,14.872,0,0-4.9-14.617-26.867-23.727S481.773,371.7,481.773,371.7Z" transform="translate(-481.773 -360.267)" fill="#cddcf4"/><path d="M556.831,397.53A124.427,124.427,0,0,0,542.4,391.2c-1.229-.472-2.474-.9-3.724-1.31-1.244-.431-2.5-.813-3.763-1.2s-2.531-.733-3.8-1.077c-.637-.169-1.271-.35-1.91-.51l-1.923-.462-1.928-.442-1.941-.382-1.942-.381c-.648-.124-1.3-.22-1.953-.319-1.306-.192-2.607-.412-3.922-.538s-2.62-.326-3.941-.375a66.01,66.01,0,0,0-15.766.582,106.559,106.559,0,0,1,15.63.82l.969.11.965.148,1.931.282c1.29.166,2.567.424,3.847.655.639.125,1.283.215,1.92.348l1.911.4,1.911.4,1.9.455,1.9.435c.633.151,1.262.323,1.893.484l1.892.489c.632.16,1.254.356,1.884.521,1.257.345,2.517.682,3.762,1.069s2.5.735,3.747,1.134C546.93,394.083,551.873,395.793,556.831,397.53Z" transform="translate(-488.372 -373.733)" fill="#b0bdd1"/></g><g transform="translate(0 2.267)"><path d="M462.85,254.728c21.794,15.579,11.712,67.788,84.445,76.009,0,0,4.855-22.522-16.413-50.991S462.85,254.728,462.85,254.728Z" transform="translate(-462.85 -254.597)" fill="#dbe9ff"/><path d="M539.079,334.786a122.227,122.227,0,0,0-11.493-19.6,138,138,0,0,0-14.681-17.437,120.951,120.951,0,0,0-17.485-14.66,78.631,78.631,0,0,0-20.273-10.286,126.513,126.513,0,0,1,18.817,12.277,181.892,181.892,0,0,1,16.7,14.9,223.685,223.685,0,0,1,14.963,16.693C530.342,322.5,534.771,328.562,539.079,334.786Z" transform="translate(-459.474 -264.935)" fill="#cddcf4"/></g><g transform="translate(161.785 45.618)"><path d="M188.732,363.99c-17.712,2.769-27.364,37.016-73.324,20.085,0,0,3.861-14.925,25.13-25.56S188.732,363.99,188.732,363.99Z" transform="translate(-115.408 -354.885)" fill="#cddcf4"/><path d="M132.794,392.962c4.824-2.083,9.633-4.137,14.5-6.037,1.212-.485,2.44-.929,3.658-1.4s2.448-.9,3.678-1.332c.617-.209,1.224-.448,1.842-.652l1.853-.621c.618-.2,1.233-.42,1.854-.616l1.868-.568,1.863-.587,1.878-.531,1.879-.53c.626-.177,1.263-.312,1.891-.482,1.26-.321,2.516-.669,3.791-.925l1.907-.417.952-.216.959-.178a106.589,106.589,0,0,1,15.533-1.919,66.022,66.022,0,0,0-15.768.53c-1.315.142-2.6.423-3.905.651s-2.585.529-3.874.812c-.644.145-1.289.287-1.926.456l-1.91.517-1.91.518-1.892.576-1.886.6c-.626.2-1.246.429-1.87.643-1.244.434-2.495.851-3.717,1.343s-2.458.946-3.669,1.464c-1.217.5-2.43,1.012-3.623,1.57A124.351,124.351,0,0,0,132.794,392.962Z" transform="translate(-126.888 -366.701)" fill="#b0bdd1"/></g><g transform="translate(147.359 0)"><path d="M218.622,249.353c-19.626,16.233-6.569,65.071-74.993,77.735,0,0-6.112-21.034,12.151-49.455S218.622,249.353,218.622,249.353Z" transform="translate(-142.646 -249.353)" fill="#dbe9ff"/><path d="M175.834,331.819c3.7-6.177,7.506-12.211,11.592-18.041,4.1-5.816,8.439-11.447,13.08-16.815a175.445,175.445,0,0,1,14.823-15.252,122.221,122.221,0,0,1,16.984-12.948,74.052,74.052,0,0,0-18.576,11.065A114.024,114.024,0,0,0,198.116,294.9a130,130,0,0,0-12.747,17.537A114.462,114.462,0,0,0,175.834,331.819Z" transform="translate(-170.683 -260.372)" fill="#cddcf4"/></g></g><g transform="translate(98.557 53.912)"><g transform="translate(59.772 54.403)"><path d="M389.637,354.532c2.457,2.917,4.684,7.754,6.065,8.522s3.712,1.035,5.914,8.123-8.915,6.117-8.915,6.117a16.4,16.4,0,0,1-6.673-9.326l-4.76-4.223Z" transform="translate(-366.153 -329.145)" fill="#f6a397"/><path d="M406.442,387.11a17.82,17.82,0,0,1-6.65-4.4c-3.064-3.236-3.459-8.993-3.459-8.993l-1.467,2.742-2.935-3.137-1.415-.137-1.043,1.148,4.761,4.223a16.4,16.4,0,0,0,6.673,9.326,17.672,17.672,0,0,0,5.657-.506C406.5,387.213,406.442,387.11,406.442,387.11Z" transform="translate(-374.358 -339.738)" fill="#d65863"/><path d="M408.387,295.8c3.405,2.489,5.437,4.3,7.13,7.682s12.3,15.553,12.982,16.638-5.964,12.6-11.279,15.421c0,0-8.025-9.256-12.652-12.756s-3.048-15.916-.9-20.093A32.626,32.626,0,0,1,408.387,295.8Z" transform="translate(-401.57 -295.802)" fill="#f17781"/><path d="M424.929,338.529v-6.911s-.9-.361-1.6,1.972a6.4,6.4,0,0,0-.134,2.759l-5.166-3.886c-.214,4.35.484,8.774,2.961,10.646,4.628,3.5,12.652,12.756,12.652,12.756a16.758,16.758,0,0,0,4.229-3.593C434.6,349.018,428.4,342.738,424.929,338.529Z" transform="translate(-417.988 -316.124)" fill="#bf535c"/><path d="M369.68,400.874c.884.276,1.536.7,1.536,1.811a9.024,9.024,0,0,1-.614,3.571c-.422.691-2.6,1.1-2.6,1.1s.146-4.6.606-5.443A2.15,2.15,0,0,1,369.68,400.874Z" transform="translate(-329.728 -355.455)" fill="#f6a397"/><path d="M371.327,412.267a3.108,3.108,0,0,0,.3-.8,1.489,1.489,0,0,1-1.212.53l-1.656.516c-.025.517-.036.863-.036.863S370.9,412.958,371.327,412.267Z" transform="translate(-330.453 -361.467)" fill="#d65863"/><path d="M373.459,396.983a2.268,2.268,0,0,1,2.15,2.035c0,1.113.384,4.223,0,4.722a9.081,9.081,0,0,1-2.918,2.035c-.652.115-1.761-.077-1.61-.422S373.459,396.983,373.459,396.983Z" transform="translate(-335.618 -353.246)" fill="#f6a397"/><path d="M375.508,410.68c-.815.92-2.9.837-2.9.837a8.312,8.312,0,0,0-1.029,1.292c-.068.19-.443.44-.495.633a2.94,2.94,0,0,0,1.342.108,9.127,9.127,0,0,0,2.89-2l.191-.866Z" transform="translate(-335.353 -361.022)" fill="#d65863"/><path d="M377.1,392.734c3.3.186,3.912.493,4.028,1.837s.038,5.259-.384,6.257a7.862,7.862,0,0,1-1.19,2.419,2.1,2.1,0,0,1-1.341.539,11.5,11.5,0,0,1-1.883-4.877A34.173,34.173,0,0,1,377.1,392.734Z" transform="translate(-343.286 -350.834)" fill="#f6a397"/><path d="M378.456,406.527a20.018,20.018,0,0,1-.585-4.936c-.018-1.146-1.081,4.841-.606,6.484.236.408.406.657.406.657a2.1,2.1,0,0,0,1.341-.539,7.862,7.862,0,0,0,1.19-2.419,1.953,1.953,0,0,0,.078-.232A1.952,1.952,0,0,1,378.456,406.527Z" transform="translate(-342.745 -355.78)" fill="#d65863"/><path d="M382.682,398.072c.208,1.835,2.61,2.5,2.879,3.417s.077,1.766.537,2,2.381-.844,2.3-2.073a2.39,2.39,0,0,0,1.612,1.229c1.113.192,1.382-.622,1.19-1.846a15.593,15.593,0,0,1-.115-3.337c.038-1.458.384-2.8-.269-4.415s-1.535-3.033-3.3-2.764-2.841,2.5-3.8,3.263S382.452,396.037,382.682,398.072Z" transform="translate(-356.089 -349.421)" fill="#f6a397"/><path d="M392.329,406.066c-.108-2.333-.23-4.242-.23-4.619s.122-2.853-.758-3c-.134-.023-2.07,1.2-2.107,2.032s0,2.314.6,2.737A26.876,26.876,0,0,1,392.329,406.066Z" transform="translate(-360.016 -354.076)" fill="#d65863"/></g><g transform="translate(12.085 30.648)"><path d="M443.714,287.362c3.5-4.44,4.7-4.892,8.315-7s17.309-7.451,20.131-8.127,14.2,4.628,17.939,6.321,8.487,3.359,9.3,5.009c2.71,5.524-2.658,13.353-2.686,29.758-.015,8.593-1.973,27.915-1.973,27.915s-43.008.08-43.61-.823-2.107-31.758-2.859-38.079S443.714,287.362,443.714,287.362Z" transform="translate(-443.714 -258.633)" fill="#f17781"/><line y1="6.378" x2="0.922" transform="translate(55.524 27.205)" fill="none" stroke="#bf535c" stroke-miterlimit="10" stroke-width="1"/><path d="M467.9,299.032c1.662-.621,5.6.459,6.318.709s-.424-2.826-.847-3.207a2.246,2.246,0,0,0-2.4-.867,5.045,5.045,0,0,0-2.578,2.377A6.95,6.95,0,0,1,467.9,299.032Z" transform="translate(-428.459 -271.913)" fill="#bf535c"/><path d="M487.388,302.78a37.153,37.153,0,0,0,4.878-2.013c.828-.4,4.578-.58,7.1.124,0,0-4.847-3.275-7.67-3.247s-3.894,1.044-4.12,1.947A18.7,18.7,0,0,0,487.388,302.78Z" transform="translate(-461.793 -273.092)" fill="#bf535c"/><path d="M495.841,361.975c-.462-.452-28.549.451-29.113-2.483s-.953-8.273-.953-8.273c3.381,1.806,8.29,1.054,8.29,1.054-3.274-1.069-8.015-6.44-8.24-8.021-.7-4.868,1.905-18.291,1.905-18.291l-1.905-3.834-2.23-1.242a30.95,30.95,0,0,0-7.843,5.979,30.432,30.432,0,0,1,.559,3.127c.709,5.96,2.088,33.722,2.747,37.636,8.7.321,24.47.9,35.022,1.26,5.113.012,8.7.006,8.7.006s.066-2.542.22-6.186C500.056,362.535,496.128,362.255,495.841,361.975Z" transform="translate(-451.757 -286.288)" fill="#bf535c"/><path d="M481.665,285.127c-3.031-.366-7.9-2.992-9.821-2.088s-2.371,3.217-2.766,3.612-2.088-1.58-2.088-6.434-.149-9.824,3.425-10.5,12.83,2.824,14.693,4.235a8.792,8.792,0,0,1,3.161,4.214c.508,1.374,1.863,6.9,1.241,6.962s-2.371-3.556-3.669-3.669S482.485,285.226,481.665,285.127Z" transform="translate(-443.285 -257.188)" fill="#d55d67"/><path d="M480.058,285.766c.772-1.835,1.619-3.443,1.591-4.713s-.311-2.145-1.722-2.54-2,.367-2.088,2.286S480.058,285.766,480.058,285.766Z" transform="translate(-439.953 -262.174)" fill="#bf535c"/><path d="M510.2,277.847c-2.951-2.676-3.284-5.667-3.007-6.288s1.5-1.072,1.5-1.072.48,1.947.2,2.427S510.2,277.847,510.2,277.847Z" transform="translate(-481.161 -257.674)" fill="#bf535c"/><path d="M506.311,295.4c-1.8-.683-4.822-1.448-5.792-.421a7.965,7.965,0,0,0-1.68,2.322c-.47.92-.644,1.778-1.736-.5S496.28,290,496.28,290" transform="translate(-472.575 -268.755)" fill="none" stroke="#bf535c" stroke-miterlimit="10" stroke-width="1"/><path d="M466.908,298.341s1.468-1.672,2.059-1.319a5.947,5.947,0,0,1,2.23,2.3c.926,1.493,2.034,2.227,1.08-1.534" transform="translate(-426.223 -272.712)" fill="none" stroke="#bf535c" stroke-miterlimit="10" stroke-width="1"/><path d="M494.124,253.413c-.006,1.193-.054,2.382-.178,3.568-.3,2.91-.006,6.749-.236,7.457-.257.79-1.781,3.612-1.781,3.612a13.621,13.621,0,0,1-3.838-2.6c-1.129-1.355-2.6-1.423-4.572-3.42s-3.319-5.17-2.878-7.811c.057-.339.4-3.719.48-7.218s3.753-6.158,7.253-6.158,5.594,5.193,5.7,8.692C494.122,250.974,494.13,252.322,494.124,253.413Z" transform="translate(-453.605 -240.846)" fill="#f6a397"/><path d="M481.12,248.25c-.077,3.5-.423,6.88-.48,7.218a7.175,7.175,0,0,0,.07,2.551c.774.143,10.74.383,13.322-.819.059-.845.086-1.693.091-2.542.006-1.091,0-2.439-.047-3.875a13.194,13.194,0,0,0-1.167-4.837l-8.2-2.906A6.28,6.28,0,0,0,481.12,248.25Z" transform="translate(-453.605 -242.092)" fill="#d65863"/></g><g transform="translate(30.777)"><path d="M454.891,221.383a6.914,6.914,0,0,1,7.277,7.116c0,2.736-.877,7.116-7.277,7.116-3.2,0-5.366-3.186-5.366-7.116S451.691,221.383,454.891,221.383Z" transform="translate(-426.926 -199.149)" fill="#504984"/><path d="M457.158,225.414a5.221,5.221,0,0,1,5.495,5.373c0,2.066-.662,5.373-5.495,5.373-2.416,0-4.052-2.406-4.052-5.373S454.742,225.414,457.158,225.414Z" transform="translate(-428.959 -201.437)" fill="#372d5b"/><path d="M478.994,205.461c-.313,1.855-1.231,2.564-1.641,5.066s.684,6.136-.947,9.3-4.27,7.328-5.794,7.5-13.732-1.886-17.85-10.077c-1.182-2.351-3.709-11.571-1.547-17.2s5.68-10.788,13.809-10.945S480.652,195.628,478.994,205.461Z" transform="translate(-444.348 -180.824)" fill="#f6a397"/><path d="M465.962,248.661a1.431,1.431,0,0,1-1.125-.44,1.151,1.151,0,0,1-.211-.885,2.618,2.618,0,0,0,2.2.477C466.92,248.4,466.47,248.649,465.962,248.661Z" transform="translate(-438.115 -213.883)" fill="#d65863"/><path d="M454.56,194.582a5.451,5.451,0,0,1,1.6-3.044,23.823,23.823,0,0,1,5.511-1.524,31.655,31.655,0,0,0,4.866-.938,6.663,6.663,0,0,1-2.052,2.753s5.745-.291,7.562-1.991c0,0-.351,1.4-.7,2.342,0,0,2.814-.29,3.693-1.4a19.014,19.014,0,0,1,.7,3.806s3.381-4.627,2.521-8.3a13.2,13.2,0,0,0-2.033-5.08,18.669,18.669,0,0,0,3.752,0s-3.127-2.736-5.472-4.534-9.379-1.876-9.379-1.876a10.851,10.851,0,0,0-.078-4.846s-3.009,4.416-6.194,5.765a26.433,26.433,0,0,1-6.134,2.086,15.521,15.521,0,0,0-7.936,4.831c-1.348,1.817-2.814,3.693-3.693,3.986a7.71,7.71,0,0,0,3.165-1.173,11.889,11.889,0,0,0,.566,9.141c2.326,5.144,8.152,3.622,9.282,2.486A2.211,2.211,0,0,0,454.56,194.582Z" transform="translate(-441.094 -169.946)" fill="#ba6454"/><path d="M499.644,205.839a2.211,2.211,0,0,0,.452-2.486,5.508,5.508,0,0,1,1.135-2.538,34.289,34.289,0,0,1,1-15.421,17.7,17.7,0,0,1-2.669.843,28.9,28.9,0,0,0-3.529,7.658,19.056,19.056,0,0,0-.564,10.507,11.447,11.447,0,0,0,1.052,2.537A5.583,5.583,0,0,0,499.644,205.839Z" transform="translate(-486.63 -178.716)" fill="#874438"/><path d="M494.575,200.217s-.4-12.858,6.34-16.961a8.792,8.792,0,0,0-8.207,4.631,21.293,21.293,0,0,0-2.712,12.2C490.07,202.6,494.575,200.217,494.575,200.217Z" transform="translate(-483.152 -177.491)" fill="#504984"/><path d="M504.244,221.383a6.914,6.914,0,0,0-7.276,7.116c0,2.736.877,7.116,7.276,7.116,3.2,0,5.367-3.186,5.367-7.116S507.444,221.383,504.244,221.383Z" transform="translate(-494.877 -199.149)" fill="#504984"/><path d="M512.91,229.548c0-3.489-2.3-6.317-5.143-6.317s-4.987,2.828-4.987,6.317,2.147,6.317,4.987,6.317S512.91,233.037,512.91,229.548Z" transform="translate(-500.688 -200.198)" fill="#372d5b"/><ellipse cx="3.5" cy="4.299" rx="3.5" ry="4.299" transform="translate(2.899 25.051)" fill="#504984"/><g transform="translate(22.706 36.466)"><path d="M463.371,254.307c1.431.788,6.1,1.05,6.423,1.007s-.335,3.505-1.479,3.636-3.434-.175-4.388-1.094S463.371,254.307,463.371,254.307Z" transform="translate(-463.289 -254.307)" fill="#d65863"/><path d="M464.1,255.633c.088-.315.157-.568.224-.814a25.287,25.287,0,0,0,5.629.788,6.6,6.6,0,0,1-.408,1.427c-.03-.02.007.045-.023.026A6.965,6.965,0,0,1,464.1,255.633Z" transform="translate(-463.721 -254.598)" fill="#fff"/></g><path d="M478.3,233.141c0-.648-.319-1.173-.713-1.173s-.714.525-.714,1.173.319,1.172.714,1.172S478.3,233.788,478.3,233.141Z" transform="translate(-454.881 -205.158)" fill="#3f1751"/><path d="M459.22,234.406c0-.648-.274-1.172-.613-1.172s-.613.525-.613,1.172.274,1.173.613,1.173S459.22,235.054,459.22,234.406Z" transform="translate(-427.64 -205.877)" fill="#3f1751"/><path d="M471.424,222.958a7.475,7.475,0,0,1,3.222-.859,4.15,4.15,0,0,1,1.713.168,3.148,3.148,0,0,1,1.415.989l-.042.07c-.588-.064-1.075-.208-1.589-.276s-.989-.259-1.514-.3a9.083,9.083,0,0,0-3.172.283Z" transform="translate(-451.998 -199.546)" fill="#3f1751"/><path d="M456.309,226.243a3.2,3.2,0,0,0-.788-.191,6.562,6.562,0,0,0-.794-.052,3.488,3.488,0,0,1-.787.028,2.32,2.32,0,0,1-.4-.111,1.631,1.631,0,0,1-.426-.212l-.009-.081a1.534,1.534,0,0,1,.837-.408,1.982,1.982,0,0,1,.874.141,4.1,4.1,0,0,1,.83.309,2.7,2.7,0,0,1,.714.514Z" transform="translate(-422.666 -201.316)" fill="#3f1751"/></g><g transform="translate(0 57.919)"><path d="M419.874,412.734c0,.182.251.444.872.444h19.576c2.258,0,2.784-.893,2.107-2.022s-3.537-3.612-10.611-5.343-10.794,2.316-11.943,4.139A2.863,2.863,0,0,0,419.874,412.734Z" transform="translate(-363.705 -361.536)" fill="#504984"/><path d="M442.6,413.857c-.389,1.3-15.326.62-15.326.62s1.515-2.046,3.189-2.1,2.489.523,4.735.91.581-.914.581-.914a7.583,7.583,0,0,0,2.232-.852s-3.7-1.094-5.252-1.347a35,35,0,0,0-6.011,0c-.359.06-2.182-1-4.386-.467a9.856,9.856,0,0,0-2.482,2.612,2.863,2.863,0,0,0,0,2.782c0,.182.251.444.872.444h19.576C442.354,415.54,442.983,414.82,442.6,413.857Z" transform="translate(-363.713 -363.898)" fill="#372d5b"/><path d="M442.942,380.983s13.921,2.153,21.466,3.5c7.148,1.279,13.32,1.835,15.07,1.5a93.591,93.591,0,0,0,9.652-3.33c1.919-.79,5.757-1.242,7.732-.621a25.741,25.741,0,0,0,4.384,1.3c.79,0,.64,1.279-.414,1.543a7.9,7.9,0,0,1-1.994.226s3.574,1.956,4.214,2.145-.118,1.354-.984,1.279c0,0,.758.452.494.9s-2.144.452-2.144.452,2.3,1.129.376,1.58-4.214-1.693-5.155-1.881a6.494,6.494,0,0,0-4.177.715c-1.053.79-5.569,4.44-11.739,2.258,0,0-41.885,1.7-46.061,1.7s-6.7-3.691-5.36-10.8a54,54,0,0,1,3.935-12.417l14.449,1.016Z" transform="translate(-427.941 -342.025)" fill="#f6a397"/><g transform="translate(66.752 41.794)"><path d="M446.717,400.77a5.7,5.7,0,0,0-.847-.149S446.227,400.683,446.717,400.77Z" transform="translate(-445.87 -400.621)" fill="#d65863"/><path d="M435.373,402.1a7.9,7.9,0,0,0,1.994-.226,1.258,1.258,0,0,0,.671-.413,5.567,5.567,0,0,1-3.4,0c-.5-.119-1.723-.342-2.559-.491A19.586,19.586,0,0,1,435.373,402.1Z" transform="translate(-431.228 -400.817)" fill="#d65863"/></g><g transform="translate(70.496 44.678)"><path d="M438.884,407.382a2.2,2.2,0,0,0-.217-.088Z" transform="translate(-438.667 -407.294)" fill="#d65863"/><path d="M432.9,408.788c-.013.012-.427.376-1.3,0-.724-.315-2.482-1.037-3.095-1.288.77.35,2.859,1.529,3.414,1.731A1.208,1.208,0,0,0,432.9,408.788Z" transform="translate(-428.292 -407.41)" fill="#d65863"/></g><path d="M435.025,411.294c-.639-.188-1.975-1-2.794-1.384a5.626,5.626,0,0,0-1.863-.432,3.976,3.976,0,0,1,1.129.432c.818.4,3.063,1.8,3.063,1.8a6.9,6.9,0,0,0,1.822-.233A5.351,5.351,0,0,1,435.025,411.294Z" transform="translate(-362.084 -363.856)" fill="#d65863"/><path d="M507.954,412.783a12.576,12.576,0,0,1-6.773,1.3,3.181,3.181,0,0,1-2.54-2.144l-.584,1.881s-29.048.828-34.955.562c-5.84-.262-14.948-.4-16.138-3.9.326,4.071,2.532,6.167,5.677,6.167,4.176,0,46.061-1.7,46.061-1.7,6.171,2.182,10.686-1.467,11.739-2.258a6.222,6.222,0,0,1,3.6-.782h0C512.444,411.345,509.14,412.049,507.954,412.783Z" transform="translate(-446.921 -364.423)" fill="#d65863"/><path d="M571.354,388.5s-5.443-.74-6.534-.852l.828-3.387,6.886,1.392Z" transform="translate(-556.353 -349.536)" fill="#d65863"/><path d="M536.426,333.415a1.413,1.413,0,0,0,.332,1.523c2.53,2.47,5.85,5.834,9.265,6.351,3.725.564,9.934.79,10.272,0s1.58-10.837,3.838-15.916,3.725-7.676,4.289-10.611-4.515-9.821-6.773-10.385-7.45-.9-9.595,1.016-3.725,9.256-6.209,14.787C539.842,324.644,537.324,331.091,536.426,333.415Z" transform="translate(-535.97 -303.935)" fill="#f17781"/><path d="M538.328,304.317a18.815,18.815,0,0,1,7.252.1c3.494.866,5.953,6.886,5.953,6.886" transform="translate(-523.9 -303.974)" fill="none" stroke="#bf535c" stroke-miterlimit="10" stroke-width="1"/><path d="M580.955,340.754c.019-1.8,3.827-18.338,7.192-27.555h0c-1.43,3.149-2.767,8.18-4.59,12.24-2,4.464-4.522,10.911-5.42,13.235a1.412,1.412,0,0,0,.332,1.523c.969.946,2.055,2.023,3.216,3.021A3.354,3.354,0,0,1,580.955,340.754Z" transform="translate(-577.68 -309.195)" fill="#bf535c"/></g></g><g transform="translate(261.256 113.701)"><g transform="translate(10.303 8.746)"><path d="M186.426,330.81a2.661,2.661,0,0,1-.318,1.608,11.552,11.552,0,0,0-1.42,5.894,13.215,13.215,0,0,1-.048,4.021c-.632,2.237-2.993,3.62-3.753,5.817-.673,1.948-.047,4.4-1.447,5.91a1.309,1.309,0,0,1-1.36.472,1.658,1.658,0,0,1-.586-.487c-1.605-1.823-3.323-4.038-2.828-6.416.465-2.234,2.767-3.743,3.2-5.983.356-1.83-.579-3.941.469-5.482.289-.425.7-.75,1.019-1.156,1.247-1.6.785-4.153,2.221-5.586a3.313,3.313,0,0,1,1.694-.869,2.631,2.631,0,0,1,3.152,2.256Z" transform="translate(-174.579 -328.496)" fill="#ba5e5b"/><g transform="translate(2.537 2.988)"><path d="M182.049,363.116c-.1-1.191-.137-2.383-.182-3.579.054-1.191.118-2.383.22-3.574s.236-2.381.447-3.565a15.178,15.178,0,0,1,.991-3.484c.865-2.186,1.563-4.47,2.269-6.735l1.024-3.414q.631-1.673,1.228-3.358c-.174,1.184-.445,2.347-.683,3.518l-1.026,3.421c-.711,2.276-1.4,4.547-2.288,6.787a14.577,14.577,0,0,0-.957,3.364c-.206,1.158-.338,2.335-.44,3.514s-.169,2.364-.214,3.549Z" transform="translate(-181.867 -335.408)" fill="#ffa6a4"/><path d="M183.937,342.269a2.8,2.8,0,0,1-.721.718,4.21,4.21,0,0,1-.456.231,1.734,1.734,0,0,0-.414.287l-.054.049-.048-.074c-.113-.173-.252-.335-.36-.511s-.216-.353-.309-.537a4.188,4.188,0,0,1-.386-1.189l.034-.017a4.209,4.209,0,0,1,.714,1.026c.09.185.163.38.241.571s.119.4.189.6l-.1-.025a1.74,1.74,0,0,0,.4-.311,4.127,4.127,0,0,1,.355-.366,2.8,2.8,0,0,1,.9-.478Z" transform="translate(-177.464 -338.71)" fill="#ffa6a4"/><path d="M186.236,351.562c-.2.169-.415.351-.637.5a5.283,5.283,0,0,1-.688.428c-.245.118-.505.211-.741.344a4.572,4.572,0,0,0-.664.468l-.074.061-.075-.1a11.885,11.885,0,0,1-.87-1.346,8.519,8.519,0,0,1-.628-1.483l.033-.019a8.487,8.487,0,0,1,.947,1.3,12,12,0,0,1,.7,1.44l-.15-.038a4.869,4.869,0,0,0,.714-.39c.224-.152.424-.343.641-.508a4.708,4.708,0,0,1,.7-.414,3.137,3.137,0,0,1,.78-.287Z" transform="translate(-180.053 -343.931)" fill="#ffa6a4"/><path d="M189.456,365.144a3.443,3.443,0,0,1-.733.543,2.78,2.78,0,0,1-.833.331,2.158,2.158,0,0,0-.806.386c-.239.182-.473.382-.712.539l-.181.118-.134-.2a5.7,5.7,0,0,1-.517-.932,4.963,4.963,0,0,1-.334-1.033l.042-.023a4.964,4.964,0,0,1,.694.835,5.689,5.689,0,0,1,.51.936l-.315-.083a5.4,5.4,0,0,1,.851-.338,2.452,2.452,0,0,0,.786-.438,2.552,2.552,0,0,1,.775-.46,3.149,3.149,0,0,1,.888-.223Z" transform="translate(-184.721 -352.136)" fill="#ffa6a4"/></g></g><g transform="translate(0)"><path d="M203.073,347.938c-.931-.153-4.422-1.27-4.179-2.182,1.047-3.913,2.093-8.352-1.531-10.266-1.744-.921-3.933-1.389-4.926-3.093-1.023-1.755-.27-3.986.648-5.8s2.023-3.752,1.63-5.745c-.411-2.087-2.385-3.627-2.7-5.731-.431-2.872,2.358-5.187,5.037-6.308a4.723,4.723,0,0,1,2.874-.475,3.529,3.529,0,0,1,1.751,1.131c1.883,2.1,1.806,5.28,1.376,8.07s-1.087,5.737-.036,8.358c.747,1.861,2.345,3.612,1.917,5.571-.171.785-.661,1.469-.847,2.25-.5,2.106,1.247,4,2.049,6.015a7.382,7.382,0,0,1-1.637,7.736,1.636,1.636,0,0,1-1.424.466Z" transform="translate(-191.946 -308.262)" fill="#e67471"/><g transform="translate(2.388 4.536)"><path d="M206.044,353.938c-.216-1.549-.431-3.092-.708-4.624-.065-.383-.146-.764-.207-1.147s-.093-.77-.156-1.153q-.174-1.15-.391-2.291a30.061,30.061,0,0,0-1.168-4.466,9.258,9.258,0,0,0-.976-2.02,2.773,2.773,0,0,0-.706-.747,3.7,3.7,0,0,1-.942-.876,3.871,3.871,0,0,1-.68-2.43,11.9,11.9,0,0,1,.349-2.383c.359-1.537.811-3.021,1.062-4.533a10.4,10.4,0,0,0-.092-4.487c-.122-.352-.218-.71-.334-1.069a7.477,7.477,0,0,0-.445-1.044,10.445,10.445,0,0,0-1.3-1.913,8.818,8.818,0,0,1,1.664,1.687,8.026,8.026,0,0,1,.654,1.018,4.183,4.183,0,0,1,.45,1.132,11.1,11.1,0,0,1,.108,4.792c-.262,1.568-.721,3.075-1.07,4.574a11.233,11.233,0,0,0-.331,2.237,3.16,3.16,0,0,0,.54,2,2.99,2.99,0,0,0,.764.707,3.458,3.458,0,0,1,.9.936,9.954,9.954,0,0,1,1.059,2.179,30.8,30.8,0,0,1,1.2,4.576q.222,1.157.4,2.32c.053.388.126.774.172,1.163s.057.782.082,1.174C206.014,350.81,206.073,352.374,206.044,353.938Z" transform="translate(-196.976 -318.755)" fill="#ffa6a4"/><path d="M205.489,329.483a2.394,2.394,0,0,1,.7.416,2.536,2.536,0,0,1,.549.577,3.72,3.72,0,0,0,.466.649,5.787,5.787,0,0,0,.61.517l-.276.017c.093-.2.208-.388.313-.581a5.86,5.86,0,0,1,.346-.557c.121-.182.259-.352.39-.527s.282-.335.4-.52l.047.008a1.829,1.829,0,0,1-.138.684,4.564,4.564,0,0,1-.283.613,4.192,4.192,0,0,1-.365.559,6.26,6.26,0,0,1-.422.52l-.173.182-.1-.164a4.684,4.684,0,0,0-.454-.652,3.164,3.164,0,0,0-.616-.5,3.051,3.051,0,0,1-.559-.55,4.882,4.882,0,0,1-.464-.651Z" transform="translate(-202.605 -324.842)" fill="#ffa6a4"/><path d="M210.57,342.581a3.82,3.82,0,0,1-.417.737,5.305,5.305,0,0,1-.533.641c-.2.191-.432.355-.648.532a3.883,3.883,0,0,0-.568.605l-.054.071-.077-.061a6.4,6.4,0,0,1-.728-.668c-.21-.24-.435-.468-.631-.718s-.382-.507-.557-.772-.335-.541-.52-.8l.027-.039a3.311,3.311,0,0,1,.788.588,7.344,7.344,0,0,1,.655.7c.2.245.377.514.567.769s.341.56.517.779l-.13.01a3.419,3.419,0,0,0,.574-.6c.162-.227.307-.467.478-.684a7.2,7.2,0,0,1,.571-.6,6.194,6.194,0,0,1,.649-.533Z" transform="translate(-204.302 -332.014)" fill="#ffa6a4"/><path d="M205.311,352.651c.294.345.6.663.91.967s.648.571.975.864a3.177,3.177,0,0,0,1.138.661,4.19,4.19,0,0,0,1.308.146l-.194.137a8.752,8.752,0,0,1,.31-1.058,5.889,5.889,0,0,1,.45-1.009,4.932,4.932,0,0,1,.645-.912,2.409,2.409,0,0,1,.906-.654l.024.041a3.535,3.535,0,0,0-.654.822,10.151,10.151,0,0,0-.489.925l-.436.962c-.143.322-.269.657-.395.984l-.061.157-.134-.021a7.546,7.546,0,0,1-1.328-.379,13.53,13.53,0,0,1-1.275-.523,3.337,3.337,0,0,1-1.072-.881,3.429,3.429,0,0,1-.671-1.207Z" transform="translate(-205.269 -337.511)" fill="#ffa6a4"/><path d="M206.437,361.876a2.653,2.653,0,0,1,.182,1.086,3.556,3.556,0,0,1-.2,1.09,3.9,3.9,0,0,1-.559.951l-.651.866-.046.062-.075-.054a9.569,9.569,0,0,0-1.136-.64c-.381-.205-.777-.38-1.173-.549s-.79-.343-1.2-.5-.817-.3-1.238-.455l.007-.047a6.235,6.235,0,0,1,2.63.535,8.2,8.2,0,0,1,1.18.657,7.958,7.958,0,0,1,1.039.864l-.121.008a3.012,3.012,0,0,0,.6-.858,7.4,7.4,0,0,0,.341-.98,7.728,7.728,0,0,0,.373-2.031Z" transform="translate(-197.975 -343.236)" fill="#ffa6a4"/></g></g><g transform="translate(4.04 33.081)"><path d="M190.915,401.482h-9.966A2,2,0,0,1,179.1,399.6L177.52,387.34a2.125,2.125,0,0,1,1.851-2.549h13.121a2.125,2.125,0,0,1,1.851,2.549L192.766,399.6A2,2,0,0,1,190.915,401.482Z" transform="translate(-177.499 -384.791)" fill="#504984"/><path d="M185.784,384.791h-6.708a2.125,2.125,0,0,1,1.851,2.549L179.349,399.6a2,2,0,0,1-1.851,1.882h6.708a2,2,0,0,0,1.851-1.882l1.578-12.259A2.125,2.125,0,0,0,185.784,384.791Z" transform="translate(-170.79 -384.791)" fill="#372d5b"/></g></g><g transform="translate(163.666 89.26)"><g transform="translate(15.044 70.843)"><path d="M293.823,415.616h41.683a.76.76,0,0,1,.76.76v1.847a.76.76,0,0,1-.76.76H293.823Z" transform="translate(-283.096 -415.612)" fill="#282142"/><path d="M390.489,417.933v.751a.294.294,0,0,0,.294.294h10.5a.591.591,0,0,0,.592-.591V416.2a.591.591,0,0,0-.658-.588l-10.467,2.03A.294.294,0,0,0,390.489,417.933Z" transform="translate(-390.489 -415.607)" fill="#504984"/></g><path d="M312.81,251.719H234.905a3.738,3.738,0,0,0-3.517,2.472l-17.038,47.315c-.712,2.441,1.073,4.269,3.942,4.578.44.048,2.533-.893,5.819-2.439h69.648a3.738,3.738,0,0,0,3.517-2.472l15.391-42.741,4.086-2.135S317.716,251.719,312.81,251.719Z" transform="translate(-214.194 -251.719)" fill="#504984"/><path d="M234.8,257.361h77.9a1.6,1.6,0,0,1,1.5,2.139L297.17,306.815a3.738,3.738,0,0,1-3.517,2.471H215.748a1.6,1.6,0,0,1-1.5-2.138l17.038-47.315A3.737,3.737,0,0,1,234.8,257.361Z" transform="translate(-211.65 -254.922)" fill="#372d5b"/><path d="M319.066,360.639l3.458-12.826,13.107,12.826Z" transform="translate(-278.327 -306.275)" fill="#282142"/><path d="M319.4,291.9a3.181,3.181,0,0,1-3.35,2.968,2.526,2.526,0,0,1-2.585-2.968,3.569,3.569,0,0,1,3.351-2.968A2.536,2.536,0,0,1,319.4,291.9Z" transform="translate(-259.696 -272.848)" fill="#504984"/><g transform="translate(21.834 43.709)"><path d="M397.149,355.617l1-2.782h-1.259l-1,2.782Z" transform="translate(-395.889 -352.835)" fill="#282142"/><path d="M391.014,355.617l1-2.782h-1.259l-1,2.782Z" transform="translate(-387.103 -352.835)" fill="#282142"/><path d="M384.88,355.617l1-2.782h-1.259l-1,2.782Z" transform="translate(-378.317 -352.835)" fill="#282142"/><path d="M378.745,355.617l1-2.782h-1.259l-1,2.782Z" transform="translate(-369.531 -352.835)" fill="#282142"/></g><g transform="translate(67.454 43.709)"><path d="M291.61,355.617l1-2.782h-1.259l-1,2.782Z" transform="translate(-290.351 -352.835)" fill="#282142"/><path d="M285.475,355.617l1-2.782h-1.259l-1,2.782Z" transform="translate(-281.564 -352.835)" fill="#282142"/><path d="M279.341,355.617l1-2.782h-1.259l-1,2.782Z" transform="translate(-272.778 -352.835)" fill="#282142"/><path d="M273.206,355.617l1-2.782h-1.259l-1,2.782Z" transform="translate(-263.992 -352.835)" fill="#282142"/></g><g transform="translate(28.809 37.135)"><path d="M333.643,370.413c-.769-2.211-10.091-32.292-10.091-32.292H311.585l-.791,4.189s8.024,25.892,8.793,28.1c.058.169.114.338.166.507h0c.7,2.161-1.152,2.152-3.241,2.152h-21.1v1.914h35.161C334.8,374.986,334.412,372.624,333.643,370.413Z" transform="translate(-295.407 -337.907)" fill="#372d5b"/><path d="M290.573,338.121s9.323,30.082,10.091,32.292,1.153,4.572-3.075,4.572h14.056c4.229,0,3.845-2.362,3.076-4.572s-10.091-32.292-10.091-32.292Z" transform="translate(-274.395 -337.907)" fill="#504984"/><path d="M304.568,337.841c.927-.042,1.854-.064,2.781-.094s1.854-.039,2.782-.06,1.854-.042,2.781-.042l2.782-.017h.155l.048.151c.388,1.211.77,2.425,1.134,3.643l1.109,3.651c.714,2.442,1.428,4.884,2.081,7.345-.856-2.4-1.65-4.815-2.446-7.231l-1.154-3.637c-.39-1.211-.763-2.427-1.13-3.645l.2.15-2.782-.017c-.927,0-1.854-.027-2.781-.042s-1.854-.028-2.782-.06S305.5,337.883,304.568,337.841Z" transform="translate(-285.459 -337.627)" fill="#7f74d1"/></g></g><g transform="translate(72.422 163.473)"><path d="M389.549,430.789H147.959c-2.388,0-4.324-1.653-4.324-3.692h0c0-2.039,1.936-3.693,4.324-3.693H389.549c2.388,0,4.323,1.653,4.323,3.693h0C393.873,429.136,391.937,430.789,389.549,430.789Z" transform="translate(-143.635 -423.404)" fill="#8e5058"/><path d="M389.549,435.639H147.959c-2.388,0-4.324-1.653-4.324-3.692H393.873C393.873,433.986,391.937,435.639,389.549,435.639Z" transform="translate(-143.635 -428.254)" fill="#64364a"/></g><g transform="translate(243.249 9.279)"><ellipse cx="31.058" cy="31.058" rx="31.058" ry="31.058" transform="translate(14.158 74.64) rotate(-103.175)" fill="#31d9e7"/><g transform="translate(6.262 0.23)"><g clip-path="url(#a)"><g transform="translate(-12.696 2.849)"><g transform="translate(0 14.219)"><path d="M236.734,209.287c-.59,2.964,2.154,5.6,3.012,6.091s6.624,2.8,10.087,2.881,8.034-7.243,6.163-8.066-14.613-1.729-16.012-1.729A9.986,9.986,0,0,0,236.734,209.287Z" transform="translate(-236.651 -164.48)" fill="#ffc5c7"/><path d="M209.962,192.472c1.511,8.89,5.1,15.8,6.221,15.928s11.882-3.581,14.849-4.939-.911-22.222-2.757-21.855-5.895,4.376-9.237,6.3S209.962,192.472,209.962,192.472Z" transform="translate(-200.798 -149.229)" fill="#fff"/><path d="M230.726,215.3c-1.037,1.779-9.589,6.289-14.3,7.933,1.164,2.625,2.261,4.24,2.8,4.3.96.105,8.986-2.594,13.136-4.226A63.46,63.46,0,0,0,230.726,215.3Z" transform="translate(-203.837 -168.36)" fill="#dcedff"/><path d="M201.212,159.774c-.084,3.527,3.092,4.033,6.9,3.128s10.012-9.466,12.776-13.335,7.921-10.763,8.988-11.38,3.512-.945,5.6-4.423-.66-10.763-1.649-11.627-9.463,2.021-10.447,3.48.7,9.3.4,10.287-7.511,9.055-10.659,11.03S201.273,157.223,201.212,159.774Z" transform="translate(-201.142 -115.379)" fill="#ffc5c7"/><path d="M219.46,132.673c1-.494,1.238-2.737.61-2.342a6.667,6.667,0,0,1-3.207.366,12.554,12.554,0,0,1-2.092-.148,12.839,12.839,0,0,0-.144,1.768S218.463,133.167,219.46,132.673Z" transform="translate(-191.116 -120.095)" fill="#fe8a8b"/><path d="M227.839,134.394c-.6-1.123-1.071-1.975-1.071-1.975l-5.83,5.611a36.757,36.757,0,0,0-3.544-2.644l-.513.915a18.5,18.5,0,0,1,1.784,5.794s.9.988,1.395,1.07c0,0-6.237,9.878-10.246,14.734-3.985,4.828-6.715,9-8.594,10.346,3.791-2.186,8.962-9.313,11.417-12.75,2.764-3.869,7.921-10.763,8.988-11.38s3.512-.945,5.6-4.423A8.3,8.3,0,0,0,227.839,134.394Z" transform="translate(-192.896 -121.306)" fill="#fe8a8b"/><path d="M193.824,120.363c.07.575,5.864,5.6,6.47,6.173a.867.867,0,0,0,.623,0c1.541-1.353,8.267-13.57,8.388-14.011.112-.411-4.354-4.613-5.718-5.737a1.2,1.2,0,0,0-1.077.125C201.135,108.951,193.732,119.619,193.824,120.363Z" transform="translate(-171.015 -106.711)" fill="#0c0835"/><path d="M192.385,120.422c.07.575,5.864,5.6,6.47,6.173s8.881-13.534,9.011-14.011c.112-.411-4.86-4.545-6.224-5.669a.383.383,0,0,0-.57.057C199.695,109.01,192.293,119.678,192.385,120.422Z" transform="translate(-168.953 -106.77)" fill="#252384"/><path d="M192.438,119.664c.066.538,5.485,5.236,6.053,5.775s8.308-12.661,8.43-13.107c.1-.385-4.547-4.252-5.822-5.3a.359.359,0,0,0-.534.053C199.277,108.988,192.352,118.968,192.438,119.664Z" transform="translate(-168.031 -106.838)" fill="#57aff7"/><path d="M215.374,114.817a6.467,6.467,0,0,0,2.1-2.99c.1-.617.038-1.173-.444-1.3s-1.967,1.811-2.707,2.387-1.641,1.77-1.274,2.572,2.011.494,2.188.37S215.374,114.817,215.374,114.817Z" transform="translate(-187.493 -108.876)" fill="#ffc5c7"/><path d="M216.157,110.914c.284.7-1.569,3.519-3.194,4.33l.6.69s.274-.061.626-.144a4.949,4.949,0,0,0,.032-.752,6.466,6.466,0,0,0,2.1-2.99A1.378,1.378,0,0,0,216.157,110.914Z" transform="translate(-186.345 -109.097)" fill="#fe8a8b"/><path d="M214.915,123.134c1.544-.825,2.754-.732,3.594-1.072s.992-1.636.421-1.852a14.882,14.882,0,0,0-4.947.741c-.9.4-1.325,2.25-1.325,2.25Z" transform="translate(-189.12 -114.348)" fill="#ffc5c7"/><path d="M214.612,123.527a1.977,1.977,0,0,1-1.173,0c.025.341-.3.511-.66,1l1.157-.034c1.543-.825,2.754-.732,3.593-1.072a1.251,1.251,0,0,0,.709-.869C217.865,123.26,215.481,123.363,214.612,123.527Z" transform="translate(-188.14 -115.703)" fill="#fe8a8b"/><path d="M214.94,128.481c.823,1.139,4.862.646,5.676.522s1.325-.638,1.242-1.156c-.168-1.046-5.5-.861-5.945-.7S214.94,128.481,214.94,128.481Z" transform="translate(-192.703 -118.243)" fill="#ffc5c7"/><path d="M220.494,129.512a5.984,5.984,0,0,1-3.326.978,13.643,13.643,0,0,1-2.141.038,16.657,16.657,0,0,0,4.253-.112A1.343,1.343,0,0,0,220.494,129.512Z" transform="translate(-191.368 -119.656)" fill="#fe8a8b"/></g><g transform="translate(21.222 29.674)"><path d="M145.374,163.421c-8.572,4.363-9.979,4.194-13.661,6.173s-2.587,22.8-2.353,26.012,1.121,15.969.632,19.426-2.394,16.3-3.239,18.274-2.453,5.309.036,7.285,7.757,3.334,19.195,2.593,23.766-7.779,24.311-8.766-5.467-19.138-5.719-22.595a46.417,46.417,0,0,0-1.3-7.655c-.364-1.605,3.275-9.137,3.856-13.952s5.813-18.1,4.821-20.532-10.1-5.144-16.309-8.239A8.36,8.36,0,0,0,145.374,163.421Z" transform="translate(-125.458 -152.671)" fill="#fff"/><path d="M157.69,179.823a23.9,23.9,0,0,0,8.108,11.8,36.333,36.333,0,0,0,13.165-6.082A55.2,55.2,0,0,1,165.12,193.1,20.32,20.32,0,0,1,157.69,179.823Z" transform="translate(-146.274 -163.674)" fill="#dcedff"/><path d="M147.171,166.612c1.646-.7,3.762-1.672,6.749-3.192a8.36,8.36,0,0,1,10.273-1.978c2.153,1.073,4.655,2.1,7.048,3.087a30.994,30.994,0,0,1-16.6,13.547A21.9,21.9,0,0,1,147.171,166.612Z" transform="translate(-134.004 -152.671)" fill="#ffc5c7"/><path d="M149.192,265.56c.546-.988-5.467-19.138-5.719-22.595a46.416,46.416,0,0,0-1.3-7.655c-.364-1.605,3.275-9.137,3.856-13.952a25.808,25.808,0,0,1,.669-3.18l-3.865-2.879c-2.267,6.323-3.681,17.435-5.829,20.151s-7.5,3.828-7.5,3.828,5.286,1.235,7.591.74c0,0,2.461,9.754,2.489,14.569s-.419,12.1-.476,13.088c-.021.369.06,1.654.17,3.12C144.819,268.6,148.884,266.117,149.192,265.56Z" transform="translate(-104.355 -183.815)" fill="#dcedff"/><path d="M172.37,142.464c.089,5.153.428,8.692,1.57,9.68,0,0-1.963,8.55-9.8,7.82-2.652-.247-2.4-4.692-1.067-6.75l-.789-6.319Z" transform="translate(-143.156 -142.464)" fill="#ffc5c7"/><path d="M174.538,151.236h0c-.671-1.58-.9-4.66-.973-8.772l-10.089,4.43.506,4.052h0C165.77,151.749,174.538,151.236,174.538,151.236Z" transform="translate(-144.35 -142.464)" fill="#fe8a8b"/></g><g transform="translate(43.514 46.596)"><path d="M128.344,238.864c1.738,2.387,4.062,8.314,3.19,11.03s-9.869,14.816-13.985,19.343-5.049,5.268-5.765,6.75-4.221,7.593-5.142,8.52a4.646,4.646,0,0,1-2.578,1.049,4.386,4.386,0,0,1-3.613,1.111,13.648,13.648,0,0,1-3.707,1.79s-.541,1.048-1.09,1.142-1.247-1.018-.236-3.241,2.672-3.148,2.939-4.568a29.007,29.007,0,0,1,1.552-4.317s-2.885,2.958-4.662,3.143-2.016-.864-1.04-1.729a22.569,22.569,0,0,0,3.414-3.827,6.787,6.787,0,0,1,4.9-3.087c2.262-.309,3.849-.556,4.435-.988s3.543-4.63,5.564-9.158,3.831-10.313,8.968-15.393l-2.263-3.951Z" transform="translate(-93.639 -214.116)" fill="#ffc5c7"/><path d="M164.414,344.56a9.507,9.507,0,0,1,2.128-3.27l.351-.345c.1-.108.287-.243.327-.307.177-.226.33-.523.5-.791.326-.555.643-1.121,1-1.666a13.79,13.79,0,0,1-.661,1.857,5.565,5.565,0,0,1-.459.9,3.719,3.719,0,0,1-.362.369l-.331.341c-.444.456-.865.935-1.29,1.412S164.806,344.039,164.414,344.56Z" transform="translate(-161.233 -270.502)" fill="#fe8a8b"/><path d="M160.759,343.6c.34-.665.744-1.241,1.1-1.847.377-.6.712-1.2,1.055-1.857a3.832,3.832,0,0,1-.628,2.137A4.886,4.886,0,0,1,160.759,343.6Z" transform="translate(-153.851 -271.475)" fill="#fe8a8b"/><path d="M146.9,342.423a4.049,4.049,0,0,0,1.71-.948,4.646,4.646,0,0,0,2.578-1.05,24.018,24.018,0,0,0,2.058-3.067c-.019.022-1.053,1.146-1.8,2.074a2.51,2.51,0,0,1-2.551.874l.2-1.2S148.1,341.836,146.9,342.423Z" transform="translate(-138.184 -270.035)" fill="#fe8a8b"/><path d="M114.88,257.4c-.049,1.126-.062,2.022-1.733,4.978-1.881,3.327-13.184,17.348-15.649,19.94s-2.393,2.757-3.852,6.854c.659-1.158,1.209-2.168,1.447-2.661.715-1.482,1.65-2.223,5.765-6.75s13.112-16.627,13.985-19.343A6.759,6.759,0,0,0,114.88,257.4Z" transform="translate(-76.947 -224.639)" fill="#fe8a8b"/><path d="M115.378,249.588l.918,1.53a5.239,5.239,0,0,0-2.144,1.271l-1.792-3.041Z" transform="translate(-86.304 -220.069)" fill="#fe8a8b"/><path d="M91.7,202.762c-2.361-4.641-3.306-12.177-1.175-16.143s6.152-5.394,7.138-4.918,3.658,6.663,6.167,9.519,9.358,10.868,9.566,11.542-4.951,6.117-14.654,10.115C97.588,213.353,91.7,202.762,91.7,202.762Z" transform="translate(-73.458 -181.612)" fill="#fff"/><path d="M121.929,225.5l1.548,3.174s-7.625-7.644-10.791-13.348a22.945,22.945,0,0,0,2.045,6.576s5.887,10.59,7.043,10.115c1.66-.684,3.177-1.411,4.567-2.149Z" transform="translate(-96.49 -200.753)" fill="#dcedff"/></g><g transform="translate(27.948)"><path d="M154.059,103.952a35.25,35.25,0,0,0,.64-6.468c.095-1.624.177-3.111,1.651-4.082a5.455,5.455,0,0,1,3.7-.688c3.406.432,4.139,3.751,3.878,6.894a23.151,23.151,0,0,1-2.073,6.928,5.277,5.277,0,0,0,3.711-1.755,7.433,7.433,0,0,1-1.967,3.6c3.631-.063,7-2.438,8.923-5.628a19.05,19.05,0,0,0,2.327-10.84,21.635,21.635,0,0,0-4.388-12.353,15.875,15.875,0,0,0-22.726-1.775,16.342,16.342,0,0,0-4.668,7.735,25.725,25.725,0,0,0-.214,12.016,41.361,41.361,0,0,1,.664,4.678c.05.507.664,6.388.309,6.366,2.293.139,4.928-.324,6.481-2.077-.7,1.2-1.3,2.364-1.994,3.567C151.2,109.593,153.332,106.9,154.059,103.952Z" transform="translate(-142.242 -73.816)" fill="#372d5b"/><path d="M175.543,106.718c1.024-.605,2.256-.934,3.206.03,1.4,1.42-.589,8.025-3.607,6.42,0,0-4.371,6.112-7.578,7.84s-5.493.865-6.694-.37-5.3-6.3-6.035-11.668c-.263-1.914.019-5.68-.039-6.482-.18-2.469-1.116-4.5.832-6.435a11.277,11.277,0,0,1,7.467-3.24,12.059,12.059,0,0,1,9.3,4.068C174.952,99.778,175.395,103.048,175.543,106.718Z" transform="translate(-151.827 -84.598)" fill="#ffc5c7"/><path d="M159.481,127.784c-.261-1.21-1.293-1.449-2.061-.6-.787.864-.919,3.6-.717,4s1.554.375,1.811-.461-.531-1.359-1.291-1.112a2.861,2.861,0,0,1,.409-2c.621-.786,1.269-.485,1.427-.283A6.239,6.239,0,0,0,159.481,127.784Z" transform="translate(-133.054 -103.828)" fill="#fe8a8b"/><g transform="translate(4.382 16.183)"><path d="M180.26,114.5a10.579,10.579,0,0,0-.928-.765,6.467,6.467,0,0,0-1.047-.621,3.436,3.436,0,0,0-1.161-.391,2.43,2.43,0,0,0-1.179.156l.005.055a5.776,5.776,0,0,0,.571.183l.544.15c.354.1.721.136,1.08.255a7.9,7.9,0,0,1,1.055.445c.35.17.687.373,1.028.575Z" transform="translate(-166.571 -112.08)" fill="#3f1751"/><path d="M197.323,112.287a3.98,3.98,0,0,1,1.045-.38,5.669,5.669,0,0,1,1.1-.131c.374-.008.745.069,1.114.066a10.847,10.847,0,0,0,1.155-.029l.012-.053a2.848,2.848,0,0,0-1.15-.469,3.455,3.455,0,0,0-1.2.044,4.737,4.737,0,0,0-1.136.308,3.578,3.578,0,0,0-.977.6Z" transform="translate(-197.289 -111.253)" fill="#3f1751"/><path d="M181.823,120.7c.014-.522.277-.921.587-.89s.551.479.538,1-.277.921-.587.89S181.81,121.222,181.823,120.7Z" transform="translate(-171.8 -116.11)" fill="#3f1751"/><path d="M201.376,119.162c.014-.523.231-.925.485-.9s.449.469.435.991-.23.925-.485.9S201.363,119.684,201.376,119.162Z" transform="translate(-199.599 -115.231)" fill="#3f1751"/><path d="M192.948,133.58a2.332,2.332,0,0,1-2.547-.026,1.177,1.177,0,0,0,.66.937,1.572,1.572,0,0,0,1.184-.064C192.6,134.262,192.721,133.9,192.948,133.58Z" transform="translate(-185.507 -123.914)" fill="#fe8a8b"/><g transform="translate(3.09 12.248)"><path d="M190.994,140.069a71.224,71.224,0,0,1-7.213-.482c.532,1.745,1.928,3.468,3.878,3.469A3.655,3.655,0,0,0,190.994,140.069Z" transform="translate(-183.781 -139.587)" fill="#c31f2a"/><path d="M191.332,145.8a3.09,3.09,0,0,0-1.662-.016,2.665,2.665,0,0,0-2.234-.218,3.378,3.378,0,0,0,2.141.8A2.958,2.958,0,0,0,191.332,145.8Z" transform="translate(-185.7 -142.9)" fill="#fb8384"/><path d="M186.007,141.139a8.416,8.416,0,0,0,5.288-.2c.011-.258.031-.517.051-.776-1.7-.036-4.458-.243-5.933-.407A4.928,4.928,0,0,0,186.007,141.139Z" transform="translate(-184.839 -139.68)" fill="#fff"/></g></g><path d="M177.707,94.529a24.028,24.028,0,0,1-8.191-1.819,9.278,9.278,0,0,1-.585-3.4,9.868,9.868,0,0,0-1.2,4.217c-1.636-.106-3.28-.194-4.915-.3a10.192,10.192,0,0,1-.441-4,17.333,17.333,0,0,0-1.019,4.3c-.987-.351-2.239.161-3.27.346-1.278-2.847-1.195-8.007,1.509-10.166,2.634-2.1,7.208-2.676,10.427-2.21,6.847.991,12.228,6.676,11.8,13.759a16.562,16.562,0,0,1-5.176,10.679A16.385,16.385,0,0,0,177.707,94.529Z" transform="translate(-155.713 -78.091)" fill="#372d5b"/></g></g></g></g></g><g transform="translate(196.667 26.64)"><ellipse cx="18.061" cy="18.061" rx="18.061" ry="18.061" transform="translate(9.086 44.047) rotate(-104.569)" fill="#bb83ff"/><g transform="translate(11.632 14.953)"><rect width="20.783" height="14.141" rx="3.426" transform="translate(0 0)" fill="#dbe9ff"/><path d="M319.6,163.631H301.778a1.481,1.481,0,0,1-1.481-1.481l10.391-6.535,10.391,6.535A1.481,1.481,0,0,1,319.6,163.631Z" transform="translate(-300.297 -149.491)" fill="#cddcf4"/><path d="M319.6,141.446H301.778a1.481,1.481,0,0,0-1.481,1.481l10.391,6.534,10.391-6.534A1.481,1.481,0,0,0,319.6,141.446Z" transform="translate(-300.297 -141.446)" fill="#5470d3"/></g></g><g transform="translate(68.972 52.982)"><ellipse cx="18.061" cy="18.061" rx="18.061" ry="18.061" transform="translate(35.19 43.343) rotate(-166.955)" fill="#bb83ff"/><g transform="translate(8.621 10.996)"><g transform="translate(7.537)"><path d="M593.965,200.375h1.816a6.46,6.46,0,0,1,.826-1.99l-1.285-1.285a.448.448,0,0,1,0-.635l1.428-1.428a.448.448,0,0,1,.635,0l1.285,1.285a6.462,6.462,0,0,1,1.99-.826V193.68a.449.449,0,0,1,.449-.449h2.02a.449.449,0,0,1,.449.449V195.5a6.457,6.457,0,0,1,1.99.826l1.285-1.285a.449.449,0,0,1,.635,0l1.428,1.428a.449.449,0,0,1,0,.635l-1.285,1.285a6.461,6.461,0,0,1,.826,1.99h1.816a.449.449,0,0,1,.449.449v2.02a.449.449,0,0,1-.449.449h-1.816a6.456,6.456,0,0,1-.826,1.99l1.285,1.286a.449.449,0,0,1,0,.635l-1.428,1.428a.449.449,0,0,1-.635,0l-1.285-1.285a6.457,6.457,0,0,1-1.99.826v1.816a.449.449,0,0,1-.449.449h-2.02a.449.449,0,0,1-.449-.449v-1.816a6.462,6.462,0,0,1-1.99-.826l-1.285,1.285a.449.449,0,0,1-.635,0l-1.428-1.428a.448.448,0,0,1,0-.635l1.285-1.286a6.456,6.456,0,0,1-.826-1.99h-1.816a.449.449,0,0,1-.449-.449v-2.02A.449.449,0,0,1,593.965,200.375Zm8.154,4.246a2.787,2.787,0,1,0-2.787-2.787A2.787,2.787,0,0,0,602.118,204.62Z" transform="translate(-593.516 -193.231)" fill="#dbe9ff"/><path d="M608.322,204.158a3.879,3.879,0,1,1-3.879,3.879A3.879,3.879,0,0,1,608.322,204.158Zm0,6.248a2.369,2.369,0,1,0-2.369-2.369A2.369,2.369,0,0,0,608.322,210.406Z" transform="translate(-599.72 -199.435)" fill="#5470d3"/></g><g transform="translate(0 11.449)"><path d="M630.65,223.367h.927A3.315,3.315,0,0,1,632,222.35l-.657-.657a.229.229,0,0,1,0-.324l.73-.73a.229.229,0,0,1,.324,0l.657.657a3.294,3.294,0,0,1,1.017-.422v-.928a.229.229,0,0,1,.229-.229h1.032a.229.229,0,0,1,.229.229v.928a3.3,3.3,0,0,1,1.017.422l.656-.657a.229.229,0,0,1,.324,0l.73.73a.229.229,0,0,1,0,.324l-.657.657a3.3,3.3,0,0,1,.422,1.017h.928a.229.229,0,0,1,.229.23v1.032a.229.229,0,0,1-.229.229h-.928a3.3,3.3,0,0,1-.422,1.017l.657.657a.229.229,0,0,1,0,.324l-.73.73a.229.229,0,0,1-.324,0l-.656-.657a3.3,3.3,0,0,1-1.017.422v.928a.229.229,0,0,1-.229.23H634.3a.229.229,0,0,1-.229-.23v-.928a3.294,3.294,0,0,1-1.017-.422l-.657.657a.229.229,0,0,1-.324,0l-.73-.73a.229.229,0,0,1,0-.324l.657-.657a3.307,3.307,0,0,1-.422-1.017h-.927a.229.229,0,0,1-.23-.229V223.6A.23.23,0,0,1,630.65,223.367Zm4.165,2.169a1.423,1.423,0,1,0-1.424-1.423A1.423,1.423,0,0,0,634.815,225.536Z" transform="translate(-630.42 -219.718)" fill="#dbe9ff"/><path d="M637.984,225.3A1.982,1.982,0,1,1,636,227.281,1.981,1.981,0,0,1,637.984,225.3Zm0,3.192a1.21,1.21,0,1,0-1.21-1.21A1.21,1.21,0,0,0,637.984,228.492Z" transform="translate(-633.589 -222.887)" fill="#5470d3"/></g></g></g><g transform="translate(148.628 0)"><ellipse cx="18.061" cy="18.061" rx="18.061" ry="18.061" transform="translate(33.514 46.991) rotate(-158.092)" fill="#bb83ff"/><g transform="translate(13.104 14.214)"><path d="M3.3,0H17.479a3.3,3.3,0,0,1,3.3,3.3V14.467a3.3,3.3,0,0,1-3.3,3.3H3.3a3.3,3.3,0,0,1-3.3-3.3V3.3A3.3,3.3,0,0,1,3.3,0Z" transform="translate(0 0.793)" fill="#fff"/><path d="M428.807,83.662H408.025V81.371a1.428,1.428,0,0,1,1.428-1.428H427.38a1.428,1.428,0,0,1,1.428,1.428Z" transform="translate(-408.025 -79.15)" fill="#5470d3"/><g transform="translate(3.338)"><g transform="translate(0)"><path d="M444.065,79.694h0a.421.421,0,0,1-.421-.421v-.743a.421.421,0,0,1,.421-.421h0a.421.421,0,0,1,.421.421v.743A.421.421,0,0,1,444.065,79.694Z" transform="translate(-442.439 -78.108)" fill="#fff"/><path d="M446.852,79.694h0a.421.421,0,0,1-.421-.421v-.743a.421.421,0,0,1,.421-.421h0a.421.421,0,0,1,.421.421v.743A.421.421,0,0,1,446.852,79.694Z" transform="translate(-446.431 -78.108)" fill="#fff"/><g transform="translate(12.059)"><path d="M416.168,79.694h0a.421.421,0,0,1-.421-.421v-.743a.421.421,0,0,1,.421-.421h0a.421.421,0,0,1,.421.421v.743A.421.421,0,0,1,416.168,79.694Z" transform="translate(-414.542 -78.108)" fill="#fff"/><path d="M418.955,79.694h0a.421.421,0,0,1-.421-.421v-.743a.421.421,0,0,1,.421-.421h0a.421.421,0,0,1,.421.421v.743A.421.421,0,0,1,418.955,79.694Z" transform="translate(-418.534 -78.108)" fill="#fff"/></g></g></g><g transform="translate(3.338 6.723)"><g transform="translate(0)"><g transform="translate(4.284)"><rect width="1.8" height="1.8" rx="0.793" fill="#dbe9ff"/></g><g transform="translate(8.568)"><rect width="1.8" height="1.8" rx="0.793" transform="translate(0)" fill="#dbe9ff"/></g><g transform="translate(12.852)"><rect width="1.8" height="1.8" rx="0.793" transform="translate(0)" fill="#dbe9ff"/></g><g transform="translate(0 3.689)"><rect width="1.8" height="1.8" rx="0.793" fill="#dbe9ff"/></g><g transform="translate(4.284 3.689)"><rect width="1.8" height="1.8" rx="0.793" fill="#dbe9ff"/></g><g transform="translate(8.568 3.689)"><rect width="1.8" height="1.8" rx="0.793" transform="translate(0)" fill="#dbe9ff"/></g><g transform="translate(12.852 3.689)"><rect width="1.8" height="1.8" rx="0.793" transform="translate(0)" fill="#dbe9ff"/></g><g transform="translate(0 7.378)"><rect width="1.8" height="1.8" rx="0.793" fill="#dbe9ff"/></g><g transform="translate(4.284 7.378)"><rect width="1.8" height="1.8" rx="0.793" fill="#dbe9ff"/></g><g transform="translate(8.568 7.378)"><rect width="1.8" height="1.8" rx="0.793" transform="translate(0)" fill="#dbe9ff"/></g></g></g></g></g><g transform="translate(94.878 7.235)"><circle cx="18.061" cy="18.061" r="18.061" transform="translate(25.542 51.085) rotate(-135)" fill="#bb83ff"/><g transform="translate(8.048 8.048)"><circle cx="12.371" cy="12.371" r="12.371" transform="translate(17.495 34.989) rotate(-135)" fill="#fff"/><path d="M535.428,92.435a12.371,12.371,0,1,1-12.37,12.371A12.37,12.37,0,0,1,535.428,92.435Zm-1.037,22.91v-1.689a.569.569,0,0,1,.568-.569h.937a.569.569,0,0,1,.569.569v1.689a10.593,10.593,0,0,0,9.5-9.5h-1.689a.569.569,0,0,1-.569-.569v-.937a.569.569,0,0,1,.569-.569h1.689a10.593,10.593,0,0,0-9.5-9.5v1.689a.569.569,0,0,1-.569.569h-.937a.569.569,0,0,1-.568-.569V94.266a10.593,10.593,0,0,0-9.5,9.5h1.689a.569.569,0,0,1,.569.569v.937a.569.569,0,0,1-.569.569h-1.689A10.593,10.593,0,0,0,534.391,115.345Z" transform="translate(-517.933 -87.311)" fill="#5470d3"/><text transform="translate(17.866 19.91)" fill="#d1c8d9" font-size="7" font-family="BebasKai, Bebas Kai"><tspan x="-5.226" y="0">24/7</tspan></text></g></g></g></svg>