<svg xmlns="http://www.w3.org/2000/svg" width="367.552" height="253.102" viewBox="0 0 367.552 253.102">
  <g id="Grupo_62764" data-name="Grupo 62764" transform="translate(-42.775 -99.96)">
    <g id="Grupo_62720" data-name="Grupo 62720" transform="translate(349.545 161.706)">
      <g id="Grupo_62719" data-name="Grupo 62719" transform="translate(0 14.451)">
        <g id="Grupo_62715" data-name="Grupo 62715" transform="translate(28.824 95.754)">
          <path id="Trazado_110732" data-name="Trazado 110732" d="M872.156,517.313l1.159,26.884-3.4,45.712-5.084.361-6.177-41.518-8.546-35.132Z" transform="translate(-850.11 -513.622)" fill="#5bbcb9"/>
          <path id="Trazado_110733" data-name="Trazado 110733" d="M885.691,698.757l5.694,2.358,2.554-2.944-2.944-2.554-5.5.391Z" transform="translate(-870.787 -619.965)" fill="#1a3151"/>
        </g>
        <g id="Grupo_62716" data-name="Grupo 62716" transform="translate(13.762 87.843)">
          <path id="Trazado_110734" data-name="Trazado 110734" d="M814.992,496.679,813.876,517l3.311,60.423,5.091.254,7.63-39.63,6.73-43.459Z" transform="translate(-813.876 -494.589)" fill="#5bbcb9"/>
          <path id="Trazado_110735" data-name="Trazado 110735" d="M822.151,695.381l-5.643,2.478-2.615-2.89,2.89-2.615,5.505.275Z" transform="translate(-813.886 -610.146)" fill="#1a3151"/>
        </g>
        <g id="Grupo_62717" data-name="Grupo 62717" transform="translate(9.162 28.366)">
          <path id="Trazado_110736" data-name="Trazado 110736" d="M838.126,353.207l-15.886-1.7s-8.838.944-14.834,21.933c-3.336,11.677-4.352,30.074-4.6,44.1.375,2,2.555,10.764,11.772,9.278,15.828-2.553,24.253-5.106,31.145-3.829,5.871,1.277,5.375-6.808,4.73-12.977l-2.34-19.088Z" transform="translate(-802.809 -351.505)" fill="#c8d6a1"/>
        </g>
        <g id="Grupo_62718" data-name="Grupo 62718" transform="translate(20.749)">
          <path id="Trazado_110737" data-name="Trazado 110737" d="M857.828,306.331c-4-.883-8.125-1.674-12.134-.88a3.35,3.35,0,0,0-2.3,1.237,3.508,3.508,0,0,0-.372.967c-1.012,3.76-2.295,9.334.181,12.8a6.188,6.188,0,0,0,1.787,1.611,8.811,8.811,0,0,0,2.962,1.162,15.91,15.91,0,0,1-.9,2.731c.917,1.382,5.193,1.548,5.983.223q.067-1.72.133-3.44a8.518,8.518,0,0,0,1.5-.777,9.667,9.667,0,0,0,3.731-5.074c.761-2.225,1.833-4.34,2.529-6.608a3.2,3.2,0,0,0,.019-2.516,3.406,3.406,0,0,0-2.359-1.266Z" transform="translate(-837.167 -296.038)" fill="#c67a6d"/>
          <path id="Trazado_110738" data-name="Trazado 110738" d="M838.019,295.709a12.483,12.483,0,0,1,6.809-1.686c5.626.407,7.687,4.539,7.988,9.712,1.549-1.97,4.458-4.448,4.634-6.983a11.866,11.866,0,0,0-1.305-6.7c-1.088-1.676-3.869-2.6-5.523-3.569l-4.677-2.748a2.366,2.366,0,0,0-2.344-.3L832.546,286.3c-.708.183-1.514.45-1.775,1.133a2.322,2.322,0,0,0,.029,1.314,54.284,54.284,0,0,1,1.42,5.806c.225,1.126.9,6.9,2.89,6.23a26.019,26.019,0,0,0,1.129-3.161A4.585,4.585,0,0,1,838.019,295.709Z" transform="translate(-830.685 -283.266)" fill="#1a3151"/>
        </g>
        <path id="Trazado_110739" data-name="Trazado 110739" d="M809.361,351.505l-5.872,1.787-21.444,22.466-1.276,7.4,10.252,16.926,2.768-6.2-4.34-12.509,6.893-4.85,9.19-20.678Z" transform="translate(-780.768 -323.139)" fill="#c8d6a1"/>
      </g>
      <path id="Trazado_110740" data-name="Trazado 110740" d="M879.664,294.378l10.92-11.8-2.573-31.973,4.8-2.108,6.527,32.434-2,8.083L885.1,305.906Z" transform="translate(-838.555 -248.501)" fill="#c8d6a1"/>
    </g>
    <g id="Grupo_62740" data-name="Grupo 62740" transform="translate(277.111 178.493)">
      <g id="Grupo_62738" data-name="Grupo 62738" transform="translate(0)">
        <g id="Grupo_62723" data-name="Grupo 62723" transform="translate(51.209 126.558)">
          <g id="Grupo_62721" data-name="Grupo 62721" transform="translate(0 35.346)">
            <path id="Trazado_110741" data-name="Trazado 110741" d="M731.948,679.212a2.091,2.091,0,0,1,1.891-.811,2.14,2.14,0,0,1,1.589,1.2,4.06,4.06,0,0,1,.272,1.362c.2,2.4.18,8.092-3.014,8.912a2.378,2.378,0,0,1-2.812-1.815C729.334,686.241,730.133,681.21,731.948,679.212Z" transform="translate(-729.708 -678.379)" fill="#145566"/>
          </g>
          <g id="Grupo_62722" data-name="Grupo 62722" transform="translate(1.103)">
            <path id="Trazado_110742" data-name="Trazado 110742" d="M732.362,593.347l.167,14.628c-.194,6.5.82,13.031.626,19.529-.045,1.494-.434,3.07-.058,4.551.368,1.449,1.545,1.705,2.753.971,1.619-.983,1.358-3.278,1.627-4.952.741-4.6,1.61-9.181,2.383-13.776.379-2.253-.4-5.41-.232-7.691l2.363-12.259Z" transform="translate(-732.362 -593.347)" fill="#efbfa5"/>
          </g>
        </g>
        <g id="Grupo_62724" data-name="Grupo 62724" transform="translate(48.466 82.98)">
          <path id="Trazado_110743" data-name="Trazado 110743" d="M743.67,508.454l-6.366,28.28-1.352,26.707-10.1-.227-2.745-74.7,19.57.355Z" transform="translate(-723.111 -488.511)" fill="#9ea6ad"/>
        </g>
        <g id="Grupo_62729" data-name="Grupo 62729" transform="translate(30.733 83.523)">
          <g id="Grupo_62727" data-name="Grupo 62727" transform="translate(3.93 45.089)">
            <g id="Grupo_62725" data-name="Grupo 62725" transform="translate(1.79 32.853)">
              <path id="Trazado_110744" data-name="Trazado 110744" d="M696.767,678.062a2.052,2.052,0,0,1,1.92-.7,2.184,2.184,0,0,1,1.532,1.292,4.132,4.132,0,0,1,.213,1.379c.095,2.412-.167,8.109-3.385,8.741a2.418,2.418,0,0,1-2.725-1.982C693.861,684.942,694.873,679.954,696.767,678.062Z" transform="translate(-694.211 -677.32)" fill="#145566"/>
            </g>
            <g id="Grupo_62726" data-name="Grupo 62726">
              <path id="Trazado_110745" data-name="Trazado 110745" d="M699.571,598.287l-.856,14.6c-.07,4.059-.611,8.086-1.031,12.117-.39,3.744.217,7.644-1.74,11.05-.614,1.068-1.854,1.779-2.721.481-.668-1-.271-2.668-.4-3.8-.523-4.63-1.175-9.246-1.731-13.872-.273-2.268.657-5.386.594-7.671l-1.782-12.356Z" transform="translate(-689.905 -598.287)" fill="#efbfa5"/>
            </g>
          </g>
          <g id="Grupo_62728" data-name="Grupo 62728">
            <path id="Trazado_110746" data-name="Trazado 110746" d="M681.272,507.487l-.822,27.453,4.308,27.761,10.269.307-.453-30.045,5.434-24.916,1.824-16.309-16.294-1.922Z" transform="translate(-680.45 -489.817)" fill="#9ea6ad"/>
          </g>
        </g>
        <g id="Grupo_62730" data-name="Grupo 62730" transform="translate(34.635 26.921)">
          <path id="Trazado_110747" data-name="Trazado 110747" d="M699.647,354.068l17.554-.419,10.178,18.929-3.617,17.729-.644,21.217-25.04.342-8.239-1.338,2.188-22.67-1.254-30.283Z" transform="translate(-689.838 -353.649)" fill="#b5d6ca"/>
        </g>
        <g id="Grupo_62731" data-name="Grupo 62731" transform="translate(48.466 28.226)">
          <path id="Trazado_110748" data-name="Trazado 110748" d="M737.225,356.79l14.25,21.7-2.141,12.091-22.07,15.288-4.153-3.631,14.755-18.651-.572-11.787Z" transform="translate(-723.111 -356.79)" fill="#b5d6ca"/>
        </g>
        <g id="Grupo_62732" data-name="Grupo 62732" transform="translate(0 30.847)">
          <path id="Trazado_110749" data-name="Trazado 110749" d="M650.082,371.057l-9.143,18.279L631.08,391.3,606.516,380.57l4.237-4.806,22.4,4.1,8.93-16.769Z" transform="translate(-606.516 -363.094)" fill="#b5d6ca"/>
        </g>
        <g id="Grupo_62737" data-name="Grupo 62737" transform="translate(33.925)">
          <g id="Grupo_62733" data-name="Grupo 62733" transform="translate(10.571 8.045)">
            <path id="Trazado_110750" data-name="Trazado 110750" d="M714.607,312.828c2.646-7.694,12.8-4.81,14.9,2.04,1.366,4.469-2.085,10.268-6.716,11.551a4.536,4.536,0,0,0-.036.48,15.015,15.015,0,0,1-.2,2.141c-.04.267-4.092-.512-4.544-.6a.613.613,0,0,1-.42-.207c-.163-.254.1-1,.132-1.286q.053-.5.105-1a7.993,7.993,0,0,1-4.128-5.907A14.84,14.84,0,0,1,714.607,312.828Z" transform="translate(-713.56 -308.241)" fill="#efbfa5"/>
          </g>
          <g id="Grupo_62736" data-name="Grupo 62736">
            <g id="Grupo_62734" data-name="Grupo 62734" transform="translate(0 4.589)">
              <path id="Trazado_110751" data-name="Trazado 110751" d="M706.374,301.017a4.034,4.034,0,0,1,.916,2.065,3.217,3.217,0,0,1,.08,1.338c-.377,1.746-2.11,1.655-3.449,2.218a8.937,8.937,0,0,0-4,3.444c-1.449,2.3-.8,5.271-.209,7.814.207.9.623,2.228-.072,3.027s-2.338.687-3.184.269c-.773-.382-1.408-1.088-2.256-1.23-.9-.15-2.112.245-2.53-.579a5.633,5.633,0,0,0-.274-.719c-.5-.71-1.73.121-2.43-.379a1.365,1.365,0,0,1-.281-1.482,3.531,3.531,0,0,0,.289-1.572,5.2,5.2,0,0,0-.617-1.225,2.413,2.413,0,0,1,.333-2.565c1.106-1.28,3.246-1.037,4.431-2.241a5.216,5.216,0,0,0,1.087-2.388,4.58,4.58,0,0,1,1.166-2.339c.815-.717,1.992-.595,2.8-1.445a16.428,16.428,0,0,1,1.318-1.584,10.625,10.625,0,0,1,2.935-1.305A3.816,3.816,0,0,1,706.374,301.017Z" transform="translate(-688.129 -299.926)" fill="#1a3151"/>
            </g>
            <g id="Grupo_62735" data-name="Grupo 62735" transform="translate(13.8)">
              <path id="Trazado_110752" data-name="Trazado 110752" d="M732.2,306.844c.047,2.532-1.211,5.27-.044,7.5,1.177,2.25,4.112,2.655,6.613,2.773.411.019,5.69.475,5.712.375a17.2,17.2,0,0,1,1.726-5.112,5.63,5.63,0,0,1,4.228-2.942,1.084,1.084,0,0,1-.707-1.237,8.322,8.322,0,0,1,.488-1.5,3.546,3.546,0,0,0-.925-3.562c-1.868-1.74-5.253-1.018-6.854-3.017-.992-1.24-.874-3.037-1.394-4.55-1.006-2.926-4.209-3.538-6.6-4.86a11.475,11.475,0,0,0-7.825-1.673c-3.616.6-6.3,4.284-4.909,7.749,1.789,4.444,8.94,4.06,10.28,8.572A5.577,5.577,0,0,1,732.2,306.844Z" transform="translate(-721.328 -288.886)" fill="#1a3151"/>
            </g>
          </g>
        </g>
      </g>
      <g id="Grupo_62739" data-name="Grupo 62739" transform="translate(44.533 26.921)">
        <path id="Trazado_110753" data-name="Trazado 110753" d="M725.921,353.968l-5.446,7.7-2.56-.21-4.267-7.806Z" transform="translate(-713.649 -353.649)" fill="#145566"/>
      </g>
    </g>
    <path id="Trazado_110754" data-name="Trazado 110754" d="M229.591,370.125l19.033,13.889,16.6-7.171,2.436,4.478-12.57,8.562-7.047,2.634-18.45-8.883Z" transform="translate(-109.16 -157.862)" fill="#9ea6ad"/>
    <g id="Grupo_62745" data-name="Grupo 62745" transform="translate(131.917 177.566)">
      <path id="Trazado_110755" data-name="Trazado 110755" d="M286.251,684.958l-.4,3.108,5.816,3.907,3.508-2.708-2.708-3.507-5.816-3.907Z" transform="translate(-273.951 -517.576)" fill="#1a3151"/>
      <g id="Grupo_62741" data-name="Grupo 62741" transform="translate(11.192 71.973)">
        <path id="Trazado_110756" data-name="Trazado 110756" d="M285.059,554.168l4.486-39.637-5.4-44.374,1.214-9.439,24.105-.916.87,15.363-4.047,39.426-15.224,41.6Z" transform="translate(-284.147 -459.802)" fill="#1a3151"/>
      </g>
      <path id="Trazado_110757" data-name="Trazado 110757" d="M350.5,354.3l12.125,3.3,14.023,24.848-6.643,6.15-9.349-11.071Z" transform="translate(-311.727 -326.18)" fill="#ebb044"/>
      <g id="Grupo_62742" data-name="Grupo 62742" transform="translate(29.775 72.57)">
        <path id="Trazado_110758" data-name="Trazado 110758" d="M353.276,465.082l.063,40-8.051,51.492-5.8-.058L336.308,508.9l-7.456-47.661Z" transform="translate(-328.852 -461.236)" fill="#1a3151"/>
        <path id="Trazado_110759" data-name="Trazado 110759" d="M354.473,691.923l6.236,3.2,3.165-3.1-3.1-3.165-6.267-.062Z" transform="translate(-343.823 -594.2)" fill="#1a3151"/>
      </g>
      <g id="Grupo_62743" data-name="Grupo 62743" transform="translate(8.658 27.852)">
        <path id="Trazado_110760" data-name="Trazado 110760" d="M278.092,415.826c.055-1.733.152-3.18.165-3.7.124-4.65.538-9.289,1.121-13.906.522-4.137,1.18-14.408,1.888-18.52.584-3.395,2.622-11.868,4.094-15.017,3.66-7.831,2.529-8.554,18.607-10.88,7.047-1.019,8.713,3.372,14.473,8.422.568.5.537,3.464.669,4.249.232,1.383.481,2.764.766,4.138.224,1.08.471,2.157.749,3.227h0s4.836,22.009,8.035,26.683,9.806,11.209-1.247,15.2a39.51,39.51,0,0,1-5.968,1.558s-9.039-1-13.688-.97a78.968,78.968,0,0,0-12.79,1.191,27.513,27.513,0,0,0-8.2,2.469c-2.4,1.255-4.136,3.1-6.573,4.4a1.27,1.27,0,0,1-.747.214C278.042,424.393,277.976,419.474,278.092,415.826Z" transform="translate(-278.053 -353.659)" fill="#ebb044"/>
      </g>
      <g id="Grupo_62744" data-name="Grupo 62744" transform="translate(19.367 0)">
        <path id="Trazado_110761" data-name="Trazado 110761" d="M328.316,332.225a6.615,6.615,0,0,1-4.723-.238,1.043,1.043,0,0,1-.669-.978,27.089,27.089,0,0,1,.292-3.626c-1.5-.527-3.229-1.316-3.49-2.883a4.477,4.477,0,0,1,.088-1.491l1.056-6.113a5.464,5.464,0,0,1,.635-2.034,4.589,4.589,0,0,1,3.214-1.738,11.165,11.165,0,0,1,9.04,2.2,4.894,4.894,0,0,1,1.527,2.014,6.631,6.631,0,0,1-.222,3.873l-.924,3.52c-.354,1.349-.866,2.883-2.166,3.389-.69.269-1.505.19-2.13.588C328.741,329.413,328.89,331.051,328.316,332.225Z" transform="translate(-313.093 -302.017)" fill="#efbfa5"/>
        <path id="Trazado_110762" data-name="Trazado 110762" d="M337.25,296.544a13.156,13.156,0,0,1,1.017-1.461,25.681,25.681,0,0,0,2.457-2.96,3.336,3.336,0,0,0,.1-3.627,3.982,3.982,0,0,0-2.118-1.221,15.394,15.394,0,0,0-8.095-.149c-2.521.641-4.777,1.7-7.315.757-2.385-.89-4.107-.528-6.6.362-2.7.962-6.318,1.189-8.759,2.548a7.2,7.2,0,0,0-2.467,2.433,10.851,10.851,0,0,0-.03,11.475,15.518,15.518,0,0,0,1.688,2.129c1.272,1.38,2.794,3.084,4.545,3.6.042-1.566-1.385-6.5-.182-7.786,1.908-2.036,6.223-1.326,8.59-.825,2.582.547,4.884,2.376,7.444,2.766a9.651,9.651,0,0,0,5.76-1.575C335.219,301.829,336.119,298.4,337.25,296.544Z" transform="translate(-303.815 -286.656)" fill="#1a3151"/>
      </g>
      <path id="Trazado_110763" data-name="Trazado 110763" d="M278.448,361.255l-10.032,8.79-11.192,23.519,14.136,16.817,2.432-9.4Z" transform="translate(-257.224 -330.246)" fill="#ebb044"/>
    </g>
    <g id="Grupo_62752" data-name="Grupo 62752" transform="translate(68.88 187.552)">
      <g id="Grupo_62746" data-name="Grupo 62746" transform="translate(22.056 85.649)">
        <path id="Trazado_110764" data-name="Trazado 110764" d="M180.135,523.938l-21.5-7.215,5.453,37.147-1.62,32.23-.062.216.051,0-.158,3.133h3.731l.1-.459h0l9.236-31.234,4.086-30.66h0Z" transform="translate(-158.635 -516.724)" fill="#b5d6ca"/>
        <path id="Trazado_110765" data-name="Trazado 110765" d="M169.983,688.536l-4.356.014-1.006,3.7.111.03-.028,0,7.318,4.058,3.433.282.323-3.923-.944-.651Z" transform="translate(-162.132 -617.117)" fill="#145566"/>
      </g>
      <g id="Grupo_62747" data-name="Grupo 62747" transform="translate(37.983 88.956)">
        <path id="Trazado_110766" data-name="Trazado 110766" d="M219.249,528.812l-4.718,66.261-3.6.988-5.664-37.274-8.317-34.108Z" transform="translate(-196.95 -524.678)" fill="#b5d6ca"/>
        <path id="Trazado_110767" data-name="Trazado 110767" d="M232.976,692.154l5.669,3L238.2,697.8l-10.01-1.217.478-3.809Z" transform="translate(-215.202 -622.538)" fill="#145566"/>
      </g>
      <g id="Grupo_62748" data-name="Grupo 62748" transform="translate(16.177 19.5)">
        <path id="Trazado_110768" data-name="Trazado 110768" d="M144.508,441.686c-.449-10.819,9.214-45.224,9.214-45.224h0a61.115,61.115,0,0,0,2.268-9.818c.332-2.347,7.365-29.021,6.9-29.055,4.845.354,14.186-.792,17.774,2.649.1.1.2.2.293.306,2.8,3.19,4.251,9.65,5.574,13.626a106.646,106.646,0,0,1,3.983,16.007c.8,4.746,1.271,9.54,1.605,14.34.288,4.126.059,8.228.2,12.287.155,4.493,1.5,9.364,2.509,13.735a76.091,76.091,0,0,0,4.075,12.909c-4.809,2.129-10.167,2.7-15.426,2.724s-10.513-.487-15.772-.406c-4.447.069-8.949.553-13.306-.339a45.925,45.925,0,0,1-9.888-3.74Z" transform="translate(-144.493 -357.589)" fill="#9ea6ad"/>
      </g>
      <g id="Grupo_62749" data-name="Grupo 62749" transform="translate(21.53)">
        <path id="Trazado_110769" data-name="Trazado 110769" d="M228.644,324.931c2.211,1.092,4.516,3.908,4.373,6.53-.069,1.262-.767,2.243-.786,3.6-.049,2.669-4.1,5.463-1.619,8.038,1.273,1.323,3.263,1.582,5.09,1.766a1.349,1.349,0,0,0,.659-.044.947.947,0,0,0,.495-.909,3.839,3.839,0,0,0-.26-1.064c-1.162-3.653.593-7.914.8-11.637s-.673-7.727-3.719-10.148a6.888,6.888,0,0,0-4.568,3.37Z" transform="translate(-199.017 -316.744)" fill="#1a3151"/>
        <path id="Trazado_110770" data-name="Trazado 110770" d="M213.085,342.06a8.035,8.035,0,0,0,5.833-4.427,16.094,16.094,0,0,0,1.511-7.39c.04-8.447-10.413-9.017-14.615-2.987C202.151,332.512,205.762,342.983,213.085,342.06Z" transform="translate(-184.832 -318.017)" fill="#c67a6d"/>
        <path id="Trazado_110771" data-name="Trazado 110771" d="M172.969,335.751a7.145,7.145,0,0,0,3.587-1.873c1.624-1.772,2.108-5.108,2.873-7.315.806-2.327,1.758-4.841,3.873-6.1a5.829,5.829,0,0,1,4.285-.489c1.036.186,1,.584,1.982.2a4.546,4.546,0,0,0,1.873-2.162,4.371,4.371,0,0,0-.373-3.756,6.126,6.126,0,0,0-4.249-3.209c-6.7-1.469-12.537,1.531-15.724,7.734-1.532,2.982-1.547,6.633-3.117,9.484-.969,1.76-2.418,2.775-3.3,4.679-2.284,4.941-6.452,11.015-7.287,16.423a.769.769,0,0,0,.072.586c.25.328.768.09,1.092-.165l5.677-4.467a10.178,10.178,0,0,0,2.049-1.946c1.378-1.909,1.411-4.722,3.261-6.177A9.466,9.466,0,0,1,172.969,335.751Z" transform="translate(-157.37 -310.678)" fill="#1a3151"/>
      </g>
      <g id="Grupo_62751" data-name="Grupo 62751" transform="translate(0 9.474)">
        <g id="Grupo_62750" data-name="Grupo 62750">
          <path id="Trazado_110772" data-name="Trazado 110772" d="M111.318,338.835c-1.266.236-4.563-.647-5.321-1.81-1.748-2.686,2.4-1.859,3.9-1.9a8.265,8.265,0,0,1-.419-1.55c-.061-.489,4.391.78,4.82,1.246,1.029,1.119.56,1.965.467,3.38C113.613,338.387,112.465,338.621,111.318,338.835Z" transform="translate(-105.575 -333.469)" fill="#c67a6d"/>
        </g>
        <path id="Trazado_110773" data-name="Trazado 110773" d="M153.669,368.555l-24.326-4.047-11.2-22.716,4.453-3.669,11.854,15.73,12.385-.526,11.464.5Z" transform="translate(-112.918 -336.188)" fill="#9ea6ad"/>
      </g>
    </g>
    <g id="Grupo_62755" data-name="Grupo 62755" transform="translate(42.775 132.644)">
      <g id="Grupo_62754" data-name="Grupo 62754" transform="translate(0 0)">
        <circle id="Elipse_4719" data-name="Elipse 4719" cx="6.824" cy="6.824" r="6.824" transform="translate(29.598 46.182) rotate(-10.936)" fill="#bb83ff"/>
        <g id="Grupo_62753" data-name="Grupo 62753">
          <path id="Trazado_110774" data-name="Trazado 110774" d="M110.013,249.992a22.786,22.786,0,0,0-21.146,9.038l5.573,6.7c.074-.106.146-.215.212-.329a14.484,14.484,0,0,1,26.476,3.294c.033.117.072.231.114.342l7.045-5.134A22.787,22.787,0,0,0,110.013,249.992Z" transform="translate(-69.707 -220.207)" fill="#bb83ff"/>
          <path id="Trazado_110775" data-name="Trazado 110775" d="M98.149,213.993a37.717,37.717,0,0,0-32.758,12.191l5.4,6.5c.028-.032.057-.062.085-.094a29.495,29.495,0,0,1,48.9,5.611,4.261,4.261,0,0,0,.345.555l6.781-4.942A37.814,37.814,0,0,0,98.149,213.993Z" transform="translate(-55.99 -199.104)" fill="#bb83ff"/>
          <path id="Trazado_110776" data-name="Trazado 110776" d="M86.737,178.983a52.689,52.689,0,0,0-43.962,15.373l5.363,6.452c.049-.047.1-.093.144-.142a44.1,44.1,0,0,1,70.424,8.762c.029.051.062.1.093.147l6.778-4.94A52.689,52.689,0,0,0,86.737,178.983Z" transform="translate(-42.775 -178.587)" fill="#bb83ff"/>
        </g>
      </g>
    </g>
    <path id="Trazado_110777" data-name="Trazado 110777" d="M807.685,145.192a11.131,11.131,0,0,0-8.329,3.734L782.8,138.31a13.181,13.181,0,0,0-.009-10.088l17.085-9.949a10.959,10.959,0,1,0-1.826-11.99,10.882,10.882,0,0,0-.7,7.227l-17.584,10.24a13.229,13.229,0,1,0-.12,19.13l17.1,10.968a9.146,9.146,0,0,0,.007,4.783,11.163,11.163,0,1,0,10.929-13.439Z" transform="translate(-417.469 0)" fill="#bb83ff" opacity="0.73"/>
    <g id="Grupo_62757" data-name="Grupo 62757" transform="translate(172.297 170.883)">
      <g id="Grupo_62756" data-name="Grupo 62756" transform="translate(0)">
        <circle id="Elipse_4720" data-name="Elipse 4720" cx="64.733" cy="64.733" r="64.733" fill="#bb83ff"/>
        <path id="Trazado_110778" data-name="Trazado 110778" d="M485.4,334.771a51.157,51.157,0,1,0,4.009,19.851A50.82,50.82,0,0,0,485.4,334.771Zm-71.774,18.279a50.589,50.589,0,0,1,1.355-11.693h20.865v24.257h-20.7A52.788,52.788,0,0,1,413.621,353.049Zm37.592-33.53a53.907,53.907,0,0,1,8.715,13.942c.387.912.742,1.833,1.073,2.763H440.974V310.063A59.054,59.054,0,0,1,451.213,319.52Zm-15.372-8.954v25.659h-19.35q.476-1.341,1.029-2.658a53.843,53.843,0,0,1,8.639-13.906A59.59,59.59,0,0,1,435.842,310.566Zm0,60.18v27.537a71.547,71.547,0,0,1-9.485-10.038,63.432,63.432,0,0,1-8.775-15.075q-.487-1.206-.915-2.424Zm5.132,28.112V370.746h19.853q-.412,1.17-.876,2.329a63.329,63.329,0,0,1-8.71,15.037A71.312,71.312,0,0,1,440.974,398.858Zm0-33.245V341.357h21.544a50.559,50.559,0,0,1,1.355,11.693,52.786,52.786,0,0,1-1.52,12.564Zm26.8-24.257h14.555a46.379,46.379,0,0,1,.618,24.257H467.625a57.87,57.87,0,0,0,1.381-12.564A55.837,55.837,0,0,0,467.778,341.357Zm3.061-19.166a45.821,45.821,0,0,1,9.607,14.034H466.417q-.77-2.419-1.764-4.77a59.045,59.045,0,0,0-9.539-15.271A65.223,65.223,0,0,0,449.063,310,45.565,45.565,0,0,1,470.839,322.191Zm-64.862,0a45.555,45.555,0,0,1,22.684-12.4,65.348,65.348,0,0,0-6.281,6.392,59.053,59.053,0,0,0-9.539,15.271q-1,2.349-1.764,4.77H396.37A45.821,45.821,0,0,1,405.977,322.191Zm-11.5,19.166h15.234a55.863,55.863,0,0,0-1.227,11.693,57.846,57.846,0,0,0,1.381,12.564H393.864a46.385,46.385,0,0,1,.618-24.257Zm11.5,45.7a45.717,45.717,0,0,1-10.528-16.307h15.81q.7,2.191,1.566,4.348a68.555,68.555,0,0,0,9.479,16.3,77.34,77.34,0,0,0,7.45,8.28A45.533,45.533,0,0,1,405.977,387.053Zm64.862,0A45.546,45.546,0,0,1,447.919,399.5a77.407,77.407,0,0,0,7.271-8.108,68.54,68.54,0,0,0,9.479-16.3q.872-2.156,1.567-4.348h15.131A45.729,45.729,0,0,1,470.839,387.053Z" transform="translate(-373.674 -289.888)" fill="#fff"/>
      </g>
    </g>
    <path id="Trazado_110779" data-name="Trazado 110779" d="M346.929,460.191l5.678-1.7-.619-2.458-4.145.3.247-1.3-4.682,2.044.3,2.642Z" transform="translate(-175.665 -207.479)" fill="#efbfa5"/>
    <g id="Grupo_62760" data-name="Grupo 62760" transform="translate(267.145 236.042)">
      <g id="Grupo_62759" data-name="Grupo 62759" transform="translate(0)">
        <path id="Trazado_110780" data-name="Trazado 110780" d="M626.4,484.132a1.581,1.581,0,0,1-1.142-.474l-12.372-12.682-7.677,9.828a1.409,1.409,0,0,1-1.128.559,1.837,1.837,0,0,1-1.638-1.158l-18.265-49.171a1.444,1.444,0,0,1,.354-1.62,1.389,1.389,0,0,1,1.1-.547,1.6,1.6,0,0,1,.6.12l48.7,19.475a1.7,1.7,0,0,1,1.1,1.353,1.683,1.683,0,0,1-.71,1.569l-9.838,7.3,12.346,12.656a1.681,1.681,0,0,1,.47,1.139,1.582,1.582,0,0,1-.474,1.171l-10.26,10.01a1.685,1.685,0,0,1-1.168.471Zm-13.68-17.261a1.688,1.688,0,0,1,1.192.478L626.45,480.2l7.92-7.728-12.507-12.821a1.591,1.591,0,0,1-.466-1.247,1.783,1.783,0,0,1,.737-1.275l9-6.679-42.585-17.03,15.971,43,7.032-9A1.467,1.467,0,0,1,612.725,466.871Z" transform="translate(-583.438 -428.229)" fill="#fff"/>
        <g id="Grupo_62758" data-name="Grupo 62758">
          <path id="Trazado_110781" data-name="Trazado 110781" d="M637.4,470l-5.991-6.141-5.845-5.992,4.419-3.279L634.812,451a2.285,2.285,0,0,0-.533-4.028l-8.737-3.494-7.818-3.126-.415-.166-25.746-10.3-2.993-1.2-2.993-1.2a2.24,2.24,0,0,0-.835-.166,2.018,2.018,0,0,0-1.575.753,2.087,2.087,0,0,0-.48,2.275l2.494,6.714,3.715,10,6.023,16.214,3.788,10.2,1.536,4.135.709,1.908a2.471,2.471,0,0,0,2.237,1.575,2.034,2.034,0,0,0,1.631-.8l3.124-4,4.1-5.252,6.415,6.576,3.769,3.864.839.86.839.86a2.214,2.214,0,0,0,1.6.666,2.326,2.326,0,0,0,1.613-.652l6.9-6.734,3.357-3.276A2.274,2.274,0,0,0,637.4,470Zm-.907,2.3-10.26,10.01a1.037,1.037,0,0,1-.721.29.948.948,0,0,1-.685-.281l-1.678-1.719L611.941,469.11l-8.127,10.4a.771.771,0,0,1-.625.314,1.189,1.189,0,0,1-1.04-.742l-2.245-6.043-9.811-26.412-6.208-16.715a.814.814,0,0,1,.227-.963.756.756,0,0,1,.63-.343.975.975,0,0,1,.36.074l5.986,2.393,26.16,10.462,16.555,6.62a1.011,1.011,0,0,1,.246,1.816l-10.424,7.737.874.9,11.982,12.283A1.011,1.011,0,0,1,636.49,472.3Z" transform="translate(-582.541 -427.331)" fill="#fff"/>
          <path id="Trazado_110782" data-name="Trazado 110782" d="M627.059,464.01a1.013,1.013,0,0,1,.194-1.563l9.917-7.36-4.235-1.693-26.161-10.461L592.186,437.1l1.5,4.026,9.811,26.412,5.565,14.981,7.736-9.9a.835.835,0,0,1,.671-.294,1.049,1.049,0,0,1,.735.286l1.678,1.72,11.3,11.584,8.835-8.62-.971-1ZM631.2,484.1l-3.636-3.727-6.773-6.943-1.677-1.719a2.307,2.307,0,0,0-1.65-.671,2.1,2.1,0,0,0-1.678.785l-3.868,4.952-2.46,3.15-2.073-5.583-2.695-7.254-3.49-9.4-6.32-17.015-.492-1.325,11.914,4.764,13.081,5.231,13.08,5.231,2.112.845-3.123,2.317-4.958,3.68a2.42,2.42,0,0,0-.992,1.737,2.218,2.218,0,0,0,.645,1.744l5.991,6.141,5.991,6.141.079.082Z" transform="translate(-588.177 -433.037)" fill="#fff"/>
        </g>
      </g>
      <path id="Trazado_110783" data-name="Trazado 110783" d="M625.359,460.846l11.421-8.477-48.7-19.475,18.264,49.171,8.756-11.209,13.66,14,5.13-5,5.13-5Z" transform="translate(-585.777 -430.582)" fill="#47286d"/>
    </g>
    <g id="Grupo_62761" data-name="Grupo 62761" transform="translate(317.321 252.172)">
      <path id="Trazado_110784" data-name="Trazado 110784" d="M711.393,468.533l.1,2.961-5.226,1.9-3.012-2.282,0-3.447,2.908-.162.091-.758.952-.612Z" transform="translate(-703.248 -466.134)" fill="#efbfa5"/>
    </g>
    <g id="Grupo_62762" data-name="Grupo 62762" transform="translate(146.711 112.781)">
      <path id="Trazado_110785" data-name="Trazado 110785" d="M338.655,134.421l7.267.574-15.08,33.749-6.1-.481-6.283-23.609-9.958,22.327-6.1-.481-9.6-35.7,7.754.612,6.1,24.625,10.283-23.331,5.316.419,6.272,24.982Z" transform="translate(-292.813 -130.802)" fill="#47286d"/>
      <path id="Trazado_110786" data-name="Trazado 110786" d="M470.759,144.849l7.266.574-15.079,33.75-6.1-.482-6.282-23.609-9.958,22.327-6.1-.481-9.6-35.7,7.754.612,6.1,24.625,10.283-23.332,5.316.42,6.272,24.982Z" transform="translate(-370.004 -136.896)" fill="#47286d"/>
      <path id="Trazado_110787" data-name="Trazado 110787" d="M602.863,155.278l7.266.573L595.05,189.6l-6.1-.481-6.282-23.609-9.958,22.327-6.1-.481-9.6-35.7,7.755.612,6.1,24.625,10.283-23.332,5.316.419,6.272,24.982Z" transform="translate(-447.194 -142.989)" fill="#47286d"/>
      <path id="Trazado_110788" data-name="Trazado 110788" d="M680.922,226.556l7.949.627-.62,7.852-7.949-.627Z" transform="translate(-519.23 -186.753)" fill="#47286d"/>
    </g>
    <path id="Trazado_110789" data-name="Trazado 110789" d="M900.835,239.2v-2.927l-3.371-4.461-2.308,2.06,1.511,3.963-.956,1.365,1.352,1.656Z" transform="translate(-498.062 -77.044)" fill="#c67a6d"/>
  </g>
</svg>
