<svg xmlns="http://www.w3.org/2000/svg" width="341.782" height="246.948" viewBox="0 0 341.782 246.948">
  <g id="Grupo_62714" data-name="Grupo 62714" transform="translate(-527.101 -78.025)">
    <g id="Grupo_59575" data-name="Grupo 59575" transform="translate(527.101 78.025)">
      <g id="Grupo_59531" data-name="Grupo 59531">
        <g id="Grupo_59524" data-name="Grupo 59524" transform="translate(261.475 149.894)">
          <g id="Grupo_59523" data-name="Grupo 59523" transform="translate(0 14.07)">
            <path id="Trazado_105248" data-name="Trazado 105248" d="M825.4,265.62a80.223,80.223,0,0,1,25.972,5.35,82.515,82.515,0,0,1,22.9,13.391A78.706,78.706,0,0,1,884.8,294.9c.308.374.878-.119.569-.494a80.886,80.886,0,0,0-20.207-17.468,83.109,83.109,0,0,0-24.742-10.1,79.686,79.686,0,0,0-14.957-1.969c-.484-.017-.547.734-.062.751Z" transform="translate(-825.062 -264.869)" fill="#f9e478"/>
          </g>
          <path id="Trazado_105249" data-name="Trazado 105249" d="M845.512,266.334c5.337-5.143,12.66-10.928,20.168-14.184,4.249-1.844,8.942-3.364,13.81-3.314,2.3.025,4.773.488,6.181,1.843,2.091,2.011.923,5.1-1.327,7.067-2.437,2.13-5.866,3.457-9.278,4.583-9.08,3-19.745,3.167-29.554,4.005" transform="translate(-827.566 -248.836)" fill="#f9e478"/>
          <path id="Trazado_105250" data-name="Trazado 105250" d="M871.172,278.248c4.876-3.12,11.37-6.427,17.619-7.769a26.738,26.738,0,0,1,11.083-.419c1.76.372,3.579,1.106,4.45,2.359,1.294,1.861-.075,4.046-2.1,5.207a21.084,21.084,0,0,1-7.808,2.087c-7.412.9-15.6-.6-23.244-1.465" transform="translate(-830.709 -251.384)" fill="#f9e478"/>
          <path id="Trazado_105251" data-name="Trazado 105251" d="M874.684,281.435c7.117,2.072,15.778,5.549,22.336,10.442,3.712,2.77,7.365,6.086,9.742,10.334,1.125,2.01,1.951,4.383,1.475,6.279-.7,2.814-3.965,3.337-6.79,2.363-3.059-1.055-5.916-3.369-8.59-5.771-7.115-6.387-12.567-15.554-18.173-23.647" transform="translate(-831.139 -252.828)" fill="#f9e478"/>
          <path id="Trazado_105252" data-name="Trazado 105252" d="M854.173,270.819A66.722,66.722,0,0,1,866.3,288.011a34.727,34.727,0,0,1,3.422,12.086c.132,2.045-.062,4.257-1,5.573-1.4,1.953-3.83,1.069-5.477-.83-1.783-2.057-3.017-5.033-4.1-8.005-2.874-7.906-3.7-17.357-4.97-26.017" transform="translate(-828.627 -251.528)" fill="#f9e478"/>
          <path id="Trazado_105253" data-name="Trazado 105253" d="M839.244,266.69a42.8,42.8,0,0,1,7.779,11.029,22.276,22.276,0,0,1,2.2,7.753,5.9,5.9,0,0,1-.644,3.575c-.9,1.253-2.457.685-3.514-.533a16.7,16.7,0,0,1-2.628-5.134c-1.844-5.072-2.37-11.135-3.188-16.69" transform="translate(-826.799 -251.022)" fill="#f9e478"/>
        </g>
        <g id="Grupo_59526" data-name="Grupo 59526" transform="translate(123.105 204.083)" opacity="0.09">
          <g id="Grupo_59525" data-name="Grupo 59525" transform="translate(12.013)">
            <path id="Trazado_105254" data-name="Trazado 105254" d="M714.367,310.7a50.693,50.693,0,0,1-10.255,13.246,52.146,52.146,0,0,1-13.964,9.272,49.741,49.741,0,0,1-8.9,3.04.238.238,0,0,0,.122.46,51.094,51.094,0,0,0,15.527-6.607A52.514,52.514,0,0,0,709.5,318.886a50.4,50.4,0,0,0,5.275-7.937c.144-.27-.264-.515-.409-.244Z" transform="translate(-681.074 -310.586)" fill="#4b0263"/>
          </g>
          <path id="Trazado_105255" data-name="Trazado 105255" d="M710.831,321.258a46.17,46.17,0,0,1,2.44,15.384,21.626,21.626,0,0,1-1.96,8.755,5.889,5.889,0,0,1-2.763,2.994c-1.723.627-3.15-.893-3.64-2.717a17.072,17.072,0,0,1-.021-6.538c.825-5.984,3.693-12.082,5.944-17.879" transform="translate(-671.939 -311.893)" fill="#4b0263"/>
          <path id="Trazado_105256" data-name="Trazado 105256" d="M697.359,332.848A36.075,36.075,0,0,1,696.868,345a16.887,16.887,0,0,1-2.843,6.4,4.6,4.6,0,0,1-2.576,1.869c-1.415.217-2.275-1.167-2.37-2.639a13.343,13.343,0,0,1,.986-5.009c1.549-4.455,4.68-8.685,7.293-12.78" transform="translate(-670.039 -313.313)" fill="#4b0263"/>
          <path id="Trazado_105257" data-name="Trazado 105257" d="M692.857,334.288a46.173,46.173,0,0,1-12.133,9.769,21.614,21.614,0,0,1-8.57,2.654,5.882,5.882,0,0,1-3.973-.908c-1.4-1.182-.791-3.177.548-4.509a17.068,17.068,0,0,1,5.661-3.27c5.6-2.261,12.318-2.806,18.467-3.736" transform="translate(-667.384 -313.489)" fill="#4b0263"/>
          <path id="Trazado_105258" data-name="Trazado 105258" d="M704.784,324.96a42.127,42.127,0,0,1-13.125,2.1,21.932,21.932,0,0,1-7.808-1.418,5.813,5.813,0,0,1-2.883-2.119c-.72-1.337.458-2.469,1.994-2.876a16.431,16.431,0,0,1,5.68-.1c5.285.567,10.875,2.728,16.142,4.412" transform="translate(-669.021 -311.782)" fill="#4b0263"/>
          <path id="Trazado_105259" data-name="Trazado 105259" d="M712.478,317.87a27.041,27.041,0,0,1-8.419,1.347,14.072,14.072,0,0,1-5.008-.91,3.724,3.724,0,0,1-1.849-1.359c-.462-.857.293-1.585,1.279-1.845a10.524,10.524,0,0,1,3.644-.064c3.389.364,6.976,1.751,10.354,2.831" transform="translate(-671.018 -311.116)" fill="#4b0263"/>
        </g>
        <g id="Grupo_59528" data-name="Grupo 59528" transform="translate(203.415)" opacity="0.09">
          <g id="Grupo_59527" data-name="Grupo 59527" transform="translate(0 13.351)">
            <path id="Trazado_105260" data-name="Trazado 105260" d="M759.347,120.991a50.662,50.662,0,0,1,9.534-13.774,52.152,52.152,0,0,1,13.45-10,49.769,49.769,0,0,1,8.728-3.511.238.238,0,0,0-.146-.453,51.115,51.115,0,0,0-15.153,7.426,52.533,52.533,0,0,0-11.991,11.886,50.365,50.365,0,0,0-4.843,8.207c-.13.277.291.5.421.222Z" transform="translate(-758.901 -93.239)" fill="#4b0263"/>
          </g>
          <path id="Trazado_105261" data-name="Trazado 105261" d="M765.691,110.128A46.181,46.181,0,0,1,762.435,94.9a21.608,21.608,0,0,1,1.49-8.847,5.886,5.886,0,0,1,2.6-3.137c1.687-.719,3.193.725,3.78,2.519a17.05,17.05,0,0,1,.37,6.527c-.5,6.019-3.042,12.261-4.982,18.17" transform="translate(-759.334 -78.6)" fill="#4b0263"/>
          <path id="Trazado_105262" data-name="Trazado 105262" d="M778.612,98.779a36.043,36.043,0,0,1-.159-12.164,16.909,16.909,0,0,1,2.5-6.546,4.6,4.6,0,0,1,2.472-2c1.4-.291,2.334,1.044,2.508,2.509a13.323,13.323,0,0,1-.718,5.055c-1.309,4.532-4.21,8.922-6.6,13.15" transform="translate(-761.24 -78.025)" fill="#4b0263"/>
          <path id="Trazado_105263" data-name="Trazado 105263" d="M780.721,98.231a46.14,46.14,0,0,1,11.6-10.4,21.62,21.62,0,0,1,8.417-3.107,5.884,5.884,0,0,1,4.015.7c1.462,1.106.959,3.13-.306,4.532a17.054,17.054,0,0,1-5.478,3.567c-5.472,2.556-12.151,3.458-18.242,4.715" transform="translate(-761.573 -78.838)" fill="#4b0263"/>
          <path id="Trazado_105264" data-name="Trazado 105264" d="M769.476,109.031a42.132,42.132,0,0,1,12.994-2.8,21.956,21.956,0,0,1,7.872,1,5.807,5.807,0,0,1,2.991,1.962c.791,1.3-.326,2.491-1.837,2.978a16.441,16.441,0,0,1-5.667.4c-5.306-.285-11-2.145-16.353-3.545" transform="translate(-760.196 -81.478)" fill="#4b0263"/>
          <path id="Trazado_105265" data-name="Trazado 105265" d="M763.384,116.828a27.038,27.038,0,0,1,8.335-1.795,14.1,14.1,0,0,1,5.05.641,3.731,3.731,0,0,1,1.918,1.259c.507.832-.209,1.6-1.179,1.91a10.539,10.539,0,0,1-3.635.258c-3.4-.183-7.059-1.376-10.49-2.275" transform="translate(-759.45 -82.556)" fill="#4b0263"/>
        </g>
        <g id="Grupo_59530" data-name="Grupo 59530" transform="translate(0 39.313)">
          <g id="Grupo_59529" data-name="Grupo 59529" transform="translate(17.421 15.064)">
            <path id="Trazado_105266" data-name="Trazado 105266" d="M606.294,150.822a72.438,72.438,0,0,1-23.88,1.763,74.514,74.514,0,0,1-23.2-5.978,71.064,71.064,0,0,1-11.741-6.555c-.36-.248-.733.32-.372.57a73.058,73.058,0,0,0,21.864,10.186,75.043,75.043,0,0,0,23.984,2.664,71.968,71.968,0,0,0,13.477-1.982c.424-.1.294-.772-.131-.668Z" transform="translate(-546.953 -139.99)" fill="#f9e478"/>
          </g>
          <path id="Trazado_105267" data-name="Trazado 105267" d="M591.821,154.637c-3.366,5.785-8.3,12.617-14.017,17.3a30.906,30.906,0,0,1-11.178,6.287c-2.006.548-4.266.754-5.823-.075-2.313-1.23-2.061-4.2-.592-6.465,1.59-2.452,4.241-4.451,6.927-6.271,7.148-4.844,16.369-7.625,24.683-10.774" transform="translate(-531.018 -126.719)" fill="#f9e478"/>
          <path id="Trazado_105268" data-name="Trazado 105268" d="M567.52,151.7c-3.465,3.913-8.29,8.388-13.386,11.1a24.125,24.125,0,0,1-9.523,3.1,6.572,6.572,0,0,1-4.448-.95c-1.582-1.3-.934-3.534.539-5.042a19.041,19.041,0,0,1,6.267-3.739c6.216-2.613,13.7-3.329,20.552-4.465" transform="translate(-528.588 -126.36)" fill="#f9e478"/>
          <path id="Trazado_105269" data-name="Trazado 105269" d="M562.926,148.2c-6.693-.044-15.075-.926-21.979-3.558a30.9,30.9,0,0,1-11.013-6.571c-1.473-1.468-2.776-3.326-2.831-5.089-.083-2.619,2.62-3.878,5.315-3.73,2.918.161,5.97,1.466,8.885,2.892,7.758,3.792,14.756,10.409,21.623,16.056" transform="translate(-527.101 -123.609)" fill="#f9e478"/>
          <path id="Trazado_105270" data-name="Trazado 105270" d="M585.367,151.06a60.222,60.222,0,0,1-14.777-11.94,31.37,31.37,0,0,1-5.956-9.654c-.619-1.743-1-3.714-.5-5.089.733-2.042,3.063-1.874,4.962-.63a23.479,23.479,0,0,1,5.535,5.941c4.448,6.159,7.494,14.164,10.739,21.372" transform="translate(-531.608 -122.824)" fill="#f9e478"/>
          <path id="Trazado_105271" data-name="Trazado 105271" d="M600.427,152.374a38.644,38.644,0,0,1-9.479-7.659,20.122,20.122,0,0,1-3.82-6.193,5.327,5.327,0,0,1-.323-3.264c.47-1.31,1.965-1.2,3.183-.4a15.049,15.049,0,0,1,3.551,3.811c2.853,3.95,4.807,9.086,6.889,13.709" transform="translate(-534.394 -124.224)" fill="#f9e478"/>
        </g>
      </g>
      <g id="Grupo_59532" data-name="Grupo 59532" transform="translate(48.65 19.571)">
        <path id="Trazado_105272" data-name="Trazado 105272" d="M652.008,100.327,582.539,207.7l138.938-1.144Z" transform="translate(-582.539 -100.327)" fill="#4b0263" opacity="0.09"/>
        <circle id="Elipse_4385" data-name="Elipse 4385" cx="46.372" cy="46.372" r="46.372" transform="translate(28.965 102.092)" fill="#ffd96e" opacity="0.45"/>
        <rect id="Rectángulo_5875" data-name="Rectángulo 5875" width="128.505" height="119.649" transform="translate(118.895 44.438)" fill="#bb83ff" opacity="0.24"/>
      </g>
      <rect id="Rectángulo_5876" data-name="Rectángulo 5876" width="107.637" height="100.218" transform="translate(218.567 38.483)" fill="none" stroke="#02a2cb" stroke-miterlimit="10" stroke-width="1"/>
      <g id="Grupo_59533" data-name="Grupo 59533" transform="translate(51.46 184.936)">
        <rect id="Rectángulo_5877" data-name="Rectángulo 5877" width="19.899" height="19.899" fill="#1b1a1b"/>
        <rect id="Rectángulo_5878" data-name="Rectángulo 5878" width="19.899" height="19.899" transform="translate(19.899)" fill="#febb09"/>
        <rect id="Rectángulo_5879" data-name="Rectángulo 5879" width="19.899" height="19.899" transform="translate(39.797)" fill="#ff0b00"/>
        <rect id="Rectángulo_5880" data-name="Rectángulo 5880" width="19.899" height="19.899" transform="translate(59.696)" fill="#02a2cb"/>
      </g>
      <g id="Grupo_59535" data-name="Grupo 59535" transform="translate(222.23 168.034)">
        <path id="Trazado_105273" data-name="Trazado 105273" d="M820.053,292.529a17.25,17.25,0,1,1-17.25-17.25A17.25,17.25,0,0,1,820.053,292.529Z" transform="translate(-780.98 -270.214)" fill="none" stroke="#febb09" stroke-miterlimit="10" stroke-width="1"/>
        <g id="Grupo_59534" data-name="Grupo 59534">
          <line id="Línea_183" data-name="Línea 183" y2="44.63" transform="translate(22.315)" fill="none" stroke="#010305" stroke-miterlimit="10" stroke-width="3"/>
          <line id="Línea_184" data-name="Línea 184" x1="44.631" transform="translate(0 22.315)" fill="none" stroke="#010305" stroke-miterlimit="10" stroke-width="3"/>
        </g>
      </g>
      <g id="Grupo_59542" data-name="Grupo 59542" transform="translate(23.05 129.349)">
        <g id="Grupo_59536" data-name="Grupo 59536" transform="translate(3.141 3.464)">
          <path id="Trazado_105274" data-name="Trazado 105274" d="M568.565,252.606a11.617,11.617,0,1,1,11.617-11.617A11.631,11.631,0,0,1,568.565,252.606Zm0-22.658a11.041,11.041,0,1,0,11.04,11.041A11.053,11.053,0,0,0,568.565,229.948Z" transform="translate(-556.947 -229.371)" fill="#ff0b00"/>
        </g>
        <g id="Grupo_59541" data-name="Grupo 59541">
          <g id="Grupo_59538" data-name="Grupo 59538" transform="translate(14.637)">
            <g id="Grupo_59537" data-name="Grupo 59537">
              <path id="Trazado_105275" data-name="Trazado 105275" d="M570.051,225.85v28.117c0,.382-.008.763,0,1.145,0,.016,0,.032,0,.049a.442.442,0,0,0,.883,0V227.043c0-.381.008-.763,0-1.144,0-.017,0-.032,0-.049a.442.442,0,0,0-.883,0Z" transform="translate(-570.047 -225.423)" fill="#010305"/>
            </g>
          </g>
          <g id="Grupo_59540" data-name="Grupo 59540" transform="translate(0 14.637)">
            <g id="Grupo_59539" data-name="Grupo 59539">
              <path id="Trazado_105276" data-name="Trazado 105276" d="M583.105,242.107H554.988c-.382,0-.764-.008-1.145,0h-.049a.441.441,0,0,0,0,.882h28.117c.382,0,.764.009,1.145,0h.049a.441.441,0,0,0,0-.882Z" transform="translate(-553.367 -242.103)" fill="#010305"/>
            </g>
          </g>
        </g>
      </g>
      <path id="Trazado_105277" data-name="Trazado 105277" d="M816.981,107.792h27.551a3.836,3.836,0,0,1,3.775,3.157l2.031,11.295a13.277,13.277,0,0,0,13.068,10.928h0l-1.193-26.529a9.176,9.176,0,0,0-9.167-8.763H762.823a9.689,9.689,0,0,0-9.679,9.254l-1.171,26.039h0a13.28,13.28,0,0,0,13.07-10.93l2.131-11.852a3.155,3.155,0,0,1,3.106-2.6h28.115c.351,17.17.373,34.427.373,51.552v9.915c0,17.335-.022,34.511-.365,51.343l-12.568,1.346a8.826,8.826,0,0,0-7.887,8.776h59.484a8.826,8.826,0,0,0-7.887-8.776L816.98,220.6c-.347-17.1-.369-34.289-.369-51.343v-9.915C816.611,141.937,816.633,124.691,816.981,107.792Z" transform="translate(-554.638 -80.456)" fill="#f17781"/>
      <g id="Grupo_59543" data-name="Grupo 59543" transform="translate(52.088 35.719)">
        <path id="Trazado_105278" data-name="Trazado 105278" d="M654.161,274.694h-45.44a.6.6,0,0,1-.6-.7l2.631-17.084a.6.6,0,0,1,.6-.513h38.578a.6.6,0,0,1,.592.484l3.639,17.811Z" transform="translate(-589.11 -135.587)" fill="none" stroke="#4b0263" stroke-miterlimit="10" stroke-width="2"/>
        <path id="Trazado_105279" data-name="Trazado 105279" d="M668.834,179.412l-36.279-60a1.084,1.084,0,0,0-2.012.562v53.508a5.368,5.368,0,1,1-2.825-.032V119.814a1.084,1.084,0,0,0-2-.587l-39.092,60.661a1.084,1.084,0,0,0-.092,1L607.912,233a1.084,1.084,0,0,0,1,.673H647a1.084,1.084,0,0,0,1.007-.684l20.9-52.616A1.083,1.083,0,0,0,668.834,179.412Z" transform="translate(-586.458 -118.729)" fill="none" stroke="#4b0263" stroke-miterlimit="10" stroke-width="2"/>
      </g>
      <g id="Grupo_59544" data-name="Grupo 59544" transform="translate(31.321 6.808)">
        <path id="Trazado_105280" data-name="Trazado 105280" d="M568.459,112.227s52.114-52.113,117.256,0" transform="translate(-563.487 -86.185)" fill="none" stroke="#4b0263" stroke-miterlimit="10" stroke-width="2"/>
        <path id="Trazado_105281" data-name="Trazado 105281" d="M569.6,116.5a3.405,3.405,0,1,1-3.4-3.4A3.405,3.405,0,0,1,569.6,116.5Z" transform="translate(-562.793 -89.128)" fill="#4b0263"/>
        <circle id="Elipse_4386" data-name="Elipse 4386" cx="3.405" cy="3.405" r="3.405" transform="translate(118.823 23.97)" fill="#4b0263"/>
        <rect id="Rectángulo_5881" data-name="Rectángulo 5881" width="5.762" height="5.762" transform="translate(60.719)" fill="#4b0263"/>
      </g>
      <g id="Grupo_59549" data-name="Grupo 59549" transform="translate(51.932 227.691)">
        <g id="Grupo_59545" data-name="Grupo 59545" transform="translate(1.788 2.536)">
          <path id="Trazado_105282" data-name="Trazado 105282" d="M589,340.378c20.846,16.677,39.466,15.81,51.414,12.143a56.207,56.207,0,0,0,21.214-12.1l.777.777a57.365,57.365,0,0,1-21.624,12.363c-12.212,3.758-31.227,4.669-52.467-12.323Z" transform="translate(-588.317 -340.378)" fill="#02a2cb"/>
        </g>
        <g id="Grupo_59546" data-name="Grupo 59546" transform="translate(74.34)">
          <path id="Trazado_105283" data-name="Trazado 105283" d="M670.993,339.619a2.13,2.13,0,1,1,2.13,2.131A2.13,2.13,0,0,1,670.993,339.619Z" transform="translate(-670.993 -337.488)" fill="#02a2cb"/>
        </g>
        <g id="Grupo_59547" data-name="Grupo 59547">
          <path id="Trazado_105284" data-name="Trazado 105284" d="M586.28,339.619a2.131,2.131,0,1,1,2.131,2.131A2.131,2.131,0,0,1,586.28,339.619Z" transform="translate(-586.28 -337.488)" fill="#02a2cb"/>
        </g>
        <g id="Grupo_59548" data-name="Grupo 59548" transform="translate(37.008 15.653)">
          <rect id="Rectángulo_5882" data-name="Rectángulo 5882" width="3.605" height="3.605" transform="translate(3.605 3.605) rotate(180)" fill="#02a2cb"/>
        </g>
      </g>
      <g id="Grupo_59554" data-name="Grupo 59554" transform="translate(285.927 80.984)">
        <g id="Grupo_59550" data-name="Grupo 59550" transform="translate(1.829 0.865)">
          <path id="Trazado_105285" data-name="Trazado 105285" d="M904.305,181.66c-14-11.2-26.5-10.617-34.527-8.155a37.752,37.752,0,0,0-14.246,8.128l-.521-.521a38.511,38.511,0,0,1,14.521-8.3c8.2-2.523,20.971-3.135,35.234,8.275Z" transform="translate(-855.011 -171.295)" fill="#02a2cb"/>
        </g>
        <g id="Grupo_59551" data-name="Grupo 59551" transform="translate(0 10.071)">
          <circle id="Elipse_4387" data-name="Elipse 4387" cx="1.431" cy="1.431" r="1.431" fill="#02a2cb"/>
        </g>
        <g id="Grupo_59552" data-name="Grupo 59552" transform="translate(49.922 10.071)">
          <circle id="Elipse_4388" data-name="Elipse 4388" cx="1.431" cy="1.431" r="1.431" fill="#02a2cb"/>
        </g>
        <g id="Grupo_59553" data-name="Grupo 59553" transform="translate(25.511)">
          <rect id="Rectángulo_5883" data-name="Rectángulo 5883" width="2.421" height="2.421" fill="#02a2cb"/>
        </g>
      </g>
      <g id="Grupo_59562" data-name="Grupo 59562" transform="translate(144.772 38.388)">
        <g id="Grupo_59556" data-name="Grupo 59556" transform="translate(0 18.785)">
          <g id="Grupo_59555" data-name="Grupo 59555">
            <path id="Trazado_105286" data-name="Trazado 105286" d="M714.591,182.963l-11.95,2.444a.163.163,0,0,1-.195-.151l-.227-4.634a.163.163,0,0,1,.13-.167l10.145-2.075a.161.161,0,0,1,.182.1l1.915,4.488Z" transform="translate(-693.317 -147.486)" fill="#4b0263"/>
            <path id="Trazado_105287" data-name="Trazado 105287" d="M713.686,157.1l-12.767-13.826a.291.291,0,0,0-.5.255L703.3,157.6a1.442,1.442,0,1,1-.744.144l-2.885-14.107a.291.291,0,0,0-.556-.047l-7.018,18.056a.29.29,0,0,0,.03.268l8.424,12.555a.291.291,0,0,0,.3.123l10.017-2.049a.291.291,0,0,0,.228-.233l2.666-14.962A.287.287,0,0,0,713.686,157.1Z" transform="translate(-692.075 -143.176)" fill="#4b0263"/>
          </g>
          <rect id="Rectángulo_5884" data-name="Rectángulo 5884" width="12.358" height="61.505" transform="translate(9.13 37.77) rotate(-11.56)" fill="#f60034"/>
        </g>
        <g id="Grupo_59558" data-name="Grupo 59558" transform="translate(21.346)">
          <rect id="Rectángulo_5885" data-name="Rectángulo 5885" width="12.358" height="61.505" transform="matrix(1, -0.027, 0.027, 1, 5.65, 37.291)" fill="#feb604"/>
          <g id="Grupo_59557" data-name="Grupo 59557">
            <path id="Trazado_105288" data-name="Trazado 105288" d="M735.2,163.421,723,163.747a.163.163,0,0,1-.165-.183l.583-4.6a.163.163,0,0,1,.157-.142l10.352-.276a.161.161,0,0,1,.162.125l1.1,4.753Z" transform="translate(-717.187 -126.273)" fill="none" stroke="#4b0263" stroke-miterlimit="10" stroke-width="1"/>
            <path id="Trazado_105289" data-name="Trazado 105289" d="M738.5,137.751l-10.165-15.839a.291.291,0,0,0-.535.165l.383,14.358a1.44,1.44,0,1,1-.758.011l-.383-14.393a.291.291,0,0,0-.54-.144l-10.056,16.558a.291.291,0,0,0-.018.269l6.109,13.831a.289.289,0,0,0,.274.173l10.22-.272a.292.292,0,0,0,.266-.191l5.232-14.268A.29.29,0,0,0,738.5,137.751Z" transform="translate(-716.399 -121.769)" fill="none" stroke="#4b0263" stroke-miterlimit="10" stroke-width="1"/>
          </g>
        </g>
        <g id="Grupo_59560" data-name="Grupo 59560" transform="translate(33.619 25.621)">
          <path id="Trazado_105290" data-name="Trazado 105290" d="M759.188,181.589l-12.023-2.98,1.235-5.038,11.923,3.1-1.136,4.92Z" transform="translate(-732.44 -153.734)" fill="#4b0263"/>
          <rect id="Rectángulo_5886" data-name="Rectángulo 5886" width="12.358" height="61.505" transform="matrix(0.971, 0.241, -0.241, 0.971, 14.798, 24.7)" fill="#f60034"/>
          <g id="Grupo_59559" data-name="Grupo 59559" transform="translate(16.705)">
            <path id="Trazado_105291" data-name="Trazado 105291" d="M760.511,172.01l2.163-9.409-3.381-11.635-7.565,8.941-2.306,9.343Z" transform="translate(-749.422 -150.966)" fill="none" stroke="#4b0263" stroke-miterlimit="10" stroke-width="1"/>
            <line id="Línea_185" data-name="Línea 185" x2="6.271" y2="1.401" transform="translate(5.496 5.122)" fill="none" stroke="#4b0263" stroke-miterlimit="10" stroke-width="1"/>
          </g>
        </g>
        <g id="Grupo_59561" data-name="Grupo 59561" transform="translate(4.612 93.401)">
          <path id="Rectángulo_5887" data-name="Rectángulo 5887" d="M3.294,0H53.708a3.342,3.342,0,0,1,3.342,3.342V56.656A25.367,25.367,0,0,1,31.682,82.023H24.461A24.461,24.461,0,0,1,0,57.562V3.294A3.294,3.294,0,0,1,3.294,0Z" fill="#4b0263"/>
          <rect id="Rectángulo_5888" data-name="Rectángulo 5888" width="57.049" height="7.62" transform="translate(0 8.831)" fill="#fdf6e6" opacity="0.2"/>
          <rect id="Rectángulo_5889" data-name="Rectángulo 5889" width="57.049" height="7.62" transform="translate(0 21.515)" fill="#fdf6e6" opacity="0.2"/>
        </g>
      </g>
      <g id="Grupo_59563" data-name="Grupo 59563" transform="translate(159.86 123.833)">
        <line id="Línea_186" data-name="Línea 186" y2="121.752" transform="translate(152.933)" fill="none" stroke="#4b0263" stroke-miterlimit="10" stroke-width="2"/>
        <line id="Línea_187" data-name="Línea 187" x1="168.275" transform="translate(0 108.263)" fill="none" stroke="#4b0263" stroke-miterlimit="10" stroke-width="2"/>
      </g>
      <g id="Grupo_59567" data-name="Grupo 59567" transform="translate(211.795 126.948)">
        <path id="Trazado_105292" data-name="Trazado 105292" d="M849.514,331.138l-1-2.934a6.593,6.593,0,0,0-4.111-4.111l-2.935-1,2.989-1.09a6.649,6.649,0,0,0,3.967-3.967l1.09-2.989.763,2.4a7.515,7.515,0,0,0,4.883,4.883l2.4.763-2.467.972c-2.108.83-3.59,1.5-4.606,4.606Z" transform="translate(-777.391 -233.998)" fill="#4b0263"/>
        <path id="Trazado_105293" data-name="Trazado 105293" d="M907.811,253.371l-.656-1.922a4.318,4.318,0,0,0-2.692-2.693l-1.923-.656,1.958-.714a4.353,4.353,0,0,0,2.6-2.6l.714-1.958.5,1.573a4.924,4.924,0,0,0,3.2,3.2l1.572.5-1.616.637a4.156,4.156,0,0,0-3.017,3.017Z" transform="translate(-784.87 -225.154)" fill="#fcb610"/>
        <g id="Grupo_59564" data-name="Grupo 59564" transform="translate(45.588 91.819)">
          <path id="Trazado_105294" data-name="Trazado 105294" d="M824.491,335.5a4.092,4.092,0,1,1,4.092-4.092A4.1,4.1,0,0,1,824.491,335.5Zm0-6.955a2.863,2.863,0,1,0,2.863,2.863A2.867,2.867,0,0,0,824.491,328.548Z" transform="translate(-820.399 -327.319)" fill="#fcb610"/>
        </g>
        <g id="Grupo_59565" data-name="Grupo 59565" transform="translate(126.375)">
          <path id="Trazado_105295" data-name="Trazado 105295" d="M914.265,226.3a1.807,1.807,0,1,1,1.807-1.807A1.809,1.809,0,0,1,914.265,226.3Zm0-3.071a1.265,1.265,0,1,0,1.265,1.265A1.267,1.267,0,0,0,914.265,223.23Z" transform="translate(-912.459 -222.688)" fill="#fcb610"/>
        </g>
        <g id="Grupo_59566" data-name="Grupo 59566" transform="translate(0 86.321)">
          <path id="Trazado_105296" data-name="Trazado 105296" d="M770.257,324.667a1.806,1.806,0,1,1,1.806-1.806A1.809,1.809,0,0,1,770.257,324.667Zm0-3.071a1.264,1.264,0,1,0,1.264,1.265A1.265,1.265,0,0,0,770.257,321.6Z" transform="translate(-768.45 -321.054)" fill="#fcb610"/>
        </g>
      </g>
      <g id="Grupo_59574" data-name="Grupo 59574" transform="translate(10.676 4.524)">
        <path id="Trazado_105297" data-name="Trazado 105297" d="M715.668,99.272l-1-2.934a6.589,6.589,0,0,0-4.111-4.111l-2.934-1,2.988-1.09a6.646,6.646,0,0,0,3.967-3.967l1.091-2.989.763,2.4a7.516,7.516,0,0,0,4.882,4.883l2.4.763-2.468.972c-2.107.83-3.59,1.5-4.605,4.606Z" transform="translate(-559.883 -83.18)" fill="#fcb610"/>
        <path id="Trazado_105298" data-name="Trazado 105298" d="M547.312,197.851l-1-2.934a6.593,6.593,0,0,0-4.111-4.111l-2.934-1,2.988-1.09a6.646,6.646,0,0,0,3.967-3.967l1.09-2.989.763,2.4a7.519,7.519,0,0,0,4.883,4.883l2.4.763-2.468.972c-2.107.831-3.59,1.5-4.605,4.606Z" transform="translate(-539.267 -95.251)" fill="#f17781"/>
        <path id="Trazado_105299" data-name="Trazado 105299" d="M609.579,334.382l-.7-2.055A4.617,4.617,0,0,0,606,329.448l-2.054-.7,2.093-.763a4.655,4.655,0,0,0,2.778-2.778l.763-2.093.534,1.681a5.263,5.263,0,0,0,3.42,3.419l1.68.535-1.728.681a4.442,4.442,0,0,0-3.226,3.226Z" transform="translate(-547.187 -112.561)" fill="#4b0263"/>
        <g id="Grupo_59568" data-name="Grupo 59568" transform="translate(170.239 18.07)">
          <path id="Trazado_105300" data-name="Trazado 105300" d="M737.352,111.956a4.092,4.092,0,1,1,4.092-4.092A4.1,4.1,0,0,1,737.352,111.956Zm0-6.955a2.863,2.863,0,1,0,2.864,2.863A2.867,2.867,0,0,0,737.352,105Z" transform="translate(-733.261 -103.772)" fill="#fcb610"/>
        </g>
        <g id="Grupo_59569" data-name="Grupo 59569" transform="translate(19.959 176.32)">
          <path id="Trazado_105301" data-name="Trazado 105301" d="M566.1,292.288a4.092,4.092,0,1,1,4.092-4.092A4.1,4.1,0,0,1,566.1,292.288Zm0-6.955a2.863,2.863,0,1,0,2.864,2.863A2.867,2.867,0,0,0,566.1,285.333Z" transform="translate(-562.011 -284.104)" fill="#fcb610"/>
        </g>
        <g id="Grupo_59570" data-name="Grupo 59570" transform="translate(76.457 210.801)">
          <path id="Trazado_105302" data-name="Trazado 105302" d="M628.2,327.01a1.806,1.806,0,1,1,1.806-1.806A1.809,1.809,0,0,1,628.2,327.01Zm0-3.07a1.264,1.264,0,1,0,1.264,1.264A1.265,1.265,0,0,0,628.2,323.939Z" transform="translate(-626.393 -323.397)" fill="#fcb610"/>
        </g>
        <g id="Grupo_59571" data-name="Grupo 59571" transform="translate(57.276 29.659)">
          <path id="Trazado_105303" data-name="Trazado 105303" d="M606.341,120.592a1.807,1.807,0,1,1,1.807-1.807A1.809,1.809,0,0,1,606.341,120.592Zm0-3.071a1.265,1.265,0,1,0,1.265,1.265A1.266,1.266,0,0,0,606.341,117.52Z" transform="translate(-604.535 -116.978)" fill="#fcb610"/>
        </g>
        <g id="Grupo_59572" data-name="Grupo 59572" transform="translate(175.105 0.478)">
          <path id="Trazado_105304" data-name="Trazado 105304" d="M740.613,87.338a1.806,1.806,0,1,1,1.806-1.807A1.809,1.809,0,0,1,740.613,87.338Zm0-3.071a1.265,1.265,0,1,0,1.264,1.265A1.266,1.266,0,0,0,740.613,84.266Z" transform="translate(-738.806 -83.725)" fill="#fcb610"/>
        </g>
        <g id="Grupo_59573" data-name="Grupo 59573" transform="translate(17.737 108.101)">
          <path id="Trazado_105305" data-name="Trazado 105305" d="M563.57,214.549a4.092,4.092,0,1,1,4.093-4.092A4.1,4.1,0,0,1,563.57,214.549Zm0-6.955a2.863,2.863,0,1,0,2.864,2.863A2.867,2.867,0,0,0,563.57,207.594Z" transform="translate(-559.479 -206.365)" fill="#fcb610"/>
        </g>
      </g>
    </g>
  </g>
</svg>
