<svg xmlns="http://www.w3.org/2000/svg" width="196" height="196" viewBox="0 0 196 196">
  <g id="Grupo_68139" data-name="Grupo 68139" transform="translate(-280 -802.367)">
    <g id="Grupo_68135" data-name="Grupo 68135">
      <g id="Elipse_4773" data-name="Elipse 4773" transform="translate(280 802.367)" fill="#fff" stroke="#8a8a8a" stroke-width="3" stroke-dasharray="3 4">
        <circle cx="98" cy="98" r="98" stroke="none"/>
        <circle cx="98" cy="98" r="96.5" fill="none"/>
      </g>
      <ellipse id="Elipse_4774" data-name="Elipse 4774" cx="87.5" cy="87" rx="87.5" ry="87" transform="translate(291 813.367)" fill="#bb83ff" opacity="0.5"/>
    </g>
    <g id="Grupo_68138" data-name="Grupo 68138">
      <g id="Grupo_68137" data-name="Grupo 68137">
        <g id="Grupo_68136" data-name="Grupo 68136">
          <g id="group" transform="translate(323 841)">
            <path id="Trazado_111303" data-name="Trazado 111303" d="M54.922,312.982a12.891,12.891,0,0,0-6.293-3.6l-8.92-2.137,0,.006,0-.006V301.8H28.818v5.463h0l-8.9,2.125A12.924,12.924,0,0,0,10,321.955v14.573H29.72Z" transform="translate(-7.832 -236.368)" fill="#31d9e7"/>
            <path id="Trazado_111304" data-name="Trazado 111304" d="M107.3,301.8v5.592l-5.653,13.54L96,307.409V301.8Z" transform="translate(-75.187 -236.368)" fill="#ffb487"/>
            <path id="Trazado_111305" data-name="Trazado 111305" d="M90.233,215.261V222.8a12.141,12.141,0,0,1-12.141,12.141h0A12.141,12.141,0,0,1,65.951,222.8v-7.542Z" transform="translate(-51.653 -168.593)" fill="#ffcdac"/>
            <path id="Trazado_111306" data-name="Trazado 111306" d="M90.233,171.848v-2.923a12.141,12.141,0,0,0-12.141-12.141h0a12.141,12.141,0,0,0-12.141,12.141v2.923H74.32A28.948,28.948,0,0,0,89.2,167.732h0" transform="translate(-51.653 -122.795)" fill="#878791"/>
            <path id="Trazado_111307" data-name="Trazado 111307" d="M294.79,312.982a12.891,12.891,0,0,1,6.293-3.6l8.92-2.137,0,.006,0-.006V301.8h10.892v5.463h0l8.9,2.125a12.924,12.924,0,0,1,9.921,12.57v14.573h-19.72Z" transform="translate(-230.88 -236.368)" fill="#bb83ff"/>
            <path id="Trazado_111308" data-name="Trazado 111308" d="M126.192,352.4l-12.424,2.977a18,18,0,0,0-13.807,17.506v11.949h67.612V372.9a18,18,0,0,0-13.819-17.509l-12.391-2.96Z" transform="translate(-78.291 -276.003)" fill="#f17781"/>
            <g id="Grupo_62953" data-name="Grupo 62953" transform="translate(47.408 65.429)">
              <path id="Trazado_111309" data-name="Trazado 111309" d="M375.179,301.8v5.612l-5.647,13.521-5.653-13.54V301.8Z" transform="translate(-332.4 -301.797)" fill="#ffb487"/>
              <path id="Trazado_111310" data-name="Trazado 111310" d="M226.768,347.649l8.089-18.364a6.677,6.677,0,0,1-.942-3.424V324.1h-14.3v1.765a6.676,6.676,0,0,1-.939,3.419Z" transform="translate(-218.674 -319.262)" fill="#ffb487"/>
            </g>
            <path id="Trazado_111311" data-name="Trazado 111311" d="M211.821,191.525v11.668a16.91,16.91,0,0,1-16.91,16.91h0A16.91,16.91,0,0,1,178,203.193V191.525Z" transform="translate(-139.411 -150.003)" fill="#ffcdac"/>
            <path id="Trazado_111312" data-name="Trazado 111312" d="M194.909,115.437h0A16.91,16.91,0,0,0,178,132.347v4.071h8.268a18.579,18.579,0,0,0,14.24-6.646h0l11.312,6.646v-4.071A16.91,16.91,0,0,0,194.909,115.437Z" transform="translate(-139.409 -90.411)" fill="#f9e478"/>
            <path id="Trazado_111313" data-name="Trazado 111313" d="M334.045,215.261V222.8a12.141,12.141,0,0,0,12.141,12.141h0A12.141,12.141,0,0,0,358.327,222.8v-7.542Z" transform="translate(-261.625 -168.593)" fill="#ffcdac"/>
            <path id="Trazado_111314" data-name="Trazado 111314" d="M334.045,171.848v-2.923a12.141,12.141,0,0,1,12.141-12.141h0a12.141,12.141,0,0,1,12.141,12.141v2.923h-8.369a28.948,28.948,0,0,1-14.879-4.117h0" transform="translate(-261.625 -122.795)" fill="#878791"/>
            <path id="Trazado_111315" data-name="Trazado 111315" d="M247.908,492a2.169,2.169,0,1,0,1.533.635A2.184,2.184,0,0,0,247.908,492Z" transform="translate(-192.464 -385.336)" fill="#47286d"/>
            <path id="Trazado_111316" data-name="Trazado 111316" d="M99.414,153.487l-7.232-1.728V148.89a14.308,14.308,0,0,0,6.688-12.1V128.71a14.3,14.3,0,0,0-25.014-9.479,19.113,19.113,0,0,0-18.333-13.793h0a19.112,19.112,0,0,0-18.344,13.831A14.3,14.3,0,0,0,12.13,128.71v8.079a14.308,14.308,0,0,0,6.688,12.1v2.869l-7.232,1.728A15.043,15.043,0,0,0,0,168.165v14.573a2.168,2.168,0,0,0,2.168,2.168H19.5v6.5a2.168,2.168,0,0,0,2.168,2.168H45.455a2.168,2.168,0,0,0,0-4.336H35.777V179.7a2.168,2.168,0,1,0-4.336,0v9.542h-7.6v-9.781a15.784,15.784,0,0,1,12.144-15.4l10.663-2.555,6.861,15.609a2.168,2.168,0,0,0,1.984,1.3h0a2.168,2.168,0,0,0,1.985-1.3l6.854-15.586,10.632,2.54a15.782,15.782,0,0,1,12.155,15.4v2.419a2.172,2.172,0,0,0,0,1.7v5.656H79.559V179.7a2.168,2.168,0,0,0-4.336,0v9.542H64.606a2.168,2.168,0,1,0,0,4.336H89.284a2.168,2.168,0,0,0,2.168-2.168v-6.5h17.38A2.168,2.168,0,0,0,111,182.739V168.165A15.043,15.043,0,0,0,99.414,153.487Zm-11.563.1-3.31,7.926-3.265-7.822a2.166,2.166,0,0,0,.015-.237c0-.02,0-.041,0-.061v-2.677a14.21,14.21,0,0,0,6.556,0v2.757C87.846,153.509,87.849,153.548,87.851,153.587Zm-42.117,1.742a15.054,15.054,0,0,0-4.431-1.847l-7.257-1.739V148.9a14.412,14.412,0,0,0,4.481-4.468,19.216,19.216,0,0,0,7.207,7.706Zm-4.954-19.56v-5.015h6.1A20.691,20.691,0,0,0,61.532,124.7l8.72,5.123v6.458a14.741,14.741,0,0,1-29.473-.509Zm24.462,16.411A19.214,19.214,0,0,0,72.5,144.47a14.42,14.42,0,0,0,4.456,4.429v2.843L69.7,153.482a15.058,15.058,0,0,0-4.456,1.863v-3.165Zm19.319-5.418a9.984,9.984,0,0,1-9.973-9.973v-.354c.008-.221.013-5.829.013-5.829A31.124,31.124,0,0,0,88.333,133.8h6.2v2.989A9.984,9.984,0,0,1,84.561,146.762Zm0-28.025a9.984,9.984,0,0,1,9.973,9.973v.755h-6.2A26.787,26.787,0,0,1,74.99,125.9,9.992,9.992,0,0,1,84.561,118.737Zm-43.781,5.778a14.743,14.743,0,0,1,29.485,0v.283l-8.046-4.727a2.168,2.168,0,0,0-2.76.477,16.372,16.372,0,0,1-12.579,5.87h-6.1ZM16.466,128.71A9.974,9.974,0,0,1,36.01,125.9a26.788,26.788,0,0,1-13.343,3.561h-6.2v-.755Zm0,5.091h6.2a31.123,31.123,0,0,0,13.745-3.2v6.189a9.973,9.973,0,0,1-19.946,0S16.466,133.8,16.466,133.8Zm9.973,17.3a14.3,14.3,0,0,0,3.271-.382v2.617c0,.041,0,.081,0,.122,0,.068.007.136.013.2l-3.28,7.854-3.292-7.887c0-.052.007-.1.007-.156v-2.757A14.3,14.3,0,0,0,26.439,151.1ZM19.5,179.461v1.11h-6.5v-9.632a2.168,2.168,0,0,0-4.336,0v9.632H4.336V168.165A10.721,10.721,0,0,1,12.593,157.7l6.872-1.642,4.485,10.743A20.126,20.126,0,0,0,19.5,179.461Zm15.469-19.614a20.381,20.381,0,0,0-3.665,1.26l2.112-5.056,6.873,1.647a10.744,10.744,0,0,1,1.555.5Zm20.519,11.011L50.07,158.523v-4.471a19.093,19.093,0,0,0,10.836.02v4.475Zm13.621-12.642a10.763,10.763,0,0,1,1.595-.518l6.856-1.643,2.12,5.079a20.382,20.382,0,0,0-3.715-1.28Zm37.552,22.354h-4.336v-9.632a2.168,2.168,0,1,0-4.336,0v9.632h-6.54v-1.1a20.125,20.125,0,0,0-4.433-12.64l4.5-10.773,6.889,1.646a10.721,10.721,0,0,1,8.257,10.462Z" transform="translate(0 -82.579)" fill="#47286d"/>
            <path id="Trazado_111317" data-name="Trazado 111317" d="M214.628,231.25a2.169,2.169,0,1,0,1.533.635A2.184,2.184,0,0,0,214.628,231.25Z" transform="translate(-166.399 -181.116)" fill="#47286d"/>
            <path id="Trazado_111318" data-name="Trazado 111318" d="M281.5,235.586a2.169,2.169,0,1,0-1.533-.635A2.184,2.184,0,0,0,281.5,235.586Z" transform="translate(-218.772 -181.116)" fill="#47286d"/>
            <path id="Trazado_111319" data-name="Trazado 111319" d="M242.4,265.548a2.168,2.168,0,0,0-3.066,0,1.646,1.646,0,0,1-2.325,0,2.168,2.168,0,0,0-3.066,3.066,5.987,5.987,0,0,0,8.457,0A2.168,2.168,0,0,0,242.4,265.548Z" transform="translate(-182.727 -207.481)" fill="#47286d"/>
            <path id="Trazado_111320" data-name="Trazado 111320" d="M398.788,58.336h1.487a2.168,2.168,0,0,0,0-4.336h-1.487a2.168,2.168,0,0,0,0,4.336Z" transform="translate(-310.634 -42.293)" fill="#47286d"/>
            <path id="Trazado_111321" data-name="Trazado 111321" d="M447.309,58.336H448.8a2.168,2.168,0,0,0,0-4.336h-1.487a2.168,2.168,0,0,0,0,4.336Z" transform="translate(-348.636 -42.293)" fill="#47286d"/>
            <path id="Trazado_111322" data-name="Trazado 111322" d="M426.479,80.654a2.168,2.168,0,0,0,2.168-2.168V77a2.168,2.168,0,0,0-4.336,0v1.487A2.168,2.168,0,0,0,426.479,80.654Z" transform="translate(-332.322 -58.608)" fill="#47286d"/>
            <path id="Trazado_111323" data-name="Trazado 111323" d="M426.479,32.133a2.168,2.168,0,0,0,2.168-2.168V28.478a2.168,2.168,0,1,0-4.336,0v1.487A2.168,2.168,0,0,0,426.479,32.133Z" transform="translate(-332.322 -20.606)" fill="#47286d"/>
            <path id="Trazado_111324" data-name="Trazado 111324" d="M41.612,58.336H43.1A2.168,2.168,0,0,0,43.1,54H41.612a2.168,2.168,0,0,0,0,4.336Z" transform="translate(-30.893 -42.293)" fill="#47286d"/>
            <path id="Trazado_111325" data-name="Trazado 111325" d="M90.133,58.336H91.62a2.168,2.168,0,0,0,0-4.336H90.133a2.168,2.168,0,0,0,0,4.336Z" transform="translate(-68.894 -42.293)" fill="#47286d"/>
            <path id="Trazado_111326" data-name="Trazado 111326" d="M69.3,80.654a2.168,2.168,0,0,0,2.168-2.168V77a2.168,2.168,0,0,0-4.336,0v1.487A2.168,2.168,0,0,0,69.3,80.654Z" transform="translate(-52.58 -58.608)" fill="#47286d"/>
            <path id="Trazado_111327" data-name="Trazado 111327" d="M69.3,32.133a2.168,2.168,0,0,0,2.168-2.168V28.478a2.168,2.168,0,1,0-4.336,0v1.487A2.168,2.168,0,0,0,69.3,32.133Z" transform="translate(-52.58 -20.606)" fill="#47286d"/>
            <path id="Trazado_111328" data-name="Trazado 111328" d="M248.168,48.127a2.168,2.168,0,0,0,2.168-2.168v-5.7a2.168,2.168,0,1,0-4.336,0v5.7A2.168,2.168,0,0,0,248.168,48.127Z" transform="translate(-192.668 -29.83)" fill="#47286d"/>
            <path id="Trazado_111329" data-name="Trazado 111329" d="M248.168,4.336a2.169,2.169,0,0,0,2.168-2.168,2.168,2.168,0,1,0-3.7,1.533A2.185,2.185,0,0,0,248.168,4.336Z" transform="translate(-192.668 0)" fill="#47286d"/>
            <path id="Trazado_111330" data-name="Trazado 111330" d="M193.057,29.43a2.168,2.168,0,0,0,3.066-3.066l-3.173-3.173a2.168,2.168,0,1,0-3.066,3.066Z" transform="translate(-148.221 -17.666)" fill="#47286d"/>
            <path id="Trazado_111331" data-name="Trazado 111331" d="M289.793,29.621a2.161,2.161,0,0,0,1.533-.635l3.279-3.279a2.168,2.168,0,1,0-3.066-3.066L288.26,25.92a2.168,2.168,0,0,0,1.533,3.7Z" transform="translate(-225.269 -17.235)" fill="#47286d"/>
          </g>
        </g>
      </g>
    </g>
  </g>
</svg>
