<svg xmlns="http://www.w3.org/2000/svg" width="196" height="196" viewBox="0 0 196 196">
  <g id="Grupo_68144" data-name="Grupo 68144" transform="translate(-1112 -802.367)">
    <g id="Elipse_4777" data-name="Elipse 4777" transform="translate(1112 802.367)" fill="#fff" stroke="#8a8a8a" stroke-width="3" stroke-dasharray="3 4">
      <circle cx="98" cy="98" r="98" stroke="none"/>
      <circle cx="98" cy="98" r="96.5" fill="none"/>
    </g>
    <g id="Grupo_68143" data-name="Grupo 68143">
      <g id="Grupo_68142" data-name="Grupo 68142">
        <ellipse id="Elipse_4778" data-name="Elipse 4778" cx="87.5" cy="87" rx="87.5" ry="87" transform="translate(1123 813.367)" fill="#31d9e7" opacity="0.5"/>
        <g id="administrator" transform="translate(1157.333 843.333)">
          <path id="Trazado_111332" data-name="Trazado 111332" d="M52.559,8A12.559,12.559,0,1,1,46,31.266a6.291,6.291,0,0,0-4.145-4.145A12.557,12.557,0,0,1,52.559,8Zm6.28,12.559a6.28,6.28,0,1,0-6.28,6.28A6.278,6.278,0,0,0,58.839,20.559Z" transform="translate(22.226 3.989)" fill="#fcd770"/>
          <path id="Trazado_111333" data-name="Trazado 111333" d="M77.957,19.269v9.419l-4.019.989a18.885,18.885,0,0,1-1.24,2.951l2.151,3.564-6.656,6.656L64.629,40.7a18.885,18.885,0,0,1-2.951,1.24l-.989,4.019-1.256,1.225a10.92,10.92,0,0,0-9.733-.157V36.538a6.09,6.09,0,0,0-.283-1.852,12.563,12.563,0,1,0-4.145-4.145,6.09,6.09,0,0,0-1.852-.283H34V19.269l4.019-.989a18.884,18.884,0,0,1,1.24-2.951l-2.151-3.564,6.656-6.656,3.564,2.151a18.885,18.885,0,0,1,2.951-1.24L51.269,2h9.419l.989,4.019a18.885,18.885,0,0,1,2.951,1.24l3.564-2.151,6.656,6.656L72.7,15.328a18.883,18.883,0,0,1,1.24,2.951Z" transform="translate(18.807 0.57)" fill="#f9e478"/>
          <path id="Trazado_111334" data-name="Trazado 111334" d="M15,52H44.4a23.253,23.253,0,0,0-2.653,9.419H15Z" transform="translate(7.979 29.065)" fill="#969faa"/>
          <path id="Trazado_111335" data-name="Trazado 111335" d="M45.108,59.57v4.71H10.57A1.575,1.575,0,0,1,9,62.71V59.57A1.575,1.575,0,0,1,10.57,58h34.6c-.047.518-.063,1.036-.063,1.57Z" transform="translate(4.559 32.484)" fill="#969faa"/>
          <path id="Trazado_111336" data-name="Trazado 111336" d="M60.887,46l-.487.3L56,49.768a23.916,23.916,0,0,0-4.192,5.652H8.28A6.278,6.278,0,0,1,2,49.14V46H60.887Z" transform="translate(0.57 25.645)" fill="#ccd1d9"/>
          <path id="Trazado_111337" data-name="Trazado 111337" d="M67.936,26.28V36.766a10.943,10.943,0,0,0-6.28,9.922V27.849a1.575,1.575,0,0,0-1.57-1.57H9.849a1.575,1.575,0,0,0-1.57,1.57V60.817H2V26.28A6.278,6.278,0,0,1,8.28,20H61.656a6.09,6.09,0,0,1,1.852.283,6.291,6.291,0,0,1,4.145,4.145A6.09,6.09,0,0,1,67.936,26.28Z" transform="translate(0.57 10.828)" fill="#e6e9ed"/>
          <path id="Trazado_111338" data-name="Trazado 111338" d="M59.376,58.538H6V25.57A1.57,1.57,0,0,1,7.57,24H57.807a1.57,1.57,0,0,1,1.57,1.57Z" transform="translate(2.849 13.108)" fill="#31d9e7"/>
          <g id="Grupo_62954" data-name="Grupo 62954" transform="translate(24.548 43.387)">
            <path id="Trazado_111339" data-name="Trazado 111339" d="M32,28h6.28V56.258H32Z" transform="translate(-6.882 -28)" fill="#f9e478"/>
            <path id="Trazado_111340" data-name="Trazado 111340" d="M24,32h6.28V53.979H24Z" transform="translate(-11.441 -25.72)" fill="#f17781"/>
            <path id="Trazado_111341" data-name="Trazado 111341" d="M16,36h6.28V51.7H16Z" transform="translate(-16 -23.441)" fill="#b4dd7f"/>
            <path id="Trazado_111342" data-name="Trazado 111342" d="M39.849,71.01H32V66.3c0-.534.016-1.052.063-1.57a23.253,23.253,0,0,1,2.653-9.419,23.916,23.916,0,0,1,4.192-5.652l4.4-3.469,1.256,7.551,3.14,3.14-1.57,3.14,6.28,10.989Z" transform="translate(-6.882 -17.634)" fill="#bb83ff"/>
            <path id="Trazado_111343" data-name="Trazado 111343" d="M61.559,71.01H49l6.28-10.989-1.57-3.14,3.14-3.14,1.256-7.551a23.54,23.54,0,0,1,11.3,20.11v4.71Z" transform="translate(2.807 -17.634)" fill="#bb83ff"/>
          </g>
          <path id="Trazado_111344" data-name="Trazado 111344" d="M54.849,57.685l1.57,3.14L50.14,71.814H47L54.5,44.78a22.93,22.93,0,0,1,4.741,2.214l-1.256,7.551Z" transform="translate(26.215 24.95)" fill="#bb83ff"/>
          <path id="Trazado_111345" data-name="Trazado 111345" d="M43.941,44.78l7.5,27.034h-3.14l-6.28-10.989,1.57-3.14-3.14-3.14L39.2,46.994l.487-.3c.251-.141.5-.283.769-.424a24.5,24.5,0,0,1,3.485-1.491Z" transform="translate(21.77 24.95)" fill="#bb83ff"/>
          <path id="Trazado_111346" data-name="Trazado 111346" d="M57.228,45.225l-7.5,27.034-7.5-27.034a23.606,23.606,0,0,1,15.008,0Z" transform="translate(23.491 24.505)" fill="#ccd1d9"/>
          <path id="Trazado_111347" data-name="Trazado 111347" d="M56.013,31.225a10.987,10.987,0,1,1-9.733-.157,10.92,10.92,0,0,1,9.733.157Z" transform="translate(22.226 16.527)" fill="#f0d0b4"/>
          <path id="Trazado_111348" data-name="Trazado 111348" d="M98.334,30.489V18.608l-4.386-1.079q-.29-.782-.653-1.562l2.342-3.87-8.4-8.4L83.366,6.039q-.779-.363-1.562-.653L80.726,1H68.845L67.766,5.386q-.782.29-1.562.653L62.334,3.7l-8.4,8.4,2.342,3.87q-.363.779-.653,1.562l-4.385,1.077v10.65H8.849A7.858,7.858,0,0,0,1,37.108V74.785a7.858,7.858,0,0,0,7.849,7.849H21.409v6.28h-6.28a3.143,3.143,0,0,0-3.14,3.14v3.14a3.143,3.143,0,0,0,3.14,3.14h83.2v-6.28A25.147,25.147,0,0,0,80.2,67.945a12.529,12.529,0,0,0,.549-20.451l.16-.155.892-3.628q.782-.29,1.562-.653l3.87,2.342,8.4-8.4L93.3,33.128q.363-.779.653-1.562ZM8.849,32.4H62.226a4.715,4.715,0,0,1,4.71,4.71v9.548a12.633,12.633,0,0,0-3.14,2.581V38.677a3.143,3.143,0,0,0-3.14-3.14H10.419a3.143,3.143,0,0,0-3.14,3.14v31.4H4.14V37.108A4.715,4.715,0,0,1,8.849,32.4ZM63.8,24.548a11.052,11.052,0,1,1,5.692,9.6,7.88,7.88,0,0,0-4.308-4.306A10.966,10.966,0,0,1,63.8,24.548ZM80.854,85.726l-5.41,9.468h-.163l6.495-23.382c.67.284,1.323.6,1.959.951l-1,5.977-3.584,3.584Zm-9.868,9.468-5.41-9.468,1.7-3.4-3.584-3.584-1-5.977a21.69,21.69,0,0,1,1.959-.951l6.493,23.38ZM54.376,70.075h-3.14V44.957h3.14Zm9.419-1.29V65.8a12.538,12.538,0,0,0,2.432,2.149A24.679,24.679,0,0,0,63.8,68.785Zm-3.14,1.29h-3.14V41.817H48.1V70.075h-3.14V48.1H35.538V70.075H32.4v-15.7H22.979v15.7H10.419v-31.4H60.656Zm-18.839,0h-3.14V51.237h3.14Zm-12.559,0h-3.14V57.516h3.14ZM4.14,74.785v-1.57H56.657a25.265,25.265,0,0,0-5.162,6.28H8.849A4.715,4.715,0,0,1,4.14,74.785Zm20.409,7.849h25.4a24.857,24.857,0,0,0-1.631,6.28H24.548ZM15.129,95.194v-3.14H48.1v3.14Zm36.108,0v-3.14A21.93,21.93,0,0,1,59.83,74.661l.931,5.587,2.7,2.7-1.44,2.879,5.353,9.371H59.086V82.635h-3.14V95.194H51.3Zm43.957-3.14v3.14h-4.71V82.635h-3.14V95.194H79.06l5.355-9.371-1.44-2.879,2.7-2.7.931-5.587a21.933,21.933,0,0,1,8.592,17.393ZM78.791,70.82,73.215,90.9,67.639,70.82a21.265,21.265,0,0,1,11.153,0Zm3.843-13.3A9.419,9.419,0,1,1,73.215,48.1,9.429,9.429,0,0,1,82.635,57.516Zm9.041-21-4.918,4.918L83.5,39.469l-.782.407a17.1,17.1,0,0,1-2.708,1.133l-.841.265-1.091,4.443-.166.162a12.317,12.317,0,0,0-7.837-.509V37.836A14.244,14.244,0,1,0,61.5,29.258H54.376V21.07l3.685-.906.265-.841a17.226,17.226,0,0,1,1.133-2.708l.407-.782L57.9,12.576l4.918-4.918,3.256,1.97.782-.407A17.1,17.1,0,0,1,69.56,8.088l.841-.265.9-3.683h6.958l.906,3.685.841.265a17.225,17.225,0,0,1,2.708,1.133l.782.407,3.256-1.97,4.918,4.918-1.97,3.256.407.782a17.1,17.1,0,0,1,1.133,2.708l.265.841,3.683.9v6.958l-3.685.906-.265.84a17.179,17.179,0,0,1-1.133,2.71l-.407.782Z" fill="#47286d"/>
          <path id="Trazado_111349" data-name="Trazado 111349" d="M50.849,26.7A7.849,7.849,0,1,0,43,18.849,7.858,7.858,0,0,0,50.849,26.7Zm0-12.559a4.71,4.71,0,1,1-4.71,4.71A4.715,4.715,0,0,1,50.849,14.14Z" transform="translate(23.936 5.699)" fill="#47286d"/>
          <path id="Trazado_111350" data-name="Trazado 111350" d="M9,27h3.14v3.14H9Z" transform="translate(4.559 14.817)"/>
          <path id="Trazado_111351" data-name="Trazado 111351" d="M13,27h3.14v3.14H13Z" transform="translate(6.839 14.817)"/>
          <path id="Trazado_111352" data-name="Trazado 111352" d="M17,27h3.14v3.14H17Z" transform="translate(9.118 14.817)"/>
          <path id="Trazado_111353" data-name="Trazado 111353" d="M9,31H24.7v3.14H9Z" transform="translate(4.559 17.097)"/>
        </g>
      </g>
    </g>
  </g>
</svg>
