<svg xmlns="http://www.w3.org/2000/svg" width="290" height="246" viewBox="0 0 290 246">
  <g id="Grupo_68149" data-name="Grupo 68149" transform="translate(-180 -375)">
    <rect id="Rectángulo_5049" data-name="Rectángulo 5049" width="290" height="246" rx="8" transform="translate(180 375)" fill="#e8e8e8"/>
    <g id="Grupo_53360" data-name="Grupo 53360" transform="translate(242.586 427.355)">
      <path id="Trazado_99096" data-name="Trazado 99096" d="M622.444,213.461a48.08,48.08,0,1,1,66.183,44.552v14.233a1.6,1.6,0,0,1-2.516,1.321L668.631,261.5a48.079,48.079,0,0,1-46.187-48.04Z" transform="translate(-552.397 -165.381)" fill="#f58a97"/>
      <path id="Trazado_99097" data-name="Trazado 99097" d="M638.637,202.182a48.143,48.143,0,0,1,36.253-36.6c-1.438-.129-2.894-.2-4.367-.2a48.08,48.08,0,0,0-27.848,87.274v-.018a47.9,47.9,0,0,0,11.447,6.027,55.139,55.139,0,0,0,1.111-11.018,54.512,54.512,0,0,0-14.3-36.837,9.74,9.74,0,0,1-2.3-8.626Z" transform="translate(-552.397 -165.381)" fill="#f07281"/>
      <path id="Trazado_99098" data-name="Trazado 99098" d="M603.667,269.552A48.08,48.08,0,1,0,537.484,314.1v14.233A1.6,1.6,0,0,0,540,329.657l17.479-12.065a48.079,48.079,0,0,0,46.188-48.04Z" transform="translate(-507.507 -187.288)" fill="#ade194"/>
      <path id="Trazado_99099" data-name="Trazado 99099" d="M551.947,319.443a12.373,12.373,0,0,0-6.158-10.664,48.1,48.1,0,0,1,9.547-87.306,48.086,48.086,0,0,0-17.852,92.63v14.233A1.6,1.6,0,0,0,540,329.657l11.946-8.246v-1.967Z" transform="translate(-507.507 -187.288)" fill="#97da7b"/>
      <g id="Grupo_53264" data-name="Grupo 53264" transform="translate(24.481 29.662)">
        <path id="Trazado_99100" data-name="Trazado 99100" d="M702.524,233.583l9.4-9.4a2.164,2.164,0,0,0,0-3.061l-6.439-6.439a2.165,2.165,0,0,0-3.061,0l-9.4,9.4-9.4-9.4a2.165,2.165,0,0,0-3.061,0l-6.439,6.439a2.165,2.165,0,0,0,0,3.061l9.4,9.4-9.4,9.4a2.165,2.165,0,0,0,0,3.061l6.439,6.439a2.164,2.164,0,0,0,3.061,0l9.4-9.4,9.4,9.4a2.164,2.164,0,0,0,3.061,0l6.439-6.439a2.164,2.164,0,0,0,0-3.061Z" transform="translate(-596.815 -214.052)" fill="#f9f7f8"/>
        <path id="Trazado_99101" data-name="Trazado 99101" d="M558.887,309.7h8.719a1.12,1.12,0,0,0,.789-.326l26.136-26.041a1.166,1.166,0,0,0,.018-1.634l-7.773-8.093a1.167,1.167,0,0,0-1.664-.018l-21.255,21.177-5.33-6.713a.5.5,0,0,0-.7-.087l-9.956,7.641a.5.5,0,0,0-.088.709l10.1,12.817c.044.058.091.114.138.169a1.126,1.126,0,0,0,.861.4Z" transform="translate(-547.677 -237.171)" fill="#f9f7f8"/>
      </g>
    </g>
  </g>
</svg>
