<svg xmlns="http://www.w3.org/2000/svg" width="273.333" height="212.413" viewBox="0 0 273.333 212.413">
  <g id="Grupo_63447" data-name="Grupo 63447" transform="translate(0 -39)">
    <g id="Background_Complete" data-name="Background Complete" transform="translate(0 39)">
      <g id="Grupo_63424" data-name="Grupo 63424" transform="translate(0 8.721)">
        <rect id="Rectángulo_6501" data-name="Rectángulo 6501" width="273.333" height="0.137" transform="translate(0 179.004)" fill="#ebebeb"/>
        <rect id="Rectángulo_6502" data-name="Rectángulo 6502" width="18.107" height="0.137" transform="translate(164.39 183.744)" fill="#ebebeb"/>
        <rect id="Rectángulo_6503" data-name="Rectángulo 6503" width="4.752" height="0.137" transform="translate(216.04 188.162)" fill="#ebebeb"/>
        <rect id="Rectángulo_6504" data-name="Rectángulo 6504" width="10.492" height="0.137" transform="translate(183.455 186.112)" fill="#ebebeb"/>
        <rect id="Rectángulo_6505" data-name="Rectángulo 6505" width="23.612" height="0.137" transform="translate(28.678 183.645)" fill="#ebebeb"/>
        <rect id="Rectángulo_6506" data-name="Rectángulo 6506" width="3.462" height="0.137" transform="translate(133.751 183.645)" fill="#ebebeb"/>
        <rect id="Rectángulo_6507" data-name="Rectángulo 6507" width="24.768" height="0.137" transform="translate(77.459 186.021)" fill="#ebebeb"/>
        <path id="Trazado_111589" data-name="Trazado 111589" d="M146.888,209.576H41.327a3.124,3.124,0,0,1-3.12-3.12V58.073a3.124,3.124,0,0,1,3.12-3.12H146.888a3.124,3.124,0,0,1,3.12,3.12V206.456A3.124,3.124,0,0,1,146.888,209.576ZM41.327,55.09a2.987,2.987,0,0,0-2.984,2.983V206.456a2.987,2.987,0,0,0,2.984,2.984H146.888a2.987,2.987,0,0,0,2.983-2.984V58.073a2.987,2.987,0,0,0-2.983-2.983Z" transform="translate(-17.321 -54.953)" fill="#ebebeb"/>
        <path id="Trazado_111590" data-name="Trazado 111590" d="M363.185,209.576H257.625a3.124,3.124,0,0,1-3.12-3.12V58.073a3.123,3.123,0,0,1,3.12-3.12h105.56a3.124,3.124,0,0,1,3.121,3.12V206.456A3.124,3.124,0,0,1,363.185,209.576ZM257.625,55.09a2.987,2.987,0,0,0-2.983,2.983V206.456a2.987,2.987,0,0,0,2.983,2.984h105.56a2.987,2.987,0,0,0,2.984-2.984V58.073a2.987,2.987,0,0,0-2.984-2.983Z" transform="translate(-115.376 -54.953)" fill="#ebebeb"/>
      </g>
      <g id="Grupo_63432" data-name="Grupo 63432" transform="translate(18.269)">
        <g id="Grupo_63426" data-name="Grupo 63426" transform="translate(17.022 18.837)">
          <circle id="Elipse_4820" data-name="Elipse 4820" cx="19.338" cy="19.338" r="19.338" fill="#ddc1ff"/>
          <g id="Grupo_63425" data-name="Grupo 63425" transform="translate(5.989 6.456)">
            <path id="Trazado_111591" data-name="Trazado 111591" d="M106.843,96.844h-.159a1.718,1.718,0,0,0,1.7-1.5h0a1.719,1.719,0,0,0-1.7-1.937h-.876l-5.791-.536a1.2,1.2,0,0,1-1.079-1.346c.092-.739.177-1.606.2-2.432.06-2.031-1.282-4.535-3.153-3.637-.758.364-.3,2.884-.667,3.882S91.48,93.28,90.5,95.365h0a1.6,1.6,0,0,0-.979,1.473v7.506a1.6,1.6,0,0,0,.468,1.13l.809.81a2.971,2.971,0,0,0,2.1.87h11.888a1.718,1.718,0,0,0,1.7-1.5h0a1.719,1.719,0,0,0-1.7-1.937h1.269a1.718,1.718,0,0,0,1.7-1.5h0a1.718,1.718,0,0,0-1.7-1.937h.785a1.718,1.718,0,0,0,1.7-1.5h0A1.718,1.718,0,0,0,106.843,96.844Z" transform="translate(-81.863 -85.269)" fill="#fafafa"/>
            <rect id="Rectángulo_6508" data-name="Rectángulo 6508" width="6.549" height="12.871" rx="1.857" transform="translate(0 9.158)" fill="#f0f0f0"/>
          </g>
        </g>
        <path id="Trazado_111592" data-name="Trazado 111592" d="M316.952,86.093a7.964,7.964,0,0,0-10.945-7.319A9.626,9.626,0,0,0,287.96,80.9a8.283,8.283,0,0,0,.539,16.549h26.361a5.873,5.873,0,0,0,2.091-11.36Z" transform="translate(-145.3 -54.581)" fill="#ddc1ff"/>
        <path id="Trazado_111593" data-name="Trazado 111593" d="M358.047,304.5a4.869,4.869,0,0,0-6.691-4.474,5.885,5.885,0,0,0-11.033,1.3,5.064,5.064,0,0,0,.33,10.117h16.116a3.59,3.59,0,0,0,1.279-6.945Z" transform="translate(-170.402 -155.832)" fill="#ddc1ff"/>
        <g id="Grupo_63427" data-name="Grupo 63427" transform="translate(196.596 116.776)">
          <circle id="Elipse_4821" data-name="Elipse 4821" cx="14.948" cy="14.948" r="14.948" fill="#ddc1ff"/>
          <path id="Trazado_111594" data-name="Trazado 111594" d="M420.383,269.018a5.143,5.143,0,0,0-7.273,0,5.143,5.143,0,0,0-7.273,7.273l7.273,7.273,7.273-7.273A5.143,5.143,0,0,0,420.383,269.018Z" transform="translate(-398.162 -259.368)" fill="#fafafa"/>
        </g>
        <path id="Trazado_111595" data-name="Trazado 111595" d="M170.208,46.8a4.881,4.881,0,0,1,6.709-4.486,5.9,5.9,0,0,1,11.061,1.305,5.077,5.077,0,0,1-.331,10.143H171.49a3.6,3.6,0,0,1-1.282-6.963Z" transform="translate(-94.379 -39)" fill="#ddc1ff"/>
        <g id="Grupo_63428" data-name="Grupo 63428" transform="translate(7.068 155.926)">
          <rect id="Rectángulo_6509" data-name="Rectángulo 6509" width="17.344" height="30.294" rx="5.044" transform="translate(30.294) rotate(90)" fill="#ddc1ff"/>
          <path id="Trazado_111596" data-name="Trazado 111596" d="M63.046,337.274a.557.557,0,0,1-.295-.085l-12.726-8.057a.55.55,0,0,1,.588-.93l12.433,7.871L75.478,328.2a.55.55,0,0,1,.588.93L63.34,337.189A.553.553,0,0,1,63.046,337.274Z" transform="translate(-47.899 -325.992)" fill="#fff"/>
        </g>
        <g id="Grupo_63430" data-name="Grupo 63430" transform="translate(0 64.115)">
          <g id="Grupo_63429" data-name="Grupo 63429" transform="translate(0 0)">
            <path id="Trazado_111597" data-name="Trazado 111597" d="M37.477,156.284H56.922a4.07,4.07,0,0,1,4.058,4.058v15.421L57.2,171.987H37.477a4.07,4.07,0,0,1-4.058-4.058v-7.587A4.071,4.071,0,0,1,37.477,156.284Z" transform="translate(-33.419 -156.284)" fill="#ddc1ff"/>
            <path id="Trazado_111598" data-name="Trazado 111598" d="M41.519,165.335H59.893a.678.678,0,0,0,.676-.676h0a.678.678,0,0,0-.676-.676H41.519a.678.678,0,0,0-.676.676h0A.678.678,0,0,0,41.519,165.335Z" transform="translate(-36.785 -159.774)" fill="#fff"/>
            <path id="Trazado_111599" data-name="Trazado 111599" d="M41.519,171.034H59.893a.678.678,0,0,0,.676-.676h0a.678.678,0,0,0-.676-.676H41.519a.678.678,0,0,0-.676.676h0A.678.678,0,0,0,41.519,171.034Z" transform="translate(-36.785 -162.358)" fill="#fff"/>
            <path id="Trazado_111600" data-name="Trazado 111600" d="M52.963,176.733H65.081a.678.678,0,0,0,.676-.676h0a.678.678,0,0,0-.676-.676H52.963a.678.678,0,0,0-.676.676h0A.678.678,0,0,0,52.963,176.733Z" transform="translate(-41.972 -164.941)" fill="#fff"/>
          </g>
        </g>
        <g id="Grupo_63431" data-name="Grupo 63431" transform="translate(192.507 18.789)">
          <path id="Trazado_111601" data-name="Trazado 111601" d="M412.417,73.37H390.2a4.65,4.65,0,0,0-4.636,4.636V92.072l4.314-4.314h22.536a4.65,4.65,0,0,0,4.636-4.636V78.006A4.65,4.65,0,0,0,412.417,73.37Z" transform="translate(-385.566 -73.37)" fill="#ddc1ff"/>
          <path id="Trazado_111602" data-name="Trazado 111602" d="M415.222,83.71H394.23a.775.775,0,0,1-.772-.772h0a.775.775,0,0,1,.772-.773h20.991a.775.775,0,0,1,.772.773h0A.775.775,0,0,1,415.222,83.71Z" transform="translate(-389.144 -77.357)" fill="#e6e6e6"/>
          <path id="Trazado_111603" data-name="Trazado 111603" d="M408.074,90.234H394.23a.775.775,0,0,1-.772-.773h0a.775.775,0,0,1,.772-.772h13.844a.775.775,0,0,1,.773.772h0A.775.775,0,0,1,408.074,90.234Z" transform="translate(-389.144 -80.315)" fill="#e6e6e6"/>
        </g>
      </g>
    </g>
    <g id="Shadow" transform="translate(30.674 239.033)" opacity="0.61">
      <ellipse id="_Path_" data-name="&lt;Path&gt;" cx="105.993" cy="6.19" rx="105.993" ry="6.19" fill="#bb83ff"/>
    </g>
    <g id="Character_1" data-name="Character 1" transform="translate(29.186 123.656)">
      <g id="Grupo_63441" data-name="Grupo 63441">
        <path id="Trazado_111604" data-name="Trazado 111604" d="M133.791,234.31a39.9,39.9,0,0,1-39.95,39.95c-.782,0-1.558-.022-2.329-.071a39.383,39.383,0,0,1-7.927-1.257,39.955,39.955,0,1,1,50.206-38.622Z" transform="translate(-53.616 -194.086)" fill="#fff"/>
        <g id="Grupo_63440" data-name="Grupo 63440" transform="translate(12.522 4.873)">
          <path id="Trazado_111605" data-name="Trazado 111605" d="M127.633,217.564h.016c-4.537-1.635,1.022-9.753-7.145-13.459-8.359-3.8-16.815,1.3-15.23,5.592-2.75.782-3.471,7.418-.12,10.518a8.21,8.21,0,0,0,5.538,13.186h.011a.2.2,0,0,0,.077.011h.005a7.481,7.481,0,0,0,.864.049,7.641,7.641,0,0,0,1.378-.12h.005a7.2,7.2,0,0,0,1.279-.328h.005a8.236,8.236,0,0,0,3.854-2.783,8.274,8.274,0,0,0,3.723,2.728l.005.005c.1.033.2.071.312.1a6.983,6.983,0,0,0,1.121.273,7.914,7.914,0,0,0,1.356.115,8.137,8.137,0,0,0,1.908-.224,8.214,8.214,0,0,0,1.039-15.662Z" transform="translate(-88.363 -202.772)" fill="#263238"/>
          <path id="Trazado_111606" data-name="Trazado 111606" d="M100.764,269.4c-.016-.366-.033-.672-.071-1.126a2.991,2.991,0,0,0-5.953-.06.01.01,0,0,0,0,.016,2.581,2.581,0,0,0-.016.459l.005.126c.011.175.022.5.022.76l.005.853c0,.569-.022,1.153-.055,1.733-.049.918-.126,1.848-.235,2.766-.027.241-.055.487-.087.727a44.829,44.829,0,0,1-1.443,6.888c-.159.563-.361,1.115-.53,1.678s-.4,1.1-.607,1.651l-.23.629a2.233,2.233,0,0,0-.109.268,1.323,1.323,0,0,1-.29-.115,6.938,6.938,0,0,1-1.252-.776,24.888,24.888,0,0,1-2.575-2.28l-.071-.066a1.2,1.2,0,0,1-.087-.082h-.005a1.5,1.5,0,0,0-2.334,1.755,16.3,16.3,0,0,0,.825,1.6c.044.082.093.164.142.246a14.716,14.716,0,0,0,1.2,1.738,10.6,10.6,0,0,0,1.64,1.651,5.836,5.836,0,0,0,2.783,1.252,4.451,4.451,0,0,0,2.094-.241,4.881,4.881,0,0,0,1.689-1.077,6.232,6.232,0,0,0,1-1.252c.126-.2.241-.4.339-.6.055-.1.093-.191.126-.268.005-.005,0-.005,0-.005.033-.071.066-.131.1-.208a38.859,38.859,0,0,0,1.553-3.728c.1-.273.191-.547.284-.825.049-.142.1-.29.142-.437a41.072,41.072,0,0,0,1.514-6.309c.011-.082.027-.159.038-.241l.082-.558V275.9c.016-.087.033-.186.044-.279v-.016q.213-1.558.29-3.132c.011-.191.022-.388.027-.579q.033-.73.033-1.46C100.791,270.09,100.78,269.745,100.764,269.4Z" transform="translate(-80.114 -231.228)" fill="#ff8b7b"/>
          <path id="Trazado_111607" data-name="Trazado 111607" d="M104.048,260.342c4.4-2.035,7.3,6.717,6.507,13.891-6.251.879-11.476-2.914-11.476-2.914S98.905,262.72,104.048,260.342Z" transform="translate(-86.623 -228.735)" fill="#bb83ff"/>
          <path id="Trazado_111608" data-name="Trazado 111608" d="M103.052,263.745c-.06,4.354.574,13.2,3.491,31.133h23.784c-.362-8.788-.405-14.517,3.053-30.364a5.026,5.026,0,0,0-4.273-6.056c-1.438-.185-3.044-.347-4.663-.424a75.657,75.657,0,0,0-10.8,0c-2.2.2-4.55.55-6.4.861A5,5,0,0,0,103.052,263.745Z" transform="translate(-88.423 -227.735)" fill="#bb83ff"/>
          <path id="Trazado_111609" data-name="Trazado 111609" d="M148.676,274.844l4,1.144c-.548,2.705-.982,5.092-1.321,7.236C148.4,282.275,145.674,277.025,148.676,274.844Z" transform="translate(-108.517 -235.445)" opacity="0.2"/>
          <path id="Trazado_111610" data-name="Trazado 111610" d="M81.683,289.182l-2.124-2.445a1.157,1.157,0,0,0-1.95.337l-1.233,3.151a1.156,1.156,0,0,0,.167,1.135l2.143,2.73a6.751,6.751,0,0,0,4.178,2.331l.935-2.591Z" transform="translate(-76.295 -240.656)" fill="#ff8b7b"/>
          <g id="Grupo_63433" data-name="Grupo 63433" transform="translate(21.309 30.103)">
            <path id="Trazado_111611" data-name="Trazado 111611" d="M117.14,267.3l.566.872.9-.522a44.974,44.974,0,0,0,9.551-7.375,2.759,2.759,0,0,0,.752-2.29,69.306,69.306,0,0,0-9.722.05c-.917.084-1.856.194-2.776.315-.055.066-.114.129-.163.2C115.507,259.625,114.113,262.631,117.14,267.3Z" transform="translate(-115.275 -257.839)" fill="#fff"/>
          </g>
          <path id="Trazado_111612" data-name="Trazado 111612" d="M127.912,236.747c-.536,3.1-1.021,8.478.617,11.229a1.641,1.641,0,0,1-.256,1.975,43.794,43.794,0,0,1-9.315,7.189c-2.631-4.055-1.587-6.548-.909-7.534a1.555,1.555,0,0,1,.8-.6c3.443-1.1,3.265-3.864,2.557-6.452Z" transform="translate(-94.867 -218.174)" fill="#ff8b7b"/>
          <path id="Trazado_111613" data-name="Trazado 111613" d="M129.7,241.823l-4.85,3.029a11.08,11.08,0,0,1,.376,1.909c1.127-.025,3.84-1.173,4.6-3.064A2.679,2.679,0,0,0,129.7,241.823Z" transform="translate(-98.309 -220.475)" opacity="0.2"/>
          <path id="Trazado_111614" data-name="Trazado 111614" d="M124.666,214.344c1.447,5.629,2.18,7.981.308,11.716-2.814,5.618-10.044,6.164-13.144,1.08-2.79-4.575-4.687-13.012,0-16.956A7.927,7.927,0,0,1,124.666,214.344Z" transform="translate(-91.114 -205.271)" fill="#ff8b7b"/>
          <path id="Trazado_111615" data-name="Trazado 111615" d="M130.25,214.2c.957,3.963,5.032,6.13,5.032,6.13a7.8,7.8,0,0,0,.552-6.13C134.623,211.146,130.25,214.2,130.25,214.2Z" transform="translate(-100.755 -207.337)" fill="#263238"/>
          <path id="Trazado_111616" data-name="Trazado 111616" d="M134.584,220.287a4.887,4.887,0,0,0-1.1,3.412,3.528,3.528,0,0,0,2.467-1.287C136.814,221.205,134.584,220.287,134.584,220.287Z" transform="translate(-102.216 -210.712)" fill="#263238"/>
          <path id="Trazado_111617" data-name="Trazado 111617" d="M134.073,218.486a4.887,4.887,0,0,0-1.882,3.053,3.527,3.527,0,0,0,2.7-.665C136.02,219.907,134.073,218.486,134.073,218.486Z" transform="translate(-101.635 -209.896)" fill="#263238"/>
          <path id="Trazado_111618" data-name="Trazado 111618" d="M109.654,211.46c-1.149,3.69,17.277,2.46,15.623-.547s-5.936-4.555-8.693-4.282S110.536,208.863,109.654,211.46Z" transform="translate(-91.395 -204.508)" fill="#263238"/>
          <path id="Trazado_111619" data-name="Trazado 111619" d="M109.476,213.618c-1.427.3-2.321,5.741-1.4,5.467S114.429,212.575,109.476,213.618Z" transform="translate(-90.533 -207.635)" fill="#263238"/>
          <g id="Grupo_63434" data-name="Grupo 63434" transform="translate(17.447 67.14)">
            <path id="Trazado_111620" data-name="Trazado 111620" d="M126.3,325.59s-.055.377-.153,1.071c-.169,1.246-.487,3.521-.891,6.516a40.308,40.308,0,0,1-6.79.574c-.782,0-1.558-.022-2.329-.071a39.383,39.383,0,0,1-7.927-1.257c.251-2.619.448-4.625.563-5.762.071-.694.109-1.071.109-1.071Z" transform="translate(-108.21 -325.59)" fill="#263238"/>
            <path id="Trazado_111621" data-name="Trazado 111621" d="M126.3,325.59s-.055.377-.153,1.071c-.169,1.246-.487,3.521-.891,6.516a40.308,40.308,0,0,1-6.79.574c-.782,0-1.558-.022-2.329-.071a39.383,39.383,0,0,1-7.927-1.257c.251-2.619.448-4.625.563-5.762.071-.694.109-1.071.109-1.071Z" transform="translate(-108.21 -325.59)" fill="#fff" opacity="0.1"/>
          </g>
          <g id="Grupo_63435" data-name="Grupo 63435" transform="translate(24.4 67.14)">
            <path id="Trazado_111622" data-name="Trazado 111622" d="M138.9,326.661a25.155,25.155,0,0,1,1.175,3.827,39.717,39.717,0,0,1-9.053,2.69,40.308,40.308,0,0,1-6.79.574c-.782,0-1.558-.022-2.329-.071-.4-3.231-.694-5.7-.847-7.019-.082-.694-.126-1.071-.126-1.071h17.5C138.6,325.934,138.757,326.3,138.9,326.661Z" transform="translate(-120.93 -325.59)" fill="#263238"/>
            <path id="Trazado_111623" data-name="Trazado 111623" d="M138.9,326.661a25.155,25.155,0,0,1,1.175,3.827,39.717,39.717,0,0,1-9.053,2.69,40.308,40.308,0,0,1-6.79.574c-.782,0-1.558-.022-2.329-.071-.4-3.231-.694-5.7-.847-7.019-.082-.694-.126-1.071-.126-1.071h17.5C138.6,325.934,138.757,326.3,138.9,326.661Z" transform="translate(-120.93 -325.59)" fill="#fff" opacity="0.1"/>
          </g>
          <path id="Trazado_111624" data-name="Trazado 111624" d="M121.417,227.2c.145.449.025.891-.268.986s-.65-.192-.8-.642-.025-.891.269-.986S121.271,226.746,121.417,227.2Z" transform="translate(-96.24 -213.545)" fill="#263238"/>
          <path id="Trazado_111625" data-name="Trazado 111625" d="M112.125,230.2c.145.449.025.891-.269.986s-.649-.192-.795-.642-.025-.891.268-.986S111.979,229.752,112.125,230.2Z" transform="translate(-92.028 -214.908)" fill="#263238"/>
          <path id="Trazado_111626" data-name="Trazado 111626" d="M110.877,229.544l-1.18.038S110.524,230.246,110.877,229.544Z" transform="translate(-91.437 -214.909)" fill="#263238"/>
          <path id="Trazado_111627" data-name="Trazado 111627" d="M115.758,231.075a12.619,12.619,0,0,1-.674,3.387,2.031,2.031,0,0,0,1.7-.218Z" transform="translate(-93.88 -215.603)" fill="#ff5652"/>
          <path id="Trazado_111628" data-name="Trazado 111628" d="M123.29,236.323a4.566,4.566,0,0,1-.733.309.139.139,0,0,1-.085-.265,3.736,3.736,0,0,0,2.452-2.33.139.139,0,1,1,.268.072A3.87,3.87,0,0,1,123.29,236.323Z" transform="translate(-97.185 -216.899)" fill="#263238"/>
          <path id="Trazado_111629" data-name="Trazado 111629" d="M138.493,224.49a4.247,4.247,0,0,1-.958,3.1c-.96,1.139-2.275.483-2.708-.86-.39-1.209-.36-3.258.94-3.908A1.907,1.907,0,0,1,138.493,224.49Z" transform="translate(-102.73 -211.768)" fill="#ff8b7b"/>
          <path id="Trazado_111630" data-name="Trazado 111630" d="M122.545,221.86a.277.277,0,0,1-.212-.055,2.207,2.207,0,0,0-1.957-.43.278.278,0,1,1-.181-.525,2.752,2.752,0,0,1,2.479.517.278.278,0,0,1-.128.494Z" transform="translate(-96.111 -210.921)" fill="#263238"/>
          <path id="Trazado_111631" data-name="Trazado 111631" d="M108.412,227.182a.277.277,0,0,1-.38-.34,2.752,2.752,0,0,1,1.781-1.8.278.278,0,0,1,.139.537,2.2,2.2,0,0,0-1.395,1.44A.276.276,0,0,1,108.412,227.182Z" transform="translate(-90.676 -212.864)" fill="#263238"/>
          <path id="Trazado_111632" data-name="Trazado 111632" d="M145.639,273.844c-.241-1.3-.514-2.6-.815-3.876-.1-.448-.213-.891-.323-1.334-.3-1.164-.6-2.3-.935-3.455v-.005c-.164-.558-.339-1.115-.53-1.689a2.992,2.992,0,0,0-5.718,1.76l.011.044c.339,1.2.7,2.455,1.033,3.712.1.372.2.749.29,1.121.251.984.492,1.973.727,2.957q.23.968.443,1.935c.109.5.213,1,.312,1.5q.344,1.7.618,3.384c.033.23.066.465.1.694.115.847.219,1.689.3,2.52-.186-.022-.377-.055-.569-.093l-.246-.049a33.386,33.386,0,0,1-4.253-1.328c-1.443-.536-2.9-1.137-4.346-1.755-1.389-.579-2.777-1.214-4.138-1.826-.066-.027-.131-.06-.2-.087l-.027-.011a1.489,1.489,0,0,0-1.5,2.553c.175.131.35.262.53.383h.005c1.159.847,2.34,1.618,3.537,2.389,1.394.869,2.815,1.695,4.3,2.471A31.927,31.927,0,0,0,139,287.806c.41.126.82.246,1.263.344a9.771,9.771,0,0,0,1.744.246,5.11,5.11,0,0,0,2.3-.388,3.963,3.963,0,0,0,1.427-1.039,4.163,4.163,0,0,0,.847-1.6,2.8,2.8,0,0,0,.082-.569v-.1A53.478,53.478,0,0,0,145.639,273.844Z" transform="translate(-98.497 -229.363)" fill="#ff8b7b"/>
          <path id="Trazado_111633" data-name="Trazado 111633" d="M146.165,258.71c4.818.537,6.139,2.017,8.612,8.8a70.383,70.383,0,0,1-10.263,5.77S140.533,258.083,146.165,258.71Z" transform="translate(-106.602 -228.122)" fill="#bb83ff"/>
          <g id="Grupo_63436" data-name="Grupo 63436" transform="translate(17.381 65.569)">
            <path id="Trazado_111634" data-name="Trazado 111634" d="M132.968,322.893l.608,2.129c.083.166-.113.334-.388.334H108.711c-.214,0-.392-.1-.406-.24l-.214-2.129c-.015-.148.171-.272.406-.272h24.085A.432.432,0,0,1,132.968,322.893Z" transform="translate(-108.09 -322.715)" fill="#263238"/>
          </g>
          <g id="Grupo_63437" data-name="Grupo 63437" transform="translate(38.472 65.38)">
            <path id="Trazado_111635" data-name="Trazado 111635" d="M147.224,325.43h.645c.128,0,.226-.067.218-.148l-.3-2.766c-.009-.081-.121-.148-.25-.148h-.645c-.128,0-.226.066-.218.148l.3,2.766C146.983,325.363,147.1,325.43,147.224,325.43Z" transform="translate(-146.671 -322.369)" fill="#263238"/>
            <path id="Trazado_111636" data-name="Trazado 111636" d="M147.224,325.43h.645c.128,0,.226-.067.218-.148l-.3-2.766c-.009-.081-.121-.148-.25-.148h-.645c-.128,0-.226.066-.218.148l.3,2.766C146.983,325.363,147.1,325.43,147.224,325.43Z" transform="translate(-146.671 -322.369)" fill="#fff" opacity="0.1"/>
          </g>
          <g id="Grupo_63438" data-name="Grupo 63438" transform="translate(19.262 65.38)">
            <path id="Trazado_111637" data-name="Trazado 111637" d="M112.084,325.43h.645c.128,0,.226-.067.218-.148l-.3-2.766c-.009-.081-.121-.148-.25-.148h-.645c-.128,0-.226.066-.218.148l.3,2.766C111.843,325.363,111.955,325.43,112.084,325.43Z" transform="translate(-111.531 -322.369)" fill="#263238"/>
            <path id="Trazado_111638" data-name="Trazado 111638" d="M112.084,325.43h.645c.128,0,.226-.067.218-.148l-.3-2.766c-.009-.081-.121-.148-.25-.148h-.645c-.128,0-.226.066-.218.148l.3,2.766C111.843,325.363,111.955,325.43,112.084,325.43Z" transform="translate(-111.531 -322.369)" fill="#fff" opacity="0.1"/>
          </g>
          <g id="Grupo_63439" data-name="Grupo 63439" transform="translate(28.867 65.38)">
            <path id="Trazado_111639" data-name="Trazado 111639" d="M129.654,325.43h.645c.128,0,.226-.067.218-.148l-.3-2.766c-.009-.081-.121-.148-.25-.148h-.645c-.128,0-.226.066-.218.148l.3,2.766C129.413,325.363,129.525,325.43,129.654,325.43Z" transform="translate(-129.101 -322.369)" fill="#263238"/>
            <path id="Trazado_111640" data-name="Trazado 111640" d="M129.654,325.43h.645c.128,0,.226-.067.218-.148l-.3-2.766c-.009-.081-.121-.148-.25-.148h-.645c-.128,0-.226.066-.218.148l.3,2.766C129.413,325.363,129.525,325.43,129.654,325.43Z" transform="translate(-129.101 -322.369)" fill="#fff" opacity="0.1"/>
          </g>
          <path id="Trazado_111641" data-name="Trazado 111641" d="M114,288.876h-4.758a1.01,1.01,0,0,1-.982-.774l-2.389-9.973a.773.773,0,0,1,.754-.972h4.749a1.02,1.02,0,0,1,.992.783l2.387,9.964A.772.772,0,0,1,114,288.876Z" transform="translate(-89.692 -236.493)"/>
          <path id="Trazado_111642" data-name="Trazado 111642" d="M112.968,288.876h-4.749a1.02,1.02,0,0,1-.992-.783l-2.387-9.964a.772.772,0,0,1,.754-.972h4.749a1.021,1.021,0,0,1,.993.783l2.387,9.964A.773.773,0,0,1,112.968,288.876Z" transform="translate(-89.225 -236.493)" fill="#263238"/>
          <path id="Trazado_111643" data-name="Trazado 111643" d="M122.505,290.111l-.141-2.414-3.407-3.875a3.384,3.384,0,0,0-1.917-1.091l-2.19-.412a1.229,1.229,0,0,0-1.455,1.245l.094,3.1a1.229,1.229,0,0,0,.759,1.1l3.853,1.593h0C119.14,289.961,121,290.795,122.505,290.111Z" transform="translate(-93.113 -238.824)" fill="#ff8b7b"/>
          <path id="Trazado_111644" data-name="Trazado 111644" d="M120.169,226.537l-1.18.038S119.816,227.239,120.169,226.537Z" transform="translate(-95.65 -213.546)" fill="#263238"/>
        </g>
        <path id="Trazado_111645" data-name="Trazado 111645" d="M93.612,274.3a40.223,40.223,0,1,1,40.223-40.223A40.268,40.268,0,0,1,93.612,274.3Zm0-79.9a39.677,39.677,0,1,0,39.676,39.677A39.722,39.722,0,0,0,93.612,194.4Z" transform="translate(-53.389 -193.858)" fill="#47286d"/>
      </g>
    </g>
    <g id="Character_2" data-name="Character 2" transform="translate(163.702 84.788)">
      <g id="Grupo_63444" data-name="Grupo 63444" transform="translate(0 0)">
        <path id="Trazado_111646" data-name="Trazado 111646" d="M379.851,163.21a39.95,39.95,0,1,1-39.95-39.95A39.962,39.962,0,0,1,379.851,163.21Z" transform="translate(-299.679 -122.986)" fill="#fff"/>
        <g id="Grupo_63443" data-name="Grupo 63443" transform="translate(15.581 8.828)">
          <path id="Trazado_111647" data-name="Trazado 111647" d="M364.718,143.43c-4.9-2.567-7.79,3.811-6.605,8.276a16.641,16.641,0,0,0,4.282,7.3s4.679-6.752,4.7-9.922C367.116,145.161,366.548,144.387,364.718,143.43Z" transform="translate(-341.507 -140.69)" fill="#263238"/>
          <path id="Trazado_111648" data-name="Trazado 111648" d="M363.227,168.712c-.154-.973-3.007-.35-2.305.7S363.3,169.167,363.227,168.712Z" transform="translate(-342.851 -152.199)" fill="#263238"/>
          <path id="Trazado_111649" data-name="Trazado 111649" d="M363.767,169.338c-.9-.393-1.909,2.35-.644,2.323S364.191,169.522,363.767,169.338Z" transform="translate(-343.629 -152.685)" fill="#263238"/>
          <path id="Trazado_111650" data-name="Trazado 111650" d="M367.479,143.024c-2.284-2.263,3.032-4.207,8.208-3.3s6.857,5.451,5.033,7.676C379.269,149.175,370.286,145.8,367.479,143.024Z" transform="translate(-345.626 -139.175)" fill="#263238"/>
          <path id="Trazado_111651" data-name="Trazado 111651" d="M366.089,141.743c.816-.553-.959-2.872-1.615-1.789S365.707,142,366.089,141.743Z" transform="translate(-344.449 -139.253)" fill="#263238"/>
          <path id="Trazado_111652" data-name="Trazado 111652" d="M369.841,206.569c-.016.508-.033,1.033-.055,1.569-.016.29-.027.59-.044.891-.044.782-.093,1.585-.153,2.411-.022.35-.049.7-.082,1.055a1.334,1.334,0,0,1-.011.148c-.027.361-.055.727-.093,1.1q-.18,2.009-.443,4.177c-.476,3.914-1.175,8.211-2.159,12.885a40.058,40.058,0,0,1-27.782-3.515c.312-2.608.722-6,1.061-9.927.186-2.132.355-4.428.476-6.833.005-.18.016-.366.022-.547.027-.585.055-1.175.077-1.771.011-.366.022-.733.033-1.1.016-.5.027-1,.038-1.509l.016-1.246v-.525c.005-.279.005-.563.005-.847,0-.957-.011-1.919-.033-2.892v-.049c-.055-2.515-.186-5.079-.415-7.664-.011-.153-.022-.312-.038-.465a4.791,4.791,0,0,1,4.466-5.2.471.471,0,0,0,.087-.005c.629-.038,1.3-.066,1.979-.087.618-.016,1.246-.027,1.875-.022h.355c.333.005.689.011,1.05.022l1.186.033c.339.005.678.016,1.022.027,1.946.071,4.018.18,5.838.344l.355.033c.7.066,1.35.142,1.941.224l.339.049c.476.071.946.153,1.4.246.077.011.153.027.224.044.754.148,1.476.312,2.148.47,2.356.574,4.067,1.159,4.067,1.159a.18.18,0,0,1,.011.033,40.428,40.428,0,0,1,.809,4.975c.23,2.083.432,4.811.465,8.151v.005C369.9,203.7,369.89,205.088,369.841,206.569Z" transform="translate(-332.972 -160.522)" fill="#f17781"/>
          <path id="Trazado_111653" data-name="Trazado 111653" d="M399.146,223.426a9.644,9.644,0,0,0-.255-1.667c-.23-.962-.426-1.494-.631-2.19l-1.211-4.01-2.421-8.053c-.81-2.684-1.647-5.375-2.511-8.029l-7.5,2.275c.782,2.743,1.627,5.438,2.526,8.131s1.826,5.374,2.811,8.044c.056.153.114.305.17.458l-2.535,2.259a28.37,28.37,0,0,0,2.517,3.74,18.207,18.207,0,0,0,1.615,1.789,9.545,9.545,0,0,0,1.128.934,5.346,5.346,0,0,0,.934.523c.1.044.212.087.357.133l.2.063.261.061a3.79,3.79,0,0,0,1.547,0,4.177,4.177,0,0,0,.548-.159,4.046,4.046,0,0,0,.589-.288,3.7,3.7,0,0,0,.964-.842,3.941,3.941,0,0,0,.771-1.6A5.354,5.354,0,0,0,399.146,223.426Z" transform="translate(-353.645 -166.365)" fill="#ffc3bd"/>
          <path id="Trazado_111654" data-name="Trazado 111654" d="M383.157,194.184c-2.025,4.507,4.369,17.427,4.369,17.427l8.683-2.392s.319-7.693-2.908-13.211C389.987,190.342,385.379,189.238,383.157,194.184Z" transform="translate(-352.801 -162.541)" fill="#f17781"/>
          <path id="Trazado_111655" data-name="Trazado 111655" d="M371.763,188.747a1.847,1.847,0,0,0-1.374-1.138l-.225-.044c-.461-.091-.931-.171-1.408-.247a104.491,104.491,0,0,0-12.083-.733l0,0,1.117,1.338c1.5,1.782,4.281,5.1,9.485,5.752a9.136,9.136,0,0,0,1.114.074h0c2.024,0,2.937-.86,3.346-1.583A4.055,4.055,0,0,0,371.763,188.747Z" transform="translate(-340.974 -160.522)" fill="#47286d"/>
          <path id="Trazado_111656" data-name="Trazado 111656" d="M346.872,207.586l-4.808,1.866a.865.865,0,0,1,0,.15c.061,2.791.034,5.517-.066,8.126C347.008,215.649,347.093,209.412,346.872,207.586Z" transform="translate(-334.321 -170.042)" opacity="0.2"/>
          <path id="Trazado_111657" data-name="Trazado 111657" d="M363.06,172.661c.189,2.713-.292,5.6-2.344,7.465a.432.432,0,0,0-.05.6c1.832,2.14,4.268,4.513,8.509,5.045,4.343.546,3.976-2.426,3-4.179a.429.429,0,0,0-.232-.189c-3.518-1.254-3.122-3.681-2.71-6.347a1.325,1.325,0,0,0-.7-1.38l-3.934-2.022A1.052,1.052,0,0,0,363.06,172.661Z" transform="translate(-342.74 -153.7)" fill="#ffc3bd"/>
          <path id="Trazado_111658" data-name="Trazado 111658" d="M372.833,178.132l-4.269-.153c.066.2.148.4.232.591a6.507,6.507,0,0,0,3.946,3.127A8.959,8.959,0,0,1,372.833,178.132Z" transform="translate(-346.365 -156.62)" opacity="0.2"/>
          <path id="Trazado_111659" data-name="Trazado 111659" d="M365.545,150.514c-1.456,4.918-2.558,7.723-1.027,11.077,2.3,5.045,9.042,5,11.939.619,2.607-3.946,4.55-11.326.538-14.955A7,7,0,0,0,365.545,150.514Z" transform="translate(-344.196 -141.856)" fill="#ffc3bd"/>
          <path id="Trazado_111660" data-name="Trazado 111660" d="M363.991,154.784c3.479,1.854,8.185-10.381,3.162-10.382S362.362,153.915,363.991,154.784Z" transform="translate(-343.821 -141.398)" fill="#263238"/>
          <path id="Trazado_111661" data-name="Trazado 111661" d="M360.249,157.617a4.879,4.879,0,0,0,1.338,3.475c1.187,1.231,2.2.3,2.6-1.269.353-1.415.6-3.685-.939-4.329A2.19,2.19,0,0,0,360.249,157.617Z" transform="translate(-342.594 -146.348)" fill="#ffc3bd"/>
          <path id="Trazado_111662" data-name="Trazado 111662" d="M378.956,161.188c-.143.391-.051.784.205.878s.579-.149.722-.541.05-.784-.206-.878S379.1,160.8,378.956,161.188Z" transform="translate(-351.046 -148.754)" fill="#263238"/>
          <path id="Trazado_111663" data-name="Trazado 111663" d="M387.789,164.645c-.143.392-.051.785.205.878s.579-.149.722-.54.05-.785-.206-.878S387.931,164.254,387.789,164.645Z" transform="translate(-355.05 -150.321)" fill="#263238"/>
          <path id="Trazado_111664" data-name="Trazado 111664" d="M383.739,164.432a14.909,14.909,0,0,0,.652,4.031,2.4,2.4,0,0,1-2-.33Z" transform="translate(-352.633 -150.478)" fill="#ed847e"/>
          <path id="Trazado_111665" data-name="Trazado 111665" d="M378.836,171.493a3.435,3.435,0,0,1-1.937-1.913.122.122,0,0,1,.232-.078,3.31,3.31,0,0,0,2.283,1.925.123.123,0,0,1-.062.237A4.048,4.048,0,0,1,378.836,171.493Z" transform="translate(-350.141 -152.739)" fill="#263238"/>
          <path id="Trazado_111666" data-name="Trazado 111666" d="M378.54,157.489a.25.25,0,0,1-.092-.084.245.245,0,0,1,.073-.338,2.431,2.431,0,0,1,2.219-.268.245.245,0,0,1-.2.448h0a1.941,1.941,0,0,0-1.754.231A.246.246,0,0,1,378.54,157.489Z" transform="translate(-350.828 -146.949)" fill="#263238"/>
          <path id="Trazado_111667" data-name="Trazado 111667" d="M392.175,161.831a.244.244,0,0,1-.13-.192,1.94,1.94,0,0,0-.919-1.512.245.245,0,0,1,.225-.435,2.429,2.429,0,0,1,1.181,1.9.245.245,0,0,1-.357.242Z" transform="translate(-356.534 -148.318)" fill="#263238"/>
          <g id="Grupo_63442" data-name="Grupo 63442" transform="translate(0 26.318)">
            <path id="Trazado_111668" data-name="Trazado 111668" d="M352.359,206.958c-1.748.752-3.522,1.555-5.3,2.271-1.769.743-3.543,1.456-5.308,2.115a49.528,49.528,0,0,1-5.219,1.673c-.377.095-.752.178-1.113.246.15-.571.315-1.143.5-1.719a42.768,42.768,0,0,1,1.994-4.929c.781-1.629,1.635-3.246,2.556-4.833q.678-1.2,1.411-2.364l.739-1.152c.235-.371.507-.786.71-1.083l-6.34-4.6c-.365.5-.639.889-.943,1.331s-.571.869-.847,1.307q-.827,1.313-1.595,2.657a55.986,55.986,0,0,0-2.748,5.6,42.479,42.479,0,0,0-2.054,6.043,28.3,28.3,0,0,0-.64,3.236c-.042.275-.078.552-.105.835l-.044.42-.022.21-.025.371a6.077,6.077,0,0,0,.16,1.782,5.08,5.08,0,0,0,1.143,2.145,5.015,5.015,0,0,0,1.89,1.287,6.062,6.062,0,0,0,1.595.374,9.17,9.17,0,0,0,2.279-.091,19.414,19.414,0,0,0,3.394-.9,47.16,47.16,0,0,0,5.688-2.556,85.91,85.91,0,0,0,10.2-6.318Z" transform="translate(-327.956 -189.557)" fill="#ffc3bd"/>
            <path id="Trazado_111669" data-name="Trazado 111669" d="M340.525,187.143c-4.9.645-8.859,15.017-8.859,15.017l9.885,3.223s1.493-3.068,4.532-8.685C349.394,190.58,346.46,186.362,340.525,187.143Z" transform="translate(-329.638 -187.05)" fill="#f17781"/>
            <path id="Trazado_111670" data-name="Trazado 111670" d="M377.233,213.939l-2.48-.149a1.694,1.694,0,0,0-1.207.408l-3.58,3.088,1.407,2.8c2.095,1.477,5.58-1.836,5.58-1.836l1.275-.3a1.474,1.474,0,0,0,.884-2.256l-.742-1.106A1.474,1.474,0,0,0,377.233,213.939Z" transform="translate(-347.001 -199.171)" fill="#ffc3bd"/>
          </g>
          <path id="Trazado_111671" data-name="Trazado 111671" d="M384.956,226.386l-4.2-.641a.674.674,0,0,1-.52-.928l4.137-9.856a.673.673,0,0,1,.724-.406l4.2.641a.674.674,0,0,1,.52.928l-4.137,9.856A.674.674,0,0,1,384.956,226.386Z" transform="translate(-351.634 -173.198)" fill="#fff"/>
          <path id="Trazado_111672" data-name="Trazado 111672" d="M385.99,226.528l-4.2-.641a.675.675,0,0,1-.52-.928l4.137-9.856a.674.674,0,0,1,.724-.406l4.2.641a.674.674,0,0,1,.52.928l-4.137,9.856A.674.674,0,0,1,385.99,226.528Z" transform="translate(-352.103 -173.262)" fill="#47286d"/>
          <path id="Trazado_111673" data-name="Trazado 111673" d="M391.278,230.023l-4.335-5.249-2.412,5.366a6.13,6.13,0,0,0,3.8,2.321Z" transform="translate(-353.604 -177.834)" fill="#ffc3bd"/>
          <path id="Trazado_111674" data-name="Trazado 111674" d="M379.909,224.883l.256,1.772a2.447,2.447,0,0,0,.752,1.44l1.513,1.415,2.412-5.366-3.356-.729A1.311,1.311,0,0,0,379.909,224.883Z" transform="translate(-351.502 -177.203)" fill="#ffc3bd"/>
          <path id="Trazado_111675" data-name="Trazado 111675" d="M381.043,149.156c-1.436,3.138,8.1,6.846,8.09,2.412S381.715,147.686,381.043,149.156Z" transform="translate(-351.955 -143.071)" fill="#263238"/>
          <path id="Trazado_111676" data-name="Trazado 111676" d="M370.306,144.91c-1.238,3.744,16.083,5.761,15.233.811S370.886,143.157,370.306,144.91Z" transform="translate(-347.126 -140.657)" fill="#263238"/>
          <path id="Trazado_111677" data-name="Trazado 111677" d="M379.745,144.233c1.437,3.138,10.476-1.656,7.114-4.546S379.072,142.763,379.745,144.233Z" transform="translate(-351.403 -138.907)" fill="#263238"/>
        </g>
        <path id="Trazado_111678" data-name="Trazado 111678" d="M339.677,203.2A40.223,40.223,0,1,1,379.9,162.981,40.269,40.269,0,0,1,339.677,203.2Zm0-79.9a39.676,39.676,0,1,0,39.676,39.676A39.721,39.721,0,0,0,339.677,123.3Z" transform="translate(-299.454 -122.758)" fill="#47286d"/>
      </g>
    </g>
    <g id="Messenger" transform="translate(97.962 74.794)">
      <g id="Grupo_63446" data-name="Grupo 63446">
        <path id="Trazado_111679" data-name="Trazado 111679" d="M179.775,120.328H179.2v-7.022a8.838,8.838,0,0,1,8.828-8.828v.575a8.262,8.262,0,0,0-8.253,8.253Z" transform="translate(-179.2 -104.477)" fill="#407bff"/>
        <rect id="Rectángulo_6510" data-name="Rectángulo 6510" width="0.575" height="4.555" transform="translate(0 20.189)" fill="#407bff"/>
        <g id="Grupo_63445" data-name="Grupo 63445" transform="translate(1.64 1.641)">
          <path id="Rectángulo_6511" data-name="Rectángulo 6511" d="M12.622,0H60.931A12.623,12.623,0,0,1,73.553,12.623V120.841a12.623,12.623,0,0,1-12.623,12.623H12.622A12.622,12.622,0,0,1,0,120.841V12.622A12.622,12.622,0,0,1,12.622,0Z" transform="translate(0.287 0.287)" fill="#fff"/>
          <path id="Trazado_111680" data-name="Trazado 111680" d="M249.14,241.516H189.388a7.2,7.2,0,0,1-7.188-7.188V114.666a7.2,7.2,0,0,1,7.188-7.188H249.14a7.2,7.2,0,0,1,7.188,7.188V234.328A7.2,7.2,0,0,1,249.14,241.516ZM189.388,108.053a6.62,6.62,0,0,0-6.612,6.612V234.328a6.62,6.62,0,0,0,6.612,6.612H249.14a6.619,6.619,0,0,0,6.612-6.612V114.666a6.619,6.619,0,0,0-6.612-6.612Z" transform="translate(-182.2 -107.478)" fill="#407bff"/>
        </g>
        <path id="Trazado_111681" data-name="Trazado 111681" d="M249.379,108H189.626a6.92,6.92,0,0,0-6.9,6.9h73.553A6.92,6.92,0,0,0,249.379,108Z" transform="translate(-180.798 -106.076)" fill="#47286d"/>
        <path id="Trazado_111682" data-name="Trazado 111682" d="M199.886,112.579a2.094,2.094,0,1,1-2.094-2.094A2.094,2.094,0,0,1,199.886,112.579Z" transform="translate(-186.679 -107.201)" fill="#fff"/>
        <path id="Trazado_111683" data-name="Trazado 111683" d="M301.54,113.923a.473.473,0,1,1-.473-.473A.473.473,0,0,1,301.54,113.923Z" transform="translate(-234.232 -108.545)" fill="#fff"/>
        <path id="Trazado_111684" data-name="Trazado 111684" d="M301.54,117.033a.473.473,0,1,1-.473-.472A.473.473,0,0,1,301.54,117.033Z" transform="translate(-234.232 -109.955)" fill="#fff"/>
        <circle id="Elipse_4822" data-name="Elipse 4822" cx="0.473" cy="0.473" r="0.473" transform="translate(66.363 3.205)" fill="#fff"/>
        <path id="Trazado_111685" data-name="Trazado 111685" d="M221.863,114.484H207.9a.99.99,0,0,1-.987-.987h0a.99.99,0,0,1,.987-.987h13.965a.99.99,0,0,1,.987.987h0A.99.99,0,0,1,221.863,114.484Z" transform="translate(-191.762 -108.118)" fill="#fff" opacity="0.2"/>
        <rect id="Rectángulo_6512" data-name="Rectángulo 6512" width="42.499" height="18.715" rx="4.554" transform="translate(28.674 15.85)" fill="#f17781"/>
        <rect id="Rectángulo_6513" data-name="Rectángulo 6513" width="42.499" height="9.809" rx="4.554" transform="translate(6.235 38.681)" fill="#bb83ff"/>
        <rect id="Rectángulo_6514" data-name="Rectángulo 6514" width="42.499" height="32.416" rx="4.554" transform="translate(6.235 66.528)" fill="#bb83ff"/>
        <rect id="Rectángulo_6515" data-name="Rectángulo 6515" width="19.987" height="9.809" rx="4.554" transform="translate(51.186 102.645)" fill="#bb83ff"/>
        <path id="Trazado_111686" data-name="Trazado 111686" d="M291.329,299a1.261,1.261,0,1,1-1.261-1.261A1.261,1.261,0,0,1,291.329,299Z" transform="translate(-228.888 -192.09)" fill="#fff"/>
        <path id="Trazado_111687" data-name="Trazado 111687" d="M283.674,300.168a1.261,1.261,0,1,1-1.261-1.261A1.261,1.261,0,0,1,283.674,300.168Z" transform="translate(-225.418 -192.619)" fill="#fff"/>
        <path id="Trazado_111688" data-name="Trazado 111688" d="M298.984,301.334a1.261,1.261,0,1,1-1.261-1.261A1.261,1.261,0,0,1,298.984,301.334Z" transform="translate(-232.359 -193.147)" fill="#fff"/>
        <rect id="Rectángulo_6516" data-name="Rectángulo 6516" width="42.499" height="9.809" rx="4.554" transform="translate(28.674 52.604)" fill="#f17781"/>
        <circle id="Elipse_4823" data-name="Elipse 4823" cx="2.279" cy="2.279" r="2.279" transform="translate(6.235 126.524)" fill="#47286d"/>
        <circle id="Elipse_4824" data-name="Elipse 4824" cx="2.279" cy="2.279" r="2.279" transform="translate(13.128 126.524)" fill="#e0e0e0"/>
        <circle id="Elipse_4825" data-name="Elipse 4825" cx="2.279" cy="2.279" r="2.279" transform="translate(20.02 126.524)" fill="#ebebeb"/>
        <path id="Trazado_111689" data-name="Trazado 111689" d="M287.875,340.483H269.234a2.286,2.286,0,0,1-2.28-2.28h0a2.286,2.286,0,0,1,2.28-2.28h18.641a2.286,2.286,0,0,1,2.28,2.28h0A2.286,2.286,0,0,1,287.875,340.483Z" transform="translate(-218.982 -209.4)" fill="#ebebeb"/>
        <rect id="Rectángulo_6517" data-name="Rectángulo 6517" width="73.553" height="0.575" transform="translate(1.928 119.188)" fill="#47286d"/>
      </g>
    </g>
  </g>
</svg>
