<svg xmlns="http://www.w3.org/2000/svg" width="395" height="267" viewBox="0 0 395 267"><g transform="translate(-805 -1874)"><rect width="395" height="267" rx="12" transform="translate(805 1874)" fill="#bb83ff" opacity="0.15"/><g transform="translate(-1418.268 1015.654)"><path d="M2334.641,1266.106s-39.919-41.727-6.751-86.9c29.429-40.083,63.74-37.343,88.914-21.077,10.722,6.927,50.774,1.25,85.8-32.763,37.288-36.211,137.026-18.423,119.721,56.518-9.635,41.726,33.4,42.917,10.789,84.312Z" transform="translate(-65.778 -174.603)" fill="#bb83ff" opacity="0.17"/><path d="M.494,0H337.506A.494.494,0,0,1,338,.494v0a.494.494,0,0,1-.494.494H.494A.494.494,0,0,1,0,.494v0A.494.494,0,0,1,.494,0Z" transform="translate(2253.268 1090.973)" fill="#2e3552"/><path d="M2975.526,936.506l-55.1,18.224,11.062,9.219h0l-47.681,49.914-41.795-35.886-166.833,136.7,1.469.023h41.561l123.394-101.1,44.063,37.833,66.833-69.966h0l11.94,9.951Z" transform="translate(-384.259 -23.726)" fill="#bb83ff"/><g transform="translate(2327.406 961.651)"><g transform="translate(0 0)"><path d="M3056.958,1600.4l-12.658-1.089a66.485,66.485,0,0,0-1.5-18.213,64.075,64.075,0,0,0-11.257-25.236c-10.841-14.388-43.042-22.437-43.042-22.437v-1.862l1.158-.126a4.616,4.616,0,0,0-1.158-.55v-4.4a15.55,15.55,0,0,1,3.659.358,25.006,25.006,0,0,0-3.659-.657v-2.315c46.646,1.247,61.858,29.423,66.625,51.228A87.322,87.322,0,0,1,3056.958,1600.4Z" transform="translate(-2988.506 -1504.34)" fill="#82b378"/><path d="M3112.357,1448.114l-55.4,4.1c-.287-8.533-2.514-17.357-4.668-24.047a113.471,113.471,0,0,0-4.238-11.247c-16.573-36.314-59.547-41.235-59.547-41.235l47.7-19.533c23.042,1.734,39.207,12.8,50.514,26.7C3108.861,1410.056,3112.357,1448.114,3112.357,1448.114Z" transform="translate(-2988.506 -1356.147)" fill="#a8d29f"/></g><path d="M3524.305,1650.641l-55.4,4.1-12.658-1.089a66.474,66.474,0,0,0-1.5-18.213,75.15,75.15,0,0,1,9.486-4.745q1.461-.618,2.841-1.255c35.273-16.28,31.987-41.64,31.585-44.066C3520.809,1612.583,3524.305,1650.641,3524.305,1650.641Z" transform="translate(-3400.454 -1558.674)" fill="#82b378" opacity="0.5"/><g transform="translate(9.484 2.823)"><path d="M3179.956,1473.8l-49.37-.955.174-.951a66.577,66.577,0,0,0-3.358-31.077,61.962,61.962,0,0,0-16.8-25.071c-9.624-8.762-22.486-15.283-38.227-19.383l-2.425-.632,38.534-15.336.148,0c.417-.009,10.342-.159,23.1,5.875a71.629,71.629,0,0,1,20.462,14.688,95.6,95.6,0,0,1,19.028,28.984c.4.882,9.774,21.936,9.278,34.578v.015Zm-47.435-2.561,45.887.888.447-7.682c.2-5.05-1.318-12.494-4.377-21.528-2.325-6.864-4.738-12.259-4.761-12.313a94.034,94.034,0,0,0-18.654-28.453,70.042,70.042,0,0,0-19.955-14.36,60.414,60.414,0,0,0-18.8-5.516,12.8,12.8,0,0,0-6.178.824l-26.706,10.628a1.6,1.6,0,0,0,.105,3.005c12.987,4.182,23.8,10.165,32.21,17.834a63.583,63.583,0,0,1,17.231,25.768,70.18,70.18,0,0,1,4,22.3A59.178,59.178,0,0,1,3132.521,1471.236Z" transform="translate(-3069.946 -1380.387)" fill="#82b378"/></g><path d="M3563.01,1596.757c0,8.133-4.765,13.048-12.9,13.048s-16.555-4.915-16.555-13.048,4.5-13,12.638-13S3563.01,1588.624,3563.01,1596.757Z" transform="translate(-3470.081 -1557.251)" fill="#82b378"/></g><g transform="translate(2404.852 997.013)"><g transform="translate(8.277 85.333)"><path d="M3805.731,2394.4v4.86a1.852,1.852,0,0,1-.321,1.045,1.886,1.886,0,0,1-.879.7,1.9,1.9,0,0,1-.673.126h-77.41a1.88,1.88,0,0,1-1.871-1.777c0-.032,0-.064,0-.1v-4.86c0-.032,0-.064,0-.1a1.88,1.88,0,0,1,1.871-1.777h77.41a1.859,1.859,0,0,1,.33.03,1.756,1.756,0,0,1,.343.1,1.885,1.885,0,0,1,.879.7A1.852,1.852,0,0,1,3805.731,2394.4Z" transform="translate(-3724.575 -2392.523)" fill="#ffb93e"/><path d="M3767.719,2401.129h-41.472a1.775,1.775,0,0,1-1.67-1.777c0-.032,0-.064,0-.1v-4.86c0-.032,0-.064,0-.1a1.775,1.775,0,0,1,1.67-1.777h36.379A15.421,15.421,0,0,0,3767.719,2401.129Z" transform="translate(-3724.575 -2392.523)" fill="#ffa412"/><g transform="translate(28.442)"><rect width="0.88" height="8.606" transform="translate(42.415 0)" fill="#ffa412"/><rect width="0.88" height="8.606" transform="translate(39.437 0)" fill="#ffa412"/><rect width="0.88" height="8.606" transform="translate(35.866 0)" fill="#ffa412"/><rect width="0.88" height="8.606" transform="translate(30.391 0)" fill="#ffa412"/><rect width="0.88" height="8.606" transform="translate(24.603 0)" fill="#ffa412"/><rect width="0.88" height="8.606" transform="translate(15.728 0)" fill="#ffa412"/><rect width="0.88" height="8.606" transform="translate(7.419 0)" fill="#ffa412"/><rect width="0.88" height="8.606" transform="translate(0 0)" fill="#ffa412"/><rect width="0.88" height="8.606" transform="translate(45.25 0)" fill="#ffa412"/><rect width="0.88" height="8.606" transform="translate(47.123 0)" fill="#ffa412"/><rect width="0.88" height="8.606" transform="translate(48.931 0)" fill="#ffa412"/><path d="M4401.518,2392.553v8.546a1.8,1.8,0,0,1-.33.03h-.55v-8.606h.55A1.867,1.867,0,0,1,4401.518,2392.553Z" transform="translate(-4350.346 -2392.523)" fill="#ffa412"/><path d="M4412.016,2394.308v6.951a1.885,1.885,0,0,1-.879.7v-8.353A1.89,1.89,0,0,1,4412.016,2394.308Z" transform="translate(-4359.622 -2393.481)" fill="#ffa412"/></g></g><g transform="translate(0 76.727)"><path d="M3734.661,2320.5v4.859a1.853,1.853,0,0,1-.321,1.046,1.882,1.882,0,0,1-.879.7,1.738,1.738,0,0,1-.342.1,1.832,1.832,0,0,1-.331.031h-77.41a1.88,1.88,0,0,1-1.871-1.777c0-.032,0-.064,0-.1V2320.5c0-.032,0-.064,0-.1a1.879,1.879,0,0,1,1.871-1.776h77.41c.05,0,.1,0,.148.006.021,0,.042,0,.064.006s.046,0,.068.009l.051.009a1.722,1.722,0,0,1,.342.1l.049.02.048.021.094.045.054.03.047.028.089.056c.033.023.065.046.1.072s.049.038.072.059c0,0,0,0,0,0l.047.042a1.675,1.675,0,0,1,.136.14c.014.014.026.029.038.043l.036.045c.024.031.048.063.069.1A1.855,1.855,0,0,1,3734.661,2320.5Z" transform="translate(-3653.505 -2318.628)" fill="#ffb93e"/><path d="M3696.649,2327.234h-41.472a1.775,1.775,0,0,1-1.67-1.777c0-.032,0-.064,0-.1V2320.5c0-.032,0-.064,0-.1a1.775,1.775,0,0,1,1.67-1.776h36.378l.051.212A15.341,15.341,0,0,0,3696.649,2327.234Z" transform="translate(-3653.505 -2318.628)" fill="#ffa412"/><g transform="translate(28.442)"><rect width="0.88" height="8.606" transform="translate(42.415 0)" fill="#ffa412"/><rect width="0.88" height="8.606" transform="translate(39.437 0)" fill="#ffa412"/><rect width="0.88" height="8.606" transform="translate(35.866 0)" fill="#ffa412"/><rect width="0.88" height="8.606" transform="translate(30.392 0)" fill="#ffa412"/><rect width="0.88" height="8.606" transform="translate(24.603 0)" fill="#ffa412"/><rect width="0.88" height="8.606" transform="translate(15.729 0)" fill="#ffa412"/><rect width="0.88" height="8.606" transform="translate(7.42 0)" fill="#ffa412"/><rect width="0.88" height="8.606" transform="translate(0 0)" fill="#ffa412"/><rect width="0.88" height="8.606" transform="translate(45.25 0)" fill="#ffa412"/><rect width="0.88" height="8.606" transform="translate(47.123 0)" fill="#ffa412"/><rect width="0.88" height="8.606" transform="translate(48.931 0)" fill="#ffa412"/><path d="M4330.448,2318.657v8.546a1.836,1.836,0,0,1-.33.03h-.55v-8.605h.55A1.836,1.836,0,0,1,4330.448,2318.657Z" transform="translate(-4279.277 -2318.627)" fill="#ffa412"/><path d="M4340.947,2320.412v6.952a1.893,1.893,0,0,1-.879.7v-8.353A1.894,1.894,0,0,1,4340.947,2320.412Z" transform="translate(-4288.553 -2319.585)" fill="#ffa412"/></g></g><g transform="translate(4 68.334)"><path d="M3769.006,2248.427v4.86a1.855,1.855,0,0,1-.321,1.046,1.884,1.884,0,0,1-.879.7,1.748,1.748,0,0,1-.343.1,1.8,1.8,0,0,1-.331.031h-77.41a1.852,1.852,0,0,1-.863-.213,1.883,1.883,0,0,1-1-1.481c0-.028-.005-.055-.006-.084s0-.064,0-.1v-4.86c0-.032,0-.064,0-.1a1.879,1.879,0,0,1,1.871-1.777h77.41a1.868,1.868,0,0,1,.331.03,1.783,1.783,0,0,1,.343.1,1.884,1.884,0,0,1,.879.7A1.854,1.854,0,0,1,3769.006,2248.427Z" transform="translate(-3687.85 -2246.554)" fill="#ffb93e"/><path d="M3730.993,2255.16h-41.472a1.51,1.51,0,0,1-.77-.213,1.9,1.9,0,0,1-.894-1.481c0-.028-.005-.055-.006-.084s0-.064,0-.1v-4.86c0-.032,0-.064,0-.1a1.775,1.775,0,0,1,1.67-1.777H3725.9a15.517,15.517,0,0,0,4.838,8.393C3730.822,2255.019,3730.907,2255.09,3730.993,2255.16Z" transform="translate(-3687.85 -2246.554)" fill="#ffa412"/><g transform="translate(28.442)"><rect width="0.88" height="8.606" transform="translate(42.415 0)" fill="#ffa412"/><rect width="0.88" height="8.606" transform="translate(39.437 0)" fill="#ffa412"/><rect width="0.88" height="8.606" transform="translate(35.866 0)" fill="#ffa412"/><rect width="0.88" height="8.606" transform="translate(30.391 0)" fill="#ffa412"/><rect width="0.88" height="8.606" transform="translate(24.603 0)" fill="#ffa412"/><rect width="0.88" height="8.606" transform="translate(15.728 0)" fill="#ffa412"/><rect width="0.88" height="8.606" transform="translate(7.419 0)" fill="#ffa412"/><rect width="0.88" height="8.606" transform="translate(0 0)" fill="#ffa412"/><rect width="0.88" height="8.606" transform="translate(45.25 0)" fill="#ffa412"/><rect width="0.88" height="8.606" transform="translate(47.123 0)" fill="#ffa412"/><rect width="0.88" height="8.606" transform="translate(48.931 0)" fill="#ffa412"/><path d="M4364.792,2246.584v8.546a1.84,1.84,0,0,1-.33.03h-.55v-8.605h.55A1.818,1.818,0,0,1,4364.792,2246.584Z" transform="translate(-4313.621 -2246.554)" fill="#ffa412"/><path d="M4375.291,2248.339v6.952a1.891,1.891,0,0,1-.878.7v-8.354A1.888,1.888,0,0,1,4375.291,2248.339Z" transform="translate(-4322.899 -2247.512)" fill="#ffa412"/></g></g><g transform="translate(5.854 59.728)"><path d="M3784.927,2174.532v4.859a1.852,1.852,0,0,1-.321,1.046,1.882,1.882,0,0,1-.878.7,1.741,1.741,0,0,1-.343.1,1.817,1.817,0,0,1-.33.03h-77.41a1.879,1.879,0,0,1-1.871-1.777c0-.032,0-.064,0-.1v-4.859c0-.032,0-.065,0-.1a1.879,1.879,0,0,1,1.649-1.763,1.783,1.783,0,0,1,.221-.014h77.41a1.818,1.818,0,0,1,.33.031,1.756,1.756,0,0,1,.343.1,1.887,1.887,0,0,1,.878.7A1.855,1.855,0,0,1,3784.927,2174.532Z" transform="translate(-3703.771 -2172.659)" fill="#ffb93e"/><path d="M3746.915,2181.265h-41.471a1.775,1.775,0,0,1-1.67-1.777c0-.032,0-.064,0-.1v-4.859c0-.032,0-.065,0-.1a1.806,1.806,0,0,1,1.472-1.763,1.417,1.417,0,0,1,.2-.014h36.379l0,.014A15.423,15.423,0,0,0,3746.915,2181.265Z" transform="translate(-3703.771 -2172.659)" fill="#ffa412"/><g transform="translate(28.442)"><rect width="0.88" height="8.606" transform="translate(42.415 0)" fill="#ffa412"/><rect width="0.88" height="8.606" transform="translate(39.437 0)" fill="#ffa412"/><rect width="0.88" height="8.606" transform="translate(35.866 0)" fill="#ffa412"/><rect width="0.88" height="8.606" transform="translate(30.392 0)" fill="#ffa412"/><rect width="0.88" height="8.606" transform="translate(24.603 0)" fill="#ffa412"/><rect width="0.88" height="8.606" transform="translate(15.729 0)" fill="#ffa412"/><rect width="0.88" height="8.606" transform="translate(7.42 0)" fill="#ffa412"/><rect width="0.88" height="8.606" transform="translate(0 0)" fill="#ffa412"/><rect width="0.88" height="8.606" transform="translate(45.25 0)" fill="#ffa412"/><rect width="0.88" height="8.606" transform="translate(47.123 0)" fill="#ffa412"/><rect width="0.88" height="8.606" transform="translate(48.931 0)" fill="#ffa412"/><path d="M4380.715,2172.687v8.546a1.839,1.839,0,0,1-.33.03h-.55v-8.605h.55A1.862,1.862,0,0,1,4380.715,2172.687Z" transform="translate(-4329.543 -2172.657)" fill="#ffa412"/><path d="M4391.213,2174.442v6.951a1.89,1.89,0,0,1-.879.7v-8.353A1.887,1.887,0,0,1,4391.213,2174.442Z" transform="translate(-4338.82 -2173.615)" fill="#ffa412"/></g></g><g transform="translate(0.163 51.135)"><path d="M3736.057,2100.752v4.86a1.858,1.858,0,0,1-.321,1.046,1.883,1.883,0,0,1-.879.7,1.717,1.717,0,0,1-.343.1c-.036.006-.073.013-.109.017l-.061.006-.061,0-.1,0h-77.411a1.879,1.879,0,0,1-1.871-1.777c0-.032,0-.064,0-.1v-4.86c0-.032,0-.064,0-.1s0-.053.005-.078a1.883,1.883,0,0,1,1.4-1.64l.057-.013a1.876,1.876,0,0,1,.4-.045h77.411c.057,0,.113,0,.168.008l.074.008h0l.087.014a1.717,1.717,0,0,1,.343.1,1.881,1.881,0,0,1,.879.7A1.857,1.857,0,0,1,3736.057,2100.752Z" transform="translate(-3654.901 -2098.879)" fill="#ffb93e"/><path d="M3698.045,2107.485h-41.471a1.776,1.776,0,0,1-1.67-1.777c0-.032,0-.064,0-.1v-4.86c0-.032,0-.064,0-.1s0-.053.005-.078a1.823,1.823,0,0,1,1.3-1.651.469.469,0,0,1,.072-.017,1.459,1.459,0,0,1,.3-.03h36.378c0,.021.009.041.015.061a15.4,15.4,0,0,0,5.061,8.531Z" transform="translate(-3654.901 -2098.879)" fill="#ffa412"/><g transform="translate(28.442)"><rect width="0.88" height="8.606" transform="translate(42.415 0)" fill="#ffa412"/><rect width="0.88" height="8.606" transform="translate(39.437 0)" fill="#ffa412"/><rect width="0.88" height="8.606" transform="translate(35.865 0)" fill="#ffa412"/><rect width="0.88" height="8.606" transform="translate(30.391 0)" fill="#ffa412"/><rect width="0.88" height="8.606" transform="translate(24.603 0)" fill="#ffa412"/><rect width="0.88" height="8.606" transform="translate(15.728 0)" fill="#ffa412"/><rect width="0.88" height="8.606" transform="translate(7.419 0)" fill="#ffa412"/><rect width="0.88" height="8.606" transform="translate(0 0)" fill="#ffa412"/><rect width="0.88" height="8.606" transform="translate(45.25 0)" fill="#ffa412"/><rect width="0.88" height="8.606" transform="translate(47.123 0)" fill="#ffa412"/><rect width="0.88" height="8.606" transform="translate(48.931 0)" fill="#ffa412"/><path d="M4331.845,2098.907v8.545a1.775,1.775,0,0,1-.331.03h-.549v-8.606h.549A1.839,1.839,0,0,1,4331.845,2098.907Z" transform="translate(-4280.673 -2098.877)" fill="#ffa412"/><path d="M4342.344,2100.663v6.951a1.888,1.888,0,0,1-.879.7v-8.353A1.886,1.886,0,0,1,4342.344,2100.663Z" transform="translate(-4289.951 -2099.836)" fill="#ffa412"/></g></g><g transform="translate(0 42.591)"><path d="M3734.661,2027.382v4.86a1.852,1.852,0,0,1-.321,1.045,1.88,1.88,0,0,1-.879.7,1.666,1.666,0,0,1-.267.081h0l-.073.016a1.855,1.855,0,0,1-.331.03h-77.41a1.725,1.725,0,0,1-.242-.017.923.923,0,0,1-.092-.014,1.88,1.88,0,0,1-1.537-1.746c0-.032,0-.064,0-.1v-4.86c0-.032,0-.064,0-.1a1.88,1.88,0,0,1,1.871-1.777h77.41c.05,0,.1,0,.148.006l.064.006c.022,0,.046.005.068.01a.506.506,0,0,1,.051.008,1.722,1.722,0,0,1,.342.1l.049.02.048.021c.032.014.063.03.094.046s.068.037.1.058.059.036.089.056.065.047.1.071.049.039.072.059c0,0,0,0,0,0l.047.042a1.707,1.707,0,0,1,.136.14c.014.015.026.029.038.044l.036.046c.024.031.048.063.069.1A1.854,1.854,0,0,1,3734.661,2027.382Z" transform="translate(-3653.505 -2025.509)" fill="#ffb93e"/><path d="M3696.649,2034.115h-41.472l-.1,0c-.036,0-.072-.006-.106-.012a1.8,1.8,0,0,1-1.465-1.762c0-.032,0-.064,0-.1v-4.86c0-.032,0-.064,0-.1a1.775,1.775,0,0,1,1.67-1.777h36.378l.051.212a15.37,15.37,0,0,0,4.969,8.332Z" transform="translate(-3653.505 -2025.509)" fill="#ffa412"/><g transform="translate(28.442 0)"><rect width="0.88" height="8.606" transform="translate(42.415 0)" fill="#ffa412"/><rect width="0.88" height="8.606" transform="translate(39.437 0)" fill="#ffa412"/><rect width="0.88" height="8.606" transform="translate(35.866 0)" fill="#ffa412"/><rect width="0.88" height="8.606" transform="translate(30.392 0)" fill="#ffa412"/><rect width="0.88" height="8.606" transform="translate(24.603 0)" fill="#ffa412"/><rect width="0.88" height="8.606" transform="translate(15.729 0)" fill="#ffa412"/><rect width="0.88" height="8.606" transform="translate(7.42 0)" fill="#ffa412"/><rect width="0.88" height="8.606" transform="translate(0 0)" fill="#ffa412"/><rect width="0.88" height="8.606" transform="translate(45.25 0)" fill="#ffa412"/><rect width="0.88" height="8.606" transform="translate(47.123 0)" fill="#ffa412"/><rect width="0.88" height="8.606" transform="translate(48.931 0)" fill="#ffa412"/><path d="M4330.448,2025.54v8.546a1.836,1.836,0,0,1-.33.03h-.55v-8.606h.55A1.836,1.836,0,0,1,4330.448,2025.54Z" transform="translate(-4279.277 -2025.51)" fill="#ffa412"/><path d="M4340.947,2027.3v6.951a1.891,1.891,0,0,1-.879.7V2026.6A1.89,1.89,0,0,1,4340.947,2027.3Z" transform="translate(-4288.553 -2026.47)" fill="#ffa412"/></g></g><g transform="translate(4 34.197)"><path d="M3769.006,1955.309v4.86a1.853,1.853,0,0,1-.321,1.046,1.886,1.886,0,0,1-.879.7,1.748,1.748,0,0,1-.343.1,1.8,1.8,0,0,1-.331.03h-77.41a1.854,1.854,0,0,1-.863-.212,1.882,1.882,0,0,1-1-1.48c0-.028-.005-.056-.006-.084s0-.064,0-.1v-4.86c0-.032,0-.064,0-.1a1.879,1.879,0,0,1,1.871-1.777h77.41a1.824,1.824,0,0,1,.331.03,1.732,1.732,0,0,1,.343.1,1.886,1.886,0,0,1,.879.7A1.853,1.853,0,0,1,3769.006,1955.309Z" transform="translate(-3687.85 -1953.436)" fill="#ffb93e"/><path d="M3730.993,1962.042h-41.472a1.512,1.512,0,0,1-.77-.212,1.9,1.9,0,0,1-.894-1.48c0-.028-.005-.056-.006-.084s0-.064,0-.1v-4.86c0-.032,0-.064,0-.1a1.776,1.776,0,0,1,1.67-1.777H3725.9a15.516,15.516,0,0,0,4.838,8.393C3730.822,1961.9,3730.907,1961.972,3730.993,1962.042Z" transform="translate(-3687.85 -1953.436)" fill="#ffa412"/><g transform="translate(28.442 0)"><rect width="0.88" height="8.606" transform="translate(42.415 0)" fill="#ffa412"/><rect width="0.88" height="8.606" transform="translate(39.437 0)" fill="#ffa412"/><rect width="0.88" height="8.606" transform="translate(35.866 0)" fill="#ffa412"/><rect width="0.88" height="8.606" transform="translate(30.391 0)" fill="#ffa412"/><rect width="0.88" height="8.606" transform="translate(24.603 0)" fill="#ffa412"/><rect width="0.88" height="8.606" transform="translate(15.728 0)" fill="#ffa412"/><rect width="0.88" height="8.606" transform="translate(7.419 0)" fill="#ffa412"/><rect width="0.88" height="8.606" transform="translate(0 0)" fill="#ffa412"/><rect width="0.88" height="8.606" transform="translate(45.25 0)" fill="#ffa412"/><rect width="0.88" height="8.606" transform="translate(47.123 0)" fill="#ffa412"/><rect width="0.88" height="8.606" transform="translate(48.931 0)" fill="#ffa412"/><path d="M4364.792,1953.468v8.546a1.818,1.818,0,0,1-.33.03h-.55v-8.606h.55A1.829,1.829,0,0,1,4364.792,1953.468Z" transform="translate(-4313.621 -1953.438)" fill="#ffa412"/><path d="M4375.291,1955.224v6.951a1.882,1.882,0,0,1-.878.7v-8.353A1.882,1.882,0,0,1,4375.291,1955.224Z" transform="translate(-4322.899 -1954.397)" fill="#ffa412"/></g></g><g transform="translate(10.326 25.592)"><path d="M3823.325,1881.414v4.86a1.853,1.853,0,0,1-.321,1.046,1.885,1.885,0,0,1-.879.7,1.744,1.744,0,0,1-.343.1,1.8,1.8,0,0,1-.33.03h-77.411a1.879,1.879,0,0,1-1.871-1.776c0-.032,0-.065,0-.1v-4.86c0-.032,0-.064,0-.1a1.88,1.88,0,0,1,1.649-1.763,1.728,1.728,0,0,1,.221-.014h77.411a1.809,1.809,0,0,1,.33.03,1.753,1.753,0,0,1,.343.1,1.885,1.885,0,0,1,.879.7A1.852,1.852,0,0,1,3823.325,1881.414Z" transform="translate(-3742.169 -1879.541)" fill="#ffb93e"/><path d="M3785.312,1888.147h-41.471a1.775,1.775,0,0,1-1.67-1.776c0-.032,0-.065,0-.1v-4.86c0-.032,0-.064,0-.1a1.806,1.806,0,0,1,1.472-1.763,1.369,1.369,0,0,1,.2-.014h36.379s0,.01,0,.014A15.422,15.422,0,0,0,3785.312,1888.147Z" transform="translate(-3742.169 -1879.541)" fill="#ffa412"/><g transform="translate(28.442)"><rect width="0.88" height="8.606" transform="translate(42.415 0)" fill="#ffa412"/><rect width="0.88" height="8.606" transform="translate(39.437 0)" fill="#ffa412"/><rect width="0.88" height="8.606" transform="translate(35.865 0)" fill="#ffa412"/><rect width="0.88" height="8.606" transform="translate(30.391 0)" fill="#ffa412"/><rect width="0.88" height="8.606" transform="translate(24.603 0)" fill="#ffa412"/><rect width="0.88" height="8.606" transform="translate(15.728 0)" fill="#ffa412"/><rect width="0.88" height="8.606" transform="translate(7.419 0)" fill="#ffa412"/><rect width="0.88" height="8.606" transform="translate(0 0)" fill="#ffa412"/><rect width="0.88" height="8.606" transform="translate(45.25 0)" fill="#ffa412"/><rect width="0.88" height="8.606" transform="translate(47.123 0)" fill="#ffa412"/><rect width="0.88" height="8.606" transform="translate(48.931 0)" fill="#ffa412"/><path d="M4419.113,1879.571v8.546a1.818,1.818,0,0,1-.33.03h-.55v-8.606h.55A1.807,1.807,0,0,1,4419.113,1879.571Z" transform="translate(-4367.942 -1879.541)" fill="#ffa412"/><path d="M4429.612,1881.327v6.951a1.888,1.888,0,0,1-.879.7v-8.353A1.885,1.885,0,0,1,4429.612,1881.327Z" transform="translate(-4377.219 -1880.5)" fill="#ffa412"/></g></g><g transform="translate(0.163 16.999)"><path d="M3736.057,1807.635v4.86a1.858,1.858,0,0,1-.321,1.046,1.883,1.883,0,0,1-.879.7,1.725,1.725,0,0,1-.343.1c-.036.006-.073.013-.109.017s-.058.006-.087.008l-.043,0-.091,0h-77.411a1.879,1.879,0,0,1-1.871-1.777c0-.032,0-.064,0-.1v-4.86c0-.032,0-.064,0-.1a1.879,1.879,0,0,1,1.871-1.777h77.411c.033,0,.066,0,.1,0a1.884,1.884,0,0,1,.231.027,1.734,1.734,0,0,1,.343.1,1.532,1.532,0,0,1,.162.072c.033.016.065.033.1.052l.011.006c.032.019.063.038.094.059a.074.074,0,0,1,.016.01.9.9,0,0,1,.083.061,1.612,1.612,0,0,1,.187.162c.019.018.036.036.052.055l.01.01a.433.433,0,0,1,.031.035l.007.007c.019.022.037.045.055.068s.05.066.074.1A1.858,1.858,0,0,1,3736.057,1807.635Z" transform="translate(-3654.901 -1805.762)" fill="#ffb93e"/><path d="M3698.045,1814.368h-41.471a1.776,1.776,0,0,1-1.67-1.777c0-.032,0-.064,0-.1v-4.86c0-.032,0-.064,0-.1a1.776,1.776,0,0,1,1.67-1.777h36.378c.015.065.03.131.048.2a15.346,15.346,0,0,0,5.028,8.393Z" transform="translate(-3654.901 -1805.762)" fill="#ffa412"/><g transform="translate(28.442)"><rect width="0.88" height="8.606" transform="translate(42.415 0)" fill="#ffa412"/><rect width="0.88" height="8.606" transform="translate(39.437 0)" fill="#ffa412"/><rect width="0.88" height="8.606" transform="translate(35.865 0)" fill="#ffa412"/><rect width="0.88" height="8.606" transform="translate(30.391 0)" fill="#ffa412"/><rect width="0.88" height="8.606" transform="translate(24.603 0)" fill="#ffa412"/><rect width="0.88" height="8.606" transform="translate(15.728 0)" fill="#ffa412"/><rect width="0.88" height="8.606" transform="translate(7.419 0)" fill="#ffa412"/><rect width="0.88" height="8.606" transform="translate(0 0)" fill="#ffa412"/><rect width="0.88" height="8.606" transform="translate(45.25 0)" fill="#ffa412"/><rect width="0.88" height="8.606" transform="translate(47.123 0)" fill="#ffa412"/><rect width="0.88" height="8.606" transform="translate(48.931 0)" fill="#ffa412"/><path d="M4331.845,1805.792v8.546a1.817,1.817,0,0,1-.331.03h-.549v-8.606h.549A1.806,1.806,0,0,1,4331.845,1805.792Z" transform="translate(-4280.673 -1805.762)" fill="#ffa412"/><path d="M4342.344,1807.548v6.951a1.885,1.885,0,0,1-.879.7v-8.353A1.885,1.885,0,0,1,4342.344,1807.548Z" transform="translate(-4289.951 -1806.721)" fill="#ffa412"/></g></g><g transform="translate(5.854 8.592)"><path d="M3784.927,1735.446v4.86a1.853,1.853,0,0,1-.321,1.045,1.883,1.883,0,0,1-.878.7,1.775,1.775,0,0,1-.343.1,1.828,1.828,0,0,1-.33.03h-77.41a1.85,1.85,0,0,1-.836-.2,1.879,1.879,0,0,1-1.029-1.5c0-.025,0-.051-.005-.077s0-.064,0-.1v-4.86c0-.032,0-.064,0-.1a1.879,1.879,0,0,1,1.649-1.763,1.76,1.76,0,0,1,.221-.014h77.41a1.828,1.828,0,0,1,.33.03,1.774,1.774,0,0,1,.343.1,1.885,1.885,0,0,1,.878.7A1.852,1.852,0,0,1,3784.927,1735.446Z" transform="translate(-3703.771 -1733.573)" fill="#ffb93e"/><path d="M3746.915,1742.179h-41.471a1.507,1.507,0,0,1-.746-.2,1.89,1.89,0,0,1-.918-1.5c0-.025,0-.051-.005-.077s0-.064,0-.1v-4.86c0-.032,0-.064,0-.1a1.806,1.806,0,0,1,1.472-1.763,1.4,1.4,0,0,1,.2-.014h36.379l0,.014a15.507,15.507,0,0,0,4.851,8.393Q3746.794,1742.081,3746.915,1742.179Z" transform="translate(-3703.771 -1733.573)" fill="#ffa412"/><g transform="translate(28.442)"><rect width="0.88" height="8.606" transform="translate(42.415 0)" fill="#ffa412"/><rect width="0.88" height="8.606" transform="translate(39.437 0)" fill="#ffa412"/><rect width="0.88" height="8.606" transform="translate(35.866 0)" fill="#ffa412"/><rect width="0.88" height="8.606" transform="translate(30.392 0)" fill="#ffa412"/><rect width="0.88" height="8.606" transform="translate(24.603 0)" fill="#ffa412"/><rect width="0.88" height="8.606" transform="translate(15.729 0)" fill="#ffa412"/><rect width="0.88" height="8.606" transform="translate(7.42 0)" fill="#ffa412"/><rect width="0.88" height="8.606" transform="translate(0 0)" fill="#ffa412"/><rect width="0.88" height="8.606" transform="translate(45.25 0)" fill="#ffa412"/><rect width="0.88" height="8.606" transform="translate(47.123 0)" fill="#ffa412"/><rect width="0.88" height="8.606" transform="translate(48.931 0)" fill="#ffa412"/><path d="M4380.715,1733.6v8.546a1.828,1.828,0,0,1-.33.03h-.55v-8.606h.55A1.817,1.817,0,0,1,4380.715,1733.6Z" transform="translate(-4329.543 -1733.571)" fill="#ffa412"/><path d="M4391.213,1735.357v6.951a1.888,1.888,0,0,1-.879.7v-8.353A1.887,1.887,0,0,1,4391.213,1735.357Z" transform="translate(-4338.82 -1734.53)" fill="#ffa412"/></g></g><g transform="translate(0.163)"><path d="M3736.057,1661.666v4.86a1.857,1.857,0,0,1-.321,1.046,1.883,1.883,0,0,1-.879.7,1.75,1.75,0,0,1-.343.1c-.036.006-.073.012-.109.016l-.061.006-.061,0c-.033,0-.066,0-.1,0h-77.411a1.879,1.879,0,0,1-1.871-1.777c0-.032,0-.064,0-.1v-4.86c0-.032,0-.064,0-.1a1.879,1.879,0,0,1,1.871-1.777h77.411a1.833,1.833,0,0,1,.33.03,1.734,1.734,0,0,1,.343.1,1.882,1.882,0,0,1,.879.7A1.857,1.857,0,0,1,3736.057,1661.666Z" transform="translate(-3654.901 -1659.793)" fill="#ffb93e"/><path d="M3698.045,1668.4h-41.471a1.776,1.776,0,0,1-1.67-1.777c0-.032,0-.064,0-.1v-4.86c0-.032,0-.064,0-.1a1.776,1.776,0,0,1,1.67-1.777h36.378a15.421,15.421,0,0,0,5.076,8.592Z" transform="translate(-3654.901 -1659.793)" fill="#ffa412"/><g transform="translate(28.442)"><rect width="0.88" height="8.606" transform="translate(42.415 0)" fill="#ffa412"/><rect width="0.88" height="8.606" transform="translate(39.437 0)" fill="#ffa412"/><rect width="0.88" height="8.606" transform="translate(35.865 0)" fill="#ffa412"/><rect width="0.88" height="8.606" transform="translate(30.391 0)" fill="#ffa412"/><rect width="0.88" height="8.606" transform="translate(24.603 0)" fill="#ffa412"/><rect width="0.88" height="8.606" transform="translate(15.728 0)" fill="#ffa412"/><rect width="0.88" height="8.606" transform="translate(7.419 0)" fill="#ffa412"/><rect width="0.88" height="8.606" transform="translate(0 0)" fill="#ffa412"/><rect width="0.88" height="8.606" transform="translate(45.25 0)" fill="#ffa412"/><rect width="0.88" height="8.606" transform="translate(47.123 0)" fill="#ffa412"/><rect width="0.88" height="8.606" transform="translate(48.931 0)" fill="#ffa412"/><path d="M4331.845,1659.822v8.546a1.817,1.817,0,0,1-.331.03h-.549v-8.606h.549A1.828,1.828,0,0,1,4331.845,1659.822Z" transform="translate(-4280.673 -1659.792)" fill="#ffa412"/><path d="M4342.344,1661.578v6.951a1.889,1.889,0,0,1-.879.7v-8.353A1.887,1.887,0,0,1,4342.344,1661.578Z" transform="translate(-4289.951 -1660.751)" fill="#ffa412"/></g></g></g><g transform="translate(2349.26 985.205)"><circle cx="43.811" cy="43.811" r="43.811" transform="translate(3.822 61.957) rotate(-45)" fill="#e2810e"/><circle cx="43.811" cy="43.811" r="43.811" transform="translate(0 61.957) rotate(-45)" fill="#f9e478"/><g transform="translate(22.041 22.559)"><path d="M3405.332,1831.944a39.916,39.916,0,1,1,28.225-11.691A39.655,39.655,0,0,1,3405.332,1831.944Zm0-77.451a37.535,37.535,0,1,0,26.541,10.994A37.289,37.289,0,0,0,3405.332,1754.493Z" transform="translate(-3365.416 -1752.112)" fill="#ffa412"/></g><g transform="translate(44.476 32.996)"><path d="M3581.031,1882.8a6.59,6.59,0,0,0-.094-2.318,4.822,4.822,0,0,0-.979-1.925,9.1,9.1,0,0,0-1.96-1.729,23.922,23.922,0,0,0-3.037-1.7,63,63,0,0,1-5.609-3.082,19.876,19.876,0,0,1-4.193-3.413,11.688,11.688,0,0,1-2.477-4.16,13.191,13.191,0,0,1,1.066-9.975,11.1,11.1,0,0,1,3.093-3.436,13.853,13.853,0,0,1,4.428-2.109,18.476,18.476,0,0,1,5.531-.637l.78-6.579,5.3.628-.791,6.671a16.568,16.568,0,0,1,4.984,2.119,12.52,12.52,0,0,1,5.578,8,16.673,16.673,0,0,1,.219,5.654l-9.565-1.135q.438-3.689-.983-5.713a5.638,5.638,0,0,0-4.168-2.35,7.168,7.168,0,0,0-2.615.111,4.86,4.86,0,0,0-1.906.927,4.531,4.531,0,0,0-1.228,1.585,6.655,6.655,0,0,0-.583,2.082,6.1,6.1,0,0,0,.087,2.1,4.512,4.512,0,0,0,.939,1.842,9.126,9.126,0,0,0,1.976,1.731,30.915,30.915,0,0,0,3.156,1.825q3.068,1.579,5.55,3.152a20.1,20.1,0,0,1,4.173,3.441,11.286,11.286,0,0,1,2.9,9.464,12.065,12.065,0,0,1-1.52,4.745,10.957,10.957,0,0,1-3.106,3.4,13.383,13.383,0,0,1-4.453,2.029,19.96,19.96,0,0,1-5.557.588l-.726,6.118-5.262-.624.722-6.087a22.339,22.339,0,0,1-5.169-1.829,14.172,14.172,0,0,1-4.236-3.2,12.678,12.678,0,0,1-2.657-4.758,15.435,15.435,0,0,1-.44-6.474l9.565,1.135a9.515,9.515,0,0,0,.18,3.716,6.155,6.155,0,0,0,1.361,2.531,5.964,5.964,0,0,0,2.187,1.507,10.21,10.21,0,0,0,2.622.669,8.541,8.541,0,0,0,2.778-.075,5.7,5.7,0,0,0,2.1-.873,4.542,4.542,0,0,0,1.39-1.534A5.534,5.534,0,0,0,3581.031,1882.8Z" transform="translate(-3558.053 -1841.734)" fill="#ffa412"/></g></g><g transform="translate(2497.675 1022.731)"><g transform="translate(36.316 27.123)"><path d="M4814.665,2125.022s-4.752-5.544-.292-9.066c0,0,3.257-1.972,5.914-1.812,0,0-3.764,6.312-2.546,6.939s3.688-7.335,3.688-7.335,7.413-.719,9.8.428c0,0-6.337,5.186-5,5.495s8.18-4.782,8.18-4.782,6.9,1.174,6.531,5.383-2.745,5.509-3.79,5.4-7.157-2.445-7.29-1.589,3.546,3.654,6.123,3.785c0,0-4.865,5.365-8.1,3.817s-3.509-4-5.524-4.923-3.735-.918-2.9.021,4.479,1.852,5.631,3.89,2.187,3.413-1.158,2.91-8.781-2.951-9.02-5.753Z" transform="translate(-4806.631 -2113.526)" fill="#22bac6"/><g transform="translate(0 6.827)"><path d="M4822.609,2172.184s-18.739-.722-22.878,4.637a13.554,13.554,0,0,1-3.731,5.237l-.439,1.2s3.247-3.424,4.409-3.631C4799.97,2179.624,4798.152,2172.984,4822.609,2172.184Z" transform="translate(-4791.698 -2172.152)" fill="#22bac6"/><path d="M4766.692,2253.641a11.764,11.764,0,0,0-4.3,8.29l.729.065s1.284-5.5,3.606-7.645S4766.692,2253.641,4766.692,2253.641Z" transform="translate(-4762.392 -2243.734)" fill="#22bac6"/></g></g><g transform="translate(0 12.069)"><path d="M4478.286,2003.835s7.561-4.234,4.032-9.98c0,0-2.822-3.529-5.846-4.435,0,0,1.612,8.568,0,8.77s-1.109-9.677-1.109-9.677-7.964-3.831-11.089-3.528c0,0,4.94,8.367,3.328,8.166s-7.158-8.669-7.158-8.669-8.165-1.512-9.476,3.327.807,7.258,2.016,7.561,8.971.2,8.771,1.209-5.444,2.621-8.367,1.714c0,0,3.226,7.964,7.459,7.561s5.544-3.024,8.166-3.226,4.537.5,3.226,1.209-5.746.231-7.863,2.031-3.831,2.908.1,3.715,10.988.3,12.4-2.722Z" transform="translate(-4450.554 -1984.257)" fill="#31d9e7"/><g transform="translate(4.143 5.062)"><path d="M4486.13,2027.726s21.17,6.855,23.589,14.516a16.074,16.074,0,0,0,2.016,7.359v1.512s-2.218-5.141-3.427-5.847C4508.308,2045.266,4513.045,2038.613,4486.13,2027.726Z" transform="translate(-4486.13 -2027.726)" fill="#22bac6"/><path d="M4698.319,2208.421a13.96,13.96,0,0,1,1.4,10.992l-.839-.226s.815-6.647-.893-9.99S4698.319,2208.421,4698.319,2208.421Z" transform="translate(-4672.715 -2186.546)" fill="#22bac6"/></g></g><g transform="translate(33.208 0)"><path d="M4742.255,1906.434s-9.967-5.581-5.316-13.155c0,0,3.722-4.651,7.708-5.847,0,0-2.126,11.3,0,11.561s1.462-12.757,1.462-12.757,10.5-5.05,14.616-4.651c0,0-6.511,11.029-4.385,10.763s9.435-11.428,9.435-11.428,10.763-1.993,12.49,4.385-1.063,9.568-2.657,9.966-11.826.265-11.561,1.594,7.176,3.455,11.029,2.259c0,0-4.252,10.5-9.833,9.966s-7.309-3.986-10.763-4.252-5.98.664-4.253,1.595,7.575.3,10.366,2.677,5.05,3.834-.133,4.9-14.484.4-16.345-3.588Z" transform="translate(-4735.702 -1880.625)" fill="#31d9e7"/><g transform="translate(1.288 6.673)"><path d="M4802.895,1937.927s-27.905,9.036-31.094,19.135a21.2,21.2,0,0,1-2.658,9.7v1.993s2.923-6.777,4.519-7.707C4773.661,1961.049,4767.416,1952.278,4802.895,1937.927Z" transform="translate(-4766.537 -1937.927)" fill="#22bac6"/><path d="M4749.371,2176.116a18.407,18.407,0,0,0-1.85,14.49l1.107-.3s-1.075-8.762,1.177-13.169S4749.371,2176.116,4749.371,2176.116Z" transform="translate(-4746.766 -2147.281)" fill="#22bac6"/></g></g><path d="M4640.972,2309.966a19.522,19.522,0,0,0,19.522-19.522H4621.45A19.522,19.522,0,0,0,4640.972,2309.966Z" transform="translate(-4601.547 -2242.716)" fill="#f17781"/><path d="M4663.826,2309.814a19.531,19.531,0,0,1-21.946-19.372h4.849A19.525,19.525,0,0,0,4663.826,2309.814Z" transform="translate(-4619.599 -2242.715)" fill="#c25e66"/><path d="M4658.718,2448.333h-39.584a2.409,2.409,0,0,1,2.409-2.408h34.767a2.408,2.408,0,0,1,2.408,2.408Z" transform="translate(-4599.501 -2380.09)" fill="#f17781"/><rect width="40.13" height="0.599" transform="translate(19.26 47.727)" fill="#f17781"/></g><g transform="translate(2332.347 909.653)"><path d="M3315.914,1081.767l.007,1.184s-.323,3.7,4.236,4.242,8.3.471,8.173-2.386a60.363,60.363,0,0,1-1.177-7.475,12.884,12.884,0,0,1,.162-2.217l-8.833-.176-2.6.425Z" transform="translate(-3282.694 -1055.69)" fill="#ffb27d"/><path d="M3315.88,1075.364l.034,6.4a7.471,7.471,0,0,0,3.184.7c4.06,0,6.683-2.977,8.055-5.137a12.884,12.884,0,0,1,.162-2.217l-8.833-.176Z" transform="translate(-3282.694 -1055.69)" fill="#e2915a"/><path d="M3309.251,958.862c-1.025,5.516-8.141,5.334-11.217,4.988-.865-.1-1.41-.207-1.41-.207-.976-.261-1.521-1.8-1.773-3.811-.5-3.985.132-9.834.805-11.33,1.013-2.251,2.921-4.686,10.088-2.929S3310.566,951.8,3309.251,958.862Z" transform="translate(-3263.954 -940.858)" fill="#ffb27d"/><path d="M3393.37,2419.6h-10.085a24.307,24.307,0,0,1,.8-3.62,10.237,10.237,0,0,1,.571-1.453c.98-1.958,7.21-.712,7.21-.712a4.8,4.8,0,0,1,1.03,2.389A20.086,20.086,0,0,1,3393.37,2419.6Z" transform="translate(-3342.25 -2238.294)" fill="#233862"/><path d="M3051.571,2385.272c-.027,1.372-.2,2.671-.7,3.183h-19.947a3.442,3.442,0,0,1,3.019-2.14c2.327-.376,5.954-1.5,8.072-3.735a6.008,6.008,0,0,0,1.563-2.83c.938-4.178,7.759,1.28,7.759,1.28A33.752,33.752,0,0,1,3051.571,2385.272Z" transform="translate(-3030.925 -2207.153)" fill="#233862"/><path d="M3145.813,1665.283a31.526,31.526,0,0,0-.5,3.685c-.634,12.369-10.412,40.651-12.161,41.31-2.706,1.021-6.968-1.15-9.2-1.86a1.912,1.912,0,0,1-1.342-2.172c4.842-22.26,6.622-54.315,7.269-73.293a86.135,86.135,0,0,1,1.969-16.162s23.848-6.363,23.99,1.686C3155.964,1625.6,3147.939,1653.533,3145.813,1665.283Z" transform="translate(-3111.9 -1532.329)" fill="#2b478b"/><path d="M3201.26,1665.283l-15.931-32.329a86.114,86.114,0,0,1,1.968-16.162s23.848-6.363,23.99,1.686C3211.412,1625.6,3203.387,1653.533,3201.26,1665.283Z" transform="translate(-3167.348 -1532.329)" fill="#233862"/><path d="M3276.564,1627.572l12.607,91.372s5.537,1.335,9.843.267c0,0,3.691-48.6,3.383-60.344s2.649-31.437-.675-33.608S3276.564,1627.572,3276.564,1627.572Z" transform="translate(-3247.958 -1541.396)" fill="#2b478b"/><path d="M3283.707,912.046a23.7,23.7,0,0,0,6.875-1.86c3.021-1.313,6.83.133,8.067.785a1.84,1.84,0,0,0-.3-.744,1.662,1.662,0,0,1,.637.944c.057.042.083.071.068.081a2.128,2.128,0,0,1,1.034.067s-.283-.04-.384.142a.172.172,0,0,1-.045.05c4.711,2.276,5.146,9.721,3.63,11.444a37.793,37.793,0,0,0-4.011,6.74,4,4,0,0,1-.466-2.927c.332-1.824-1.243-1.824-3.233-2.653s-.332-3.15-2.073-4.56-8.125-.58-8.042-1.658C3283.093,917.033,3283.707,912.289,3283.707,912.046Z" transform="translate(-3254.205 -909.653)" fill="#233862"/><path d="M3231.331,1173.305l-2.9,62.279s-24.226.4-23.534-5.087,8.732-55.285,8.732-55.285l17.7-1.907Z" transform="translate(-3184.621 -1142.6)" fill="#e9f3fe"/><path d="M3380.074,1191.034c-1.441,4.324,1.276,18.832,2.245,23.747.213,1.04.354,1.654.354,1.654-3.355,5.458-15.643,5.387-15.643,5.387-2.363-10.444-3.591-27.078-3.591-27.078l9.428-41.327,11.862,10.964s-.9,6.687-2.009,13.492A112.9,112.9,0,0,1,3380.074,1191.034Z" transform="translate(-3324.715 -1125.029)" fill="#22407a"/><path d="M3307.157,1067.044s-.23.711-2.025.452c0,0-1.508-.218-1.4-1.011A4.89,4.89,0,0,1,3307.157,1067.044Z" transform="translate(-3271.959 -1048.132)" fill="#fff"/><path d="M3062.482,1157.578s0,.011-.005.026c-.573.556-16.745,16.257-19.878,22.407-3.19,6.238,14.579,18.667,14.579,18.667a4.138,4.138,0,0,0,1.937.275c-.838,6.9-1.778,13.262-1.22,15.979,1.006,4.91,5.548,6.559,5.548,6.181,0-.12,1.17-17.9,2.563-27.09,3.092-20.389,6.779-39.523,6.779-39.523A34.1,34.1,0,0,0,3062.482,1157.578Zm-9.629,25.127a.142.142,0,0,1-.024-.094c0-.9,3.427-2.883,7.136-5.222l.071-.072.007,0c-.066,1.911-.059,3.786.055,5.531a70.786,70.786,0,0,1-.417,11.046C3057.916,1191.132,3053.2,1183.721,3052.854,1182.705Z" transform="translate(-3040.901 -1125.985)" fill="#22407a"/><g transform="translate(28.394 26.188)"><path d="M3352.047,1142.04c.03-.594-2.785-1.416-2.785-1.416s-3.222,4.468-8.531,4.545c0,0,1.513,2.944,3.3,3.707C3344.027,1148.876,3351.872,1145.569,3352.047,1142.04Z" transform="translate(-3333.046 -1139.914)" fill="#d9e9f9"/><g transform="translate(0 6.076)"><path d="M3274.968,1227.973a5.878,5.878,0,0,0,1.872,3.8l1.689,1.557a.989.989,0,0,0,1.448-.116l2.092-2.657a3.527,3.527,0,0,0,.739-2.517c-.2-2.011-.56-5.885-.852-9.625-.238-3.03-.428-5.973-.443-7.763-.046-5.717,1.088-23.948,1.088-23.948l-1.371.071a73.425,73.425,0,0,0-5.186,16.706,63.705,63.705,0,0,0-.948,7.506A138.968,138.968,0,0,0,3274.968,1227.973Z" transform="translate(-3274.738 -1186.702)" fill="#c65447"/><path d="M3274.968,1355.256a5.879,5.879,0,0,0,1.872,3.8l1.689,1.556a.989.989,0,0,0,1.448-.116l2.092-2.657a3.527,3.527,0,0,0,.739-2.517c-.2-2.011-.56-5.885-.852-9.624-3.788-4.255-5.323-10.136-5.911-14.935a63.687,63.687,0,0,0-.948,7.506A138.968,138.968,0,0,0,3274.968,1355.256Z" transform="translate(-3274.738 -1313.985)" fill="#ba4c43"/></g><path d="M3297.694,1152.191s-2.812-1.667-2.822-3.474c0,0-1.817-.228-2.61.653,0,0-.667,3.1.218,4.9C3292.479,1154.267,3296.529,1153.65,3297.694,1152.191Z" transform="translate(-3290.008 -1147.041)" fill="#d9e9f9"/><path d="M3324.515,1169.516l-3.813-.914a.578.578,0,0,0-.484.665,4.855,4.855,0,0,0,1.543,2.581C3322.23,1171.993,3325.417,1170.773,3324.515,1169.516Z" transform="translate(-3314.92 -1164.634)" fill="#ba4c43"/><path d="M3351.6,1136.345c.03-.594-1.876-1.819-1.876-1.819s-3.688,4.31-9,4.387c0,0,1.513,2.944,3.3,3.707C3344.027,1142.62,3351.428,1139.874,3351.6,1136.345Z" transform="translate(-3333.046 -1134.526)" fill="#e9f3fe"/><path d="M3297.864,1147.048s-2.844-1.508-2.854-3.315a9.081,9.081,0,0,0-2.51,1.636,5.217,5.217,0,0,0,.15,3.755S3296.7,1148.507,3297.864,1147.048Z" transform="translate(-3290.178 -1142.661)" fill="#e9f3fe"/></g><path d="M3160.963,1522.407a2.622,2.622,0,0,1,2.965-2.623,1.624,1.624,0,0,1,1.1.608c1.08,1.438,2.107,5.621.194,5.816a4.2,4.2,0,0,1-2.551-1.052,3.711,3.711,0,0,1-1.71-2.51Z" transform="translate(-3145.819 -1448.703)" fill="#ffb27d"/><path d="M3455.238,1400.322c-3.474-3.616-9.475-10.728-9.262-16.564.283-8.176,9.664-20.344,9.664-20.344a112.887,112.887,0,0,1-2.647,13.161C3451.552,1380.9,3454.269,1395.407,3455.238,1400.322Z" transform="translate(-3397.635 -1310.57)" fill="#233862"/><path d="M3442.478,1558.227s-2.5,1.249-4.013.624-3.3-1.093-4.994.836-2.051,3.266-1.694,3.98,4.307.446,4.962,0,1.692-1.544,2.35-1.352c1.814.528,3.342-.857,4.2-1.959C3443.8,1559.69,3442.41,1559.368,3442.478,1558.227Z" transform="translate(-3384.983 -1482.695)" fill="#ffb27d"/><path d="M3444.394,1153.417s9.945,1.1,12.291,5.432,14.541,21.884,14.142,29.178-16.637,15.474-16.637,15.474-3.6-1.52-3.65-3.155,11.226-11.407,10.542-13.231-13.1-16.247-14.3-21S3444.394,1153.417,3444.394,1153.417Z" transform="translate(-3396.242 -1125.029)" fill="#22407a"/><path d="M3140.294,1316.528l-.071.072c-3.71,2.339-7.136,4.324-7.136,5.222-.5-1.584,4.324-8.2,5.884-9.546C3140.554,1310.905,3140.294,1316.528,3140.294,1316.528Z" transform="translate(-3121.158 -1265.197)" fill="#233862"/><path d="M3368.834,1134.526s-7.55,31.623-6.349,43.536c0,0,2.777-12.73,9.457-23.157,0,0-2.438-2.144-2.305-2.934a8.344,8.344,0,0,1,3.565-.175s-.194-13.631-1.289-15.071A7.972,7.972,0,0,0,3368.834,1134.526Z" transform="translate(-3323.758 -1108.338)" fill="#233862"/><path d="M3254.616,1143.733c.1.048-7.483,30.9-8.121,40.777,0,0,.757-17.623.682-22.7,0,0,3.136-1.66,3.136-2.243s-3.345-2.157-3.345-2.157,2.118-10.853,3.275-12.049S3254.616,1143.733,3254.616,1143.733Z" transform="translate(-3221.391 -1116.472)" fill="#233862"/></g><g transform="translate(2445.287 974.565)"><path d="M4029.029,1517.459l20.676-.024a4.907,4.907,0,0,0,4.887-4.9l-.011-8.96a4.907,4.907,0,0,0-4.9-4.887l-20.676.024a4.907,4.907,0,0,0-4.887,4.9l.01,8.96A4.908,4.908,0,0,0,4029.029,1517.459Z" transform="translate(-4021.394 -1495.004)" fill="#233862"/><path d="M4030.521,1473.058h0a4.929,4.929,0,0,0-3.778-2.449h0c-.159-.015-.317-.024-.481-.024l-4.117.006,0-1.934a1.621,1.621,0,0,0-1.623-1.618h-1.074l-4.323.005h-.779a1.622,1.622,0,0,0-1.618,1.622l0,1.934-7.105.008a4.928,4.928,0,0,0-4.906,4.916l.012,9.064a4.925,4.925,0,0,0,4.917,4.9l20.638-.023a4.8,4.8,0,0,0,1.06-.118h0a4.832,4.832,0,0,0,1.521-.625,4.921,4.921,0,0,0,2.321-4.173l-.011-9.063A4.867,4.867,0,0,0,4030.521,1473.058Zm-16.784-4.393a.606.606,0,0,1,.425-.578.612.612,0,0,1,.18-.028h.918l3.4,0,1.854,0a.605.605,0,0,1,.605.6l0,1.934-7.386.008Z" transform="translate(-4000.711 -1467.037)" fill="#2b478b"/></g></g></g></svg>