<svg xmlns="http://www.w3.org/2000/svg" width="344.592" height="238.889" viewBox="0 0 344.592 238.889">
  <g id="Grupo_65260" data-name="Grupo 65260" transform="translate(-165.588 -140.666)">
    <path id="Trazado_112815" data-name="Trazado 112815" d="M285.348,271.39l15.09-8.712a5.938,5.938,0,0,1,5.373,0l41.652,24.048c1.484.857,1.484,2.245,0,3.1l-15.091,8.712a5.936,5.936,0,0,1-5.372,0l-41.652-24.048C283.865,273.636,283.865,272.247,285.348,271.39Z" transform="translate(-18.504 -18.929)" fill="#173d7a" opacity="0.5"/>
    <path id="Trazado_112816" data-name="Trazado 112816" d="M317.274,252.563l15.091-8.712a5.936,5.936,0,0,1,5.372,0L379.389,267.9c1.484.857,1.484,2.245,0,3.1l-15.09,8.712a5.938,5.938,0,0,1-5.373,0l-41.652-24.048C315.792,254.809,315.792,253.42,317.274,252.563Z" transform="translate(-23.483 -15.993)" fill="#173d7a" opacity="0.5"/>
    <path id="Trazado_112817" data-name="Trazado 112817" d="M202.3,383.776l48.758-27.8c1.783-1.029,1.56-2.828-.5-4.016l-28.054-16.2a7.735,7.735,0,0,0-6.957-.289l-48.758,27.8c-1.783,1.029-1.56,2.828.5,4.016l28.053,16.2A7.735,7.735,0,0,0,202.3,383.776Z" transform="translate(0 -30.273)" fill="#173d7a" opacity="0.5"/>
    <g id="Grupo_65226" data-name="Grupo 65226" transform="translate(265.421 157.939)">
      <g id="Grupo_65220" data-name="Grupo 65220" transform="translate(25.903 0)">
        <g id="Grupo_65216" data-name="Grupo 65216" transform="translate(0 62.721)">
          <path id="Trazado_112818" data-name="Trazado 112818" d="M316.526,242.384c-2.625,1.515-2.625,3.98,0,5.5l44.613,25.758a2.891,2.891,0,0,0,2.613,0,.8.8,0,0,0,0-1.509l-44.613-25.757a1.309,1.309,0,0,1,0-2.479l4.323-2.5c-.481-.723-.917-1.475-1.343-2.242Z" transform="translate(-314.558 -236.021)" fill="#d4ecff"/>
          <path id="Trazado_112819" data-name="Trazado 112819" d="M381.108,262.336,336.5,236.579a10.535,10.535,0,0,0-9.52,0l-3.459,2c.426.767.862,1.519,1.343,2.242l4.729-2.73a4.75,4.75,0,0,1,4.294,0l44.612,25.757a2.888,2.888,0,0,0,2.614,0A.8.8,0,0,0,381.108,262.336Z" transform="translate(-315.955 -235.442)" fill="#5793ce"/>
        </g>
        <path id="Trazado_112820" data-name="Trazado 112820" d="M380.654,251.775l0-62.732-46.751-26.062-6.538-.431-6.322,4.1-3.88,3.377,45.55,72.233,14.872,8.765Z" transform="translate(-314.965 -161.352)" fill="#5793ce"/>
        <path id="Trazado_112821" data-name="Trazado 112821" d="M371.821,264.955l13.974-8.068V196.26l-14.405,6.7Z" transform="translate(-323.421 -166.61)" fill="#79b1e0"/>
        <path id="Trazado_112822" data-name="Trazado 112822" d="M314.559,171.978v62.63l49.079,28.073.655-.262V199.7Z" transform="translate(-314.558 -162.823)" fill="#d4ecff"/>
        <g id="Grupo_65217" data-name="Grupo 65217" transform="translate(3.877 3.682)">
          <path id="Trazado_112823" data-name="Trazado 112823" d="M342.879,171.485l-9.754-5.6a4.79,4.79,0,0,0-4.037.121l-9.052,5.227a1.382,1.382,0,0,0-.854,1.487l24.647,14.728,19.8,12.152,14.022-8.134Z" transform="translate(-319.151 -165.493)" fill="#fff"/>
        </g>
        <path id="Trazado_112824" data-name="Trazado 112824" d="M371.39,203.652v64.757a2.646,2.646,0,0,0,1.226-.308.924.924,0,0,0,.539-.741l0,0V204.636Z" transform="translate(-323.421 -167.763)" fill="#5793ce"/>
        <path id="Trazado_112825" data-name="Trazado 112825" d="M392.33,194.721v-.782h-.249l-.076.531Z" transform="translate(-326.636 -166.248)" fill="#fff"/>
        <path id="Trazado_112826" data-name="Trazado 112826" d="M373.436,205.633v-.8l-.241.34Z" transform="translate(-323.703 -167.947)" fill="#fff"/>
        <g id="Grupo_65218" data-name="Grupo 65218">
          <path id="Trazado_112827" data-name="Trazado 112827" d="M361.139,198.747l-44.613-25.757c-2.625-1.516-2.625-3.981,0-5.5l9.052-5.226a10.533,10.533,0,0,1,9.52,0l44.612,25.757a.8.8,0,0,1,0,1.508,2.888,2.888,0,0,1-2.614,0l-44.612-25.757a4.751,4.751,0,0,0-4.294,0L319.139,169a1.308,1.308,0,0,0,0,2.478l44.613,25.757a.8.8,0,0,1,0,1.509A2.891,2.891,0,0,1,361.139,198.747Z" transform="translate(-314.558 -161.131)" fill="#d4ecff"/>
        </g>
        <path id="Trazado_112828" data-name="Trazado 112828" d="M351.687,234.11,328.5,220.725v-23.24l23.183,13.385Z" transform="translate(-316.733 -166.801)" fill="#fff"/>
        <g id="Grupo_65219" data-name="Grupo 65219" transform="translate(0.003 2.132)">
          <path id="Trazado_112829" data-name="Trazado 112829" d="M380.394,189.927a2.888,2.888,0,0,1-2.614,0L333.168,164.17a4.751,4.751,0,0,0-4.294,0l-9.052,5.227c-.775.447-1.039,1.078-.8,1.652a1.8,1.8,0,0,1,.8-.826L328.875,165a4.751,4.751,0,0,1,4.294,0l44.612,25.757a2.888,2.888,0,0,0,2.614,0c.546-.316.677-.779.395-1.167A1.26,1.26,0,0,1,380.394,189.927Z" transform="translate(-315.244 -163.657)" fill="#fff"/>
          <path id="Trazado_112830" data-name="Trazado 112830" d="M363.753,200.507a2.891,2.891,0,0,1-2.613,0L316.527,174.75a3.6,3.6,0,0,1-1.928-2.335c-.207,1.128.434,2.3,1.928,3.162l44.613,25.757a2.891,2.891,0,0,0,2.613,0c.546-.316.677-.78.4-1.167A1.272,1.272,0,0,1,363.753,200.507Z" transform="translate(-314.561 -165.023)" fill="#fff"/>
        </g>
      </g>
      <g id="Grupo_65225" data-name="Grupo 65225" transform="translate(0 16.067)">
        <g id="Grupo_65221" data-name="Grupo 65221" transform="translate(0 62.721)">
          <path id="Trazado_112831" data-name="Trazado 112831" d="M285.836,261.42c-2.624,1.515-2.624,3.981,0,5.5l44.613,25.757a2.891,2.891,0,0,0,2.613,0,.8.8,0,0,0,0-1.509l-44.613-25.757a1.309,1.309,0,0,1,0-2.479l4.323-2.5c-.48-.722-.917-1.474-1.343-2.242Z" transform="translate(-283.868 -255.057)" fill="#bb83ff"/>
          <path id="Trazado_112832" data-name="Trazado 112832" d="M350.418,281.372l-44.613-25.757a10.534,10.534,0,0,0-9.519,0l-3.46,2c.426.767.863,1.519,1.343,2.242l4.73-2.73a4.749,4.749,0,0,1,4.293,0l44.613,25.757a2.886,2.886,0,0,0,2.613,0A.8.8,0,0,0,350.418,281.372Z" transform="translate(-285.265 -254.478)" fill="#bb83ff"/>
        </g>
        <path id="Trazado_112833" data-name="Trazado 112833" d="M349.965,270.811l0-62.732-46.751-26.062-6.538-.431-6.322,4.1-3.88,3.377,45.55,72.233,14.872,8.765Z" transform="translate(-284.275 -180.388)" fill="#bb83ff"/>
        <path id="Trazado_112834" data-name="Trazado 112834" d="M341.131,283.991l13.974-8.068V215.3l-14.405,6.7Z" transform="translate(-292.732 -185.646)" fill="#e7d4ff"/>
        <path id="Trazado_112835" data-name="Trazado 112835" d="M283.869,191.014v62.63l49.079,28.073.655-.262V218.732Z" transform="translate(-283.868 -181.859)" fill="#bb83ff"/>
        <g id="Grupo_65222" data-name="Grupo 65222" transform="translate(3.876 3.682)">
          <path id="Trazado_112836" data-name="Trazado 112836" d="M312.189,190.521l-9.754-5.6a4.788,4.788,0,0,0-4.036.121l-9.053,5.227a1.383,1.383,0,0,0-.854,1.487l24.648,14.729,19.8,12.152,14.021-8.134Z" transform="translate(-288.461 -184.529)" fill="#fff"/>
        </g>
        <path id="Trazado_112837" data-name="Trazado 112837" d="M340.7,222.688v64.757a2.643,2.643,0,0,0,1.226-.308.924.924,0,0,0,.538-.741l0,0V223.672Z" transform="translate(-292.732 -186.799)" fill="#bb83ff"/>
        <path id="Trazado_112838" data-name="Trazado 112838" d="M361.641,213.757v-.782h-.249l-.076.531Z" transform="translate(-295.947 -185.284)" fill="#fff"/>
        <path id="Trazado_112839" data-name="Trazado 112839" d="M342.747,224.669v-.8l-.241.34Z" transform="translate(-293.013 -186.982)" fill="#fff"/>
        <g id="Grupo_65223" data-name="Grupo 65223">
          <path id="Trazado_112840" data-name="Trazado 112840" d="M330.449,217.783l-44.613-25.757c-2.624-1.516-2.624-3.981,0-5.5l9.053-5.226a10.531,10.531,0,0,1,9.519,0l44.613,25.757a.8.8,0,0,1,0,1.508,2.886,2.886,0,0,1-2.613,0L301.8,182.812a4.751,4.751,0,0,0-4.293,0l-9.053,5.227a1.309,1.309,0,0,0,0,2.478l44.613,25.757a.8.8,0,0,1,0,1.509A2.891,2.891,0,0,1,330.449,217.783Z" transform="translate(-283.868 -180.167)" fill="#bb83ff"/>
        </g>
        <path id="Trazado_112841" data-name="Trazado 112841" d="M321,253.146l-23.183-13.384v-23.24L321,229.906Z" transform="translate(-286.043 -185.837)" fill="#fff"/>
        <g id="Grupo_65224" data-name="Grupo 65224" transform="translate(0.003 2.132)">
          <path id="Trazado_112842" data-name="Trazado 112842" d="M349.7,208.963a2.886,2.886,0,0,1-2.613,0l-44.613-25.757a4.749,4.749,0,0,0-4.293,0l-9.053,5.227c-.775.447-1.039,1.078-.8,1.652a1.8,1.8,0,0,1,.8-.826l9.053-5.226a4.749,4.749,0,0,1,4.293,0l44.613,25.757a2.886,2.886,0,0,0,2.613,0c.547-.316.677-.779.4-1.167A1.251,1.251,0,0,1,349.7,208.963Z" transform="translate(-284.554 -182.693)" fill="#fff"/>
          <path id="Trazado_112843" data-name="Trazado 112843" d="M333.063,219.543a2.891,2.891,0,0,1-2.613,0l-44.613-25.757a3.6,3.6,0,0,1-1.927-2.335c-.208,1.128.433,2.3,1.927,3.162L330.45,220.37a2.891,2.891,0,0,0,2.613,0c.547-.316.677-.78.4-1.167A1.252,1.252,0,0,1,333.063,219.543Z" transform="translate(-283.872 -184.059)" fill="#fff"/>
        </g>
      </g>
    </g>
    <g id="Grupo_65230" data-name="Grupo 65230" transform="translate(298.882 167.72)">
      <path id="Trazado_112844" data-name="Trazado 112844" d="M426.786,403.667,330.039,347.81c-2.736-1.581-2.394-4.341.767-6.165l65.877-38.022c3.16-1.824,7.941-2.022,10.677-.442l96.747,55.857c2.737,1.58,2.394,4.34-.766,6.165l-65.877,38.022C434.3,405.049,429.523,405.247,426.786,403.667Z" transform="translate(-324.241 -192.9)" fill="#173d7a" opacity="0.5"/>
      <path id="Trazado_112845" data-name="Trazado 112845" d="M546.733,231.684,445.686,173.344a4.079,4.079,0,0,0-3.424-.42l.006-.01-.183.069-.045.017-3.651,1.4L441.666,176c-.015.06-.034.116-.047.178L425.16,251.1c-.824,3.75.825,8.127,3.684,9.777l98.617,56.936-.352,4.179,3.991-1.547a5.609,5.609,0,0,0,2.858-4.065l16.459-74.92C551.241,237.711,549.591,233.334,546.733,231.684Z" transform="translate(-339.331 -172.719)" fill="#47286d"/>
      <path id="Trazado_112846" data-name="Trazado 112846" d="M547.809,231.684,446.762,173.344a4.079,4.079,0,0,0-3.424-.42l.006-.01-.183.069-.045.017-3.651,1.4L442.742,176c-.015.06-.034.116-.047.178l-10.848,49.376,49.441,38.52L551,235.71A7.84,7.84,0,0,0,547.809,231.684Z" transform="translate(-340.407 -172.719)" fill="#47286d"/>
      <path id="Trazado_112847" data-name="Trazado 112847" d="M563.318,254.195l7.692-3.275a9.637,9.637,0,0,0-3.116-7.7l-12.176,5.122Z" transform="translate(-359.726 -183.714)" fill="#47286d"/>
      <path id="Trazado_112848" data-name="Trazado 112848" d="M522.436,321.856l-101.047-58.34c-2.859-1.65-4.508-6.027-3.684-9.776l16.459-74.92c.824-3.749,3.808-5.451,6.667-3.8l101.047,58.34c2.858,1.65,4.508,6.027,3.684,9.777L529.1,318.056C528.279,321.8,525.294,323.506,522.436,321.856Z" transform="translate(-338.169 -172.98)" fill="#d4ecff"/>
      <path id="Trazado_112849" data-name="Trazado 112849" d="M546.6,232.939,445.557,174.6a3.993,3.993,0,0,0-3.978-.173,4.154,4.154,0,0,1,3.008.528l101.047,58.338c2.859,1.651,4.508,6.028,3.684,9.777l-16.459,74.92a5.7,5.7,0,0,1-2.688,3.974c1.706-.373,3.13-1.92,3.658-4.328l16.459-74.92C551.112,238.967,549.463,234.589,546.6,232.939Z" transform="translate(-341.925 -172.915)" fill="#fff"/>
      <path id="Trazado_112850" data-name="Trazado 112850" d="M521.013,317.3l-95.033-54.84c-2.616-1.511-4.125-5.516-3.371-8.947l15.061-68.558c.754-3.431,3.485-4.988,6.1-3.478L538.8,236.316c2.616,1.51,4.125,5.516,3.371,8.947L527.114,313.82C526.36,317.251,523.629,318.808,521.013,317.3Z" transform="translate(-338.936 -173.995)" fill="#fff"/>
      <path id="Trazado_112851" data-name="Trazado 112851" d="M521.013,317.3l-95.033-54.84c-2.616-1.511-4.125-5.516-3.371-8.947l15.061-68.558c.754-3.431,3.485-4.988,6.1-3.478L538.8,236.316c2.616,1.51,4.125,5.516,3.371,8.947L527.114,313.82C526.36,317.251,523.629,318.808,521.013,317.3Z" transform="translate(-338.936 -173.995)" fill="#173d7a"/>
      <path id="Trazado_112852" data-name="Trazado 112852" d="M521.841,316.982l-95.033-54.841c-2.616-1.51-4.125-5.516-3.371-8.946L438.5,184.636a5.257,5.257,0,0,1,2.395-3.608c-1.507.387-2.752,1.8-3.223,3.946l-15.061,68.557c-.754,3.432.755,7.438,3.371,8.948l95.033,54.84a3.653,3.653,0,0,0,3.706.131A3.79,3.79,0,0,1,521.841,316.982Z" transform="translate(-338.936 -174.015)" fill="#5793ce"/>
      <path id="Trazado_112853" data-name="Trazado 112853" d="M509.175,342.06l-13.813-1.824L406.2,288.758c-2.859-1.65-7.851-1.443-11.152.463l-63.18,36.463-8.352-1.1v4.738h.008a3.253,3.253,0,0,0,1.917,2.928l101.047,58.339c2.859,1.65,7.852,1.443,11.152-.463l68.805-39.711c1.857-1.072,2.783-2.454,2.729-3.75h0Z" transform="translate(-323.512 -190.643)" fill="#47286d"/>
      <path id="Trazado_112854" data-name="Trazado 112854" d="M442.181,312.9l-6.335-3.658H366.2l-34.334,19.81-8.352-1.1v4.738h.008a3.253,3.253,0,0,0,1.917,2.928l101.047,58.339a10.458,10.458,0,0,0,5.756,1.079Z" transform="translate(-323.512 -194.011)" fill="#47286d"/>
      <path id="Trazado_112855" data-name="Trazado 112855" d="M327.222,331.9l-3.706-.489v4.738h.008a3.253,3.253,0,0,0,1.917,2.928l1.781,1.028Z" transform="translate(-323.512 -197.468)" fill="#5793ce"/>
      <path id="Trazado_112856" data-name="Trazado 112856" d="M446.721,408.108a12.947,12.947,0,0,0,9.476-.588V396.949h-9.476Z" transform="translate(-342.727 -207.69)" fill="#47286d"/>
      <path id="Trazado_112857" data-name="Trazado 112857" d="M426.487,384.4,325.441,326.064c-2.858-1.651-2.5-4.533.8-6.439l68.805-39.711c3.3-1.906,8.294-2.113,11.152-.462L507.246,337.79c2.859,1.651,2.5,4.533-.8,6.439L437.64,383.941C434.34,385.847,429.346,386.054,426.487,384.4Z" transform="translate(-323.511 -189.191)" fill="#d4ecff"/>
      <path id="Trazado_112858" data-name="Trazado 112858" d="M506.446,350.638,437.641,390.35c-3.3,1.906-8.294,2.113-11.152.463L325.442,332.473a3.76,3.76,0,0,1-1.777-1.944c-.447,1.352.123,2.72,1.777,3.675l101.047,58.339c2.859,1.65,7.852,1.443,11.152-.463l68.805-39.711c2.219-1.281,3.1-3,2.578-4.5A5.369,5.369,0,0,1,506.446,350.638Z" transform="translate(-323.512 -197.331)" fill="#fff"/>
      <g id="Grupo_65227" data-name="Grupo 65227" transform="translate(40.087 92.739)">
        <path id="Trazado_112859" data-name="Trazado 112859" d="M375.824,310.746l-4.572-2.639c-.366-.212-.321-.582.1-.827l5.4-3.115a1.592,1.592,0,0,1,1.432-.06l4.571,2.64c.367.212.322.582-.1.826l-5.4,3.116A1.592,1.592,0,0,1,375.824,310.746Z" transform="translate(-371.005 -285.926)" fill="#5793ce"/>
        <path id="Trazado_112860" data-name="Trazado 112860" d="M384.189,315.576l-4.571-2.64c-.367-.212-.322-.582.1-.826l5.4-3.116a1.592,1.592,0,0,1,1.432-.059l4.572,2.639c.366.212.321.582-.1.827l-5.4,3.115A1.592,1.592,0,0,1,384.189,315.576Z" transform="translate(-372.31 -286.68)" fill="#5793ce"/>
        <path id="Trazado_112861" data-name="Trazado 112861" d="M392.554,320.405l-4.571-2.639c-.367-.212-.322-.582.1-.827l5.4-3.115a1.59,1.59,0,0,1,1.432-.059l4.572,2.639c.367.212.321.582-.1.827l-5.4,3.115A1.592,1.592,0,0,1,392.554,320.405Z" transform="translate(-373.614 -287.433)" fill="#5793ce"/>
        <path id="Trazado_112862" data-name="Trazado 112862" d="M404.124,316.51l-4.572-2.64c-.367-.212-.321-.582.1-.826l4.53-2.616a1.592,1.592,0,0,1,1.432-.059l4.572,2.639c.366.212.321.582-.1.827l-4.53,2.615A1.592,1.592,0,0,1,404.124,316.51Z" transform="translate(-375.418 -286.903)" fill="#5793ce"/>
        <path id="Trazado_112863" data-name="Trazado 112863" d="M412.489,321.339l-4.572-2.639c-.367-.212-.321-.582.1-.827l4.53-2.615a1.592,1.592,0,0,1,1.432-.06l4.572,2.64c.367.212.321.582-.1.826l-4.53,2.616A1.592,1.592,0,0,1,412.489,321.339Z" transform="translate(-376.723 -287.656)" fill="#5793ce"/>
        <path id="Trazado_112864" data-name="Trazado 112864" d="M420.854,326.169l-4.572-2.639c-.367-.212-.321-.582.1-.827l4.53-2.616a1.592,1.592,0,0,1,1.432-.059l4.572,2.639c.367.212.321.582-.1.827l-4.53,2.616A1.592,1.592,0,0,1,420.854,326.169Z" transform="translate(-378.028 -288.41)" fill="#5793ce"/>
        <path id="Trazado_112865" data-name="Trazado 112865" d="M429.219,331l-4.572-2.64c-.367-.212-.321-.582.1-.826l4.53-2.616a1.59,1.59,0,0,1,1.432-.059l4.572,2.639c.367.212.321.582-.1.827l-4.53,2.615A1.592,1.592,0,0,1,429.219,331Z" transform="translate(-379.332 -289.163)" fill="#5793ce"/>
        <path id="Trazado_112866" data-name="Trazado 112866" d="M437.584,335.828l-4.572-2.639c-.366-.212-.321-.582.1-.827l4.53-2.616a1.6,1.6,0,0,1,1.432-.059l4.572,2.64c.367.212.321.582-.1.826l-4.53,2.616A1.592,1.592,0,0,1,437.584,335.828Z" transform="translate(-380.637 -289.916)" fill="#5793ce"/>
        <path id="Trazado_112867" data-name="Trazado 112867" d="M445.949,340.658l-4.571-2.64c-.367-.212-.322-.582.1-.826l4.53-2.616a1.592,1.592,0,0,1,1.432-.059l4.572,2.639c.367.212.321.582-.1.827l-4.53,2.615A1.592,1.592,0,0,1,445.949,340.658Z" transform="translate(-381.942 -290.669)" fill="#5793ce"/>
        <path id="Trazado_112868" data-name="Trazado 112868" d="M454.314,345.487l-4.571-2.639c-.367-.212-.322-.582.1-.827l4.531-2.615a1.591,1.591,0,0,1,1.432-.06l4.572,2.64c.367.212.322.582-.1.826l-4.53,2.616A1.593,1.593,0,0,1,454.314,345.487Z" transform="translate(-383.246 -291.422)" fill="#5793ce"/>
        <path id="Trazado_112869" data-name="Trazado 112869" d="M462.68,350.317l-4.572-2.639c-.367-.212-.322-.582.1-.827l4.53-2.616a1.592,1.592,0,0,1,1.432-.059l4.571,2.639c.367.212.322.582-.1.827l-4.53,2.616A1.59,1.59,0,0,1,462.68,350.317Z" transform="translate(-384.551 -292.176)" fill="#5793ce"/>
        <path id="Trazado_112870" data-name="Trazado 112870" d="M471.045,355.147l-4.572-2.64c-.367-.212-.321-.582.1-.826l4.53-2.616a1.59,1.59,0,0,1,1.432-.059l4.571,2.639c.367.212.322.582-.1.827l-4.531,2.615A1.59,1.59,0,0,1,471.045,355.147Z" transform="translate(-385.855 -292.929)" fill="#5793ce"/>
        <path id="Trazado_112871" data-name="Trazado 112871" d="M479.41,359.976l-4.572-2.639c-.367-.212-.321-.582.1-.827l4.53-2.616a1.6,1.6,0,0,1,1.432-.059l4.571,2.639c.367.213.322.582-.1.827l-4.53,2.616A1.592,1.592,0,0,1,479.41,359.976Z" transform="translate(-387.16 -293.682)" fill="#5793ce"/>
        <path id="Trazado_112872" data-name="Trazado 112872" d="M416.449,314.223l-4.572-2.639c-.366-.212-.321-.582.1-.827l4.53-2.615a1.592,1.592,0,0,1,1.432-.06l4.572,2.64c.367.212.321.582-.1.826l-4.53,2.616A1.592,1.592,0,0,1,416.449,314.223Z" transform="translate(-377.341 -286.547)" fill="#5793ce"/>
        <path id="Trazado_112873" data-name="Trazado 112873" d="M407.96,309.322l-4.571-2.64c-.367-.212-.322-.582.1-.826l4.53-2.616a1.59,1.59,0,0,1,1.432-.059l4.572,2.639c.367.212.321.582-.1.827l-4.53,2.615A1.592,1.592,0,0,1,407.96,309.322Z" transform="translate(-376.017 -285.782)" fill="#5793ce"/>
        <path id="Trazado_112874" data-name="Trazado 112874" d="M398.481,303.849l-9.847-5.685c-.367-.212-.321-.582.1-.826l4.53-2.616a1.592,1.592,0,0,1,1.432-.059l9.847,5.685c.367.212.322.582-.1.827l-4.53,2.616A1.592,1.592,0,0,1,398.481,303.849Z" transform="translate(-373.716 -284.454)" fill="#5793ce"/>
        <path id="Trazado_112875" data-name="Trazado 112875" d="M404.769,298.076l-7.991-4.614c-.367-.212-.321-.582.1-.827l4.53-2.615a1.592,1.592,0,0,1,1.432-.06l7.991,4.614c.367.213.322.582-.1.827l-4.53,2.616A1.591,1.591,0,0,1,404.769,298.076Z" transform="translate(-374.986 -283.72)" fill="#5793ce"/>
        <path id="Trazado_112876" data-name="Trazado 112876" d="M424.814,319.053l-4.571-2.639c-.367-.213-.322-.582.1-.827l4.531-2.616a1.59,1.59,0,0,1,1.431-.059l4.572,2.639c.367.212.321.582-.1.827l-4.53,2.616A1.6,1.6,0,0,1,424.814,319.053Z" transform="translate(-378.645 -287.3)" fill="#5793ce"/>
        <path id="Trazado_112877" data-name="Trazado 112877" d="M433.18,323.882l-4.571-2.639c-.367-.212-.322-.582.1-.827l4.53-2.615a1.591,1.591,0,0,1,1.431-.06l4.572,2.64c.367.212.322.582-.1.826l-4.53,2.616A1.589,1.589,0,0,1,433.18,323.882Z" transform="translate(-379.95 -288.053)" fill="#5793ce"/>
        <path id="Trazado_112878" data-name="Trazado 112878" d="M441.545,328.712l-4.572-2.639c-.367-.212-.322-.582.1-.827l4.53-2.616a1.592,1.592,0,0,1,1.432-.059l4.571,2.639c.367.212.322.582-.1.827l-4.53,2.616A1.591,1.591,0,0,1,441.545,328.712Z" transform="translate(-381.255 -288.806)" fill="#5793ce"/>
        <path id="Trazado_112879" data-name="Trazado 112879" d="M449.91,333.542l-4.572-2.64c-.367-.212-.321-.582.1-.826l4.53-2.616a1.592,1.592,0,0,1,1.432-.059l4.571,2.639c.367.212.322.582-.1.827l-4.531,2.615A1.591,1.591,0,0,1,449.91,333.542Z" transform="translate(-382.559 -289.559)" fill="#5793ce"/>
        <path id="Trazado_112880" data-name="Trazado 112880" d="M458.275,338.371l-4.572-2.639c-.367-.212-.321-.582.1-.827l4.53-2.615a1.592,1.592,0,0,1,1.432-.06l4.572,2.64c.366.212.321.582-.1.826l-4.53,2.616A1.592,1.592,0,0,1,458.275,338.371Z" transform="translate(-383.864 -290.313)" fill="#5793ce"/>
        <path id="Trazado_112881" data-name="Trazado 112881" d="M466.64,343.2l-4.572-2.64c-.367-.212-.321-.582.1-.826l4.53-2.616a1.592,1.592,0,0,1,1.432-.059l4.572,2.639c.367.212.321.582-.1.827l-4.53,2.616A1.6,1.6,0,0,1,466.64,343.2Z" transform="translate(-385.168 -291.066)" fill="#5793ce"/>
        <path id="Trazado_112882" data-name="Trazado 112882" d="M475.005,348.03l-4.572-2.639c-.367-.212-.321-.582.1-.827l4.53-2.615a1.593,1.593,0,0,1,1.432-.06l4.572,2.64c.367.212.321.582-.1.826l-4.53,2.616A1.589,1.589,0,0,1,475.005,348.03Z" transform="translate(-386.473 -291.819)" fill="#5793ce"/>
        <path id="Trazado_112883" data-name="Trazado 112883" d="M483.37,352.86,478.8,350.22c-.367-.212-.321-.582.1-.827l4.53-2.616a1.592,1.592,0,0,1,1.432-.059l4.572,2.639c.367.212.321.582-.1.827L484.8,352.8A1.592,1.592,0,0,1,483.37,352.86Z" transform="translate(-387.778 -292.572)" fill="#5793ce"/>
        <path id="Trazado_112884" data-name="Trazado 112884" d="M491.735,357.69l-4.572-2.64c-.366-.212-.321-.582.1-.826l4.53-2.616a1.592,1.592,0,0,1,1.432-.059l4.572,2.639c.367.212.321.582-.1.827l-4.53,2.615A1.592,1.592,0,0,1,491.735,357.69Z" transform="translate(-389.082 -293.326)" fill="#5793ce"/>
        <path id="Trazado_112885" data-name="Trazado 112885" d="M505.608,365.7l-9.975-5.76c-.367-.212-.322-.582.1-.827l4.531-2.615a1.591,1.591,0,0,1,1.431-.06l9.976,5.76c.367.212.322.582-.1.827l-4.53,2.615A1.592,1.592,0,0,1,505.608,365.7Z" transform="translate(-390.403 -294.088)" fill="#5793ce"/>
        <path id="Trazado_112886" data-name="Trazado 112886" d="M522.182,356.462l-8.419-4.861c-.367-.213-.322-.582.1-.827l4.53-2.616a1.59,1.59,0,0,1,1.431-.059l8.42,4.861c.367.212.321.582-.1.827l-4.53,2.616A1.592,1.592,0,0,1,522.182,356.462Z" transform="translate(-393.231 -292.788)" fill="#5793ce"/>
        <path id="Trazado_112887" data-name="Trazado 112887" d="M439.464,318.108l-4.571-2.639c-.367-.213-.322-.582.1-.827l4.53-2.616a1.591,1.591,0,0,1,1.432-.059l4.572,2.639c.367.212.322.582-.1.827l-4.53,2.616A1.592,1.592,0,0,1,439.464,318.108Z" transform="translate(-380.93 -287.152)" fill="#5793ce"/>
        <path id="Trazado_112888" data-name="Trazado 112888" d="M430.891,313.158l-4.571-2.639c-.367-.212-.322-.582.1-.827l4.53-2.616a1.6,1.6,0,0,1,1.432-.059l4.572,2.64c.367.212.321.582-.1.826l-4.53,2.616A1.592,1.592,0,0,1,430.891,313.158Z" transform="translate(-379.593 -286.38)" fill="#5793ce"/>
        <path id="Trazado_112889" data-name="Trazado 112889" d="M422.317,308.208l-4.572-2.639c-.367-.212-.321-.582.1-.827l4.53-2.615a1.593,1.593,0,0,1,1.432-.06l4.572,2.64c.367.212.321.582-.1.826l-4.53,2.616A1.59,1.59,0,0,1,422.317,308.208Z" transform="translate(-378.256 -285.608)" fill="#5793ce"/>
        <path id="Trazado_112890" data-name="Trazado 112890" d="M413.744,303.259l-4.572-2.64c-.367-.212-.321-.582.1-.826l4.53-2.616a1.592,1.592,0,0,1,1.432-.059l4.572,2.639c.367.212.321.582-.1.827l-4.53,2.615A1.593,1.593,0,0,1,413.744,303.259Z" transform="translate(-376.919 -284.837)" fill="#5793ce"/>
        <path id="Trazado_112891" data-name="Trazado 112891" d="M447.829,322.938l-4.572-2.64c-.367-.212-.322-.582.1-.826l4.53-2.616a1.592,1.592,0,0,1,1.432-.06l4.571,2.64c.367.212.322.582-.1.826l-4.53,2.616A1.591,1.591,0,0,1,447.829,322.938Z" transform="translate(-382.235 -287.906)" fill="#5793ce"/>
        <path id="Trazado_112892" data-name="Trazado 112892" d="M456.194,327.767l-4.572-2.639c-.367-.212-.321-.582.1-.827l4.53-2.616a1.592,1.592,0,0,1,1.432-.059l4.571,2.639c.367.213.322.582-.1.827l-4.531,2.616A1.59,1.59,0,0,1,456.194,327.767Z" transform="translate(-383.539 -288.659)" fill="#5793ce"/>
        <path id="Trazado_112893" data-name="Trazado 112893" d="M464.559,332.6l-4.572-2.64c-.367-.212-.321-.582.1-.826l4.53-2.616a1.592,1.592,0,0,1,1.432-.059l4.572,2.639c.366.212.321.582-.1.827l-4.53,2.615A1.593,1.593,0,0,1,464.559,332.6Z" transform="translate(-384.844 -289.412)" fill="#5793ce"/>
        <path id="Trazado_112894" data-name="Trazado 112894" d="M472.924,337.426l-4.572-2.639c-.367-.212-.321-.582.1-.827l4.53-2.615a1.593,1.593,0,0,1,1.432-.06l4.572,2.64c.367.212.321.582-.1.826l-4.53,2.616A1.592,1.592,0,0,1,472.924,337.426Z" transform="translate(-386.148 -290.165)" fill="#5793ce"/>
        <path id="Trazado_112895" data-name="Trazado 112895" d="M481.289,342.256l-4.572-2.639c-.367-.213-.321-.582.1-.827l4.53-2.616a1.592,1.592,0,0,1,1.432-.059l4.572,2.639c.367.212.321.582-.1.827l-4.53,2.616A1.592,1.592,0,0,1,481.289,342.256Z" transform="translate(-387.453 -290.918)" fill="#5793ce"/>
        <path id="Trazado_112896" data-name="Trazado 112896" d="M489.654,347.086l-4.572-2.64c-.367-.212-.321-.582.1-.827l4.53-2.615a1.593,1.593,0,0,1,1.432-.06l4.572,2.64c.367.212.321.582-.1.826l-4.53,2.616A1.592,1.592,0,0,1,489.654,347.086Z" transform="translate(-388.758 -291.672)" fill="#5793ce"/>
        <path id="Trazado_112897" data-name="Trazado 112897" d="M498.019,351.915l-4.572-2.639c-.366-.212-.321-.582.1-.827l4.53-2.616a1.592,1.592,0,0,1,1.432-.059l4.572,2.639c.367.213.321.582-.1.827l-4.53,2.616A1.592,1.592,0,0,1,498.019,351.915Z" transform="translate(-390.062 -292.425)" fill="#5793ce"/>
        <path id="Trazado_112898" data-name="Trazado 112898" d="M506.384,356.745l-4.571-2.64c-.367-.212-.322-.582.1-.826l4.53-2.616a1.592,1.592,0,0,1,1.432-.059l4.572,2.639c.367.212.321.582-.1.827l-4.53,2.615A1.592,1.592,0,0,1,506.384,356.745Z" transform="translate(-391.367 -293.178)" fill="#5793ce"/>
        <path id="Trazado_112899" data-name="Trazado 112899" d="M514.75,361.574l-4.571-2.639c-.367-.212-.322-.582.1-.827l4.531-2.615a1.591,1.591,0,0,1,1.432-.06l4.572,2.64c.367.212.322.582-.1.826l-4.53,2.616A1.592,1.592,0,0,1,514.75,361.574Z" transform="translate(-392.672 -293.931)" fill="#5793ce"/>
        <path id="Trazado_112900" data-name="Trazado 112900" d="M435.059,306.162l-4.572-2.639c-.367-.212-.321-.582.1-.827l4.53-2.615a1.592,1.592,0,0,1,1.432-.06l4.571,2.64c.367.212.322.582-.1.826l-4.53,2.616A1.592,1.592,0,0,1,435.059,306.162Z" transform="translate(-380.243 -285.289)" fill="#5793ce"/>
        <path id="Trazado_112901" data-name="Trazado 112901" d="M426.735,301.357l-4.572-2.64c-.366-.212-.321-.582.1-.826l4.53-2.616a1.592,1.592,0,0,1,1.432-.059l4.572,2.639c.367.212.321.582-.1.827l-4.53,2.615A1.592,1.592,0,0,1,426.735,301.357Z" transform="translate(-378.945 -284.54)" fill="#5793ce"/>
        <path id="Trazado_112902" data-name="Trazado 112902" d="M418.412,296.551l-4.572-2.639c-.367-.212-.321-.582.1-.827l4.53-2.616a1.592,1.592,0,0,1,1.432-.059l4.571,2.639c.367.213.322.582-.1.827l-4.53,2.616A1.592,1.592,0,0,1,418.412,296.551Z" transform="translate(-377.647 -283.79)" fill="#5793ce"/>
        <path id="Trazado_112903" data-name="Trazado 112903" d="M410.088,291.746l-4.572-2.64c-.366-.212-.321-.582.1-.826l4.53-2.616a1.592,1.592,0,0,1,1.432-.06l4.572,2.64c.367.212.321.582-.1.826l-4.53,2.616A1.592,1.592,0,0,1,410.088,291.746Z" transform="translate(-376.349 -283.041)" fill="#5793ce"/>
        <path id="Trazado_112904" data-name="Trazado 112904" d="M418.647,287.127l-4.571-2.639c-.367-.213-.322-.582.1-.827l1.5-.864a1.591,1.591,0,0,1,1.432-.06l4.572,2.64c.367.212.322.582-.1.826l-1.5.865A1.592,1.592,0,0,1,418.647,287.127Z" transform="translate(-377.684 -282.594)" fill="#5793ce"/>
        <path id="Trazado_112905" data-name="Trazado 112905" d="M429.509,293.4l-4.571-2.639c-.367-.212-.322-.582.1-.827l1.5-.864a1.592,1.592,0,0,1,1.432-.06l4.571,2.64c.367.212.322.582-.1.827l-1.5.864A1.592,1.592,0,0,1,429.509,293.4Z" transform="translate(-379.378 -283.572)" fill="#5793ce"/>
        <path id="Trazado_112906" data-name="Trazado 112906" d="M437.8,298.184l-4.571-2.64c-.367-.212-.322-.582.1-.826l1.5-.865a1.59,1.59,0,0,1,1.431-.059l4.572,2.639c.367.213.322.582-.1.827l-1.5.864A1.592,1.592,0,0,1,437.8,298.184Z" transform="translate(-380.67 -284.318)" fill="#5793ce"/>
        <path id="Trazado_112907" data-name="Trazado 112907" d="M446.087,302.969l-4.572-2.639c-.367-.212-.321-.582.1-.827l1.5-.864a1.59,1.59,0,0,1,1.432-.059l4.572,2.639c.367.212.321.582-.1.827l-1.5.864A1.592,1.592,0,0,1,446.087,302.969Z" transform="translate(-381.963 -285.065)" fill="#5793ce"/>
        <path id="Trazado_112908" data-name="Trazado 112908" d="M454.376,307.755l-4.572-2.64c-.367-.212-.321-.582.1-.826l1.5-.865a1.6,1.6,0,0,1,1.432-.059l4.572,2.64c.367.212.321.582-.1.826l-1.5.865A1.6,1.6,0,0,1,454.376,307.755Z" transform="translate(-383.256 -285.811)" fill="#5793ce"/>
        <path id="Trazado_112909" data-name="Trazado 112909" d="M500.651,334.472l-4.572-2.64c-.367-.212-.321-.582.1-.826l1.5-.865a1.592,1.592,0,0,1,1.432-.059l4.572,2.639c.367.213.321.582-.1.827l-1.5.864A1.592,1.592,0,0,1,500.651,334.472Z" transform="translate(-390.473 -289.978)" fill="#5793ce"/>
        <path id="Trazado_112910" data-name="Trazado 112910" d="M508.94,339.257l-4.572-2.639c-.367-.212-.321-.582.1-.827l1.5-.864a1.592,1.592,0,0,1,1.432-.059l4.572,2.639c.367.212.321.582-.1.827l-1.5.864A1.592,1.592,0,0,1,508.94,339.257Z" transform="translate(-391.766 -290.724)" fill="#5793ce"/>
        <path id="Trazado_112911" data-name="Trazado 112911" d="M517.229,344.043l-4.572-2.639c-.367-.213-.322-.582.1-.827l1.5-.864a1.593,1.593,0,0,1,1.432-.06l4.571,2.64c.367.212.322.582-.1.826l-1.5.865A1.593,1.593,0,0,1,517.229,344.043Z" transform="translate(-393.058 -291.47)" fill="#5793ce"/>
        <path id="Trazado_112912" data-name="Trazado 112912" d="M525.517,348.828l-4.571-2.639c-.367-.212-.322-.582.1-.827l1.5-.864a1.592,1.592,0,0,1,1.432-.059l4.571,2.639c.367.212.322.582-.1.827l-1.5.864A1.59,1.59,0,0,1,525.517,348.828Z" transform="translate(-394.351 -292.217)" fill="#5793ce"/>
        <path id="Trazado_112913" data-name="Trazado 112913" d="M443.424,310.992l-4.572-2.64c-.367-.212-.321-.582.1-.826l4.53-2.616a1.592,1.592,0,0,1,1.432-.059l4.572,2.639c.366.212.321.582-.1.827l-4.53,2.615A1.592,1.592,0,0,1,443.424,310.992Z" transform="translate(-381.548 -286.043)" fill="#5793ce"/>
        <path id="Trazado_112914" data-name="Trazado 112914" d="M451.789,315.821l-4.572-2.639c-.367-.212-.321-.582.1-.827l4.53-2.615a1.592,1.592,0,0,1,1.432-.06l4.572,2.64c.367.212.321.582-.1.826l-4.53,2.616A1.59,1.59,0,0,1,451.789,315.821Z" transform="translate(-382.852 -286.796)" fill="#5793ce"/>
        <path id="Trazado_112915" data-name="Trazado 112915" d="M460.154,320.651l-4.572-2.639c-.367-.212-.321-.582.1-.827l4.53-2.616a1.592,1.592,0,0,1,1.432-.059l4.572,2.639c.367.212.321.582-.1.827l-4.53,2.616A1.592,1.592,0,0,1,460.154,320.651Z" transform="translate(-384.157 -287.549)" fill="#5793ce"/>
        <path id="Trazado_112916" data-name="Trazado 112916" d="M468.519,325.481l-4.572-2.64c-.367-.212-.321-.582.1-.826l4.53-2.616a1.59,1.59,0,0,1,1.432-.059l4.572,2.639c.367.212.321.582-.1.827l-4.53,2.615A1.592,1.592,0,0,1,468.519,325.481Z" transform="translate(-385.461 -288.302)" fill="#5793ce"/>
        <path id="Trazado_112917" data-name="Trazado 112917" d="M476.884,330.31l-4.572-2.639c-.366-.212-.321-.582.1-.827l4.53-2.616a1.6,1.6,0,0,1,1.432-.059l4.572,2.64c.367.212.321.582-.1.826l-4.53,2.616A1.592,1.592,0,0,1,476.884,330.31Z" transform="translate(-386.766 -289.055)" fill="#5793ce"/>
        <path id="Trazado_112918" data-name="Trazado 112918" d="M485.25,335.14l-4.571-2.64c-.367-.212-.322-.582.1-.826l4.531-2.616a1.59,1.59,0,0,1,1.431-.059l4.572,2.639c.367.212.321.582-.1.827l-4.53,2.615A1.592,1.592,0,0,1,485.25,335.14Z" transform="translate(-388.071 -289.809)" fill="#5793ce"/>
        <path id="Trazado_112919" data-name="Trazado 112919" d="M493.615,339.969l-4.571-2.639c-.367-.212-.322-.582.1-.827l4.53-2.615a1.591,1.591,0,0,1,1.431-.06l4.572,2.64c.367.212.322.582-.1.826l-4.53,2.616A1.592,1.592,0,0,1,493.615,339.969Z" transform="translate(-389.375 -290.562)" fill="#5793ce"/>
        <path id="Trazado_112920" data-name="Trazado 112920" d="M501.98,344.8l-4.572-2.639c-.367-.212-.322-.582.1-.827l4.53-2.616a1.592,1.592,0,0,1,1.432-.059l4.571,2.639c.367.212.322.582-.1.827l-4.53,2.616A1.59,1.59,0,0,1,501.98,344.8Z" transform="translate(-390.68 -291.315)" fill="#5793ce"/>
        <path id="Trazado_112921" data-name="Trazado 112921" d="M510.345,349.629l-4.572-2.64c-.367-.212-.321-.582.1-.826l4.53-2.616a1.59,1.59,0,0,1,1.432-.059l4.571,2.639c.367.212.322.582-.1.827l-4.531,2.615A1.591,1.591,0,0,1,510.345,349.629Z" transform="translate(-391.985 -292.068)" fill="#5793ce"/>
        <path id="Trazado_112922" data-name="Trazado 112922" d="M393.956,310.639l-13.465-7.774c-.367-.212-.321-.582.1-.827l4.53-2.616a1.592,1.592,0,0,1,1.432-.059l13.465,7.774c.367.213.321.582-.1.827l-4.53,2.616A1.592,1.592,0,0,1,393.956,310.639Z" transform="translate(-372.446 -285.187)" fill="#5793ce"/>
        <path id="Trazado_112923" data-name="Trazado 112923" d="M496.723,369.972,483.259,362.2c-.367-.212-.322-.582.1-.826l4.531-2.616a1.59,1.59,0,0,1,1.431-.059l13.465,7.774c.367.212.322.582-.1.827l-4.53,2.616A1.6,1.6,0,0,1,496.723,369.972Z" transform="translate(-388.473 -294.44)" fill="#5793ce"/>
        <path id="Trazado_112924" data-name="Trazado 112924" d="M464.913,362.182l-4.571-2.64c-.367-.212-.322-.582.1-.826l5.4-3.116a1.592,1.592,0,0,1,1.432-.059l4.572,2.639c.366.212.321.582-.1.827l-5.4,3.115A1.592,1.592,0,0,1,464.913,362.182Z" transform="translate(-384.899 -293.948)" fill="#5793ce"/>
        <path id="Trazado_112925" data-name="Trazado 112925" d="M403.66,326.817l-7.312-4.222c-.367-.212-.322-.582.1-.826l5.4-3.116a1.6,1.6,0,0,1,1.432-.059l7.312,4.222c.367.212.321.582-.1.826l-5.4,3.116A1.59,1.59,0,0,1,403.66,326.817Z" transform="translate(-374.919 -288.186)" fill="#5793ce"/>
        <path id="Trazado_112926" data-name="Trazado 112926" d="M456.347,357.236l-7.312-4.221c-.366-.212-.321-.582.1-.827l5.4-3.115a1.593,1.593,0,0,1,1.432-.06l7.312,4.222c.367.212.321.582-.1.827l-5.4,3.115A1.592,1.592,0,0,1,456.347,357.236Z" transform="translate(-383.136 -292.93)" fill="#5793ce"/>
        <path id="Trazado_112927" data-name="Trazado 112927" d="M415.729,333.785l-7.312-4.221c-.367-.213-.322-.582.1-.827l5.4-3.115a1.592,1.592,0,0,1,1.432-.06l7.312,4.222c.367.212.321.582-.1.826l-5.4,3.116A1.592,1.592,0,0,1,415.729,333.785Z" transform="translate(-376.801 -289.273)" fill="#5793ce"/>
        <path id="Trazado_112928" data-name="Trazado 112928" d="M415.453,325.622l31.79,18.354a.435.435,0,0,1,0,.825l-5.5,3.178a1.579,1.579,0,0,1-1.429,0l-31.789-18.355Z" transform="translate(-376.856 -289.304)" fill="#5793ce"/>
        <path id="Trazado_112929" data-name="Trazado 112929" d="M488.505,372.17l5.093,2.941c.3.174.263.477-.084.678l-2.207,1.274a1.306,1.306,0,0,1-1.174.048l-5.093-2.94c-.3-.174-.263-.477.084-.678l2.208-1.274A1.3,1.3,0,0,1,488.505,372.17Z" transform="translate(-388.758 -296.546)" fill="#5793ce"/>
        <path id="Trazado_112930" data-name="Trazado 112930" d="M480.071,367.3l5.093,2.94c.3.174.262.478-.084.678l-2.208,1.275a1.3,1.3,0,0,1-1.174.049l-5.092-2.941c-.3-.174-.263-.477.084-.678l2.207-1.275A1.306,1.306,0,0,1,480.071,367.3Z" transform="translate(-387.443 -295.786)" fill="#5793ce"/>
        <path id="Trazado_112931" data-name="Trazado 112931" d="M471.706,362.471l5.093,2.941c.3.173.262.477-.084.678l-2.208,1.275a1.306,1.306,0,0,1-1.174.048l-5.092-2.94c-.3-.174-.263-.478.084-.678l2.207-1.275A1.3,1.3,0,0,1,471.706,362.471Z" transform="translate(-386.138 -295.033)" fill="#5793ce"/>
        <path id="Trazado_112932" data-name="Trazado 112932" d="M484.69,364.634l5.093,2.94c.3.174.263.477-.084.678l-2.207,1.275a1.3,1.3,0,0,1-1.174.049l-5.093-2.941c-.3-.174-.263-.477.084-.678l2.207-1.275A1.306,1.306,0,0,1,484.69,364.634Z" transform="translate(-388.163 -295.37)" fill="#5793ce"/>
      </g>
      <g id="Grupo_65228" data-name="Grupo 65228" transform="translate(107.201 29.83)">
        <path id="Trazado_112933" data-name="Trazado 112933" d="M511.384,265.9l-38.031-21.957.489-2.472,38.031,21.957Z" transform="translate(-454.081 -213.273)" fill="#d4ecff"/>
        <path id="Trazado_112934" data-name="Trazado 112934" d="M497.368,272.071,470.82,256.744l.489-2.472L497.858,269.6Z" transform="translate(-453.686 -215.269)" fill="#d4ecff"/>
        <path id="Trazado_112935" data-name="Trazado 112935" d="M495.054,263.6l-22.967-13.26.489-2.472,22.967,13.26Z" transform="translate(-453.884 -214.271)" fill="#fff"/>
        <path id="Trazado_112936" data-name="Trazado 112936" d="M515.023,275.134,503.54,268.5l.489-2.472,11.483,6.63Z" transform="translate(-458.789 -217.103)" fill="#bb83ff"/>
        <path id="Trazado_112937" data-name="Trazado 112937" d="M466.433,217.164l-11.484-6.63.489-2.472,11.483,6.63Z" transform="translate(-451.211 -208.062)" fill="#d4ecff"/>
        <path id="Trazado_112938" data-name="Trazado 112938" d="M464.956,223.972l-11.483-6.63.489-2.472,11.483,6.63Z" transform="translate(-450.981 -209.123)" fill="#fff"/>
        <path id="Trazado_112939" data-name="Trazado 112939" d="M531.733,318.395l-11.484-6.63.489-2.472,11.484,6.63Z" transform="translate(-461.395 -223.85)" fill="#d4ecff"/>
        <path id="Trazado_112940" data-name="Trazado 112940" d="M462,237.587l-11.484-6.63.489-2.472,11.483,6.63Z" transform="translate(-450.52 -211.247)" fill="#d4ecff"/>
      </g>
      <g id="Grupo_65229" data-name="Grupo 65229" transform="translate(140.543 55.484)">
        <path id="Trazado_112941" data-name="Trazado 112941" d="M492.976,240.921a1.433,1.433,0,0,1-2.065.636,1.8,1.8,0,0,1-.739-2.255,1.433,1.433,0,0,1,2.065-.636A1.8,1.8,0,0,1,492.976,240.921Z" transform="translate(-490.023 -238.455)" fill="#bb83ff"/>
        <path id="Trazado_112942" data-name="Trazado 112942" d="M498.836,244.305a1.432,1.432,0,0,1-2.065.636,1.8,1.8,0,0,1-.739-2.254,1.433,1.433,0,0,1,2.065-.636A1.8,1.8,0,0,1,498.836,244.305Z" transform="translate(-490.937 -238.983)" fill="#fff"/>
        <path id="Trazado_112943" data-name="Trazado 112943" d="M504.7,247.688a1.433,1.433,0,0,1-2.065.636,1.8,1.8,0,0,1-.739-2.255,1.432,1.432,0,0,1,2.065-.636A1.8,1.8,0,0,1,504.7,247.688Z" transform="translate(-491.851 -239.511)" fill="#d4ecff"/>
        <path id="Trazado_112944" data-name="Trazado 112944" d="M510.556,251.072a1.433,1.433,0,0,1-2.065.636,1.8,1.8,0,0,1-.739-2.254,1.433,1.433,0,0,1,2.065-.636A1.8,1.8,0,0,1,510.556,251.072Z" transform="translate(-492.765 -240.038)" fill="#bb83ff"/>
      </g>
      <path id="Trazado_112945" data-name="Trazado 112945" d="M405.933,365.7l-28.759-16.6c-.836-.484-.732-1.328.235-1.886l17.355-10.02a3.63,3.63,0,0,1,3.266-.135l28.759,16.6c.836.484.732,1.328-.235,1.886L409.2,365.56A3.628,3.628,0,0,1,405.933,365.7Z" transform="translate(-331.792 -198.297)" fill="#fff"/>
    </g>
    <g id="Grupo_65235" data-name="Grupo 65235" transform="translate(330.372 248.316)">
      <g id="Grupo_65234" data-name="Grupo 65234">
        <g id="Grupo_65233" data-name="Grupo 65233">
          <g id="Grupo_65231" data-name="Grupo 65231" transform="translate(9.488 8.028)">
            <rect id="Rect치ngulo_6659" data-name="Rect치ngulo 6659" width="5.49" height="11.848" transform="translate(12.651 7.488) rotate(129.2)" fill="#5793ce"/>
            <path id="Trazado_112946" data-name="Trazado 112946" d="M384.243,290.889a4.292,4.292,0,0,0,2.454-3.009c.2-1.222-.58-1.856-1.737-1.416a4.29,4.29,0,0,0-2.454,3.008C382.309,290.694,383.086,291.328,384.243,290.889Z" transform="translate(-373.686 -279.06)" fill="#5793ce"/>
          </g>
          <g id="Grupo_65232" data-name="Grupo 65232">
            <rect id="Rect치ngulo_6660" data-name="Rect치ngulo 6660" width="8.897" height="12.102" transform="translate(15.639 8.016) rotate(129.199)" fill="#5793ce"/>
            <path id="Trazado_112947" data-name="Trazado 112947" d="M377.321,279.178l3.107,2.534a7.1,7.1,0,0,1-3.47,4.255l-3.107-2.534A7.1,7.1,0,0,1,377.321,279.178Z" transform="translate(-362.852 -269.918)" fill="#396caa"/>
            <path id="Trazado_112948" data-name="Trazado 112948" d="M374.8,284.669a6.952,6.952,0,0,0,3.975-4.875c.321-1.98-.939-3.007-2.815-2.295a6.954,6.954,0,0,0-3.975,4.875C371.665,284.355,372.925,285.382,374.8,284.669Z" transform="translate(-362.554 -269.621)" fill="#5793ce"/>
            <path id="Trazado_112949" data-name="Trazado 112949" d="M363.685,275.6a6.953,6.953,0,0,0,3.976-4.875c.321-1.98-.939-3.008-2.815-2.3a6.953,6.953,0,0,0-3.976,4.875C360.549,275.289,361.809,276.317,363.685,275.6Z" transform="translate(-360.82 -268.207)" fill="#5793ce"/>
            <path id="Trazado_112950" data-name="Trazado 112950" d="M364.214,274.353a3.932,3.932,0,0,0,2.249-2.757c.181-1.12-.532-1.7-1.593-1.3a3.932,3.932,0,0,0-2.249,2.758C362.44,274.175,363.153,274.756,364.214,274.353Z" transform="translate(-361.097 -268.513)" fill="#d4ecff"/>
          </g>
        </g>
      </g>
      <path id="Trazado_112951" data-name="Trazado 112951" d="M384.48,287.186c.45.367.89.2.982-.374a2.013,2.013,0,0,0-.647-1.7c-.45-.367-.89-.2-.983.374A2.011,2.011,0,0,0,384.48,287.186Z" transform="translate(-364.406 -270.813)" fill="#d4ecff"/>
    </g>
    <path id="Trazado_112952" data-name="Trazado 112952" d="M271.795,376.4A9.275,9.275,0,0,1,267,375.045l-6.5-3.847a.734.734,0,0,1,.749-1.264l6.5,3.851a7.821,7.821,0,0,0,11.838-7.255l-.138-1.959c-2.281-32.073-6.527-91.773,18.634-98.211a196.135,196.135,0,0,0,18.934-5.892c12.911-4.621,13.8-4.367,31.6,9.076a.733.733,0,1,1-.884,1.171c-17.681-13.353-17.916-13.27-30.22-8.865a197.532,197.532,0,0,1-19.063,5.931c-23.974,6.136-19.785,65.041-17.534,96.687l.139,1.959a9.143,9.143,0,0,1-4.41,8.578A9.246,9.246,0,0,1,271.795,376.4Z" transform="translate(-14.748 -18.262)" fill="#5793ce"/>
    <g id="Grupo_65237" data-name="Grupo 65237" transform="translate(276.274 237.538)">
      <ellipse id="Elipse_4852" data-name="Elipse 4852" cx="23.801" cy="13.742" rx="23.801" ry="13.742" transform="translate(6.328 105.013)" fill="#173d7a" opacity="0.5"/>
      <g id="Grupo_65236" data-name="Grupo 65236" transform="translate(13.939 12.629)">
        <path id="Trazado_112953" data-name="Trazado 112953" d="M344.088,388.373a3.676,3.676,0,0,1,2.073,3.673,6.187,6.187,0,0,1-.3,1.8,3.022,3.022,0,0,1-4.056,1.242c-2.232-.882-7.187-5.539-7.373-8.586C334.084,380.837,340.558,386.866,344.088,388.373Z" transform="translate(-316.543 -288.136)" fill="#173d7a"/>
        <path id="Trazado_112954" data-name="Trazado 112954" d="M327.674,399.457s.535,3.265.275,3.862a4.2,4.2,0,0,1-4.107,1.6c-2.294-.276-8.9-2.552-10.366-6.9-2.28-6.745,12.742.506,12.742.506Z" transform="translate(-313.241 -289.855)" fill="#173d7a"/>
        <path id="Trazado_112955" data-name="Trazado 112955" d="M322.6,337.869l-.511,50.96a3.569,3.569,0,0,0,2.776,3.532q.289.049.62.078a3.172,3.172,0,0,0,3.028-1.253,3.74,3.74,0,0,0,.681-2.057l.651-21.754,3.248-19.45,4.493,34.424a2.977,2.977,0,0,0,1.235,2.267,3.446,3.446,0,0,0,2.048.555,3.767,3.767,0,0,0,2.725-1.341,2.732,2.732,0,0,0,.65-1.843l-1.781-20.713-.663-26.419Z" transform="translate(-314.622 -280.452)" fill="#d4ecff"/>
        <path id="Trazado_112956" data-name="Trazado 112956" d="M329.77,284.383l.805,4.643a2.127,2.127,0,0,1-1.739,2.023c-1.769.439-2.316-.7-2.316-.7l-.8-5.23Z" transform="translate(-315.187 -272.581)" fill="#ffc2b0"/>
        <path id="Trazado_112957" data-name="Trazado 112957" d="M318.885,282.341c2.955,2.944,7.469,3.19,10.081.549s2.334-7.168-.622-10.111-7.47-3.19-10.081-.549S315.929,279.4,318.885,282.341Z" transform="translate(-313.745 -270.4)" fill="#ffc2b0"/>
        <path id="Trazado_112958" data-name="Trazado 112958" d="M328.676,289.6c.123-.05,7.506-4.8,10.235.171,4.45,8.111,4.187,34.222,2.783,37.6-1.3,3.131-4.548,5.438-6.823,6.738a13.618,13.618,0,0,1-6.622,1.884c-2.308.019-6.731-2.032-6.571-5.048.739-13.872-.488-25.564-1.621-36.91C320.057,294.036,321.473,292.513,328.676,289.6Z" transform="translate(-314.304 -273.067)" fill="#5793ce"/>
        <path id="Trazado_112959" data-name="Trazado 112959" d="M335.131,350.341l4.493,34.425a2.979,2.979,0,0,0,1.235,2.266,3.327,3.327,0,0,0,.384.217c-.933-.7-3.656-29.595-4.16-32.809S335.131,350.341,335.131,350.341Z" transform="translate(-316.655 -282.867)" fill="#396caa"/>
      </g>
      <path id="Trazado_112960" data-name="Trazado 112960" d="M301.557,289.208l-4.012-13.139,2.119-.878,4.729,10.3Z" transform="translate(-296.854 -258.518)" fill="#ffc2b0"/>
      <path id="Trazado_112961" data-name="Trazado 112961" d="M349.211,277,346.2,263.322l-2.395.026.9,11.345Z" transform="translate(-304.069 -256.667)" fill="#ffc2b0"/>
      <path id="Trazado_112962" data-name="Trazado 112962" d="M317.279,293.843s-7.207,1.438-11.791-6.954a1.139,1.139,0,0,0-1.9-.2c-.735,1.12-1.709,2.835-1.2,4.689,2.232,8.2,14.349,10.015,16.525,14.772S317.279,293.843,317.279,293.843Z" transform="translate(-297.586 -260.245)" fill="#5793ce"/>
      <path id="Trazado_112963" data-name="Trazado 112963" d="M335.816,286.04s5.708.439,6.53-4.5a37.769,37.769,0,0,0,.574-4.939,1,1,0,0,1,1.119-.968c1.367.17,3.483.577,3.77,1.494.429,1.367,1.235,8.077-4.4,18.371C339.713,302.24,335.816,286.04,335.816,286.04Z" transform="translate(-302.822 -258.586)" fill="#5793ce"/>
      <path id="Trazado_112964" data-name="Trazado 112964" d="M345.588,262.126l-.054-1.56a3.209,3.209,0,0,0-.467-1.557l-1.581-2.6-.413-.52a1.2,1.2,0,0,0-1.58-.27l-.364.229a1.494,1.494,0,0,0-.695,1.361l.817,2.22-1.034-.2a.367.367,0,0,0-.431.3h0a.367.367,0,0,0,.224.405l1.689.682,1.534,2.171Z" transform="translate(-303.441 -255.438)" fill="#ffc2b0"/>
      <path id="Trazado_112965" data-name="Trazado 112965" d="M297.359,274.921l-.479-1.486a3.21,3.21,0,0,1-.09-1.623l.605-2.98.212-.629a1.2,1.2,0,0,1,1.394-.79l.419.091a1.5,1.5,0,0,1,1.116,1.043l-.015,2.366.9-.54a.367.367,0,0,1,.506.132h0a.368.368,0,0,1-.073.457l-1.357,1.215-.793,2.881Z" transform="translate(-296.726 -257.301)" fill="#ffc2b0"/>
      <path id="Trazado_112966" data-name="Trazado 112966" d="M321.251,305.645c.658,3-1.187,26.26,4.815,32.019-2.308.019-6.731-2.032-6.571-5.048a184.27,184.27,0,0,0-.55-25.509c-2.353-3.05-8.828-4.991-12.879-8.9C306.362,298.3,320.6,302.678,321.251,305.645Z" transform="translate(-298.183 -262.108)" fill="#396caa"/>
      <path id="Trazado_112967" data-name="Trazado 112967" d="M332.092,288.236l-1.026-1.052a8.352,8.352,0,0,1-3.041,2.021,15.786,15.786,0,0,1-2.427.5l-.659,1.82S330.308,291.142,332.092,288.236Z" transform="translate(-301.126 -260.389)" fill="#fff"/>
      <path id="Trazado_112968" data-name="Trazado 112968" d="M322.593,279.929a.864.864,0,0,1-.8,0c-.436-.23-1.144-1.965-2.052-1.837-1.42.2-3.475,3.18-6.035-.978-1.33-2.162-.55-3.328-1.2-4.554,0,0,.228.666,5.8-2.736s10.128.744,11.541,3.115,2.33,7-1.328,9.615c-.606.433-4.509-.34-4.589-.667s.965-.852.375-1.618A1.226,1.226,0,0,0,322.593,279.929Z" transform="translate(-299.188 -257.481)" fill="#173d7a"/>
    </g>
    <path id="Trazado_112969" data-name="Trazado 112969" d="M255.2,388.643a.733.733,0,0,1-.373-.1L215.586,365.3a.734.734,0,0,1,.747-1.263l39.24,23.237a.733.733,0,0,1-.375,1.365Z" transform="translate(-7.742 -34.821)" fill="#5793ce"/>
    <g id="Grupo_65257" data-name="Grupo 65257" transform="translate(165.588 182.971)">
      <g id="Grupo_65249" data-name="Grupo 65249">
        <g id="Grupo_65240" data-name="Grupo 65240">
          <path id="Trazado_112970" data-name="Trazado 112970" d="M165.6,329.869h0V223.762l42.183-11.04,7.77-4.486a7.73,7.73,0,0,1,6.957.289l7.249,4.185,22.5-.013-6.662,102.431a2.018,2.018,0,0,1-1.2,1.865l-42.1,31.763a7.735,7.735,0,0,1-6.957-.289l-28.053-16.2A2.754,2.754,0,0,1,165.6,329.869Z" transform="translate(-165.588 -193.401)" fill="#396caa"/>
          <path id="Trazado_112971" data-name="Trazado 112971" d="M224.871,207.547a8.015,8.015,0,0,1,3.729.978l7.249,4.185,22.5-.013V319.09a2.015,2.015,0,0,1-1.2,1.864l-48.758,27.8a6.3,6.3,0,0,1-3.228.69l-.5-107.057Z" transform="translate(-171.682 -193.402)" fill="#d4ecff"/>
          <path id="Trazado_112972" data-name="Trazado 112972" d="M207.528,355.179a7.921,7.921,0,0,1-5.561-.063V247.327h5.561Z" transform="translate(-171.261 -199.606)" fill="#5793ce"/>
          <path id="Trazado_112973" data-name="Trazado 112973" d="M202.3,239.787l48.758-27.8c1.783-1.03,1.56-2.828-.5-4.017l-28.054-16.2a7.732,7.732,0,0,0-6.957-.288l-48.758,27.8c-1.783,1.03-1.56,2.828.5,4.017l28.053,16.2A7.73,7.73,0,0,0,202.3,239.787Z" transform="translate(-165.588 -190.788)" fill="#d4ecff"/>
          <path id="Trazado_112974" data-name="Trazado 112974" d="M167.292,224.735l28.053,16.2a7.735,7.735,0,0,0,6.957.289l48.758-27.8a2.677,2.677,0,0,0,.89-.789,1.87,1.87,0,0,1-.89,2.763l-48.758,27.8a7.73,7.73,0,0,1-6.957-.289l-28.053-16.2c-1.6-.924-2.086-2.215-1.389-3.228A3.88,3.88,0,0,0,167.292,224.735Z" transform="translate(-165.588 -194.195)" fill="#fafdff"/>
          <g id="Grupo_65239" data-name="Grupo 65239" transform="translate(18.154 8.995)">
            <path id="Trazado_112975" data-name="Trazado 112975" d="M204.277,230.181l32.462-18.817c.835-.482.73-1.323-.234-1.88l-13.127-7.579a3.618,3.618,0,0,0-3.255-.134L187.66,220.588c-.835.481-.73,1.323.234,1.879l13.127,7.579A3.618,3.618,0,0,0,204.277,230.181Z" transform="translate(-187.096 -201.445)" fill="#173d7a"/>
            <g id="Grupo_65238" data-name="Grupo 65238" transform="translate(13.476 8.306)">
              <path id="Trazado_112976" data-name="Trazado 112976" d="M227.776,213.744l1.881-1.085c.116-.067.1-.183-.032-.26l-1.816-1.049a.5.5,0,0,0-.451-.019l-1.881,1.086c-.116.067-.1.183.032.26l1.816,1.048A.5.5,0,0,0,227.776,213.744Z" transform="translate(-206.546 -211.286)" fill="#d4ecff"/>
              <path id="Trazado_112977" data-name="Trazado 112977" d="M220.33,218.026l1.881-1.086c.116-.067.1-.183-.032-.26l-1.816-1.049a.5.5,0,0,0-.451-.019l-1.881,1.086c-.115.067-.1.183.033.26l1.816,1.048A.5.5,0,0,0,220.33,218.026Z" transform="translate(-205.385 -211.953)" fill="#ff2c9c"/>
              <path id="Trazado_112978" data-name="Trazado 112978" d="M212.885,222.307l1.881-1.086c.116-.067.1-.183-.032-.26l-1.816-1.048a.5.5,0,0,0-.45-.019l-1.881,1.086c-.116.067-.1.183.032.26l1.816,1.049A.5.5,0,0,0,212.885,222.307Z" transform="translate(-204.223 -212.621)" fill="#d4ecff"/>
              <path id="Trazado_112979" data-name="Trazado 112979" d="M205.439,226.588l1.881-1.086c.116-.067.1-.183-.032-.26l-1.816-1.048a.5.5,0,0,0-.451-.019l-1.881,1.085c-.115.067-.1.183.033.26l1.816,1.049A.5.5,0,0,0,205.439,226.588Z" transform="translate(-203.062 -213.289)" fill="#d4ecff"/>
            </g>
            <path id="Trazado_112980" data-name="Trazado 112980" d="M236.739,211.364l-.038.022c-.063-.045-.122-.092-.2-.134l-13.127-7.579a3.618,3.618,0,0,0-3.255-.134L187.7,222.333c-.77-.55-.809-1.3-.039-1.745l32.462-18.817a3.618,3.618,0,0,1,3.255.134l13.127,7.579C237.469,210.041,237.574,210.882,236.739,211.364Z" transform="translate(-187.097 -201.445)" fill="#5793ce"/>
          </g>
        </g>
        <g id="Grupo_65242" data-name="Grupo 65242" transform="translate(3.942 47.613)">
          <path id="Trazado_112981" data-name="Trazado 112981" d="M190.6,269.607,172.139,259.04a4.507,4.507,0,0,1-1.881-3.594v-6.6c0-1.385.842-2.021,1.881-1.422L190.6,257.992a4.5,4.5,0,0,1,1.881,3.593v6.6C192.476,269.57,191.634,270.207,190.6,269.607Z" transform="translate(-170.258 -247.199)" fill="#173d7a"/>
          <path id="Trazado_112982" data-name="Trazado 112982" d="M171.225,247.23a1.844,1.844,0,0,0-.472,1.373v6.6a4.5,4.5,0,0,0,1.881,3.593l18.457,10.567a1.349,1.349,0,0,0,.913.2,1.122,1.122,0,0,1-1.409.049l-18.457-10.567a4.507,4.507,0,0,1-1.881-3.594v-6.6C170.258,247.911,170.651,247.328,171.225,247.23Z" transform="translate(-170.258 -247.204)" fill="#fff"/>
          <g id="Grupo_65241" data-name="Grupo 65241" transform="translate(7.022 8.042)">
            <path id="Trazado_112983" data-name="Trazado 112983" d="M187.388,264.527l-1.692-.977a.981.981,0,0,1-.41-.783v-1.809c0-.3.183-.441.41-.31l1.692.977a.98.98,0,0,1,.41.783v1.809C187.8,264.519,187.615,264.658,187.388,264.527Z" transform="translate(-179.624 -257.33)" fill="#396caa"/>
            <path id="Trazado_112984" data-name="Trazado 112984" d="M180.681,260.654l-1.693-.977a.981.981,0,0,1-.409-.783v-1.808c0-.3.183-.441.409-.31l1.693.977a.982.982,0,0,1,.41.783v1.808C181.091,260.647,180.907,260.785,180.681,260.654Z" transform="translate(-178.578 -256.727)" fill="#fff"/>
          </g>
        </g>
        <g id="Grupo_65244" data-name="Grupo 65244" transform="translate(3.942 95.308)">
          <path id="Trazado_112985" data-name="Trazado 112985" d="M190.6,326.115l-18.457-10.568a4.5,4.5,0,0,1-1.881-3.593v-6.6c0-1.384.842-2.021,1.881-1.421L190.6,314.5a4.5,4.5,0,0,1,1.881,3.593v6.6C192.476,326.078,191.634,326.715,190.6,326.115Z" transform="translate(-170.258 -303.707)" fill="#173d7a"/>
          <path id="Trazado_112986" data-name="Trazado 112986" d="M171.225,303.738a1.842,1.842,0,0,0-.472,1.373v6.6a4.5,4.5,0,0,0,1.881,3.593l18.457,10.567a1.354,1.354,0,0,0,.913.2,1.122,1.122,0,0,1-1.409.049l-18.457-10.568a4.5,4.5,0,0,1-1.881-3.593v-6.6C170.258,304.418,170.651,303.836,171.225,303.738Z" transform="translate(-170.258 -303.712)" fill="#fff"/>
          <g id="Grupo_65243" data-name="Grupo 65243" transform="translate(7.022 8.041)">
            <path id="Trazado_112987" data-name="Trazado 112987" d="M187.388,321.035l-1.692-.977a.981.981,0,0,1-.41-.783v-1.809c0-.3.183-.441.41-.31l1.692.977a.98.98,0,0,1,.41.783v1.809C187.8,321.027,187.615,321.166,187.388,321.035Z" transform="translate(-179.624 -313.838)" fill="#ff2c9c"/>
            <path id="Trazado_112988" data-name="Trazado 112988" d="M180.681,317.162l-1.693-.977a.982.982,0,0,1-.409-.783v-1.808c0-.3.183-.441.409-.311l1.693.978a.981.981,0,0,1,.41.782v1.809C181.091,317.155,180.907,317.293,180.681,317.162Z" transform="translate(-178.578 -313.234)" fill="#fff"/>
          </g>
        </g>
        <g id="Grupo_65246" data-name="Grupo 65246" transform="translate(3.942 119.155)">
          <path id="Trazado_112989" data-name="Trazado 112989" d="M190.6,354.369,172.139,343.8a4.5,4.5,0,0,1-1.881-3.593v-6.6c0-1.384.842-2.021,1.881-1.421L190.6,342.754a4.5,4.5,0,0,1,1.881,3.593v6.6C192.476,354.332,191.634,354.969,190.6,354.369Z" transform="translate(-170.258 -331.961)" fill="#173d7a"/>
          <path id="Trazado_112990" data-name="Trazado 112990" d="M171.225,331.992a1.842,1.842,0,0,0-.472,1.373v6.6a4.5,4.5,0,0,0,1.881,3.593l18.457,10.567a1.354,1.354,0,0,0,.913.2,1.121,1.121,0,0,1-1.409.048l-18.457-10.567a4.5,4.5,0,0,1-1.881-3.593v-6.6C170.258,332.672,170.651,332.09,171.225,331.992Z" transform="translate(-170.258 -331.966)" fill="#fff"/>
          <g id="Grupo_65245" data-name="Grupo 65245" transform="translate(7.022 8.041)">
            <path id="Trazado_112991" data-name="Trazado 112991" d="M187.388,349.289l-1.692-.977a.981.981,0,0,1-.41-.783V345.72c0-.3.183-.441.41-.31l1.692.977a.98.98,0,0,1,.41.783v1.809C187.8,349.281,187.615,349.419,187.388,349.289Z" transform="translate(-179.624 -342.092)" fill="#396caa"/>
            <path id="Trazado_112992" data-name="Trazado 112992" d="M180.681,345.416l-1.693-.977a.982.982,0,0,1-.409-.783v-1.808c0-.3.183-.441.409-.311l1.693.978a.981.981,0,0,1,.41.782v1.809C181.091,345.409,180.907,345.547,180.681,345.416Z" transform="translate(-178.578 -341.488)" fill="#fff"/>
          </g>
        </g>
        <g id="Grupo_65248" data-name="Grupo 65248" transform="translate(3.942 71.46)">
          <path id="Trazado_112993" data-name="Trazado 112993" d="M190.6,297.861l-18.457-10.567a4.507,4.507,0,0,1-1.881-3.594v-6.6c0-1.384.842-2.021,1.881-1.421L190.6,286.246a4.5,4.5,0,0,1,1.881,3.593v6.6C192.476,297.824,191.634,298.461,190.6,297.861Z" transform="translate(-170.258 -275.453)" fill="#173d7a"/>
          <path id="Trazado_112994" data-name="Trazado 112994" d="M171.225,275.484a1.842,1.842,0,0,0-.472,1.373v6.6a4.5,4.5,0,0,0,1.881,3.593l18.457,10.567a1.349,1.349,0,0,0,.913.2,1.122,1.122,0,0,1-1.409.049L172.139,287.3a4.507,4.507,0,0,1-1.881-3.594v-6.6C170.258,276.164,170.651,275.582,171.225,275.484Z" transform="translate(-170.258 -275.458)" fill="#fff"/>
          <g id="Grupo_65247" data-name="Grupo 65247" transform="translate(7.022 8.042)">
            <path id="Trazado_112995" data-name="Trazado 112995" d="M187.388,292.781,185.7,291.8a.981.981,0,0,1-.41-.783v-1.809c0-.3.183-.441.41-.31l1.692.977a.98.98,0,0,1,.41.783v1.809C187.8,292.773,187.615,292.912,187.388,292.781Z" transform="translate(-179.624 -285.584)" fill="#396caa"/>
            <path id="Trazado_112996" data-name="Trazado 112996" d="M180.681,288.908l-1.693-.977a.982.982,0,0,1-.409-.783V285.34c0-.3.183-.441.409-.31l1.693.977a.981.981,0,0,1,.41.783V288.6C181.091,288.9,180.907,289.039,180.681,288.908Z" transform="translate(-178.578 -284.981)" fill="#fff"/>
          </g>
        </g>
      </g>
      <g id="Grupo_65250" data-name="Grupo 65250" transform="translate(38.54 25.752)">
        <path id="Trazado_112997" data-name="Trazado 112997" d="M212.974,258.811l42.582-24.584a4.133,4.133,0,0,0,1.725-3.3v-8.12c0-1.27-.772-1.854-1.725-1.3L212.974,246.09a4.133,4.133,0,0,0-1.725,3.3v8.12C211.249,258.778,212.021,259.362,212.974,258.811Z" transform="translate(-211.249 -221.299)" fill="#5793ce"/>
        <path id="Trazado_112998" data-name="Trazado 112998" d="M214.58,256.509l40.136-23.173a2.1,2.1,0,0,0,.876-1.673v-6.1c0-.645-.392-.941-.876-.662L214.58,248.07a2.1,2.1,0,0,0-.876,1.673v6.1C213.7,256.492,214.1,256.788,214.58,256.509Z" transform="translate(-211.632 -221.843)" fill="#d4ecff" opacity="0.4"/>
        <path id="Trazado_112999" data-name="Trazado 112999" d="M252.227,235.9l5.99-3.458a2.035,2.035,0,0,0,.851-1.625h0c0-.625-.381-.913-.851-.642l-5.99,3.458a2.037,2.037,0,0,0-.85,1.625h0C251.377,235.887,251.758,236.175,252.227,235.9Z" transform="translate(-217.507 -222.668)" fill="#d4ecff"/>
        <path id="Trazado_113000" data-name="Trazado 113000" d="M246.337,238.79c0,.626.44.88.982.566a2.168,2.168,0,0,0,.982-1.7c0-.626-.44-.88-.982-.567A2.171,2.171,0,0,0,246.337,238.79Z" transform="translate(-216.721 -223.74)" fill="#173d7a"/>
        <path id="Trazado_113001" data-name="Trazado 113001" d="M242.234,241.159c0,.626.439.879.982.566a2.168,2.168,0,0,0,.982-1.7c0-.626-.44-.88-.982-.567A2.169,2.169,0,0,0,242.234,241.159Z" transform="translate(-216.081 -224.11)" fill="#173d7a"/>
        <path id="Trazado_113002" data-name="Trazado 113002" d="M238.13,243.528c0,.626.44.879.982.567a2.17,2.17,0,0,0,.982-1.7c0-.626-.44-.879-.982-.567A2.171,2.171,0,0,0,238.13,243.528Z" transform="translate(-215.441 -224.479)" fill="#d4ecff"/>
        <path id="Trazado_113003" data-name="Trazado 113003" d="M234.027,245.9c0,.626.44.88.982.567a2.171,2.171,0,0,0,.982-1.7c0-.626-.44-.88-.982-.567A2.171,2.171,0,0,0,234.027,245.9Z" transform="translate(-214.801 -224.849)" fill="#173d7a"/>
        <path id="Trazado_113004" data-name="Trazado 113004" d="M216.641,257.451l2.017-1.165a1.306,1.306,0,0,0,.545-1.042V253.11c0-.4-.244-.587-.545-.413l-2.017,1.165a1.307,1.307,0,0,0-.546,1.042v2.135C216.1,257.441,216.34,257.625,216.641,257.451Z" transform="translate(-212.005 -226.185)" fill="#173d7a"/>
      </g>
      <g id="Grupo_65251" data-name="Grupo 65251" transform="translate(38.54 40.069)">
        <path id="Trazado_113005" data-name="Trazado 113005" d="M212.974,275.774l42.582-24.584a4.133,4.133,0,0,0,1.725-3.3v-8.12c0-1.271-.772-1.855-1.725-1.3l-42.582,24.584a4.133,4.133,0,0,0-1.725,3.3v8.12C211.249,275.741,212.021,276.325,212.974,275.774Z" transform="translate(-211.249 -238.262)" fill="#5793ce"/>
        <path id="Trazado_113006" data-name="Trazado 113006" d="M214.58,273.473,254.716,250.3a2.1,2.1,0,0,0,.876-1.673v-6.1c0-.645-.392-.941-.876-.663L214.58,265.034a2.1,2.1,0,0,0-.876,1.673v6.1C213.7,273.456,214.1,273.752,214.58,273.473Z" transform="translate(-211.632 -238.807)" fill="#d4ecff" opacity="0.4"/>
        <path id="Trazado_113007" data-name="Trazado 113007" d="M252.227,252.867l5.99-3.458a2.035,2.035,0,0,0,.851-1.625h0c0-.626-.381-.913-.851-.642l-5.99,3.458a2.037,2.037,0,0,0-.85,1.625h0C251.377,252.85,251.758,253.138,252.227,252.867Z" transform="translate(-217.507 -239.631)" fill="#d4ecff"/>
        <path id="Trazado_113008" data-name="Trazado 113008" d="M246.337,255.754c0,.625.44.879.982.566a2.171,2.171,0,0,0,.982-1.7c0-.626-.44-.88-.982-.567A2.171,2.171,0,0,0,246.337,255.754Z" transform="translate(-216.721 -240.704)" fill="#fff"/>
        <path id="Trazado_113009" data-name="Trazado 113009" d="M242.234,258.123c0,.625.439.879.982.566a2.171,2.171,0,0,0,.982-1.7c0-.626-.44-.88-.982-.567A2.169,2.169,0,0,0,242.234,258.123Z" transform="translate(-216.081 -241.073)" fill="#173d7a"/>
        <path id="Trazado_113010" data-name="Trazado 113010" d="M238.13,260.492c0,.625.44.879.982.566a2.17,2.17,0,0,0,.982-1.7c0-.626-.44-.88-.982-.567A2.171,2.171,0,0,0,238.13,260.492Z" transform="translate(-215.441 -241.442)" fill="#d4ecff"/>
        <path id="Trazado_113011" data-name="Trazado 113011" d="M234.027,262.861c0,.626.44.879.982.566a2.171,2.171,0,0,0,.982-1.7c0-.626-.44-.88-.982-.567A2.171,2.171,0,0,0,234.027,262.861Z" transform="translate(-214.801 -241.812)" fill="#173d7a"/>
        <path id="Trazado_113012" data-name="Trazado 113012" d="M216.641,274.415l2.017-1.165a1.306,1.306,0,0,0,.545-1.042v-2.135c0-.4-.244-.587-.545-.413l-2.017,1.165a1.307,1.307,0,0,0-.546,1.042V274C216.1,274.4,216.34,274.589,216.641,274.415Z" transform="translate(-212.005 -243.148)" fill="#173d7a"/>
      </g>
      <g id="Grupo_65252" data-name="Grupo 65252" transform="translate(38.54 54.388)">
        <path id="Trazado_113013" data-name="Trazado 113013" d="M212.974,292.739l42.582-24.584a4.133,4.133,0,0,0,1.725-3.3v-8.12c0-1.271-.772-1.855-1.725-1.3l-42.582,24.584a4.133,4.133,0,0,0-1.725,3.3v8.119C211.249,292.7,212.021,293.289,212.974,292.739Z" transform="translate(-211.249 -255.226)" fill="#5793ce"/>
        <path id="Trazado_113014" data-name="Trazado 113014" d="M214.58,290.436l40.136-23.173a2.1,2.1,0,0,0,.876-1.673v-6.1c0-.645-.392-.941-.876-.662L214.58,282a2.1,2.1,0,0,0-.876,1.673v6.1C213.7,290.42,214.1,290.716,214.58,290.436Z" transform="translate(-211.632 -255.77)" fill="#d4ecff" opacity="0.4"/>
        <path id="Trazado_113015" data-name="Trazado 113015" d="M252.227,269.831l5.99-3.459a2.033,2.033,0,0,0,.851-1.624h0c0-.626-.381-.914-.851-.643l-5.99,3.459a2.036,2.036,0,0,0-.85,1.624h0C251.377,269.814,251.758,270.1,252.227,269.831Z" transform="translate(-217.507 -256.595)" fill="#d4ecff"/>
        <path id="Trazado_113016" data-name="Trazado 113016" d="M246.337,272.717c0,.626.44.88.982.567a2.171,2.171,0,0,0,.982-1.7c0-.626-.44-.88-.982-.566A2.171,2.171,0,0,0,246.337,272.717Z" transform="translate(-216.721 -257.668)" fill="#fff"/>
        <path id="Trazado_113017" data-name="Trazado 113017" d="M242.234,275.086c0,.626.439.88.982.567a2.171,2.171,0,0,0,.982-1.7c0-.625-.44-.879-.982-.566A2.169,2.169,0,0,0,242.234,275.086Z" transform="translate(-216.081 -258.037)" fill="#173d7a"/>
        <path id="Trazado_113018" data-name="Trazado 113018" d="M238.13,277.455c0,.626.44.88.982.567a2.17,2.17,0,0,0,.982-1.7c0-.625-.44-.879-.982-.566A2.171,2.171,0,0,0,238.13,277.455Z" transform="translate(-215.441 -258.406)" fill="#d4ecff"/>
        <path id="Trazado_113019" data-name="Trazado 113019" d="M234.027,279.824c0,.626.44.88.982.567a2.171,2.171,0,0,0,.982-1.7c0-.625-.44-.879-.982-.566A2.171,2.171,0,0,0,234.027,279.824Z" transform="translate(-214.801 -258.776)" fill="#173d7a"/>
        <path id="Trazado_113020" data-name="Trazado 113020" d="M216.641,291.379l2.017-1.165a1.309,1.309,0,0,0,.545-1.043v-2.135c0-.4-.244-.587-.545-.412l-2.017,1.165a1.307,1.307,0,0,0-.546,1.042v2.135C216.1,291.368,216.34,291.553,216.641,291.379Z" transform="translate(-212.005 -260.112)" fill="#173d7a"/>
      </g>
      <g id="Grupo_65253" data-name="Grupo 65253" transform="translate(38.54 68.706)">
        <path id="Trazado_113021" data-name="Trazado 113021" d="M212.974,309.7l42.582-24.584a4.133,4.133,0,0,0,1.725-3.3V273.7c0-1.27-.772-1.854-1.725-1.3l-42.582,24.584a4.133,4.133,0,0,0-1.725,3.3v8.12C211.249,309.669,212.021,310.253,212.974,309.7Z" transform="translate(-211.249 -272.19)" fill="#5793ce"/>
        <path id="Trazado_113022" data-name="Trazado 113022" d="M214.58,307.4l40.136-23.173a2.1,2.1,0,0,0,.876-1.673v-6.1c0-.645-.392-.941-.876-.662L214.58,298.962a2.1,2.1,0,0,0-.876,1.672v6.1C213.7,307.383,214.1,307.68,214.58,307.4Z" transform="translate(-211.632 -272.734)" fill="#d4ecff" opacity="0.4"/>
        <path id="Trazado_113023" data-name="Trazado 113023" d="M252.227,286.794l5.99-3.458a2.035,2.035,0,0,0,.851-1.624h0c0-.626-.381-.914-.851-.643l-5.99,3.458a2.038,2.038,0,0,0-.85,1.625h0C251.377,286.778,251.758,287.066,252.227,286.794Z" transform="translate(-217.507 -273.559)" fill="#d4ecff"/>
        <path id="Trazado_113024" data-name="Trazado 113024" d="M246.337,289.681c0,.626.44.88.982.567a2.171,2.171,0,0,0,.982-1.7c0-.626-.44-.879-.982-.567A2.171,2.171,0,0,0,246.337,289.681Z" transform="translate(-216.721 -274.631)" fill="#173d7a"/>
        <path id="Trazado_113025" data-name="Trazado 113025" d="M242.234,292.05c0,.626.439.879.982.567a2.171,2.171,0,0,0,.982-1.7c0-.626-.44-.879-.982-.567A2.169,2.169,0,0,0,242.234,292.05Z" transform="translate(-216.081 -275.001)" fill="#173d7a"/>
        <path id="Trazado_113026" data-name="Trazado 113026" d="M238.13,294.419c0,.626.44.88.982.567a2.17,2.17,0,0,0,.982-1.7c0-.626-.44-.88-.982-.566A2.168,2.168,0,0,0,238.13,294.419Z" transform="translate(-215.441 -275.37)" fill="#d4ecff"/>
        <path id="Trazado_113027" data-name="Trazado 113027" d="M234.027,296.788c0,.626.44.88.982.567a2.171,2.171,0,0,0,.982-1.7c0-.626-.44-.879-.982-.566A2.168,2.168,0,0,0,234.027,296.788Z" transform="translate(-214.801 -275.74)" fill="#173d7a"/>
        <path id="Trazado_113028" data-name="Trazado 113028" d="M216.641,308.342l2.017-1.165a1.306,1.306,0,0,0,.545-1.042V304c0-.4-.244-.587-.545-.413l-2.017,1.165a1.31,1.31,0,0,0-.546,1.043v2.135C216.1,308.332,216.34,308.517,216.641,308.342Z" transform="translate(-212.005 -277.076)" fill="#d4ecff"/>
      </g>
      <g id="Grupo_65254" data-name="Grupo 65254" transform="translate(38.54 83.024)">
        <path id="Trazado_113029" data-name="Trazado 113029" d="M212.974,326.666l42.582-24.584a4.13,4.13,0,0,0,1.725-3.3v-8.12c0-1.27-.772-1.854-1.725-1.3l-42.582,24.585a4.13,4.13,0,0,0-1.725,3.3v8.12C211.249,326.632,212.021,327.216,212.974,326.666Z" transform="translate(-211.249 -289.153)" fill="#5793ce"/>
        <path id="Trazado_113030" data-name="Trazado 113030" d="M214.58,324.364l40.136-23.172a2.1,2.1,0,0,0,.876-1.673v-6.1c0-.645-.392-.941-.876-.662L214.58,315.925a2.1,2.1,0,0,0-.876,1.673v6.1C213.7,324.347,214.1,324.643,214.58,324.364Z" transform="translate(-211.632 -289.698)" fill="#d4ecff" opacity="0.4"/>
        <path id="Trazado_113031" data-name="Trazado 113031" d="M252.227,303.758l5.99-3.458a2.035,2.035,0,0,0,.851-1.625h0c0-.625-.381-.913-.851-.642l-5.99,3.458a2.037,2.037,0,0,0-.85,1.625h0C251.377,303.741,251.758,304.029,252.227,303.758Z" transform="translate(-217.507 -290.522)" fill="#d4ecff"/>
        <path id="Trazado_113032" data-name="Trazado 113032" d="M246.337,306.645c0,.625.44.879.982.566a2.171,2.171,0,0,0,.982-1.7c0-.626-.44-.88-.982-.567A2.171,2.171,0,0,0,246.337,306.645Z" transform="translate(-216.721 -291.595)" fill="#173d7a"/>
        <path id="Trazado_113033" data-name="Trazado 113033" d="M242.234,309.014c0,.626.439.879.982.566a2.171,2.171,0,0,0,.982-1.7c0-.626-.44-.88-.982-.567A2.169,2.169,0,0,0,242.234,309.014Z" transform="translate(-216.081 -291.965)" fill="#fff"/>
        <path id="Trazado_113034" data-name="Trazado 113034" d="M238.13,311.383c0,.626.44.88.982.566a2.17,2.17,0,0,0,.982-1.7c0-.626-.44-.88-.982-.567A2.171,2.171,0,0,0,238.13,311.383Z" transform="translate(-215.441 -292.334)" fill="#d4ecff"/>
        <path id="Trazado_113035" data-name="Trazado 113035" d="M234.027,313.752c0,.626.44.879.982.566a2.168,2.168,0,0,0,.982-1.7c0-.626-.44-.88-.982-.567A2.171,2.171,0,0,0,234.027,313.752Z" transform="translate(-214.801 -292.703)" fill="#fff"/>
        <path id="Trazado_113036" data-name="Trazado 113036" d="M216.641,325.306l2.017-1.165a1.306,1.306,0,0,0,.545-1.042v-2.135c0-.4-.244-.587-.545-.413l-2.017,1.165a1.307,1.307,0,0,0-.546,1.042v2.135C216.1,325.3,216.34,325.48,216.641,325.306Z" transform="translate(-212.005 -294.04)" fill="#d4ecff"/>
      </g>
      <g id="Grupo_65255" data-name="Grupo 65255" transform="translate(38.54 97.342)">
        <path id="Trazado_113037" data-name="Trazado 113037" d="M212.974,343.63l42.582-24.584a4.133,4.133,0,0,0,1.725-3.3v-8.12c0-1.271-.772-1.855-1.725-1.3l-42.582,24.584a4.133,4.133,0,0,0-1.725,3.3v8.12C211.249,343.6,212.021,344.18,212.974,343.63Z" transform="translate(-211.249 -306.117)" fill="#5793ce"/>
        <path id="Trazado_113038" data-name="Trazado 113038" d="M214.58,341.327l40.136-23.173a2.1,2.1,0,0,0,.876-1.673v-6.1c0-.644-.392-.941-.876-.662L214.58,332.889a2.1,2.1,0,0,0-.876,1.673v6.1C213.7,341.311,214.1,341.607,214.58,341.327Z" transform="translate(-211.632 -306.661)" fill="#d4ecff" opacity="0.4"/>
        <path id="Trazado_113039" data-name="Trazado 113039" d="M252.227,320.722l5.99-3.458a2.036,2.036,0,0,0,.851-1.625h0c0-.626-.381-.914-.851-.643l-5.99,3.459a2.036,2.036,0,0,0-.85,1.624h0C251.377,320.705,251.758,320.993,252.227,320.722Z" transform="translate(-217.507 -307.486)" fill="#d4ecff"/>
        <path id="Trazado_113040" data-name="Trazado 113040" d="M246.337,323.608c0,.626.44.88.982.567a2.171,2.171,0,0,0,.982-1.7c0-.625-.44-.879-.982-.566A2.171,2.171,0,0,0,246.337,323.608Z" transform="translate(-216.721 -308.559)" fill="#173d7a"/>
        <path id="Trazado_113041" data-name="Trazado 113041" d="M242.234,325.977c0,.626.439.88.982.567a2.171,2.171,0,0,0,.982-1.7c0-.625-.44-.879-.982-.566A2.169,2.169,0,0,0,242.234,325.977Z" transform="translate(-216.081 -308.928)" fill="#173d7a"/>
        <path id="Trazado_113042" data-name="Trazado 113042" d="M238.13,328.347c0,.625.44.879.982.566a2.17,2.17,0,0,0,.982-1.7c0-.625-.44-.88-.982-.566A2.171,2.171,0,0,0,238.13,328.347Z" transform="translate(-215.441 -309.297)" fill="#d4ecff"/>
        <path id="Trazado_113043" data-name="Trazado 113043" d="M234.027,330.716c0,.625.44.879.982.566a2.171,2.171,0,0,0,.982-1.7c0-.625-.44-.879-.982-.566A2.171,2.171,0,0,0,234.027,330.716Z" transform="translate(-214.801 -309.667)" fill="#173d7a"/>
        <path id="Trazado_113044" data-name="Trazado 113044" d="M216.641,342.27l2.017-1.165a1.306,1.306,0,0,0,.545-1.042v-2.135c0-.4-.244-.586-.545-.412l-2.017,1.165a1.307,1.307,0,0,0-.546,1.042v2.135C216.1,342.259,216.34,342.444,216.641,342.27Z" transform="translate(-212.005 -311.003)" fill="#173d7a"/>
      </g>
      <g id="Grupo_65256" data-name="Grupo 65256" transform="translate(38.54 111.66)">
        <path id="Trazado_113045" data-name="Trazado 113045" d="M212.974,360.594l42.582-24.584a4.133,4.133,0,0,0,1.725-3.3v-8.119c0-1.271-.772-1.855-1.725-1.3l-42.582,24.584a4.133,4.133,0,0,0-1.725,3.3v8.12C211.249,360.56,212.021,361.144,212.974,360.594Z" transform="translate(-211.249 -323.081)" fill="#5793ce"/>
        <path id="Trazado_113046" data-name="Trazado 113046" d="M214.58,358.291l40.136-23.173a2.1,2.1,0,0,0,.876-1.673v-6.1c0-.645-.392-.941-.876-.662L214.58,349.853a2.1,2.1,0,0,0-.876,1.673v6.1C213.7,358.275,214.1,358.571,214.58,358.291Z" transform="translate(-211.632 -323.625)" fill="#d4ecff" opacity="0.4"/>
        <path id="Trazado_113047" data-name="Trazado 113047" d="M252.227,337.686l5.99-3.459a2.035,2.035,0,0,0,.851-1.624h0c0-.626-.381-.914-.851-.643l-5.99,3.459a2.035,2.035,0,0,0-.85,1.624h0C251.377,337.669,251.758,337.957,252.227,337.686Z" transform="translate(-217.507 -324.45)" fill="#d4ecff"/>
        <path id="Trazado_113048" data-name="Trazado 113048" d="M245.04,341.189c0,1.182.831,1.662,1.854,1.071a4.1,4.1,0,0,0,1.854-3.212c0-1.183-.831-1.662-1.854-1.07A4.1,4.1,0,0,0,245.04,341.189Z" transform="translate(-216.519 -325.364)" fill="#fff"/>
        <path id="Trazado_113049" data-name="Trazado 113049" d="M236.541,346.463c0,.626.44.88.982.567a2.169,2.169,0,0,0,.982-1.7c0-.625-.439-.88-.982-.566A2.171,2.171,0,0,0,236.541,346.463Z" transform="translate(-215.194 -326.441)" fill="#173d7a"/>
        <path id="Trazado_113050" data-name="Trazado 113050" d="M232.438,348.833c0,.625.439.879.982.566a2.171,2.171,0,0,0,.982-1.7c0-.625-.44-.879-.982-.566A2.169,2.169,0,0,0,232.438,348.833Z" transform="translate(-214.554 -326.811)" fill="#d4ecff"/>
        <path id="Trazado_113051" data-name="Trazado 113051" d="M228.334,351.2c0,.625.44.88.982.566a2.171,2.171,0,0,0,.982-1.7c0-.626-.44-.88-.982-.567A2.17,2.17,0,0,0,228.334,351.2Z" transform="translate(-213.914 -327.18)" fill="#173d7a"/>
        <path id="Trazado_113052" data-name="Trazado 113052" d="M216.641,359.233l2.017-1.165a1.306,1.306,0,0,0,.545-1.042v-2.135c0-.4-.244-.587-.545-.413l-2.017,1.166a1.307,1.307,0,0,0-.546,1.042v2.135C216.1,359.223,216.34,359.408,216.641,359.233Z" transform="translate(-212.005 -327.967)" fill="#d4ecff"/>
      </g>
    </g>
    <g id="Grupo_65259" data-name="Grupo 65259" transform="translate(358.846 140.666)">
      <g id="Grupo_65258" data-name="Grupo 65258">
        <path id="Trazado_113053" data-name="Trazado 113053" d="M409.7,192.011l-15.141-8.742,15.141-8.741,15.141,8.742Z" transform="translate(-394.555 -145.947)" fill="#173d7a" opacity="0.5"/>
        <path id="Trazado_113054" data-name="Trazado 113054" d="M427.635,168.5l-15.141,8.742V159.764l15.141-8.742Z" transform="translate(-397.353 -142.281)" fill="#173d7a"/>
        <path id="Trazado_113055" data-name="Trazado 113055" d="M409.7,158.148l-15.141-8.742,15.14-8.741,15.141,8.742Z" transform="translate(-394.556 -140.666)" fill="#d4ecff"/>
        <path id="Trazado_113056" data-name="Trazado 113056" d="M409.7,177.246,394.556,168.5V151.022l15.141,8.742Z" transform="translate(-394.556 -142.281)" fill="#5793ce"/>
      </g>
      <path id="Trazado_113057" data-name="Trazado 113057" d="M405.251,169.547l-4.235-2.445v-4.89l4.235,2.445Z" transform="translate(-395.563 -144.026)" fill="#fff"/>
    </g>
  </g>
</svg>
