<svg xmlns="http://www.w3.org/2000/svg" width="292" height="273.914" viewBox="0 0 292 273.914">
  <g id="Grupo_68164" data-name="Grupo 68164" transform="translate(-492 -3948.453)">
    <rect id="Rectángulo_6994" data-name="Rectángulo 6994" width="292" height="36" transform="translate(492 3948.453)" fill="#bb83ff" opacity="0.5"/>
    <line id="Línea_312" data-name="Línea 312" y1="33" transform="translate(635.5 3991.104)" fill="none" stroke="#707070" stroke-width="3" stroke-dasharray="3 4" style="mix-blend-mode: multiply;isolation: isolate"/>
    <g id="Elipse_4856" data-name="Elipse 4856" transform="translate(539 4026.367)" fill="#fff" stroke="#8a8a8a" stroke-width="3" stroke-dasharray="3 4">
      <circle cx="98" cy="98" r="98" stroke="none"/>
      <circle cx="98" cy="98" r="96.5" fill="none"/>
    </g>
    <path id="Trazado_113713" data-name="Trazado 113713" d="M60.507,19H57.431V6.2h3.076Zm4.729-9.51.1,1.116a3.225,3.225,0,0,1,2.716-1.292,2.713,2.713,0,0,1,2.219.888,4.226,4.226,0,0,1,.76,2.672V19H68.057V13a1.6,1.6,0,0,0-.29-1.059,1.342,1.342,0,0,0-1.055-.338,1.413,1.413,0,0,0-1.292.686V19H62.458V9.49Zm11.224,5.985,1.5-5.985h3.12L77.979,19H74.956l-3.1-9.51h3.129Zm10.107,3.7a4.889,4.889,0,0,1-3.542-1.305,4.507,4.507,0,0,1-1.354-3.4v-.246a5.84,5.84,0,0,1,.541-2.575,3.955,3.955,0,0,1,1.578-1.727,4.763,4.763,0,0,1,2.461-.611,4.117,4.117,0,0,1,3.164,1.244,4.887,4.887,0,0,1,1.16,3.467v1.151H84.686a2.135,2.135,0,0,0,.694,1.257,2.066,2.066,0,0,0,1.389.457,2.662,2.662,0,0,0,2.2-.984l1.354,1.6a3.784,3.784,0,0,1-1.569,1.217A5.3,5.3,0,0,1,86.566,19.176ZM86.232,11.6q-1.3,0-1.547,1.723h2.988v-.229a1.467,1.467,0,0,0-.36-1.1A1.434,1.434,0,0,0,86.232,11.6Zm10.512,4.729a.684.684,0,0,0-.4-.606,6.016,6.016,0,0,0-1.5-.475,6.853,6.853,0,0,1-1.828-.646,3.062,3.062,0,0,1-1.1-.971,2.319,2.319,0,0,1-.378-1.31,2.628,2.628,0,0,1,1.081-2.158,4.453,4.453,0,0,1,2.83-.848,4.934,4.934,0,0,1,3.023.853,2.666,2.666,0,0,1,1.143,2.241H96.647q0-1.143-1.2-1.143a1.194,1.194,0,0,0-.782.259.8.8,0,0,0-.316.646.737.737,0,0,0,.387.642,3.654,3.654,0,0,0,1.235.4,10.671,10.671,0,0,1,1.49.378A2.706,2.706,0,0,1,99.6,16.24a2.491,2.491,0,0,1-1.156,2.118,5.068,5.068,0,0,1-2.993.817,5.172,5.172,0,0,1-2.18-.439,3.645,3.645,0,0,1-1.494-1.2,2.707,2.707,0,0,1-.536-1.591h2.769a1.145,1.145,0,0,0,.439.962,1.808,1.808,0,0,0,1.081.3,1.422,1.422,0,0,0,.91-.246A.787.787,0,0,0,96.744,16.328Zm7.69-9.2V9.49H106v2.057h-1.564V15.9a1.111,1.111,0,0,0,.193.747,1.037,1.037,0,0,0,.765.211,4.345,4.345,0,0,0,.738-.053v2.118a5.466,5.466,0,0,1-1.67.255,3.1,3.1,0,0,1-2.259-.721,2.954,2.954,0,0,1-.729-2.188v-4.72H100.26V9.49h1.213V7.126ZM110.288,19h-2.971V9.49h2.971ZM107.142,7.038A1.322,1.322,0,0,1,107.6,6a1.943,1.943,0,0,1,2.373,0,1.322,1.322,0,0,1,.457,1.037,1.322,1.322,0,0,1-.457,1.037,1.943,1.943,0,0,1-2.373,0A1.322,1.322,0,0,1,107.142,7.038Zm4.623,7.137a6.421,6.421,0,0,1,.475-2.549A3.821,3.821,0,0,1,113.6,9.917a3.591,3.591,0,0,1,2.065-.6,2.855,2.855,0,0,1,2.32,1l.105-.826h2.689V18.64a4.009,4.009,0,0,1-.584,2.184,3.75,3.75,0,0,1-1.692,1.424,6.219,6.219,0,0,1-2.566.5,5.365,5.365,0,0,1-2.026-.4,3.657,3.657,0,0,1-1.5-1.028l1.239-1.74a2.716,2.716,0,0,0,2.18.976,1.764,1.764,0,0,0,1.969-2.021v-.3a2.781,2.781,0,0,1-2.153.94,3.437,3.437,0,0,1-2.812-1.332,5.517,5.517,0,0,1-1.072-3.564Zm2.971.185a3.383,3.383,0,0,0,.439,1.85,1.387,1.387,0,0,0,1.23.681,1.573,1.573,0,0,0,1.4-.642v-4a1.534,1.534,0,0,0-1.38-.65,1.4,1.4,0,0,0-1.239.708A3.858,3.858,0,0,0,114.735,14.359ZM127.822,19a3.344,3.344,0,0,1-.281-.853,2.754,2.754,0,0,1-2.285,1.028,3.374,3.374,0,0,1-2.285-.813,2.588,2.588,0,0,1-.94-2.043,2.66,2.66,0,0,1,1.143-2.338,5.821,5.821,0,0,1,3.322-.791h.914v-.5q0-1.316-1.134-1.316a.927.927,0,0,0-1.055,1.042h-2.962a2.655,2.655,0,0,1,1.173-2.239,4.931,4.931,0,0,1,2.993-.86,4.323,4.323,0,0,1,2.874.888,3.086,3.086,0,0,1,1.081,2.435v4.21a4.311,4.311,0,0,0,.4,2V19Zm-1.854-1.934a1.652,1.652,0,0,0,.918-.237,1.487,1.487,0,0,0,.523-.536V14.772h-.861q-1.547,0-1.547,1.389a.848.848,0,0,0,.272.655A.986.986,0,0,0,125.968,17.066Zm10.072-.176a1.317,1.317,0,0,0,.967-.338,1.241,1.241,0,0,0,.334-.945h2.777A3.288,3.288,0,0,1,139,18.174a4.168,4.168,0,0,1-2.887,1,4.22,4.22,0,0,1-3.27-1.3,5.125,5.125,0,0,1-1.2-3.6v-.123a5.792,5.792,0,0,1,.532-2.544,3.872,3.872,0,0,1,1.534-1.7,4.573,4.573,0,0,1,2.373-.593,4.116,4.116,0,0,1,2.944,1.028,3.647,3.647,0,0,1,1.09,2.786h-2.777A1.626,1.626,0,0,0,136.98,12a1.244,1.244,0,0,0-.967-.4q-1.151,0-1.345,1.468a10.357,10.357,0,0,0-.062,1.283,4.068,4.068,0,0,0,.343,1.986A1.187,1.187,0,0,0,136.04,16.891ZM144.5,19h-2.971V9.49H144.5ZM141.349,7.038A1.322,1.322,0,0,1,141.806,6a1.943,1.943,0,0,1,2.373,0,1.322,1.322,0,0,1,.457,1.037,1.322,1.322,0,0,1-.457,1.037,1.943,1.943,0,0,1-2.373,0A1.322,1.322,0,0,1,141.349,7.038Zm4.6,7.119a5.613,5.613,0,0,1,.554-2.536,3.96,3.96,0,0,1,1.591-1.709,4.791,4.791,0,0,1,2.435-.6,4.373,4.373,0,0,1,3.366,1.323,5.076,5.076,0,0,1,1.23,3.6v.105a4.925,4.925,0,0,1-1.235,3.529,4.384,4.384,0,0,1-3.344,1.305,4.434,4.434,0,0,1-3.261-1.217,4.761,4.761,0,0,1-1.327-3.3Zm2.962.185a3.538,3.538,0,0,0,.413,1.934,1.376,1.376,0,0,0,1.222.615q1.582,0,1.617-2.435v-.3q0-2.558-1.635-2.558-1.485,0-1.608,2.206ZM150.929,5.5h3.129l-2.443,2.76-2.417,0Zm8.218,3.99.1,1.116a3.225,3.225,0,0,1,2.716-1.292,2.713,2.713,0,0,1,2.219.888,4.226,4.226,0,0,1,.76,2.672V19h-2.971V13a1.6,1.6,0,0,0-.29-1.059,1.342,1.342,0,0,0-1.055-.338,1.413,1.413,0,0,0-1.292.686V19h-2.962V9.49Z" transform="translate(527 3954.453)" fill="#12263f"/>
    <ellipse id="Elipse_4860" data-name="Elipse 4860" cx="87.5" cy="87" rx="87.5" ry="87" transform="translate(551 4037.367)" fill="#bb83ff" opacity="0.12"/>
    <g id="investigacion_2_" data-name="investigacion (2)" transform="translate(595.001 4067.84)">
      <path id="Trazado_113632" data-name="Trazado 113632" d="M404.862,277.394a3.046,3.046,0,0,1-4.306,0l-19.951-19.951,4.306-4.306,19.951,19.951A3.046,3.046,0,0,1,404.862,277.394Zm0,0" transform="translate(-303.351 -201.755)" fill="#484b63"/>
      <path id="Trazado_113633" data-name="Trazado 113633" d="M7.5,62.5H71.439v89.717H7.5Zm0,0" transform="translate(-5.978 -49.813)" fill="#bb83ff" opacity="0.19"/>
      <path id="Trazado_113634" data-name="Trazado 113634" d="M40,307.727H52.179V340.61H40Zm0,0" transform="translate(-31.881 -245.264)" fill="#f17781"/>
      <path id="Trazado_113635" data-name="Trazado 113635" d="M134,247.727h12.179v45.062H134Zm0,0" transform="translate(-106.801 -197.443)" fill="#f9e478"/>
      <path id="Trazado_113636" data-name="Trazado 113636" d="M230,269.727h12.179v40.6H230Zm0,0" transform="translate(-183.315 -214.977)" fill="#31d9e7"/>
      <path id="Trazado_113637" data-name="Trazado 113637" d="M70,307.727h6.089V340.61H70Zm0,0" transform="translate(-55.792 -245.264)" fill="#d65d67"/>
      <path id="Trazado_113638" data-name="Trazado 113638" d="M164,247.727h6.089v45.062H164Zm0,0" transform="translate(-130.712 -197.443)" fill="#ffbd54"/>
      <path id="Trazado_113639" data-name="Trazado 113639" d="M260,269.727h6.089v40.6H260Zm0,0" transform="translate(-207.226 -214.977)" fill="#3bb3e3"/>
      <path id="Trazado_113640" data-name="Trazado 113640" d="M192.008,16.957a32.273,32.273,0,1,0,0,45.641,32.273,32.273,0,0,0,0-45.641Zm0,0" transform="translate(-109.124 -5.98)" fill="#50536e"/>
      <path id="Trazado_113641" data-name="Trazado 113641" d="M211.66,82.248a26.184,26.184,0,1,1,0-37.03A26.214,26.214,0,0,1,211.66,82.248Zm0,0" transform="translate(-133.081 -29.936)" fill="#b5fcff"/>
      <path id="Trazado_113642" data-name="Trazado 113642" d="M302.473,45.222a26.146,26.146,0,0,0-21.559-7.48,26.171,26.171,0,0,1,0,51.991,26.175,26.175,0,0,0,21.559-44.511Zm0,0" transform="translate(-223.895 -29.939)" fill="#71f6fc"/>
      <path id="Trazado_113643" data-name="Trazado 113643" d="M102.591,69.857,86.972,54.236a33.807,33.807,0,0,0,1.354-39,1.522,1.522,0,1,0-2.544,1.674,30.78,30.78,0,1,1-3.976-4.876l.083.084A1.522,1.522,0,0,0,84.05,9.973l-.087-.088a33.833,33.833,0,0,0-47.8,0q-.621.621-1.2,1.265H1.522A1.523,1.523,0,0,0,0,12.673v6.733a1.522,1.522,0,1,0,3.045,0V14.2H32.523a33.534,33.534,0,0,0-3,5.122H10.554a1.522,1.522,0,1,0,0,3.045H28.261a33.727,33.727,0,0,0-1.093,3.722H10.554a1.522,1.522,0,1,0,0,3.045H26.605A34.018,34.018,0,0,0,26.3,32.85H10.554a1.523,1.523,0,0,0,0,3.045h15.8a33.83,33.83,0,0,0,3.408,12.858H27.2a1.522,1.522,0,0,0-1.522,1.523V95.345A1.522,1.522,0,0,0,27.2,96.868H39.378A1.522,1.522,0,0,0,40.9,95.345V61.63a33.544,33.544,0,0,0,4.263,2.5V95.345a1.523,1.523,0,0,0,1.522,1.523H58.864a1.522,1.522,0,0,0,1.522-1.523V67.568a34.346,34.346,0,0,0,3.553-.219V90.866a1.522,1.522,0,1,0,3.045,0V66.859A33.568,33.568,0,0,0,80.514,60.7L96.129,76.315a4.568,4.568,0,0,0,6.461-6.459ZM37.856,93.822H28.722V51.8h2.743a33.816,33.816,0,0,0,4.7,5.888q.823.823,1.689,1.575Zm10.353,0V65.436a33.888,33.888,0,0,0,9.134,2.024V93.822Zm52.229-19.661a1.523,1.523,0,0,1-2.154,0L82.861,58.739c.373-.342.741-.691,1.1-1.051s.71-.727,1.052-1.1l15.421,15.424a1.524,1.524,0,0,1,0,2.153Zm0,0" transform="translate(0)" fill="#47286d"/>
      <path id="Trazado_113644" data-name="Trazado 113644" d="M65.463,192.035a1.522,1.522,0,0,0-1.522,1.522v3.451H3.045V122.131a1.522,1.522,0,1,0-3.045,0v76.4a1.522,1.522,0,0,0,1.522,1.522h63.94a1.522,1.522,0,0,0,1.522-1.522v-4.974A1.522,1.522,0,0,0,65.463,192.035Zm0,0" transform="translate(-0.001 -96.127)" fill="#47286d"/>
      <path id="Trazado_113645" data-name="Trazado 113645" d="M32.5,301.717v32.888a1.523,1.523,0,0,0,1.522,1.522H46.2a1.523,1.523,0,0,0,1.522-1.522V301.717A1.523,1.523,0,0,0,46.2,300.2H34.022A1.523,1.523,0,0,0,32.5,301.717Zm3.045,1.523H44.68v29.842H35.545Zm0,0" transform="translate(-25.904 -239.261)" fill="#47286d"/>
      <path id="Trazado_113646" data-name="Trazado 113646" d="M57.406,198.226a1.523,1.523,0,0,0,0-3.045H46.022a1.523,1.523,0,0,0,0,3.045Zm0,0" transform="translate(-35.468 -155.562)" fill="#47286d"/>
      <path id="Trazado_113647" data-name="Trazado 113647" d="M187.172,29.988a27.667,27.667,0,1,0,19.592,8.1A27.519,27.519,0,0,0,187.172,29.988Zm17.439,45.14a24.7,24.7,0,1,1,7.211-17.441A24.492,24.492,0,0,1,204.611,75.128Zm0,0" transform="translate(-127.107 -23.901)" fill="#47286d"/>
    </g>
  </g>
</svg>
