<svg xmlns="http://www.w3.org/2000/svg" width="74" height="75.233" viewBox="0 0 74 75.233">
  <g id="bullhorn_1_" data-name="bullhorn (1)" transform="translate(-2 -1)">
    <path id="Trazado_110857" data-name="Trazado 110857" d="M45.167,59.133H42.7V47.047a1.233,1.233,0,0,0-2.467,0V59.133H8.167V34.467H18.428a1.233,1.233,0,0,0,0-2.467H6.933A1.233,1.233,0,0,0,5.7,33.233v25.9H3.233A1.233,1.233,0,0,0,2,60.367v2.467A6.167,6.167,0,0,0,8.167,69H40.233A6.167,6.167,0,0,0,46.4,62.833V60.367A1.233,1.233,0,0,0,45.167,59.133Zm-1.233,3.7a3.7,3.7,0,0,1-3.7,3.7H37.767V65.3a1.233,1.233,0,1,0-2.467,0v1.233H13.1V65.3a1.233,1.233,0,1,0-2.467,0v1.233H8.167a3.7,3.7,0,0,1-3.7-3.7V61.6H43.933Z" transform="translate(0 7.233)" fill="#47286d"/>
    <path id="Trazado_110858" data-name="Trazado 110858" d="M55.167,8.467h2.467a1.233,1.233,0,1,0,0-2.467H55.167a3.7,3.7,0,0,0-3.7,3.7v1.233H50.233a1.233,1.233,0,0,0,0,2.467h1.233v3.7a1.233,1.233,0,1,0,2.467,0V13.4h1.233a1.233,1.233,0,1,0,0-2.467H53.933V9.7A1.233,1.233,0,0,1,55.167,8.467Z" transform="translate(10.967 1.167)" fill="#47286d"/>
    <path id="Trazado_110859" data-name="Trazado 110859" d="M62.5,2H47.7A3.7,3.7,0,0,0,44,5.7V8.167a1.233,1.233,0,1,0,2.467,0V5.7A1.233,1.233,0,0,1,47.7,4.467H62.5A1.233,1.233,0,0,1,63.733,5.7V20.5A1.233,1.233,0,0,1,62.5,21.733H47.7A1.233,1.233,0,0,1,46.467,20.5V13.1A1.233,1.233,0,1,0,44,13.1v7.4a3.7,3.7,0,0,0,3.7,3.7H62.5a3.7,3.7,0,0,0,3.7-3.7V5.7A3.7,3.7,0,0,0,62.5,2Z" transform="translate(9.8 0.233)" fill="#47286d"/>
    <path id="Trazado_110860" data-name="Trazado 110860" d="M49,42.933A4.933,4.933,0,1,0,53.933,38,4.933,4.933,0,0,0,49,42.933Zm7.4,0a2.467,2.467,0,1,1-2.467-2.467A2.467,2.467,0,0,1,56.4,42.933Z" transform="translate(10.967 8.633)" fill="#47286d"/>
    <path id="Trazado_110861" data-name="Trazado 110861" d="M62.5,33H47.7A3.7,3.7,0,0,0,44,36.7V51.5a3.7,3.7,0,0,0,3.7,3.7H62.5a3.7,3.7,0,0,0,3.7-3.7V49.033a1.233,1.233,0,1,0-2.467,0V51.5A1.233,1.233,0,0,1,62.5,52.733H47.7A1.233,1.233,0,0,1,46.467,51.5V36.7A1.233,1.233,0,0,1,47.7,35.467H62.5A1.233,1.233,0,0,1,63.733,36.7v7.4a1.233,1.233,0,1,0,2.467,0V36.7A3.7,3.7,0,0,0,62.5,33Z" transform="translate(9.8 7.467)" fill="#47286d"/>
    <path id="Trazado_110862" data-name="Trazado 110862" d="M24.58,15.681a1.227,1.227,0,0,0,1.209.049l7.4-3.7a1.233,1.233,0,0,0,0-2.2l-7.4-3.7A1.233,1.233,0,0,0,24,7.233v7.4A1.233,1.233,0,0,0,24.58,15.681Zm1.887-6.45,3.4,1.7-3.4,1.7Z" transform="translate(5.133 1.167)" fill="#47286d"/>
    <path id="Trazado_110863" data-name="Trazado 110863" d="M29.1,23.2A11.1,11.1,0,1,0,18,12.1,11.1,11.1,0,0,0,29.1,23.2Zm0-19.733A8.633,8.633,0,1,1,20.467,12.1,8.633,8.633,0,0,1,29.1,3.467Z" transform="translate(3.733)" fill="#47286d"/>
    <path id="Trazado_110864" data-name="Trazado 110864" d="M37.233,24.4a1.233,1.233,0,0,0,.987-.493l3.7-4.933a1.233,1.233,0,1,0-1.973-1.48l-3.7,4.933a1.233,1.233,0,0,0,.987,1.973Z" transform="translate(7.933 3.733)" fill="#47286d"/>
    <path id="Trazado_110865" data-name="Trazado 110865" d="M39.247,27.673a1.233,1.233,0,0,0,1.727.247l4.933-3.7a1.233,1.233,0,1,0-1.48-1.973l-4.933,3.7a1.233,1.233,0,0,0-.247,1.727Z" transform="translate(8.633 4.9)" fill="#47286d"/>
    <path id="Trazado_110866" data-name="Trazado 110866" d="M50.658,28.992a1.233,1.233,0,0,0-1.48-.987l-6.167,1.233a1.239,1.239,0,1,0,.247,2.467H43.5l6.167-1.233a1.233,1.233,0,0,0,.987-1.48Z" transform="translate(9.309 6.295)" fill="#47286d"/>
    <path id="Trazado_110867" data-name="Trazado 110867" d="M3.233,33.2h14.8a1.233,1.233,0,0,0,1.233-1.233V12.233A1.233,1.233,0,0,0,18.033,11H3.233A1.233,1.233,0,0,0,2,12.233V31.967A1.233,1.233,0,0,0,3.233,33.2ZM4.467,13.467H16.8V30.733H4.467Z" transform="translate(0 2.333)" fill="#47286d"/>
    <path id="Trazado_110868" data-name="Trazado 110868" d="M11.7,15H9.233a1.233,1.233,0,0,0,0,2.467H11.7A1.233,1.233,0,0,0,11.7,15Z" transform="translate(1.4 3.267)" fill="#47286d"/>
    <path id="Trazado_110869" data-name="Trazado 110869" d="M12.167,19H7.233a1.233,1.233,0,0,0,0,2.467h4.933a1.233,1.233,0,0,0,0-2.467Z" transform="translate(0.933 4.2)" fill="#47286d"/>
    <path id="Trazado_110870" data-name="Trazado 110870" d="M12.167,23H7.233a1.233,1.233,0,1,0,0,2.467h4.933a1.233,1.233,0,1,0,0-2.467Z" transform="translate(0.933 5.133)" fill="#47286d"/>
    <path id="Trazado_110871" data-name="Trazado 110871" d="M42.44,30.029a1.238,1.238,0,0,0-2.146,1.233l5.439,9.41L26,48.073h-.185l-3.207,1.85-2.134,1.233a2.463,2.463,0,0,1-3.367-.9l-2.467-4.267a2.467,2.467,0,0,1,.925-3.256l4.267-2.467,3.083,5.34a1.238,1.238,0,1,0,2.146-1.233l-3.182-5.5L37.359,26.107l.506.876A1.238,1.238,0,0,0,40.01,25.75l-1.233-2.134a1.25,1.25,0,0,0-1.862-.333L19.648,37.516,14.394,40.55a4.933,4.933,0,0,0-2.269,5.587l-1.233.7a3.7,3.7,0,0,0,1.85,6.907,3.774,3.774,0,0,0,1.85-.493l1.233-.7a4.785,4.785,0,0,0,2.158,1.283,4.674,4.674,0,0,0,1.3.173,4.859,4.859,0,0,0,2.467-.666l1.073-.617L25.284,57a3.7,3.7,0,1,0,6.4-3.7l-2.245-3.91,18.5-6.944a1.237,1.237,0,0,0,.641-1.764ZM13.309,51.107a1.232,1.232,0,1,1-1.233-2.134l1.073-.617,1.233,2.134ZM29.539,54.56a1.232,1.232,0,0,1-2.134,1.233l-2.467-4.28,2.047-1.172h.1Z" transform="translate(1.641 5.134)" fill="#47286d"/>
  </g>
</svg>
