<svg xmlns="http://www.w3.org/2000/svg" width="76.667" height="76.667" viewBox="0 0 76.667 76.667">
  <g id="crm_1_" data-name="crm (1)" transform="translate(-1 -1)">
    <path id="Trazado_110872" data-name="Trazado 110872" d="M71.021,62.542a7.4,7.4,0,0,0-3.247-13.205V47.989a6.19,6.19,0,0,0-6.183-6.183H40.57V37.3a3.832,3.832,0,0,0,6.169-2.927,3.849,3.849,0,0,0,3.71-3.71,3.849,3.849,0,0,0,3.71-3.71,3.851,3.851,0,0,0,2.593-6.575l-.257-.257A11.722,11.722,0,0,0,39.333,4.22,11.718,11.718,0,0,0,22.794,20.813a3.834,3.834,0,0,0,2.95,6.141,3.849,3.849,0,0,0,3.71,3.71,3.849,3.849,0,0,0,3.71,3.71,3.8,3.8,0,0,0,4.933,3.55v3.883H17.075a6.19,6.19,0,0,0-6.183,6.183v1.348A7.4,7.4,0,0,0,7.645,62.542,11.141,11.141,0,0,0,1,72.72v4.946H23.258V72.72a11.141,11.141,0,0,0-6.645-10.178,7.4,7.4,0,0,0-3.247-13.205V47.989a3.714,3.714,0,0,1,3.71-3.71H38.1v5.058a7.4,7.4,0,0,0-3.247,13.205A11.141,11.141,0,0,0,28.2,72.72v4.946H50.462V72.72a11.141,11.141,0,0,0-6.645-10.178A7.4,7.4,0,0,0,40.57,49.337V44.279H61.591a3.714,3.714,0,0,1,3.71,3.71v1.348a7.4,7.4,0,0,0-3.247,13.205A11.141,11.141,0,0,0,55.408,72.72v4.946H77.667V72.72a11.141,11.141,0,0,0-6.645-10.178ZM47.389,3.473a9.246,9.246,0,0,1,7.339,14.882l-5.686-5.686a9.987,9.987,0,0,0,1.058-.9l-1.748-1.748a7.164,7.164,0,0,1-5.1,2.111h-1.96L39.184,14.24a1.231,1.231,0,0,1-.875.362H33.662a.512.512,0,0,1-.362-.874l7.544-7.544a9.2,9.2,0,0,1,6.545-2.711Zm-16.112,0a9.185,9.185,0,0,1,6.3,2.484L31.55,11.979a2.986,2.986,0,0,0,2.112,5.1h4.646a3.687,3.687,0,0,0,2.624-1.087L42.318,14.6h.936a9.667,9.667,0,0,0,3.548-.675l8.2,8.2a1.387,1.387,0,0,1-1.961,1.961L50.1,21.147,48.351,22.9l2.942,2.942A1.387,1.387,0,0,1,49.332,27.8L46.39,24.857l-1.748,1.748,2.942,2.942a1.387,1.387,0,0,1-1.961,1.961l-2.942-2.942-1.748,1.748,2.942,2.942a1.387,1.387,0,0,1-1.961,1.961L41.5,34.8a3.847,3.847,0,0,0-3.417-5.351,3.849,3.849,0,0,0-3.71-3.71,3.849,3.849,0,0,0-3.71-3.71,3.857,3.857,0,0,0-3.846-3.723,3.815,3.815,0,0,0-2.273.756A9.246,9.246,0,0,1,31.277,3.473ZM24.495,23.108a1.381,1.381,0,0,1,.406-.981l.937-.937A1.387,1.387,0,0,1,27.8,23.152l-.937.937a1.387,1.387,0,0,1-2.367-.981Zm3.71,3.71a1.381,1.381,0,0,1,.406-.981l.937-.937a1.387,1.387,0,0,1,1.961,1.961l-.937.937a1.387,1.387,0,0,1-2.367-.981Zm3.71,3.71a1.381,1.381,0,0,1,.406-.981l.937-.937a1.387,1.387,0,0,1,1.961,1.961l-.937.937a1.387,1.387,0,0,1-2.367-.981Zm5.1,5.1a1.387,1.387,0,0,1-.981-2.367l.937-.937a1.387,1.387,0,0,1,1.961,1.961l-.937.937A1.381,1.381,0,0,1,37.01,35.624ZM20.785,72.72v2.473H18.312V70.247H15.839v4.946H8.419V70.247H5.946v4.946H3.473V72.72a8.656,8.656,0,0,1,17.312,0Zm-3.71-16.075A4.946,4.946,0,1,1,12.129,51.7,4.951,4.951,0,0,1,17.075,56.645ZM47.989,72.72v2.473H45.516V70.247H43.043v4.946H35.624V70.247H33.15v4.946H30.677V72.72a8.656,8.656,0,0,1,17.312,0Zm-3.71-16.075A4.946,4.946,0,1,1,39.333,51.7,4.951,4.951,0,0,1,44.279,56.645Zm17.312,0a4.946,4.946,0,1,1,4.946,4.946A4.951,4.951,0,0,1,61.591,56.645Zm13.6,18.548H72.72V70.247H70.247v4.946H62.828V70.247H60.355v4.946H57.882V72.72a8.656,8.656,0,0,1,17.312,0Z" transform="translate(0 0)" fill="#47286d"/>
    <path id="Trazado_110873" data-name="Trazado 110873" d="M38,38h2.473v2.473H38Z" transform="translate(8.753 8.753)" fill="#47286d"/>
    <path id="Trazado_110874" data-name="Trazado 110874" d="M42,38h2.473v2.473H42Z" transform="translate(9.699 8.753)" fill="#47286d"/>
    <path id="Trazado_110875" data-name="Trazado 110875" d="M46,38h2.473v2.473H46Z" transform="translate(10.645 8.753)" fill="#47286d"/>
    <path id="Trazado_110876" data-name="Trazado 110876" d="M16,38h2.473v2.473H16Z" transform="translate(3.548 8.753)" fill="#47286d"/>
    <path id="Trazado_110877" data-name="Trazado 110877" d="M20,38h2.473v2.473H20Z" transform="translate(4.495 8.753)" fill="#47286d"/>
    <path id="Trazado_110878" data-name="Trazado 110878" d="M24,38h2.473v2.473H24Z" transform="translate(5.441 8.753)" fill="#47286d"/>
  </g>
</svg>
