<svg xmlns="http://www.w3.org/2000/svg" xmlns:xlink="http://www.w3.org/1999/xlink" width="243" height="133" viewBox="0 0 243 133"><defs><clipPath id="a"><path d="M234.718,250.112a1.915,1.915,0,0,0-1.772-1.19h-48.7l-3.906,9.566h57.795Z" transform="translate(-180.344 -248.922)" fill="none"/></clipPath><clipPath id="b"><path d="M147.394,327.917s-2.821-19.181,2.538-32.438,12.41-19.179,12.41-19.179-1.974-20.873,3.385-21.437,5.359-1.128,5.359,8.462,3.1,30.745.281,30.745-7.9,7.616-8.462,16.924a77.653,77.653,0,0,0,.847,16.924Z" transform="translate(-146.652 -254.597)" fill="none"/></clipPath></defs><g transform="translate(-1136 -3166)"><g transform="translate(1136 3166)" fill="#fff" stroke="#707070" stroke-width="1" opacity="0"><rect width="243" height="133" stroke="none"/><rect x="0.5" y="0.5" width="242" height="132" fill="none"/></g><g transform="translate(1032.523 2944.272)"><g transform="translate(147.05 258.939)"><path d="M147.394,327.917s-2.821-19.181,2.538-32.438,12.41-19.179,12.41-19.179-1.974-20.873,3.385-21.437,5.359-1.128,5.359,8.462,3.1,30.745.281,30.745-7.9,7.616-8.462,16.924a77.653,77.653,0,0,0,.847,16.924Z" transform="translate(-146.652 -254.597)" fill="#f2be79"/></g><g transform="translate(164.634 260.867)"><path d="M164.688,258.72a2.285,2.285,0,1,1-1.9-2.614A2.285,2.285,0,0,1,164.688,258.72Z" transform="translate(-160.146 -256.077)" fill="#ef9a6f"/></g><g transform="translate(168.181 240.269)"><path d="M262.967,309.474H169.086a6.133,6.133,0,0,1-6.218-6.043V246.314a6.134,6.134,0,0,1,6.218-6.045h93.881a6.134,6.134,0,0,1,6.218,6.045v57.117A6.133,6.133,0,0,1,262.967,309.474Z" transform="translate(-162.868 -240.269)" fill="#4396ca"/></g><g transform="translate(173.107 244.582)"><path d="M254.529,304.16H172.27a5.464,5.464,0,0,1-5.621-5.292v-50a5.464,5.464,0,0,1,5.621-5.29h82.259a5.464,5.464,0,0,1,5.621,5.29v50A5.464,5.464,0,0,1,254.529,304.16Z" transform="translate(-166.649 -243.579)" fill="#d8b8ff"/></g><g transform="translate(195.848 259.628)"><rect width="48.021" height="33.636" rx="1.583" fill="#61b3db"/></g><g transform="translate(205.742 269.52)"><rect width="28.233" height="13.735" rx="1.903" fill="#025482"/></g><g transform="translate(213.428 274.246)"><path d="M197.593,270.815v-4.471h2.269a1.335,1.335,0,0,1,1.032.357,1.179,1.179,0,0,1,.324.816,1.03,1.03,0,0,1-.189.6.963.963,0,0,1-.562.371,1,1,0,0,1,.868,1.041,1.406,1.406,0,0,1-.306.89,1.638,1.638,0,0,1-1.308.391Zm1.264-2.757h.635a.382.382,0,0,0,.436-.38c0-.249-.154-.373-.459-.373h-.612Zm0,1.762h.667a.483.483,0,0,0,.366-.124.391.391,0,0,0,.116-.276.419.419,0,0,0-.113-.283.532.532,0,0,0-.414-.129h-.622Z" transform="translate(-197.593 -266.344)" fill="#fff"/><path d="M204.793,266.344V269.3a1.407,1.407,0,0,1-.5,1.211,2.14,2.14,0,0,1-1.3.367,2.351,2.351,0,0,1-1.358-.353,1.3,1.3,0,0,1-.512-1.152v-3.033h1.4v2.872a.677.677,0,0,0,.136.469.564.564,0,0,0,.433.147.709.709,0,0,0,.407-.107.409.409,0,0,0,.189-.241,2.785,2.785,0,0,0,.031-.524v-2.616Z" transform="translate(-196.524 -266.344)" fill="#fff"/><path d="M208.593,266.344l-1.4,2.577v1.893h-1.333v-1.893l-1.5-2.577h1.5l.783,1.474.752-1.474Z" transform="translate(-195.543 -266.344)" fill="#fff"/></g><g transform="translate(190.952 251.544)"><path d="M234.574,249.757a1.344,1.344,0,0,0-1.244-.835h-48a1.6,1.6,0,0,0-1.482,1l-3.5,8.57h57.795Z" transform="translate(-180.344 -248.922)" fill="#fcd26d"/><g transform="translate(0 9.566)"><path d="M182.2,259.36h-.036a1.817,1.817,0,0,1-1.818-1.816v-1.281h3.671v1.281A1.816,1.816,0,0,1,182.2,259.36Z" transform="translate(-180.344 -256.263)" fill="#efc036"/></g><g transform="translate(7.477 9.566)"><path d="M188.106,259.36h-.039a1.906,1.906,0,0,1-1.985-1.816v-1.281h4.008v1.281A1.906,1.906,0,0,1,188.106,259.36Z" transform="translate(-186.082 -256.263)" fill="#efc036"/></g><g transform="translate(15.072 9.566)"><path d="M194.019,259.36h-.042a1.954,1.954,0,0,1-2.067-1.816v-1.281h4.176v1.281A1.954,1.954,0,0,1,194.019,259.36Z" transform="translate(-191.911 -256.263)" fill="#efc036"/></g><g transform="translate(22.836 9.566)"><path d="M200.011,259.36h-.042a1.973,1.973,0,0,1-2.1-1.816v-1.281h4.243v1.281A1.973,1.973,0,0,1,200.011,259.36Z" transform="translate(-197.869 -256.263)" fill="#efc036"/></g><g transform="translate(30.699 9.566)"><path d="M206,259.36h-.042a1.949,1.949,0,0,1-2.059-1.816v-1.281h4.159v1.281A1.949,1.949,0,0,1,206,259.36Z" transform="translate(-203.904 -256.263)" fill="#efc036"/></g><g transform="translate(38.395 9.566)"><path d="M211.91,259.36h-.042a1.949,1.949,0,0,1-2.059-1.816v-1.281h4.159v1.281A1.949,1.949,0,0,1,211.91,259.36Z" transform="translate(-209.81 -256.263)" fill="#efc036"/></g><g transform="translate(46.226 9.566)"><path d="M217.877,259.36h-.04a1.925,1.925,0,0,1-2.017-1.816v-1.281h4.075v1.281A1.925,1.925,0,0,1,217.877,259.36Z" transform="translate(-215.82 -256.263)" fill="#efc036"/></g><g transform="translate(54.039 9.566)"><path d="M223.721,259.36h-.038a1.843,1.843,0,0,1-1.867-1.816v-1.281h3.772v1.281A1.842,1.842,0,0,1,223.721,259.36Z" transform="translate(-221.816 -256.263)" fill="#efc036"/></g><g transform="translate(3.671 9.566)"><path d="M185.083,259.36h-.038a1.852,1.852,0,0,1-1.884-1.816v-1.281h3.806v1.281A1.851,1.851,0,0,1,185.083,259.36Z" transform="translate(-183.161 -256.263)" fill="#f4efe9"/></g><g transform="translate(11.485 9.566)"><path d="M190.969,259.36h-.035a1.8,1.8,0,0,1-1.776-1.816v-1.281h3.587v1.281A1.8,1.8,0,0,1,190.969,259.36Z" transform="translate(-189.158 -256.263)" fill="#f4efe9"/></g><g transform="translate(19.239 9.566)"><path d="M196.938,259.36H196.9a1.8,1.8,0,0,1-1.793-1.816v-1.281h3.621v1.281A1.8,1.8,0,0,1,196.938,259.36Z" transform="translate(-195.109 -256.263)" fill="#f4efe9"/></g><g transform="translate(27.087 9.566)"><path d="M202.96,259.36h-.036a1.8,1.8,0,0,1-1.792-1.816v-1.281h3.62v1.281A1.8,1.8,0,0,1,202.96,259.36Z" transform="translate(-201.132 -256.263)" fill="#f4efe9"/></g><g transform="translate(34.851 9.566)"><path d="M208.875,259.36h-.035a1.784,1.784,0,0,1-1.75-1.816v-1.281h3.536v1.281A1.785,1.785,0,0,1,208.875,259.36Z" transform="translate(-207.09 -256.263)" fill="#f4efe9"/></g><g transform="translate(42.547 9.566)"><path d="M214.867,259.36h-.038A1.825,1.825,0,0,1,213,257.544v-1.281h3.7v1.281A1.825,1.825,0,0,1,214.867,259.36Z" transform="translate(-212.996 -256.263)" fill="#f4efe9"/></g><g transform="translate(50.293 9.566)"><path d="M220.846,259.36h-.038a1.842,1.842,0,0,1-1.867-1.816v-1.281h3.772v1.281A1.843,1.843,0,0,1,220.846,259.36Z" transform="translate(-218.941 -256.263)" fill="#f4efe9"/></g><g clip-path="url(#a)"><g transform="translate(27.079 -1.213)"><rect width="3.638" height="15.493" fill="#fff"/></g><g transform="translate(18.745 -2.021)"><path d="M198.329,263.18l-3.6-.527,2.1-15.282,3.4.37Z" transform="translate(-194.73 -247.371)" fill="#fff"/></g><g transform="translate(10.747 -2.762)"><path d="M192.115,262.706l-3.523-.906,4.14-15,2.863.909Z" transform="translate(-188.592 -246.802)" fill="#fff"/></g><g transform="translate(33.411 -2.088)"><path d="M207.966,263.2l3.6-.527-2.516-15.349-3.065.505Z" transform="translate(-205.985 -247.319)" fill="#fff"/></g><g transform="translate(46.478 -2.713)"><path d="M221.022,262.638l3.415-1.252-5.332-14.546L216.014,248Z" transform="translate(-216.014 -246.84)" fill="#fff"/></g><g transform="translate(2.856 -2.713)"><path d="M185.951,262.638l-3.415-1.252,5.332-14.546L190.959,248Z" transform="translate(-182.535 -246.84)" fill="#fff"/></g><g transform="translate(39.608 -2.695)"><path d="M214.6,262.69l3.523-.906-4.148-14.93-3.233.832Z" transform="translate(-210.741 -246.854)" fill="#fff"/></g></g></g><g transform="translate(208.822 286.33)"><g transform="translate(6.322 9.504)"><path d="M208.152,286.308H200.6a1.687,1.687,0,0,1-1.686-1.685V284.6a1.687,1.687,0,0,1,1.686-1.686h7.556a.44.44,0,0,1,0,.881H200.6a.806.806,0,0,0-.805.805v.025a.806.806,0,0,0,.805.8h7.556a.44.44,0,1,1,0,.881Z" transform="translate(-198.91 -282.912)" fill="#fff"/></g><g transform="translate(4.614 2.508)"><path d="M200.223,285.413a.331.331,0,0,1-.317-.236l-2.308-7.634h12.883l-1.458,7.6a.33.33,0,0,1-.649-.125l1.307-6.816H198.489l2.051,6.782a.333.333,0,0,1-.222.413A.342.342,0,0,1,200.223,285.413Z" transform="translate(-197.599 -277.543)" fill="#fff"/></g><g transform="translate(2.012 0.22)"><path d="M198.648,278.736a.332.332,0,0,1-.311-.219l-.738-2.068h-1.667a.331.331,0,1,1,0-.662h2.133l.894,2.507a.332.332,0,0,1-.311.442Z" transform="translate(-195.602 -275.787)" fill="#fff"/></g><path d="M196.4,276.72h-1.789a.551.551,0,1,1,0-1.1H196.4a.551.551,0,0,1,0,1.1Z" transform="translate(-194.058 -275.618)" fill="#fff"/><g transform="translate(6.29 13.18)"><circle cx="1.515" cy="1.515" r="1.515" fill="#fff"/></g><g transform="translate(13.414 13.18)"><circle cx="1.515" cy="1.515" r="1.515" fill="#fff"/></g><g transform="translate(7.098 13.988)"><circle cx="0.707" cy="0.707" r="0.707" fill="#4396ca"/></g><g transform="translate(14.295 13.988)"><circle cx="0.707" cy="0.707" r="0.707" fill="#4396ca"/></g><g transform="translate(7.254 2.778)"><path d="M201.13,285.168a.332.332,0,0,1-.326-.274l-1.174-6.756a.33.33,0,1,1,.65-.113l1.175,6.756a.332.332,0,0,1-.268.383A.446.446,0,0,1,201.13,285.168Z" transform="translate(-199.625 -277.75)" fill="#fff"/></g><g transform="translate(9.64 2.706)"><path d="M202.227,285.038a.33.33,0,0,1-.33-.307l-.44-6.683a.33.33,0,0,1,.659-.044l.44,6.683a.329.329,0,0,1-.308.352Z" transform="translate(-201.456 -277.694)" fill="#fff"/></g><g transform="translate(13.533 2.779)"><path d="M204.775,285.168a.352.352,0,0,1-.052,0,.33.33,0,0,1-.275-.378l1.065-6.756a.33.33,0,1,1,.653.1l-1.065,6.756A.331.331,0,0,1,204.775,285.168Z" transform="translate(-204.444 -277.751)" fill="#fff"/></g><g transform="translate(11.77 2.706)"><path d="M203.422,285.038h-.017a.332.332,0,0,1-.314-.347l.331-6.683a.331.331,0,0,1,.661.033l-.331,6.683A.33.33,0,0,1,203.422,285.038Z" transform="translate(-203.091 -277.695)" fill="#fff"/></g><g transform="translate(5.454 4.836)"><path d="M209.15,279.99H198.575a.33.33,0,1,1,0-.661H209.15a.33.33,0,0,1,0,.661Z" transform="translate(-198.244 -279.329)" fill="#fff"/></g><g transform="translate(6.335 7.185)"><path d="M208.578,281.793h-9.327a.33.33,0,1,1,0-.661h9.327a.33.33,0,1,1,0,.661Z" transform="translate(-198.92 -281.132)" fill="#fff"/></g></g><g transform="translate(269.254 267.879)"><path d="M242.763,274.615a1.108,1.108,0,0,1-1.164,1.041h0a1.108,1.108,0,0,1-1.164-1.041V262.5a1.107,1.107,0,0,1,1.164-1.041h0a1.107,1.107,0,0,1,1.164,1.041Z" transform="translate(-240.436 -261.458)" fill="#2d80aa"/></g><g transform="translate(263.775 287.532)"><path d="M253.1,321.268s-11.283-.283-15.231-5.078,0-7.615,3.948-5.358,12.772,3.487,14.95-.142c2.538-4.231,2.418-9.025,2.257-14.948s-3.892-10.859-6.43-11c-5.077-.283-15.712,1.127-15.429-1.975.306-3.371,7.883-3.471,10.185-3.065a2.014,2.014,0,0,0,2.113-1.012c.506-.912,2.835-1.738,5.048-1.423a12.681,12.681,0,0,1,2.6.563,1.1,1.1,0,0,0,1.152-.421,4.663,4.663,0,0,1,4.142-.706c3.667.847,6.545.59,9.026,8.6,3.667,11.847,2.216,18.145-2.538,24.257-1.974,2.54,8.21-.139,8.179.424-.3,5.331-.281,11.564-.281,11.564Z" transform="translate(-236.231 -276.541)" fill="#f2be79"/></g><g transform="translate(239 295.732)"><rect width="43.053" height="25.949" rx="1.471" fill="#025482"/></g><g transform="translate(239 310.771)"><rect width="43.053" height="5.308" fill="#062c3f"/></g><g transform="translate(265.308 322.424)"><circle cx="1.796" cy="1.796" r="1.796" fill="#ef9a6f"/></g><g transform="translate(265.59 290.833)"><path d="M241.193,281.151A1.8,1.8,0,1,1,239.7,279.1,1.8,1.8,0,0,1,241.193,281.151Z" transform="translate(-237.624 -279.074)" fill="#ef9a6f"/></g><g transform="translate(147.05 258.939)"><g clip-path="url(#b)"><g transform="translate(-9.976 43.563)"><path d="M146.329,288.029l23.411,8.462,1.974,25.667L139,319.62Z" transform="translate(-138.995 -288.029)" fill="#abedff"/></g></g></g><g transform="translate(145.337 301.724)"><rect width="5.32" height="20.617" transform="translate(0 5.085) rotate(-72.908)" fill="#cff6ff"/></g></g></g></svg>