<svg xmlns="http://www.w3.org/2000/svg" xmlns:xlink="http://www.w3.org/1999/xlink" width="312.511" height="306.462" viewBox="0 0 312.511 306.462">
  <defs>
    <linearGradient id="linear-gradient" y1="0.5" x2="1" y2="0.5" gradientUnits="objectBoundingBox">
      <stop offset="0" stop-color="#aa80f9"/>
      <stop offset="0.996" stop-color="#6165d7"/>
    </linearGradient>
    <linearGradient id="linear-gradient-2" x1="6.927" y1="-0.101" x2="5.633" y2="0.57" gradientUnits="objectBoundingBox">
      <stop offset="0" stop-color="#ab316d"/>
      <stop offset="1" stop-color="#792d3d"/>
    </linearGradient>
    <linearGradient id="linear-gradient-3" x1="5.183" y1="-0.732" x2="3.741" y2="0.228" xlink:href="#linear-gradient-2"/>
    <linearGradient id="linear-gradient-4" x1="8.774" y1="-0.181" x2="8.774" y2="-1.384" xlink:href="#linear-gradient-2"/>
    <linearGradient id="linear-gradient-5" x1="7.924" y1="0.097" x2="7.924" y2="-0.775" xlink:href="#linear-gradient-2"/>
    <linearGradient id="linear-gradient-6" x1="1.023" y1="0.381" x2="2.104" y2="0.381" gradientUnits="objectBoundingBox">
      <stop offset="0" stop-color="#311944"/>
      <stop offset="1" stop-color="#893976"/>
    </linearGradient>
    <linearGradient id="linear-gradient-7" x1="0.354" y1="-0.738" x2="1.639" y2="0.912" gradientUnits="objectBoundingBox">
      <stop offset="0" stop-color="#ff9085"/>
      <stop offset="1" stop-color="#fb6fbb"/>
    </linearGradient>
    <linearGradient id="linear-gradient-8" x1="3.629" y1="-0.444" x2="2.933" y2="0.431" xlink:href="#linear-gradient-2"/>
    <linearGradient id="linear-gradient-9" x1="2.604" y1="-0.278" x2="3.57" y2="-0.278" gradientUnits="objectBoundingBox">
      <stop offset="0" stop-color="#311944"/>
      <stop offset="1" stop-color="#6b3976"/>
    </linearGradient>
    <linearGradient id="linear-gradient-10" x1="-21.327" y1="-19.463" x2="-24.673" y2="-13.569" xlink:href="#linear-gradient-2"/>
    <linearGradient id="linear-gradient-11" x1="2.694" y1="-3.362" x2="3.233" y2="-1.113" gradientUnits="objectBoundingBox">
      <stop offset="0.004" stop-color="#e38ddd"/>
      <stop offset="1" stop-color="#9571f6"/>
    </linearGradient>
    <linearGradient id="linear-gradient-12" x1="0.24" y1="-0.094" x2="0.655" y2="0.741" xlink:href="#linear-gradient-6"/>
  </defs>
  <g id="Grupo_62877" data-name="Grupo 62877" transform="translate(-441.879 -455)">
    <path id="Trazado_111050" data-name="Trazado 111050" d="M603,455.069c-80-2.33-149.3,54.917-159.77,130.031-11.447,82.128,51.557,156.023,129.08,167.858,96.426,14.721,189.954-70.443,181.556-162.833C747.538,520.516,684.321,457.437,603,455.069Z" transform="translate(0 0)" fill="#bb83ff" opacity="0.11"/>
    <g id="Grupo_62863" data-name="Grupo 62863" transform="translate(608.016 689.927)">
      <g id="Grupo_62862" data-name="Grupo 62862">
        <path id="Trazado_111051" data-name="Trazado 111051" d="M1975.563,2666.456a31.628,31.628,0,0,1-11.188-10.989c-3.434-5.8-6.683-15.838-2.855-19.277a5.1,5.1,0,0,1,5.513-.814c2.307,1.374.946,4.847,3.333,10.527.441,1.049,2.721,6.476,5.277,6.282,1.27-.1,2.353-1.563,2.794-2.866,1.29-3.809-2.809-6.506-5.1-12.444-2.327-6.021-2.508-14.616,1.8-18.25,2.475-2.088,6.592-2.674,8.329-1.087.742.679.943,1.657.78,8.633-.134,5.726-.323,7.321.852,8.448a4.709,4.709,0,0,0,5.258.688c4.012-2.592-2.849-12.706,1.344-23.419,1.879-4.8,6.486-11.021,11.381-10.433a8.412,8.412,0,0,1,6.767,7.191c.163,2.979-2.293,3.952-3.872,9.687-.479,1.74-1.465,5.322-.232,6.141,1.448.962,5.231-2.362,6.131-3.182,6.775-6.175,5.258-11.809,9.924-14.129,3.639-1.809,9.028-.6,12.125,2.736a10.82,10.82,0,0,1,2.225,11.106c-1.545,3.6-6.218,5.645-15.563,9.732-4.432,1.938-7.762,3.083-9.256,6.441-.728,1.637-1.2,4.21-.153,4.982,2.316,1.7,8.594-7.908,15.39-6.528a9.152,9.152,0,0,1,6.843,7.782c.388,4.416-3.364,8.56-7.2,9.823-5.006,1.648-7.235-2.571-15.34-2.142-3.6.19-9.677,1.365-10.392,4.458a4.014,4.014,0,0,0,1.685,3.992c2.94,1.884,6.477-2.713,12.587-2.495,4.4.157,9.3,2.784,9.487,5.4.261,3.694-8.885,7.292-13.459,8.62C2005.241,2672.677,1992.99,2674.854,1975.563,2666.456Z" transform="translate(-1959.793 -2601.417)" fill="#31d9e7"/>
        <path id="Trazado_111052" data-name="Trazado 111052" d="M2126.854,2809.342c3.693-8.783,17.894-23.388,26.048-29.585,7.979-6.063,18.085-16.893,18.186-17l.213.2c-.1.109-10.224,10.957-18.222,17.035-8.129,6.177-22.281,20.727-25.956,29.465Z" transform="translate(-2108.569 -2745.097)" fill="#31d9e7" opacity="0.5" style="mix-blend-mode: soft-light;isolation: isolate"/>
      </g>
    </g>
    <g id="Grupo_62865" data-name="Grupo 62865" transform="translate(510.498 690.076)">
      <g id="Grupo_62864" data-name="Grupo 62864">
        <path id="Trazado_111053" data-name="Trazado 111053" d="M1134.064,2665.334a31.629,31.629,0,0,0,10.219-11.9c2.932-6.067,5.319-16.347,1.215-19.45a5.1,5.1,0,0,0-5.563-.346c-2.182,1.564-.533,4.91-2.431,10.771-.351,1.083-2.164,6.683-4.727,6.706-1.274.011-2.477-1.358-3.026-2.619-1.607-3.686,2.248-6.721,4.033-12.832,1.809-6.2,1.263-14.775-3.335-18.032-2.642-1.872-6.794-2.107-8.391-.378-.682.739-.8,1.73-.047,8.667.618,5.694.941,7.268-.134,8.49a4.709,4.709,0,0,1-5.181,1.13c-4.217-2.243,1.764-12.9-3.32-23.221-2.278-4.625-7.395-10.433-12.223-9.433a8.411,8.411,0,0,0-6.135,7.737c.09,2.982,2.619,3.744,4.677,9.325.624,1.693,1.91,5.179.75,6.1-1.361,1.081-5.412-1.911-6.378-2.653-7.273-5.579-6.238-11.322-11.083-13.239-3.779-1.495-9.047.161-11.85,3.751a10.82,10.82,0,0,0-1.278,11.254c1.844,3.458,6.673,5.1,16.331,8.382,4.58,1.556,8,2.415,9.767,5.635.864,1.57,1.554,4.093.574,4.951-2.163,1.894-9.232-7.153-15.887-5.2a9.152,9.152,0,0,0-6.16,8.333c-.013,4.433,4.076,8.245,8.006,9.179,5.127,1.219,6.991-3.173,15.1-3.432,3.6-.115,9.758.542,10.732,3.563a4.014,4.014,0,0,1-1.341,4.121c-2.77,2.126-6.684-2.156-12.753-1.421-4.372.529-9.034,3.561-9,6.183.053,3.7,9.47,6.515,14.14,7.451C1105.02,2674.043,1117.411,2675.176,1134.064,2665.334Z" transform="translate(-1068.818 -2602.78)" fill="#f17781"/>
        <path id="Trazado_111054" data-name="Trazado 111054" d="M1249.164,2821.767c-4.423-8.439-19.808-21.791-28.457-27.276-8.463-5.366-19.448-15.3-19.558-15.4l-.2.216c.11.1,11.114,10.053,19.6,15.433,8.622,5.468,23.954,18.768,28.355,27.164Z" transform="translate(-1186.491 -2759.792)" fill="#f17781" opacity="0.5" style="mix-blend-mode: soft-light;isolation: isolate"/>
      </g>
    </g>
    <g id="Grupo_62869" data-name="Grupo 62869" transform="translate(502.293 467.929)">
      <g id="Grupo_62868" data-name="Grupo 62868">
        <path id="Trazado_111055" data-name="Trazado 111055" d="M1177.719,665.077a91.315,91.315,0,0,1-16.544,52.363c-.041.061-.259.12-.259.181v0a91.107,91.107,0,0,1-75.291,39.211,48.117,48.117,0,0,1-7.434-.508h0c-.01,0-.015.194-.026.194-1.232-.1-2.454-.128-3.671-.278-.433-.051-.865-.058-1.3-.119-.382-.051-.761-.08-1.14-.138-.331-.048-.659-.087-.985-.141-.074-.013-.148-.019-.222-.029-.8-.132-1.6-.269-2.4-.422h-.013A92.244,92.244,0,0,1,997.9,637.838c.417-1.349.9-2.683,1.283-4v0c.765-2.2,1.734-4.363,2.689-6.484.384-.848.81-1.69,1.214-2.525a92,92,0,0,1,7.8-13.082c.267-.374.545-.746.817-1.118q1.634-2.222,3.4-4.34,2.646-3.177,5.567-6.107a92.335,92.335,0,0,1,16.851-13.365q2.845-1.76,5.828-3.315a92.028,92.028,0,0,1,100.244,10.045,92.3,92.3,0,0,1,26.856,35.482c1.329,3.111,2.319,6.308,3.466,9.582v0c0,.015-.014.026-.009.041A91.85,91.85,0,0,1,1177.719,665.077Z" transform="translate(-993.851 -573.123)" fill="#31d9e7"/>
        <g id="Grupo_62867" data-name="Grupo 62867" transform="translate(4.047 3.406)" opacity="0.36">
          <path id="Trazado_111056" data-name="Trazado 111056" d="M1764.4,2250.547v0h.008l-.005,0Z" transform="translate(-1684.111 -2070.355)" fill="#47286d"/>
          <path id="Trazado_111057" data-name="Trazado 111057" d="M1138.775,723.789c-1.973,2.78-8.078,6.349-3.936,13.36,4.106,6.993-.285,8.3-3.111,7.65s-11.662-1.008-10.191,3,3.994,5.519.761,7.07-4.6,5.573-7.9,11.12c-3.284,5.557-11.089.751-8.778,6.321s4.106,5.033,3.89,8.915a4.837,4.837,0,0,0,1.614,3.2c-1.232-.1-2.469-.227-3.7-.377-.433-.051-.865-.107-1.3-.168-.382-.051-.761-.1-1.14-.163q-.5-.073-.985-.153c-.074-.013-.024-.026-.1-.036-.789-.132-1.441-.275-2.205-.425v0c-.765-.657-.289-1.37-.185-2.138,1.031-7.169-8.875-12.095-10.532-17.117-1.629-5.01-.028-8-.405-12.151s.965-9.641-1.421-13.133-12-4.646-13.834-11.669c-1.843-7.009,2.443-17.5,4.107-19.292,1.644-1.787-7.962-9.918-12.535-10.178-4.592-.28-2.755-9.526-10.52-8.118-7.78,1.365-21.756-2.976-18.869-7.645,2.383-3.846,6.381-12.331-6.676-16.114.418-1.349.9-2.683,1.28-4v0c.765-2.2,1.734-4.363,2.689-6.484.384-.848.81-1.69,1.214-2.525a92.483,92.483,0,0,1,7.8-13.082c.267-.374.545-.746.817-1.118q1.638-2.222,3.4-4.34,2.646-3.177,5.567-6.107a92.337,92.337,0,0,1,16.851-13.365c2.586,1.813,5.54,2.93,8.091,1.553,6.255-3.5,2.131-4.038-.43-4.167a3.3,3.3,0,0,1-1.833-.7,91.057,91.057,0,0,1,15.127-6.24c-.39,3.531-5.188,9.2-1.657,8.51,4.109-.781,5.786-11.883,8.8-8.195,3.06,3.7-3.348,8.559,2.67,5.746,6.026-2.785,6.83-9,13.546-5.977,6.749,3.063,6.133,6.688,8.016,6.329s7.945,3.724,4.274,7.08c-3.7,3.366-7.1-.921-12.652-2.215-5.555-1.278-5.42,3.266-7.976,4.3-2.6,1-15.137-5.056-18.215.42-3.111,5.433-4.435,9.223.183,9.083s4.911-1.324,4.549,2.088.471,5.97,4.651,2.76,3.233-6.331,6.492-4.8,3.646.145,7.113-2.373,8.024-2.78,9.218,2.869-.848,6.919-6.942,7.2-6.787-1.627-8.729,3.47-10,11.647-17.077,14.345-9.837,6.7-9.674,12.087-2.49,11.094-4.264,6.644-6.777-11.978-11.873-6.955-13.994,13.93-4.172,15.557c9.8,1.657,4.687-7.525,9.641-5.69s-3.134,5.9.173,7.357,4.7.784,4.674,5.3,1.1,8.892,5.117,6.978,9.177-10.751,14.989-5.519,5.407,4.562,8.46,3.035,4.992,3.047,6.242,5.13,6.153-.043,10.127,6.153,5.529,7.3,10.058,5.071,6.375-.573,7.556,2.556,3.966.071,5.311,4.206S1140.735,721.007,1138.775,723.789Z" transform="translate(-1030.831 -604.239)" fill="#47286d"/>
          <g id="Grupo_62866" data-name="Grupo 62866" transform="translate(118.401 17.011)">
            <path id="Trazado_111058" data-name="Trazado 111058" d="M2155.295,787.129c-3.21-6.889,12.7-6.115,15.506-5.585,2.828.471,9.462-4.715,10.3-7.125.865-2.429,2.286-1.276,7.319-1.344,5.031-.054.585-1.191-4.951-3.017s-.8-2-5.9-6.026c-2.192-1.762-1.5-3.259-.041-4.371a92.243,92.243,0,0,1,26.834,35.482,1.742,1.742,0,0,0-.473-.081c-3.524-.02-4.3-7.81-6.115-9.328-1.79-1.515.051,4.279.489,6.66s-.965.379-2.721,2.566-4.949,2.23-5.237-1.054-2.6-6.494-7.288-7.991-8.742-.267-12.551,1.2C2166.687,788.56,2158.528,793.965,2155.295,787.129Z" transform="translate(-2150.243 -759.661)" fill="#47286d"/>
            <path id="Trazado_111059" data-name="Trazado 111059" d="M2157.584,1173.2c.318-2.365.837-4.809-.15-5.7-2.4-2.227-2.925-8.3-2.092-11.372s7.3-2.907,2.91-8.027c-4.4-5.135-8.368-11.229-6.52-14.714s1.288-3.735-2.177-3.714-4.99.173-8.444-2.912c-3.457-3.126-8.213,7.378-21.224-1.046-13.008-8.508-5.6-22.848-.725-22.884,4.906-.081,10.636-2.558,6.616-8.541-4.007-6.005,2.256-6.853,5.315-5.489,3.065,1.349,8.5-2.276,14.04-3.91s5.308,7.418,8.39,9.228c3.1,1.813,8.91.374,11.929-2.523,2.156-2.067,2.627.344,4.758,2.632a92.145,92.145,0,0,1-12.627,78.974Z" transform="translate(-2112.6 -1049.119)" fill="#47286d"/>
            <path id="Trazado_111060" data-name="Trazado 111060" d="M2282.788,788.124c0-.005,4.057-1.835,2.588-4.784s-3.765-11.987-5.452-9.139.8,8.416.258,10.813S2279.616,788.677,2282.788,788.124Z" transform="translate(-2261.075 -772.122)" fill="#47286d"/>
            <path id="Trazado_111061" data-name="Trazado 111061" d="M2232.318,842.494c-.057-.95.541-4.809-2.5-4.688.005-.006-4.392,1.829-1.819,4.947S2232.384,843.442,2232.318,842.494Z" transform="translate(-2214.653 -829.251)" fill="#47286d"/>
          </g>
        </g>
      </g>
      <path id="Trazado_111062" data-name="Trazado 111062" d="M1179.856,666.48a91.215,91.215,0,0,1-16.422,52.363c-.041.061-.137.12-.137.181v0a91.77,91.77,0,0,1-75.413,39.12,49.789,49.789,0,0,1-7.556-.6h0c-.01,0-.016.288-.026.288-1.232-.1-2.454-.084-3.671-.234-.433-.051-.866-.034-1.3-.1-.382-.051-.761-.068-1.14-.126-.331-.048-.66-.08-.985-.133-.074-.013-.148-.025-.222-.035a8.057,8.057,0,0,1-2.4-.428h-.013a92.261,92.261,0,0,1-74.05-80.422c9.213,26.427,31.995,46.01,60,51.745h.01a5.776,5.776,0,0,0,2.07.471c.064.008.13.07.193.08.28.046.565.113.85.153.326.051.654.1.985.146.372.053.743.091,1.118.134,1.051.13,2.105.555,3.169.642.01,0,.015.286.023.286h0c2.161,0,4.315-.01,6.522-.01a79.555,79.555,0,0,0,65.12-34.224c0-.053.086-.148.119-.2a78.389,78.389,0,0,0,10.705-68.072c0-.013-.178-.034-.178-.047v0a62.76,62.76,0,0,0-2.806-8.274,79.271,79.271,0,0,0-47.969-44.265,91.556,91.556,0,0,1,49.248,20.022,92.616,92.616,0,0,1,26.988,35.482c1.329,3.111,2.068,6.308,3.6,9.582v0c0,.015-.136.026-.131.041A91.8,91.8,0,0,1,1179.856,666.48Z" transform="translate(-996.232 -574.723)" opacity="0.2" fill="url(#linear-gradient)" style="mix-blend-mode: multiply;isolation: isolate"/>
    </g>
    <g id="Grupo_62872" data-name="Grupo 62872" transform="translate(556.535 612.046)">
      <path id="Trazado_111063" data-name="Trazado 111063" d="M1491.883,1898.481l-1.811-2.1a4.99,4.99,0,0,1-.151-4.618c1.176-2.616,2.466-1.784,2.466-1.784l-.506,1.867a3.718,3.718,0,0,0,.714,2.817,9.917,9.917,0,0,1,.983,3.328Z" transform="translate(-1489.435 -1889.853)" fill="url(#linear-gradient-2)"/>
      <path id="Trazado_111064" data-name="Trazado 111064" d="M2245.859,2049.239l2.347-1.834,1.245-3.553s2.61,1.257.892,4.571c-1.021,1.071-3.448,2.613-4.549,4.211S2245.859,2049.239,2245.859,2049.239Z" transform="translate(-2162.588 -2026.997)" fill="url(#linear-gradient-3)"/>
      <path id="Trazado_111065" data-name="Trazado 111065" d="M1994.667,2110.414s11.03-5.739,13.767-7.872c2.854-2.224,10.579-11.015,11.271-12.07s-1.651-3.439-1.651-3.439-13.389,14.413-28.453,8.756C1991.641,2101.468,1994.667,2110.414,1994.667,2110.414Z" transform="translate(-1934.858 -2065.451)" fill="#bb83ff"/>
      <path id="Trazado_111066" data-name="Trazado 111066" d="M1989.239,3122.172s1.576,5.011.908,7.131a21.786,21.786,0,0,0,3.444-.053,23.621,23.621,0,0,1-.753-3.393,32.774,32.774,0,0,1,.083-3.906Z" transform="translate(-1934.535 -2987.097)" fill="url(#linear-gradient-4)"/>
      <path id="Trazado_111067" data-name="Trazado 111067" d="M1733.568,3212.883a1.531,1.531,0,0,1,.3.921,1.454,1.454,0,0,1-.154.591c-.394.844-.921.92-1.547,1.8-.383.538-.331.712-.663.943a2.057,2.057,0,0,1-1.371.26,24.029,24.029,0,0,1-3.1-.4q1.141-1.266,2.419-2.558.561-.566,1.118-1.1l2.093-.539Z" transform="translate(-1701.031 -3067.995)" fill="#26264f"/>
      <path id="Trazado_111068" data-name="Trazado 111068" d="M1738.785,3121.913s-1.616,6-.256,7.818c1.139,1.8-.647.444-.647.444l-2.385,1.79-1.515,2.223s1.677-5.868,1.521-8.258-.2-4-.2-4Z" transform="translate(-1707.216 -2987.063)" fill="url(#linear-gradient-5)"/>
      <path id="Trazado_111069" data-name="Trazado 111069" d="M1544.086,1974.459c-5.61-1.376-13.957.9-22.992-4.766-8.891-5.575-13.824-13.2-16.668-18.061l-4.3,1.747c2.052,4.232,6.949,13.336,13.842,19.931,8.677,8.3,17.683,9.414,22.147,16C1538.6,1987.188,1546.823,1975.131,1544.086,1974.459Z" transform="translate(-1498.952 -1944.871)" fill="#bb83ff"/>
      <path id="Trazado_111070" data-name="Trazado 111070" d="M1738.513,2507.1s-3.342,2.574-4.193,14.124-1.214,36.741-1.214,36.741l1.053,18.132a15.751,15.751,0,0,0,4.144-.1c1.984-6.656,5.247-17.921,4.8-27.577.271-10.432,5.852-23.127,5.852-23.127s2.987,13.492,5.306,20.3,6.135,27.877,6.521,29.4c3.26.539,4.726-.225,4.726-.225s-.465-22.407-1.825-30.968.3-28.845-2.574-34.864C1753.9,2505.417,1738.513,2507.1,1738.513,2507.1Z" transform="translate(-1706.435 -2439.186)" fill="url(#linear-gradient-6)"/>
      <path id="Trazado_111071" data-name="Trazado 111071" d="M1738.513,2507.1s-3.342,2.574-4.193,14.124-1.214,36.741-1.214,36.741l1.053,18.132a15.751,15.751,0,0,0,4.144-.1c1.984-6.656,5.247-17.921,4.8-27.577.271-10.432,5.852-23.127,5.852-23.127s2.987,13.492,5.306,20.3,6.136,27.877,6.521,29.4c3.26.539,4.726-.225,4.726-.225s-.465-22.407-1.825-30.968.3-28.845-2.574-34.864C1753.9,2505.417,1738.513,2507.1,1738.513,2507.1Z" transform="translate(-1706.435 -2439.186)" fill="#47286d"/>
      <g id="Grupo_62870" data-name="Grupo 62870" transform="translate(54.449 140.552)">
        <path id="Trazado_111073" data-name="Trazado 111073" d="M1987.424,3205.652s-.482-.036-.488.59-.421,2.75,2.023,3.031a7.515,7.515,0,0,0,2.922.041,20.07,20.07,0,0,0-.492-2.1l-.709-1.062-2.094-.377Z" transform="translate(-1986.906 -3202.189)" fill="#26264f"/>
        <path id="Trazado_111074" data-name="Trazado 111074" d="M1993.83,3180.027a7.82,7.82,0,0,0-.487-2.034c-.361-1.005.021-1.344-.327-2.261a2.643,2.643,0,0,0-.519-.928,2.54,2.54,0,0,0-1.682-.787,1.765,1.765,0,0,0-.829.131,1.906,1.906,0,0,0-.79.72,8.623,8.623,0,0,0-.72,1.708,4.363,4.363,0,0,0-.3,1.115c.643.047,3.107.33,3.6.75a2.053,2.053,0,0,1,.661,1.725c-.048.643.252.968.575.972A1.059,1.059,0,0,0,1993.83,3180.027Z" transform="translate(-1988.035 -3174.013)" fill="#444b8c"/>
      </g>
      <path id="Trazado_111075" data-name="Trazado 111075" d="M1729.768,3185.08c.552.049.924.518,1.152,1.6s1.625,2.127-.069,1.777-3.115,1.982-3.792,2.833-2.376,1.526-2.271.654.859-1.229,1.129-2.11S1728.51,3184.968,1729.768,3185.08Z" transform="translate(-1699.023 -3043.314)" fill="#444b8c"/>
      <path id="Trazado_111076" data-name="Trazado 111076" d="M1771.428,2156.386c-2.764-.286-9.756-1.575-13.3,1.477-3.62,3.121-.5,7.417-1.521,12.925-.689,3.734-.7,5.963-1.873,12.066a38.208,38.208,0,0,1-1.1,4.305c-1.237,3.943-3.456,11.711-4.481,13.617a32.959,32.959,0,0,0,18.552,4.136,29.357,29.357,0,0,0,9.578-2.391c-1.746-6.972-.64-16.265.44-19.56,2.131-6.507,2.694-9.082,8.04-18.271,1.474-2.534-1.675-1.286-3.452-3.735C1779.587,2157.2,1774.216,2156.674,1771.428,2156.386Z" transform="translate(-1720.728 -2126.756)" fill="#bb83ff"/>
      <path id="Trazado_111077" data-name="Trazado 111077" d="M1685.947,2195.411a10.4,10.4,0,0,0-.305-5.858,8.961,8.961,0,0,0-1.757-2.833c-2.291-2.437-5.471-2.521-9.071-3.047a56.444,56.444,0,0,1-10.971-2.783c6.63,4.871,13,6.695,16.941,11.142-.034.341-.082.686-.146,1.037-.689,3.734-.7,5.963-1.873,12.066a38.191,38.191,0,0,1-1.1,4.305c-1.237,3.943-3.456,11.712-4.481,13.617a32.958,32.958,0,0,0,18.552,4.136,29.342,29.342,0,0,0,9.577-2.391,33.3,33.3,0,0,1-.882-6.8,28.212,28.212,0,0,1-12.418-3.888c-2.584-1.559-3.876-2.338-4.566-3.9C1682.119,2207.218,1684.183,2204.67,1685.947,2195.411Z" transform="translate(-1644.753 -2149.035)" opacity="0.25" fill="url(#linear-gradient-7)" style="mix-blend-mode: multiply;isolation: isolate"/>
      <g id="Grupo_62871" data-name="Grupo 62871" transform="translate(46.811 16.884)">
        <path id="Trazado_111078" data-name="Trazado 111078" d="M1919.089,2067.243a6.106,6.106,0,0,1,2.586-3.587c1.616-1.1,1.936-1.2,2.468-1.261l.724-.055s.038,0,.078.009a7.156,7.156,0,0,1,1.854.816c.692.567-.113,4.161-2.658,8.518l-.345,1.129c1.9.48,2.355.864,2.35,1.143-.011.6-2.179,1.216-4.139,1.122-2.458-.118-4.985-1.366-4.877-2.15.044-.317.536-.677,2.345-.932l.921-1.113C1920.165,2070.557,1918.772,2068.786,1919.089,2067.243Z" transform="translate(-1917.124 -2060.344)" fill="url(#linear-gradient-8)"/>
        <path id="Trazado_111079" data-name="Trazado 111079" d="M1954.49,2044.678a3.334,3.334,0,0,0-.952,2.947c.094.573.266.646.214,1.013-.147,1.031-2.068,1.343-2,1.873.048.378,1.04.314,1.175.795.148.527-.964.888-1.522,2.144-.087.2-.616,1.384-.105,2.144.476.709,1.663.637,3,.563a10.648,10.648,0,0,0,2.874-.549,7.015,7.015,0,0,0,3.013-1.719,5.9,5.9,0,0,0,1.589-3.766,6.094,6.094,0,0,0-4.422-5.862A3.363,3.363,0,0,0,1954.49,2044.678Z" transform="translate(-1947.362 -2044.115)" fill="url(#linear-gradient-9)"/>
        <path id="Trazado_111080" data-name="Trazado 111080" d="M1953.234,2101.388c.581-.292.952.455.644,1.061a1.24,1.24,0,0,1-1.725.521C1951.646,2102.558,1952.452,2101.781,1953.234,2101.388Z" transform="translate(-1948.178 -2095.062)" fill="url(#linear-gradient-10)"/>
      </g>
      <path id="Trazado_111081" data-name="Trazado 111081" d="M1907.7,2154.764l1.387-.317s.219,1.863,4.564,2.414a6.534,6.534,0,0,0,4.086-1.063l1.008.557a7.4,7.4,0,0,1-5.581,2.274A6.506,6.506,0,0,1,1907.7,2154.764Z" transform="translate(-1861.918 -2125.487)" fill="url(#linear-gradient-11)"/>
    </g>
    <g id="Grupo_62875" data-name="Grupo 62875" transform="translate(448.898 589.493)">
      <g id="Grupo_62873" data-name="Grupo 62873" transform="translate(0 0)">
        <path id="Trazado_111082" data-name="Trazado 111082" d="M2548.51,1689.006l-2.736-2.523c-3.13-2.912-4.811-3.341-7.353-1.839a6,6,0,0,0-2.72,3.531l-6.457,22.832a19.087,19.087,0,0,1-4.87,8.3l-1.095,1.1a19.092,19.092,0,0,1-5.334,3.757l-21.291,10.071,17.664-14.979c1.714-1.959-2.313-5.76-4.265-7.482l-.529-.467a4.727,4.727,0,0,0-5.849-.316c-6.357,4.48-20.914,14.8-26.972,19.617-5.826,4.631-8.773,21.442-9.908,29.832a15.421,15.421,0,0,0,1.458,8.935c1.561,3.157,6.335,8.391,9.835,8.789l.267-2.86a16.661,16.661,0,0,0,10.6-2.354l40.216-24.678a21.293,21.293,0,0,0,9.807-14.309l7.851-42.823C2547.091,1689.687,2549.276,1690.263,2548.51,1689.006Z" transform="translate(-2252.059 -1683.797)" fill="#47286d"/>
        <path id="Trazado_111083" data-name="Trazado 111083" d="M506.88,1687.708l.275-.453a5.394,5.394,0,0,1,7.352-1.839c1.326.784,5.534,4.9,5.953,6.377l3.224,19.986a19.087,19.087,0,0,0,4.87,8.3l1.1,1.1a19.087,19.087,0,0,0,5.334,3.757L556.276,1735l-13.828-15.8a4.727,4.727,0,0,1,.43-6.658l.529-.467a4.727,4.727,0,0,1,5.849-.316c6.357,4.48,20.914,14.8,26.972,19.617,5.826,4.631,8.915,10.315,10.05,18.7.415,3.068-.227,17.287-1.6,20.063a10.362,10.362,0,0,1-8.119,5.7l-1.983.225a16.661,16.661,0,0,1-10.6-2.354l-40.216-24.678a21.293,21.293,0,0,1-9.807-14.309l-7.851-42.823A6,6,0,0,1,506.88,1687.708Z" transform="translate(-506.006 -1684.569)" fill="#47286d"/>
      </g>
      <g id="Grupo_62874" data-name="Grupo 62874" transform="translate(4.006 3.529)">
        <path id="Trazado_111084" data-name="Trazado 111084" d="M2577.42,1719.078l-.275-.453a5.4,5.4,0,0,0-7.353-1.839,6,6,0,0,0-2.72,3.531l-6.458,22.832a19.084,19.084,0,0,1-4.87,8.3l-1.095,1.1a19.085,19.085,0,0,1-5.335,3.757l-21.291,10.071,13.828-15.8a4.728,4.728,0,0,0-.43-6.658l-.529-.467a4.728,4.728,0,0,0-5.849-.316c-6.357,4.48-20.914,14.8-26.971,19.617-5.826,4.631-8.773,21.443-9.908,29.832a15.418,15.418,0,0,0,1.458,8.935,10.362,10.362,0,0,0,8.119,5.7l1.983.225a16.662,16.662,0,0,0,10.6-2.354l40.217-24.678a21.294,21.294,0,0,0,9.807-14.308l7.851-42.824A6,6,0,0,0,2577.42,1719.078Z" transform="translate(-2284.002 -1716.035)" fill="#f9e478"/>
        <path id="Trazado_111085" data-name="Trazado 111085" d="M543.479,1719.078l.276-.453a5.394,5.394,0,0,1,7.352-1.839,6,6,0,0,1,2.72,3.531l6.458,22.832a19.087,19.087,0,0,0,4.869,8.3l1.1,1.1a19.082,19.082,0,0,0,5.334,3.757l21.291,10.071-13.828-15.8a4.728,4.728,0,0,1,.43-6.658l.529-.467a4.727,4.727,0,0,1,5.849-.316c6.357,4.48,20.914,14.8,26.972,19.617,5.826,4.631,8.773,21.443,9.908,29.832a15.42,15.42,0,0,1-1.458,8.935,10.361,10.361,0,0,1-8.119,5.7l-1.983.225a16.662,16.662,0,0,1-10.6-2.354l-40.216-24.678a21.293,21.293,0,0,1-9.807-14.308l-7.851-42.824A6,6,0,0,1,543.479,1719.078Z" transform="translate(-542.605 -1716.035)" fill="#f9e478"/>
      </g>
    </g>
    <g id="Grupo_62876" data-name="Grupo 62876" transform="translate(572.886 553.159)">
      <path id="Trazado_111086" data-name="Trazado 111086" d="M1701.114,1362.649l-54.188-2.918a7.456,7.456,0,0,0-8.1,7.34v29.692a8.191,8.191,0,0,0,8.1,7.976l17.716.436,8.267,9.77a1.451,1.451,0,0,0,1.985.218h0l7.951-9.54,18.269.45a7.223,7.223,0,0,0,7.464-7.242v-28.354A7.944,7.944,0,0,0,1701.114,1362.649Z" transform="translate(-1638.825 -1358.855)" fill="url(#linear-gradient-12)"/>
      <path id="Trazado_111087" data-name="Trazado 111087" d="M1710.968,1354.766l-54.188-2.918a7.456,7.456,0,0,0-8.1,7.34v29.692a8.192,8.192,0,0,0,8.1,7.976l17.716.436,8.066,9.531a1.451,1.451,0,0,0,2.2.017l7.937-9.1,18.269.45a7.222,7.222,0,0,0,7.464-7.242v-28.354A7.944,7.944,0,0,0,1710.968,1354.766Z" transform="translate(-1647.6 -1351.835)" fill="#fff"/>
      <path id="Trazado_111088" data-name="Trazado 111088" d="M1843.866,1443.729c-.3-5.62-4.118-10.342-8.875-10.939-3.783-.475-7.149,1.663-8.94,5.122-1.8-3.63-5.193-6.1-9.048-6-4.9.134-8.883,4.584-9.2,10.312a12.879,12.879,0,0,0,3.421,9.607l13.837,11.27a1.56,1.56,0,0,0,1.974.056l13.553-10.283A11.918,11.918,0,0,0,1843.866,1443.729Z" transform="translate(-1789.293 -1423.145)" fill="#f17781"/>
    </g>
  </g>
</svg>
