<svg xmlns="http://www.w3.org/2000/svg" xmlns:xlink="http://www.w3.org/1999/xlink" width="243" height="133" viewBox="0 0 243 133"><defs><clipPath id="a"><path d="M440.643,176.259l-11.528,3.451a2.244,2.244,0,0,1-2.792-1.505l-6.542-16.144a2.245,2.245,0,0,1,1.505-2.792l14.5-5.161c1.187-.356,3.26,1.554,3.616,2.739l2.746,16.622A2.242,2.242,0,0,1,440.643,176.259Z" transform="translate(-419.686 -154.064)" fill="none"/></clipPath><clipPath id="b"><path d="M431.261,151.984a5.557,5.557,0,1,1-5.558-5.558A5.557,5.557,0,0,1,431.261,151.984Z" transform="translate(-420.147 -146.426)" fill="#d8a252"/></clipPath><clipPath id="c"><rect width="78.71" height="43.149" rx="2.699" fill="none"/></clipPath><clipPath id="d"><path d="M490.23,155.464H444.97a2.352,2.352,0,0,1-2.4-2.3V129.532a2.352,2.352,0,0,1,2.4-2.3h45.26a2.351,2.351,0,0,1,2.4,2.3v23.628A2.351,2.351,0,0,1,490.23,155.464Z" transform="translate(-442.573 -127.227)" fill="none"/></clipPath><clipPath id="e"><rect width="20.865" height="19.857" rx="1.161" fill="none"/></clipPath></defs><g transform="translate(-517 -3165)"><g transform="translate(517 3165)" fill="#fff" stroke="#707070" stroke-width="1" opacity="0"><rect width="243" height="133" stroke="none"/><rect x="0.5" y="0.5" width="242" height="132" fill="none"/></g><g transform="translate(160.96 3056.936)"><g transform="translate(427.747 185.425)"><path d="M438.362,168.583l-13.743,1.653s5.689,21.873,5.831,29.567c.137,7.477-2.978,11.382-2.978,11.382l2.983,3s4.8-2.856,4.8-14.381c0-4.8-1.335-11.445-2.333-17.561-.42-2.587.134-4.111.618-4.322,1.578-.685,2.643.519,3.224,2.813,1.236,4.871,2.965,10.83,3.91,15.3a146.693,146.693,0,0,1,2.768,18.928l4.229-.338s-.881-16.158-2.47-22.639C442.592,181.349,438.362,168.583,438.362,168.583Z" transform="translate(-424.619 -168.583)" fill="#062c3f"/></g><g transform="translate(424.155 228.027)"><path d="M431.475,202.1l-2.983-3-6.1,6.067a1.167,1.167,0,0,0-.006,1.65l4.937,4.965c1.132,1.138,3.218-.627,1.452-2.884-.556-.711-1.451-2.147-.972-2.942A16.343,16.343,0,0,1,431.475,202.1Z" transform="translate(-422.046 -199.098)" fill="#f17781"/></g><g transform="translate(446.584 231.272)"><path d="M442.341,201.422l-4.229.027.053,8.606a1.165,1.165,0,0,0,1.173,1.159l7-.043c1.6-.008,1.808-2.735-1.04-3.056-.9-.1-2.549-.47-2.78-1.368A16.348,16.348,0,0,1,442.341,201.422Z" transform="translate(-438.112 -201.422)" fill="#f17781"/></g><g transform="translate(420.86 167.552)"><path d="M440.643,176.259l-11.528,3.451a2.244,2.244,0,0,1-2.792-1.505l-6.542-16.144a2.245,2.245,0,0,1,1.505-2.792l14.5-5.161c1.187-.356,3.26,1.554,3.616,2.739l2.746,16.622A2.242,2.242,0,0,1,440.643,176.259Z" transform="translate(-419.686 -154.064)" fill="#47286d"/></g><g transform="translate(434.203 167.877)"><path d="M429.244,161.392l13,2.28,1.241-7.078-10.6-2.537a1.552,1.552,0,0,0-1.674,1.127Z" transform="translate(-429.244 -154.04)" fill="#47286d"/></g><g transform="translate(452.812 132.818)"><path d="M490.23,155.464H444.97a2.352,2.352,0,0,1-2.4-2.3V129.532a2.352,2.352,0,0,1,2.4-2.3h45.26a2.351,2.351,0,0,1,2.4,2.3v23.628A2.351,2.351,0,0,1,490.23,155.464Z" transform="translate(-442.573 -127.227)" fill="#31d9e7"/></g><g transform="translate(475.123 113.112)"><rect width="20.865" height="19.857" rx="1.161" fill="#f17781"/></g><g transform="translate(483.5 203.036)"><path d="M477.285,186.756a6.366,6.366,0,1,1-6.366-6.365A6.366,6.366,0,0,1,477.285,186.756Z" transform="translate(-464.554 -180.391)" fill="#ffcb2f"/><g transform="translate(1.982 1.785)"><path d="M470.357,181.669l1.355,2.745,3.029.44-2.192,2.136.517,3.017-2.709-1.424-2.709,1.424.517-3.017-2.192-2.136,3.029-.44Z" transform="translate(-465.974 -181.669)" fill="#fff"/></g></g><g transform="translate(417.628 182.236)"><path d="M418.4,164.976c-.549.822-2.653,10.249,1.441,14.406,6.585,6.689,17.683,5.186,19.346,5.041,2.366-.205,5.625,1.3,7.958-.068s2.195-2.333-2.607-2.195-4.811.229-7.1-.275c-5.763-1.269-12.276-4.1-13.893-6.414-2.366-3.4-.205-8.129-.205-8.129Z" transform="translate(-417.371 -164.976)" fill="#d8a252"/></g><g transform="translate(441.261 158.07)"><rect width="78.71" height="43.149" rx="2.699" fill="#f9e478"/></g><g transform="translate(416.723 173.23)"><path d="M429.059,160.123l-5.908,11.807-6.428-3.215,4.282-9.82a1.551,1.551,0,0,1,1.9-.674Z" transform="translate(-416.723 -158.109)" fill="#47286d"/></g><g transform="translate(441.501 198.619)"><path d="M434.471,177.559c2.39.261,4.116-1.339,3.91-.412-.179.8-2.366,1.749-2.366,1.749Z" transform="translate(-434.471 -176.855)" fill="#d8a252"/></g><g transform="translate(432.733 172.91)"><path d="M432.87,158.377a.906.906,0,0,1-.652,1.1l-2.9.746a.906.906,0,0,1-1.1-.652h0a.906.906,0,0,1,.652-1.1l2.9-.746a.906.906,0,0,1,1.1.652Z" transform="translate(-428.191 -157.697)" fill="#4396ca"/></g><g transform="translate(420.86 167.552)"><g clip-path="url(#a)"><g transform="translate(4.622 -3.116)"><path d="M430.543,155.6a3.773,3.773,0,1,1-3.772-3.772A3.773,3.773,0,0,1,430.543,155.6Z" transform="translate(-422.997 -151.832)" fill="#d8a252"/></g></g></g><g transform="translate(425.6 164.005)"><rect width="4.552" height="7.104" transform="translate(0 1.543) rotate(-19.808)" fill="#d8a252"/></g><g transform="translate(421.503 157.665)"><path d="M431.261,151.984a5.557,5.557,0,1,1-5.558-5.558A5.557,5.557,0,0,1,431.261,151.984Z" transform="translate(-420.147 -146.426)" fill="#d8a252"/><g clip-path="url(#b)"><g transform="translate(-2.111 -1.329)"><path d="M420.472,153.8l12.622-4.389s-4.252-6.86-10.976-2.47S420.472,153.8,420.472,153.8Z" transform="translate(-418.635 -145.474)" fill="#062c3f"/></g></g></g><g transform="translate(420.749 164.774)"><circle cx="1.475" cy="1.475" r="1.475" fill="#d8a252"/></g><g transform="translate(421.71 160.874)"><path d="M430.654,148.736s5.83.48,4.6,2.4-14.955,1.234-14.955,1.234Z" transform="translate(-420.295 -148.736)" fill="#025482"/></g><g transform="translate(507.034 138.766)"><path d="M494.417,138.811a6.5,6.5,0,1,1-6.5-6.5A6.5,6.5,0,0,1,494.417,138.811Z" transform="translate(-481.411 -132.308)" fill="#4396ca"/><g transform="translate(2.588 3.961)"><path d="M490.035,135.331a2.354,2.354,0,0,0-2.847,1.04,2.44,2.44,0,0,0-2.914-1.04,1.838,1.838,0,0,0-.72,2.658,21.741,21.741,0,0,0,3.634,3.511,21.686,21.686,0,0,0,3.635-3.511A1.859,1.859,0,0,0,490.035,135.331Z" transform="translate(-483.265 -135.145)" fill="#fff"/></g></g><g transform="translate(453.053 117.242)"><circle cx="4.856" cy="4.856" r="4.856" fill="#025482"/><g transform="translate(2.167 2.167)"><g transform="translate(2.136)"><rect width="1.107" height="5.379" fill="#fff"/></g><g transform="translate(0 2.136)"><rect width="5.379" height="1.107" fill="#fff"/></g></g></g><g transform="translate(441.261 158.07)"><g clip-path="url(#c)"><g transform="translate(-2.195 6.584)"><rect width="91.102" height="0.412" fill="#fff"/></g><g transform="translate(69.801 6.962)"><rect width="0.412" height="43.63" fill="#fff"/></g><g transform="translate(9.055 6.962)"><rect width="0.412" height="43.63" fill="#fff"/></g></g></g><g transform="translate(452.812 132.818)"><g clip-path="url(#d)"><g transform="translate(-2.153 17.817)"><rect width="54.743" height="0.412" fill="#fff"/></g><g transform="translate(-2.153 19.875)"><rect width="54.743" height="0.412" fill="#fff"/></g></g></g><g transform="translate(475.123 113.112)"><g clip-path="url(#e)"><g transform="translate(15.05 -3.844)"><rect width="0.412" height="28.812" fill="#fff"/></g></g></g></g></g></svg>