<svg xmlns="http://www.w3.org/2000/svg" xmlns:xlink="http://www.w3.org/1999/xlink" width="320.59" height="307.759" viewBox="0 0 320.59 307.759">
  <defs>
    <clipPath id="clip-path">
      <path id="Trazado_110930" data-name="Trazado 110930" d="M239.878,234.713a39.37,39.37,0,1,1-39.37-39.368A39.37,39.37,0,0,1,239.878,234.713Z" transform="translate(-161.137 -195.345)" fill="none"/>
    </clipPath>
    <clipPath id="clip-path-2">
      <path id="Trazado_110952" data-name="Trazado 110952" d="M388.594,193.625a28.075,28.075,0,1,1-28.074-28.076A28.075,28.075,0,0,1,388.594,193.625Z" transform="translate(-332.444 -165.549)" fill="none" stroke="#fff" stroke-miterlimit="10" stroke-width="2.605" stroke-dasharray="3.68"/>
    </clipPath>
    <clipPath id="clip-path-3">
      <path id="Trazado_110970" data-name="Trazado 110970" d="M344.809,92.338a28.076,28.076,0,1,1-28.076-28.076A28.076,28.076,0,0,1,344.809,92.338Z" transform="translate(-288.658 -64.262)" fill="none"/>
    </clipPath>
    <clipPath id="clip-path-4">
      <path id="Trazado_110987" data-name="Trazado 110987" d="M115.5,92.338A28.076,28.076,0,1,1,87.423,64.262,28.076,28.076,0,0,1,115.5,92.338Z" transform="translate(-59.349 -64.262)" fill="none"/>
    </clipPath>
    <clipPath id="clip-path-5">
      <path id="Trazado_111005" data-name="Trazado 111005" d="M72.454,193.625a28.075,28.075,0,1,1-28.076-28.076A28.075,28.075,0,0,1,72.454,193.625Z" transform="translate(-16.304 -165.549)" fill="none" stroke="#fff" stroke-miterlimit="10" stroke-width="2.605" stroke-dasharray="3.68"/>
    </clipPath>
    <clipPath id="clip-path-6">
      <path id="Trazado_111021" data-name="Trazado 111021" d="M233.838,66.93a28.076,28.076,0,1,1-28.077-28.077A28.076,28.076,0,0,1,233.838,66.93Z" transform="translate(-177.685 -38.853)" fill="none"/>
    </clipPath>
  </defs>
  <g id="Grupo_62861" data-name="Grupo 62861" transform="translate(-15.001 -34.784)">
    <ellipse id="Elipse_4729" data-name="Elipse 4729" cx="105.015" cy="14.856" rx="105.015" ry="14.856" transform="translate(70.186 312.831)" fill="#a3a3a3" style="mix-blend-mode: multiply;isolation: isolate"/>
    <g id="Grupo_62794" data-name="Grupo 62794" transform="translate(80.982 140.963)">
      <g id="Grupo_62781" data-name="Grupo 62781">
        <g id="Grupo_62779" data-name="Grupo 62779">
          <path id="Rectángulo_6427" data-name="Rectángulo 6427" d="M11.984,0h165.8a11.981,11.981,0,0,1,11.981,11.981V124.8a11.981,11.981,0,0,1-11.981,11.981H11.984A11.984,11.984,0,0,1,0,124.8V11.984A11.984,11.984,0,0,1,11.984,0Z" fill="#d2d1d1"/>
          <path id="Rectángulo_6428" data-name="Rectángulo 6428" d="M11.564,0H174.5a11.567,11.567,0,0,1,11.567,11.567V121.546a11.564,11.564,0,0,1-11.564,11.564H11.566A11.566,11.566,0,0,1,0,121.544V11.564A11.564,11.564,0,0,1,11.564,0Z" transform="translate(1.846 1.836)" fill="#47286d"/>
          <rect id="Rectángulo_6429" data-name="Rectángulo 6429" width="169.469" height="115.533" transform="translate(10.145 10.625)" fill="#bb83ff"/>
          <path id="Trazado_110909" data-name="Trazado 110909" d="M108.354,178.441V293.974H277.823Z" transform="translate(-98.209 -167.816)" fill="#d2d1d1" style="mix-blend-mode: multiply;isolation: isolate"/>
        </g>
        <rect id="Rectángulo_6430" data-name="Rectángulo 6430" width="40.738" height="14.296" transform="translate(74.511 136.783)" fill="#47286d"/>
        <path id="Trazado_110910" data-name="Trazado 110910" d="M239.756,358.379H172.193l12.474-7.147h40.738Z" transform="translate(-110.156 -200.153)" fill="#47286d"/>
        <rect id="Rectángulo_6431" data-name="Rectángulo 6431" width="67.562" height="5.834" transform="translate(62.038 158.226)" fill="#18072d"/>
        <g id="Grupo_62780" data-name="Grupo 62780" transform="translate(16.597 165.063)">
          <rect id="Rectángulo_6432" data-name="Rectángulo 6432" width="158.437" height="7.524" transform="translate(0 15.99)" fill="#18072d"/>
          <path id="Trazado_110911" data-name="Trazado 110911" d="M274.728,384.426l-16.542-14.513c-1.869-1.043-2.863-1.477-6.394-1.477H138.05c-3.529,0-4.533,0-6.4,1.477l-15.363,14.513Z" transform="translate(-116.291 -368.436)" fill="#47286d"/>
          <path id="Trazado_110912" data-name="Trazado 110912" d="M138.282,371.1h118.68L268,380.377H128.6Z" transform="translate(-118.594 -368.934)" fill="#d2d1d1"/>
        </g>
      </g>
      <g id="Grupo_62793" data-name="Grupo 62793" transform="translate(53.05 24.365)">
        <g id="Grupo_62782" data-name="Grupo 62782">
          <path id="Trazado_110913" data-name="Trazado 110913" d="M239.878,234.713a39.37,39.37,0,1,1-39.37-39.368A39.37,39.37,0,0,1,239.878,234.713Z" transform="translate(-161.137 -195.345)" fill="#ebdbff"/>
        </g>
        <g id="Grupo_62792" data-name="Grupo 62792">
          <g id="Grupo_62791" data-name="Grupo 62791" clip-path="url(#clip-path)">
            <g id="Grupo_62790" data-name="Grupo 62790" transform="translate(16.336 6.547)">
              <rect id="Rectángulo_6433" data-name="Rectángulo 6433" width="7.743" height="4.606" transform="translate(19.163 51.463)" fill="#f8ab81"/>
              <path id="Trazado_110914" data-name="Trazado 110914" d="M205.253,270.149a5.281,5.281,0,0,1,3.384-1.525c1.1-.083,2.994.155,3.585-1a1.291,1.291,0,0,1,.33-.424v-.491h-7.742v3.977A3.7,3.7,0,0,1,205.253,270.149Z" transform="translate(-185.646 -215.248)" fill="#bababa" style="mix-blend-mode: multiply;isolation: isolate"/>
              <g id="Grupo_62784" data-name="Grupo 62784" transform="translate(35.279 33.235)">
                <path id="Trazado_110915" data-name="Trazado 110915" d="M231.774,247.733a3.572,3.572,0,1,1-3.568-3.447A3.509,3.509,0,0,1,231.774,247.733Z" transform="translate(-224.635 -244.286)" fill="#f8ab81"/>
                <g id="Grupo_62783" data-name="Grupo 62783" transform="translate(4.029 1.52)" style="mix-blend-mode: multiply;isolation: isolate">
                  <path id="Trazado_110916" data-name="Trazado 110916" d="M229.592,246.164a1.766,1.766,0,0,1,.245-.007,1.992,1.992,0,0,1,.627.125,1.585,1.585,0,0,1,.765.584,2.228,2.228,0,0,1,.129.248c.032.089.06.181.084.276l.028.285c0,.1,0,.189-.009.284a2.649,2.649,0,0,1-.115.537,2.279,2.279,0,0,1-.218.485,1.788,1.788,0,0,1-.671.664,1.552,1.552,0,0,1-.346.143,1.924,1.924,0,0,1-.274.046c-.158,0-.245,0-.245,0l.22-.092c.072-.026.143-.077.232-.119a1.979,1.979,0,0,0,.264-.2,2.067,2.067,0,0,0,.252-.278,2.252,2.252,0,0,0,.208-.362,2.9,2.9,0,0,0,.153-.421,1.953,1.953,0,0,0,.079-.46l.018-.226-.013-.215a2.055,2.055,0,0,1-.048-.2c-.028-.063-.046-.131-.079-.189a1.517,1.517,0,0,0-.531-.555,3.054,3.054,0,0,0-.532-.271A2.242,2.242,0,0,0,229.592,246.164Z" transform="translate(-229.592 -246.156)" fill="#d2d1d1"/>
                </g>
                <path id="Trazado_110917" data-name="Trazado 110917" d="M229.895,248.582a.586.586,0,1,1-.58-.669A.63.63,0,0,1,229.895,248.582Z" transform="translate(-225.402 -244.965)" fill="#d2d1d1" style="mix-blend-mode: multiply;isolation: isolate"/>
              </g>
              <g id="Grupo_62786" data-name="Grupo 62786" transform="translate(4.139 33.235)">
                <path id="Trazado_110918" data-name="Trazado 110918" d="M186.326,247.733a3.57,3.57,0,1,0,3.569-3.447A3.509,3.509,0,0,0,186.326,247.733Z" transform="translate(-186.326 -244.286)" fill="#f8ab81"/>
                <g id="Grupo_62785" data-name="Grupo 62785" transform="translate(1.231 1.52)" style="mix-blend-mode: multiply;isolation: isolate">
                  <path id="Trazado_110919" data-name="Trazado 110919" d="M189.716,246.164a1.651,1.651,0,0,0-.239-.007,2.022,2.022,0,0,0-.632.125,1.55,1.55,0,0,0-.757.584,2.4,2.4,0,0,0-.135.248c-.033.089-.058.181-.083.276l-.03.285c0,.1.008.189.011.284a2.589,2.589,0,0,0,.112.537,2.372,2.372,0,0,0,.221.485,1.788,1.788,0,0,0,.671.664,1.477,1.477,0,0,0,.341.143,1.95,1.95,0,0,0,.28.046c.155,0,.239,0,.239,0s-.079-.035-.215-.092c-.07-.026-.143-.077-.235-.119a1.962,1.962,0,0,1-.261-.2,1.747,1.747,0,0,1-.252-.278,2.257,2.257,0,0,1-.21-.362,3,3,0,0,1-.155-.421,2.3,2.3,0,0,1-.078-.46l-.018-.226.016-.215c.02-.068.03-.136.05-.2a1.688,1.688,0,0,1,.076-.189,1.564,1.564,0,0,1,.531-.555,2.95,2.95,0,0,1,.533-.271C189.634,246.189,189.716,246.164,189.716,246.164Z" transform="translate(-187.84 -246.156)" fill="#d2d1d1"/>
                </g>
                <path id="Trazado_110920" data-name="Trazado 110920" d="M189.586,248.582a.583.583,0,1,0,.573-.669A.625.625,0,0,0,189.586,248.582Z" transform="translate(-186.936 -244.965)" fill="#d2d1d1" style="mix-blend-mode: multiply;isolation: isolate"/>
              </g>
              <path id="Trazado_110921" data-name="Trazado 110921" d="M221.747,238.052c0,11.715-5.5,19.94-15.816,19.94s-15.816-8.225-15.816-19.94,5.706-21.211,16.025-21.211S221.747,226.337,221.747,238.052Z" transform="translate(-182.896 -205.915)" fill="#f8ab81"/>
              <path id="Trazado_110922" data-name="Trazado 110922" d="M200.549,272.141s-9.818,1.3-13.352,4.354c-3.6,3.113-4.661,5.806-5.963,11.96H227.3c-1.3-6.154-2.362-8.847-5.963-11.96-3.528-3.056-13.351-4.354-13.351-4.354Z" transform="translate(-181.234 -216.264)" fill="#f8ab81"/>
              <path id="Trazado_110923" data-name="Trazado 110923" d="M211.789,272.974s6.02.62,9.548,3.677c3.6,3.113,4.666,5.806,5.963,11.96H181.234c1.3-6.154,2.366-8.847,5.963-11.96,3.534-3.056,9.575-3.681,9.575-3.681s-1.307,8.4,7.828,8.331C204.6,281.3,212.145,281.6,211.789,272.974Z" transform="translate(-181.234 -216.419)" fill="#0a607e"/>
              <line id="Línea_280" data-name="Línea 280" x1="0.311" transform="translate(22.879 72.192)" fill="#0a607e"/>
              <g id="Grupo_62787" data-name="Grupo 62787" transform="translate(14.235 56.301)">
                <path id="Trazado_110924" data-name="Trazado 110924" d="M201.3,272.663a1.3,1.3,0,0,1,.012.438,6.976,6.976,0,0,0,1.292,5.023c1.089,1.255,2.872,1.884,5.28,1.864.018,0,.038,0,.058,0a6.384,6.384,0,0,0,4.264-1.662c1.173-1.188,1.719-3.294,1.619-5.662l2.518.445a9.158,9.158,0,0,1-2.377,7.006,8.827,8.827,0,0,1-5.988,2.383l-.2,0c-3.134,0-5.518-.923-7.091-2.746a9.255,9.255,0,0,1-1.9-6.643Z" transform="translate(-198.746 -272.663)" fill="#003342"/>
              </g>
              <path id="Trazado_110925" data-name="Trazado 110925" d="M189.488,230.708l.567,9.561,1.4.4c-1.231-15.431,6.9-18.964,6.9-18.964l2.275-9.66a11.335,11.335,0,0,0-9.988,5.514S188.068,220.165,189.488,230.708Z" transform="translate(-182.699 -205.016)" fill="#601800"/>
              <g id="Grupo_62788" data-name="Grupo 62788" transform="translate(5.819 9.042)">
                <path id="Trazado_110926" data-name="Trazado 110926" d="M189.434,232.414s-.267-1.205-.5-3.022c-.123-.908-.239-1.968-.337-3.106-.043-.569-.1-1.157-.137-1.754-.017-.3-.034-.6-.053-.9l-.013-.228,0-.111,0-.058,0-.113.015-.457a6.242,6.242,0,0,1,.113-.962,6.132,6.132,0,0,1,.21-.953,5.066,5.066,0,0,1,.3-.9,6.7,6.7,0,0,1,.377-.835,5.956,5.956,0,0,1,.431-.769,7.84,7.84,0,0,1,.475-.692,8.953,8.953,0,0,1,.989-1.159,10.678,10.678,0,0,1,1.731-1.443,6.744,6.744,0,0,1,.734-.431,18.121,18.121,0,0,0-1.911,2.335c-.131.18-.257.373-.379.579s-.262.408-.379.632a6.553,6.553,0,0,0-.358.684c-.115.237-.237.474-.33.728a5.761,5.761,0,0,0-.283.77,7.754,7.754,0,0,0-.227.8,5.174,5.174,0,0,0-.16.814,5.324,5.324,0,0,0-.083.848l-.024.455-.007.115,0,.056v-.025l0,.028.008.227q.015.455.031.9c.024.6.017,1.188.028,1.759.008,1.142-.01,2.208-.048,3.123C189.587,231.188,189.434,232.414,189.434,232.414Z" transform="translate(-188.393 -214.523)" fill="#3f1000"/>
              </g>
              <path id="Trazado_110927" data-name="Trazado 110927" d="M226.847,233.012l-.567,9.561-1.4.4c1.418-20.586-6.253-20.927-6.253-20.927l-2.92-7.7a11.341,11.341,0,0,1,9.988,5.516S228.264,222.469,226.847,233.012Z" transform="translate(-187.685 -205.447)" fill="#601800"/>
              <path id="Trazado_110928" data-name="Trazado 110928" d="M198.826,220.135a23.716,23.716,0,0,1,18.041,1.184l.694-7.062s-1.787-13.788-19.785-9.395a13.235,13.235,0,0,1,3.216,2.092s-6.928-.48-9.988,5.827c0,0,4.682-1.566,8.449-.558C199.455,212.224,193.8,215.951,198.826,220.135Z" transform="translate(-183.063 -203.511)" fill="#601800"/>
              <g id="Grupo_62789" data-name="Grupo 62789" transform="translate(14.714)">
                <path id="Trazado_110929" data-name="Trazado 110929" d="M219.121,214.145a9.361,9.361,0,0,0-.352-1.013c-.117-.317-.293-.692-.485-1.116a15.4,15.4,0,0,0-.754-1.369,17.907,17.907,0,0,0-1.045-1.5,14.017,14.017,0,0,0-1.408-1.44,12.179,12.179,0,0,0-1.71-1.275,8.045,8.045,0,0,0-.971-.512,6.246,6.246,0,0,0-1.01-.45l-1.053-.356c-.176-.056-.347-.129-.528-.17l-.545-.1a14.24,14.24,0,0,0-2.144-.336c-.708-.025-1.393-.142-2.048-.125s-1.279.04-1.857.049a12.223,12.223,0,0,0-1.575.114l-1.222.119c-.685.051-1.077.082-1.077.082l1.026-.327,1.192-.349a8.937,8.937,0,0,1,1.574-.356c.587-.089,1.226-.185,1.9-.269a19.554,19.554,0,0,1,2.158-.041,11.985,11.985,0,0,1,2.313.252l.592.1c.2.041.387.115.581.173l1.164.371a7.107,7.107,0,0,1,1.108.518,9.248,9.248,0,0,1,1.064.589,11.017,11.017,0,0,1,1.822,1.5,11.2,11.2,0,0,1,1.4,1.688,12.279,12.279,0,0,1,.927,1.715,10.642,10.642,0,0,1,.566,1.532,10.9,10.9,0,0,1,.277,1.22,7.1,7.1,0,0,1,.1.8A2.765,2.765,0,0,1,219.121,214.145Z" transform="translate(-199.336 -203.399)" fill="#3f1000"/>
              </g>
            </g>
          </g>
        </g>
      </g>
    </g>
    <g id="Grupo_62860" data-name="Grupo 62860" transform="translate(16.304 34.951)">
      <g id="Grupo_62805" data-name="Grupo 62805" transform="translate(256.976 106.157)">
        <g id="Grupo_62804" data-name="Grupo 62804">
          <g id="Grupo_62803" data-name="Grupo 62803" clip-path="url(#clip-path-2)">
            <g id="Grupo_62802" data-name="Grupo 62802" transform="translate(12.233 9.827)">
              <rect id="Rectángulo_6434" data-name="Rectángulo 6434" width="5.523" height="3.285" transform="translate(13.662 31.389)" fill="#f8ab81"/>
              <path id="Trazado_110931" data-name="Trazado 110931" d="M367.8,219.1a2.9,2.9,0,0,1-2.274-2.368,1.151,1.151,0,0,1,.046-.478H364.3v3.285h5.523v-.412A3.736,3.736,0,0,1,367.8,219.1Z" transform="translate(-350.638 -184.865)" fill="#d2d1d1" style="mix-blend-mode: multiply;isolation: isolate"/>
              <g id="Grupo_62796" data-name="Grupo 62796" transform="translate(25.156 18.391)">
                <ellipse id="Elipse_4730" data-name="Elipse 4730" cx="2.547" cy="2.459" rx="2.547" ry="2.459" fill="#f8ab81"/>
                <g id="Grupo_62795" data-name="Grupo 62795" transform="translate(2.876 1.084)" style="mix-blend-mode: multiply;isolation: isolate">
                  <path id="Trazado_110932" data-name="Trazado 110932" d="M381.978,201.6a1.061,1.061,0,0,1,.169-.006,1.4,1.4,0,0,1,.452.09,1.091,1.091,0,0,1,.541.415c.036.054.063.116.1.177s.041.13.06.2l.02.2c0,.067,0,.135-.008.2a1.679,1.679,0,0,1-.08.384,1.627,1.627,0,0,1-.158.345,1.256,1.256,0,0,1-.478.474.976.976,0,0,1-.244.1,1.212,1.212,0,0,1-.2.033c-.109,0-.169,0-.169,0s.057-.022.155-.063c.05-.019.1-.055.165-.085a1.655,1.655,0,0,0,.188-.141,1.182,1.182,0,0,0,.179-.2,1.514,1.514,0,0,0,.151-.258,1.984,1.984,0,0,0,.108-.3,1.5,1.5,0,0,0,.057-.327l.014-.161-.014-.155c-.013-.048-.021-.1-.032-.146s-.033-.092-.056-.133a1.108,1.108,0,0,0-.377-.4,2.433,2.433,0,0,0-.38-.193C382.038,201.621,381.978,201.6,381.978,201.6Z" transform="translate(-381.978 -201.596)" fill="#d2d1d1"/>
                </g>
                <path id="Trazado_110933" data-name="Trazado 110933" d="M382.191,203.328a.416.416,0,1,1-.412-.477A.446.446,0,0,1,382.191,203.328Z" transform="translate(-378.988 -200.747)" fill="#d2d1d1" style="mix-blend-mode: multiply;isolation: isolate"/>
              </g>
              <g id="Grupo_62798" data-name="Grupo 62798" transform="translate(2.948 18.391)">
                <path id="Trazado_110934" data-name="Trazado 110934" d="M351.12,202.722a2.547,2.547,0,1,0,2.545-2.459A2.5,2.5,0,0,0,351.12,202.722Z" transform="translate(-351.12 -200.263)" fill="#f8ab81"/>
                <g id="Grupo_62797" data-name="Grupo 62797" transform="translate(0.88 1.084)" style="mix-blend-mode: multiply;isolation: isolate">
                  <path id="Trazado_110935" data-name="Trazado 110935" d="M353.54,201.6a1.126,1.126,0,0,0-.172-.006,1.414,1.414,0,0,0-.449.09,1.091,1.091,0,0,0-.541.415,1.923,1.923,0,0,0-.1.177c-.023.063-.041.13-.059.2l-.02.2c0,.067,0,.135.008.2a1.721,1.721,0,0,0,.08.384,1.7,1.7,0,0,0,.155.345,1.277,1.277,0,0,0,.48.474.977.977,0,0,0,.246.1,1.159,1.159,0,0,0,.2.033c.111,0,.172,0,.172,0s-.057-.022-.155-.063c-.05-.019-.1-.055-.167-.085a1.65,1.65,0,0,1-.187-.141,1.257,1.257,0,0,1-.179-.2,1.281,1.281,0,0,1-.15-.258,1.98,1.98,0,0,1-.11-.3,1.5,1.5,0,0,1-.058-.327l-.011-.161.011-.155c.011-.048.022-.1.033-.146a1.281,1.281,0,0,1,.056-.133,1.1,1.1,0,0,1,.376-.4,2.3,2.3,0,0,1,.38-.193C353.478,201.621,353.54,201.6,353.54,201.6Z" transform="translate(-352.202 -201.596)" fill="#d2d1d1"/>
                </g>
                <path id="Trazado_110936" data-name="Trazado 110936" d="M353.444,203.328a.417.417,0,1,0,.413-.477A.446.446,0,0,0,353.444,203.328Z" transform="translate(-351.555 -200.747)" fill="#d2d1d1" style="mix-blend-mode: multiply;isolation: isolate"/>
              </g>
              <path id="Trazado_110937" data-name="Trazado 110937" d="M376.38,195.817c0,8.355-3.918,14.219-11.279,14.219s-11.278-5.865-11.278-14.219,4.069-15.127,11.43-15.127S376.38,187.463,376.38,195.817Z" transform="translate(-348.678 -178.209)" fill="#f8ab81"/>
              <path id="Trazado_110938" data-name="Trazado 110938" d="M361.267,220.128s-7.006.926-9.523,3.105c-2.567,2.221-3.326,4.141-4.25,8.528h32.848c-.923-4.388-1.683-6.308-4.249-8.528-2.519-2.179-9.525-3.105-9.525-3.105Z" transform="translate(-347.493 -185.59)" fill="#f8ab81"/>
              <path id="Trazado_110939" data-name="Trazado 110939" d="M359.149,220.488s-4.889.566-7.406,2.745c-2.567,2.221-3.326,4.141-4.25,8.528h32.848c-.923-4.388-1.67-6.323-4.249-8.528-2.128-1.819-6.912-2.644-6.912-2.644l-2.613-.461h-5.3Z" transform="translate(-347.493 -185.59)" fill="#fff"/>
              <g id="Grupo_62799" data-name="Grupo 62799" transform="translate(14.21 34.374)">
                <path id="Trazado_110940" data-name="Trazado 110940" d="M365.877,224.356a.431.431,0,0,1,.094-.093,1.26,1.26,0,0,0-.094.093l-.9,7.368H369.4l-.9-7.368.61-2.532a1.136,1.136,0,0,0,.059-1.2,1.328,1.328,0,0,0-.826-.615,6.618,6.618,0,0,0-1.683-.059,1.461,1.461,0,0,0-1.3.48,1.112,1.112,0,0,0-.094,1.394Z" transform="translate(-364.974 -219.926)" fill="#de2e34"/>
                <path id="Trazado_110941" data-name="Trazado 110941" d="M365.96,224.828s1.835-.858,2.718.392a2.924,2.924,0,0,0-2.623,0Z" transform="translate(-365.159 -220.789)" fill="#bababa" style="mix-blend-mode: multiply;isolation: isolate"/>
              </g>
              <path id="Trazado_110942" data-name="Trazado 110942" d="M359.149,220.571s-4.889.566-7.406,2.745c-2.567,2.221-3.326,4.141-4.25,8.528h32.848c-.923-4.388-1.67-6.323-4.249-8.528-2.128-1.819-6.912-2.644-6.912-2.644l-5.264,10.872Z" transform="translate(-347.493 -185.673)" fill="#012b42"/>
              <path id="Trazado_110943" data-name="Trazado 110943" d="M360.817,220.662l4.7,10.9-5-3.23,1.124-1.931-5.591-4.619S359.224,220.551,360.817,220.662Z" transform="translate(-349.095 -185.688)" fill="#001622"/>
              <path id="Trazado_110944" data-name="Trazado 110944" d="M372.961,220.693,367.7,231.565l5-3.23-1.126-1.931,5.593-4.619A11.673,11.673,0,0,0,372.961,220.693Z" transform="translate(-351.274 -185.694)" fill="#001622"/>
              <path id="Trazado_110945" data-name="Trazado 110945" d="M360.624,220.687l4.232,2.948-.355-1.473Z" transform="translate(-349.95 -185.694)" fill="#a3a3a3" style="mix-blend-mode: multiply;isolation: isolate"/>
              <path id="Trazado_110946" data-name="Trazado 110946" d="M374.2,220.751l-4.635,2.957.4-1.718Z" transform="translate(-351.623 -185.706)" fill="#a3a3a3" style="mix-blend-mode: multiply;isolation: isolate"/>
              <g id="Grupo_62800" data-name="Grupo 62800" transform="translate(10.674 33.566)">
                <path id="Trazado_110947" data-name="Trazado 110947" d="M363.612,218.932l-2.988,1.426,3.536,2.112,2.472-2.728Z" transform="translate(-360.624 -218.932)" fill="#fff"/>
                <path id="Trazado_110948" data-name="Trazado 110948" d="M363.569,219.981a2.153,2.153,0,0,1,1.564-.641l-1.521-.407-2.988,1.426,2.669,1.593A1.587,1.587,0,0,1,363.569,219.981Z" transform="translate(-360.624 -218.932)" fill="#d2d1d1" style="mix-blend-mode: multiply;isolation: isolate"/>
              </g>
              <g id="Grupo_62801" data-name="Grupo 62801" transform="translate(16.627 33.566)">
                <path id="Trazado_110949" data-name="Trazado 110949" d="M370.967,218.932l2.986,1.426-3.533,2.112-2.472-2.728Z" transform="translate(-367.948 -218.932)" fill="#fff"/>
                <path id="Trazado_110950" data-name="Trazado 110950" d="M371.354,219.981a2.144,2.144,0,0,0-1.562-.641l1.52-.407,2.986,1.426-2.666,1.593A1.59,1.59,0,0,0,371.354,219.981Z" transform="translate(-368.293 -218.932)" fill="#d2d1d1" style="mix-blend-mode: multiply;isolation: isolate"/>
              </g>
              <path id="Trazado_110951" data-name="Trazado 110951" d="M353.713,197.281l1.141,1.142.22-9.2a4.865,4.865,0,0,1,5.149-4.777,12.935,12.935,0,0,0,9.466.376s4.744-.746,5.3,4.176l-.038,9.61,1.214-1.5.067-1.249a37.3,37.3,0,0,0,0-10.009s-.955-6.591-6.913-7.711c0,0-9.728-2.5-13.831,3.621a12.411,12.411,0,0,0-2.3,9.373Z" transform="translate(-348.533 -177.638)" fill="#854c00"/>
            </g>
          </g>
          <path id="Trazado_110953" data-name="Trazado 110953" d="M388.594,193.625a28.075,28.075,0,1,1-28.074-28.076A28.075,28.075,0,0,1,388.594,193.625Z" transform="translate(-332.444 -165.549)" fill="none" stroke="#fff" stroke-miterlimit="10" stroke-width="2.605" stroke-dasharray="3.68"/>
        </g>
      </g>
      <g id="Grupo_62815" data-name="Grupo 62815" transform="translate(221.385 23.826)">
        <g id="Grupo_62814" data-name="Grupo 62814">
          <g id="Grupo_62813" data-name="Grupo 62813" clip-path="url(#clip-path-3)">
            <g id="Grupo_62812" data-name="Grupo 62812" transform="translate(11.651 5.964)">
              <rect id="Rectángulo_6435" data-name="Rectángulo 6435" width="5.523" height="3.285" transform="translate(13.662 35.405)" fill="#f8ab81"/>
              <path id="Trazado_110954" data-name="Trazado 110954" d="M320.115,117.608a3.754,3.754,0,0,1,2.414-1.088c.788-.059,2.137.11,2.555-.713a.95.95,0,0,1,.238-.3v-.351H319.8v2.837A2.792,2.792,0,0,1,320.115,117.608Z" transform="translate(-306.137 -79.75)" fill="#bababa" style="mix-blend-mode: multiply;isolation: isolate"/>
              <g id="Grupo_62807" data-name="Grupo 62807" transform="translate(25.155 22.406)">
                <path id="Trazado_110955" data-name="Trazado 110955" d="M339.032,101.623a2.548,2.548,0,1,1-2.547-2.46A2.5,2.5,0,0,1,339.032,101.623Z" transform="translate(-333.939 -99.163)" fill="#f8ab81"/>
                <g id="Grupo_62806" data-name="Grupo 62806" transform="translate(2.874 1.084)" style="mix-blend-mode: multiply;isolation: isolate">
                  <path id="Trazado_110956" data-name="Trazado 110956" d="M337.475,100.5a.923.923,0,0,1,.172-.007,1.447,1.447,0,0,1,.452.089,1.114,1.114,0,0,1,.541.415c.037.054.062.117.1.177s.041.13.058.2l.022.2c0,.067-.006.134-.008.2a2.024,2.024,0,0,1-.08.384,1.634,1.634,0,0,1-.159.346,1.258,1.258,0,0,1-.477.473,1.081,1.081,0,0,1-.245.1,1.33,1.33,0,0,1-.2.033c-.11,0-.172,0-.172,0s.057-.024.157-.064c.048-.02.1-.055.166-.085a1.51,1.51,0,0,0,.185-.141,1.093,1.093,0,0,0,.18-.2,1.6,1.6,0,0,0,.15-.257,2.029,2.029,0,0,0,.11-.3,1.618,1.618,0,0,0,.058-.328l.012-.161-.011-.154c-.015-.049-.024-.1-.034-.146s-.033-.093-.055-.135a1.128,1.128,0,0,0-.378-.4,2.258,2.258,0,0,0-.381-.194C337.535,100.522,337.475,100.5,337.475,100.5Z" transform="translate(-337.475 -100.497)" fill="#d2d1d1"/>
                </g>
                <path id="Trazado_110957" data-name="Trazado 110957" d="M337.691,102.228a.417.417,0,1,1-.413-.477A.448.448,0,0,1,337.691,102.228Z" transform="translate(-334.487 -99.647)" fill="#d2d1d1" style="mix-blend-mode: multiply;isolation: isolate"/>
              </g>
              <g id="Grupo_62809" data-name="Grupo 62809" transform="translate(2.947 22.406)">
                <path id="Trazado_110958" data-name="Trazado 110958" d="M306.617,101.623a2.548,2.548,0,1,0,2.548-2.46A2.506,2.506,0,0,0,306.617,101.623Z" transform="translate(-306.617 -99.163)" fill="#f8ab81"/>
                <g id="Grupo_62808" data-name="Grupo 62808" transform="translate(0.881 1.084)" style="mix-blend-mode: multiply;isolation: isolate">
                  <path id="Trazado_110959" data-name="Trazado 110959" d="M309.04,100.5a.95.95,0,0,0-.173-.007,1.46,1.46,0,0,0-.45.089,1.113,1.113,0,0,0-.543.415c-.037.054-.06.117-.1.177a1.949,1.949,0,0,0-.057.2l-.021.2c0,.067,0,.134.006.2a1.968,1.968,0,0,0,.082.384,1.712,1.712,0,0,0,.155.346,1.271,1.271,0,0,0,.478.473,1.084,1.084,0,0,0,.246.1,1.32,1.32,0,0,0,.2.033c.11,0,.173,0,.173,0l-.159-.064c-.047-.02-.1-.055-.166-.085a1.894,1.894,0,0,1-.185-.141,1.191,1.191,0,0,1-.18-.2,1.432,1.432,0,0,1-.148-.257,2.126,2.126,0,0,1-.11-.3,1.377,1.377,0,0,1-.056-.328l-.012-.161.011-.154c.012-.049.022-.1.033-.146a1.321,1.321,0,0,1,.056-.135,1.11,1.11,0,0,1,.376-.4,2.251,2.251,0,0,1,.38-.194C308.978,100.522,309.04,100.5,309.04,100.5Z" transform="translate(-307.701 -100.497)" fill="#d2d1d1"/>
                </g>
                <path id="Trazado_110960" data-name="Trazado 110960" d="M308.943,102.228a.417.417,0,1,0,.41-.477A.447.447,0,0,0,308.943,102.228Z" transform="translate(-307.052 -99.647)" fill="#d2d1d1" style="mix-blend-mode: multiply;isolation: isolate"/>
              </g>
              <path id="Trazado_110961" data-name="Trazado 110961" d="M331.878,94.717c0,8.355-3.92,14.22-11.278,14.22s-11.28-5.866-11.28-14.22,4.07-15.126,11.431-15.126S331.878,86.365,331.878,94.717Z" transform="translate(-304.176 -73.095)" fill="#f8ab81"/>
              <path id="Trazado_110962" data-name="Trazado 110962" d="M316.764,119.028s-7,.926-9.522,3.107c-2.569,2.22-3.326,4.139-4.25,8.528H335.84c-.925-4.389-1.683-6.309-4.25-8.528-2.519-2.181-9.525-3.107-9.525-3.107Z" transform="translate(-302.992 -80.475)" fill="#f8ab81"/>
              <path id="Trazado_110963" data-name="Trazado 110963" d="M314.071,119.618s-4.311.446-6.829,2.627c-2.569,2.22-3.326,4.139-4.25,8.528H335.84c-.925-4.389-1.683-6.309-4.25-8.528-2.519-2.181-6.813-2.622-6.813-2.622l-5.362,5.333Z" transform="translate(-302.992 -80.585)" fill="#282e37"/>
              <path id="Trazado_110964" data-name="Trazado 110964" d="M308.873,89.482l.406,6.817,1,.282C309.4,85.575,315.2,83.057,315.2,83.057l1.622-6.891A8.084,8.084,0,0,0,309.7,80.1S307.864,81.961,308.873,89.482Z" transform="translate(-304.036 -72.453)" fill="#341e13"/>
              <g id="Grupo_62810" data-name="Grupo 62810" transform="translate(4.102 5.153)">
                <path id="Trazado_110965" data-name="Trazado 110965" d="M308.825,90.7s-.2-.86-.382-2.155c-.093-.647-.18-1.4-.253-2.214-.033-.406-.08-.825-.1-1.251-.013-.214-.026-.429-.039-.645l-.01-.163c0-.137,0-.132,0-.2l.01-.326a6.219,6.219,0,0,1,.233-1.375,3.57,3.57,0,0,1,.217-.642,4.938,4.938,0,0,1,.273-.6,6.115,6.115,0,0,1,.654-1.043,6.4,6.4,0,0,1,.714-.824,6.537,6.537,0,0,1,1.779-1.319,13.615,13.615,0,0,0-1.343,1.681c-.18.261-.36.553-.533.865a8.594,8.594,0,0,0-.483,1.006,6.725,6.725,0,0,0-.358,1.116,3.522,3.522,0,0,0-.112.576,3.682,3.682,0,0,0-.057.6l-.019.324c0,.035-.009.15-.006.12l0,.162c.008.216.015.431.022.645.018.427.009.849.015,1.256,0,.814-.014,1.575-.047,2.228C308.949,89.823,308.825,90.7,308.825,90.7Z" transform="translate(-308.039 -77.938)" fill="#201208"/>
              </g>
              <path id="Trazado_110966" data-name="Trazado 110966" d="M315.9,84.91s3.486,6.01,14.666,5.7c0,0-2.093-2.472-1.051-3.648C329.512,86.962,318.685,81.814,315.9,84.91Z" transform="translate(-305.407 -73.904)" fill="#bababa" style="mix-blend-mode: multiply;isolation: isolate"/>
              <path id="Trazado_110967" data-name="Trazado 110967" d="M335.518,91.123l-.407,6.819-1,.28c.878-11-4.921-13.523-4.921-13.523l-1.621-6.889a8.084,8.084,0,0,1,7.123,3.933S336.527,83.6,335.518,91.123Z" transform="translate(-307.592 -72.761)" fill="#341e13"/>
              <path id="Trazado_110968" data-name="Trazado 110968" d="M313.645,76.434s1.608-3.273,7.376-4.168c0,0,9.6-1.157,12.666,5.507,0,0,1.548,3.208.988,8.852,0,0-.58-2.54-2.155-3.383,0,0-.263,3-4.409,1.155,0,0-.658,1.231.788,3.422C328.9,87.819,315.476,87.819,313.645,76.434Z" transform="translate(-304.986 -71.709)" fill="#341e13"/>
              <g id="Grupo_62811" data-name="Grupo 62811" transform="translate(8.659)">
                <path id="Trazado_110969" data-name="Trazado 110969" d="M313.645,76.323a1.579,1.579,0,0,1,.113-.238,3.878,3.878,0,0,1,.4-.639,7.669,7.669,0,0,1,.769-.895,10.422,10.422,0,0,1,1.184-.982l.755-.455.4-.237.441-.186a10.019,10.019,0,0,1,1.922-.673c.343-.084.692-.17,1.046-.255l.267-.065.3-.035c.191-.022.371-.027.558-.04a20.439,20.439,0,0,1,2.242.013,20.035,20.035,0,0,1,2.224.3c.362.08.721.172,1.072.263l1.025.345a10.647,10.647,0,0,1,1.837.907,4.6,4.6,0,0,1,.783.536,8.81,8.81,0,0,1,.68.567,7.157,7.157,0,0,1,1,1.171,5.981,5.981,0,0,1,.612,1c.272.593.41.93.41.93s-.219-.3-.573-.83a5.755,5.755,0,0,0-.732-.871,9.471,9.471,0,0,0-1.085-.972,7.9,7.9,0,0,0-.691-.458l-.366-.237-.4-.2a12.779,12.779,0,0,0-1.763-.729l-.974-.276-1.016-.216a21.848,21.848,0,0,0-4.241-.3l-.518.027-.237.015-.254.05-1,.2a11.907,11.907,0,0,0-1.851.511l-.43.142-.394.188-.758.35c-.456.271-.885.522-1.239.776a7.5,7.5,0,0,0-.862.742,5.7,5.7,0,0,0-.5.543A1.53,1.53,0,0,0,313.645,76.323Z" transform="translate(-313.645 -71.599)" fill="#201208"/>
              </g>
            </g>
          </g>
        </g>
        <path id="Trazado_110971" data-name="Trazado 110971" d="M344.808,92.338a28.075,28.075,0,1,1-28.074-28.076A28.075,28.075,0,0,1,344.808,92.338Z" transform="translate(-288.658 -64.262)" fill="none" stroke="#fff" stroke-miterlimit="10" stroke-width="2.605" stroke-dasharray="3.68"/>
      </g>
      <g id="Grupo_62823" data-name="Grupo 62823" transform="translate(34.989 23.826)">
        <g id="Grupo_62822" data-name="Grupo 62822">
          <g id="Grupo_62821" data-name="Grupo 62821" clip-path="url(#clip-path-4)">
            <g id="Grupo_62820" data-name="Grupo 62820" transform="translate(11.65 8.693)">
              <path id="Trazado_110972" data-name="Trazado 110972" d="M107.2,102.926s-3.633,12.277-10.052,13.049v-2.8S103.727,100.91,107.2,102.926Z" transform="translate(-78.073 -80.149)" fill="#341e13"/>
              <rect id="Rectángulo_6436" data-name="Rectángulo 6436" width="5.523" height="3.284" transform="translate(13.663 32.677)" fill="#f8ab81"/>
              <path id="Trazado_110973" data-name="Trazado 110973" d="M90.8,117.609a3.769,3.769,0,0,1,2.417-1.088c.788-.059,2.134.11,2.554-.713a.967.967,0,0,1,.238-.3v-.35H90.49v2.837A3.049,3.049,0,0,1,90.8,117.609Z" transform="translate(-76.827 -82.48)" fill="#bababa" style="mix-blend-mode: multiply;isolation: isolate"/>
              <g id="Grupo_62817" data-name="Grupo 62817" transform="translate(25.158 19.678)">
                <path id="Trazado_110974" data-name="Trazado 110974" d="M109.723,101.623a2.547,2.547,0,1,1-2.545-2.458A2.5,2.5,0,0,1,109.723,101.623Z" transform="translate(-104.631 -99.165)" fill="#f8ab81"/>
                <g id="Grupo_62816" data-name="Grupo 62816" transform="translate(2.874 1.083)" style="mix-blend-mode: multiply;isolation: isolate">
                  <path id="Trazado_110975" data-name="Trazado 110975" d="M108.167,100.5a.861.861,0,0,1,.172,0,1.429,1.429,0,0,1,.45.088,1.121,1.121,0,0,1,.541.415,1.1,1.1,0,0,1,.154.375l.02.2c0,.067,0,.135-.008.2a1.812,1.812,0,0,1-.08.383,1.737,1.737,0,0,1-.155.347,1.316,1.316,0,0,1-.478.472,1,1,0,0,1-.248.1,1.742,1.742,0,0,1-.2.033c-.111,0-.172,0-.172,0l.154-.065c.051-.018.1-.055.167-.085a1.539,1.539,0,0,0,.185-.14,1.4,1.4,0,0,0,.182-.2,1.546,1.546,0,0,0,.148-.258,1.993,1.993,0,0,0,.11-.3,1.478,1.478,0,0,0,.057-.327l.011-.161-.011-.156c-.012-.048-.021-.1-.033-.145a1.342,1.342,0,0,0-.056-.135,1.118,1.118,0,0,0-.379-.4,2.3,2.3,0,0,0-.379-.193C108.228,100.522,108.167,100.5,108.167,100.5Z" transform="translate(-108.167 -100.498)" fill="#d2d1d1"/>
                </g>
                <path id="Trazado_110976" data-name="Trazado 110976" d="M108.381,102.229a.416.416,0,1,1-.412-.476A.448.448,0,0,1,108.381,102.229Z" transform="translate(-105.179 -99.649)" fill="#d2d1d1" style="mix-blend-mode: multiply;isolation: isolate"/>
              </g>
              <g id="Grupo_62819" data-name="Grupo 62819" transform="translate(2.949 19.678)">
                <path id="Trazado_110977" data-name="Trazado 110977" d="M77.309,101.623a2.547,2.547,0,1,0,2.546-2.458A2.5,2.5,0,0,0,77.309,101.623Z" transform="translate(-77.309 -99.165)" fill="#f8ab81"/>
                <g id="Grupo_62818" data-name="Grupo 62818" transform="translate(0.878 1.083)" style="mix-blend-mode: multiply;isolation: isolate">
                  <path id="Trazado_110978" data-name="Trazado 110978" d="M79.73,100.5a.885.885,0,0,0-.173,0,1.413,1.413,0,0,0-.45.088,1.123,1.123,0,0,0-.542.415,1.426,1.426,0,0,0-.1.177c-.024.064-.041.131-.059.2l-.022.2c0,.067.006.135.009.2a1.766,1.766,0,0,0,.081.383,1.576,1.576,0,0,0,.157.347,1.275,1.275,0,0,0,.478.472.936.936,0,0,0,.245.1,1.826,1.826,0,0,0,.2.033c.111,0,.173,0,.173,0l-.157-.065c-.05-.018-.1-.055-.165-.085a1.325,1.325,0,0,1-.186-.14,1.191,1.191,0,0,1-.181-.2,1.5,1.5,0,0,1-.15-.258,1.991,1.991,0,0,1-.108-.3,1.478,1.478,0,0,1-.059-.327l-.012-.161.012-.156c.014-.048.022-.1.033-.145a1.338,1.338,0,0,1,.056-.135,1.121,1.121,0,0,1,.377-.4,2.243,2.243,0,0,1,.381-.193C79.668,100.522,79.73,100.5,79.73,100.5Z" transform="translate(-78.389 -100.498)" fill="#d2d1d1"/>
                </g>
                <path id="Trazado_110979" data-name="Trazado 110979" d="M79.632,102.229a.416.416,0,1,0,.414-.476A.448.448,0,0,0,79.632,102.229Z" transform="translate(-77.744 -99.649)" fill="#d2d1d1" style="mix-blend-mode: multiply;isolation: isolate"/>
              </g>
              <path id="Trazado_110980" data-name="Trazado 110980" d="M102.571,94.718c0,8.355-3.92,14.222-11.28,14.222s-11.277-5.867-11.277-14.222,4.069-15.125,11.428-15.125S102.571,86.365,102.571,94.718Z" transform="translate(-74.866 -75.824)" fill="#f8ab81"/>
              <path id="Trazado_110981" data-name="Trazado 110981" d="M87.456,119.03s-7.006.926-9.523,3.105c-2.566,2.222-3.326,4.139-4.251,8.528h32.85c-.926-4.389-1.683-6.307-4.252-8.528-2.516-2.179-9.523-3.105-9.523-3.105Z" transform="translate(-73.681 -83.205)" fill="#f8ab81"/>
              <path id="Trazado_110982" data-name="Trazado 110982" d="M94.5,119.03a36.781,36.781,0,0,1,6.579,1.551,16.168,16.168,0,0,0,0,10.083H82.984s1.249-3.562.478-10.368A38.585,38.585,0,0,1,89.2,119.03l2.54,4.938Z" transform="translate(-75.422 -83.205)" fill="#de2e34"/>
              <path id="Trazado_110983" data-name="Trazado 110983" d="M93.752,133.342" transform="translate(-77.437 -85.883)" fill="#de2e34"/>
              <path id="Trazado_110984" data-name="Trazado 110984" d="M104.192,94.67c-3.8-.929-5.647-5.655-5.647-5.655a5.494,5.494,0,0,0,.123,2.287,34.764,34.764,0,0,1-11.052-8.255c-3.5-4.321,2.122-7.161,2.122-7.161,9.019-3.183,12.9,2.84,12.9,2.84s6.408,5.794,3.254,16.993A2.728,2.728,0,0,0,104.192,94.67Z" transform="translate(-76.074 -74.957)" fill="#341e13"/>
              <path id="Trazado_110985" data-name="Trazado 110985" d="M86.893,79.254s-8.081.276-9.63,13.051c0,0-2.235,23.374,8.253,27.353,0,0-.689-6.616,2.461-8.058v-3.031s-7.641-1.344-7.541-11.341c0,0,.049-11.537,5.917-13.725Z" transform="translate(-74.314 -75.761)" fill="#341e13"/>
              <path id="Trazado_110986" data-name="Trazado 110986" d="M108.418,104.9a.85.85,0,1,1-.85-.85A.85.85,0,0,1,108.418,104.9Z" transform="translate(-79.864 -80.402)" fill="#fff"/>
            </g>
          </g>
        </g>
        <path id="Trazado_110988" data-name="Trazado 110988" d="M115.5,92.338A28.076,28.076,0,1,1,87.423,64.262,28.076,28.076,0,0,1,115.5,92.338Z" transform="translate(-59.349 -64.262)" fill="none" stroke="#fff" stroke-miterlimit="10" stroke-width="2.605" stroke-dasharray="3.68"/>
      </g>
      <g id="Grupo_62834" data-name="Grupo 62834" transform="translate(0 106.157)">
        <g id="Grupo_62833" data-name="Grupo 62833">
          <g id="Grupo_62832" data-name="Grupo 62832" clip-path="url(#clip-path-5)">
            <g id="Grupo_62831" data-name="Grupo 62831" transform="translate(11.651 4.669)">
              <rect id="Rectángulo_6437" data-name="Rectángulo 6437" width="5.523" height="3.283" transform="translate(13.663 36.701)" fill="#f8ab81"/>
              <path id="Trazado_110989" data-name="Trazado 110989" d="M47.763,218.895a3.754,3.754,0,0,1,2.414-1.088c.787-.059,2.135.11,2.554-.712a.942.942,0,0,1,.238-.3v-.35H47.446v2.837A2.8,2.8,0,0,1,47.763,218.895Z" transform="translate(-33.784 -179.743)" fill="#bababa" style="mix-blend-mode: multiply;isolation: isolate"/>
              <g id="Grupo_62825" data-name="Grupo 62825" transform="translate(25.155 23.7)">
                <path id="Trazado_110990" data-name="Trazado 110990" d="M66.678,202.91a2.548,2.548,0,1,1-2.547-2.46A2.506,2.506,0,0,1,66.678,202.91Z" transform="translate(-61.585 -200.45)" fill="#f8ab81"/>
                <g id="Grupo_62824" data-name="Grupo 62824" transform="translate(2.875 1.084)" style="mix-blend-mode: multiply;isolation: isolate">
                  <path id="Trazado_110991" data-name="Trazado 110991" d="M65.122,201.79a.967.967,0,0,1,.172-.006,1.438,1.438,0,0,1,.45.089,1.128,1.128,0,0,1,.543.416c.036.054.061.116.1.177s.041.128.059.2l.02.2c0,.068,0,.135-.007.2a1.894,1.894,0,0,1-.083.383,1.6,1.6,0,0,1-.155.346,1.274,1.274,0,0,1-.478.474,1.14,1.14,0,0,1-.246.1,1.534,1.534,0,0,1-.2.033c-.111,0-.172,0-.172,0l.156-.064c.047-.019.1-.055.167-.085a1.312,1.312,0,0,0,.185-.141,1.224,1.224,0,0,0,.181-.2,1.635,1.635,0,0,0,.149-.257,2.033,2.033,0,0,0,.108-.3,1.341,1.341,0,0,0,.057-.327l.012-.161-.011-.154c-.012-.05-.022-.1-.034-.146a1.113,1.113,0,0,0-.055-.135,1.089,1.089,0,0,0-.377-.4,2.406,2.406,0,0,0-.38-.2C65.182,201.808,65.122,201.79,65.122,201.79Z" transform="translate(-65.122 -201.784)" fill="#d2d1d1"/>
                </g>
                <path id="Trazado_110992" data-name="Trazado 110992" d="M65.335,203.515a.417.417,0,1,1-.825,0,.417.417,0,1,1,.825,0Z" transform="translate(-62.132 -200.934)" fill="#d2d1d1" style="mix-blend-mode: multiply;isolation: isolate"/>
              </g>
              <g id="Grupo_62827" data-name="Grupo 62827" transform="translate(2.947 23.7)">
                <path id="Trazado_110993" data-name="Trazado 110993" d="M34.263,202.91a2.548,2.548,0,1,0,2.546-2.46A2.506,2.506,0,0,0,34.263,202.91Z" transform="translate(-34.263 -200.45)" fill="#f8ab81"/>
                <g id="Grupo_62826" data-name="Grupo 62826" transform="translate(0.881 1.084)" style="mix-blend-mode: multiply;isolation: isolate">
                  <path id="Trazado_110994" data-name="Trazado 110994" d="M36.684,201.79a.984.984,0,0,0-.171-.006,1.459,1.459,0,0,0-.451.089,1.128,1.128,0,0,0-.541.416,1.914,1.914,0,0,0-.1.177c-.024.063-.041.128-.059.2l-.02.2c0,.068,0,.135.007.2a1.833,1.833,0,0,0,.08.383,1.693,1.693,0,0,0,.158.346,1.3,1.3,0,0,0,.477.474,1.182,1.182,0,0,0,.245.1,1.648,1.648,0,0,0,.2.033c.111,0,.171,0,.171,0l-.156-.064c-.05-.019-.1-.055-.165-.085a1.417,1.417,0,0,1-.186-.141,1.392,1.392,0,0,1-.181-.2,1.573,1.573,0,0,1-.149-.257,2.239,2.239,0,0,1-.11-.3,1.517,1.517,0,0,1-.055-.327l-.013-.161.011-.154c.013-.05.022-.1.033-.146s.034-.093.056-.135a1.116,1.116,0,0,1,.377-.4,2.309,2.309,0,0,1,.38-.2C36.625,201.808,36.684,201.79,36.684,201.79Z" transform="translate(-35.347 -201.784)" fill="#d2d1d1"/>
                </g>
                <path id="Trazado_110995" data-name="Trazado 110995" d="M36.589,203.515a.417.417,0,1,0,.411-.477A.447.447,0,0,0,36.589,203.515Z" transform="translate(-34.698 -200.934)" fill="#d2d1d1" style="mix-blend-mode: multiply;isolation: isolate"/>
              </g>
              <path id="Trazado_110996" data-name="Trazado 110996" d="M59.524,196c0,8.355-3.918,14.219-11.278,14.219S36.966,204.359,36.966,196,41.037,180.88,48.4,180.88,59.524,187.651,59.524,196Z" transform="translate(-31.822 -173.087)" fill="#f8ab81"/>
              <path id="Trazado_110997" data-name="Trazado 110997" d="M44.41,220.315s-7,.927-9.523,3.107c-2.567,2.22-3.325,4.14-4.25,8.528H63.486c-.924-4.389-1.681-6.309-4.252-8.528-2.514-2.179-9.52-3.107-9.52-3.107Z" transform="translate(-30.638 -180.467)" fill="#f8ab81"/>
              <path id="Trazado_110998" data-name="Trazado 110998" d="M52.424,220.91s4.3.443,6.809,2.622c2.571,2.22,3.328,4.14,4.252,8.528H30.638c.925-4.389,1.683-6.309,4.25-8.528,2.518-2.179,6.829-2.627,6.829-2.627s-.934,5.99,5.58,5.941C47.3,226.846,52.677,227.057,52.424,220.91Z" transform="translate(-30.638 -180.578)" fill="#00a4b7"/>
              <line id="Línea_281" data-name="Línea 281" x1="0.222" transform="translate(16.314 51.483)" fill="#0a607e"/>
              <g id="Grupo_62828" data-name="Grupo 62828" transform="translate(10.147 40.152)">
                <path id="Trazado_110999" data-name="Trazado 110999" d="M44.942,220.689a.833.833,0,0,1,0,.311,5,5,0,0,0,.923,3.581,4.713,4.713,0,0,0,3.769,1.33.337.337,0,0,1,.041,0,4.546,4.546,0,0,0,3.038-1.187,5.47,5.47,0,0,0,1.158-4.036l1.8.316a6.534,6.534,0,0,1-1.7,5,6.3,6.3,0,0,1-4.271,1.7h-.141a6.34,6.34,0,0,1-5.056-1.959,6.609,6.609,0,0,1-1.36-4.737Z" transform="translate(-43.122 -220.689)" fill="#003342"/>
              </g>
              <path id="Trazado_111000" data-name="Trazado 111000" d="M36.519,190.769l.406,6.817,1,.28c-.875-11,4.923-13.523,4.923-13.523l1.621-6.888a8.085,8.085,0,0,0-7.121,3.931S35.51,183.249,36.519,190.769Z" transform="translate(-31.682 -172.446)" fill="#601800"/>
              <g id="Grupo_62829" data-name="Grupo 62829" transform="translate(4.148 6.448)">
                <path id="Trazado_111001" data-name="Trazado 111001" d="M36.484,191.984s-.049-.215-.114-.593-.162-.915-.242-1.562-.171-1.4-.241-2.215c-.031-.406-.076-.825-.1-1.252-.012-.213-.025-.428-.037-.644l-.01-.162c0-.131,0-.13,0-.2l.009-.325a6.27,6.27,0,0,1,.229-1.367,3.665,3.665,0,0,1,.215-.639,4.755,4.755,0,0,1,.269-.6,6.165,6.165,0,0,1,.646-1.042,6.45,6.45,0,0,1,.706-.827,8.285,8.285,0,0,1,1.236-1.027,4.159,4.159,0,0,1,.522-.307s-.154.157-.407.44a12.044,12.044,0,0,0-.956,1.223c-.182.26-.366.55-.541.863a8.323,8.323,0,0,0-.489,1.007,6.826,6.826,0,0,0-.363,1.122,3.6,3.6,0,0,0-.114.58,3.864,3.864,0,0,0-.059.6l-.016.325c0,.037-.01.146-.007.124l.007.163q.011.324.022.645c.018.426.013.848.02,1.254.007.814-.007,1.576-.033,2.228s-.076,1.2-.1,1.579S36.484,191.984,36.484,191.984Z" transform="translate(-35.742 -179.226)" fill="#3f1000"/>
              </g>
              <path id="Trazado_111002" data-name="Trazado 111002" d="M63.162,192.412l-.407,6.817-.995.28c1.01-14.679-4.46-14.923-4.46-14.923L55.216,179.1a8.087,8.087,0,0,1,7.124,3.932S64.174,184.892,63.162,192.412Z" transform="translate(-35.238 -172.753)" fill="#601800"/>
              <path id="Trazado_111003" data-name="Trazado 111003" d="M43.181,183.228a16.912,16.912,0,0,1,12.866.843l.5-5.036s-1.279-9.832-14.112-6.7a9.39,9.39,0,0,1,2.292,1.492,7.657,7.657,0,0,0-7.121,4.156,12.356,12.356,0,0,1,6.026-.4S39.6,180.244,43.181,183.228Z" transform="translate(-31.942 -171.373)" fill="#601800"/>
              <g id="Grupo_62830" data-name="Grupo 62830" transform="translate(10.491)">
                <path id="Trazado_111004" data-name="Trazado 111004" d="M57.656,178.956a7.56,7.56,0,0,0-.249-.723,10.016,10.016,0,0,0-.887-1.771,12.456,12.456,0,0,0-.745-1.067,9.856,9.856,0,0,0-1.006-1.027,8.607,8.607,0,0,0-1.219-.91,5.769,5.769,0,0,0-.692-.364,4.443,4.443,0,0,0-.721-.322,9.068,9.068,0,0,0-1.517-.446,10.144,10.144,0,0,0-1.529-.239c-.506-.019-.993-.1-1.462-.09s-.911.028-1.324.035c-.824.01-1.509.132-2,.164s-.767.061-.767.061.263-.092.732-.232l.85-.245a6,6,0,0,1,1.123-.258c.419-.064.874-.132,1.358-.192a13.84,13.84,0,0,1,1.539-.029,8.643,8.643,0,0,1,1.651.179,9.766,9.766,0,0,1,1.666.46,5.13,5.13,0,0,1,.79.369,6.537,6.537,0,0,1,.759.42,7.851,7.851,0,0,1,1.3,1.07,8.023,8.023,0,0,1,1,1.2,8.645,8.645,0,0,1,.661,1.223,7.072,7.072,0,0,1,.4,1.095c.089.334.16.626.2.868A4.259,4.259,0,0,1,57.656,178.956Z" transform="translate(-43.544 -171.293)" fill="#3f1000"/>
              </g>
            </g>
          </g>
          <path id="Trazado_111006" data-name="Trazado 111006" d="M72.454,193.625a28.075,28.075,0,1,1-28.076-28.076A28.075,28.075,0,0,1,72.454,193.625Z" transform="translate(-16.304 -165.549)" fill="none" stroke="#fff" stroke-miterlimit="10" stroke-width="2.605" stroke-dasharray="3.68"/>
        </g>
      </g>
      <g id="Grupo_62842" data-name="Grupo 62842" transform="translate(131.18 3.172)">
        <g id="Grupo_62841" data-name="Grupo 62841">
          <g id="Grupo_62840" data-name="Grupo 62840" clip-path="url(#clip-path-6)">
            <g id="Grupo_62839" data-name="Grupo 62839" transform="translate(11.652 8.974)">
              <rect id="Rectángulo_6438" data-name="Rectángulo 6438" width="5.522" height="3.285" transform="translate(13.664 32.396)" fill="#f8ab81"/>
              <path id="Trazado_111007" data-name="Trazado 111007" d="M209.145,92.2a3.752,3.752,0,0,1,2.413-1.088c.788-.059,2.135.11,2.556-.714a.928.928,0,0,1,.238-.3v-.351H208.83v2.837A2.826,2.826,0,0,1,209.145,92.2Z" transform="translate(-195.166 -57.351)" fill="#bababa" style="mix-blend-mode: multiply;isolation: isolate"/>
              <g id="Grupo_62836" data-name="Grupo 62836" transform="translate(25.157 19.398)">
                <path id="Trazado_111008" data-name="Trazado 111008" d="M228.06,76.215a2.547,2.547,0,1,1-2.544-2.459A2.5,2.5,0,0,1,228.06,76.215Z" transform="translate(-222.969 -73.756)" fill="#f8ab81"/>
                <g id="Grupo_62835" data-name="Grupo 62835" transform="translate(2.874 1.084)" style="mix-blend-mode: multiply;isolation: isolate">
                  <path id="Trazado_111009" data-name="Trazado 111009" d="M226.505,75.1a.879.879,0,0,1,.171-.006,1.374,1.374,0,0,1,.45.089,1.1,1.1,0,0,1,.542.415,1.358,1.358,0,0,1,.094.177,1.824,1.824,0,0,1,.059.2l.024.2c0,.067-.006.134-.007.2a1.722,1.722,0,0,1-.083.383,1.664,1.664,0,0,1-.155.345,1.274,1.274,0,0,1-.478.474,1.047,1.047,0,0,1-.245.1,1.492,1.492,0,0,1-.2.034c-.11,0-.171,0-.171,0l.156-.064c.047-.019.1-.054.165-.085a1.463,1.463,0,0,0,.186-.14,1.227,1.227,0,0,0,.18-.2,1.5,1.5,0,0,0,.15-.258,1.9,1.9,0,0,0,.107-.3,1.513,1.513,0,0,0,.057-.326l.013-.161-.01-.156c-.014-.049-.023-.1-.035-.146a1.306,1.306,0,0,0-.055-.135,1.14,1.14,0,0,0-.377-.4,2.239,2.239,0,0,0-.38-.193C226.566,75.114,226.505,75.1,226.505,75.1Z" transform="translate(-226.505 -75.089)" fill="#d2d1d1"/>
                </g>
                <path id="Trazado_111010" data-name="Trazado 111010" d="M226.716,76.821a.416.416,0,1,1-.41-.478A.446.446,0,0,1,226.716,76.821Z" transform="translate(-223.516 -74.24)" fill="#d2d1d1" style="mix-blend-mode: multiply;isolation: isolate"/>
              </g>
              <g id="Grupo_62838" data-name="Grupo 62838" transform="translate(2.949 19.398)">
                <path id="Trazado_111011" data-name="Trazado 111011" d="M195.648,76.215a2.547,2.547,0,1,0,2.545-2.459A2.5,2.5,0,0,0,195.648,76.215Z" transform="translate(-195.648 -73.756)" fill="#f8ab81"/>
                <g id="Grupo_62837" data-name="Grupo 62837" transform="translate(0.879 1.084)" style="mix-blend-mode: multiply;isolation: isolate">
                  <path id="Trazado_111012" data-name="Trazado 111012" d="M198.067,75.1a.9.9,0,0,0-.172-.006,1.374,1.374,0,0,0-.45.089,1.131,1.131,0,0,0-.544.415,1.909,1.909,0,0,0-.093.177c-.021.064-.041.13-.059.2l-.02.2c0,.067,0,.134.007.2a1.813,1.813,0,0,0,.08.383,1.516,1.516,0,0,0,.158.345,1.249,1.249,0,0,0,.477.474.981.981,0,0,0,.245.1,1.518,1.518,0,0,0,.2.034c.111,0,.172,0,.172,0l-.157-.064c-.048-.019-.1-.054-.164-.085a1.413,1.413,0,0,1-.187-.14,1.153,1.153,0,0,1-.18-.2,1.55,1.55,0,0,1-.15-.258,1.819,1.819,0,0,1-.108-.3,1.422,1.422,0,0,1-.058-.326l-.011-.161.01-.156c.013-.049.023-.1.033-.146s.033-.093.058-.135a1.111,1.111,0,0,1,.377-.4,2.237,2.237,0,0,1,.38-.193C198.007,75.114,198.067,75.1,198.067,75.1Z" transform="translate(-196.729 -75.089)" fill="#d2d1d1"/>
                </g>
                <path id="Trazado_111013" data-name="Trazado 111013" d="M197.97,76.821a.417.417,0,1,0,.414-.478A.448.448,0,0,0,197.97,76.821Z" transform="translate(-196.083 -74.24)" fill="#d2d1d1" style="mix-blend-mode: multiply;isolation: isolate"/>
              </g>
              <path id="Trazado_111014" data-name="Trazado 111014" d="M220.909,69.309c0,8.354-3.92,14.22-11.28,14.22s-11.277-5.866-11.277-14.22,4.067-15.126,11.426-15.126S220.909,60.956,220.909,69.309Z" transform="translate(-193.205 -50.695)" fill="#f8ab81"/>
              <path id="Trazado_111015" data-name="Trazado 111015" d="M205.794,93.62s-7.006.927-9.523,3.1c-2.568,2.223-3.326,4.141-4.25,8.53h32.848c-.924-4.389-1.683-6.307-4.249-8.53-2.518-2.178-9.523-3.1-9.523-3.1Z" transform="translate(-192.02 -58.076)" fill="#f8ab81"/>
              <path id="Trazado_111016" data-name="Trazado 111016" d="M214.494,94.392c2.152.5,4.778,1.306,6.125,2.469,2.566,2.223,3.325,4.141,4.249,8.53H192.02c.924-4.389,1.683-6.307,4.25-8.53,1.383-1.2,4.12-2.015,6.305-2.51l5.868,6.326Z" transform="translate(-192.02 -58.213)" fill="#730b12"/>
              <path id="Trazado_111017" data-name="Trazado 111017" d="M212.09,107.933" transform="translate(-195.776 -60.754)" fill="#de2e34"/>
              <path id="Trazado_111018" data-name="Trazado 111018" d="M205.209,53.846s-8.083.274-9.631,13.05c0,0-.3,10.974-.3,23.952,0,0,1.849-3.242,11.017-4.657V83.159s-7.643-1.344-7.545-11.34c0,0,.051-11.536,5.918-13.725Z" transform="translate(-192.63 -50.632)" fill="#341e13"/>
              <path id="Trazado_111019" data-name="Trazado 111019" d="M216.707,53.846s9.18-.463,10.729,12.312c0,0,.178,11.339-.751,24.819,0,0-2.544-3.633-11.062-4.785V83.159s7.641-1.344,7.542-11.34c0,0-.049-11.536-5.917-13.725Z" transform="translate(-196.437 -50.632)" fill="#341e13"/>
              <path id="Trazado_111020" data-name="Trazado 111020" d="M207.88,65.418l1.14-5.722v5.722h5.666l.939-4.028.976,4.028h7.1a36.739,36.739,0,0,0-.751-7.36s-1.891-8.9-15.224-8.116c0,0-11.233,0-12.045,15.477Z" transform="translate(-192.706 -49.893)" fill="#341e13"/>
            </g>
          </g>
        </g>
        <path id="Trazado_111022" data-name="Trazado 111022" d="M233.838,66.928a28.076,28.076,0,1,1-28.077-28.075A28.077,28.077,0,0,1,233.838,66.928Z" transform="translate(-177.685 -38.853)" fill="none" stroke="#fff" stroke-miterlimit="10" stroke-width="2.605" stroke-dasharray="3.68"/>
      </g>
      <g id="Grupo_62843" data-name="Grupo 62843" transform="translate(102.81 34.973)" style="mix-blend-mode: multiply;isolation: isolate">
        <path id="Trazado_111023" data-name="Trazado 111023" d="M155.192,77.976A12.407,12.407,0,1,0,167.6,90.383,12.407,12.407,0,0,0,155.192,77.976Zm0,22.18a9.773,9.773,0,1,1,9.773-9.774A9.774,9.774,0,0,1,155.192,100.156Z" transform="translate(-142.784 -77.976)" fill="#d2d1d1" stroke="#fff" stroke-miterlimit="10" stroke-width="0.526"/>
        <path id="Trazado_111024" data-name="Trazado 111024" d="M154.482,86.046V97.74l8.959-5.847Z" transform="translate(-144.973 -79.486)" fill="#d2d1d1" stroke="#fff" stroke-miterlimit="10" stroke-width="0.526"/>
      </g>
      <g id="Grupo_62846" data-name="Grupo 62846" transform="translate(194.85 71.626)" style="mix-blend-mode: multiply;isolation: isolate">
        <g id="Grupo_62845" data-name="Grupo 62845">
          <g id="Grupo_62844" data-name="Grupo 62844">
            <path id="Trazado_111025" data-name="Trazado 111025" d="M263.9,123.067a7.886,7.886,0,1,0,7.885,7.886A7.885,7.885,0,0,0,263.9,123.067Zm0,14.1a6.211,6.211,0,1,1,6.21-6.211A6.212,6.212,0,0,1,263.9,137.164Z" transform="translate(-256.014 -123.067)" fill="#d2d1d1" stroke="#fff" stroke-miterlimit="10" stroke-width="0.334"/>
          </g>
          <rect id="Rectángulo_6439" data-name="Rectángulo 6439" width="2.13" height="4.017" transform="translate(6.82 14.465)" fill="#d2d1d1" stroke="#fff" stroke-miterlimit="10" stroke-width="0.334"/>
          <path id="Trazado_111026" data-name="Trazado 111026" d="M267.421,155.569a2.081,2.081,0,0,1-2.081,2.08h0a2.08,2.08,0,0,1-2.08-2.08v-8.763a2.08,2.08,0,0,1,2.08-2.08h0a2.081,2.081,0,0,1,2.081,2.08Z" transform="translate(-257.37 -127.12)" fill="#d2d1d1" stroke="#fff" stroke-miterlimit="10" stroke-width="0.334"/>
        </g>
      </g>
      <g id="Grupo_62848" data-name="Grupo 62848" transform="translate(77.131)" style="mix-blend-mode: multiply;isolation: isolate">
        <g id="Grupo_62847" data-name="Grupo 62847">
          <path id="Trazado_111027" data-name="Trazado 111027" d="M115.356,54.738a.659.659,0,0,1-.63-.844,3.984,3.984,0,0,0-.435-3.319h-.177a2.925,2.925,0,0,1-2.921-2.921V37.871a2.923,2.923,0,0,1,2.921-2.92h12.851a2.923,2.923,0,0,1,2.921,2.92v9.784a2.925,2.925,0,0,1-2.921,2.921h-7.625a6,6,0,0,1-1.88,2.73,12.349,12.349,0,0,1-1.766,1.339A.669.669,0,0,1,115.356,54.738Zm-1.242-18.474a1.608,1.608,0,0,0-1.606,1.606v9.784a1.608,1.608,0,0,0,1.606,1.607h.512a.656.656,0,0,1,.5.226,5.163,5.163,0,0,1,1.1,3.16,4.773,4.773,0,0,0,1.915-2.773.655.655,0,0,1,.654-.614h8.178a1.609,1.609,0,0,0,1.606-1.607V37.871a1.609,1.609,0,0,0-1.606-1.606Z" transform="translate(-111.193 -34.951)" fill="#d2d1d1" stroke="#fff" stroke-miterlimit="10" stroke-width="0.334"/>
        </g>
        <rect id="Rectángulo_6440" data-name="Rectángulo 6440" width="13.072" height="0.986" transform="translate(2.81 3.723)" fill="#d2d1d1" stroke="#fff" stroke-miterlimit="10" stroke-width="0.334"/>
        <rect id="Rectángulo_6441" data-name="Rectángulo 6441" width="13.072" height="0.986" transform="translate(2.81 5.622)" fill="#d2d1d1" stroke="#fff" stroke-miterlimit="10" stroke-width="0.334"/>
        <rect id="Rectángulo_6442" data-name="Rectángulo 6442" width="13.072" height="0.987" transform="translate(2.81 7.45)" fill="#d2d1d1" stroke="#fff" stroke-miterlimit="10" stroke-width="0.334"/>
        <rect id="Rectángulo_6443" data-name="Rectángulo 6443" width="13.072" height="0.986" transform="translate(2.81 9.279)" fill="#d2d1d1" stroke="#fff" stroke-miterlimit="10" stroke-width="0.334"/>
        <rect id="Rectángulo_6444" data-name="Rectángulo 6444" width="13.072" height="0.986" transform="translate(2.81 11.108)" fill="#d2d1d1" stroke="#fff" stroke-miterlimit="10" stroke-width="0.334"/>
      </g>
      <g id="Grupo_62849" data-name="Grupo 62849" transform="translate(229.15 91.313)" style="mix-blend-mode: multiply;isolation: isolate">
        <path id="Trazado_111028" data-name="Trazado 111028" d="M319.341,147.287H299.929a1.719,1.719,0,0,0-1.718,1.72v13.92a1.719,1.719,0,0,0,1.718,1.72h19.413a1.72,1.72,0,0,0,1.72-1.72v-13.92A1.72,1.72,0,0,0,319.341,147.287Zm.425,14.237a1.557,1.557,0,0,1-1.556,1.557h-17.15a1.556,1.556,0,0,1-1.556-1.557v-11.2a1.555,1.555,0,0,1,1.556-1.556h17.15a1.555,1.555,0,0,1,1.556,1.556Z" transform="translate(-298.211 -147.287)" fill="#d2d1d1" stroke="#fff" stroke-miterlimit="10" stroke-width="0.334"/>
        <path id="Trazado_111029" data-name="Trazado 111029" d="M301.136,160.3v1.395a1.756,1.756,0,0,0,1.9,1.872h14.631s1.829-.239,1.907-1.872V160.46l-5.184-6.474-4.723,5.925-4.118-5.925Z" transform="translate(-298.758 -148.541)" fill="#d2d1d1" stroke="#fff" stroke-miterlimit="10" stroke-width="0.334"/>
        <path id="Trazado_111030" data-name="Trazado 111030" d="M313.261,153.676a1.962,1.962,0,1,1-1.963-1.962A1.962,1.962,0,0,1,313.261,153.676Z" transform="translate(-300.293 -148.115)" fill="#d2d1d1" stroke="#fff" stroke-miterlimit="10" stroke-width="0.334"/>
        <path id="Trazado_111031" data-name="Trazado 111031" d="M320.885,151.564a.818.818,0,0,0-.091.007v-.007a3.739,3.739,0,0,1-1.751-.614.643.643,0,0,0-.643.628.628.628,0,0,0-.137-.015.645.645,0,0,0,0,1.289.571.571,0,0,0,.137-.016c0,.016,0,.03,0,.046a3.761,3.761,0,0,1,1.753.645.643.643,0,0,0,.643-.645.288.288,0,0,0,0-.037.69.69,0,0,0,.093.007.645.645,0,0,0,0-1.289Z" transform="translate(-301.843 -147.967)" fill="#d2d1d1" stroke="#fff" stroke-miterlimit="10" stroke-width="0.334"/>
        <path id="Trazado_111032" data-name="Trazado 111032" d="M305.194,151.564a.862.862,0,0,0-.09.007v-.007a3.752,3.752,0,0,1-1.75-.614.644.644,0,0,0-.643.628.628.628,0,0,0-.134-.015.645.645,0,1,0,0,1.289.571.571,0,0,0,.134-.016v.046a3.74,3.74,0,0,1,1.75.645.643.643,0,0,0,.643-.645v-.037a.687.687,0,0,0,.09.007.645.645,0,0,0,0-1.289Z" transform="translate(-298.907 -147.967)" fill="#d2d1d1" stroke="#fff" stroke-miterlimit="10" stroke-width="0.334"/>
      </g>
      <g id="Grupo_62852" data-name="Grupo 62852" transform="translate(296.27 84.513)" style="mix-blend-mode: multiply;isolation: isolate">
        <path id="Trazado_111033" data-name="Trazado 111033" d="M401.913,138.922H382.5a1.719,1.719,0,0,0-1.719,1.72v13.921a1.718,1.718,0,0,0,1.719,1.719h19.409a1.719,1.719,0,0,0,1.722-1.719V140.642A1.719,1.719,0,0,0,401.913,138.922Zm.428,14.238a1.556,1.556,0,0,1-1.556,1.556h-17.15a1.555,1.555,0,0,1-1.556-1.556v-11.2a1.555,1.555,0,0,1,1.556-1.556h17.15a1.557,1.557,0,0,1,1.556,1.556Z" transform="translate(-380.784 -138.922)" fill="#d2d1d1" stroke="#fff" stroke-miterlimit="10" stroke-width="0.334"/>
        <g id="Grupo_62850" data-name="Grupo 62850" transform="translate(0.376 0.138)">
          <path id="Trazado_111034" data-name="Trazado 111034" d="M391.681,148.458l-10.435-8.317.819-1.029,9.657,7.7,10.793-7.718.766,1.068Z" transform="translate(-381.246 -139.092)" fill="#d2d1d1" stroke="#fff" stroke-miterlimit="10" stroke-width="0.334"/>
        </g>
        <g id="Grupo_62851" data-name="Grupo 62851" transform="translate(0.403 7.455)">
          <path id="Trazado_111035" data-name="Trazado 111035" d="M382.045,157.459l-.765-1.069,11.6-8.3,10.435,8.317-.821,1.028-9.657-7.7Z" transform="translate(-381.279 -148.094)" fill="#d2d1d1" stroke="#fff" stroke-miterlimit="10" stroke-width="0.334"/>
        </g>
      </g>
      <g id="Grupo_62853" data-name="Grupo 62853" transform="translate(45.112 171.82)" style="mix-blend-mode: multiply;isolation: isolate">
        <path id="Trazado_111036" data-name="Trazado 111036" d="M92.932,246.329H73.521a1.719,1.719,0,0,0-1.719,1.718v13.921a1.719,1.719,0,0,0,1.719,1.72H92.932a1.72,1.72,0,0,0,1.72-1.72V248.047A1.719,1.719,0,0,0,92.932,246.329Zm-.251,13.8a1.425,1.425,0,0,1-1.424,1.423H75.2a1.424,1.424,0,0,1-1.422-1.423V249.887a1.424,1.424,0,0,1,1.422-1.423H91.257a1.424,1.424,0,0,1,1.424,1.423Z" transform="translate(-71.802 -246.329)" fill="#d2d1d1" stroke="#fff" stroke-miterlimit="10" stroke-width="0.334"/>
        <path id="Trazado_111037" data-name="Trazado 111037" d="M82.592,251.021v9.732l7.457-4.866Z" transform="translate(-73.821 -247.207)" fill="#d2d1d1" stroke="#fff" stroke-miterlimit="10" stroke-width="0.334"/>
      </g>
      <g id="Grupo_62855" data-name="Grupo 62855" transform="translate(6.913 79.374)" style="mix-blend-mode: multiply;isolation: isolate">
        <g id="Grupo_62854" data-name="Grupo 62854" transform="translate(0 0)">
          <path id="Trazado_111038" data-name="Trazado 111038" d="M25.584,136.3c-.269.239-.528.489-.775.743l1.713,1.714q.322-.333.674-.645a12.257,12.257,0,0,1,16.963.652l1.715-1.714A14.685,14.685,0,0,0,25.584,136.3Z" transform="translate(-24.809 -132.599)" fill="#d2d1d1" stroke="#fff" stroke-miterlimit="10" stroke-width="0.334"/>
          <path id="Trazado_111039" data-name="Trazado 111039" d="M29.118,140.579q-.288.255-.552.528l1.5,1.5c.146-.153.3-.3.461-.444a8.245,8.245,0,0,1,11.457.49l1.5-1.5A10.363,10.363,0,0,0,29.118,140.579Z" transform="translate(-25.512 -133.603)" fill="#d2d1d1" stroke="#fff" stroke-miterlimit="10" stroke-width="0.334"/>
          <path id="Trazado_111040" data-name="Trazado 111040" d="M32.53,144.611c-.131.116-.254.238-.374.363l1.2,1.2c.107-.115.219-.226.338-.332a4.539,4.539,0,0,1,6.375.343l1.164-1.166A6.236,6.236,0,0,0,32.53,144.611Z" transform="translate(-26.184 -134.552)" fill="#d2d1d1" stroke="#fff" stroke-miterlimit="10" stroke-width="0.334"/>
        </g>
        <path id="Trazado_111041" data-name="Trazado 111041" d="M39.479,149.088a2.228,2.228,0,1,1-2.226-2.227A2.227,2.227,0,0,1,39.479,149.088Z" transform="translate(-26.721 -135.268)" fill="#d2d1d1" stroke="#fff" stroke-miterlimit="10" stroke-width="0.334"/>
      </g>
      <g id="Grupo_62856" data-name="Grupo 62856" transform="translate(289.812 37.307)" style="mix-blend-mode: multiply;isolation: isolate">
        <path id="Trazado_111042" data-name="Trazado 111042" d="M392.413,80.847h-17.98a1.594,1.594,0,0,0-1.593,1.593V95.334a1.593,1.593,0,0,0,1.593,1.592h17.98A1.592,1.592,0,0,0,394,95.334V82.44A1.592,1.592,0,0,0,392.413,80.847Zm-.234,12.783a1.317,1.317,0,0,1-1.316,1.318H375.983a1.318,1.318,0,0,1-1.318-1.318V84.142a1.318,1.318,0,0,1,1.318-1.317h14.879a1.317,1.317,0,0,1,1.316,1.317Z" transform="translate(-372.839 -80.847)" fill="#d2d1d1" stroke="#fff" stroke-miterlimit="10" stroke-width="0.334"/>
        <path id="Trazado_111043" data-name="Trazado 111043" d="M387.434,100.628h-4.688a2.633,2.633,0,0,1-.992,3.269h6.672A2.632,2.632,0,0,1,387.434,100.628Z" transform="translate(-374.508 -84.549)" fill="#d2d1d1" stroke="#fff" stroke-miterlimit="10" stroke-width="0.334"/>
        <rect id="Rectángulo_6445" data-name="Rectángulo 6445" width="8.25" height="0.797" transform="translate(6.458 19.349)" fill="#d2d1d1" stroke="#fff" stroke-miterlimit="10" stroke-width="0.334"/>
      </g>
      <g id="Grupo_62857" data-name="Grupo 62857" transform="translate(57.362 84.888)" style="mix-blend-mode: multiply;isolation: isolate">
        <path id="Trazado_111044" data-name="Trazado 111044" d="M93.105,148.847v4.8l6.287,2.4v-9.7Z" transform="translate(-88.039 -140.686)" fill="#d2d1d1" stroke="#fff" stroke-miterlimit="10" stroke-width="0.334"/>
        <rect id="Rectángulo_6446" data-name="Rectángulo 6446" width="3.455" height="6.168" transform="translate(1.257 7.429)" fill="#d2d1d1" stroke="#fff" stroke-miterlimit="10" stroke-width="0.334"/>
        <rect id="Rectángulo_6447" data-name="Rectángulo 6447" width="0.981" height="6.168" transform="translate(0 7.429)" fill="#d2d1d1" stroke="#fff" stroke-miterlimit="10" stroke-width="0.334"/>
        <path id="Trazado_111045" data-name="Trazado 111045" d="M107.826,140.16c-.239-.27-.488-.529-.742-.777L105.37,141.1q.333.321.645.672a12.26,12.26,0,0,1-.651,16.964l1.714,1.715A14.683,14.683,0,0,0,107.826,140.16Z" transform="translate(-90.333 -139.383)" fill="#d2d1d1" stroke="#fff" stroke-miterlimit="10" stroke-width="0.334"/>
        <path id="Trazado_111046" data-name="Trazado 111046" d="M103.894,143.694c-.171-.192-.348-.376-.528-.552l-1.5,1.5c.152.148.3.3.443.463a8.244,8.244,0,0,1-.491,11.456l1.5,1.5A10.363,10.363,0,0,0,103.894,143.694Z" transform="translate(-89.67 -140.086)" fill="#d2d1d1" stroke="#fff" stroke-miterlimit="10" stroke-width="0.334"/>
      </g>
      <path id="Trazado_111047" data-name="Trazado 111047" d="M271.733,38.853c-7.219,0-13.069,4.266-13.069,9.528,0,3.007,1.91,5.688,4.894,7.435h0s1.466,2.969,0,4.868c0,0,4.322-.722,5.149-3.033a17.673,17.673,0,0,0,3.025.258c7.217,0,13.071-4.267,13.071-9.529S278.95,38.853,271.733,38.853Zm-5.868,11.271a1.743,1.743,0,1,1,1.744-1.743A1.744,1.744,0,0,1,265.865,50.124Zm5.868,0a1.743,1.743,0,1,1,1.744-1.743A1.743,1.743,0,0,1,271.733,50.124Zm5.87,0a1.743,1.743,0,1,1,1.741-1.743A1.744,1.744,0,0,1,277.6,50.124Z" transform="translate(-61.66 -35.681)" fill="#d2d1d1" stroke="#fff" stroke-miterlimit="10" stroke-width="0.334" style="mix-blend-mode: multiply;isolation: isolate"/>
      <g id="Grupo_62859" data-name="Grupo 62859" transform="translate(252.268 177.929)" style="mix-blend-mode: multiply;isolation: isolate">
        <path id="Trazado_111048" data-name="Trazado 111048" d="M350.714,276.594c-.149-.267,0-.163-.09-.4s-.089-.133-.133-.163a.907.907,0,0,1-.239-.371,2.271,2.271,0,0,1-.148-.6c-.061-.282-.046-.165-.1-.387a1.156,1.156,0,0,0-.081-.267,2.905,2.905,0,0,0-.218-.463,1.238,1.238,0,0,1-.178-.327c-.046-.134-.031-.224-.076-.4s0-.179.045-.417.121-.164.165-.3a1.375,1.375,0,0,1,.1-.224.482.482,0,0,0,.012-.3,2.02,2.02,0,0,0-.045-.282,2.632,2.632,0,0,0-.089-.3.777.777,0,0,1-.1-.281c-.032-.165-.015-.075-.015-.15s-.246-.328-.246-.328c-.259-.267-.009-.133-.163-.423s-.046-.111-.115-.336,0,0-.043-.268.091-.133.067-.334,0,0-.045-.134-.066-.111-.131-.206-.114,0-.114,0a.606.606,0,0,1-.379-.2c-.158-.179,0,0-.09-.091a1.3,1.3,0,0,0-.337-.223.265.265,0,0,0-.222-.023l-.134.023c-.133.023,0,0-.18.067s-.109.133-.109.133a3.7,3.7,0,0,1-.426.113.281.281,0,0,1-.133-.045s-.225,0-.423.022,0,0-.27.133-.179.089-.58,0,0,0-.156-.111-.112-.091-.24-.246-.074-.155-.185-.392a3.8,3.8,0,0,1-.2-.545c-.134-.379,0,0-.089-.106s-.154-.162-.336-.385,0,0-.024-.067a.817.817,0,0,1,0-.467c.067-.224.069-.135.115-.268a.58.58,0,0,0,.021-.267c0-.134,0-.113-.09-.2s-.023-.111,0-.334,0,0,.046-.134.133-.179.245-.335,0-.113,0-.113l.226-.356a.686.686,0,0,0,.155-.179.337.337,0,0,1,.117-.133,1.259,1.259,0,0,0,.1-.134c.044-.067.136-.179.136-.179h.111s.156-.157.225-.217,0-.207,0-.341l.221-.156.269-.246.085-.066a.458.458,0,0,0,.121-.2,1.545,1.545,0,0,1,.289.065,2.708,2.708,0,0,0,.421.046,4.229,4.229,0,0,0,.49-.38h.67c.224,0,.111.023.111.023h.223l.181-.023a2.657,2.657,0,0,1,.355-.089c.066,0,.066.156.066.156l.069.155v.135l.021.245a2.22,2.22,0,0,0,.268.158c.067.022.157.044.157.044l.27.111v.112a1.036,1.036,0,0,0,.252.134c.1.023.423.1.467.111a.4.4,0,0,0,.135,0,.346.346,0,0,0,.2-.108c.087-.077,0-.145,0-.234a.3.3,0,0,1,.057-.163l.389.03.222.118a1.57,1.57,0,0,0,.236.075,1.1,1.1,0,0,0,.388-.059,2.554,2.554,0,0,1,.477.207c.044.061.284,0,.328,0h.135s.086,0,.282-.177c.01-.011.021-.02.028-.028-.108-.311-.23-.617-.359-.917a2.267,2.267,0,0,1-.292.007c-.167-.015,0,0-.061-.018a.111.111,0,0,0-.089,0l-.06-.014a.615.615,0,0,1-.253,0c-.1-.034-.1,0-.1,0l-.1-.147-.045-.119-.178-.312.1-.015s.076,0,.092-.046.118-.088.118-.088a.282.282,0,0,0,.077-.09c.014-.044.3-.089.339-.1h0c-.118-.221-.239-.44-.37-.654l-.153.208s-.028.164-.028.208a.262.262,0,0,0,.1.165c.059.044,0,.124,0,.124s-.163.084-.208.07a.444.444,0,0,1-.18-.07c-.058-.053-.2.054-.31,0s-.21.173-.24.247a.136.136,0,0,0,.03.134s.089.119.12.164,0,.148,0,.148a.5.5,0,0,1-.1.156c-.061.05-.167,0-.167,0h-.072a.675.675,0,0,1-.015-.289c.029-.133,0,0,.12-.015s0,0-.015-.045-.1-.194-.1-.194h-.193c-.075,0-.075-.147-.075-.147l-.059-.045c-.059-.045.059-.1,0-.254s-.12-.133-.12-.133l-.13-.075c-.132-.075,0-.045,0-.045l-.213-.09a2.837,2.837,0,0,1-.268-.1l-.3-.149s-.059-.15-.1-.135a.593.593,0,0,1-.164,0l-.059.194h.1l.1.178.134.208.085.076.227.148a1.323,1.323,0,0,0,.371.151c.1,0,.076.073.076.073l-.121-.015-.059-.058a.1.1,0,0,0-.132,0v.5h-.075c-.076,0,0-.164,0-.164l-.03-.06c-.029-.06.03-.06,0-.1a.3.3,0,0,0-.073-.073v-.1s-.061-.046-.111-.076a.212.212,0,0,0-.1-.03l-.237-.163s-.076-.059-.15-.1a1.869,1.869,0,0,1-.192-.1.987.987,0,0,0-.09-.061l-.135-.133-.1-.089-.163.093-.135.1-.3.015-.076-.08c-.072-.08-.117,0-.117,0h-.1l-.253.2v.059l-.089.165-.1.1-.193.172-.061.154s-.072.15-.085.194a1.253,1.253,0,0,1-.084.15s-.246.133-.322.178a.323.323,0,0,1-.211,0h-.41a.97.97,0,0,1-.093-.208.136.136,0,0,1,.093-.12.419.419,0,0,0,.121-.1.242.242,0,0,1,0-.193.091.091,0,0,0,0-.12.607.607,0,0,0,.061-.133.257.257,0,0,0,0-.089l-.061-.074a.51.51,0,0,1-.273-.076c-.089-.075-.106,0-.106,0V261.1a.892.892,0,0,1,.106-.089c.044-.029.072-.029.178-.029a.478.478,0,0,0,.1-.006c.1,0,.187.064.289.02a.288.288,0,0,1,.211,0,.758.758,0,0,0,.187.056c.056,0,.056,0,.135-.056s0,0,0-.112v-.076a.584.584,0,0,0,0-.248c-.035-.122.021-.054,0-.111s.021-.1-.046-.178,0,0-.033-.023a1.524,1.524,0,0,0-.212-.077.177.177,0,0,1-.1-.135c0-.046.145-.046.18-.056a1.232,1.232,0,0,1,.211-.033.558.558,0,0,0,.244-.079,2.335,2.335,0,0,0,.191-.146c.078-.054.167-.088.235-.132a1.852,1.852,0,0,1,.189-.114.393.393,0,0,0,.089-.054.819.819,0,0,0,.211-.145c.089-.088.056-.055.067-.088s.089-.056.112-.1.09-.024.169-.072.065.027.143,0,.08.027.089,0,.122-.119.159-.1.076-.03.111,0,.156,0,.156,0h.212l.213.1c.033.02.165-.007.18-.041a.32.32,0,0,1,.22-.059,2.114,2.114,0,0,0,.268,0c.033.007.1-.007.192,0s.143-.107.143-.107v-.118c-.177-.2-.363-.39-.554-.576-.01.014-.018.029-.028.046-.032.067-.077.144-.077.144s-.1.157-.165.18a1.363,1.363,0,0,0-.215.119c-.067.039-.145-.009-.212-.075s-.022-.112-.067-.257-.011-.1-.069-.19-.063-.089-.132-.089a3.317,3.317,0,0,0-.367.1.361.361,0,0,1-.19.011.173.173,0,0,1-.111-.067c-.035-.055-.046-.1-.09-.168s-.035-.077-.054-.238a1.463,1.463,0,0,0-.025-.174c-.02-.112.135-.089.181-.19s.067-.044.146-.066a.291.291,0,0,1,.154,0,1.022,1.022,0,0,0,.218-.063,13.713,13.713,0,0,0-3.641-2.064.358.358,0,0,1-.08.081c-.159.124.043.03-.334.167a1.255,1.255,0,0,0-.471.237l-.111.065v.128s-.11.1-.133.128.045.158.045.158.177.023.069.111a.581.581,0,0,1-.2.111.317.317,0,0,0-.157,0c-.063.022,0-.069-.177,0s-.693.194-.693.194a3.982,3.982,0,0,1-.32.239s.142-.127-.1,0a1.985,1.985,0,0,1-.649.148s0-.2-.134,0a1.558,1.558,0,0,1-.245.291l-.157.178s-.312.011-.333.161-.588.173-.727.151a.393.393,0,0,1-.237-.151.852.852,0,0,1-.064-.319c.021-.088.064-.333.133-.357a.761.761,0,0,0,.168-.1s.033-.12,0-.154.075-.085.075-.085a.845.845,0,0,0,.083-.15c.009-.045.054-.045.089-.066a.343.343,0,0,0,.111-.168c.042-.112-.022-.089-.022-.089v-.1a.331.331,0,0,0,.1-.111c.036-.067.012-.055,0-.123s-.034-.056-.034-.056l-.211-.155-.335-.115a1.025,1.025,0,0,1-.09-.252c-.021-.126.113-.08-.021-.126a3.14,3.14,0,0,0-.714.048h-.135v-.181s.157-.2.248-.157a3.135,3.135,0,0,0,.558.076s.328-.008.376-.076-.018-.335.181-.312a1.68,1.68,0,0,0,.557-.111l-.025-.02c-.237-.011-.475-.019-.713-.019l-.221,0a.321.321,0,0,1-.03.022c-.029,0-.185.08-.206.08a1.962,1.962,0,0,0-.18.09c-.021.007-.1.044-.1.044a3.038,3.038,0,0,1-.38.067c-.124.007-.043.029-.1.029s-.1.037-.12.037-.138.024-.187.024-.146.065-.17.065-.126.052-.153.052a.29.29,0,0,0-.119.062,1.336,1.336,0,0,1-.137.043.838.838,0,0,1-.126.045c-.045.008-.089.052-.112.059s-.072.037-.066.077-.06.034-.084.043a.363.363,0,0,0-.066.035.265.265,0,0,1-.134-.035.187.187,0,0,0-.067-.043s-.1,0-.132-.033-.054,0-.054,0l-.1.033a.592.592,0,0,0-.132,0,.614.614,0,0,1-.193-.058c-.008-.008.022-.035.074-.009a.056.056,0,0,0,.033.009c.031,0,.046-.018.063-.012a.283.283,0,0,0,.186-.037c.067-.045.09,0,.112,0s.028,0,.046-.053.055,0,.055,0l-.055-.141a.3.3,0,0,1,.1.059c.021.028.059,0,.059,0a.306.306,0,0,0,.1-.068c.053-.051.022-.044.007-.111s0,0,.029-.075.2.059.2.059l.045.006c.043.009.05.032.05.032l.045.008a.216.216,0,0,0,.06-.008,1.1,1.1,0,0,1,.238-.032c.023.015.032-.036.1-.117s.023-.037.038-.075-.031-.029-.031-.029h-.054s-.062,0-.143,0c-.409.059-.814.138-1.212.233l-.029.026v.056h-.211l-.024-.016a13.609,13.609,0,0,0-3.1,1.235l.054.009c.133.019,0,.135,0,.135s-.109.134-.176.221-.114-.087-.179-.109a.308.308,0,0,1-.085-.037c-.169.1-.34.206-.5.315.216.02.783.079.984.079.254,0,.222-.045.343-.179s.223-.178.3-.312a.209.209,0,0,1,.238-.1,6.475,6.475,0,0,0,.506.55c.253.254.209-.076.536-.193s.432-.15.432-.15l-.15.446s-.076.15-.149.151-.223.073-.3.073a2.482,2.482,0,0,0-.416.133,1.979,1.979,0,0,1-.4.075c-.162.03-.221.149-.342.224a1.6,1.6,0,0,1-.551.118c-.223.029-.253.09-.386.1s-.133.189-.21.293-.03.3-.03.4a1.019,1.019,0,0,0,.091.282c.031.1.5.09.5.09s.256.149.256.209a4.127,4.127,0,0,1,.085.506.222.222,0,0,0,.254.222s.508-.461.673-.58.161-.193.266-.343.074-.163.179-.311.251-.269.312-.358.089-.045.417-.267c.077-.055.127-.088.155-.11l-.02-.009s.112-.061.02.009l.528.243h.2a1.225,1.225,0,0,1,.385.148c.029.046.269.536.359.775s.251.179.37.268.014.373.014.373a2.165,2.165,0,0,0-.65.283c-.093.119-.494.148-.716.163a3.91,3.91,0,0,1-.448,0s-.446.253-.446.346.269.041.388.011.1,0,.252.1a.159.159,0,0,1,.028.243s-.013.321-.086.383,0,0-.135.1a.591.591,0,0,1-.356.133c-.135.015,0,0-.015-.164a.768.768,0,0,0-.076-.268l-.225.075a1.583,1.583,0,0,0-.5.18c-.208.134-.179.208-.3.268s-.135.18-.238.3a1.009,1.009,0,0,1-.46.209,1.5,1.5,0,0,0-.373.148,4.135,4.135,0,0,0-.223.374s-.12.193-.224.327a5.325,5.325,0,0,1-.416.416s-.492.6-.539.641a1.589,1.589,0,0,0-.044.475,2.522,2.522,0,0,1-.059.463c-.06.372-.089.1-.089.1s-.253-.162-.3-.312-.059-.1-.132-.372-.12-.074-.12-.074a1.23,1.23,0,0,1-.506-.031c-.12-.073-.209-.073-.4,0s-.137.091-.225.134-.135-.014-.179,0a2.14,2.14,0,0,1-.328,0c-.163,0-.223.119-.313.15a1.8,1.8,0,0,0-.416.237.973.973,0,0,1-.224.358c-.208.237,0,.388,0,.432a4.108,4.108,0,0,0,.268.745c.05.093.059.137.05.156a2.89,2.89,0,0,0,.709-.142c.015-.06.237-.209.293-.343s.349,0,.349,0l-.122.149a2.872,2.872,0,0,1-.045.536c-.044.149-.135.149-.179.224s.419.253.463.207.253,0,.253,0l.128.209s.02.418.007.462a.545.545,0,0,0,0,.162,3.021,3.021,0,0,0,.506.418c.087.015.074-.029.074-.029s.3-.073.356-.089.343.224.343.224a.242.242,0,0,0,.147-.135c.046-.1.208-.073.3-.164s.076.016.076.016.253.254.326.177a.389.389,0,0,0,.076-.237.5.5,0,0,1,.357-.18c.193.013.117.166.117.166l.716.059s.431.193.478.224.177.149.177.149.552.193.61.238a2.561,2.561,0,0,1,.238.327,8.408,8.408,0,0,1,1.027.373c.149.1.059.326.059.445a.283.283,0,0,1-.046.2,3.616,3.616,0,0,1-.206.311c-.044.045-.03.12-.03.165a.661.661,0,0,0,.388.223.85.85,0,0,0,.358-.089l.387-.15.341.164.865.267.4.1a4.709,4.709,0,0,1,.493.64,1.791,1.791,0,0,0,0,.284,3.135,3.135,0,0,1-.193.7c-.073.06-.15.417-.358.775s-.09.267-.193.432,0,.254,0,.3a.629.629,0,0,1-.162.313c-.107.1-.154.223-.226.3a.754.754,0,0,1-.238.163,1.84,1.84,0,0,1-.371.1c-.27.06-.1.075-.253.224a.729.729,0,0,1-.238.179.8.8,0,0,1-.2.119c-.089.03-.1.074-.133.268a2.252,2.252,0,0,1-.165.519,2.546,2.546,0,0,1-.193.3c-.076.092-.25.375-.326.4a.229.229,0,0,1-.164-.015s-.267.193-.357.254-.014.089.075.208,0,.341,0,.388a.716.716,0,0,1-.15.238.888.888,0,0,1-.238.133c-.1.045,0,.193,0,.193a4.947,4.947,0,0,1-.252.492.316.316,0,0,0,0,.328l.149.3a4.048,4.048,0,0,1,.1.446,1.434,1.434,0,0,1-.147.417.664.664,0,0,0-.076.207s-.028.106-.58.106-.1-.046-.252-.358a.922.922,0,0,1-.119-.564c0-.18-.09-.12-.446-.492s-.167-.135-.278-.372a1.848,1.848,0,0,1-.007-.789,3.48,3.48,0,0,0,0-.4c-.013-.207-.043-.4-.076-.625s-.072-.237-.087-.371a2.476,2.476,0,0,1,.059-.745.73.73,0,0,0,0-.371v-.849a3.02,3.02,0,0,1-.178-.492c-.12-.387-.2-.372-.2-.372l-.3-.312c-.3-.314,0,0-.164-.09a1.29,1.29,0,0,1-.222-.119c-.106-.074,0,0-.062-.089s-.193-.164-.251-.313a1.255,1.255,0,0,0-.24-.329,1.139,1.139,0,0,1-.135-.162c-.043-.076-.162-.328-.22-.433a2.329,2.329,0,0,1-.135-.371l-.237-.314s.116-.446.059-.519-.059-.1-.059-.1v-.388l.266-.328.209-.4s.281-.521.312-.627,0-.178-.06-.327-.355-.015-.355-.015-.554-.164-.6-.184-.49-.353-.49-.353-.134-.1-.222-.163-.432-.342-.715-.522-.164-.147-.238-.356-.09.013-.116.059-.107,0-.807-.209-.253-.119-.253-.119a2.859,2.859,0,0,1-.535-.313,1.591,1.591,0,0,0-.49-.254c-.225-.1.028-.446.028-.446s-.463-.579-.506-.654-.145-.233-.231-.4a13.681,13.681,0,0,0,23.532,12.5A.871.871,0,0,1,350.714,276.594Zm-2.359-14.952a.691.691,0,0,1,.036-.259,1.721,1.721,0,0,0,.109-.245l.043.067c.063.056.184.026.212.124s-.067.176-.13.238c-.151.143.028.334-.137.474C348.27,262.227,348.353,261.754,348.355,261.642Zm-1.528-2.122c0-.046.1,0,.1,0l.106-.133-.106-.06h-.1v-.253h.1v-.061h.106v-.267l-.061-.075-.15-.07v-.08l.017-.059a.559.559,0,0,0,.014-.089c.015-.089,0,0,.03-.148s.089,0,.089,0l.088.059v.224a.206.206,0,0,0,.032.094h.12l.059.145.074.167.03.1.208.2.09.073-.1.075v.164l-.089.045h-.209a2.585,2.585,0,0,1-.314.044l-.134.06h-.211S346.827,259.566,346.827,259.521Zm-1.7-.73h.224l.238-.163a.081.081,0,0,1,.119,0,.208.208,0,0,0,.15.068.372.372,0,0,0,.134,0,.39.39,0,0,1,.1,0h.074c0,.1.075.007,0,.1a.425.425,0,0,1-.206.12h-.075l-.06.1h-.461l-.122-.059-.118-.015h-.075Zm-11.68,6.97s-.09-.033-.123,0a8.309,8.309,0,0,1-.963-.412l-.121.011-.077.024h-.143l-.128-.034v-.055l.081-.034a1.364,1.364,0,0,1,.224-.112c.033,0,.314.055.346.055a.665.665,0,0,1,.145.057s.154-.057.2,0,.076.034.155.1.079.034.134.1a.522.522,0,0,1,.056.067.349.349,0,0,0,.176.133l.037.011Zm1.226.214c-.145.054-.145.022-.224.066s-.02.022-.076.046a.544.544,0,0,1-.186,0l-.072.009c-.087.012-.179.032-.21,0s-.036.011-.1.016-.121,0-.2,0l-.078.007.189-.056.087-.011.077-.046.058-.072-.031-.094v-.077a.339.339,0,0,1,.144,0,.271.271,0,0,0,.134,0s-.046-.034.054.011.135.021.192.043.1.035.166.057.056-.057.066.023S334.823,265.918,334.676,265.975Zm1.748-10.764c.007-.021-.015-.03,0-.051s.036-.031.059-.053a.372.372,0,0,0,.08-.1c.022-.044.1,0,.15,0l.052.029.008.029s.029.038.052.038a.036.036,0,0,1,.031.015l.072.033H337a1.078,1.078,0,0,0,.207,0c.084-.01.09.02.113,0s.067,0,.067,0,.051,0,.192,0,.076-.018.142,0,.03.057.03.057-.059.075-.082.1-.046-.011-.067,0a.351.351,0,0,1-.089,0h-.143s-.089,0-.117-.03-.068.015-.1-.007-.089.021-.119,0-.134,0-.134,0h-.237a.162.162,0,0,1-.111-.037.367.367,0,0,1-.131,0C336.34,255.218,336.418,255.235,336.424,255.211Zm-1.156.324v.064l-.078.076h-.1l-.054.076-.067-.016a.164.164,0,0,1-.137,0c-.065-.033,0,0-.055,0s0-.065,0-.065h-.063v-.047l-.063-.014-.051-.01.122-.041h.069c.066,0,0,0,.088-.023a.276.276,0,0,1,.056-.01V255.5l.132-.067.035.011c.033.011.089-.011.167,0Zm.772-.022c-.035,0-.079,0-.079,0a.119.119,0,0,0-.089,0c-.033.022-.167.079-.167.079s0-.015-.045.031-.078.035-.111.047l-.035.009-.033-.087.089-.157h.47S336.075,255.514,336.04,255.514Zm2.325,4.711c-.071-.021-.112-.076-.192-.079-.1,0-.211.056-.315.033-.208-.046.055-.178.146-.225.167-.087.216-.228.345-.355v-.011c.019-.015.024-.028.043-.021a.853.853,0,0,0,.037.3.268.268,0,0,0,.245.124A.231.231,0,0,1,338.365,260.225Zm.461-3.531a.181.181,0,0,1-.023.073c-.018.041-.037.024-.079.035a.381.381,0,0,1-.08.018c-.048.006-.06-.007-.06-.007a1.028,1.028,0,0,1-.1-.055.387.387,0,0,0-.078-.04.347.347,0,0,0-.1.024c-.065.02-.055.038-.055.054s0,.1,0,.111a.342.342,0,0,0,.018.085.632.632,0,0,1,.034.116.122.122,0,0,1-.041.091c-.011.016-.037.022-.1.028s-.041,0-.055-.006l-.034-.013a.95.95,0,0,0-.156-.055c-.028,0-.043.04-.043.04l-.018.05a1.127,1.127,0,0,0,.141.139c.073.061,0,.056,0,.056l-.057.033a.806.806,0,0,1-.233-.044.83.83,0,0,1-.253-.175c-.089-.094-.028-.05-.066-.145s-.051-.06-.084-.116,0,0-.039-.085,0-.05.028-.116.072-.061.111-.1.25.013.362,0,.074.013.175-.027.032-.015.05-.083,0,0-.019-.072,0,0-.037-.039a.192.192,0,0,0-.106-.046.236.236,0,0,1-.063-.044c-.033-.033-.077-.039-.123-.1s-.028-.039-.067-.089-.05-.062-.076-.1,0,0-.024-.021-.045-.023-.072-.05-.078-.046-.1-.062a.3.3,0,0,0-.1-.028.41.41,0,0,0-.077,0c-.037,0-.086.011-.1.011a.326.326,0,0,0-.081.033.309.309,0,0,1-.1.039c-.072.017-.037,0-.037,0a.745.745,0,0,1-.159-.042c-.128-.041-.05,0-.05,0h-.05a.487.487,0,0,0-.084,0,.578.578,0,0,1-.106,0h-.121a.287.287,0,0,1-.064-.043c-.026-.028-.036-.028-.049-.052a.1.1,0,0,1,0-.065c.006-.023.028-.017.043-.039a.235.235,0,0,0,.063-.1c.011-.037.041,0,.064-.033s.05-.034.077-.054a.5.5,0,0,1,.057-.034.682.682,0,0,0,.082-.085.12.12,0,0,1,.089-.038h.063l.106.043.059.08.073.034a.956.956,0,0,0,.182,0c.071-.01.1-.046.125-.034s.083-.023.138-.034.089.055.137.1a.5.5,0,0,0,.109.085l.1.037a.954.954,0,0,0,.192-.033c.093-.027.061,0,.132,0s.046.039.074.073.049.054.049.054l.134.146s.146.05.224.072.044.062.044.089v.117a.182.182,0,0,0,.013.084,1.278,1.278,0,0,0,.133.158.523.523,0,0,0,.128.089C338.858,256.634,338.831,256.658,338.826,256.694Z" transform="translate(-326.703 -253.91)" fill="#d2d1d1"/>
        <g id="Grupo_62858" data-name="Grupo 62858">
          <path id="Trazado_111049" data-name="Trazado 111049" d="M340.582,281.763A13.959,13.959,0,1,1,354.509,267.8,13.962,13.962,0,0,1,340.582,281.763Zm0-27.354a13.4,13.4,0,1,0,13.366,13.4A13.4,13.4,0,0,0,340.582,254.408Z" transform="translate(-326.652 -253.845)" fill="#d2d1d1"/>
        </g>
      </g>
    </g>
  </g>
</svg>
