<svg xmlns="http://www.w3.org/2000/svg" width="239.504" height="169.347" viewBox="0 0 239.504 169.347">
  <g id="Grupo_62907" data-name="Grupo 62907" transform="translate(-635 -4967)">
    <g id="Grupo_62884" data-name="Grupo 62884" transform="translate(710.357 4995.847)">
      <path id="Trazado_111130" data-name="Trazado 111130" d="M674.156,154.187l20.88-.03a1.738,1.738,0,0,0,0-3.445l-20.88.033a1.738,1.738,0,0,0,0,3.443Z" transform="translate(-641.546 -139.275)" fill="#47286d"/>
      <path id="Trazado_111131" data-name="Trazado 111131" d="M674.146,143.86l20.88-.031a1.742,1.742,0,0,0-.005-3.451l-2.233,0-2.255-4.572s-1.086-1.471-1.649-1.629-6.981-.868-8.973.012a3.272,3.272,0,0,0-1.725,1.753c-.586,1.123-1.815,3.427-2.367,4.46l-1.677,0a1.743,1.743,0,0,0,0,3.451Z" transform="translate(-641.542 -133.759)" fill="#47286d"/>
      <path id="Trazado_111132" data-name="Trazado 111132" d="M674.167,161.322l20.879-.032a1.74,1.74,0,0,0,0-3.447l-20.879.031a1.741,1.741,0,0,0,0,3.449Z" transform="translate(-641.549 -141.595)" fill="#47286d"/>
      <g id="Grupo_62882" data-name="Grupo 62882" transform="translate(0 32.054)">
        <path id="Trazado_111133" data-name="Trazado 111133" d="M632.591,185.511l5.278,2.628a2.232,2.232,0,0,0,3.016-.813l.013-.03a2.228,2.228,0,0,0-.812-3.014l-5.279-2.63a2.191,2.191,0,0,0-3.291,2.077A2,2,0,0,0,632.591,185.511Z" transform="translate(-628.159 -181.304)" fill="#f9db78"/>
        <path id="Trazado_111134" data-name="Trazado 111134" d="M735.309,187.263a2.232,2.232,0,0,0,3.024.782l5.27-2.644a1.977,1.977,0,0,0,1.056-1.776,2.254,2.254,0,0,0-.289-1.278,2.217,2.217,0,0,0-3.023-.781q-2.637,1.324-5.272,2.643a2.235,2.235,0,0,0-.781,3.025C735.3,187.244,735.3,187.252,735.309,187.263Z" transform="translate(-661.835 -181.271)" fill="#f9db78"/>
        <path id="Trazado_111135" data-name="Trazado 111135" d="M629.289,226.061q2.888-.605,5.77-1.212a1.942,1.942,0,0,0,1.232-.862,1.885,1.885,0,0,0,.291-.671,2.5,2.5,0,0,0,.036-1.175.557.557,0,0,1-.016-.072,1.9,1.9,0,0,0-1.861-1.595,2.3,2.3,0,0,0-.847.037l-5.753,1.289C625.354,222.425,626.517,226.645,629.289,226.061Z" transform="translate(-626.543 -194.018)" fill="#f9db78"/>
        <path id="Trazado_111136" data-name="Trazado 111136" d="M739.409,222.353a1.925,1.925,0,0,0,1.554,2.375l5.754,1.286a2.229,2.229,0,0,0,2.711-1.551c0-.024.011-.05.015-.074a2.227,2.227,0,0,0-1.551-2.709l-5.77-1.214A2.233,2.233,0,0,0,739.409,222.353Z" transform="translate(-663.25 -194.003)" fill="#f9db78"/>
        <path id="Trazado_111137" data-name="Trazado 111137" d="M648.915,258.942c.015.013.032.025.045.038a2.233,2.233,0,0,0,3.124-.02q1.835-2.307,3.671-4.616a2.256,2.256,0,0,0-.022-3.124,1.732,1.732,0,0,0-.162-.141,2.2,2.2,0,0,0-2.97.156q-1.851,2.292-3.707,4.586A2.23,2.23,0,0,0,648.915,258.942Z" transform="translate(-633.61 -203.821)" fill="#f9db78"/>
        <path id="Trazado_111138" data-name="Trazado 111138" d="M721.317,254.3q1.836,2.308,3.673,4.613c.808,1.019,2.279.659,3.124-.02.015-.012.028-.024.045-.036,1.01-.811.665-2.28-.022-3.124q-1.857-2.288-3.718-4.577a1.879,1.879,0,0,0-1.7-.622,2.353,2.353,0,0,0-1.428.645,2.047,2.047,0,0,0-.6,1.229A2.583,2.583,0,0,0,721.317,254.3Z" transform="translate(-657.171 -203.802)" fill="#f9db78"/>
        <path id="Trazado_111139" data-name="Trazado 111139" d="M689.388,272.641a.3.3,0,0,1,.032,0,2.232,2.232,0,0,0,2.222-2.194q0-2.949-.008-5.9a2.234,2.234,0,0,0-2.2-2.222.263.263,0,0,1-.032,0,2.08,2.08,0,0,0-1.471.55,2.006,2.006,0,0,0-.749,1.645q0,2.95.009,5.9A2.231,2.231,0,0,0,689.388,272.641Z" transform="translate(-646.273 -207.642)" fill="#f9db78"/>
      </g>
      <g id="Grupo_62883" data-name="Grupo 62883" transform="translate(14.986 20.87)">
        <path id="Trazado_111140" data-name="Trazado 111140" d="M679.715,207.217c-.21.426-.25.754-.116.971s.268.324.4.324c.309,0,.734-.428.937-.832a3.217,3.217,0,0,0,.157-1.972A4.251,4.251,0,0,0,679.715,207.217Z" transform="translate(-658.766 -178.038)" fill="#f9e478"/>
        <path id="Trazado_111141" data-name="Trazado 111141" d="M693.04,208.171a1.513,1.513,0,0,0-.036,1.137.142.142,0,0,0,.144.076.878.878,0,0,0,.32-.082,1.821,1.821,0,0,0,.92-.959,2.816,2.816,0,0,0,.137-2.267c-.053.062-.106.126-.158.19A9.617,9.617,0,0,0,693.04,208.171Z" transform="translate(-663.121 -178.158)" fill="#f9e478"/>
        <path id="Trazado_111142" data-name="Trazado 111142" d="M694.486,185.434a135.184,135.184,0,0,1-7.49-20.72l-3.166,0a137.253,137.253,0,0,1-6.912,19.607,9.094,9.094,0,0,1,4.6,5.131,9.115,9.115,0,0,1,4.457-.645,8.421,8.421,0,0,1,3.284.926A17.418,17.418,0,0,1,694.486,185.434Z" transform="translate(-657.919 -164.701)" fill="#f9e478"/>
        <path id="Trazado_111143" data-name="Trazado 111143" d="M709.039,199.8a1.3,1.3,0,0,0,.137.007c.261,0,.569-.1.626-.33a1.354,1.354,0,0,0-.318-1.134,3.126,3.126,0,0,0-2.225-1.148,1.212,1.212,0,0,0-.181.011c.167.345.341.687.516,1.031C707.946,198.958,708.388,199.7,709.039,199.8Z" transform="translate(-667.731 -175.269)" fill="#f9e478"/>
        <path id="Trazado_111144" data-name="Trazado 111144" d="M669.944,198.817l.008,0c.069,0,.281-.088.77-.886l.038-.064c.306-.6.609-1.222.924-1.882a2.553,2.553,0,0,0-1.612.688,1.632,1.632,0,0,0-.4,1.281C669.709,198.552,669.863,198.776,669.944,198.817Z" transform="translate(-655.558 -174.876)" fill="#f9e478"/>
        <path id="Trazado_111145" data-name="Trazado 111145" d="M676.923,225.5a28.127,28.127,0,0,0,11.7-53.684l-.009-5.464a1.661,1.661,0,0,0-1.666-1.659l-7.051.009a131.389,131.389,0,0,0,7.315,20.086,4.649,4.649,0,0,1,4.147,1.111,4.164,4.164,0,0,1,1.477,3.134,2.23,2.23,0,0,1-1.1,1.74,2.761,2.761,0,0,1-1.481.452c-1.558,0-2.794-1.405-3.382-2.608q-.338-.666-.67-1.345a14.154,14.154,0,0,0-4.612,3.75,4.1,4.1,0,0,1,.727,1.864,5.773,5.773,0,0,1-1.347,4.024,2.374,2.374,0,0,1-3.4.521,2.465,2.465,0,0,1-1.083-1.691c-.2-1.533,1.129-3.158,2.1-4.347.045-.052.089-.1.13-.158a4.369,4.369,0,0,0-.889-.279,7.793,7.793,0,0,0-4.317.132q-.309.119-.611.254a12.27,12.27,0,0,1,.186,1.224,4.218,4.218,0,0,1-1.521,4.009,2.655,2.655,0,0,1-1.66.6,1.947,1.947,0,0,1-1.457-.591,2.867,2.867,0,0,1-.874-2.311,5.449,5.449,0,0,1,2.37-3.464c.193-.138.393-.275.6-.4-.509-1.415-1.582-3.518-3.6-4.31-.412.869-.831,1.729-1.252,2.562a1,1,0,0,1-.105.167c-.367.561-1.325,1.818-2.508,1.82a1.8,1.8,0,0,1-1.206-.486,3.6,3.6,0,0,1-.723-3.921,4.04,4.04,0,0,1,4.044-2.462c.206,0,.413.009.619.029a133.767,133.767,0,0,0,6.786-19.085l-5.886.009a1.665,1.665,0,0,0-1.662,1.667l.006,5.463A28.126,28.126,0,0,0,676.923,225.5Z" transform="translate(-648.756 -164.694)" fill="#f9e478"/>
      </g>
    </g>
    <g id="Grupo_62886" data-name="Grupo 62886" transform="translate(817.579 5026.133)">
      <path id="Trazado_111146" data-name="Trazado 111146" d="M811.374,199.079l20.879-.03a1.738,1.738,0,0,0,0-3.445l-20.879.032a1.738,1.738,0,0,0,0,3.443Z" transform="translate(-793.412 -184.166)" fill="#47286d"/>
      <path id="Trazado_111147" data-name="Trazado 111147" d="M811.363,188.752l20.881-.032a1.741,1.741,0,0,0-.005-3.45l-2.233,0L827.75,180.7s-1.085-1.471-1.648-1.629-6.982-.868-8.973.013a3.272,3.272,0,0,0-1.725,1.753c-.586,1.123-1.815,3.427-2.367,4.46l-1.678,0a1.743,1.743,0,0,0,0,3.451Z" transform="translate(-793.409 -178.651)" fill="#47286d"/>
      <path id="Trazado_111148" data-name="Trazado 111148" d="M811.385,206.214l20.879-.032a1.74,1.74,0,0,0,0-3.448l-20.879.031a1.742,1.742,0,0,0,0,3.449Z" transform="translate(-793.416 -186.486)" fill="#47286d"/>
      <g id="Grupo_62885" data-name="Grupo 62885" transform="translate(0 20.533)">
        <path id="Trazado_111149" data-name="Trazado 111149" d="M817.955,250.043a4.578,4.578,0,0,0-1.488,1.632,1.325,1.325,0,0,0-.1,1.3.836.836,0,0,0,.693.487c.529,0,1.04-.625,1.238-1.017a3.433,3.433,0,0,0,.187-2.182l-.093-.53Zm-.26,2.094a1.428,1.428,0,0,1-.613.65.462.462,0,0,1-.14-.168c-.065-.107-.016-.347.132-.645h0a3.36,3.36,0,0,1,.816-1.017A2.334,2.334,0,0,1,817.694,252.137Z" transform="translate(-795.483 -222.309)" fill="#47286d"/>
        <path id="Trazado_111150" data-name="Trazado 111150" d="M831.321,250.441c-.055.064-.11.13-.185.223a9.693,9.693,0,0,0-1.349,1.948v0a1.812,1.812,0,0,0-.022,1.446.482.482,0,0,0,.445.244,1.234,1.234,0,0,0,.441-.107,2.166,2.166,0,0,0,1.1-1.133,3.138,3.138,0,0,0,.14-2.536l-.212-.506Zm-.188,2.347a1.491,1.491,0,0,1-.744.787c-.031.013-.057.022-.08.03a1.468,1.468,0,0,1,.089-.708,7.756,7.756,0,0,1,1.013-1.5A2.863,2.863,0,0,1,831.133,252.788Z" transform="translate(-799.838 -222.405)" fill="#47286d"/>
        <path id="Trazado_111151" data-name="Trazado 111151" d="M813.478,229.221l.3.14a8.8,8.8,0,0,1,4.428,4.944l.124.322.319-.131a8.738,8.738,0,0,1,4.3-.621,8.1,8.1,0,0,1,3.153.886l.243.134.179-.212a17.182,17.182,0,0,1,5.115-4.217l.3-.144-.141-.3a134.721,134.721,0,0,1-7.471-20.669l-.07-.246-3.677.005-.069.246a137.087,137.087,0,0,1-6.895,19.561Zm7.613-19.437,2.653,0a135.7,135.7,0,0,0,7.3,20.228,18.05,18.05,0,0,0-4.864,4.034,9.07,9.07,0,0,0-3.17-.838q-.512-.051-1.01-.05a9.323,9.323,0,0,0-3.292.6,9.463,9.463,0,0,0-4.349-4.855A137.789,137.789,0,0,0,821.091,209.784Z" transform="translate(-794.585 -209.092)" fill="#47286d"/>
        <path id="Trazado_111152" data-name="Trazado 111152" d="M845.962,244.863l.015,0a1.459,1.459,0,0,0,.161.01h.012a.927.927,0,0,0,.953-.586,1.676,1.676,0,0,0-.379-1.423,3.445,3.445,0,0,0-2.481-1.278h-.007a1.749,1.749,0,0,0-.23.014l-.46.063.2.418c.169.347.343.691.517,1.033C844.653,243.911,845.159,244.741,845.962,244.863Zm.229-1.582a1.039,1.039,0,0,1,.262.833.477.477,0,0,1-.308.086c-.041,0-.059,0-.088-.005-.5-.08-.895-.777-1.189-1.38l-.258-.51A2.933,2.933,0,0,1,846.191,243.281Z" transform="translate(-804.368 -219.661)" fill="#47286d"/>
        <path id="Trazado_111153" data-name="Trazado 111153" d="M806.881,241.145a1.952,1.952,0,0,0-.493,1.534c.04.6.2,1.006.455,1.137l.114.04h.053c.216,0,.493-.13,1.054-1.048l.052-.086c.306-.606.611-1.228.927-1.888l.26-.544-.6.063A2.883,2.883,0,0,0,806.881,241.145Zm.646,1.249-.039.063a5.053,5.053,0,0,1-.377.55,2.4,2.4,0,0,1-.05-.373,1.291,1.291,0,0,1,.313-1.029,1.792,1.792,0,0,1,.766-.452Q807.826,241.8,807.527,242.394Z" transform="translate(-792.276 -219.238)" fill="#47286d"/>
        <path id="Trazado_111154" data-name="Trazado 111154" d="M826.017,216.33l-.007-5.249a2,2,0,0,0-2-2h0l-7.5.01.121.428a131.807,131.807,0,0,0,7.334,20.137l.111.237.257-.049a4.317,4.317,0,0,1,3.86,1.032,3.873,3.873,0,0,1,1.366,2.855,1.9,1.9,0,0,1-.944,1.482,2.433,2.433,0,0,1-1.3.4h0c-1.4,0-2.527-1.3-3.075-2.424q-.337-.664-.668-1.341l-.147-.3-.3.144a14.447,14.447,0,0,0-4.727,3.84l-.165.2.15.21a3.784,3.784,0,0,1,.667,1.715,5.483,5.483,0,0,1-1.268,3.756,2.041,2.041,0,0,1-2.946.469,2.137,2.137,0,0,1-.947-1.461c-.181-1.382,1.086-2.938,2.017-4.081.051-.058.1-.117.144-.177l.258-.341-.392-.171a4.69,4.69,0,0,0-.955-.3,8.056,8.056,0,0,0-4.508.148q-.316.122-.625.26l-.247.109.053.264a11.771,11.771,0,0,1,.18,1.191,3.908,3.908,0,0,1-1.4,3.715,2.317,2.317,0,0,1-1.441.519h-.007a1.6,1.6,0,0,1-1.212-.487,2.521,2.521,0,0,1-.782-2.046,5.121,5.121,0,0,1,2.232-3.221c.187-.135.382-.267.582-.395l.229-.144-.092-.254c-.577-1.6-1.7-3.69-3.794-4.51l-.293-.115-.136.285c-.41.866-.828,1.724-1.249,2.556a.779.779,0,0,1-.085.133c-.256.391-1.172,1.666-2.226,1.668a1.471,1.471,0,0,1-.984-.4,3.268,3.268,0,0,1-.629-3.551,3.719,3.719,0,0,1,3.728-2.243c.195,0,.392.009.588.028l.239.022.1-.219a134.08,134.08,0,0,0,6.8-19.133l.121-.429-6.332.01a2.007,2.007,0,0,0-2,2l.007,5.249a28.463,28.463,0,0,0,12.161,54.2h.041A28.466,28.466,0,0,0,842.4,242.06,28.563,28.563,0,0,0,826.017,216.33Zm7.6,45.391a27.61,27.61,0,0,1-19.637,8.171h-.04a27.789,27.789,0,0,1-11.681-53l.195-.09-.007-5.678a1.331,1.331,0,0,1,1.326-1.33l5.439-.009a133.043,133.043,0,0,1-6.55,18.393c-.137-.008-.273-.012-.409-.012a4.364,4.364,0,0,0-4.36,2.684,3.939,3.939,0,0,0,.815,4.29,2.125,2.125,0,0,0,1.43.571c1.353,0,2.4-1.38,2.774-1.95a1.382,1.382,0,0,0,.139-.222c.375-.741.748-1.5,1.117-2.274A6.836,6.836,0,0,1,807.189,235c-.131.087-.26.177-.385.267a5.775,5.775,0,0,0-2.509,3.707,3.2,3.2,0,0,0,.967,2.574,2.273,2.273,0,0,0,1.687.7h.022a3,3,0,0,0,1.865-.672,4.53,4.53,0,0,0,1.643-4.3c-.029-.308-.075-.634-.14-.99.117-.05.234-.1.353-.143a7.531,7.531,0,0,1,4.127-.115c.134.027.266.06.4.1-.982,1.211-2.21,2.811-2,4.4a2.793,2.793,0,0,0,1.22,1.921,2.716,2.716,0,0,0,3.85-.573,6.147,6.147,0,0,0,1.427-4.291,4.475,4.475,0,0,0-.64-1.8,13.9,13.9,0,0,1,4.038-3.318c.173.35.347.7.519,1.04.632,1.291,1.973,2.8,3.68,2.8h.006a3.1,3.1,0,0,0,1.66-.5,2.553,2.553,0,0,0,1.257-2,4.511,4.511,0,0,0-1.589-3.414,4.917,4.917,0,0,0-4.175-1.234,130.779,130.779,0,0,1-7.065-19.374l6.6-.009a1.207,1.207,0,0,1,.939.387,1.314,1.314,0,0,1,.39.936l.009,5.679.2.09a27.885,27.885,0,0,1,16.184,25.209A27.6,27.6,0,0,1,833.615,261.722Z" transform="translate(-785.474 -209.086)" fill="#47286d"/>
      </g>
    </g>
    <g id="Grupo_62888" data-name="Grupo 62888" transform="translate(635 5054.333)">
      <path id="Trazado_111155" data-name="Trazado 111155" d="M540.743,240.877l20.88-.03a1.739,1.739,0,0,0,0-3.446l-20.88.033a1.738,1.738,0,0,0,0,3.443Z" transform="translate(-522.782 -225.965)" fill="#47286d"/>
      <path id="Trazado_111156" data-name="Trazado 111156" d="M540.733,230.551l20.881-.032a1.741,1.741,0,0,0-.005-3.45l-2.232,0L557.12,222.5s-1.085-1.471-1.648-1.629-6.982-.868-8.973.013a3.27,3.27,0,0,0-1.725,1.752c-.586,1.123-1.815,3.428-2.367,4.461l-1.678,0a1.743,1.743,0,0,0,0,3.451Z" transform="translate(-522.779 -220.45)" fill="#47286d"/>
      <path id="Trazado_111157" data-name="Trazado 111157" d="M540.754,248.012l20.878-.032a1.74,1.74,0,0,0,0-3.447l-20.88.031a1.741,1.741,0,0,0,0,3.449Z" transform="translate(-522.785 -228.285)" fill="#47286d"/>
      <g id="Grupo_62887" data-name="Grupo 62887" transform="translate(0 20.533)">
        <path id="Trazado_111158" data-name="Trazado 111158" d="M547.324,291.842a4.574,4.574,0,0,0-1.489,1.633,1.323,1.323,0,0,0-.1,1.294.836.836,0,0,0,.693.488c.529,0,1.041-.625,1.239-1.017a3.446,3.446,0,0,0,.188-2.183l-.093-.529Zm-.26,2.094a1.426,1.426,0,0,1-.615.65s-.053-.026-.14-.169c-.065-.106-.016-.346.131-.644h0a3.372,3.372,0,0,1,.816-1.016A2.347,2.347,0,0,1,547.065,293.936Z" transform="translate(-524.853 -264.108)" fill="#47286d"/>
        <path id="Trazado_111159" data-name="Trazado 111159" d="M560.693,292.24c-.055.064-.11.131-.183.221a9.739,9.739,0,0,0-1.352,1.952v0a1.812,1.812,0,0,0-.022,1.446.481.481,0,0,0,.444.244,1.237,1.237,0,0,0,.442-.107,2.17,2.17,0,0,0,1.1-1.133,3.147,3.147,0,0,0,.14-2.536l-.211-.5Zm-.19,2.349a1.5,1.5,0,0,1-.744.787c-.031.012-.057.023-.08.03a1.46,1.46,0,0,1,.09-.708,7.755,7.755,0,0,1,1.014-1.5A2.867,2.867,0,0,1,560.5,294.589Z" transform="translate(-529.208 -264.206)" fill="#47286d"/>
        <path id="Trazado_111160" data-name="Trazado 111160" d="M542.847,271.02l.3.14a8.8,8.8,0,0,1,4.428,4.944l.124.322.32-.131a8.736,8.736,0,0,1,4.3-.621,8.105,8.105,0,0,1,3.153.886l.242.134.179-.213a17.18,17.18,0,0,1,5.114-4.217l.3-.144-.141-.3a134.855,134.855,0,0,1-7.472-20.668l-.07-.248-3.677.006-.068.246a137.043,137.043,0,0,1-6.9,19.56Zm7.613-19.437,2.653,0a135.7,135.7,0,0,0,7.3,20.228,18.061,18.061,0,0,0-4.864,4.034,9.079,9.079,0,0,0-3.17-.838q-.511-.051-1.01-.05a9.322,9.322,0,0,0-3.292.6,9.461,9.461,0,0,0-4.349-4.855A137.775,137.775,0,0,0,550.46,251.582Z" transform="translate(-523.955 -250.891)" fill="#47286d"/>
        <path id="Trazado_111161" data-name="Trazado 111161" d="M575.331,286.662l.016,0a1.436,1.436,0,0,0,.161.01.945.945,0,0,0,.965-.586,1.676,1.676,0,0,0-.38-1.423,3.443,3.443,0,0,0-2.481-1.278h-.007a1.507,1.507,0,0,0-.231.014l-.459.064.2.417c.168.347.343.691.516,1.032C574.024,285.71,574.53,286.54,575.331,286.662Zm.229-1.583a1.039,1.039,0,0,1,.262.834.478.478,0,0,1-.308.086l-.09-.005c-.491-.08-.874-.74-1.188-1.38l-.258-.51A2.936,2.936,0,0,1,575.561,285.079Z" transform="translate(-533.738 -261.46)" fill="#47286d"/>
        <path id="Trazado_111162" data-name="Trazado 111162" d="M536.25,282.943a1.958,1.958,0,0,0-.493,1.535c.04.6.2,1.007.457,1.137l.113.04h.053c.215,0,.492-.13,1.055-1.05l.05-.085c.306-.605.612-1.227.928-1.888l.26-.544-.6.063A2.888,2.888,0,0,0,536.25,282.943Zm.645,1.251-.036.061a5.1,5.1,0,0,1-.379.551,2.441,2.441,0,0,1-.05-.374,1.294,1.294,0,0,1,.313-1.028,1.789,1.789,0,0,1,.766-.453Q537.2,283.6,536.9,284.195Z" transform="translate(-521.646 -261.037)" fill="#47286d"/>
        <path id="Trazado_111163" data-name="Trazado 111163" d="M555.387,258.129l-.007-5.248a2,2,0,0,0-2-2h0l-7.5.009.121.429a131.76,131.76,0,0,0,7.335,20.137l.111.237.256-.049a4.323,4.323,0,0,1,3.86,1.031,3.875,3.875,0,0,1,1.366,2.856,1.905,1.905,0,0,1-.945,1.482,2.431,2.431,0,0,1-1.3.4h0c-1.4,0-2.527-1.3-3.076-2.424q-.337-.664-.668-1.341l-.147-.3-.3.144a14.454,14.454,0,0,0-4.727,3.84l-.165.2.15.21a3.78,3.78,0,0,1,.668,1.715,5.488,5.488,0,0,1-1.268,3.756,2.042,2.042,0,0,1-2.945.47,2.14,2.14,0,0,1-.948-1.461c-.18-1.382,1.088-2.939,2.017-4.081.052-.059.1-.118.146-.179l.253-.341-.389-.17a4.722,4.722,0,0,0-.955-.3,8.053,8.053,0,0,0-4.507.148q-.316.122-.625.26l-.247.11.053.264a11.775,11.775,0,0,1,.179,1.191,3.909,3.909,0,0,1-1.4,3.715,2.316,2.316,0,0,1-1.44.518h-.007a1.757,1.757,0,0,1-1.213-.486,2.524,2.524,0,0,1-.782-2.047,5.121,5.121,0,0,1,2.232-3.221c.187-.135.381-.267.581-.395l.229-.144-.092-.254c-.578-1.605-1.7-3.69-3.794-4.51l-.293-.115-.135.285c-.411.866-.828,1.723-1.247,2.553a.894.894,0,0,1-.087.136c-.256.391-1.172,1.666-2.226,1.668a1.47,1.47,0,0,1-.983-.4,3.267,3.267,0,0,1-.629-3.551,3.718,3.718,0,0,1,3.727-2.242c.2,0,.393.009.589.028l.239.022.1-.219a134.135,134.135,0,0,0,6.8-19.133l.121-.429-6.332.01a2.007,2.007,0,0,0-2,2l.007,5.249a28.464,28.464,0,0,0,12.162,54.2h.041a28.464,28.464,0,0,0,12.038-54.237Zm-12.039,53.562h-.04a27.789,27.789,0,0,1-11.682-53l.195-.09-.007-5.678a1.331,1.331,0,0,1,1.326-1.329l5.44-.009a133.053,133.053,0,0,1-6.55,18.393c-.137-.008-.274-.012-.41-.012a4.364,4.364,0,0,0-4.36,2.684,3.941,3.941,0,0,0,.816,4.29,2.125,2.125,0,0,0,1.43.571c1.353,0,2.4-1.38,2.774-1.95a1.417,1.417,0,0,0,.14-.222c.374-.741.747-1.5,1.115-2.274a6.836,6.836,0,0,1,3.024,3.735q-.2.132-.385.267a5.777,5.777,0,0,0-2.51,3.707,3.2,3.2,0,0,0,.967,2.574,2.274,2.274,0,0,0,1.688.695h.012a2.861,2.861,0,0,0,1.874-.671,4.528,4.528,0,0,0,1.643-4.3c-.03-.313-.075-.639-.139-.99q.175-.074.353-.142a7.522,7.522,0,0,1,4.126-.115c.134.027.266.06.4.1-.983,1.212-2.209,2.811-2,4.4a2.788,2.788,0,0,0,1.222,1.92,2.717,2.717,0,0,0,3.85-.573,6.156,6.156,0,0,0,1.426-4.291,4.473,4.473,0,0,0-.64-1.8,13.929,13.929,0,0,1,4.038-3.319c.173.351.347.7.52,1.04.632,1.291,1.973,2.8,3.68,2.8h.005a3.1,3.1,0,0,0,1.66-.5,2.555,2.555,0,0,0,1.258-2,4.512,4.512,0,0,0-1.589-3.414,4.914,4.914,0,0,0-4.175-1.234,130.735,130.735,0,0,1-7.065-19.375l6.605-.008h0a1.323,1.323,0,0,1,1.325,1.322l.009,5.679.2.09a27.79,27.79,0,0,1-11.561,53.041Z" transform="translate(-514.844 -250.885)" fill="#47286d"/>
      </g>
    </g>
    <rect id="Rectángulo_6456" data-name="Rectángulo 6456" width="1.346" height="87.754" transform="translate(662.448 4967)" fill="#47286d"/>
    <rect id="Rectángulo_6457" data-name="Rectángulo 6457" width="1.347" height="62.241" transform="translate(845.027 4967)" fill="#47286d"/>
    <rect id="Rectángulo_6458" data-name="Rectángulo 6458" width="1.347" height="30.409" transform="translate(752.825 4967)" fill="#47286d"/>
  </g>
</svg>
