<svg xmlns="http://www.w3.org/2000/svg" width="78.833" height="78.834" viewBox="0 0 78.833 78.834">
  <g id="responsibility" transform="translate(-1 -1)">
    <path id="Trazado_110879" data-name="Trazado 110879" d="M13.086,20.444v2.543A7.62,7.62,0,0,0,16.6,29.4a3.291,3.291,0,0,1-2.547,1.213h-.186A5.878,5.878,0,0,0,8,36.487v6.843A1.271,1.271,0,0,0,9.272,44.6H32.159a1.271,1.271,0,0,0,1.272-1.272V39.516H43.6v3.815A1.271,1.271,0,0,0,44.874,44.6H67.761a1.271,1.271,0,0,0,1.272-1.272V36.487a5.878,5.878,0,0,0-5.872-5.872h-.186A3.288,3.288,0,0,1,60.429,29.4a7.622,7.622,0,0,0,3.517-6.416V20.444a7.629,7.629,0,1,0-15.258,0v2.543A7.62,7.62,0,0,0,52.207,29.4a3.262,3.262,0,0,1-1.433,1,5.881,5.881,0,0,0-5.414-3.6h-.186a3.288,3.288,0,0,1-2.546-1.213,7.622,7.622,0,0,0,3.517-6.416V16.629a7.629,7.629,0,0,0-15.258,0v2.543a7.62,7.62,0,0,0,3.518,6.416A3.291,3.291,0,0,1,31.859,26.8h-.186a5.879,5.879,0,0,0-5.414,3.6,3.262,3.262,0,0,1-1.433-1,7.624,7.624,0,0,0,3.518-6.417V20.444a7.629,7.629,0,1,0-15.258,0Zm17.8,21.616H10.543V36.487a3.333,3.333,0,0,1,3.329-3.329h.186a5.988,5.988,0,0,0,.96-.085l.458.458a7.4,7.4,0,0,0,10.326.14v4.574a1.271,1.271,0,0,0,1.272,1.272h3.815Zm32.273-8.9a3.333,3.333,0,0,1,3.329,3.329v5.572H46.145V39.516H49.96a1.271,1.271,0,0,0,1.272-1.272V33.671a7.4,7.4,0,0,0,10.326-.14l.458-.458a5.988,5.988,0,0,0,.96.085ZM51.231,20.444a5.086,5.086,0,1,1,10.172,0v2.543a5.086,5.086,0,1,1-10.172,0Zm5.086,10.172a7.609,7.609,0,0,0,1.7-.2,5.85,5.85,0,0,0,1.434,1.561,4.981,4.981,0,0,1-6.276,0,5.829,5.829,0,0,0,1.434-1.561,7.609,7.609,0,0,0,1.7.2ZM33.43,16.629a5.086,5.086,0,0,1,10.172,0v2.543a5.086,5.086,0,0,1-10.172,0ZM38.516,26.8a7.609,7.609,0,0,0,1.7-.2,5.85,5.85,0,0,0,1.434,1.561,4.981,4.981,0,0,1-6.276,0A5.829,5.829,0,0,0,36.812,26.6a7.609,7.609,0,0,0,1.7.2ZM28.344,32.673a3.333,3.333,0,0,1,3.329-3.329h.186a5.988,5.988,0,0,0,.96-.085l.458.458a7.41,7.41,0,0,0,10.48,0l.458-.458a5.988,5.988,0,0,0,.96.085h.186a3.333,3.333,0,0,1,3.329,3.329v4.3H28.344Zm-4.491-.7a4.981,4.981,0,0,1-6.276,0,5.829,5.829,0,0,0,1.434-1.561,7.394,7.394,0,0,0,3.408,0A5.805,5.805,0,0,0,23.853,31.977ZM25.8,20.444v2.543a5.086,5.086,0,0,1-10.172,0V20.444a5.086,5.086,0,1,1,10.172,0Z" transform="translate(1.901 2.172)" fill="#47286d"/>
    <path id="Trazado_110880" data-name="Trazado 110880" d="M71.815,44.492,45.763,51.6a4.888,4.888,0,0,0-.633-.782l-8.9-8.9a1.272,1.272,0,0,0-.9-.371H21.344V40.272A1.271,1.271,0,0,0,20.073,39H2.272A1.271,1.271,0,0,0,1,40.272V68.245a1.271,1.271,0,0,0,1.272,1.272H12.444a1.271,1.271,0,0,0,1.272-1.272V66.973h6.358A1.271,1.271,0,0,0,21.344,65.7V64.43h8.695l7.433,2.477a1.255,1.255,0,0,0,.815,0L78.975,52.917a1.269,1.269,0,0,0,.858-1.2V50.444a6.178,6.178,0,0,0-8.018-5.952ZM11.172,66.973H3.543V41.543h7.629ZM18.8,64.43H13.715V41.543H18.8ZM77.29,50.807,37.867,64.359l-7.221-2.407a1.309,1.309,0,0,0-.4-.065h-8.9v-17.8H34.8l8.528,8.528A2.325,2.325,0,0,1,40.044,55.9l-6.358-6.358-1.8,1.8L38.246,57.7a4.85,4.85,0,0,0,8.285-3.676l25.953-7.078a3.639,3.639,0,0,1,4.806,3.5Z" transform="translate(0 10.317)" fill="#47286d"/>
    <path id="Trazado_110881" data-name="Trazado 110881" d="M41.823,2.522q-1.236-.38-2.5-.683l-.59,2.473q1.188.282,2.343.641Z" transform="translate(10.244 0.228)" fill="#47286d"/>
    <path id="Trazado_110882" data-name="Trazado 110882" d="M61.008,32.164c0,.572-.013,1.143-.039,1.709l2.54.117q.042-.908.042-1.826,0-.385-.008-.769L61,31.445C61.006,31.685,61.008,31.925,61.008,32.164Z" transform="translate(16.282 8.253)" fill="#47286d"/>
    <path id="Trazado_110883" data-name="Trazado 110883" d="M37.8,1.507c-.838-.141-1.7-.258-2.572-.347l-.258,2.53q1.215.122,2.406.326Z" transform="translate(9.222 0.043)" fill="#47286d"/>
    <path id="Trazado_110884" data-name="Trazado 110884" d="M60.454,26.406l2.483-.547c-.186-.844-.4-1.69-.64-2.515l-2.443.708Q60.191,25.216,60.454,26.406Z" transform="translate(15.98 6.067)" fill="#47286d"/>
    <path id="Trazado_110885" data-name="Trazado 110885" d="M45.685,4.055c-.788-.364-1.594-.7-2.4-1.01L42.38,5.419q1.139.437,2.239.945Z" transform="translate(11.235 0.555)" fill="#47286d"/>
    <path id="Trazado_110886" data-name="Trazado 110886" d="M60.957,30.122l2.534-.216q-.111-1.3-.3-2.576l-2.515.38Q60.855,28.9,60.957,30.122Z" transform="translate(16.201 7.149)" fill="#47286d"/>
    <path id="Trazado_110887" data-name="Trazado 110887" d="M56.052,16.1l2.08-1.462q-.746-1.062-1.56-2.073L54.59,14.156q.763.946,1.462,1.94Z" transform="translate(14.55 3.139)" fill="#47286d"/>
    <path id="Trazado_110888" data-name="Trazado 110888" d="M59.455,22.786l2.39-.87c-.3-.814-.622-1.622-.966-2.406l-2.327,1.026q.486,1.106.9,2.249Z" transform="translate(15.626 5.026)" fill="#47286d"/>
    <path id="Trazado_110889" data-name="Trazado 110889" d="M55.58,11.41c-.579-.629-1.191-1.252-1.82-1.851L52.006,11.4q.877.837,1.7,1.732Z" transform="translate(13.849 2.324)" fill="#47286d"/>
    <path id="Trazado_110890" data-name="Trazado 110890" d="M49.3,6.074c-.725-.459-1.479-.9-2.24-1.317L45.849,6.992q1.068.582,2.093,1.231Z" transform="translate(12.177 1.02)" fill="#47286d"/>
    <path id="Trazado_110891" data-name="Trazado 110891" d="M59.627,41.344l2.422.774c.264-.826.5-1.668.708-2.5l-2.468-.61q-.294,1.184-.662,2.336Z" transform="translate(15.918 10.32)" fill="#47286d"/>
    <path id="Trazado_110892" data-name="Trazado 110892" d="M63.422,35.531l-2.528-.281q-.135,1.213-.348,2.4l2.5.45c.151-.847.276-1.711.373-2.571Z" transform="translate(16.167 9.299)" fill="#47286d"/>
    <path id="Trazado_110893" data-name="Trazado 110893" d="M52.621,8.54c-.664-.553-1.353-1.092-2.046-1.6L49.076,9q.982.717,1.914,1.5Z" transform="translate(13.053 1.613)" fill="#47286d"/>
    <path id="Trazado_110894" data-name="Trazado 110894" d="M57.979,19.333l2.254-1.177c-.4-.762-.826-1.521-1.275-2.257L56.786,17.22Q57.417,18.254,57.979,19.333Z" transform="translate(15.146 4.045)" fill="#47286d"/>
    <path id="Trazado_110895" data-name="Trazado 110895" d="M4.867,23.85,2.43,23.123c-.247.83-.469,1.675-.659,2.513L4.25,26.2Q4.521,25.009,4.867,23.85Z" transform="translate(0.209 6.007)" fill="#47286d"/>
    <path id="Trazado_110896" data-name="Trazado 110896" d="M6.244,20.341,3.926,19.3c-.352.781-.684,1.591-.987,2.4l2.383.886q.423-1.142.922-2.248Z" transform="translate(0.526 4.968)" fill="#47286d"/>
    <path id="Trazado_110897" data-name="Trazado 110897" d="M8.071,17.03l-2.16-1.341c-.454.732-.89,1.49-1.3,2.252l2.244,1.2Q7.431,18.062,8.071,17.03Z" transform="translate(0.982 3.988)" fill="#47286d"/>
    <path id="Trazado_110898" data-name="Trazado 110898" d="M10.311,13.98,8.343,12.37q-.822,1-1.578,2.06l2.067,1.48Q9.542,14.922,10.311,13.98Z" transform="translate(1.565 3.087)" fill="#47286d"/>
    <path id="Trazado_110899" data-name="Trazado 110899" d="M3.571,33.664c-.019-.477-.028-.957-.028-1.437,0-.333,0-.662.013-.992l-2.542-.07C1,31.516,1,31.872,1,32.228Q1,33,1.029,33.76Z" transform="translate(0 8.19)" fill="#47286d"/>
    <path id="Trazado_110900" data-name="Trazado 110900" d="M3.965,27.5l-2.512-.4c-.135.852-.243,1.718-.322,2.574l2.532.234Q3.775,28.694,3.965,27.5Z" transform="translate(0.036 7.088)" fill="#47286d"/>
    <path id="Trazado_110901" data-name="Trazado 110901" d="M1.167,35.3q.135,1.3.353,2.571l2.507-.43q-.2-1.19-.331-2.406Z" transform="translate(0.045 9.241)" fill="#47286d"/>
    <path id="Trazado_110902" data-name="Trazado 110902" d="M15.867,8.862,14.382,6.8q-1.053.757-2.056,1.58l1.616,1.964Q14.879,9.572,15.867,8.862Z" transform="translate(3.075 1.574)" fill="#47286d"/>
    <path id="Trazado_110903" data-name="Trazado 110903" d="M22.524,5.346l-.893-2.382c-.81.3-1.616.637-2.4.989L20.284,6.27q1.1-.5,2.24-.924Z" transform="translate(4.951 0.533)" fill="#47286d"/>
    <path id="Trazado_110904" data-name="Trazado 110904" d="M26.132,4.265l-.567-2.478c-.839.192-1.685.416-2.511.665l.735,2.434C24.559,4.654,25.348,4.446,26.132,4.265Z" transform="translate(5.988 0.214)" fill="#47286d"/>
    <path id="Trazado_110905" data-name="Trazado 110905" d="M29.844,3.671l-.237-2.533c-.852.079-1.719.189-2.576.329l.406,2.511c.795-.128,1.6-.234,2.407-.308Z" transform="translate(7.068 0.038)" fill="#47286d"/>
    <path id="Trazado_110906" data-name="Trazado 110906" d="M19.085,6.886l-1.2-2.243c-.763.407-1.518.843-2.247,1.3L16.987,8.1Q18.011,7.458,19.085,6.886Z" transform="translate(3.975 0.989)" fill="#47286d"/>
    <path id="Trazado_110907" data-name="Trazado 110907" d="M32.137,3.543c.483,0,.977.008,1.461.024l.088-2.54C33.209,1.009,32.729,1,32.251,1c-.389,0-.774,0-1.16.015l.078,2.543C31.489,3.548,31.811,3.543,32.137,3.543Z" transform="translate(8.17 0)" fill="#47286d"/>
    <path id="Trazado_110908" data-name="Trazado 110908" d="M12.924,11.247,11.187,9.389c-.622.581-1.238,1.2-1.835,1.837l1.859,1.736c.556-.6,1.133-1.175,1.713-1.715Z" transform="translate(2.268 2.278)" fill="#47286d"/>
  </g>
</svg>
