<svg xmlns="http://www.w3.org/2000/svg" xmlns:xlink="http://www.w3.org/1999/xlink" width="243" height="133" viewBox="0 0 243 133"><defs><clipPath id="a"><path d="M322.578,283.725l-14.859,2.157a2.816,2.816,0,0,1-3.158-2.461l-5.029-21.847a2.877,2.877,0,0,1,2.381-3.265l18.3-2.932c1.531-.222,4.271,1.787,4.485,3.367l.261,21.716A2.877,2.877,0,0,1,322.578,283.725Z" transform="translate(-299.505 -255.361)" fill="none"/></clipPath><clipPath id="b"><path d="M315.12,252.584a6.929,6.929,0,1,1-5.8-7.9A6.93,6.93,0,0,1,315.12,252.584Z" transform="translate(-301.34 -244.608)" fill="#b5792a"/></clipPath><clipPath id="c"><path d="M356.636,286.366l13.7,1.989a2.594,2.594,0,0,0,2.913-2.27l4.638-20.151a2.651,2.651,0,0,0-2.2-3.01l-16.88-2.706c-1.41-.2-3.939,1.649-4.137,3.108l-.239,20.031A2.652,2.652,0,0,0,356.636,286.366Z" transform="translate(-354.414 -260.202)" fill="none"/></clipPath><clipPath id="d"><rect width="34.56" height="35.507" rx="2.378" fill="none"/></clipPath></defs><g transform="translate(-205 -3165)"><g transform="translate(205 3165)" fill="#fff" stroke="#707070" stroke-width="1" opacity="0"><rect width="243" height="133" stroke="none"/><rect x="0.5" y="0.5" width="242" height="132" fill="none"/></g><g transform="translate(-35.505 2935.469)"><g transform="translate(307.637 232.056)"><g transform="translate(45.06)" opacity="0.54"><path d="M340.273,235.2c0,1.737-3.146,8.975-3.146,8.975s-3.148-7.238-3.148-8.975a3.147,3.147,0,1,1,6.294,0Z" transform="translate(-333.979 -232.056)" fill="#f17781"/></g><g transform="translate(29.483 2.672)" opacity="0.54"><path d="M329.988,235.859c.6,1.634.113,9.511.113,9.511s-5.433-5.724-6.027-7.358a3.147,3.147,0,0,1,5.914-2.152Z" transform="translate(-323.884 -233.788)" fill="#f17781"/></g><g transform="translate(15.761 10.512)" opacity="0.54"><path d="M320.548,239.992c1.119,1.332,3.359,8.9,3.359,8.9s-7.062-3.521-8.179-4.853a3.147,3.147,0,0,1,4.82-4.046Z" transform="translate(-314.99 -238.869)" fill="#f17781"/></g><g transform="translate(5.546 22.57)" opacity="0.54"><path d="M313.091,247.107c1.5.869,6.2,7.212,6.2,7.212s-7.841-.892-9.347-1.762a3.147,3.147,0,0,1,3.148-5.45Z" transform="translate(-308.37 -246.684)" fill="#f17781"/></g><g transform="translate(0.073 37.396)"><path d="M308.517,256.341c1.711.3,8.292,4.658,8.292,4.658s-7.673,1.842-9.386,1.54a3.147,3.147,0,1,1,1.094-6.2Z" transform="translate(-304.823 -256.293)" fill="#61b3db"/></g><g transform="translate(0 53.215)"><path d="M307.376,266.578c1.713-.3,9.386,1.541,9.386,1.541s-6.581,4.356-8.292,4.658a3.148,3.148,0,0,1-1.094-6.2Z" transform="translate(-304.776 -266.544)" fill="#61b3db"/></g><g transform="translate(15.44 76.5)" opacity="0.54"><path d="M315.518,286.489c1.117-1.332,8.181-4.853,8.181-4.853s-2.242,7.567-3.359,8.9a3.147,3.147,0,1,1-4.822-4.046Z" transform="translate(-314.782 -281.636)" fill="#f17781"/></g><g transform="translate(29.089 82.907)" opacity="0.54"><path d="M323.819,293.146c.594-1.634,6.027-7.358,6.027-7.358s.481,7.878-.113,9.511a3.147,3.147,0,0,1-5.914-2.152Z" transform="translate(-323.628 -285.788)" fill="#f17781"/></g><g transform="translate(44.64 85.183)" opacity="0.54"><path d="M333.707,296.237c0-1.737,3.148-8.974,3.148-8.974S340,294.5,340,296.237a3.148,3.148,0,0,1-6.3,0Z" transform="translate(-333.707 -287.263)" fill="#f17781"/></g><g transform="translate(60.11 83.05)" opacity="0.54"><path d="M344.029,295.392c-.594-1.633-.113-9.511-.113-9.511s5.433,5.724,6.028,7.358a3.148,3.148,0,0,1-5.916,2.152Z" transform="translate(-343.733 -285.881)" fill="#f17781"/></g><g transform="translate(74.676 81.623)"><path d="M357.995,284.956A3.147,3.147,0,1,1,353.173,289Z" transform="translate(-353.173 -284.956)" fill="#61b3db"/></g><g transform="translate(79.528 67.099)"><path d="M362.518,282.756c-1.506-.869-6.2-7.213-6.2-7.213s7.841.893,9.346,1.762a3.147,3.147,0,1,1-3.146,5.451Z" transform="translate(-356.318 -275.543)" fill="#61b3db"/></g><g transform="translate(83.937 53.628)"><path d="M367.467,273.044c-1.711-.3-8.292-4.657-8.292-4.657s7.673-1.842,9.384-1.541a3.147,3.147,0,1,1-1.092,6.2Z" transform="translate(-359.175 -266.812)" fill="#61b3db"/></g><g transform="translate(79.738 22.934)" opacity="0.54"><path d="M365.8,252.793c-1.5.869-9.346,1.762-9.346,1.762s4.694-6.345,6.2-7.213a3.147,3.147,0,0,1,3.146,5.451Z" transform="translate(-356.454 -246.92)" fill="#f17781"/></g><g transform="translate(71.639 10.781)" opacity="0.54"><path d="M359.384,244.213c-1.117,1.332-8.179,4.853-8.179,4.853s2.24-7.567,3.359-8.9a3.146,3.146,0,1,1,4.82,4.046Z" transform="translate(-351.205 -239.043)" fill="#f17781"/></g><g transform="translate(60.505 2.815)" opacity="0.54"><path d="M350.2,238.1c-.594,1.634-6.027,7.358-6.027,7.358s-.481-7.877.113-9.511A3.147,3.147,0,1,1,350.2,238.1Z" transform="translate(-343.989 -233.881)" fill="#f17781"/></g></g><g transform="translate(388.775 258.509)"><path d="M357.361,262.641c.236-1.42,1.446-12.375,8.048-13.256,7.1-.946,10.572,1.736,11.046,7.891s-.947,9.627-.947,9.627Z" transform="translate(-357.361 -249.2)" fill="#f17781"/></g><g transform="translate(378.662 298.541)"><path d="M358.645,275.145l13.177,1.577s-.449,17.715-1.554,31.128a93.13,93.13,0,0,0,.592,17.793l-4.734-.079c-.316-4.026-2.038-22.489-2.108-34.87-.017-3.015-.153-4.729-.71-4.971-1.815-.788-3.4-.242-5.376,3.229-1.237,2.18-1.483,10.127-1.364,18.425.156,10.832.933,18,.933,18l-4.865-.029s-3.387-27.525-.95-37.5C352.6,284.1,358.645,275.145,358.645,275.145Z" transform="translate(-350.807 -275.145)" fill="#d8a252"/></g><g transform="translate(388.048 348.748)"><path d="M362.827,307.684l4.865.029-.06,9.9a1.342,1.342,0,0,1-1.35,1.333l-8.053-.049c-1.845-.011-2.08-3.146,1.2-3.515,1.031-.117,2.932-.542,3.2-1.575A18.76,18.76,0,0,0,362.827,307.684Z" transform="translate(-356.89 -307.684)" fill="#47286d"/></g><g transform="translate(374.555 348.748)"><path d="M354.084,307.684l4.865.029-.062,9.9a1.342,1.342,0,0,1-1.35,1.333l-8.053-.049c-1.845-.011-2.078-3.146,1.2-3.515,1.032-.117,2.933-.542,3.2-1.575A18.806,18.806,0,0,0,354.084,307.684Z" transform="translate(-348.145 -307.684)" fill="#47286d"/></g><g transform="translate(319.292 270.854)"><path d="M312.48,257.2c-.548,1.1.181,12.288,5.775,16.937,9.11,7.571,23.9,5.133,25.931,4.691,2.895-.63,7.423,1.018,9.832-1.345,1.575-1.548,1.335-2.992-4.583-2.061s-4.894.673-7.815.545c-9.508-.417-15.834-3.121-18.2-5.732a17.921,17.921,0,0,1-4.14-8.542Z" transform="translate(-312.329 -257.201)" fill="#a86a20"/></g><g transform="translate(313.828 268.548)"><path d="M308.788,260.191l10.023,13.061,7.11-5.456-7.411-10.554c-.548-.705-2.1-1.932-2.824-1.41Z" transform="translate(-308.788 -255.707)" fill="#ffd56c"/></g><g transform="translate(308.238 293.009)"><path d="M319.45,271.56l-14.285,1.711s1.2,19.247,2.395,33.789c.765,9.295,1.625,19.6,1.625,19.6l5.133-.085c.343-4.362-.77-24.738-.694-38.161.017-3.268.165-5.127.768-5.39,1.969-.856,3.689-.264,5.828,3.5,3.1,5.448,7.7,11.463,10.352,20.616,3.756,12.964.014,15.8.014,15.8l4.775,2.1s5.134-6.346.77-21.231C332.292,290.71,319.45,271.56,319.45,271.56Z" transform="translate(-305.165 -271.56)" fill="#ffd470"/></g><g transform="translate(329.69 344.395)"><path d="M327.955,306.766l-4.919-1.9-3.87,10.009a1.453,1.453,0,0,0,.833,1.881l8.142,3.149c1.867.721,3.347-2.348.19-4.022-.994-.526-2.743-1.71-2.6-2.858A20.359,20.359,0,0,1,327.955,306.766Z" transform="translate(-319.068 -304.863)" fill="#f17781"/></g><g transform="translate(374.701 297.299)"><path d="M362.076,274.911c-.946.474-8.167,5.089-11.008,19.411-2.276,11.48-3.274,22.685-2.643,22.685s27.775,1.578,28.09.157-1.5-7.732-1.657-13.729,1.973-25.723-1.656-27.931S362.076,274.911,362.076,274.911Z" transform="translate(-348.239 -274.34)" fill="#bb83ff"/></g><g transform="translate(312.213 347.799)"><path d="M313.015,307.069l-5.274.032.066,10.731a1.455,1.455,0,0,0,1.464,1.446l8.729-.054c2-.012,2.254-3.41-1.3-3.811-1.117-.126-3.178-.586-3.466-1.706A20.394,20.394,0,0,1,313.015,307.069Z" transform="translate(-307.741 -307.069)" fill="#f17781"/></g><g transform="translate(299.518 268.23)"><path d="M322.574,283.722l-14.859,2.085a2.8,2.8,0,0,1-3.158-2.379l-5.029-21.133c-.214-1.529,1.97-3.879,3.487-4.171,4.293-.824,12.941-2.659,17.738-2.623,1.541.011,3.726,2.527,3.941,4.056l.261,21.006A2.8,2.8,0,0,1,322.574,283.722Z" transform="translate(-299.513 -255.501)" fill="#f9e478"/></g><g transform="translate(307.209 282.659)"><path d="M304.543,265.366c-.423,1.159,2.115,12.8,8.19,16.8,9.89,6.518,23.283,2.447,25.255,1.782,2.808-.946,6.767.457,8.9-2.159,1.4-1.713,1.031-4.016-4.748-2.438s-4.1,1.841-7.016,2.035c-9.5.637-16.081-1.353-18.721-3.686-3.867-3.419-6.085-12.848-6.085-12.848Z" transform="translate(-304.498 -264.852)" fill="#b5792a"/></g><g transform="translate(301.861 271.992)"><path d="M306.553,258.084c4.289,1.33,8.6,13.729,8.6,13.729l-8.51,3.473s-5.286-8.622-5.606-14.252C300.907,258.765,304.636,257.489,306.553,258.084Z" transform="translate(-301.032 -257.938)" fill="#ffd56c"/></g><g transform="translate(299.505 268.015)"><g clip-path="url(#a)"><g transform="translate(6.935 -6.392)"><path d="M313.357,256.817a4.731,4.731,0,0,1-5.362,4.075,4.845,4.845,0,0,1-3.941-5.542,4.73,4.73,0,0,1,5.36-4.075A4.845,4.845,0,0,1,313.357,256.817Z" transform="translate(-304 -251.219)" fill="#b5792a"/></g></g></g><g transform="translate(307.243 260.51)"><rect width="5.676" height="8.859" transform="translate(0 1.096) rotate(-11.132)" fill="#b5792a"/></g><g transform="translate(302.336 251.423)"><path d="M315.12,252.584a6.929,6.929,0,1,1-5.8-7.9A6.93,6.93,0,0,1,315.12,252.584Z" transform="translate(-301.34 -244.608)" fill="#b5792a"/><g clip-path="url(#b)"><g transform="translate(-2.343 -1.607)"><path d="M301.637,252.782l16.385-3.038s-3.953-9.256-13.066-5.107S301.637,252.782,301.637,252.782Z" transform="translate(-299.821 -243.567)" fill="#ffd56c"/></g></g></g><g transform="translate(300.866 259.537)"><path d="M304.044,251.983a1.839,1.839,0,1,1-1.54-2.1A1.839,1.839,0,0,1,304.044,251.983Z" transform="translate(-300.387 -249.866)" fill="#b5792a"/></g><g transform="translate(302.426 256.419)"><path d="M314.851,247.846s7.1,1.69,5.214,3.825S301.4,250.38,301.4,250.38Z" transform="translate(-301.398 -247.846)" fill="#fcb515"/></g><g transform="translate(314.309 274.141)"><path d="M314.984,260.229a1.13,1.13,0,0,1-.873,1.338l-3.649.765a1.13,1.13,0,0,1-1.338-.875h0a1.129,1.129,0,0,1,.873-1.338l3.649-.764a1.13,1.13,0,0,1,1.338.873Z" transform="translate(-309.099 -259.331)" fill="#4396ca"/></g><g transform="translate(350.151 278.685)"><path d="M372.474,262.276c.437,1.051-.913,11.3-6.346,15.237-8.846,6.414-22.307,3.268-24.152,2.737-2.626-.756-6.9.486-8.968-1.838-1.356-1.52-1.046-2.834,4.343-1.617s4.464.917,7.159.977c8.776.2,14.763-1.909,17.1-4.167A16.516,16.516,0,0,0,365.941,266Z" transform="translate(-332.329 -262.276)" fill="#d8a252"/></g><g transform="translate(378.718 275.977)"><path d="M366.645,264.658l-7.166,14.087-8.636-7.073,6.835-9.733c.5-.651,1.933-1.782,2.6-1.3Z" transform="translate(-350.843 -260.521)" fill="#eec8cb"/></g><g transform="translate(383.566 275.684)"><path d="M355.642,287.015l14.931,1.271a2.579,2.579,0,0,0,2.913-2.2l3.854-16.4c.784-3.831-1.032-6.675-2.432-6.943-3.959-.761-11.936-2.453-16.362-2.419-1.421.009-4.51,7.236-4.561,8.81-.06,1.825,1.39,5.888,1.708,7.665.3,1.654-1.021,6.641-1.021,6.641C354.474,284.859,354.232,286.816,355.642,287.015Z" transform="translate(-353.985 -260.332)" fill="#ffd9dc"/></g><g transform="translate(359.386 288.158)"><path d="M379.733,269.37c.292,1.1-3.01,11.58-8.925,14.751-9.63,5.161-21.592.3-23.35-.471-2.5-1.1-6.9-.449-8.638-3.029-1.139-1.69-.654-2.95,4.522-1.018s4.3,1.511,6.962,1.933c8.67,1.378,14.885.1,17.5-1.824,3.837-2.819,6.661-11.3,6.661-11.3Z" transform="translate(-338.314 -268.416)" fill="#d8a252"/></g><g transform="translate(392.537 279.154)"><path d="M367.728,262.714c-3.956,1.228-7.929,12.665-7.929,12.665l7.849,3.2s4.874-7.954,5.169-13.146C372.936,263.342,369.5,262.166,367.728,262.714Z" transform="translate(-359.799 -262.58)" fill="#eec8cb"/></g><g transform="translate(384.228 275.484)"><g clip-path="url(#c)"><g transform="translate(8.426 -5.895)"><path d="M359.926,261.545a4.36,4.36,0,0,0,4.944,3.759,4.468,4.468,0,0,0,3.637-5.112,4.364,4.364,0,0,0-4.945-3.759A4.467,4.467,0,0,0,359.926,261.545Z" transform="translate(-359.875 -256.381)" fill="#d8a252"/></g></g></g><g transform="translate(393.879 268.563)"><rect width="8.171" height="5.236" transform="translate(0 8.017) rotate(-78.865)" fill="#d8a252"/></g><g transform="translate(392.336 260.181)"><path d="M359.743,257.641a6.391,6.391,0,1,0,5.354-7.283A6.391,6.391,0,0,0,359.743,257.641Z" transform="translate(-359.669 -250.284)" fill="#d8a252"/></g><g transform="translate(403.083 267.665)"><path d="M366.654,257.087a1.7,1.7,0,1,0,1.421-1.933A1.7,1.7,0,0,0,366.654,257.087Z" transform="translate(-366.634 -255.134)" fill="#d8a252"/></g><g transform="translate(338.118 264.375)"><rect width="34.56" height="35.507" rx="2.378" fill="#bb83ff"/></g><g transform="translate(391.983 259.483)"><path d="M362.544,250.463c-1.264.631-3.631,3.945-3,4.1s10.1,3,10.574,3,1.736-3.472,2.841-3.629.789-2.052-2.683-3.472S362.544,250.463,362.544,250.463Z" transform="translate(-359.44 -249.832)" fill="#f17781"/></g><g transform="translate(338.118 264.375)"><g clip-path="url(#d)"><g transform="translate(-7.339 5.989)"><rect width="50.958" height="0.455" transform="matrix(1, -0.002, 0.002, 1, 0, 0.104)" fill="#fff"/></g></g></g><g transform="translate(361.83 282.728)"><rect width="5.363" height="9.224" rx="0.417" fill="#ffcb2f"/></g></g></g></svg>