<svg xmlns="http://www.w3.org/2000/svg" width="89" height="100.285" viewBox="0 0 89 100.285">
  <g id="reloj" transform="translate(-28.807)">
    <g id="Grupo_62949" data-name="Grupo 62949" transform="translate(30.276 1.469)">
      <path id="Trazado_111270" data-name="Trazado 111270" d="M112.933,104.625H67.122L68.481,80.22a7.7,7.7,0,0,0-6.985-8.1l-1.806-.166a3.639,3.639,0,0,0-3.95,3.232l-4.9,45.233a8.261,8.261,0,0,1-2.327,4.906l-12.2,12.543L55.1,156.666,76.777,134.52a4,4,0,0,1,3.216-1.159c4.613.441,16.469,1.436,20.924.515,3.093-.64,11.436-5.365,11.436-5.365Z" transform="translate(-36.307 -59.32)" fill="#ffcdbe"/>
      <path id="Trazado_111271" data-name="Trazado 111271" d="M168.094,238.8l-.469,19.324s-8.344,4.725-11.436,5.365c-4.455.921-16.311-.075-20.924-.515a4,4,0,0,0-3.216,1.159l-22.561,22.248,4.46,4.46L135.624,268.7a4,4,0,0,1,3.216-1.159c4.613.441,16.469,1.436,20.924.515,3.093-.64,11.436-5.365,11.436-5.365l.58-23.886Z" transform="translate(-95.154 -193.5)" fill="#ebae9d"/>
      <path id="Trazado_111272" data-name="Trazado 111272" d="M273.848,14.374H261.235a2.28,2.28,0,0,1-2.28-2.28V9.78a2.28,2.28,0,0,1,2.28-2.28h12.613a2.28,2.28,0,0,1,2.28,2.28v2.314A2.28,2.28,0,0,1,273.848,14.374Z" transform="translate(-215.345 -7.5)" fill="#f17781"/>
      <ellipse id="Elipse_4770" data-name="Elipse 4770" cx="28.29" cy="28.29" rx="28.29" ry="28.29" transform="translate(23.852 68.58) rotate(-89.828)" fill="#31d9e7"/>
      <path id="Trazado_111273" data-name="Trazado 111273" d="M270.768,69.261a28.293,28.293,0,0,1-8.137,55.39q-.695,0-1.381-.034a28.292,28.292,0,1,0,9.518-55.356Z" transform="translate(-217.191 -57.164)" fill="#25c2cf"/>
      <circle id="Elipse_4771" data-name="Elipse 4771" cx="20.005" cy="20.005" r="20.005" transform="translate(32.191 20.348)" fill="#efedef"/>
      <circle id="Elipse_4772" data-name="Elipse 4772" cx="3.435" cy="3.435" r="3.435" transform="translate(48.761 36.918)" fill="#e175a5"/>
      <g id="Grupo_62948" data-name="Grupo 62948" transform="translate(64.786 25.158)">
        <path id="Trazado_111274" data-name="Trazado 111274" d="M388.251,135.944h-5.723a5.781,5.781,0,0,0,0,11.563h5.723a5.781,5.781,0,1,0,0-11.563Z" transform="translate(-374.851 -135.944)" fill="#ffcdbe"/>
        <path id="Trazado_111275" data-name="Trazado 111275" d="M398.943,194.978h-5.723a5.781,5.781,0,0,0,0,11.563h5.723a5.781,5.781,0,1,0,0-11.563Z" transform="translate(-383.448 -183.415)" fill="#ffcdbe"/>
        <path id="Trazado_111276" data-name="Trazado 111276" d="M388.759,254.013h-5.723a5.781,5.781,0,1,0,0,11.563h5.723a5.781,5.781,0,1,0,0-11.563Z" transform="translate(-375.259 -230.887)" fill="#ffcdbe"/>
        <path id="Trazado_111277" data-name="Trazado 111277" d="M377.745,313.048h-5.311a5.365,5.365,0,1,0,0,10.73h5.311a5.365,5.365,0,1,0,0-10.73Z" transform="translate(-367.069 -278.359)" fill="#ffcdbe"/>
      </g>
      <path id="Trazado_111278" data-name="Trazado 111278" d="M413.991,135.944h-5.235a5.781,5.781,0,0,1,0,11.563h5.235a5.781,5.781,0,1,0,0-11.563Z" transform="translate(-335.805 -110.786)" fill="#ebae9d"/>
      <path id="Trazado_111279" data-name="Trazado 111279" d="M424.683,194.978h-5.235a5.782,5.782,0,0,1,0,11.563h5.235a5.782,5.782,0,0,0,0-11.563Z" transform="translate(-344.403 -158.257)" fill="#ebae9d"/>
      <path id="Trazado_111280" data-name="Trazado 111280" d="M414.5,254.013h-5.235a5.781,5.781,0,0,1,0,11.563H414.5a5.781,5.781,0,0,0,0-11.563Z" transform="translate(-336.213 -205.729)" fill="#ebae9d"/>
      <path id="Trazado_111281" data-name="Trazado 111281" d="M400.081,313.048h-5.235a5.365,5.365,0,1,1,0,10.73h5.235a5.365,5.365,0,0,0,0-10.73Z" transform="translate(-324.619 -253.201)" fill="#ebae9d"/>
    </g>
    <g id="Grupo_62950" data-name="Grupo 62950" transform="translate(28.807 0)">
      <path id="Trazado_111282" data-name="Trazado 111282" d="M46.843,223.433a1.47,1.47,0,0,0-1.619,1.3l-1.879,17.341a6.828,6.828,0,0,1-1.919,4.041l-12.2,12.543a1.469,1.469,0,1,0,2.106,2.049l12.2-12.537a9.772,9.772,0,0,0,2.74-5.779l1.879-17.341A1.469,1.469,0,0,0,46.843,223.433Z" transform="translate(-28.807 -179.663)" fill="#47286d"/>
      <path id="Trazado_111283" data-name="Trazado 111283" d="M267.646,155.977v-4.261a1.469,1.469,0,0,0-2.938,0v4.006l-4.75-7.276a1.469,1.469,0,0,0-2.46,1.606l4.892,7.493a4.9,4.9,0,1,0,5.257-1.567Zm-1.469,6.645a1.966,1.966,0,1,1,1.966-1.966A1.968,1.968,0,0,1,266.177,162.622Z" transform="translate(-212.512 -118.834)" fill="#47286d"/>
      <path id="Trazado_111284" data-name="Trazado 111284" d="M188.21,43.972a7.259,7.259,0,0,0-4.123-6.54,7.245,7.245,0,0,0-5.222-12.273h-1.332a29.72,29.72,0,0,0-7.569-7.7,1.469,1.469,0,0,0-1.689,2.4,26.814,26.814,0,0,1,5.617,5.3h-.751a7.218,7.218,0,0,0-4.771,1.8,21.477,21.477,0,1,0-1.806,31.406,7.273,7.273,0,0,0,1.386,2.123,6.845,6.845,0,0,0-3.938,5.742,26.518,26.518,0,0,1-11.138,2.417,26.821,26.821,0,1,1,9.577-51.884,1.469,1.469,0,0,0,1.049-2.745,29.6,29.6,0,0,0-9.156-1.915V9.812h4.838a3.753,3.753,0,0,0,3.749-3.749V3.749A3.753,3.753,0,0,0,159.182,0H146.569a3.753,3.753,0,0,0-3.749,3.749V6.063a3.753,3.753,0,0,0,3.749,3.749h4.837V12.1a29.619,29.619,0,0,0-17.565,6.865A9.144,9.144,0,0,0,126,12.81l-1.806-.166a5.131,5.131,0,0,0-5.546,4.536l-2.282,21.056a1.469,1.469,0,1,0,2.921.317L121.57,17.5a2.18,2.18,0,0,1,2.356-1.928l1.807.167a6.212,6.212,0,0,1,5.628,5.547,29.758,29.758,0,0,0,33.13,47.946,6.867,6.867,0,0,0,4.194,3.94,20.439,20.439,0,0,1-3.693,1.418c-4.347.9-16.779-.185-20.486-.539a5.468,5.468,0,0,0-4.407,1.595L118.423,97.789a1.469,1.469,0,0,0,2.1,2.055l21.665-22.137a2.537,2.537,0,0,1,2.039-.735c6.065.58,16.906,1.414,21.36.491,2.047-.423,5.941-2.342,8.97-3.948h1.585a6.83,6.83,0,0,0,5.285-11.161,7.244,7.244,0,0,0,2.728-11.876,7.258,7.258,0,0,0,4.056-6.507ZM145.758,6.063V3.749a.812.812,0,0,1,.811-.811h12.613a.812.812,0,0,1,.811.811V6.063a.812.812,0,0,1-.811.811H146.569A.812.812,0,0,1,145.758,6.063Zm35.2,42.221h-5.723a4.313,4.313,0,1,1,0-8.625h5.723a4.313,4.313,0,1,1,0,8.625ZM173.142,28.1h5.723a4.313,4.313,0,0,1,0,8.625h-5.723a4.313,4.313,0,0,1,0-8.625Zm-38.8,13.726a18.535,18.535,0,0,1,32.236-12.484,7.244,7.244,0,0,0,3.439,9.611,7.231,7.231,0,0,0-.031,10.013c-.018.043-.037.085-.055.127a7.262,7.262,0,0,0-3.907,5.8,18.335,18.335,0,0,1-13.146,5.471A18.557,18.557,0,0,1,134.34,41.822Zm41.8,28.755H170.83a3.9,3.9,0,0,1-3.877-3.515s0,0,0-.006c-.012-.123-.019-.248-.019-.375a3.9,3.9,0,0,1,3.9-3.9h5.311a3.9,3.9,0,1,1,0,7.792Zm2.824-10.73h-5.723a4.313,4.313,0,1,1,0-8.625h5.723a4.313,4.313,0,1,1,0,8.625Z" transform="translate(-99.21 0)" fill="#47286d"/>
    </g>
  </g>
</svg>
