<svg xmlns="http://www.w3.org/2000/svg" width="89" height="89" viewBox="0 0 89 89">
  <g id="marketing" transform="translate(-1 -1)">
    <g id="Grupo_62927" data-name="Grupo 62927" transform="translate(2.435 2.435)">
      <g id="Grupo_62909" data-name="Grupo 62909" transform="translate(0 2.871)">
        <path id="Trazado_111177" data-name="Trazado 111177" d="M59.419,75.774v5.742a5.74,5.74,0,0,1-5.742,5.742H7.742A5.74,5.74,0,0,1,2,81.516V9.742A5.74,5.74,0,0,1,7.742,4H19.226V9.742H9.177a1.44,1.44,0,0,0-1.435,1.435v68.9a1.44,1.44,0,0,0,1.435,1.435H52.242a1.44,1.44,0,0,0,1.435-1.435V75.774Z" transform="translate(-2 -4)" fill="#f9e478"/>
      </g>
      <g id="Grupo_62910" data-name="Grupo 62910" transform="translate(51.677 27.504)">
        <path id="Trazado_111178" data-name="Trazado 111178" d="M43.742,21.174V56.817H38V22.366a14.184,14.184,0,0,0,5.742-1.206Z" transform="translate(-38 -21.16)" fill="#ffeaa7"/>
      </g>
      <g id="Grupo_62911" data-name="Grupo 62911" transform="translate(5.742 8.613)">
        <path id="Trazado_111179" data-name="Trazado 111179" d="M43.236,25.154a14.311,14.311,0,0,1-5.656-11.412,14.678,14.678,0,0,1,.287-2.885,1.924,1.924,0,0,1-.287.014H20.355A2.879,2.879,0,0,1,17.484,8H7.435A1.44,1.44,0,0,0,6,9.435v68.9a1.44,1.44,0,0,0,1.435,1.435H50.5a1.44,1.44,0,0,0,1.435-1.435V28.1A14.223,14.223,0,0,1,43.236,25.154Z" transform="translate(-6 -8)" fill="#ebdbff"/>
      </g>
      <g id="Grupo_62912" data-name="Grupo 62912" transform="translate(31.581 63.161)">
        <path id="Trazado_111180" data-name="Trazado 111180" d="M35.484,51.742v5.742l-10.135-3.8a2.066,2.066,0,0,1,0-3.876L35.484,46Z" transform="translate(-24 -46)" fill="#aab2bd"/>
      </g>
      <g id="Grupo_62913" data-name="Grupo 62913" transform="translate(74.645 63.161)">
        <path id="Trazado_111181" data-name="Trazado 111181" d="M63.8,47.68a5.745,5.745,0,0,1-4.062,9.8H54V46h5.742A5.778,5.778,0,0,1,63.8,47.68Z" transform="translate(-54 -46)" fill="#aab2bd"/>
      </g>
      <g id="Grupo_62914" data-name="Grupo 62914" transform="translate(43.065 68.903)">
        <path id="Trazado_111182" data-name="Trazado 111182" d="M63.581,50v5.742H32V50Z" transform="translate(-32 -50)" fill="#4fc1e9"/>
      </g>
      <g id="Grupo_62915" data-name="Grupo 62915" transform="translate(43.065 63.161)">
        <path id="Trazado_111183" data-name="Trazado 111183" d="M63.581,46v5.742H32V46H63.581Z" transform="translate(-32 -46)" fill="#b4dd7f"/>
      </g>
      <g id="Grupo_62916" data-name="Grupo 62916" transform="translate(11.484 27.274)">
        <path id="Trazado_111184" data-name="Trazado 111184" d="M37.676,24.517a17.257,17.257,0,1,0,6.775,13.709A17.162,17.162,0,0,0,37.676,24.517Z" transform="translate(-10 -21)" fill="#e6e9ed"/>
      </g>
      <g id="Grupo_62917" data-name="Grupo 62917" transform="translate(31.581 38.758)">
        <path id="Trazado_111185" data-name="Trazado 111185" d="M24,29h5.742V43.355H24Z" transform="translate(-24 -29)" fill="#f9e478"/>
      </g>
      <g id="Grupo_62918" data-name="Grupo 62918" transform="translate(25.839 35.887)">
        <path id="Trazado_111186" data-name="Trazado 111186" d="M25.742,29.871V44.226H20V27h5.742Z" transform="translate(-20 -27)" fill="#f9e478"/>
      </g>
      <g id="Grupo_62919" data-name="Grupo 62919" transform="translate(20.097 44.5)">
        <path id="Trazado_111187" data-name="Trazado 111187" d="M16,33h5.742v8.613H16Z" transform="translate(-16 -33)" fill="#f9e478"/>
      </g>
      <g id="Grupo_62920" data-name="Grupo 62920" transform="translate(17.226)">
        <path id="Trazado_111188" data-name="Trazado 111188" d="M36.968,4.871V7.742a14.253,14.253,0,0,0-2.584,5.728,1.924,1.924,0,0,1-.287.014H16.871A2.879,2.879,0,0,1,14,10.613V4.871A2.879,2.879,0,0,1,16.871,2H34.1A2.879,2.879,0,0,1,36.968,4.871Z" transform="translate(-14 -2)" fill="#31d9e7"/>
      </g>
      <g id="Grupo_62921" data-name="Grupo 62921" transform="translate(73.21 14.355)">
        <path id="Trazado_111189" data-name="Trazado 111189" d="M61.613,12l2.871,5.742H55.871L53,12h8.613Z" transform="translate(-53 -12)" fill="#cf9e76"/>
      </g>
      <g id="Grupo_62922" data-name="Grupo 62922" transform="translate(73.21 8.613)">
        <path id="Trazado_111190" data-name="Trazado 111190" d="M64.484,8l-2.871,5.742H53L55.871,8Z" transform="translate(-53 -8)" fill="#cf9e76"/>
      </g>
      <g id="Grupo_62923" data-name="Grupo 62923" transform="translate(37.323 0)">
        <path id="Trazado_111191" data-name="Trazado 111191" d="M56.71,16.355A14.282,14.282,0,0,1,48.1,29.5,14.354,14.354,0,0,1,28,16.355a14.678,14.678,0,0,1,.287-2.885A14.358,14.358,0,0,1,56.71,16.355Z" transform="translate(-28 -2)" fill="#e6e9ed"/>
      </g>
      <g id="Grupo_62924" data-name="Grupo 62924" transform="translate(46.444 8.144)">
        <ellipse id="Elipse_4758" data-name="Elipse 4758" cx="5.632" cy="6.196" rx="5.632" ry="6.196" transform="translate(0 0)" fill="#f17781"/>
      </g>
      <g id="Grupo_62925" data-name="Grupo 62925" transform="translate(63.161 31.581)">
        <path id="Trazado_111192" data-name="Trazado 111192" d="M57.484,24a11.47,11.47,0,1,1-7.177,2.512A11.481,11.481,0,0,1,57.484,24Z" transform="translate(-46 -24)" fill="#e6e9ed"/>
      </g>
      <g id="Grupo_62926" data-name="Grupo 62926" transform="translate(68.903 37.323)">
        <path id="Trazado_111193" data-name="Trazado 111193" d="M60.206,31.66a2.334,2.334,0,0,1,0,4.163L53.359,39.24A2.323,2.323,0,0,1,50,37.158V30.325a2.323,2.323,0,0,1,3.359-2.081Z" transform="translate(-50 -28)" fill="#f17781"/>
      </g>
    </g>
    <g id="Grupo_62928" data-name="Grupo 62928" transform="translate(1 1)">
      <path id="Trazado_111194" data-name="Trazado 111194" d="M82.823,64.161H61.29V30.838a15.744,15.744,0,0,0,1.517-.88l5.135,6.418a13.1,13.1,0,1,0,2.249-1.786l-5.146-6.432a15.741,15.741,0,0,0,4.786-9.932h4.927l2.871,5.742H89.452L85.863,16.79l3.589-7.177H77.629l-2.871,5.742H69.831A15.771,15.771,0,0,0,44,4.678,4.3,4.3,0,0,0,39.758,1H22.532A4.3,4.3,0,0,0,18.49,3.871H8.177A7.186,7.186,0,0,0,1,11.048V82.823A7.186,7.186,0,0,0,8.177,90H54.113a7.186,7.186,0,0,0,7.177-7.177V78.516H82.823a7.177,7.177,0,0,0,0-14.355ZM87.129,45.5A10.048,10.048,0,1,1,77.081,35.452,10.061,10.061,0,0,1,87.129,45.5ZM79.4,21.1l-1.435-2.871h5.4L84.806,21.1Zm0-8.613h5.4l-1.435,2.871h-5.4Zm-60.913,0a4.3,4.3,0,0,0,4.042,2.871H38.4c-.043.474-.073.95-.073,1.435a15.735,15.735,0,0,0,5.135,11.619l-2.189,2.872a18.83,18.83,0,1,0,2.277,1.747l2.192-2.877a15.658,15.658,0,0,0,6.941,2.356V64.161H45.239L34.856,68.056a3.507,3.507,0,0,0,0,6.567l10.383,3.893h7.439v2.871H9.613v-68.9ZM38.323,54.113H35.452V42.629h2.871Zm-5.742,0H29.71V39.758h2.871Zm-5.742,0H23.968V48.371h2.871Zm16.478,2.871a15.771,15.771,0,0,1-24.343,0Zm1.876-2.871h-4V39.758H35.452V36.887H26.839V45.5H21.1v8.613h-4a15.79,15.79,0,1,1,28.1,0ZM35.865,71.936a.637.637,0,0,1,0-1.193l8.2-3.075v7.341Zm11.07,3.709V72.774h28.71v2.871ZM75.645,69.9H46.935V67.032h28.71ZM58.419,64.161H55.548V32.507a15.534,15.534,0,0,0,2.871-.54ZM54.113,3.871A12.933,12.933,0,0,1,66.948,15.355h-5.8a7.177,7.177,0,1,0,0,2.871h5.8A12.917,12.917,0,1,1,54.113,3.871Zm4.042,14.355a4.306,4.306,0,1,1,0-2.871H52.677v2.871ZM21.1,5.306a1.437,1.437,0,0,1,1.435-1.435H39.758a1.437,1.437,0,0,1,1.435,1.435V7.74a15.7,15.7,0,0,0-2.257,4.737l-16.4.007A1.437,1.437,0,0,1,21.1,11.048ZM58.419,82.823a4.312,4.312,0,0,1-4.306,4.306H8.177a4.312,4.312,0,0,1-4.306-4.306V11.048A4.312,4.312,0,0,1,8.177,6.742H18.226V9.613H9.613a2.874,2.874,0,0,0-2.871,2.871v68.9a2.874,2.874,0,0,0,2.871,2.871H52.677a2.874,2.874,0,0,0,2.871-2.871V78.516h2.871Zm24.4-7.177H78.516V67.032h4.306a4.306,4.306,0,0,1,0,8.613Z" transform="translate(-1 -1)" fill="#47286d"/>
      <path id="Trazado_111195" data-name="Trazado 111195" d="M49,37.6a3.759,3.759,0,0,0,5.439,3.362l6.84-3.419a3.76,3.76,0,0,0,0-6.724L54.439,27.4A3.759,3.759,0,0,0,49,30.758Zm2.871-6.839a.888.888,0,0,1,.887-.887.879.879,0,0,1,.4.093l6.839,3.419a.887.887,0,0,1,0,1.588l-6.839,3.419a.912.912,0,0,1-1.283-.794Z" transform="translate(19.903 10.323)" fill="#47286d"/>
      <path id="Trazado_111196" data-name="Trazado 111196" d="M9,49H26.226v2.871H9Z" transform="translate(2.484 19.903)" fill="#47286d"/>
      <path id="Trazado_111197" data-name="Trazado 111197" d="M9,53H26.226v2.871H9Z" transform="translate(2.484 21.645)" fill="#47286d"/>
      <path id="Trazado_111198" data-name="Trazado 111198" d="M9,13h2.871v2.871H9Z" transform="translate(2.484 4.226)" fill="#47286d"/>
      <path id="Trazado_111199" data-name="Trazado 111199" d="M13,13H30.226v2.871H13Z" transform="translate(4.226 4.226)" fill="#47286d"/>
      <path id="Trazado_111200" data-name="Trazado 111200" d="M9,17h2.871v2.871H9Z" transform="translate(2.484 5.968)" fill="#47286d"/>
      <path id="Trazado_111201" data-name="Trazado 111201" d="M13,17H30.226v2.871H13Z" transform="translate(4.226 5.968)" fill="#47286d"/>
    </g>
  </g>
</svg>
