<svg xmlns="http://www.w3.org/2000/svg" width="271.667" height="194.614" viewBox="0 0 271.667 194.614">
  <g id="Grupo_64294" data-name="Grupo 64294" transform="translate(-275.011 -138.573)">
    <path id="Trazado_112344" data-name="Trazado 112344" d="M299.1,332.516s-45.884-39.178-11-76.31c37.136-39.534,4.235-90.287,54.645-110.764,54.5-22.139,68.523,16.854,91.34,10.867,45.508-11.942,103.232-6.062,93.627,51.946-12.057,72.816,37.408,63.529,8.03,124.5Z" transform="translate(0 0)" fill="#bb83ff" opacity="0.21"/>
    <g id="Grupo_64231" data-name="Grupo 64231" transform="translate(433.367 171.832)">
      <path id="Trazado_112345" data-name="Trazado 112345" d="M1683.217,529.414s7.616-32.278,33.307-35.827a6.333,6.333,0,0,1,6.663,4.89c1.664,5.5-8.274,5.544-14.417,7.758S1688.3,517.835,1683.217,529.414Z" transform="translate(-1682.502 -486.726)" fill="#bb83ff"/>
      <path id="Trazado_112346" data-name="Trazado 112346" d="M1677.019,469.651s-2.671-26.737,16.077-36.226a5.131,5.131,0,0,1,6.394,1.991c2.726,3.778-4.878,6.428-9,9.743S1677.865,459.439,1677.019,469.651Z" transform="translate(-1676.887 -433.002)" fill="#bb83ff"/>
    </g>
    <g id="Grupo_64233" data-name="Grupo 64233" transform="translate(335.308 204.898)" opacity="0.8">
      <path id="Trazado_112347" data-name="Trazado 112347" d="M849.223,754.257s11.019-6.171,5.877-14.545c0,0-4.114-5.142-8.522-6.465,0,0,2.351,12.488,0,12.782s-1.616-14.1-1.616-14.1-11.607-5.583-16.161-5.142c0,0,7.2,12.194,4.848,11.9s-10.432-12.635-10.432-12.635-11.9-2.2-13.811,4.848,1.175,10.579,2.938,11.019,13.076.294,12.782,1.763-7.934,3.82-12.195,2.5c0,0,4.7,11.607,10.872,11.019s8.081-4.408,11.9-4.7,6.612.735,4.7,1.763-8.375.337-11.46,2.96-5.583,4.239.147,5.415,16.014.441,18.071-3.967Z" transform="translate(-808.804 -725.722)" fill="#bb83ff"/>
      <g id="Grupo_64232" data-name="Grupo 64232" transform="translate(6.039 7.378)">
        <path id="Trazado_112348" data-name="Trazado 112348" d="M862.263,791.04s30.854,9.991,34.38,21.157a23.439,23.439,0,0,0,2.938,10.725v2.2s-3.232-7.493-5-8.522C894.586,816.6,901.492,806.908,862.263,791.04Z" transform="translate(-862.263 -791.04)" fill="#bb83ff"/>
        <path id="Trazado_112349" data-name="Trazado 112349" d="M1181.055,1062.513a20.35,20.35,0,0,1,2.046,16.021l-1.224-.329s1.188-9.688-1.3-14.56S1181.055,1062.513,1181.055,1062.513Z" transform="translate(-1143.737 -1030.631)" fill="#bb83ff"/>
      </g>
    </g>
    <g id="Grupo_64235" data-name="Grupo 64235" transform="translate(299.101 256.205)" opacity="0.5">
      <path id="Trazado_112350" data-name="Trazado 112350" d="M571.022,1206.977s7.219-21.626-9.822-26.563c0,0-11.74-1.869-19.233,1.719,0,0,18.31,13.821,15.528,17.069s-19.292-16.872-19.292-16.872-22.282,6.645-27.829,12.766c0,0,24.428,7.539,20.931,10s-29.279-4.2-29.279-4.2-18.569,11.514-12.553,23.252,14.42,12.7,17.31,11.145,17.818-15.493,19.211-13.174-5.954,14.739-13.25,18.149c0,0,20.378,9.788,27.9,1.507s5.436-15.7,10.18-20.735,9.721-7.051,8.42-3.357-10.774,10.623-11.707,17.874-2.306,12.443,6.774,7.052,21.921-18.866,19.313-27.251Z" transform="translate(-488.274 -1179.928)" fill="#bb83ff"/>
      <g id="Grupo_64234" data-name="Grupo 64234" transform="translate(11.136 24.346)">
        <path id="Trazado_112351" data-name="Trazado 112351" d="M586.859,1411.674s53.338-24.14,71.611-13.512c0,0,6.211,7.616,2.608,8.384C661.078,1406.546,658.52,1385.209,586.859,1411.674Z" transform="translate(-586.859 -1395.459)" fill="#bb83ff"/>
      </g>
    </g>
    <g id="Grupo_64237" data-name="Grupo 64237" transform="translate(432.867 274.467)">
      <path id="Trazado_112352" data-name="Trazado 112352" d="M1878.149,1352.693s2.127-12.934,12.116-10.876c0,0,6.472,2.2,9.32,6.031,0,0-13.017,2.12-12.473,4.518s14.335-3.408,14.335-3.408,9.551,9.353,10.731,13.953c0,0-14.444-2.715-13.327-.524s16.017,5.713,16.017,5.713,6.357,10.834.15,15.191-10.738,2.592-11.791,1.027-4.909-12.656-6.239-11.85-.923,9.092,1.873,12.783c0,0-12.988-.485-14.6-6.715s1.445-9.443.381-13.275-3.054-6.192-3.382-3.965,2.631,8.291,1.162,12.229-2.163,6.946-5.336,1.77-6.091-15.471-2.517-19.037Z" transform="translate(-1850.288 -1341.595)" fill="#bb83ff"/>
      <g id="Grupo_64236" data-name="Grupo 64236" transform="translate(0 11.091)">
        <path id="Trazado_112353" data-name="Trazado 112353" d="M1844.673,1465.855s-20.655-26.576-32.8-26.07a24.329,24.329,0,0,1-11.5.924l-2.151.779s8.454.506,10.081,1.863C1808.3,1443.35,1815.323,1433.184,1844.673,1465.855Z" transform="translate(-1784.015 -1439.778)" fill="#bb83ff"/>
        <path id="Trazado_112354" data-name="Trazado 112354" d="M1688.816,1445.115a21.119,21.119,0,0,0-16.356,3.667l.754,1.078s9.033-4.583,14.668-3.877S1688.816,1445.115,1688.816,1445.115Z" transform="translate(-1672.46 -1444.185)" fill="#bb83ff"/>
      </g>
    </g>
    <g id="Grupo_64239" data-name="Grupo 64239" transform="translate(447.991 197.118)">
      <path id="Trazado_112355" data-name="Trazado 112355" d="M1815.2,691.726s-13.47-7.543-7.184-17.78c0,0,5.029-6.286,10.417-7.9,0,0-2.874,15.266,0,15.625s1.975-17.241,1.975-17.241,14.188-6.825,19.755-6.286c0,0-8.8,14.906-5.927,14.547s12.751-15.445,12.751-15.445,14.547-2.694,16.882,5.927-1.437,12.931-3.592,13.47-15.984.359-15.625,2.155,9.7,4.669,14.906,3.053c0,0-5.747,14.188-13.29,13.47s-9.878-5.388-14.547-5.747-8.082.9-5.747,2.155,10.237.412,14.009,3.618,6.824,5.182-.18,6.619-19.576.539-22.09-4.849Z" transform="translate(-1806.343 -656.845)" fill="#bb83ff"/>
      <g id="Grupo_64238" data-name="Grupo 64238" transform="translate(1.741 9.019)">
        <path id="Trazado_112356" data-name="Trazado 112356" d="M1898.553,736.689s-37.715,12.212-42.025,25.862a28.651,28.651,0,0,1-3.592,13.11v2.694s3.951-9.159,6.106-10.417C1859.042,767.939,1850.6,756.085,1898.553,736.689Z" transform="translate(-1849.414 -736.689)" fill="#bb83ff"/>
        <path id="Trazado_112357" data-name="Trazado 112357" d="M1825.279,1068.53a24.875,24.875,0,0,0-2.5,19.584l1.5-.4s-1.453-11.842,1.591-17.8S1825.279,1068.53,1825.279,1068.53Z" transform="translate(-1821.757 -1029.558)" fill="#bb83ff"/>
      </g>
    </g>
    <g id="Grupo_64281" data-name="Grupo 64281" transform="translate(366.495 194.648)">
      <g id="Grupo_64240" data-name="Grupo 64240" transform="translate(0 0)">
        <rect id="Rectángulo_6568" data-name="Rectángulo 6568" width="100.681" height="137.683" fill="#47286d"/>
        <rect id="Rectángulo_6569" data-name="Rectángulo 6569" width="92.101" height="130.174" transform="translate(4.29 3.715)" fill="#f3faff"/>
        <path id="Trazado_112358" data-name="Trazado 112358" d="M1361.5,634.977v4.69a4.688,4.688,0,0,0,4.685,4.69h25.169a4.688,4.688,0,0,0,4.686-4.69v-4.69Z" transform="translate(-1330.256 -634.977)" fill="#2b478b"/>
      </g>
      <g id="Grupo_64241" data-name="Grupo 64241" transform="translate(14.981 115.463)">
        <rect id="Rectángulo_6570" data-name="Rectángulo 6570" width="11.395" height="1.153" fill="#aec3ff"/>
        <rect id="Rectángulo_6571" data-name="Rectángulo 6571" width="11.395" height="1.153" transform="translate(14.034)" fill="#aec3ff"/>
        <rect id="Rectángulo_6572" data-name="Rectángulo 6572" width="15.803" height="1.153" transform="translate(0 2.559)" fill="#aec3ff"/>
      </g>
      <g id="Grupo_64252" data-name="Grupo 64252" transform="translate(10.38 32.574)">
        <g id="Grupo_64244" data-name="Grupo 64244" transform="translate(60.141)">
          <g id="Grupo_64242" data-name="Grupo 64242" transform="translate(0 2.856)">
            <path id="Trazado_112359" data-name="Trazado 112359" d="M1725.845,965.287h-16.657V948.63h16.657Zm-15.873-.785h15.088V949.415h-15.088Z" transform="translate(-1709.188 -948.63)" fill="#afcdfb"/>
          </g>
          <g id="Grupo_64243" data-name="Grupo 64243" transform="translate(2.426)">
            <path id="Trazado_112360" data-name="Trazado 112360" d="M1736.977,939.511a1.177,1.177,0,0,1-.907-.427l-5.14-6.218a1.177,1.177,0,1,1,1.814-1.5l4.077,4.931,7.374-12.377a1.177,1.177,0,0,1,2.022,1.2l-8.229,13.812a1.177,1.177,0,0,1-.921.571Q1737.022,939.512,1736.977,939.511Z" transform="translate(-1730.66 -923.346)" fill="#31d9e7"/>
          </g>
        </g>
        <g id="Grupo_64251" data-name="Grupo 64251" transform="translate(0 5.125)">
          <g id="Grupo_64248" data-name="Grupo 64248" transform="translate(10.281 0.19)">
            <g id="Grupo_64245" data-name="Grupo 64245">
              <rect id="Rectángulo_6573" data-name="Rectángulo 6573" width="37.005" height="1.625" fill="#47286d"/>
            </g>
            <g id="Grupo_64246" data-name="Grupo 64246" transform="translate(0 7.259)">
              <rect id="Rectángulo_6574" data-name="Rectángulo 6574" width="34.103" height="1.625" fill="#47286d"/>
            </g>
            <g id="Grupo_64247" data-name="Grupo 64247" transform="translate(0 3.629)">
              <rect id="Rectángulo_6575" data-name="Rectángulo 6575" width="10.087" height="1.625" transform="translate(26.917)" fill="#47286d"/>
              <rect id="Rectángulo_6576" data-name="Rectángulo 6576" width="24.122" height="1.625" fill="#47286d"/>
            </g>
          </g>
          <g id="Grupo_64250" data-name="Grupo 64250">
            <g id="Grupo_64249" data-name="Grupo 64249">
              <path id="Trazado_112361" data-name="Trazado 112361" d="M1178.778,970.359l-1.656.46-.342-1.314,2.47-.788h1.13v9.263h-1.6Z" transform="translate(-1176.781 -968.717)" fill="#47286d"/>
            </g>
            <path id="Trazado_112362" data-name="Trazado 112362" d="M1218.021,1040.948a.585.585,0,1,1,.585.585A.585.585,0,0,1,1218.021,1040.948Z" transform="translate(-1213.362 -1032.27)" fill="#47286d"/>
          </g>
        </g>
      </g>
      <g id="Grupo_64264" data-name="Grupo 64264" transform="translate(10.309 57.458)">
        <g id="Grupo_64255" data-name="Grupo 64255" transform="translate(60.341)">
          <g id="Grupo_64253" data-name="Grupo 64253" transform="translate(0 2.856)">
            <path id="Trazado_112363" data-name="Trazado 112363" d="M1726.987,1185.571H1710.33v-16.657h16.657Zm-15.873-.784H1726.2V1169.7h-15.088Z" transform="translate(-1710.33 -1168.914)" fill="#afcdfb"/>
          </g>
          <g id="Grupo_64254" data-name="Grupo 64254" transform="translate(2.426)">
            <path id="Trazado_112364" data-name="Trazado 112364" d="M1738.119,1159.795a1.177,1.177,0,0,1-.907-.427l-5.14-6.218a1.177,1.177,0,1,1,1.814-1.5l4.077,4.932,7.374-12.377a1.177,1.177,0,1,1,2.022,1.2l-8.229,13.811a1.176,1.176,0,0,1-.921.571C1738.179,1159.794,1738.149,1159.795,1738.119,1159.795Z" transform="translate(-1731.802 -1143.629)" fill="#31d9e7"/>
          </g>
        </g>
        <g id="Grupo_64263" data-name="Grupo 64263" transform="translate(0 5.125)">
          <g id="Grupo_64257" data-name="Grupo 64257">
            <g id="Grupo_64256" data-name="Grupo 64256">
              <path id="Trazado_112365" data-name="Trazado 112365" d="M1176.15,1197l3.144-2.675c1.252-1.057,1.709-1.644,1.709-2.466a1.37,1.37,0,0,0-1.474-1.422c-.835,0-1.409.457-2.113,1.37l-1.135-.887a3.743,3.743,0,0,1,3.366-1.918,2.74,2.74,0,0,1,3.014,2.753c0,1.435-.77,2.205-2.375,3.536l-1.879,1.566h4.345v1.409h-6.6Z" transform="translate(-1176.15 -1189)" fill="#47286d"/>
            </g>
            <path id="Trazado_112366" data-name="Trazado 112366" d="M1244.211,1261.3a.581.581,0,1,1,.581.581A.581.581,0,0,1,1244.211,1261.3Z" transform="translate(-1236.523 -1252.619)" fill="#47286d"/>
          </g>
          <g id="Grupo_64262" data-name="Grupo 64262" transform="translate(10.659 0.19)">
            <g id="Grupo_64261" data-name="Grupo 64261">
              <g id="Grupo_64258" data-name="Grupo 64258">
                <rect id="Rectángulo_6577" data-name="Rectángulo 6577" width="38.886" height="1.625" fill="#47286d"/>
              </g>
              <g id="Grupo_64259" data-name="Grupo 64259" transform="translate(0 7.259)">
                <rect id="Rectángulo_6578" data-name="Rectángulo 6578" width="35.837" height="1.625" fill="#47286d"/>
              </g>
              <g id="Grupo_64260" data-name="Grupo 64260" transform="translate(0 3.63)">
                <rect id="Rectángulo_6579" data-name="Rectángulo 6579" width="10.6" height="1.625" transform="translate(28.286)" fill="#47286d"/>
                <rect id="Rectángulo_6580" data-name="Rectángulo 6580" width="25.348" height="1.625" fill="#47286d"/>
              </g>
            </g>
          </g>
        </g>
      </g>
      <g id="Grupo_64275" data-name="Grupo 64275" transform="translate(10.193 82.525)">
        <g id="Grupo_64267" data-name="Grupo 64267" transform="translate(60.457)">
          <g id="Grupo_64265" data-name="Grupo 64265" transform="translate(0 2.856)">
            <path id="Trazado_112367" data-name="Trazado 112367" d="M1726.987,1407.48H1710.33v-16.657h16.657Zm-15.873-.785H1726.2v-15.088h-15.088Z" transform="translate(-1710.33 -1390.823)" fill="#afcdfb"/>
          </g>
          <g id="Grupo_64266" data-name="Grupo 64266" transform="translate(2.426)">
            <path id="Trazado_112368" data-name="Trazado 112368" d="M1738.119,1381.7a1.177,1.177,0,0,1-.907-.427l-5.14-6.218a1.177,1.177,0,1,1,1.814-1.5l4.077,4.931,7.374-12.377a1.177,1.177,0,0,1,2.022,1.2l-8.229,13.812a1.176,1.176,0,0,1-.921.571C1738.179,1381.7,1738.149,1381.7,1738.119,1381.7Z" transform="translate(-1731.802 -1365.54)" fill="#31d9e7"/>
          </g>
        </g>
        <g id="Grupo_64272" data-name="Grupo 64272" transform="translate(10.774 5.315)">
          <g id="Grupo_64271" data-name="Grupo 64271">
            <g id="Grupo_64268" data-name="Grupo 64268">
              <rect id="Rectángulo_6581" data-name="Rectángulo 6581" width="38.886" height="1.625" fill="#47286d"/>
            </g>
            <g id="Grupo_64269" data-name="Grupo 64269" transform="translate(0 7.259)">
              <rect id="Rectángulo_6582" data-name="Rectángulo 6582" width="35.837" height="1.625" fill="#47286d"/>
            </g>
            <g id="Grupo_64270" data-name="Grupo 64270" transform="translate(0 3.629)">
              <rect id="Rectángulo_6583" data-name="Rectángulo 6583" width="10.6" height="1.625" transform="translate(28.286)" fill="#47286d"/>
              <rect id="Rectángulo_6584" data-name="Rectángulo 6584" width="25.348" height="1.625" fill="#47286d"/>
            </g>
          </g>
        </g>
        <g id="Grupo_64274" data-name="Grupo 64274" transform="translate(0 5.212)">
          <g id="Grupo_64273" data-name="Grupo 64273">
            <path id="Trazado_112369" data-name="Trazado 112369" d="M1175.126,1419.2l1.1-1.021a2.915,2.915,0,0,0,2.349,1.174,1.4,1.4,0,0,0,1.545-1.379c0-.881-.8-1.379-2.055-1.379h-.728l-.255-.983,2.413-2.566h-3.869v-1.366h5.911v1.174l-2.49,2.554c1.417.2,2.63.932,2.63,2.541a2.859,2.859,0,0,1-3.128,2.821A4.237,4.237,0,0,1,1175.126,1419.2Z" transform="translate(-1175.126 -1411.676)" fill="#47286d"/>
          </g>
          <path id="Trazado_112370" data-name="Trazado 112370" d="M1237.09,1482.652a.568.568,0,1,1,.568.568A.569.569,0,0,1,1237.09,1482.652Z" transform="translate(-1230.09 -1474.13)" fill="#47286d"/>
        </g>
      </g>
      <g id="Grupo_64280" data-name="Grupo 64280" transform="translate(47.077 102.038)">
        <g id="Grupo_64276" data-name="Grupo 64276" transform="translate(3.112 10.886)">
          <path id="Trazado_112371" data-name="Trazado 112371" d="M1536.123,1640.875a7.086,7.086,0,0,1-6.922-5.641.484.484,0,0,1,.948-.194,6.1,6.1,0,0,0,11.934.057.484.484,0,0,1,.946.2A7.1,7.1,0,0,1,1536.123,1640.875Z" transform="translate(-1529.192 -1634.652)" fill="#aec3ff"/>
        </g>
        <g id="Grupo_64277" data-name="Grupo 64277" transform="translate(3.098 2.978)">
          <path id="Trazado_112372" data-name="Trazado 112372" d="M1529.557,1570.94a.484.484,0,0,1-.476-.576,7.067,7.067,0,0,1,13.789-.375.484.484,0,0,1-.939.235,6.1,6.1,0,0,0-11.9.323A.484.484,0,0,1,1529.557,1570.94Z" transform="translate(-1529.073 -1564.65)" fill="#aec3ff"/>
        </g>
        <g id="Grupo_64278" data-name="Grupo 64278">
          <path id="Trazado_112373" data-name="Trazado 112373" d="M1511.688,1558.372a10.043,10.043,0,1,1,10.043-10.043A10.055,10.055,0,0,1,1511.688,1558.372Zm0-18.711a8.667,8.667,0,1,0,8.667,8.667A8.677,8.677,0,0,0,1511.688,1539.661Z" transform="translate(-1501.645 -1538.285)" fill="#aec3ff"/>
        </g>
        <g id="Grupo_64279" data-name="Grupo 64279" transform="translate(7.116 8.785)">
          <rect id="Rectángulo_6585" data-name="Rectángulo 6585" width="3.978" height="0.637" transform="translate(0.939)" fill="#aec3ff"/>
          <rect id="Rectángulo_6586" data-name="Rectángulo 6586" width="3.978" height="0.637" transform="translate(0.939 2.605)" fill="#aec3ff"/>
          <rect id="Rectángulo_6587" data-name="Rectángulo 6587" width="5.855" height="0.637" transform="translate(0 1.258)" fill="#aec3ff"/>
        </g>
      </g>
    </g>
    <g id="Grupo_64285" data-name="Grupo 64285" transform="translate(326.914 242.256)">
      <path id="Trazado_112374" data-name="Trazado 112374" d="M1013.746,1227.929s.313-.7.515-1.037,1.068-1.309,1.215-1.088.737,1.709.424,2.125.02,1.141-1.537,1.58Z" transform="translate(-982.201 -1206.644)" fill="#ffb27d"/>
      <path id="Trazado_112375" data-name="Trazado 112375" d="M860.564,1205.54s7.971,6.654,11.079,6.038a61.291,61.291,0,0,0,6.16-1.761l.746,1.908s-3.345,4.537-6.832,4.567a19.863,19.863,0,0,1-9.479-2.36Z" transform="translate(-846.323 -1188.698)" fill="#6980e2"/>
      <path id="Trazado_112376" data-name="Trazado 112376" d="M736.814,1817.386s.231,3.733.953,3.786c.1.007,3.663.007,3.663.007l4.553-.026a1.477,1.477,0,0,0-1.361-1.329c-1.331-.232-3.558-1.167-4.365-2.926C739.41,1815.047,736.814,1817.386,736.814,1817.386Z" transform="translate(-736.551 -1730.364)" fill="#1c4b8e"/>
      <path id="Trazado_112377" data-name="Trazado 112377" d="M734.491,1467.247a9.492,9.492,0,0,0,2.465.463,9.048,9.048,0,0,0,2.3-.328,63.013,63.013,0,0,1,1.695-8.072c.752-2.91,1.825-6.652,3.353-11.3a153.023,153.023,0,0,0,5.625-21.079c.006-.038.009-.056.009-.056l-.014-.006-12.983-5.7s1.6,17.71-.443,24.508a28.645,28.645,0,0,0-.743,3.257C734.461,1456.315,734.491,1467.247,734.491,1467.247Z" transform="translate(-734.491 -1379.967)" fill="#ffa561"/>
      <path id="Trazado_112378" data-name="Trazado 112378" d="M756.607,1459.31c.752-2.91,1.825-6.652,3.353-11.3a153.047,153.047,0,0,0,5.625-21.079c0-.021,0-.041-.005-.062l-12.983-5.7s1.6,17.71-.443,24.508C751.866,1446.624,756.607,1459.31,756.607,1459.31Z" transform="translate(-750.146 -1379.967)" fill="#f4904d"/>
      <path id="Trazado_112379" data-name="Trazado 112379" d="M826.587,1817.386s.231,3.733.954,3.786c.1.007,3.663.007,3.663.007l4.553-.026a1.477,1.477,0,0,0-1.361-1.329c-1.331-.232-3.558-1.167-4.365-2.926C829.183,1815.047,826.587,1817.386,826.587,1817.386Z" transform="translate(-816.184 -1730.364)" fill="#1c4b8e"/>
      <path id="Trazado_112380" data-name="Trazado 112380" d="M783.352,1424.861a184.81,184.81,0,0,1-1.817,25.568c-1.986,14.091-1.312,20.073-1.312,20.073a13.515,13.515,0,0,1-1.915.487,8.686,8.686,0,0,1-2.841-.329s-2.842-14.1-2.027-21.149-3.892-24.2-3.892-24.2Z" transform="translate(-765.588 -1383.244)" fill="#ffa561"/>
      <path id="Trazado_112381" data-name="Trazado 112381" d="M810.253,1142.559l2.534,1.662,2.308-.653a5.514,5.514,0,0,0,.54-2.768,17.223,17.223,0,0,0-.091-1.843l-3.419-1.509-1.276-.562c0,.02.1,1.047.113,1.2A8.728,8.728,0,0,1,810.253,1142.559Z" transform="translate(-801.695 -1127.799)" fill="#ffb27d"/>
      <path id="Trazado_112382" data-name="Trazado 112382" d="M766.619,1209.595c-3.155,3.046-15.093,2.533-15.829-.822s.8-28.566,6.191-30.15c1.118-.329,7.1,1.6,7.1,1.6a37.9,37.9,0,0,1,1.553,5.578c.119.608.468,7.051.729,13.078.122,2.819.224,5.548.277,7.545A21.769,21.769,0,0,1,766.619,1209.595Z" transform="translate(-748.797 -1164.787)" fill="#8c9df4"/>
      <path id="Trazado_112383" data-name="Trazado 112383" d="M818.037,1142.542c.694,1.173,3.128,2.2,4.417,2.669a17.215,17.215,0,0,0-.091-1.843l-3.419-1.509C818.188,1141.85,817.728,1142.019,818.037,1142.542Z" transform="translate(-808.513 -1132.211)" fill="#fca56b"/>
      <path id="Trazado_112384" data-name="Trazado 112384" d="M808.186,1082.174s-5.509,1.719-6.527-1.729-2.414-5.547,1.061-6.79,4.549-.13,5.169.938S809.593,1081.638,808.186,1082.174Z" transform="translate(-793.046 -1071.224)" fill="#ffb27d"/>
      <path id="Trazado_112385" data-name="Trazado 112385" d="M788.851,1059.479s-.351,4.012-1.181,3.838-1.743-.547-1.621.662-.807,3.282-2,3.277c-2.566-.011-5.354-6.594-4.651-7.843C781.421,1055.811,791.78,1055.084,788.851,1059.479Z" transform="translate(-774.224 -1056.442)" fill="#163560"/>
      <path id="Trazado_112386" data-name="Trazado 112386" d="M812.576,1166.4c-.071-.03-4.1-1.838-4.573-1.682s-1.059,1.6-1.059,1.6l7.1,1.6A3.525,3.525,0,0,0,812.576,1166.4Z" transform="translate(-798.76 -1152.483)" fill="#6980e2"/>
      <g id="Grupo_64283" data-name="Grupo 64283" transform="translate(14.202 2.541)">
        <path id="Trazado_112387" data-name="Trazado 112387" d="M884.919,1335.568l-22.593,21.271c-.443.417-1,.55-1.241.3l-.763-.81c-.24-.255-.073-.8.369-1.221l22.592-21.271c.443-.417,1-.55,1.241-.3l.763.81C885.528,1334.6,885.362,1335.151,884.919,1335.568Z" transform="translate(-860.214 -1304.662)" fill="#1f4d84"/>
        <path id="Trazado_112388" data-name="Trazado 112388" d="M872.241,1444.575l-9.914,9.334c-.443.417-1,.55-1.241.3l-.763-.81c-.24-.254-.073-.8.369-1.221l9.914-9.334Z" transform="translate(-860.214 -1401.732)" fill="#739af0"/>
        <path id="Trazado_112389" data-name="Trazado 112389" d="M1026.925,1101.809a17.708,17.708,0,1,0,29.35-17.8q-.136-.136-.278-.268a17.709,17.709,0,0,0-29.072,18.063Zm5.061-16.343a16.311,16.311,0,1,1,.7,23.055A16.291,16.291,0,0,1,1031.986,1085.465Z" transform="translate(-1007.412 -1078.934)" fill="#1f4d84"/>
        <g id="Grupo_64282" data-name="Grupo 64282" transform="translate(20.142 1.398)" opacity="0.5">
          <path id="Trazado_112390" data-name="Trazado 112390" d="M1066.717,1118.8a16.311,16.311,0,1,1-.7-23.054A16.243,16.243,0,0,1,1066.717,1118.8Z" transform="translate(-1038.528 -1091.31)" fill="#b3cff9"/>
        </g>
      </g>
      <path id="Trazado_112391" data-name="Trazado 112391" d="M802.632,1262.456c-12.449-8.871-11.414-20.707-11.414-20.707,4.55,2.566,9.065,8.24,11.136,13.162C802.477,1257.73,802.58,1260.459,802.632,1262.456Z" transform="translate(-784.792 -1220.817)" fill="#6980e2"/>
      <g id="Grupo_64284" data-name="Grupo 64284" transform="translate(6.167 15.439)">
        <path id="Trazado_112392" data-name="Trazado 112392" d="M989.486,1381.591a3.4,3.4,0,0,0,1.59-.982s.375.026-.061.824c-.036.067-.117.239-.178.36a.077.077,0,0,0,.065.111,8.286,8.286,0,0,1,1.992.042c.135.028.174.35.169.488a1.245,1.245,0,0,1-.262.85,4.344,4.344,0,0,1-1.573.824,4.755,4.755,0,0,1-2.434-.306l-.8-.369.247-1.481.2.042C988.76,1382.061,989.154,1381.672,989.486,1381.591Z" transform="translate(-965.526 -1359.43)" fill="#ffb27d"/>
        <path id="Trazado_112393" data-name="Trazado 112393" d="M793.209,1193.121s-11.185,2.13,3.291,18.328c2.315,2.591,14.824,5.964,14.824,5.964s1.269-1.079.629-1.953c0,0-8.612-6.254-10.508-7.248-.852-.447-3.308-9.982-4.7-12.278A6.266,6.266,0,0,0,793.209,1193.121Z" transform="translate(-789.086 -1193.121)" fill="#8c9df4"/>
      </g>
      <path id="Trazado_112394" data-name="Trazado 112394" d="M1016.431,1225.2a5.7,5.7,0,0,0,.437-1.068,5.9,5.9,0,0,1,.722-1.634c.076-.076.326.022.356.348a1.9,1.9,0,0,1-.18.707,7.983,7.983,0,0,0-.237,1.406C1017.357,1225.523,1016.431,1225.2,1016.431,1225.2Z" transform="translate(-984.583 -1203.719)" fill="#ffb27d"/>
    </g>
    <g id="Grupo_64287" data-name="Grupo 64287" transform="translate(395.705 320.922)">
      <path id="Trazado_112395" data-name="Trazado 112395" d="M1343.475,1777.387a4.366,4.366,0,0,0,.035.563,4.61,4.61,0,0,0,4.579,4.052h64.9a4.615,4.615,0,0,0,0-9.23h-64.9A4.615,4.615,0,0,0,1343.475,1777.387Z" transform="translate(-1343.475 -1770.52)" fill="#2b478b"/>
      <path id="Trazado_112396" data-name="Trazado 112396" d="M1381.735,1754.256h22.252a.71.71,0,0,0,.708-.708h0a.71.71,0,0,0-.708-.708h-22.252a.71.71,0,0,0-.708.708h0A.71.71,0,0,0,1381.735,1754.256Z" transform="translate(-1376.785 -1752.84)" fill="#2b478b"/>
      <rect id="Rectángulo_6588" data-name="Rectángulo 6588" width="2.412" height="0.835" transform="translate(8.591 2.252) rotate(180)" fill="#233862"/>
      <path id="Trazado_112397" data-name="Trazado 112397" d="M1348.432,1833.172a4.622,4.622,0,0,0,4.054,2.407h13.747v-2.407Z" transform="translate(-1347.872 -1824.098)" fill="#233862"/>
      <path id="Trazado_112398" data-name="Trazado 112398" d="M1493.661,1776.035v2.7A3.261,3.261,0,0,1,1490.4,1782h-67.6a3.261,3.261,0,0,1-3.262-3.263v-2.7a3.262,3.262,0,0,1,3.262-3.263h67.6A3.262,3.262,0,0,1,1493.661,1776.035Z" transform="translate(-1410.941 -1770.52)" fill="#f9e478"/>
      <path id="Trazado_112399" data-name="Trazado 112399" d="M1494.441,1833.172a3.262,3.262,0,0,1-3.148,2.407h-67.6a3.262,3.262,0,0,1-3.148-2.407Z" transform="translate(-1411.835 -1824.098)" fill="#f9ca78"/>
      <g id="Grupo_64286" data-name="Grupo 64286" transform="translate(76.005 2.251)">
        <path id="Trazado_112400" data-name="Trazado 112400" d="M2016.323,1777.4a5.13,5.13,0,0,0,1.342,3.563l.055.056a3.275,3.275,0,0,0,2.316,1.011c1.369,0,4.761-2.065,6.863-3.436,1.047-.684,1.775-1.195,1.775-1.195s-.728-.511-1.775-1.195c-2.1-1.372-5.494-3.437-6.863-3.437a3.06,3.06,0,0,0-1.136.22,3.718,3.718,0,0,0-1.565,1.235,5.1,5.1,0,0,0-.94,2.259.238.238,0,0,0,0,.03A5.7,5.7,0,0,0,2016.323,1777.4Z" transform="translate(-2016.323 -1772.771)" fill="#8c9df4"/>
        <path id="Trazado_112401" data-name="Trazado 112401" d="M2016.323,1806.8a5.131,5.131,0,0,0,1.342,3.563l10.4-3.579-11.678-.872A5.7,5.7,0,0,0,2016.323,1806.8Z" transform="translate(-2016.323 -1802.166)" fill="#6980e2"/>
        <path id="Trazado_112402" data-name="Trazado 112402" d="M2025.285,1775.953l10.38,2.835-8.815-4.07A3.72,3.72,0,0,0,2025.285,1775.953Z" transform="translate(-2024.273 -1774.498)" fill="#9fb1ff"/>
        <path id="Trazado_112403" data-name="Trazado 112403" d="M2103.953,1804.393a1.281,1.281,0,0,0,.677,1.2c1.047-.684,1.775-1.2,1.775-1.2s-.727-.511-1.775-1.195A1.279,1.279,0,0,0,2103.953,1804.393Z" transform="translate(-2094.054 -1799.761)" fill="#182d4c"/>
      </g>
    </g>
    <g id="Grupo_64289" data-name="Grupo 64289" transform="translate(474.163 242.93)">
      <path id="Trazado_112404" data-name="Trazado 112404" d="M2159.4,1062.906a3.916,3.916,0,0,0-3.1-.331c-5.26-.618-6.794,5.517-6.723,7.628s.312,4.378-2.037,7.12c-6.786,7.921,7.425,8.27,7.425,8.27.12-6.329,7.706-4.019,7.374-3.378C2172.069,1084.548,2163.311,1064.934,2159.4,1062.906Z" transform="translate(-2133.546 -1062.401)" fill="#163560"/>
      <path id="Trazado_112405" data-name="Trazado 112405" d="M2043.6,1276.089s-.925-1.408-1.671-1.436-2.126-.414-2.016-.138.967.3,1.049.469-1.27.414-1.657.442-1.3,0-1.27.193a4.387,4.387,0,0,0,2.781.884,7.722,7.722,0,0,1,2.547.331Z" transform="translate(-2038.038 -1250.467)" fill="#ffb27d"/>
      <path id="Trazado_112406" data-name="Trazado 112406" d="M2096.265,1204.956a13.872,13.872,0,0,1-1.415,2.14,8.281,8.281,0,0,1-4.922,3.281,5.284,5.284,0,0,1-2.924-.475h0a13.333,13.333,0,0,1-4.528-3.786,2.125,2.125,0,0,1,.29-2.085s5.219,1.174,5.716.925,3.552-7.027,4.1-8.156a6.191,6.191,0,0,1,3.027-3.088Z" transform="translate(-2077.323 -1178.878)" fill="#f17781"/>
      <path id="Trazado_112407" data-name="Trazado 112407" d="M2131.589,1290.482a8.281,8.281,0,0,1-4.922,3.281,5.283,5.283,0,0,1-2.924-.475c.1.013,2.682.332,3.711-1.509,1.05-1.878,2.185-4.86,3.743-3.866C2131.87,1288.343,2131.84,1289.409,2131.589,1290.482Z" transform="translate(-2114.062 -1262.265)" fill="#f4904d"/>
      <path id="Trazado_112408" data-name="Trazado 112408" d="M2332.786,1786.544s1.593,1.453,1.282,2.486-1.748,1.721-1.942,2.983-.971,1.95-1.67,1.95h-3.333s-.515-.888.728-1.156,1.712-1.751,1.634-3.127a24.3,24.3,0,0,1,.117-3.212l2.641-.612Z" transform="translate(-2294.374 -1704.134)" fill="#1c4b8e"/>
      <path id="Trazado_112409" data-name="Trazado 112409" d="M2187.522,1797.412s.573,6.156-.126,6.5l-8.947-.018s0-1.033,1.437-1.262,3.961-1.071,4.389-2.945S2187.522,1797.412,2187.522,1797.412Z" transform="translate(-2162.588 -1714.385)" fill="#1c4b8e"/>
      <path id="Trazado_112410" data-name="Trazado 112410" d="M2192.763,1195a35.577,35.577,0,0,1,0,4.135c-.089,1.495-1.6,3.5-1.816,3.993-.539,1.243-1.146,1.445-1.146,1.445l-4.7,1.151-1.652.4-5.208-1.556s-2.372-6.622-1.42-10.349a28.645,28.645,0,0,1,2.408-6.316s3.531-1.394,9.784-.353Z" transform="translate(-2160.947 -1173.076)" fill="#f17781"/>
      <path id="Trazado_112411" data-name="Trazado 112411" d="M2242.16,1286.631a14.619,14.619,0,0,1-.441,3.383c-.539,1.243-1.146,1.445-1.146,1.445l-4.7,1.152-2.041-.6s6.811-1.032,6.056-6.892Z" transform="translate(-2211.719 -1259.96)" fill="#f2ccaa"/>
      <path id="Trazado_112412" data-name="Trazado 112412" d="M2172.51,1350.145s-2.579,8.029-2.745,10.762,4.931,38.833,5.136,40.092c.193,1.187,1.667,1.944,1.667,1.944a2.231,2.231,0,0,0,1.646.127,4.073,4.073,0,0,0,1.767-.833s2.008-25.746.765-34.943a145.67,145.67,0,0,1-1.257-17.15Z" transform="translate(-2154.882 -1317.641)" fill="#6980e2"/>
      <path id="Trazado_112413" data-name="Trazado 112413" d="M2211.694,1348.025s3.935,5.279,4.3,8.848.576,16.1,1.357,19.584,3.653,10.174,3.653,21.026a2.164,2.164,0,0,1-1.22.953,10.063,10.063,0,0,1-1.073.3,1.686,1.686,0,0,1-1.886-.9c-1.941-3.908-8.125-16.514-8.441-19.131-.224-1.852-2.177-14.107-6.436-21.3-1.022-1.727.627-8.593.627-8.593Z" transform="translate(-2183.137 -1315.761)" fill="#8c9df4"/>
      <path id="Trazado_112414" data-name="Trazado 112414" d="M2189.3,1339.172a5.408,5.408,0,0,0,3.093.86c2.457.049,8.546-.626,8.546-.626a5.042,5.042,0,0,1,.26,1.554s-7.436,1.876-11.745.274A2.724,2.724,0,0,1,2189.3,1339.172Z" transform="translate(-2172.083 -1307.908)" fill="#233862"/>
      <g id="Grupo_64288" data-name="Grupo 64288" transform="translate(18.598 31.704)">
        <path id="Trazado_112415" data-name="Trazado 112415" d="M2203.805,1345.6a1.279,1.279,0,1,1,1.121-1.269A1.2,1.2,0,0,1,2203.805,1345.6Zm0-2.166a.912.912,0,1,0,.749.9A.834.834,0,0,0,2203.805,1343.439Z" transform="translate(-2202.684 -1343.067)" fill="#fff"/>
      </g>
      <path id="Trazado_112416" data-name="Trazado 112416" d="M2235.8,1274.2l-6.039,5.258a1.047,1.047,0,0,1-1.478-.1l-7.7-8.849a1.047,1.047,0,0,1,.1-1.478l6.038-5.258a1.048,1.048,0,0,1,1.478.1l7.705,8.849A1.048,1.048,0,0,1,2235.8,1274.2Z" transform="translate(-2199.733 -1240.8)" fill="#2b478b"/>
      <path id="Trazado_112417" data-name="Trazado 112417" d="M2253.077,1352.244c-.086.023-3.208.39-3.208,1.035a1.941,1.941,0,0,0,1.777,1.7,10.234,10.234,0,0,0,1.96-1.5Z" transform="translate(-2225.94 -1319.503)" fill="#ffb27d"/>
      <path id="Trazado_112418" data-name="Trazado 112418" d="M2226.328,1157.744a10.4,10.4,0,0,1-.557-3.8l-.235.046-3.966.785s.09,1.248.093,2.424v.029c0,1.021-.69,2.046.948,2.451C2223.117,1159.806,2227.074,1159.552,2226.328,1157.744Z" transform="translate(-2200.794 -1143.605)" fill="#ffb27d"/>
      <path id="Trazado_112419" data-name="Trazado 112419" d="M2221.957,1155.142s.09,1.248.093,2.424c2.219-.063,3.392-2.087,3.873-3.209Z" transform="translate(-2201.181 -1143.97)" fill="#e8945b"/>
      <path id="Trazado_112420" data-name="Trazado 112420" d="M2201.666,1101.6s5.25.087,5.254-3.184.684-5.462-2.668-5.656-4,1.054-4.271,2.145S2200.3,1101.489,2201.666,1101.6Z" transform="translate(-2181.631 -1089.31)" fill="#ffb27d"/>
      <path id="Trazado_112421" data-name="Trazado 112421" d="M2217.116,1086.985s1.438,3.837,3.644,4.4,3.163-.024,3.163-.024a6.244,6.244,0,0,1-2.043-3.691S2218.2,1085.159,2217.116,1086.985Z" transform="translate(-2196.887 -1083.618)" fill="#163560"/>
      <path id="Trazado_112422" data-name="Trazado 112422" d="M2199.4,1090.05a3.256,3.256,0,0,0-1.5,1.176,5.284,5.284,0,0,0-.71,3s-1.083-2.608.134-4.083C2198.606,1088.581,2199.4,1090.05,2199.4,1090.05Z" transform="translate(-2178.811 -1086.372)" fill="#163560"/>
      <path id="Trazado_112423" data-name="Trazado 112423" d="M2261.637,1350.806a3.571,3.571,0,0,0-1.248-.17c-.5.07-.87-.01-.87.13s.645.205.782.273A6.8,6.8,0,0,0,2261.637,1350.806Z" transform="translate(-2234.5 -1318.065)" fill="#ffb27d"/>
      <path id="Trazado_112424" data-name="Trazado 112424" d="M2273.251,1190.587a6.357,6.357,0,0,1,5.156,3.734c1.428,3.473,4.139,9.3,4.139,10.285s-1.514,4-9.646,5.743c0,0-.841-.885-.79-1.584,0,0,5.076-4.36,5.063-4.87-.026-.964-.832-2.237-5.289-6.694C2270.672,1195.989,2273.251,1190.587,2273.251,1190.587Z" transform="translate(-2245.181 -1176.107)" fill="#f17781"/>
    </g>
    <g id="Grupo_64293" data-name="Grupo 64293" transform="translate(361.925 154.078)">
      <g id="Grupo_64290" data-name="Grupo 64290" transform="translate(0 0)">
        <path id="Trazado_112425" data-name="Trazado 112425" d="M1098.116,275.915s-2.99-.505-4.885.927-2.2.969-3.269,1.854.025,1.938-.565,2.527a1.209,1.209,0,0,0,.262,2.022c.875.295.285,1.9,2.181,2.106s1.046,1.088,2.844,1.222a15.819,15.819,0,0,1,4.233.593,1.5,1.5,0,0,0,2.078-.735c.271-.722,1.029.209,1.25-.778s-.569-1.376-.126-2.177S1103.654,276.99,1098.116,275.915Z" transform="translate(-1083.943 -275.829)" fill="#233862"/>
        <path id="Trazado_112426" data-name="Trazado 112426" d="M1214.211,732.378a.739.739,0,0,0-.126.791l0,0a4.91,4.91,0,0,0,1.563,1.691c.094.075.178.143.25.206l.056.05.043.039c.686.624.431.77,1.665,2.037,1.407,1.444,2.369,1.463,2.642,1.329.231-.115-.245-.882-.772-1.745l-.077-.126c-.07-.115-.14-.231-.21-.346-.618-1.039-.465-1.529-.331-3.082.109-1.262,1.912-7.059,1.912-7.059l-2.68-.442s-.774,4.612-1.657,5.327c-.473.381-1,.39-1.459.673l-.094.061A3.518,3.518,0,0,0,1214.211,732.378Z" transform="translate(-1194.866 -674.903)" fill="#ffb27d"/>
        <path id="Trazado_112427" data-name="Trazado 112427" d="M1214.211,779.5a.739.739,0,0,0-.126.791.009.009,0,0,0,0,0,5.686,5.686,0,0,0,1.566,1.686c.093.076.175.146.248.211l.056.05.043.039c.686.624.431.77,1.665,2.037,1.407,1.444,2.369,1.463,2.642,1.329.231-.114-.245-.882-.772-1.745a5.952,5.952,0,0,1-2.5-1.817c-.849-1.068-1.42-2.443-2-3.238l-.094.061A3.512,3.512,0,0,0,1214.211,779.5Z" transform="translate(-1194.866 -722.025)" fill="#233862"/>
        <path id="Trazado_112428" data-name="Trazado 112428" d="M1389.554,723.156c.171.825,1.348.679,2.662.348s1,.054,2.875-.167,2.434-.923,2.489-1.2c.049-.247-.877-.328-1.87-.435l-.376-.042a8.107,8.107,0,0,1-2.97-1.437,11.891,11.891,0,0,1-2.423-2.838l-2.567.222s1.362,2.038,1.89,2.924a3.1,3.1,0,0,1,.264,1.749A3.3,3.3,0,0,0,1389.554,723.156Z" transform="translate(-1348.634 -667.505)" fill="#ffb27d"/>
        <path id="Trazado_112429" data-name="Trazado 112429" d="M1409,757.4c1.314-.331,1,.054,2.875-.167s2.434-.923,2.489-1.2c.05-.247-.877-.328-1.87-.435l-.009.019a5.281,5.281,0,0,1-2.677.853c-1.27.04-2.619-.315-3.5-.294a3.3,3.3,0,0,0,.026.879C1406.514,757.881,1407.691,757.735,1409,757.4Z" transform="translate(-1365.423 -701.405)" fill="#233862"/>
        <path id="Trazado_112430" data-name="Trazado 112430" d="M1250.081,591.564l-2.356,6.478-3.075,8.459a5.079,5.079,0,0,1-1.667-.141,7.225,7.225,0,0,1-1.616-.773s.807-9.065,2.394-14.276a9.254,9.254,0,0,1,1.376-3.032C1247.633,585.288,1250.081,591.564,1250.081,591.564Z" transform="translate(-1219.121 -552.268)" fill="#ed7d2b"/>
        <path id="Trazado_112431" data-name="Trazado 112431" d="M1114.617,524.059c-1.577-.5-6.059.187-10.56,1.1l-.955-1.55-9.74-.692s-3.05,6.747-1.371,11.674c.326.956,1.885.99,1.885.99s5.706.062,7.588.049c4.841-.034,10.223-3.4,10.921-3.545,1.143-.237,1.617,2.048,2.778,4.444s10.832,10.567,10.832,10.567a8.464,8.464,0,0,0,2.086-.229,2.055,2.055,0,0,0,.892-.572S1118.172,525.178,1114.617,524.059Z" transform="translate(-1086.171 -495.007)" fill="#f99746"/>
        <path id="Trazado_112432" data-name="Trazado 112432" d="M1129.786,353.535a4.582,4.582,0,0,1-2.856.108,5.093,5.093,0,0,1-1.9-2.247c.492-.026,1.03-.461,1.426-3.289l.21.074,3.535,1.244s-.248,1.133-.405,2.211C1129.661,352.541,1129.592,353.408,1129.786,353.535Z" transform="translate(-1115.923 -339.942)" fill="#ffb27d"/>
        <path id="Trazado_112433" data-name="Trazado 112433" d="M1143.052,350s-.151.794-.36,1.929a4.118,4.118,0,0,1-3.175-3.173Z" transform="translate(-1128.776 -340.522)" fill="#ed975d"/>
        <path id="Trazado_112434" data-name="Trazado 112434" d="M1140.762,303.138s-4.828-.613-4.4-3.614.094-5.1,3.195-4.837,3.535,1.5,3.636,2.532S1142.029,303.221,1140.762,303.138Z" transform="translate(-1125.953 -292.537)" fill="#ffb27d"/>
        <path id="Trazado_112435" data-name="Trazado 112435" d="M1132.033,293.467s-3.069,2.683-5.168,2.912-2.9-.439-2.9-.439a8.2,8.2,0,0,0,1.964-2.7,1.476,1.476,0,0,1,1.211-.879C1128.641,292.22,1131.483,292.141,1132.033,293.467Z" transform="translate(-1114.982 -290.427)" fill="#233862"/>
        <path id="Trazado_112436" data-name="Trazado 112436" d="M1178.278,296.156a7.6,7.6,0,0,1,1.371,1.73,5.84,5.84,0,0,1,.18,3.1s1.588-3.141.665-4.655A1.286,1.286,0,0,0,1178.278,296.156Z" transform="translate(-1163.159 -293.341)" fill="#233862"/>
        <path id="Trazado_112437" data-name="Trazado 112437" d="M1101.87,385.523c-.077,9.766.015,7.725-1.047,8.659a4.1,4.1,0,0,1-1.93.433c-2.993.22-8.26-.236-8.464-.788-.7-1.91-.221-2.508-.818-5.435-.062-.311-.139-.648-.229-1.015-.495-2.01-.967-2.691.715-5.938,1.525-2.941,3.114-5.33,3.259-5.245,4.1,2.392,4.41.355,4.41.355S1101.908,380.76,1101.87,385.523Z" transform="translate(-1083.896 -364.854)" fill="#8c9df4"/>
        <path id="Trazado_112438" data-name="Trazado 112438" d="M1247.725,628.2l-3.075,8.459a5.079,5.079,0,0,1-1.667-.141,7.225,7.225,0,0,1-1.616-.773s.807-9.065,2.394-14.276Z" transform="translate(-1219.121 -582.428)" fill="#f99746"/>
        <path id="Trazado_112439" data-name="Trazado 112439" d="M1167.222,379.348s4.2.682,4.707,2.485,3.48,12.4,3.48,12.4-2.13.4-3.123-.58-3.494-9.119-3.494-9.119Z" transform="translate(-1153.352 -367.654)" fill="#8c9df4"/>
        <path id="Trazado_112440" data-name="Trazado 112440" d="M1104.313,458.407c-2.993.22-8.26-.236-8.464-.788-.7-1.91-.221-2.508-.818-5.435l1.416-4.077s-.207,4.53,1.137,5.712,5.484,2.261,6.14,3.251A3.647,3.647,0,0,1,1104.313,458.407Z" transform="translate(-1089.316 -428.646)" fill="#6980e2"/>
        <path id="Trazado_112441" data-name="Trazado 112441" d="M1146.708,518.887s2.949-.678,3.428-.42a6.943,6.943,0,0,1,1.8,1.536c.148.331-1.063-.245-1.456-.347a3.493,3.493,0,0,0-1.253.284,4.171,4.171,0,0,1-2.247.241Z" transform="translate(-1135.155 -491.007)" fill="#ffb27d"/>
        <path id="Trazado_112442" data-name="Trazado 112442" d="M1053.889,376.192s-3.965.272-5.324,2.2c-1.914,2.709-5.667,14.226-3.459,15.742,2.487,1.708,11.266.372,11.266.372a3.569,3.569,0,0,0-.129-2.027c-.411-.658-7.031-1.68-7.339-1.983s3.773-5.978,3.766-6.894S1053.889,376.192,1053.889,376.192Z" transform="translate(-1044.431 -364.855)" fill="#8c9df4"/>
        <path id="Trazado_112443" data-name="Trazado 112443" d="M1178.371,526.2a5.7,5.7,0,0,0,.828.888.6.6,0,0,0,.334.069l-.422-.748Z" transform="translate(-1163.241 -497.917)" fill="#ffb27d"/>
        <path id="Trazado_112444" data-name="Trazado 112444" d="M1177.054,518.93l1.806.861a.321.321,0,0,1-.3.117,4.284,4.284,0,0,1-.782-.209Z" transform="translate(-1162.073 -491.469)" fill="#ffb27d"/>
      </g>
      <g id="Grupo_64292" data-name="Grupo 64292" transform="translate(11.175 19.679)">
        <g id="Grupo_64291" data-name="Grupo 64291">
          <path id="Trazado_112445" data-name="Trazado 112445" d="M1182.294,460.823l14.235-.1,4.207-10.679-14.213.1Z" transform="translate(-1177.896 -450.044)" fill="#233862"/>
          <path id="Trazado_112446" data-name="Trazado 112446" d="M1162.153,540.9l-18.8.133,0,.415,18.63-.131Z" transform="translate(-1143.356 -530.633)" fill="#233862"/>
        </g>
        <path id="Trazado_112447" data-name="Trazado 112447" d="M1265.317,492.374a.493.493,0,0,0-.488-.674.971.971,0,0,0-.867.684.493.493,0,0,0,.488.674A.971.971,0,0,0,1265.317,492.374Z" transform="translate(-1250.314 -486.994)" fill="#ebf3fa"/>
      </g>
    </g>
    <path id="Trazado_112448" data-name="Trazado 112448" d="M537.27,1763.642h10.388c.557-.472-.385-1.545-1.369-1.617a6.061,6.061,0,0,0-1.586.188c-.143-1.9-.959-10.434-4.036-10.091-3.459.384,0,3.759.978,5.757a47.586,47.586,0,0,1,1.838,4.6c-.281.061-.572.121-.869.175-.458-1.408-2.165-6.143-4.334-5.868-2.547.323-1.523,2.222.282,3.349,1.324.829,2.951,2.007,3.724,2.576a11.035,11.035,0,0,1-2.032.163A4.376,4.376,0,0,0,537.27,1763.642Z" transform="translate(-232.176 -1431.272)" fill="#31d9e7"/>
    <path id="Trazado_112449" data-name="Trazado 112449" d="M2439.925,1753.8h-11.493c-.616-.522.426-1.709,1.515-1.788a6.7,6.7,0,0,1,1.754.207c.158-2.1,1.061-11.544,4.465-11.164,3.827.425,0,4.158-1.082,6.369a52.591,52.591,0,0,0-2.033,5.093c.311.068.632.133.961.194.507-1.557,2.4-6.8,4.8-6.492,2.818.357,1.685,2.458-.312,3.705-1.466.917-3.265,2.22-4.12,2.85a12.224,12.224,0,0,0,2.248.18A4.844,4.844,0,0,1,2439.925,1753.8Z" transform="translate(-1910.007 -1421.453)" fill="#31d9e7"/>
    <path id="Rectángulo_6589" data-name="Rectángulo 6589" d="M.429,0H258.906a.429.429,0,0,1,.429.429v0a.429.429,0,0,1-.429.429H.429A.429.429,0,0,1,0,.429v0A.429.429,0,0,1,.429,0Z" transform="translate(287.342 332.33)" fill="#233862"/>
  </g>
</svg>
