<svg xmlns="http://www.w3.org/2000/svg" width="88.345" height="88.5" viewBox="0 0 88.345 88.5">
  <g id="desafio" transform="translate(0 -15.998)">
    <g id="Grupo_62932" data-name="Grupo 62932" transform="translate(1.287 17.151)">
      <path id="Trazado_111202" data-name="Trazado 111202" d="M91.694,79.992l.631-.41.256-.6.6-.338V71.767a5.641,5.641,0,0,0-5.642-5.64H13.076a5.641,5.641,0,0,0-5.642,5.64V79.7l4.25,1.361-.867,2.7-.877-.044,8.084,11.171H82.2l9.347-12.45Z" transform="translate(-7.434 -58.602)" fill="#f17781"/>
      <path id="Trazado_111204" data-name="Trazado 111204" d="M13.076,66.127a5.641,5.641,0,0,0-5.642,5.64V79.7l4.25,1.361-.867,2.7-.877-.044,8.084,11.171H18.2V75.873a1.845,1.845,0,0,1,2.584-1.7,6.176,6.176,0,0,0,2.608.537,6.293,6.293,0,0,0,6.134-6.335V66.127Z" transform="translate(-7.434 -58.602)" fill="#ee6161"/>
      <path id="Trazado_111205" data-name="Trazado 111205" d="M93.182,191.473c0,4.175-2.526,6.7-5.642,6.7H13.076a5.642,5.642,0,0,1-5.642-5.642V139.471l85.748-1.059Z" transform="translate(-7.434 -118.374)" fill="#f9f7f8"/>
      <path id="Trazado_111206" data-name="Trazado 111206" d="M18.2,143.762l-10.769.133v53.061a5.642,5.642,0,0,0,5.642,5.642H18.2Z" transform="translate(-7.434 -122.797)" fill="#efedef"/>
      <g id="Grupo_62930" data-name="Grupo 62930" transform="translate(3.13)">
        <circle id="Elipse_4759" data-name="Elipse 4759" cx="28.108" cy="28.108" r="28.108" transform="translate(0 47.602) rotate(-45)" fill="#31d9e7"/>
        <path id="Trazado_111208" data-name="Trazado 111208" d="M151.873,198.827a18.471,18.471,0,1,0,3.835-4" transform="translate(-127.219 -161.848)" fill="#f9e478"/>
        <circle id="Elipse_4760" data-name="Elipse 4760" cx="9.066" cy="9.066" r="9.066" transform="translate(30.689 38.537)" fill="#f17781"/>
        <g id="Grupo_62929" data-name="Grupo 62929" transform="translate(38.445 26.321)">
          <g id="XMLID_2_">
            <path id="Trazado_111209" data-name="Trazado 111209" d="M269.687,175.085a1.3,1.3,0,0,0-1.836,0L263.956,179l-.018.016-15.966,16.051a1.3,1.3,0,1,0,1.841,1.831l15.95-16.035.018-.016,3.911-3.931a1.3,1.3,0,0,0,0-1.836Z" transform="translate(-247.594 -174.707)" fill="#fbe5c6"/>
          </g>
        </g>
        <path id="Trazado_111210" data-name="Trazado 111210" d="M219.263,66.127V68.5a6.215,6.215,0,0,0,12.43,0V66.127Z" transform="translate(-185.723 -58.602)" fill="#ee6161"/>
        <path id="Trazado_111211" data-name="Trazado 111211" d="M242.016,35.309a2.753,2.753,0,0,1-2.753-2.753V25.412a2.753,2.753,0,1,1,5.505,0v7.145A2.753,2.753,0,0,1,242.016,35.309Z" transform="translate(-202.261 -22.659)" fill="#e4e1e5"/>
        <path id="Trazado_111212" data-name="Trazado 111212" d="M141.262,66.127V68.5a6.215,6.215,0,0,0,12.43,0V66.127Z" transform="translate(-121.225 -58.602)" fill="#ee6161"/>
        <path id="Trazado_111213" data-name="Trazado 111213" d="M164.015,35.309a2.753,2.753,0,0,1-2.753-2.753V25.412a2.753,2.753,0,0,1,5.505,0v7.145A2.753,2.753,0,0,1,164.015,35.309Z" transform="translate(-137.763 -22.659)" fill="#e4e1e5"/>
        <path id="Trazado_111214" data-name="Trazado 111214" d="M86.013,35.309a2.753,2.753,0,0,1-2.753-2.753V25.412a2.753,2.753,0,0,1,5.505,0v7.145A2.753,2.753,0,0,1,86.013,35.309Z" transform="translate(-73.264 -22.659)" fill="#e4e1e5"/>
        <path id="Trazado_111215" data-name="Trazado 111215" d="M297.265,66.127V68.5a6.215,6.215,0,1,0,12.43,0V66.127Z" transform="translate(-250.222 -58.602)" fill="#ee6161"/>
        <path id="Trazado_111216" data-name="Trazado 111216" d="M320.017,35.309a2.753,2.753,0,0,0,2.753-2.753V25.412a2.753,2.753,0,1,0-5.505,0v7.145A2.753,2.753,0,0,0,320.017,35.309Z" transform="translate(-266.759 -22.659)" fill="#e4e1e5"/>
        <path id="Trazado_111217" data-name="Trazado 111217" d="M387.7,66.127h-12.43v2.518a6.215,6.215,0,1,0,12.43,0V66.127Z" transform="translate(-314.719 -58.602)" fill="#ee6161"/>
        <path id="Trazado_111218" data-name="Trazado 111218" d="M398.019,36.148a2.753,2.753,0,0,0,2.753-2.753V26.251a2.753,2.753,0,1,0-5.505,0V33.4A2.753,2.753,0,0,0,398.019,36.148Z" transform="translate(-331.258 -23.353)" fill="#e4e1e5"/>
      </g>
      <path id="Trazado_111219" data-name="Trazado 111219" d="M341.777,135.77l-2.148-5.261a1.2,1.2,0,0,0-1.956-.393l-5.141,5.162a1.2,1.2,0,0,0-.26,1.3l2.531,6.2h4.023l3.264-4.3Z" transform="translate(-275.964 -111.223)" fill="#f5c274"/>
      <g id="Grupo_62931" data-name="Grupo 62931" transform="translate(58.841 24.547)">
        <path id="Trazado_111220" data-name="Trazado 111220" d="M359.575,166.585a1.2,1.2,0,0,1,.4,1.953l-5.14,5.162a1.2,1.2,0,0,1-1.3.265l-6.2-2.5,3.911-3.931.007-.007,3.054-3.066Z" transform="translate(-347.334 -164.457)" fill="#f3b658"/>
      </g>
    </g>
    <g id="Grupo_62933" data-name="Grupo 62933" transform="translate(0 15.998)">
      <path id="Trazado_111221" data-name="Trazado 111221" d="M395.555,235.573a1.3,1.3,0,0,0-.783,1.661,26.742,26.742,0,0,1-1,20.452,1.3,1.3,0,1,0,2.346,1.115,29.339,29.339,0,0,0,1.1-22.445,1.3,1.3,0,0,0-1.661-.783Z" transform="translate(-325.498 -197.498)" fill="#47286d"/>
      <path id="Trazado_111222" data-name="Trazado 111222" d="M138.532,173.6a1.3,1.3,0,0,0-1.818.258,26.918,26.918,0,0,1-9.221,7.761,26.376,26.376,0,0,1-12.112,2.9,26.667,26.667,0,1,1,8.874-51.821,1.3,1.3,0,0,0,.864-2.449,29.265,29.265,0,1,0,3.555,53.679,29.53,29.53,0,0,0,10.116-8.514A1.3,1.3,0,0,0,138.532,173.6Z" transform="translate(-71.209 -109.103)" fill="#47286d"/>
      <path id="Trazado_111223" data-name="Trazado 111223" d="M189.455,130.491l-4.762-1.922-1.941-4.754a2.495,2.495,0,0,0-4.077-.817l-5.141,5.162a2.49,2.49,0,0,0-.542,2.7l2.207,5.4-1.454,1.462a19.74,19.74,0,0,0-25.032-.761,1.3,1.3,0,0,0,1.586,2.056,17.145,17.145,0,0,1,21.61.55l-4.818,4.844a10.386,10.386,0,1,0,1.842,1.83l4.818-4.844a17.159,17.159,0,1,1-27.02,1.343,1.3,1.3,0,1,0-2.123-1.5,19.767,19.767,0,1,0,30.976-1.691l1.455-1.463,5.406,2.182a2.489,2.489,0,0,0,2.7-.553l5.141-5.162a2.495,2.495,0,0,0-.834-4.073Zm-9.049-5.552,1.765,4.322-2.445,2.455h0l-.092.093-2.446,2.456-1.765-4.322Zm-11.867,27.684a7.779,7.779,0,1,1-3.3-6.346l-5.4,5.431a1.3,1.3,0,0,0,1.841,1.832l5.4-5.432A7.723,7.723,0,0,1,168.539,152.624Zm14.817-14.777-4.327-1.747,2.507-2.52,2.475-2.485,4.329,1.747Z" transform="translate(-116.599 -103.868)" fill="#47286d"/>
      <path id="Trazado_111224" data-name="Trazado 111224" d="M81.4,23.377H75.229V20.049a4.051,4.051,0,1,0-8.1,0v3.328h-5.4V20.049a4.051,4.051,0,1,0-8.1,0v3.328h-5.4V20.049a4.051,4.051,0,0,0-8.1,0v3.328h-5.4V20.049a4.051,4.051,0,1,0-8.1,0v3.328h-5.4V20.049a4.051,4.051,0,0,0-8.1,0v3.328H6.94A6.948,6.948,0,0,0,0,30.317V91.864A6.948,6.948,0,0,0,6.94,98.8H81.4a6.948,6.948,0,0,0,6.94-6.94V30.317a6.948,6.948,0,0,0-6.94-6.94Zm-11.68-3.328a1.454,1.454,0,1,1,2.909,0v7.145a1.454,1.454,0,1,1-2.909,0Zm-13.5,0a1.454,1.454,0,1,1,2.908,0v7.145a1.454,1.454,0,1,1-2.908,0Zm-13.5,0a1.454,1.454,0,1,1,2.909,0v7.145a1.454,1.454,0,1,1-2.909,0Zm-13.5,0a1.454,1.454,0,1,1,2.909,0v7.145a1.454,1.454,0,1,1-2.909,0Zm-13.5,0a1.454,1.454,0,1,1,2.909,0v7.145a1.454,1.454,0,1,1-2.909,0ZM81.4,96.207H6.94A4.348,4.348,0,0,1,2.6,91.864V40.1h20.96a1.3,1.3,0,1,0,0-2.6H2.6V30.317A4.348,4.348,0,0,1,6.94,25.974h6.175v1.22a4.051,4.051,0,0,0,8.1,0v-1.22h5.4v1.22a4.051,4.051,0,0,0,8.1,0v-1.22h5.4v1.22a4.051,4.051,0,1,0,8.1,0v-1.22h5.4v1.22a4.051,4.051,0,1,0,8.1,0v-1.22h5.4v1.22a4.051,4.051,0,1,0,8.1,0v-1.22H81.4a4.348,4.348,0,0,1,4.343,4.343V37.5H73.118a1.3,1.3,0,0,0,0,2.6H85.748V91.864A4.348,4.348,0,0,1,81.4,96.207Z" transform="translate(0 -15.998)" fill="#47286d"/>
    </g>
  </g>
</svg>
