<svg xmlns="http://www.w3.org/2000/svg" width="180.01" height="178.733" viewBox="0 0 180.01 178.733">
  <g id="producto" transform="translate(-0.557 -1)">
    <g id="Grupo_64059" data-name="Grupo 64059" transform="translate(4.717 3.883)">
      <g id="Grupo_64049" data-name="Grupo 64049" transform="translate(49.008 109.546)">
        <path id="Trazado_112196" data-name="Trazado 112196" d="M21.883,40l8.648,23.062H65.125V91.89a11.528,11.528,0,0,1-11.531,11.531H19V40Z" transform="translate(-19 -40)" fill="#d3a06c"/>
      </g>
      <g id="Grupo_64050" data-name="Grupo 64050" transform="translate(8.648 109.546)">
        <path id="Trazado_112197" data-name="Trazado 112197" d="M45.359,40v63.422H16.531A11.528,11.528,0,0,1,5,91.89V63.062H33.828L42.476,40Z" transform="translate(-5 -40)" fill="#d3a06c"/>
      </g>
      <g id="Grupo_64051" data-name="Grupo 64051" transform="translate(51.89 109.546)">
        <path id="Trazado_112198" data-name="Trazado 112198" d="M20,40H63.242L71.89,63.062H28.648Z" transform="translate(-20 -40)" fill="#b27946"/>
      </g>
      <g id="Grupo_64052" data-name="Grupo 64052" transform="translate(0 109.546)">
        <path id="Trazado_112199" data-name="Trazado 112199" d="M48.125,40,39.476,63.062H2L10.648,40H48.125Z" transform="translate(-2 -40)" fill="#b27946"/>
      </g>
      <g id="Grupo_64053" data-name="Grupo 64053">
        <path id="Trazado_112200" data-name="Trazado 112200" d="M63.75,60.463,56.6,57.782a4.4,4.4,0,0,1-1.557-1.009A4.161,4.161,0,0,1,56.6,50l20.353-7.639h27.675A51.206,51.206,0,0,0,54.582,2H53.2A51.19,51.19,0,0,0,23.823,95.114a16.459,16.459,0,0,1,7.005,13.434v3H76.953v-3A16.609,16.609,0,0,1,78.8,101a16.8,16.8,0,0,1,5.16-5.881A51.211,51.211,0,0,0,104.31,65.422H76.953Z" transform="translate(-2 -2)" fill="#ffeaa7"/>
      </g>
      <g id="Grupo_64054" data-name="Grupo 64054" transform="translate(23.062 37.476)">
        <path id="Trazado_112201" data-name="Trazado 112201" d="M27.931,22.957l.75,9.34H18.648a8.648,8.648,0,0,1,0-17.3h.663A8.642,8.642,0,0,1,27.931,22.957Z" transform="translate(-10 -15)" fill="#fcd770"/>
      </g>
      <g id="Grupo_64055" data-name="Grupo 64055" transform="translate(51.89 40.359)">
        <path id="Trazado_112202" data-name="Trazado 112202" d="M43.062,27.531V39.062L29.859,34.1,22.71,31.423a4.4,4.4,0,0,1-1.557-1.009,4.161,4.161,0,0,1,1.557-6.775L43.062,16Z" transform="translate(-20 -16)" fill="#aab2bd"/>
      </g>
      <g id="Grupo_64056" data-name="Grupo 64056" transform="translate(74.953 51.89)">
        <path id="Trazado_112203" data-name="Trazado 112203" d="M75.653,28.187c.173.432.317.836.519,1.24l-1.067,2.1H28V20H68.359v5.766Z" transform="translate(-28 -20)" fill="#ff826e"/>
      </g>
      <g id="Grupo_64057" data-name="Grupo 64057" transform="translate(74.953 40.359)">
        <path id="Trazado_112204" data-name="Trazado 112204" d="M75.1,16l1.067,2.1c-.2.4-.346.807-.519,1.24l-7.293,2.422v5.766H28V16H75.1Z" transform="translate(-28 -16)" fill="#b4dd7f"/>
      </g>
      <g id="Grupo_64058" data-name="Grupo 64058" transform="translate(115.312 23.062)">
        <path id="Trazado_112205" data-name="Trazado 112205" d="M99.656,33.062V44.594l-7.293,2.422c-.173.432-.317.836-.519,1.24l3.459,6.89L87.145,63.3l-6.89-3.459c-.4.2-.807.346-1.24.519l-2.422,7.293H65.062l-2.422-7.293c-.432-.173-.836-.317-1.24-.519L54.511,63.3l-8.158-8.158,2.393-4.785,1.067-2.1c-.2-.4-.346-.807-.519-1.24L42,44.594V33.062l7.293-2.422c.173-.432.317-.836.519-1.24l-1.067-2.1-2.393-4.785,8.158-8.158,6.89,3.459c.4-.2.807-.346,1.24-.519L65.062,10H76.594l2.422,7.293c.432.173.836.317,1.24.519l6.89-3.459L95.3,22.511,91.844,29.4c.2.4.346.807.519,1.24Zm-17.3,5.766A11.531,11.531,0,1,0,70.828,50.359,11.528,11.528,0,0,0,82.359,38.828Z" transform="translate(-42 -10)" fill="#fcd770"/>
      </g>
    </g>
    <g id="Grupo_64060" data-name="Grupo 64060" transform="translate(0.557 1)">
      <path id="Trazado_112206" data-name="Trazado 112206" d="M26,57H43.3v5.766H26Z" transform="translate(47.347 104.437)" fill="#47286d"/>
      <path id="Trazado_112207" data-name="Trazado 112207" d="M180.567,47.929l-7.077-2.361,3.335-6.671L165.733,27.8l-6.674,3.338-2.358-7.08H141.016l-2.358,7.08L131.984,27.8,120.891,38.9l1.228,2.462H109.573A54.319,54.319,0,0,0,57.311,1H55.9A54.067,54.067,0,0,0,24.9,99.361a13.529,13.529,0,0,1,5.766,11.073v.112H11.367L.557,139.374h9.925v25.945A14.43,14.43,0,0,0,24.9,179.733H88.318a14.43,14.43,0,0,0,14.414-14.414V139.374h9.925l-10.81-28.828H82.552v-.11a13.529,13.529,0,0,1,5.766-11.073,54,54,0,0,0,20.848-29.177h12.952l-1.231,2.462,11.093,11.093,6.674-3.338,2.358,7.08H156.7l2.358-7.08,6.674,3.338,11.093-11.093-3.335-6.671,7.08-2.361ZM53.5,110.546,49.582,61.539h7.175a7.023,7.023,0,0,0,1.534.83l5.117,1.92-3.7,46.257Zm6.815-53.577a1.278,1.278,0,0,1,0-2.393L76.787,48.4V63.144Zm22.235,1.686h34.594v4.961l2.413.8H82.552Zm34.594-10.727V52.89H82.552V47.125h37.006ZM28.2,94.639A48.3,48.3,0,0,1,55.9,6.766h1.407a48.556,48.556,0,0,1,46.306,34.594H79.145L58.3,49.177a7.078,7.078,0,0,0-4.572,6.6h-4.6l-.536-6.685A11.59,11.59,0,0,0,37.091,38.476h-.663a11.531,11.531,0,1,0,0,23.062H43.8l3.921,49.008H36.428v-.11a19.291,19.291,0,0,0-8.228-15.8ZM43.335,55.773H36.428a5.766,5.766,0,1,1,0-11.531h.663a5.8,5.8,0,0,1,5.745,5.3ZM15.363,116.312H46.679l-6.486,17.3H8.877Zm.885,49.008V139.374H44.191l6.651-17.732v52.326H24.9A8.659,8.659,0,0,1,16.248,165.319Zm80.718,0a8.659,8.659,0,0,1-8.648,8.648H56.607V121.642l6.651,17.732H96.966Zm7.371-31.711H67.253l-6.486-17.3H97.849ZM85.014,94.639a19.291,19.291,0,0,0-8.228,15.8v.11H65.495l3.531-44.153,10.119,3.794h24.017A48.265,48.265,0,0,1,85.014,94.639ZM174.8,59.46l-6.613,2.205-.487,1.271c-.144.369-.288.735-.447,1.093l-.559,1.248,3.116,6.233L164.6,76.725l-6.233-3.116-1.248.559c-.355.159-.715.3-1.081.441l-1.283.484-2.208,6.625h-7.377l-2.208-6.625-1.283-.484c-.366-.138-.726-.283-1.081-.441l-1.248-.559-6.233,3.116L127.9,71.51l3.116-6.233-.559-1.248c-.161-.36-.3-.724-.447-1.093l-.487-1.271-6.61-2.205V52.083l6.613-2.205.487-1.271c.144-.369.288-.735.447-1.093l.559-1.248L127.9,40.033l5.215-5.215,6.233,3.116,1.248-.559c.355-.159.715-.3,1.081-.441l1.283-.484,2.208-6.622h7.377l2.208,6.625,1.283.484c.366.138.726.283,1.081.441l1.248.559,6.233-3.116,5.215,5.215L166.7,46.269l.559,1.248c.161.36.3.724.447,1.093l.487,1.271,6.61,2.205Z" transform="translate(-0.557 -1)" fill="#47286d"/>
      <path id="Trazado_112208" data-name="Trazado 112208" d="M61.414,15A14.414,14.414,0,1,0,75.828,29.414,14.43,14.43,0,0,0,61.414,15Zm0,23.062a8.648,8.648,0,1,1,8.648-8.648A8.659,8.659,0,0,1,61.414,38.062Z" transform="translate(86.886 25.359)" fill="#47286d"/>
      <path id="Trazado_112209" data-name="Trazado 112209" d="M10.766,20H5a44.306,44.306,0,0,0,.435,6.172l5.708-.81A38.45,38.45,0,0,1,10.766,20Z" transform="translate(7.808 34.773)" fill="#47286d"/>
      <path id="Trazado_112210" data-name="Trazado 112210" d="M11.15,23.715,5.621,25.358a43.119,43.119,0,0,0,19.828,25.1l2.889-4.99A37.355,37.355,0,0,1,11.15,23.715Z" transform="translate(8.977 41.768)" fill="#47286d"/>
      <path id="Trazado_112211" data-name="Trazado 112211" d="M25,7h5.766v5.766H25Z" transform="translate(45.464 10.297)" fill="#47286d"/>
      <path id="Trazado_112212" data-name="Trazado 112212" d="M13,7h5.766v5.766H13Z" transform="translate(22.871 10.297)" fill="#47286d"/>
      <path id="Trazado_112213" data-name="Trazado 112213" d="M21,7h5.766v5.766H21Z" transform="translate(37.933 10.297)" fill="#47286d"/>
      <path id="Trazado_112214" data-name="Trazado 112214" d="M17,7h5.766v5.766H17Z" transform="translate(30.402 10.297)" fill="#47286d"/>
    </g>
  </g>
</svg>
