<svg xmlns="http://www.w3.org/2000/svg" width="89" height="89" viewBox="0 0 89 89">
  <g id="rinse" transform="translate(-1 -1)">
    <g id="Grupo_62946" data-name="Grupo 62946" transform="translate(2.435 2.435)">
      <g id="Grupo_62939" data-name="Grupo 62939" transform="translate(4.306 10.048)">
        <path id="Trazado_111255" data-name="Trazado 111255" d="M45.194,9v8.613H20.79a1.44,1.44,0,0,0-1.435,1.435V31.968h3.531A2.2,2.2,0,0,1,24.724,35.4l-7.45,11.168a2.673,2.673,0,0,1-4.45,0L5.373,35.4a2.2,2.2,0,0,1,1.837-3.431h3.531V16.177A7.18,7.18,0,0,1,17.919,9Z" transform="translate(-5 -9)" fill="#f17781"/>
      </g>
      <g id="Grupo_62940" data-name="Grupo 62940" transform="translate(41.629 37.323)">
        <path id="Trazado_111256" data-name="Trazado 111256" d="M70.82,40.36a2.2,2.2,0,0,1-1.837,3.431H65.452v15.79a7.18,7.18,0,0,1-7.177,7.177H31V58.145H55.4a1.44,1.44,0,0,0,1.435-1.435V43.79H53.307A2.2,2.2,0,0,1,51.47,40.36l7.45-11.168a2.673,2.673,0,0,1,4.45,0Z" transform="translate(-31 -28)" fill="#f17781"/>
      </g>
      <g id="Grupo_62941" data-name="Grupo 62941" transform="translate(38.758 53.113)">
        <path id="Trazado_111257" data-name="Trazado 111257" d="M37.613,39v2.871a2.879,2.879,0,0,1-2.871,2.871H31.871A2.879,2.879,0,0,1,29,41.871V39h8.613Z" transform="translate(-29 -39)" fill="#aab2bd"/>
      </g>
      <g id="Grupo_62942" data-name="Grupo 62942" transform="translate(31.583 27.272)">
        <path id="Trazado_111258" data-name="Trazado 111258" d="M39.79,45.705v1.134H31.177V45.763a4.251,4.251,0,0,0-1.866-3.6,11.481,11.481,0,1,1,12.374-.014A4.2,4.2,0,0,0,39.79,45.705Z" transform="translate(-24.002 -20.998)" fill="#f9e478"/>
      </g>
      <g id="Grupo_62943" data-name="Grupo 62943" transform="translate(0 57.419)">
        <path id="Trazado_111259" data-name="Trazado 111259" d="M30.71,53.484v5.742l-3.632,1.206c-.086.215-.158.416-.258.617l1.723,3.431L24.48,68.542,21.049,66.82c-.2.1-.4.172-.617.258L19.226,70.71H13.484l-1.206-3.632c-.215-.086-.416-.158-.617-.258L8.23,68.542,4.168,64.48,5.89,61.049c-.1-.2-.172-.4-.258-.617L2,59.226V53.484l3.632-1.206c.086-.215.158-.416.258-.617L4.168,48.23,8.23,44.168l3.431,1.723c.2-.1.4-.172.617-.258L13.484,42h5.742l1.206,3.632c.215.086.416.158.617.258l3.431-1.723,4.062,4.062L26.82,51.661c.1.2.172.4.258.617ZM22.1,56.355A5.742,5.742,0,1,0,16.355,62.1,5.74,5.74,0,0,0,22.1,56.355Z" transform="translate(-2 -42)" fill="#31d9e7"/>
      </g>
      <g id="Grupo_62944" data-name="Grupo 62944" transform="translate(57.419 0)">
        <path id="Trazado_111260" data-name="Trazado 111260" d="M70.71,13.484v5.742l-3.632,1.206c-.086.215-.158.416-.258.617l1.723,3.431L64.48,28.542,61.049,26.82c-.2.1-.4.172-.617.258L59.226,30.71H53.484l-1.206-3.632c-.215-.086-.416-.158-.617-.258L48.23,28.542,44.168,24.48l1.723-3.431c-.1-.2-.172-.4-.258-.617L42,19.226V13.484l3.632-1.206c.086-.215.158-.416.258-.617L44.168,8.23,48.23,4.168,51.661,5.89c.2-.1.4-.172.617-.258L53.484,2h5.742l1.206,3.632c.215.086.416.158.617.258L64.48,4.168,68.542,8.23,66.82,11.661c.1.2.172.4.258.617ZM62.1,16.355A5.742,5.742,0,1,0,56.355,22.1,5.74,5.74,0,0,0,62.1,16.355Z" transform="translate(-42 -2)" fill="#31d9e7"/>
      </g>
      <g id="Grupo_62945" data-name="Grupo 62945" transform="translate(40.194 35.887)">
        <ellipse id="Elipse_4769" data-name="Elipse 4769" cx="2.5" cy="3" rx="2.5" ry="3" transform="translate(0.371 -0.323)" fill="#fcd770"/>
      </g>
    </g>
    <g id="Grupo_62947" data-name="Grupo 62947" transform="translate(1 1)">
      <path id="Trazado_111261" data-name="Trazado 111261" d="M72.581,12.884,69.055,11.71l1.662-3.323L65.194,2.863,61.871,4.526,60.7,1h-7.81L51.712,4.526,48.388,2.863,42.865,8.387l1.662,3.323L41,12.884v7.81l3.526,1.174-1.662,3.323,5.524,5.524,3.323-1.662,1.174,3.527h7.81l1.174-3.526,3.323,1.662,5.524-5.524-1.662-3.323L72.581,20.7ZM69.71,18.626l-3.3,1.1-.241.636c-.07.185-.144.365-.221.543l-.278.622,1.552,3.1-2.6,2.6-3.1-1.552-.622.278c-.178.079-.357.151-.543.221l-.636.241-1.1,3.3H54.953l-1.1-3.3-.636-.241c-.185-.07-.365-.144-.543-.221l-.622-.278-3.1,1.552-2.6-2.6,1.552-3.1-.278-.622c-.079-.178-.151-.357-.221-.543l-.241-.636-3.294-1.1V14.953l3.3-1.1.241-.636c.07-.185.144-.365.221-.543l.278-.622-1.552-3.1,2.6-2.6,3.1,1.552.622-.278c.178-.079.357-.151.543-.221l.636-.241,1.1-3.3h3.673l1.1,3.3.636.241c.185.07.365.144.543.221l.622.278,3.1-1.552,2.6,2.6-1.552,3.1.278.622c.079.178.151.357.221.543l.241.636,3.294,1.1Z" transform="translate(16.419 -1)" fill="#47286d"/>
      <path id="Trazado_111262" data-name="Trazado 111262" d="M54.177,7a7.177,7.177,0,1,0,7.177,7.177A7.186,7.186,0,0,0,54.177,7Zm0,11.484a4.306,4.306,0,1,1,4.306-4.306A4.312,4.312,0,0,1,54.177,18.484Z" transform="translate(19.032 1.613)" fill="#47286d"/>
      <path id="Trazado_111263" data-name="Trazado 111263" d="M30.717,48.387l-5.524-5.524-3.323,1.662L20.7,41H12.884L11.71,44.526,8.387,42.863,2.863,48.387,4.526,51.71,1,52.884v7.81l3.526,1.174L2.863,65.192l5.524,5.524,3.323-1.662,1.174,3.527h7.81l1.174-3.526,3.323,1.662,5.524-5.524-1.662-3.323L32.581,60.7v-7.81l-3.526-1.174ZM29.71,54.954v3.673l-3.3,1.1-.241.636c-.07.185-.144.365-.221.543l-.278.622,1.552,3.1-2.6,2.6-3.1-1.552-.622.278c-.178.079-.357.151-.543.221l-.636.241-1.1,3.294H14.953l-1.1-3.3-.636-.241c-.185-.07-.365-.144-.543-.221l-.622-.278-3.1,1.552-2.6-2.6,1.552-3.1L7.629,60.9c-.079-.178-.151-.357-.221-.543l-.241-.636-3.3-1.1V54.953l3.3-1.1.241-.636c.07-.185.144-.365.221-.543l.278-.622-1.552-3.1,2.6-2.6,3.1,1.552.622-.278c.178-.079.357-.151.543-.221l.636-.241,1.1-3.3h3.673l1.1,3.3.636.241c.185.07.365.144.543.221l.622.278,3.1-1.552,2.6,2.6-1.552,3.1.278.622c.079.178.151.357.221.543l.241.636Z" transform="translate(-1 16.419)" fill="#47286d"/>
      <path id="Trazado_111264" data-name="Trazado 111264" d="M14.177,47a7.177,7.177,0,1,0,7.177,7.177A7.186,7.186,0,0,0,14.177,47Zm0,11.484a4.306,4.306,0,1,1,4.306-4.306A4.312,4.312,0,0,1,14.177,58.484Z" transform="translate(1.613 19.032)" fill="#47286d"/>
      <path id="Trazado_111265" data-name="Trazado 111265" d="M30.178,46.2v3.948a4.312,4.312,0,0,0,4.306,4.306h2.871a4.312,4.312,0,0,0,4.306-4.306V46.139A2.765,2.765,0,0,1,42.9,43.785a12.921,12.921,0,1,0-13.928.02A2.821,2.821,0,0,1,30.178,46.2Zm7.177,5.383H34.484a1.436,1.436,0,0,1-1.435-1.435V48.71H38.79v1.435A1.436,1.436,0,0,1,37.355,51.581ZM34.484,32.919a1.435,1.435,0,1,1,1.435,1.435A1.436,1.436,0,0,1,34.484,32.919ZM25.957,31.59a10.083,10.083,0,0,1,8.785-8.652,10.412,10.412,0,0,1,1.19-.069,9.93,9.93,0,0,1,6.678,2.552A10.043,10.043,0,0,1,41.347,41.37a5.6,5.6,0,0,0-2.538,4.469H37.355V36.962a4.306,4.306,0,1,0-2.871,0v8.877H33.027a5.6,5.6,0,0,0-2.511-4.454,10.007,10.007,0,0,1-4.559-9.794Z" transform="translate(8.58 7.274)" fill="#47286d"/>
      <path id="Trazado_111266" data-name="Trazado 111266" d="M64.572,28.833a4.119,4.119,0,0,0-6.853,0L50.271,40A3.641,3.641,0,0,0,53.3,45.661h2.1V57.145H31v2.871H55.4a2.874,2.874,0,0,0,2.871-2.871V42.79H53.3a.768.768,0,0,1-.639-1.194l7.447-11.169a1.293,1.293,0,0,1,2.074,0L69.63,41.6a.76.76,0,0,1,.129.426.771.771,0,0,1-.769.768H64.016V60.016a5.748,5.748,0,0,1-5.742,5.742H31v2.871H58.274a8.622,8.622,0,0,0,8.613-8.613V45.661h2.1A3.638,3.638,0,0,0,72.018,40Z" transform="translate(12.065 10.323)" fill="#47286d"/>
      <path id="Trazado_111267" data-name="Trazado 111267" d="M27,54h2.871v2.871H27Z" transform="translate(10.323 22.081)" fill="#47286d"/>
      <path id="Trazado_111268" data-name="Trazado 111268" d="M12.057,47.8a4.119,4.119,0,0,0,6.853,0l7.447-11.17a3.641,3.641,0,0,0-3.029-5.659h-2.1V19.484h24.4V16.613h-24.4a2.874,2.874,0,0,0-2.871,2.871V33.839h4.974a.768.768,0,0,1,.639,1.194L16.52,46.2a1.293,1.293,0,0,1-2.074,0L7,35.033a.76.76,0,0,1-.129-.426.769.769,0,0,1,.768-.768h4.974V16.613a5.748,5.748,0,0,1,5.742-5.742H45.629V8H18.355a8.622,8.622,0,0,0-8.613,8.613V30.968h-2.1a3.638,3.638,0,0,0-3.027,5.657Z" transform="translate(0.306 2.048)" fill="#47286d"/>
      <path id="Trazado_111269" data-name="Trazado 111269" d="M35,8h2.871v2.871H35Z" transform="translate(13.806 2.048)" fill="#47286d"/>
    </g>
  </g>
</svg>
