<svg xmlns="http://www.w3.org/2000/svg" width="208" height="182.398" viewBox="0 0 208 182.398">
  <g id="Grupo_57042" data-name="Grupo 57042" transform="translate(-29.229 -40.684)">
    <g id="Background_Complete" data-name="Background Complete" transform="translate(36.767 40.683)">
      <g id="Grupo_56753" data-name="Grupo 56753" transform="translate(98.77 131.658)">
        <g id="Grupo_56727" data-name="Grupo 56727">
          <g id="Grupo_56726" data-name="Grupo 56726">
            <g id="Grupo_56725" data-name="Grupo 56725">
              <g id="Grupo_56724" data-name="Grupo 56724">
                <path id="Trazado_103784" data-name="Trazado 103784" d="M262.909,396.175c-7.424-3.515-10.386-11.87-11.433-19.654-.175-1.3-.547-2.637-.124-3.874a2.668,2.668,0,0,1,2.974-1.906c1.036.289,1.643,1.335,2.336,2.166a7.663,7.663,0,0,0,3.519,2.381,2.919,2.919,0,0,0,2.693-.208c1.011-.8.881-2.365.656-3.649q-.631-3.589-1.26-7.176a12.133,12.133,0,0,1-.258-3.882,4.042,4.042,0,0,1,2.049-3.118,2.451,2.451,0,0,1,3.266,1.114,12.036,12.036,0,0,1,.307,1.594,1.37,1.37,0,0,0,1.006,1.138c.538.064.991-.387,1.311-.828a17.321,17.321,0,0,0,2.284-5.149,24.03,24.03,0,0,1,2.052-5.262,7.047,7.047,0,0,1,4.261-3.437,4.219,4.219,0,0,1,4.746,2.116c.773,1.733.027,3.749-.875,5.41a29.087,29.087,0,0,1-5.009,6.7,2.4,2.4,0,0,0-.817,1.243c-.134.9.821,1.617,1.715,1.755a15.048,15.048,0,0,0,3.056-.17,2.93,2.93,0,0,1,2.721,1.089c.749,1.224-.117,2.787-1.045,3.871a24.918,24.918,0,0,1-6.561,5.427,8.4,8.4,0,0,0-2.48,1.77,2.412,2.412,0,0,0-.3,2.853,2.455,2.455,0,0,0,2.8.566,17.37,17.37,0,0,0,2.637-1.554c1.653-.965,3.954-1.229,5.343.106a4.124,4.124,0,0,1,1.041,3.522,9.506,9.506,0,0,1-1.41,3.5,25.055,25.055,0,0,1-9.295,9.2c-3.855,2.113-7.586,3.14-11.908,2.34" transform="translate(-251.157 -346.316)" fill="#f5f5f5"/>
              </g>
            </g>
          </g>
        </g>
        <g id="Grupo_56732" data-name="Grupo 56732" transform="translate(12.929 0.776)">
          <g id="Grupo_56731" data-name="Grupo 56731">
            <g id="Grupo_56730" data-name="Grupo 56730">
              <g id="Grupo_56729" data-name="Grupo 56729">
                <g id="Grupo_56728" data-name="Grupo 56728">
                  <path id="Trazado_103785" data-name="Trazado 103785" d="M281.17,392.01a116.861,116.861,0,0,1,2.473-13.168l.826-3.418c.274-1.121.544-2.234.877-3.3a58.419,58.419,0,0,1,2.263-6.046c.813-1.889,1.653-3.651,2.451-5.293s1.577-3.157,2.344-4.508a46.229,46.229,0,0,1,4.086-6.1c.537-.68.971-1.194,1.269-1.538l.342-.389a1.013,1.013,0,0,1,.123-.127.931.931,0,0,1-.1.143l-.324.4c-.286.355-.708.877-1.233,1.565a48.944,48.944,0,0,0-4.011,6.127c-.755,1.353-1.52,2.869-2.312,4.511s-1.622,3.407-2.427,5.293a59.071,59.071,0,0,0-2.241,6.028c-.329,1.066-.6,2.168-.87,3.292l-.824,3.417a119.687,119.687,0,0,0-2.487,13.139" transform="translate(-281.17 -348.117)" fill="#e0e0e0"/>
                </g>
              </g>
            </g>
          </g>
        </g>
        <g id="Grupo_56737" data-name="Grupo 56737" transform="translate(12.901 10.939)">
          <g id="Grupo_56736" data-name="Grupo 56736">
            <g id="Grupo_56735" data-name="Grupo 56735">
              <g id="Grupo_56734" data-name="Grupo 56734">
                <g id="Grupo_56733" data-name="Grupo 56733">
                  <path id="Trazado_103786" data-name="Trazado 103786" d="M285.376,385.528a2.653,2.653,0,0,1-.218-.527c-.128-.344-.3-.846-.494-1.471-.4-1.249-.889-2.992-1.423-4.915s-1.048-3.656-1.465-4.895c-.206-.62-.378-1.12-.5-1.465a2.64,2.64,0,0,1-.166-.545,2.548,2.548,0,0,1,.253.511c.15.334.347.828.574,1.442.459,1.229,1,2.96,1.535,4.886l1.355,4.931c.166.592.308,1.091.42,1.491A2.606,2.606,0,0,1,285.376,385.528Z" transform="translate(-281.106 -371.71)" fill="#e0e0e0"/>
                </g>
              </g>
            </g>
          </g>
        </g>
        <g id="Grupo_56742" data-name="Grupo 56742" transform="translate(17.171 18.871)">
          <g id="Grupo_56741" data-name="Grupo 56741">
            <g id="Grupo_56740" data-name="Grupo 56740">
              <g id="Grupo_56739" data-name="Grupo 56739">
                <g id="Grupo_56738" data-name="Grupo 56738">
                  <path id="Trazado_103787" data-name="Trazado 103787" d="M307.014,390.128a3.6,3.6,0,0,1-.646.19c-.417.109-1.022.265-1.764.48-1.485.419-3.517,1.07-5.727,1.886s-4.177,1.648-5.582,2.288c-.706.315-1.269.585-1.661.77a3.586,3.586,0,0,1-.618.267,3.567,3.567,0,0,1,.576-.351c.379-.21.933-.5,1.631-.841,1.391-.681,3.356-1.537,5.571-2.36a59.067,59.067,0,0,1,5.765-1.824c.75-.195,1.362-.325,1.788-.406A3.608,3.608,0,0,1,307.014,390.128Z" transform="translate(-291.018 -390.124)" fill="#e0e0e0"/>
                </g>
              </g>
            </g>
          </g>
        </g>
        <g id="Grupo_56747" data-name="Grupo 56747" transform="translate(1.194 24.64)">
          <g id="Grupo_56746" data-name="Grupo 56746">
            <g id="Grupo_56745" data-name="Grupo 56745">
              <g id="Grupo_56744" data-name="Grupo 56744">
                <g id="Grupo_56743" data-name="Grupo 56743">
                  <path id="Trazado_103788" data-name="Trazado 103788" d="M265.815,423.206a.859.859,0,0,1-.147-.182l-.383-.55c-.331-.479-.792-1.184-1.35-2.063-1.117-1.758-2.584-4.234-4.166-6.988s-3.024-5.242-4.1-7.02l-1.284-2.1-.346-.574a.857.857,0,0,1-.107-.21.9.9,0,0,1,.147.183l.383.549c.331.479.792,1.185,1.35,2.063,1.117,1.758,2.584,4.234,4.166,6.99s3.023,5.241,4.1,7.019l1.284,2.1.346.574A.858.858,0,0,1,265.815,423.206Z" transform="translate(-253.928 -403.515)" fill="#e0e0e0"/>
                </g>
              </g>
            </g>
          </g>
        </g>
        <g id="Grupo_56752" data-name="Grupo 56752" transform="translate(13.08 33.541)">
          <g id="Grupo_56751" data-name="Grupo 56751">
            <g id="Grupo_56750" data-name="Grupo 56750">
              <g id="Grupo_56749" data-name="Grupo 56749">
                <g id="Grupo_56748" data-name="Grupo 56748">
                  <path id="Trazado_103789" data-name="Trazado 103789" d="M302.276,424.181a.89.89,0,0,1-.2.127l-.6.321-2.221,1.16c-1.876.98-4.451,2.362-7.295,3.893s-5.435,2.892-7.332,3.833c-.948.471-1.719.844-2.257,1.091l-.621.281a.873.873,0,0,1-.224.083.917.917,0,0,1,.2-.127l.6-.321,2.221-1.16c1.876-.979,4.451-2.362,7.3-3.894s5.434-2.892,7.33-3.833c.948-.471,1.719-.844,2.258-1.091l.621-.281A.887.887,0,0,1,302.276,424.181Z" transform="translate(-281.522 -424.179)" fill="#e0e0e0"/>
                </g>
              </g>
            </g>
          </g>
        </g>
      </g>
      <g id="Grupo_56777" data-name="Grupo 56777" transform="translate(44.336 88.935)">
        <g id="Grupo_56755" data-name="Grupo 56755">
          <g id="Grupo_56754" data-name="Grupo 56754">
            <path id="Trazado_103790" data-name="Trazado 103790" d="M144.367,247.256s-5.118.711-2.245,11.921a133.984,133.984,0,0,0,5.311,16.988s.386,2.539-1.661,2.461-6.22-1.74-7.635.468c-1.468,2.291-.185,5.051,3.026,7.94s10.012,9.477,10.624,10.075,1.058,1.831-.345,2-11.366-1-11.638,3.762,9.994,11.34,11.1,12.08,1.283,1.32,1.035,1.964-3.56-.065-6.407-.281-6.187.031-6.113,2.791,5.463,9.734,21.189,14.919l7.444,1.926,5.5-5.419c11.07-12.315,12.282-21.045,10.974-23.477s-4.329-.987-6.692.616-4.885,3.863-5.42,3.428-.672-1.025-.078-2.219,6.233-12,3.631-16S165.3,295.168,164,295.718s-1.524-.756-1.294-1.565c.234-.824,2.863-9.92,4.213-14.023s1.093-7.135-1.319-8.393c-2.326-1.213-5.122,2.3-6.859,3.388s-2.664-1.31-2.664-1.31a133.924,133.924,0,0,0-3.833-17.38c-3.077-11.156-7.983-9.157-7.983-9.157" transform="translate(-137.532 -247.138)" fill="#ebebeb"/>
          </g>
        </g>
        <g id="Grupo_56758" data-name="Grupo 56758" transform="translate(9.391 10.161)">
          <g id="Grupo_56757" data-name="Grupo 56757">
            <g id="Grupo_56756" data-name="Grupo 56756">
              <path id="Trazado_103791" data-name="Trazado 103791" d="M180.455,351.548c-2.228-8.2-5.941-22.846-9.2-35.4s-6.209-23.913-8.394-32.126l-2.6-9.723-.7-2.644c-.076-.3-.135-.525-.177-.69s-.053-.237-.053-.237.03.077.076.23l.2.683.748,2.632c.647,2.287,1.56,5.6,2.672,9.7,2.228,8.2,5.209,19.558,8.462,32.109s6.942,27.206,9.128,35.418" transform="translate(-159.332 -270.726)" fill="#e0e0e0"/>
            </g>
          </g>
        </g>
        <g id="Grupo_56761" data-name="Grupo 56761" transform="translate(6.348 34.514)">
          <g id="Grupo_56760" data-name="Grupo 56760">
            <g id="Grupo_56759" data-name="Grupo 56759">
              <path id="Trazado_103792" data-name="Trazado 103792" d="M152.269,327.26a2.5,2.5,0,0,1,.49.263c.308.181.746.457,1.284.8,1.074.692,2.533,1.686,4.123,2.812l4.06,2.9,1.235.869a2.511,2.511,0,0,1,.442.338,2.466,2.466,0,0,1-.492-.259c-.308-.182-.746-.457-1.28-.808-1.067-.7-2.513-1.716-4.1-2.841l-4.079-2.866-1.24-.864A2.507,2.507,0,0,1,152.269,327.26Z" transform="translate(-152.268 -327.259)" fill="#e0e0e0"/>
            </g>
          </g>
        </g>
        <g id="Grupo_56764" data-name="Grupo 56764" transform="translate(18.602 28.42)">
          <g id="Grupo_56763" data-name="Grupo 56763">
            <g id="Grupo_56762" data-name="Grupo 56762">
              <path id="Trazado_103793" data-name="Trazado 103793" d="M180.716,326.823c-.056-.036,1.861-3.134,4.279-6.92s4.426-6.827,4.481-6.791-1.86,3.133-4.28,6.92S180.772,326.859,180.716,326.823Z" transform="translate(-180.715 -313.112)" fill="#e0e0e0"/>
            </g>
          </g>
        </g>
        <g id="Grupo_56767" data-name="Grupo 56767" transform="translate(22.73 51.721)">
          <g id="Grupo_56766" data-name="Grupo 56766">
            <g id="Grupo_56765" data-name="Grupo 56765">
              <path id="Trazado_103794" data-name="Trazado 103794" d="M190.3,377.117a2.58,2.58,0,0,1,.408-.395l1.161-1.016c.979-.859,2.326-2.051,3.764-3.421s2.7-2.65,3.609-3.585l1.074-1.108a2.622,2.622,0,0,1,.414-.388,2.559,2.559,0,0,1-.345.451c-.235.28-.581.678-1.02,1.16-.876.967-2.122,2.272-3.568,3.643s-2.811,2.549-3.82,3.377c-.506.412-.919.74-1.211.959A2.583,2.583,0,0,1,190.3,377.117Z" transform="translate(-190.297 -367.203)" fill="#e0e0e0"/>
            </g>
          </g>
        </g>
        <g id="Grupo_56770" data-name="Grupo 56770" transform="translate(10.129 57.183)">
          <g id="Grupo_56769" data-name="Grupo 56769">
            <g id="Grupo_56768" data-name="Grupo 56768">
              <path id="Trazado_103795" data-name="Trazado 103795" d="M161.047,379.886a2.239,2.239,0,0,1,.51.124l1.363.422c1.148.366,2.728.887,4.468,1.476s3.313,1.136,4.446,1.543l1.338.493a2.252,2.252,0,0,1,.481.212,2.236,2.236,0,0,1-.51-.124l-1.363-.422c-1.148-.366-2.728-.887-4.469-1.477S164,381,162.866,380.592l-1.338-.494A2.2,2.2,0,0,1,161.047,379.886Z" transform="translate(-161.047 -379.883)" fill="#e0e0e0"/>
            </g>
          </g>
        </g>
        <g id="Grupo_56773" data-name="Grupo 56773" transform="translate(11.585 74.865)">
          <g id="Grupo_56772" data-name="Grupo 56772">
            <g id="Grupo_56771" data-name="Grupo 56771">
              <path id="Trazado_103796" data-name="Trazado 103796" d="M164.426,420.933a3.561,3.561,0,0,1,.651.165l1.749.534c1.473.46,3.5,1.113,5.741,1.847s4.261,1.412,5.721,1.914l1.725.606a3.619,3.619,0,0,1,.622.253,3.662,3.662,0,0,1-.651-.165l-1.749-.534c-1.473-.461-3.5-1.113-5.743-1.847s-4.26-1.412-5.72-1.914l-1.725-.606A3.631,3.631,0,0,1,164.426,420.933Z" transform="translate(-164.426 -420.93)" fill="#e0e0e0"/>
            </g>
          </g>
        </g>
        <g id="Grupo_56776" data-name="Grupo 56776" transform="translate(27.443 67.013)">
          <g id="Grupo_56775" data-name="Grupo 56775">
            <g id="Grupo_56774" data-name="Grupo 56774">
              <path id="Trazado_103797" data-name="Trazado 103797" d="M201.238,415.64a4.12,4.12,0,0,1,.5-.513l1.426-1.341c1.2-1.134,2.857-2.706,4.636-4.493s3.35-3.443,4.478-4.651l1.337-1.43a4.2,4.2,0,0,1,.51-.507,4.115,4.115,0,0,1-.441.568c-.3.356-.732.864-1.282,1.482-1.1,1.238-2.65,2.918-4.434,4.706s-3.457,3.346-4.69,4.449c-.618.55-1.123.99-1.478,1.286A4.176,4.176,0,0,1,201.238,415.64Z" transform="translate(-201.238 -402.703)" fill="#e0e0e0"/>
            </g>
          </g>
        </g>
      </g>
      <g id="Grupo_56778" data-name="Grupo 56778" transform="translate(7.467 0)">
        <path id="Trazado_103798" data-name="Trazado 103798" d="M80.318,70.7l-4.2-1.312a3.742,3.742,0,0,1-4.789,2.449,3.563,3.563,0,0,1-2.617-3.2,3.946,3.946,0,0,1,1.362-3.311c1.08-.953,2.976-1.534,5.653-.151L78.68,55.7l-4.157-1.3-1.732,5.552a8.5,8.5,0,0,0-8.3,6.113C62.568,72.213,67.636,75.36,70,76.1,71.8,76.659,78.084,78.141,80.318,70.7Z" transform="translate(-64.062 -48.491)" fill="#f5f5f5"/>
        <rect id="Rectángulo_5777" data-name="Rectángulo 5777" width="4.419" height="4.127" transform="matrix(-0.955, -0.298, 0.298, -0.955, 15.239, 5.256)" fill="#f5f5f5"/>
      </g>
      <g id="Grupo_56779" data-name="Grupo 56779" transform="translate(38.752 7.423)">
        <path id="Trazado_103799" data-name="Trazado 103799" d="M128.515,62l1.683-.444a1.48,1.48,0,0,1,1.089-1.826,1.408,1.408,0,0,1,1.549.522,1.56,1.56,0,0,1,.24,1.395,1.889,1.889,0,0,1-1.861,1.238l1,3.8,1.664-.439-.586-2.223a3.363,3.363,0,0,0,1.5-3.793,3.129,3.129,0,0,0-3.953-2.2A2.987,2.987,0,0,0,128.515,62Z" transform="translate(-128.349 -57.916)" fill="#ebebeb"/>
        <rect id="Rectángulo_5778" data-name="Rectángulo 5778" width="1.747" height="1.632" transform="matrix(0.967, -0.255, 0.255, 0.967, 4.068, 9.547)" fill="#ebebeb"/>
      </g>
      <g id="Grupo_56780" data-name="Grupo 56780" transform="translate(191.722 52.898)">
        <path id="Trazado_103800" data-name="Trazado 103800" d="M451.543,165.689l1.637.593a1.48,1.48,0,0,1,1.936-.881,1.407,1.407,0,0,1,.976,1.31,1.56,1.56,0,0,1-.6,1.284,1.889,1.889,0,0,1-2.235-.041l-1.337,3.691,1.618.586.783-2.162a3.363,3.363,0,0,0,3.389-2.266,3.129,3.129,0,0,0-2-4.06A2.988,2.988,0,0,0,451.543,165.689Z" transform="translate(-451.086 -163.481)" fill="#ebebeb"/>
        <rect id="Rectángulo_5779" data-name="Rectángulo 5779" width="1.747" height="1.632" transform="translate(0.556 8.921) rotate(19.914)" fill="#ebebeb"/>
      </g>
      <g id="Grupo_56781" data-name="Grupo 56781" transform="translate(0 64.395)">
        <path id="Trazado_103801" data-name="Trazado 103801" d="M47.386,199.63l3.465-1.335a3.155,3.155,0,0,1,1.882-4.126,3,3,0,0,1,3.4.744,3.327,3.327,0,0,1,.834,2.9c-.215,1.2-1.163,2.572-3.656,3.06l3.009,7.812,3.426-1.32-1.763-4.576a7.169,7.169,0,0,0,2.287-8.388c-1.952-5.066-6.948-4.492-8.893-3.743C49.894,191.232,44.966,193.543,47.386,199.63Z" transform="translate(-46.729 -190.171)" fill="#f5f5f5"/>
        <rect id="Rectángulo_5780" data-name="Rectángulo 5780" width="3.726" height="3.48" transform="matrix(0.933, -0.359, 0.359, 0.933, 10.206, 20.127)" fill="#f5f5f5"/>
      </g>
      <g id="Grupo_56782" data-name="Grupo 56782" transform="translate(183.409 77.136)">
        <path id="Trazado_103802" data-name="Trazado 103802" d="M442.09,234.159l-2.455.946a2.236,2.236,0,0,1-1.334,2.924,2.129,2.129,0,0,1-2.412-.527,2.358,2.358,0,0,1-.591-2.056c.152-.847.824-1.823,2.591-2.169l-2.133-5.535-2.427.935,1.249,3.242a5.08,5.08,0,0,0-1.62,5.944c1.383,3.59,4.924,3.183,6.3,2.653C440.314,240.11,443.805,238.472,442.09,234.159Z" transform="translate(-431.974 -224.298)" fill="#f5f5f5"/>
        <rect id="Rectángulo_5781" data-name="Rectángulo 5781" width="2.64" height="2.466" transform="translate(3.35 2.301) rotate(158.931)" fill="#f5f5f5"/>
      </g>
    </g>
    <g id="Floor" transform="translate(29.229 222.826)">
      <g id="Grupo_56783" data-name="Grupo 56783">
        <path id="Trazado_103803" data-name="Trazado 103803" d="M237.229,463.623c0,.062-46.566.112-103.995.112-57.449,0-104.005-.05-104.005-.112s46.556-.112,104.005-.112C190.663,463.511,237.229,463.561,237.229,463.623Z" transform="translate(-29.229 -463.511)" fill="#263238"/>
      </g>
    </g>
    <g id="Plant" transform="translate(39.978 148.057)">
      <g id="Grupo_56809" data-name="Grupo 56809" transform="translate(0)">
        <g id="Grupo_56786" data-name="Grupo 56786" transform="translate(0 31.85)">
          <g id="Grupo_56785" data-name="Grupo 56785">
            <g id="Grupo_56784" data-name="Grupo 56784">
              <path id="Trazado_103804" data-name="Trazado 103804" d="M70.748,395.723c.409-1.584-.63-3.174-1.795-4.324s-2.556-2.179-3.162-3.7c-.981-2.462.338-5.65-1.337-7.7-.985-1.208-2.752-1.613-3.626-2.9a6.6,6.6,0,0,1-.787-2.307,23.435,23.435,0,0,0-5.828-10.905,20.339,20.339,0,0,0,2.287,10.51,13.366,13.366,0,0,1,1.736,3.992c.365,2.341-.941,4.752-.367,7.05.658,2.628,3.61,4.387,3.75,7.093.118,2.287-1.876,4.3-1.727,6.581a6.173,6.173,0,0,0,1.018,2.713c1.769,2.94,4.367,4.966,8.3,4.9l4.823.169Z" transform="translate(-54.182 -363.879)" fill="#e8505b"/>
            </g>
          </g>
        </g>
        <g id="Grupo_56790" data-name="Grupo 56790" transform="translate(0 31.85)" opacity="0.3">
          <g id="Grupo_56789" data-name="Grupo 56789">
            <g id="Grupo_56788" data-name="Grupo 56788">
              <g id="Grupo_56787" data-name="Grupo 56787">
                <path id="Trazado_103805" data-name="Trazado 103805" d="M70.748,395.723c.409-1.584-.63-3.174-1.795-4.324s-2.556-2.179-3.162-3.7c-.981-2.462.338-5.65-1.337-7.7-.985-1.208-2.752-1.613-3.626-2.9a6.6,6.6,0,0,1-.787-2.307,23.435,23.435,0,0,0-5.828-10.905,20.339,20.339,0,0,0,2.287,10.51,13.366,13.366,0,0,1,1.736,3.992c.365,2.341-.941,4.752-.367,7.05.658,2.628,3.61,4.387,3.75,7.093.118,2.287-1.876,4.3-1.727,6.581a6.173,6.173,0,0,0,1.018,2.713c1.769,2.94,4.367,4.966,8.3,4.9l4.823.169Z" transform="translate(-54.182 -363.879)"/>
              </g>
            </g>
          </g>
        </g>
        <g id="Grupo_56808" data-name="Grupo 56808" transform="translate(4.256)">
          <g id="Grupo_56799" data-name="Grupo 56799" transform="translate(14.132 15.281)">
            <g id="Grupo_56794" data-name="Grupo 56794">
              <g id="Grupo_56793" data-name="Grupo 56793">
                <g id="Grupo_56792" data-name="Grupo 56792">
                  <g id="Grupo_56791" data-name="Grupo 56791">
                    <path id="Trazado_103806" data-name="Trazado 103806" d="M99.312,385.119a3.854,3.854,0,0,0,1.328-.029,8.052,8.052,0,0,0,1.568-.395,6.645,6.645,0,0,0,1.936-1.06,2.7,2.7,0,0,0,.8-1.061,4.992,4.992,0,0,0,.227-1.441,13.925,13.925,0,0,1,.113-1.56,4.3,4.3,0,0,1,.589-1.551,11.8,11.8,0,0,0,1.818-3.3,10.923,10.923,0,0,0-.131-4.228,8.977,8.977,0,0,1,.112-4.531c.517-1.509,1.575-2.871,2.1-4.571.526-1.717.281-3.565.392-5.387a7.146,7.146,0,0,1,.628-2.679c.39-.854.932-1.659,1.354-2.558a18.738,18.738,0,0,0,1.241-5.895q.171-1.526.346-3.082a15.078,15.078,0,0,1,.536-3.085,27.156,27.156,0,0,1,1.154-2.985,9.9,9.9,0,0,0,.56-1.559,15.663,15.663,0,0,0,.156-1.659,19.534,19.534,0,0,0-.128-3.339c-.131-1.113-.332-2.217-.451-3.332l-.022-.193-.025-.222-.2.1a7.449,7.449,0,0,0-2.6,2.191,11.813,11.813,0,0,0-1.6,2.94,36.247,36.247,0,0,0-1.5,6.316,17.153,17.153,0,0,1-1.982,5.834c-.529.859-1.168,1.643-1.727,2.481a6.817,6.817,0,0,0-1.2,2.749c-.285,2.041.839,3.833.6,5.639a6.259,6.259,0,0,1-.88,2.5c-.438.771-.953,1.485-1.441,2.2A14.18,14.18,0,0,0,101.7,360.6a7.043,7.043,0,0,0-.593,2.418c-.118,1.627.113,3.17-.006,4.626a10.638,10.638,0,0,1-1.19,3.964c-.583,1.187-1.232,2.26-1.776,3.3a17,17,0,0,0-.731,1.537,7.568,7.568,0,0,0-.423,1.525,9.632,9.632,0,0,0-.035,2.753,6.938,6.938,0,0,0,1.38,3.511,3.366,3.366,0,0,0,.39.423,1.941,1.941,0,0,0,.317.269c.18.133.276.193.276.193a6.1,6.1,0,0,1-.934-.924,6.985,6.985,0,0,1-1.31-3.488,9.575,9.575,0,0,1,.062-2.713,7.447,7.447,0,0,1,.426-1.489,16.731,16.731,0,0,1,.736-1.517c.548-1.032,1.2-2.1,1.8-3.295a10.831,10.831,0,0,0,1.232-4.034c.127-1.488-.1-3.037.025-4.625a6.813,6.813,0,0,1,.582-2.337,13.949,13.949,0,0,1,1.28-2.181c.488-.713,1.009-1.431,1.459-2.218a6.513,6.513,0,0,0,.921-2.606c.233-1.925-.883-3.729-.593-5.625a6.545,6.545,0,0,1,1.156-2.629c.551-.822,1.194-1.608,1.738-2.488a17.413,17.413,0,0,0,2.028-5.931,36.049,36.049,0,0,1,1.492-6.264,11.524,11.524,0,0,1,1.553-2.863,7.144,7.144,0,0,1,2.487-2.1l-.222-.123c.007.061.015.128.022.194.121,1.129.323,2.235.452,3.335a19.258,19.258,0,0,1,.128,3.288,15.673,15.673,0,0,1-.149,1.609,9.677,9.677,0,0,1-.541,1.5,27.455,27.455,0,0,0-1.163,3.018,15.372,15.372,0,0,0-.543,3.136q-.173,1.557-.342,3.084a18.52,18.52,0,0,1-1.206,5.808c-.408.873-.948,1.681-1.35,2.563a7.431,7.431,0,0,0-.647,2.777c-.105,1.861.137,3.681-.366,5.33s-1.553,3.01-2.084,4.567a9.179,9.179,0,0,0-.1,4.644,10.789,10.789,0,0,1,.156,4.148,11.764,11.764,0,0,1-1.777,3.261,4.468,4.468,0,0,0-.6,1.613,13.9,13.9,0,0,0-.1,1.579,4.9,4.9,0,0,1-.206,1.4,2.586,2.586,0,0,1-.748,1.015,6.633,6.633,0,0,1-1.889,1.066,8.329,8.329,0,0,1-1.546.419,6.193,6.193,0,0,1-.981.095C99.427,385.115,99.312,385.119,99.312,385.119Z" transform="translate(-96.868 -325.415)" fill="#263238"/>
                  </g>
                </g>
              </g>
            </g>
            <g id="Grupo_56798" data-name="Grupo 56798" transform="translate(2.443 2.878)">
              <g id="Grupo_56797" data-name="Grupo 56797">
                <g id="Grupo_56796" data-name="Grupo 56796">
                  <g id="Grupo_56795" data-name="Grupo 56795">
                    <path id="Trazado_103807" data-name="Trazado 103807" d="M117.782,332.1a.576.576,0,0,0-.047.146l-.106.434c-.095.38-.208.954-.39,1.67s-.627,1.523-1,2.52-.784,2.134-1.146,3.421-.694,2.715-1.035,4.245a17.863,17.863,0,0,1-1.544,4.711c-.4.784-.841,1.577-1.194,2.444a11.38,11.38,0,0,0-.694,2.768,56,56,0,0,1-1.04,5.835c-.968,3.953-1.888,7.718-2.727,11.146-.859,3.416-1.633,6.495-2.286,9.09l-1.515,6.135q-.251,1.061-.4,1.672c-.038.177-.07.32-.1.436a.551.551,0,0,0-.022.152.577.577,0,0,0,.053-.143l.125-.43.453-1.657,1.61-6.111,2.35-9.073c.846-3.429,1.777-7.2,2.753-11.149a55.278,55.278,0,0,0,1.038-5.86,11.129,11.129,0,0,1,.669-2.7c.341-.845.779-1.634,1.175-2.426a18,18,0,0,0,1.54-4.784c.33-1.534.642-2.959,1-4.242s.725-2.428,1.1-3.418c.355-.993.778-1.811.956-2.55s.259-1.3.335-1.689c.031-.178.056-.324.076-.441A.562.562,0,0,0,117.782,332.1Z" transform="translate(-102.539 -332.097)" fill="#263238"/>
                  </g>
                </g>
              </g>
            </g>
          </g>
          <g id="Grupo_56807" data-name="Grupo 56807">
            <g id="Grupo_56802" data-name="Grupo 56802">
              <g id="Grupo_56801" data-name="Grupo 56801">
                <g id="Grupo_56800" data-name="Grupo 56800">
                  <path id="Trazado_103808" data-name="Trazado 103808" d="M81.49,364.941c3.151-1.873,4.055-7.557,2.741-10.979s-3.615-6.547-3.969-10.2c-.273-2.8.645-5.682-.008-8.423-.881-3.7-4.493-6.564-4.451-10.366.023-2.134,1.237-4.141,1.14-6.272-.118-2.614-2.125-4.689-3.368-6.991-1.9-3.525-2.027-7.692-2.678-11.645s-2.157-8.185-5.66-10.128c-.517,3.356-1.4,5.654-1.123,10.2.1,1.633,2,4.758,2.254,8.336.154,2.138.261,4.28.392,6.42a20.581,20.581,0,0,0,1.008,6.151c.572,1.493,1.491,2.849,1.916,4.391.8,2.9-.251,6.041.395,8.979.547,2.489,2.269,4.631,2.621,7.156.495,3.546-1.8,7.231-.626,10.614.583,1.679,1.964,3.027,2.356,4.76.3,1.345-.028,2.769.248,4.119.444,2.177,4.6,3.867,6.812,3.733" transform="translate(-64.062 -289.942)" fill="#e8505b"/>
                </g>
              </g>
            </g>
            <g id="Grupo_56806" data-name="Grupo 56806" transform="translate(2.042 3.331)">
              <g id="Grupo_56805" data-name="Grupo 56805">
                <g id="Grupo_56804" data-name="Grupo 56804">
                  <g id="Grupo_56803" data-name="Grupo 56803">
                    <path id="Trazado_103809" data-name="Trazado 103809" d="M68.8,297.675a.879.879,0,0,0,.014.189c.018.141.042.323.071.552.072.485.153,1.2.317,2.116s.653,1.967,1.033,3.223c.4,1.252.8,2.7,1.156,4.314s.66,3.406.976,5.331a22.342,22.342,0,0,0,1.615,6.028c.442,1.007.938,2.015,1.31,3.089a13.872,13.872,0,0,1,.664,3.4,68.681,68.681,0,0,0,.924,7.339l2.72,14.018L81.951,358.7l1.607,7.692.452,2.088c.052.224.093.4.125.542a.863.863,0,0,0,.053.182.859.859,0,0,0-.022-.189c-.024-.14-.056-.32-.1-.547-.094-.5-.227-1.2-.4-2.1-.361-1.842-.876-4.471-1.511-7.712l-2.28-11.431c-.829-4.309-1.739-9.044-2.7-14.014a69.608,69.608,0,0,1-.927-7.315,14.12,14.12,0,0,0-.687-3.472c-.383-1.1-.886-2.109-1.329-3.108a22.255,22.255,0,0,1-1.623-5.956c-.327-1.922-.641-3.716-1.016-5.336s-.785-3.068-1.2-4.32c-.4-1.26-.892-2.293-1.081-3.2s-.282-1.622-.373-2.1l-.1-.547A.827.827,0,0,0,68.8,297.675Z" transform="translate(-68.802 -297.675)" fill="#263238"/>
                  </g>
                </g>
              </g>
            </g>
          </g>
        </g>
      </g>
    </g>
    <g id="Speech_Bubble" data-name="Speech Bubble" transform="translate(200.174 46.455)">
      <g id="Grupo_56817" data-name="Grupo 56817" transform="translate(0 0)">
        <g id="Grupo_56810" data-name="Grupo 56810" transform="translate(9.396 7.154)">
          <path id="Trazado_103810" data-name="Trazado 103810" d="M412.987,81.654h-1.715a1.457,1.457,0,0,1-1.5,1.466,1.388,1.388,0,0,1-1.344-.886,1.537,1.537,0,0,1,.122-1.389,1.86,1.86,0,0,1,2.084-.712V76.267h-1.7v2.265a3.311,3.311,0,0,0-2.378,3.236,3.082,3.082,0,0,0,3.211,3.09A2.942,2.942,0,0,0,412.987,81.654Z" transform="translate(-406.565 -73.863)" fill="#e8505b"/>
          <rect id="Rectángulo_5782" data-name="Rectángulo 5782" width="1.721" height="1.607" transform="translate(4.078 1.607) rotate(180)" fill="#e8505b"/>
        </g>
        <g id="Grupo_56816" data-name="Grupo 56816">
          <g id="Grupo_56815" data-name="Grupo 56815">
            <g id="Grupo_56814" data-name="Grupo 56814">
              <g id="Grupo_56813" data-name="Grupo 56813">
                <g id="Grupo_56812" data-name="Grupo 56812">
                  <g id="Grupo_56811" data-name="Grupo 56811">
                    <path id="Trazado_103811" data-name="Trazado 103811" d="M409.963,66.731a1.221,1.221,0,0,0,0-.217c0-.158-.01-.369-.018-.638-.006-.14-.006-.3-.021-.47s-.051-.36-.079-.563l-.094-.656-.182-.733a11.876,11.876,0,0,0-1.55-3.555,12.544,12.544,0,0,0-9.429-5.762,12.951,12.951,0,0,0-1.719-.035c-.29.02-.586.015-.879.057l-.885.134a12.61,12.61,0,0,0-3.5,1.195,13.463,13.463,0,0,0-3.144,2.285,13.2,13.2,0,0,0-2.365,3.292,11.958,11.958,0,0,0-1.232,4.013,7.962,7.962,0,0,0-.091,1.07,9.639,9.639,0,0,0-.02,1.082,12.822,12.822,0,0,0,.274,2.167,12.666,12.666,0,0,0,1.815,4.314l-.013-.131-1.764,4.394-.1.26.271-.074,4.7-1.292-.116-.022a12.611,12.611,0,0,0,5.368,2.345,11.422,11.422,0,0,0,2.75.171,8.833,8.833,0,0,0,1.321-.125l.643-.1c.211-.04.416-.1.622-.154a12.568,12.568,0,0,0,7.147-4.9,12.012,12.012,0,0,0,1.539-2.918l.235-.657.159-.624.141-.571c.035-.183.054-.36.08-.526.042-.332.1-.624.112-.88s.016-.467.022-.646c0-.164.006-.294.009-.395a.6.6,0,0,0,0-.134.624.624,0,0,0-.018.134c-.008.1-.018.23-.031.392q-.017.267-.043.642c-.02.254-.084.543-.133.871a12.5,12.5,0,0,1-9.269,9.992c-.2.048-.4.111-.612.148l-.632.095a8.685,8.685,0,0,1-1.3.116,11.2,11.2,0,0,1-2.7-.178,12.38,12.38,0,0,1-5.252-2.312l-.053-.04-.063.017-4.7,1.282.166.186q.864-2.147,1.769-4.392l.028-.069-.041-.062a12.4,12.4,0,0,1-1.773-4.218,12.61,12.61,0,0,1-.268-2.118,9.418,9.418,0,0,1,.019-1.058,7.69,7.69,0,0,1,.088-1.046,11.7,11.7,0,0,1,1.2-3.924,12.963,12.963,0,0,1,2.308-3.224,13.232,13.232,0,0,1,3.072-2.244,12.39,12.39,0,0,1,3.423-1.182l.868-.134c.287-.043.577-.038.862-.059a12.385,12.385,0,0,1,11,5.64,11.951,11.951,0,0,1,1.577,3.5l.193.724.107.65q.05.3.092.557c.019.171.023.327.034.467.019.268.035.478.046.635A1.2,1.2,0,0,0,409.963,66.731Z" transform="translate(-384.752 -54.081)" fill="#263238"/>
                  </g>
                </g>
              </g>
            </g>
          </g>
        </g>
      </g>
    </g>
    <g id="Question_Mark" data-name="Question Mark" transform="translate(76.943 63.268)">
      <g id="Grupo_56826" data-name="Grupo 56826" transform="translate(0 0)">
        <g id="Grupo_56820" data-name="Grupo 56820">
          <g id="Grupo_56818" data-name="Grupo 56818" transform="translate(10.304)">
            <path id="Trazado_103812" data-name="Trazado 103812" d="M145.06,139.752h24.879s0-20.889,21.708-21.263c11.274-.194,17.119,7.191,19.494,12.848a22.291,22.291,0,0,1-1.772,20.15c-4.219,6.957-13.307,13.948-30.074,10.994l-.159,55.427h24.6V185.05s34.5-8.919,34.5-46.941c0-36.379-29.419-44.238-45.229-44.743-8.8-.281-11.988-.659-22.868.886C156.273,96.22,144.766,112.321,145.06,139.752Z" transform="translate(-145.054 -93.11)" fill="#f17781"/>
            <rect id="Rectángulo_5783" data-name="Rectángulo 5783" width="24.966" height="23.317" transform="translate(34.013 136.354)" fill="#f17781"/>
            <rect id="Rectángulo_5784" data-name="Rectángulo 5784" width="24.966" height="23.317" transform="translate(34.013 136.354)" fill="#f17781" opacity="0.1"/>
          </g>
          <g id="Grupo_56819" data-name="Grupo 56819" transform="translate(0 0.17)">
            <path id="Trazado_103814" data-name="Trazado 103814" d="M121.138,139.977h24.879s0-20.889,21.708-21.263c11.274-.194,17.119,7.191,19.494,12.848a22.293,22.293,0,0,1-1.772,20.15c-4.219,6.957-13.466,13.281-30.233,10.327v56.094h24.6V185.275s34.5-8.919,34.5-46.94c0-36.379-32.624-44.829-46.589-44.828C157.048,93.506,120.669,96.088,121.138,139.977Z" transform="translate(-121.134 -93.506)" fill="#b8424c"/>
            <rect id="Rectángulo_5785" data-name="Rectángulo 5785" width="24.966" height="23.317" transform="translate(34.012 136.183)" fill="#b8424c"/>
          </g>
        </g>
        <g id="Grupo_56821" data-name="Grupo 56821" transform="translate(24.734 25.241)">
          <path id="Trazado_103816" data-name="Trazado 103816" d="M203.219,151.959a2.308,2.308,0,0,1-.372-.023c-.243-.012-.6-.081-1.06-.086a21.676,21.676,0,0,0-3.9.162,27.952,27.952,0,0,0-5.632,1.325,24.036,24.036,0,0,0-3.138,1.35,16.683,16.683,0,0,0-3.068,1.988,15.219,15.219,0,0,0-2.511,2.653,24.547,24.547,0,0,0-4.11,8.187,21.544,21.544,0,0,0-.748,3.832c-.053.459-.067.818-.079,1.061a2.348,2.348,0,0,1-.034.371,2.283,2.283,0,0,1-.012-.372c0-.244,0-.6.038-1.067a19.94,19.94,0,0,1,.682-3.867,24.7,24.7,0,0,1,2.2-5.393,25.168,25.168,0,0,1,1.888-2.884,15.286,15.286,0,0,1,2.543-2.693,16.719,16.719,0,0,1,3.11-2.009,23.781,23.781,0,0,1,3.171-1.35,27.226,27.226,0,0,1,5.68-1.287,20.125,20.125,0,0,1,3.926-.091c.464.019.818.1,1.061.128A2.307,2.307,0,0,1,203.219,151.959Z" transform="translate(-178.552 -151.705)" fill="#263238"/>
        </g>
        <g id="Grupo_56822" data-name="Grupo 56822" transform="translate(44.884 0.179)">
          <path id="Trazado_103817" data-name="Trazado 103817" d="M267.329,114.4a.524.524,0,0,1-.081-.1l-.218-.3-.818-1.162c-.18-.251-.367-.538-.593-.837l-.777-.943-.891-1.083c-.324-.376-.7-.742-1.079-1.144s-.77-.826-1.207-1.239l-1.391-1.257c-.242-.215-.479-.445-.737-.657l-.8-.631c-.547-.421-1.09-.88-1.682-1.3a53.854,53.854,0,0,0-8.152-4.814l-2.27-1.027-2.256-.875c-.733-.3-1.483-.52-2.207-.76s-1.43-.488-2.141-.654l-2.06-.541c-.668-.177-1.332-.282-1.965-.42-.637-.119-1.245-.277-1.842-.352l-1.713-.248c-1.088-.187-2.088-.224-2.959-.312-.437-.034-.843-.081-1.217-.1l-1.026-.028-1.421-.046-.37-.018a.525.525,0,0,1-.126-.014.536.536,0,0,1,.126-.009l.37,0,1.423,0,1.029.008c.376.011.783.052,1.221.08.874.076,1.878.1,2.971.279l1.721.234c.6.07,1.211.225,1.851.34.636.134,1.3.236,1.974.41l2.07.534c.714.164,1.419.424,2.151.649s1.481.454,2.218.757l2.265.876,2.28,1.03a52.9,52.9,0,0,1,8.177,4.85c.593.428,1.137.892,1.684,1.318l.8.638c.258.215.495.447.737.664l1.388,1.273c.436.418.818.856,1.2,1.254s.75.778,1.071,1.159l.88,1.1.765.957c.222.3.4.6.579.852l.786,1.188.2.311A.568.568,0,0,1,267.329,114.4Z" transform="translate(-225.328 -93.525)" fill="#263238"/>
        </g>
        <g id="Grupo_56823" data-name="Grupo 56823" transform="translate(58.782 74.467)">
          <path id="Trazado_103818" data-name="Trazado 103818" d="M283.1,265.978a1.722,1.722,0,0,1-.188.258l-.574.714c-.249.311-.559.685-.939,1.1s-.794.911-1.295,1.417-1.031,1.077-1.641,1.65c-.594.591-1.266,1.18-1.967,1.808a53.882,53.882,0,0,1-10.062,6.938c-.837.432-1.627.851-2.39,1.2-.753.366-1.47.672-2.126.947s-1.258.5-1.785.706-.986.364-1.365.485l-.871.283a1.733,1.733,0,0,1-.308.084,1.69,1.69,0,0,1,.294-.127l.856-.322c.374-.134.829-.3,1.35-.52s1.123-.439,1.767-.735,1.362-.6,2.108-.969c.757-.35,1.541-.775,2.371-1.21,1.644-.9,3.414-1.963,5.2-3.186s3.4-2.511,4.826-3.726c.7-.622,1.377-1.2,1.974-1.786.613-.566,1.158-1.119,1.655-1.626s.93-.98,1.316-1.391.708-.775.966-1.076l.605-.686A1.708,1.708,0,0,1,283.1,265.978Z" transform="translate(-257.591 -265.978)" fill="#263238"/>
        </g>
        <g id="Grupo_56824" data-name="Grupo 56824" transform="translate(58.133 91.937)">
          <path id="Trazado_103819" data-name="Trazado 103819" d="M256.2,337.442c-.062,0-.112-6.92-.112-15.453s.05-15.454.112-15.454.112,6.918.112,15.454S256.258,337.442,256.2,337.442Z" transform="translate(-256.084 -306.534)" fill="#263238"/>
        </g>
        <g id="Grupo_56825" data-name="Grupo 56825" transform="translate(59.082 136.401)">
          <path id="Trazado_103820" data-name="Trazado 103820" d="M258.4,431.441c-.062,0-.112-4.856-.112-10.844s.05-10.845.112-10.845.112,4.854.112,10.845S258.461,431.441,258.4,431.441Z" transform="translate(-258.287 -409.752)" fill="#263238"/>
        </g>
      </g>
    </g>
    <g id="Character" transform="translate(168.302 54.165)">
      <g id="Grupo_57041" data-name="Grupo 57041" transform="translate(0 0)">
        <g id="Grupo_56843" data-name="Grupo 56843" transform="translate(0 27.577)">
          <path id="Trazado_103821" data-name="Trazado 103821" d="M315.3,187.726c-.435.867,1.175,1.567,2.1,1.848a11.744,11.744,0,0,0,6.619-.628,5.928,5.928,0,0,0,2.248-2.522,17.672,17.672,0,0,0,1.142-3.226S317.238,183.864,315.3,187.726Z" transform="translate(-313.305 -162.865)" fill="#e8505b"/>
          <g id="Grupo_56827" data-name="Grupo 56827" transform="translate(1.924 20.333)" opacity="0.4">
            <path id="Trazado_103822" data-name="Trazado 103822" d="M315.3,187.726c-.435.867,1.175,1.567,2.1,1.848a11.744,11.744,0,0,0,6.619-.628,5.928,5.928,0,0,0,2.248-2.522,17.672,17.672,0,0,0,1.142-3.226S317.238,183.864,315.3,187.726Z" transform="translate(-315.23 -183.198)"/>
          </g>
          <g id="Grupo_56829" data-name="Grupo 56829" transform="translate(30.085 19.111)">
            <path id="Trazado_103823" data-name="Trazado 103823" d="M381.266,183.352a9.76,9.76,0,0,0,5.745,1.8,4.074,4.074,0,0,0,2.735-.86c.332-.3.58-.692.922-.984.232-.2.5-.349.722-.562a.924.924,0,0,0,.317-.818,1.7,1.7,0,0,0-.595-.951,7.447,7.447,0,0,0-3.907-.609,13.4,13.4,0,0,0-3.942.773,4.487,4.487,0,0,0-2.662,1.809" transform="translate(-380.602 -180.36)" fill="#065949"/>
          </g>
          <path id="Trazado_103825" data-name="Trazado 103825" d="M321.643,173.562l21.474.281a.276.276,0,0,0,.266-.36l-2.519-7.858s.371-3.926.884-8.651c.779-7.17,1.814-16.185,1.828-16.161C342.11,136.7,333.443,136,333.443,136l-9.878.587-.348-.579-2.842,1.322a13.138,13.138,0,0,0-1.783,1.005c-1.876,1.257-6.4,4.135-7.227,7.348-1.907,7.427,1.323,15.72,1.323,15.72l2.073-1.621a14.555,14.555,0,0,1,1.646-1.1l4.162,11.151a1.966,1.966,0,0,0-.9,1.431,2.216,2.216,0,0,0,1.976,2.3" transform="translate(-310.763 -135.996)" fill="#bb83ff"/>
          <g id="Grupo_56830" data-name="Grupo 56830" transform="translate(17.284 13.288)" opacity="0.3">
            <path id="Trazado_103826" data-name="Trazado 103826" d="M353.688,177.973c.681-3.66.321-7.425-.041-11.131-1.192,3.032-1.149,6.449-2.411,9.452a4.039,4.039,0,0,0-.336,1,1.111,1.111,0,0,0,.287.971c.343.314.854.145,1.316.089a5.027,5.027,0,0,0,1.185-.377" transform="translate(-350.887 -166.842)"/>
          </g>
          <g id="Grupo_56831" data-name="Grupo 56831" transform="translate(11.887 30.169)" opacity="0.4">
            <path id="Trazado_103827" data-name="Trazado 103827" d="M338.646,208.755c1.734.6,3.557-.514,5.381-.712a13.568,13.568,0,0,1,3.609.34,26.979,26.979,0,0,0,7.324.18,2.8,2.8,0,0,0,1.077-.278,1.3,1.3,0,0,0,.563-1.069c-4.055-.416-8.111-.664-12.167-1.08a7.647,7.647,0,0,0-3.042.1,7.3,7.3,0,0,0-3.035,2.292" transform="translate(-338.357 -206.03)"/>
          </g>
          <path id="Trazado_103828" data-name="Trazado 103828" d="M388.13,161.062c-1.756-3.947-7.937-14.872-7.937-14.872l-4.788,6,1.117,11.782s2.528-2.822,9.6-2.878a3.465,3.465,0,0,1,2.631,1.385Z" transform="translate(-347.559 -141.799)" fill="#bb83ff"/>
          <g id="Grupo_56832" data-name="Grupo 56832" transform="translate(10.426 11.967)">
            <path id="Trazado_103829" data-name="Trazado 103829" d="M336.371,168.987a32.477,32.477,0,0,1-1.4-5.211,32.517,32.517,0,0,1,1.4,5.211Z" transform="translate(-334.965 -163.776)" fill="#263238"/>
          </g>
          <g id="Grupo_56833" data-name="Grupo 56833" transform="translate(27.484 9.594)">
            <path id="Trazado_103830" data-name="Trazado 103830" d="M374.564,158.268a2.906,2.906,0,0,1,.443.377,12.117,12.117,0,0,1,1.067,1.172,11.306,11.306,0,0,1,2.286,4.678,8.746,8.746,0,0,1,.137,2.886c-.111.881-.28,1.656-.388,2.312s-.181,1.188-.215,1.558a3.86,3.86,0,0,1-.06.576,2.3,2.3,0,0,1-.027-.581,13.643,13.643,0,0,1,.146-1.577c.088-.662.241-1.444.339-2.312a8.865,8.865,0,0,0-.151-2.815,11.842,11.842,0,0,0-2.192-4.627C375.152,158.853,374.531,158.3,374.564,158.268Z" transform="translate(-374.563 -158.267)" fill="#263238"/>
          </g>
          <g id="Grupo_56834" data-name="Grupo 56834" transform="translate(11.847 33.132)">
            <path id="Trazado_103831" data-name="Trazado 103831" d="M349.518,216.4a2.008,2.008,0,0,1-.467.136,4.485,4.485,0,0,1-.561.109,7.544,7.544,0,0,1-.752.092,11.131,11.131,0,0,1-1.972-.011,11.714,11.714,0,0,1-4.592-1.426,11.1,11.1,0,0,1-1.632-1.108,7.5,7.5,0,0,1-.568-.5,4.489,4.489,0,0,1-.4-.407,2.01,2.01,0,0,1-.308-.377c.032-.031.495.486,1.375,1.161a12.391,12.391,0,0,0,1.633,1.051,12.382,12.382,0,0,0,4.515,1.4,12.384,12.384,0,0,0,1.941.058C348.834,216.525,349.508,216.361,349.518,216.4Z" transform="translate(-338.264 -212.91)" fill="#263238"/>
          </g>
          <g id="Grupo_56835" data-name="Grupo 56835" transform="translate(28.369 34.171)">
            <path id="Trazado_103832" data-name="Trazado 103832" d="M377.982,215.32a1.523,1.523,0,0,1,.166.629,3.882,3.882,0,0,1-.116,1.57,2.737,2.737,0,0,1-.844,1.334,1.189,1.189,0,0,1-.568.324c-.019-.032.19-.164.46-.439a3.052,3.052,0,0,0,.737-1.282A8.376,8.376,0,0,0,377.982,215.32Z" transform="translate(-376.619 -215.32)" fill="#263238"/>
          </g>
          <g id="Grupo_56836" data-name="Grupo 56836" transform="translate(27.638 35.688)">
            <path id="Trazado_103833" data-name="Trazado 103833" d="M375.848,218.843a2.341,2.341,0,0,1-.922,2.377c-.048-.047.355-.475.6-1.133S375.781,218.845,375.848,218.843Z" transform="translate(-374.922 -218.843)" fill="#263238"/>
          </g>
          <g id="Grupo_56837" data-name="Grupo 56837" transform="translate(23.191 21.51)">
            <path id="Trazado_103834" data-name="Trazado 103834" d="M366.126,185.934a113.632,113.632,0,0,0-1.519,2.214,4,4,0,0,1,1.519-2.214Z" transform="translate(-364.598 -185.93)" fill="#263238"/>
          </g>
          <g id="Grupo_56838" data-name="Grupo 56838" transform="translate(2.808 8.366)">
            <path id="Trazado_103835" data-name="Trazado 103835" d="M324.455,158.132a10.86,10.86,0,0,1-.952-.631,12.265,12.265,0,0,0-5.087-1.9,10.883,10.883,0,0,1-1.133-.147,3.973,3.973,0,0,1,1.151-.01,10.3,10.3,0,0,1,5.16,1.926A3.991,3.991,0,0,1,324.455,158.132Z" transform="translate(-317.282 -155.416)" fill="#263238"/>
          </g>
          <g id="Grupo_56839" data-name="Grupo 56839" transform="translate(28.82 4.246)">
            <path id="Trazado_103836" data-name="Trazado 103836" d="M381.482,145.855a12.566,12.566,0,0,0-3.812,4.529,2.658,2.658,0,0,1,.3-.836,8.538,8.538,0,0,1,2.74-3.255A2.662,2.662,0,0,1,381.482,145.855Z" transform="translate(-377.666 -145.853)" fill="#263238"/>
          </g>
          <g id="Grupo_56840" data-name="Grupo 56840" transform="translate(11.313 0.699)">
            <path id="Trazado_103837" data-name="Trazado 103837" d="M349.48,137.618a.817.817,0,0,1,.1.2,3.7,3.7,0,0,1,.2.6,5.11,5.11,0,0,1-.008,2.333,5.733,5.733,0,0,1-1.757,2.969,5.958,5.958,0,0,1-3.964,1.412,6.707,6.707,0,0,1-4-1.338,7.653,7.653,0,0,1-2.2-2.669,8.14,8.14,0,0,1-.734-2.217,5.911,5.911,0,0,1-.077-.63.819.819,0,0,1,0-.221c.023,0,.049.3.167.834a8.825,8.825,0,0,0,.789,2.161,7.666,7.666,0,0,0,2.184,2.576,6.577,6.577,0,0,0,3.88,1.279,5.806,5.806,0,0,0,3.826-1.343,5.659,5.659,0,0,0,1.739-2.85,5.286,5.286,0,0,0,.077-2.277C349.586,137.905,349.454,137.628,349.48,137.618Z" transform="translate(-337.026 -137.618)" fill="#263238"/>
          </g>
          <g id="Grupo_56841" data-name="Grupo 56841" transform="translate(23.2 21.656)" opacity="0.3">
            <path id="Trazado_103838" data-name="Trazado 103838" d="M366.695,186.89c-.006-.215-.034-.469-.221-.576a.424.424,0,0,0-.39.006,1.1,1.1,0,0,0-.312.258,5.269,5.269,0,0,0-1.151,1.839l2.112-.182C366.718,187.79,366.708,187.336,366.695,186.89Z" transform="translate(-364.62 -186.269)"/>
          </g>
          <g id="Grupo_56842" data-name="Grupo 56842" transform="translate(30.754 14.563)" opacity="0.3">
            <path id="Trazado_103839" data-name="Trazado 103839" d="M383.686,173.075a6.912,6.912,0,0,0-1.531-3.272,10.794,10.794,0,0,1,.094,6.7l.11-.286C382.945,175.03,383.848,174.283,383.686,173.075Z" transform="translate(-382.155 -169.803)"/>
          </g>
        </g>
        <g id="Grupo_56863" data-name="Grupo 56863" transform="translate(17.055 144.685)">
          <g id="Grupo_56844" data-name="Grupo 56844">
            <path id="Trazado_103840" data-name="Trazado 103840" d="M361.366,408.717l-1.288,19.322-8.4-.1-1.323-20.088Z" transform="translate(-350.355 -407.852)" fill="#ffbe9d"/>
          </g>
          <g id="Grupo_56862" data-name="Grupo 56862" transform="translate(0.726 17.443)">
            <g id="Grupo_56861" data-name="Grupo 56861">
              <g id="Grupo_56846" data-name="Grupo 56846">
                <g id="Grupo_56845" data-name="Grupo 56845">
                  <path id="Trazado_103841" data-name="Trazado 103841" d="M361.277,448.544l0,.559s9.469,3.811,9.568,5.608l-18.807-.11.292-6.257A10.758,10.758,0,0,0,361.277,448.544Z" transform="translate(-352.04 -448.344)" fill="#e8505b"/>
                </g>
              </g>
              <g id="Grupo_56849" data-name="Grupo 56849" transform="translate(1.633 1.981)">
                <g id="Grupo_56848" data-name="Grupo 56848">
                  <g id="Grupo_56847" data-name="Grupo 56847">
                    <path id="Trazado_103842" data-name="Trazado 103842" d="M356.383,452.974a.768.768,0,0,0-.536.874.738.738,0,0,0,.861.539.81.81,0,0,0,.563-.928.766.766,0,0,0-.958-.461" transform="translate(-355.832 -452.944)" fill="#fff"/>
                  </g>
                </g>
              </g>
              <g id="Grupo_56851" data-name="Grupo 56851" transform="translate(0 4.752)">
                <g id="Grupo_56850" data-name="Grupo 56850">
                  <path id="Trazado_103843" data-name="Trazado 103843" d="M352.04,460.881l.07-1.5,18,.656s.835.369.737.958Z" transform="translate(-352.04 -459.376)" fill="#263238"/>
                </g>
              </g>
              <g id="Grupo_56854" data-name="Grupo 56854" transform="translate(7.584 0.725)">
                <g id="Grupo_56853" data-name="Grupo 56853">
                  <g id="Grupo_56852" data-name="Grupo 56852">
                    <path id="Trazado_103844" data-name="Trazado 103844" d="M371.366,450.115c0,.092-.463.131-.917.423s-.7.677-.781.64c-.084-.018.056-.566.611-.911S371.387,450.031,371.366,450.115Z" transform="translate(-369.646 -450.028)" fill="#263238"/>
                  </g>
                </g>
              </g>
              <g id="Grupo_56857" data-name="Grupo 56857" transform="translate(10.018 1.602)">
                <g id="Grupo_56856" data-name="Grupo 56856">
                  <g id="Grupo_56855" data-name="Grupo 56855">
                    <path id="Trazado_103845" data-name="Trazado 103845" d="M376.55,452.1c.021.089-.378.243-.692.63s-.407.8-.5.792c-.087.014-.147-.524.253-1S376.549,452.013,376.55,452.1Z" transform="translate(-375.296 -452.062)" fill="#263238"/>
                  </g>
                </g>
              </g>
              <g id="Grupo_56860" data-name="Grupo 56860" transform="translate(12.27 2.426)">
                <g id="Grupo_56859" data-name="Grupo 56859">
                  <g id="Grupo_56858" data-name="Grupo 56858">
                    <path id="Trazado_103846" data-name="Trazado 103846" d="M380.633,455.557c-.084.019-.208-.441.03-.942s.669-.7.708-.622-.229.344-.419.759S380.724,455.549,380.633,455.557Z" transform="translate(-380.525 -453.977)" fill="#263238"/>
                  </g>
                </g>
              </g>
            </g>
          </g>
        </g>
        <g id="Grupo_56970" data-name="Grupo 56970" transform="translate(4.483)">
          <path id="Trazado_103847" data-name="Trazado 103847" d="M347.392,76.233a3.052,3.052,0,0,0-1.151-3.44,5,5,0,0,0-3.732-.734,14.851,14.851,0,0,0-3.68,1.271,4.154,4.154,0,0,0-7.051,2.3A2.64,2.64,0,0,0,328.65,79.1l5.823,2.045,6.359,11.186a5.087,5.087,0,0,0,7.486-6.764,4.365,4.365,0,0,0,.893-1.1,4.457,4.457,0,0,0,2.058-2.756A4.706,4.706,0,0,0,347.392,76.233Z" transform="translate(-325.34 -71.979)" fill="#263238"/>
          <g id="Grupo_56964" data-name="Grupo 56964" transform="translate(0 3.032)">
            <g id="Grupo_56941" data-name="Grupo 56941" transform="translate(3.825)">
              <g id="Grupo_56940" data-name="Grupo 56940">
                <g id="Grupo_56938" data-name="Grupo 56938" transform="translate(0 1.105)">
                  <g id="Grupo_56937" data-name="Grupo 56937">
                    <g id="Grupo_56936" data-name="Grupo 56936">
                      <g id="Grupo_56935" data-name="Grupo 56935">
                        <g id="Grupo_56920" data-name="Grupo 56920">
                          <g id="Grupo_56919" data-name="Grupo 56919">
                            <g id="Grupo_56918" data-name="Grupo 56918">
                              <g id="Grupo_56870" data-name="Grupo 56870">
                                <g id="Grupo_56869" data-name="Grupo 56869">
                                  <g id="Grupo_56868" data-name="Grupo 56868">
                                    <g id="Grupo_56867" data-name="Grupo 56867">
                                      <g id="Grupo_56866" data-name="Grupo 56866">
                                        <g id="Grupo_56865" data-name="Grupo 56865">
                                          <g id="Grupo_56864" data-name="Grupo 56864">
                                            <path id="Trazado_103848" data-name="Trazado 103848" d="M344.421,105.023c-.361-1.821-.613-3.068-.61-3.055s3.433-1.337,3.2-6.132a50.65,50.65,0,0,0-1.871-9.2c-.759-2.747-3.321-5.777-6.034-4.9l-8.2,4.007c-.824.266-.968,1.04-.774,1.884l.013.411,3.192,13.207,1.348,5.9a4.986,4.986,0,0,0,5.566,3.782h0A4.986,4.986,0,0,0,344.421,105.023Z" transform="translate(-330.048 -81.583)" fill="#ffbe9d"/>
                                          </g>
                                        </g>
                                      </g>
                                    </g>
                                  </g>
                                </g>
                              </g>
                              <g id="Grupo_56886" data-name="Grupo 56886" transform="translate(12.319 6.91)">
                                <g id="Grupo_56877" data-name="Grupo 56877" transform="translate(1.524 0.905)">
                                  <g id="Grupo_56876" data-name="Grupo 56876">
                                    <g id="Grupo_56875" data-name="Grupo 56875">
                                      <g id="Grupo_56874" data-name="Grupo 56874">
                                        <g id="Grupo_56873" data-name="Grupo 56873">
                                          <g id="Grupo_56872" data-name="Grupo 56872">
                                            <g id="Grupo_56871" data-name="Grupo 56871">
                                              <path id="Trazado_103849" data-name="Trazado 103849" d="M363.375,100.155a.608.608,0,0,1-.448.721.581.581,0,0,1-.726-.408.609.609,0,0,1,.447-.722A.583.583,0,0,1,363.375,100.155Z" transform="translate(-362.184 -99.725)" fill="#263238"/>
                                            </g>
                                          </g>
                                        </g>
                                      </g>
                                    </g>
                                  </g>
                                </g>
                                <g id="Grupo_56885" data-name="Grupo 56885">
                                  <g id="Grupo_56884" data-name="Grupo 56884">
                                    <g id="Grupo_56883" data-name="Grupo 56883">
                                      <g id="Grupo_56882" data-name="Grupo 56882">
                                        <g id="Grupo_56881" data-name="Grupo 56881">
                                          <g id="Grupo_56880" data-name="Grupo 56880">
                                            <g id="Grupo_56879" data-name="Grupo 56879">
                                              <g id="Grupo_56878" data-name="Grupo 56878">
                                                <path id="Trazado_103850" data-name="Trazado 103850" d="M361.007,98.042c-.058.093-.579-.146-1.219-.01s-1.043.555-1.128.491c-.041-.028,0-.184.178-.376a1.666,1.666,0,0,1,.883-.489,1.6,1.6,0,0,1,.99.1C360.94,97.873,361.036,98,361.007,98.042Z" transform="translate(-358.646 -97.625)" fill="#263238"/>
                                              </g>
                                            </g>
                                          </g>
                                        </g>
                                      </g>
                                    </g>
                                  </g>
                                </g>
                              </g>
                              <g id="Grupo_56902" data-name="Grupo 56902" transform="translate(6.125 8.429)">
                                <g id="Grupo_56893" data-name="Grupo 56893" transform="translate(1.485 0.815)">
                                  <g id="Grupo_56892" data-name="Grupo 56892">
                                    <g id="Grupo_56891" data-name="Grupo 56891">
                                      <g id="Grupo_56890" data-name="Grupo 56890">
                                        <g id="Grupo_56889" data-name="Grupo 56889">
                                          <g id="Grupo_56888" data-name="Grupo 56888">
                                            <g id="Grupo_56887" data-name="Grupo 56887">
                                              <path id="Trazado_103851" data-name="Trazado 103851" d="M348.905,103.473a.608.608,0,0,1-.448.721.582.582,0,0,1-.726-.408.608.608,0,0,1,.447-.721A.582.582,0,0,1,348.905,103.473Z" transform="translate(-347.715 -103.043)" fill="#263238"/>
                                            </g>
                                          </g>
                                        </g>
                                      </g>
                                    </g>
                                  </g>
                                </g>
                                <g id="Grupo_56901" data-name="Grupo 56901">
                                  <g id="Grupo_56900" data-name="Grupo 56900">
                                    <g id="Grupo_56899" data-name="Grupo 56899">
                                      <g id="Grupo_56898" data-name="Grupo 56898">
                                        <g id="Grupo_56897" data-name="Grupo 56897">
                                          <g id="Grupo_56896" data-name="Grupo 56896">
                                            <g id="Grupo_56895" data-name="Grupo 56895">
                                              <g id="Grupo_56894" data-name="Grupo 56894">
                                                <path id="Trazado_103852" data-name="Trazado 103852" d="M346.629,101.567c-.058.093-.579-.146-1.219-.01s-1.043.555-1.128.491c-.041-.028,0-.183.178-.375a1.667,1.667,0,0,1,.883-.489,1.606,1.606,0,0,1,.99.1C346.561,101.4,346.658,101.525,346.629,101.567Z" transform="translate(-344.268 -101.15)" fill="#263238"/>
                                              </g>
                                            </g>
                                          </g>
                                        </g>
                                      </g>
                                    </g>
                                  </g>
                                </g>
                              </g>
                              <g id="Grupo_56910" data-name="Grupo 56910" transform="translate(10.314 7.622)">
                                <g id="Grupo_56909" data-name="Grupo 56909">
                                  <g id="Grupo_56908" data-name="Grupo 56908">
                                    <g id="Grupo_56907" data-name="Grupo 56907">
                                      <g id="Grupo_56906" data-name="Grupo 56906">
                                        <g id="Grupo_56905" data-name="Grupo 56905">
                                          <g id="Grupo_56904" data-name="Grupo 56904">
                                            <g id="Grupo_56903" data-name="Grupo 56903">
                                              <path id="Trazado_103853" data-name="Trazado 103853" d="M355.408,104.553a4.327,4.327,0,0,1,1-.406c.16-.051.308-.116.312-.233a.849.849,0,0,0-.211-.462l-.745-1.144a21.813,21.813,0,0,1-1.77-3.03,21.924,21.924,0,0,1,2.009,2.88l.726,1.156a.966.966,0,0,1,.219.624.42.42,0,0,1-.219.3,1.138,1.138,0,0,1-.27.1A4.271,4.271,0,0,1,355.408,104.553Z" transform="translate(-353.992 -99.278)" fill="#263238"/>
                                            </g>
                                          </g>
                                        </g>
                                      </g>
                                    </g>
                                  </g>
                                </g>
                              </g>
                              <g id="Grupo_56917" data-name="Grupo 56917" transform="translate(7.199 20.031)">
                                <g id="Grupo_56916" data-name="Grupo 56916">
                                  <g id="Grupo_56915" data-name="Grupo 56915">
                                    <g id="Grupo_56914" data-name="Grupo 56914">
                                      <g id="Grupo_56913" data-name="Grupo 56913">
                                        <g id="Grupo_56912" data-name="Grupo 56912">
                                          <g id="Grupo_56911" data-name="Grupo 56911">
                                            <path id="Trazado_103854" data-name="Trazado 103854" d="M353.324,128.436a12.063,12.063,0,0,1-6.563-.354s2.255,2.946,6.809,1.538Z" transform="translate(-346.761 -128.082)" fill="#eb996e"/>
                                          </g>
                                        </g>
                                      </g>
                                    </g>
                                  </g>
                                </g>
                              </g>
                            </g>
                          </g>
                        </g>
                        <g id="Grupo_56927" data-name="Grupo 56927" transform="translate(5.677 7.579)">
                          <g id="Grupo_56926" data-name="Grupo 56926">
                            <g id="Grupo_56925" data-name="Grupo 56925">
                              <g id="Grupo_56924" data-name="Grupo 56924">
                                <g id="Grupo_56923" data-name="Grupo 56923">
                                  <g id="Grupo_56922" data-name="Grupo 56922">
                                    <g id="Grupo_56921" data-name="Grupo 56921">
                                      <path id="Trazado_103855" data-name="Trazado 103855" d="M346.158,99.531c-.042.184-.7.18-1.452.364s-1.342.468-1.462.322c-.054-.07.032-.249.26-.451a2.6,2.6,0,0,1,2.221-.523C346.017,99.322,346.176,99.444,346.158,99.531Z" transform="translate(-343.228 -99.176)" fill="#263238"/>
                                    </g>
                                  </g>
                                </g>
                              </g>
                            </g>
                          </g>
                        </g>
                        <g id="Grupo_56934" data-name="Grupo 56934" transform="translate(11.83 4.855)">
                          <g id="Grupo_56933" data-name="Grupo 56933">
                            <g id="Grupo_56932" data-name="Grupo 56932">
                              <g id="Grupo_56931" data-name="Grupo 56931">
                                <g id="Grupo_56930" data-name="Grupo 56930">
                                  <g id="Grupo_56929" data-name="Grupo 56929">
                                    <g id="Grupo_56928" data-name="Grupo 56928">
                                      <path id="Trazado_103856" data-name="Trazado 103856" d="M360.117,93.289c-.1.173-.656.132-1.285.257-.633.106-1.139.341-1.293.214-.069-.062-.016-.226.188-.412a2.062,2.062,0,0,1,.993-.457,2.037,2.037,0,0,1,1.085.078C360.056,93.071,360.161,93.205,360.117,93.289Z" transform="translate(-357.51 -92.852)" fill="#263238"/>
                                    </g>
                                  </g>
                                </g>
                              </g>
                            </g>
                          </g>
                        </g>
                      </g>
                    </g>
                  </g>
                </g>
                <g id="Grupo_56939" data-name="Grupo 56939" transform="translate(2.619)">
                  <path id="Trazado_103857" data-name="Trazado 103857" d="M336.378,81.2a3.245,3.245,0,0,0,4.4,2.359c.682-.277,1.385-.8,2.078-.546.728.264.957,1.232,1.633,1.61.966.541,2.129-.4,3.233-.3a4.388,4.388,0,0,1,2.179,1.269,2.258,2.258,0,0,0,2.346.578,9.607,9.607,0,0,0-.762-2.075,3.232,3.232,0,0,0-1.578-1.492,12.126,12.126,0,0,1-1.15-.384c-.777-.4-1.126-1.3-1.693-1.969a3.556,3.556,0,0,0-3.018-1.209,19.5,19.5,0,0,1-2.754.526c-.693-.029-1.356-.337-2.049-.326-1.35.023-2.364,1.2-3.112,2.328" transform="translate(-336.129 -79.017)" fill="#263238"/>
                </g>
              </g>
            </g>
            <path id="Trazado_103858" data-name="Trazado 103858" d="M332.4,83.924a4.458,4.458,0,0,1-2.3-.616,3.635,3.635,0,0,0-3.464-1.136,3,3,0,0,0-2.162,2.87,4.311,4.311,0,0,0-3.145,3.089,5,5,0,0,0,1.076,4.525,8.96,8.96,0,0,1,.707,1.024,7.324,7.324,0,0,0-.766,1.162c-.984,2.179,1.688,3.014,1.688,3.014.007,1.465,1.357,1.458,2.224,1.454.833,0,1.346,2.306,2.02,2.216l-.685-7.134a.892.892,0,0,0,.316.057c1.634.029,1.207-3.06.678-3.859a9.254,9.254,0,0,0,1.224-1.971,6.678,6.678,0,0,0,.063-3.3A7.716,7.716,0,0,0,332.4,83.924Z" transform="translate(-321.17 -80.758)" fill="#263238"/>
            <g id="Grupo_56963" data-name="Grupo 56963" transform="translate(3.939 12.946)">
              <g id="Grupo_56951" data-name="Grupo 56951">
                <g id="Grupo_56950" data-name="Grupo 56950">
                  <g id="Grupo_56949" data-name="Grupo 56949">
                    <g id="Grupo_56948" data-name="Grupo 56948">
                      <g id="Grupo_56947" data-name="Grupo 56947">
                        <g id="Grupo_56946" data-name="Grupo 56946">
                          <g id="Grupo_56945" data-name="Grupo 56945">
                            <g id="Grupo_56944" data-name="Grupo 56944">
                              <g id="Grupo_56943" data-name="Grupo 56943">
                                <g id="Grupo_56942" data-name="Grupo 56942">
                                  <path id="Trazado_103859" data-name="Trazado 103859" d="M333.04,110.135a1.383,1.383,0,0,0-2.221-.741,1.9,1.9,0,0,0-.4,2.03,2.149,2.149,0,0,0,3.321,1.422C333.732,112.8,333.339,111.28,333.04,110.135Z" transform="translate(-330.313 -109.069)" fill="#ffbe9d"/>
                                </g>
                              </g>
                            </g>
                          </g>
                        </g>
                      </g>
                    </g>
                  </g>
                </g>
              </g>
              <g id="Grupo_56962" data-name="Grupo 56962" transform="translate(0.768 0.862)">
                <g id="Grupo_56961" data-name="Grupo 56961">
                  <g id="Grupo_56960" data-name="Grupo 56960">
                    <g id="Grupo_56959" data-name="Grupo 56959">
                      <g id="Grupo_56958" data-name="Grupo 56958">
                        <g id="Grupo_56957" data-name="Grupo 56957">
                          <g id="Grupo_56956" data-name="Grupo 56956">
                            <g id="Grupo_56955" data-name="Grupo 56955">
                              <g id="Grupo_56954" data-name="Grupo 56954">
                                <g id="Grupo_56953" data-name="Grupo 56953">
                                  <g id="Grupo_56952" data-name="Grupo 56952">
                                    <path id="Trazado_103860" data-name="Trazado 103860" d="M333.646,113.147c-.015-.006-.04.046-.112.1a.5.5,0,0,1-.359.1c-.32-.034-.683-.437-.822-.934a1.651,1.651,0,0,1-.038-.725.576.576,0,0,1,.271-.462.254.254,0,0,1,.318.061c.056.068.053.128.068.129s.048-.062,0-.171a.319.319,0,0,0-.152-.146.378.378,0,0,0-.285,0,.7.7,0,0,0-.4.557,1.7,1.7,0,0,0,.026.815c.158.554.576,1.005,1.005,1.021a.531.531,0,0,0,.423-.184C333.658,113.216,333.657,113.15,333.646,113.147Z" transform="translate(-332.097 -111.071)" fill="#eb996e"/>
                                  </g>
                                </g>
                              </g>
                            </g>
                          </g>
                        </g>
                      </g>
                    </g>
                  </g>
                </g>
              </g>
            </g>
          </g>
          <g id="Grupo_56965" data-name="Grupo 56965" transform="translate(8.218 4.839)">
            <path id="Trazado_103861" data-name="Trazado 103861" d="M353.57,91.542c-.017-.021.251-.193.6-.626a4.076,4.076,0,0,0,.866-2.154,3.966,3.966,0,0,0-.155-1.6,3.429,3.429,0,0,0-.985-1.531,4.049,4.049,0,0,0-3.96-.771c-.13.042-.25.106-.373.157s-.229.131-.339.193l-.171.1,0-.19a1.4,1.4,0,0,0-.348-.905,2.226,2.226,0,0,0-.8-.569,2.936,2.936,0,0,0-1.849-.135c-1.189.27-2.2.813-3.15.923A3.046,3.046,0,0,1,340.765,84a1.752,1.752,0,0,1-.421-.431.755.755,0,0,1-.1-.187,2.473,2.473,0,0,0,.564.548,3.034,3.034,0,0,0,2.081.349,7.471,7.471,0,0,0,1.447-.417,13.058,13.058,0,0,1,1.682-.551,3.732,3.732,0,0,1,.974-.1,3,3,0,0,1,1,.231,2.438,2.438,0,0,1,.878.624,1.622,1.622,0,0,1,.4,1.05l-.173-.094c.117-.067.236-.14.361-.206s.259-.123.4-.168a4.233,4.233,0,0,1,4.174.828,3.6,3.6,0,0,1,1.024,1.629,4.077,4.077,0,0,1,.134,1.67,4.028,4.028,0,0,1-.957,2.193,2.877,2.877,0,0,1-.48.445A.863.863,0,0,1,353.57,91.542Z" transform="translate(-340.247 -83.212)" fill="#455a64"/>
          </g>
          <g id="Grupo_56966" data-name="Grupo 56966" transform="translate(8.56 1.803)">
            <path id="Trazado_103862" data-name="Trazado 103862" d="M353.457,77.793a3.073,3.073,0,0,0-.892-.306,2.351,2.351,0,0,0-1.061.1,2.093,2.093,0,0,0-1.092.793l-.106.152-.065-.172a3.241,3.241,0,0,0-2.628-1.951,4.185,4.185,0,0,0-2.526.73,11.2,11.2,0,0,1-2,1.036,3.149,3.149,0,0,1-1.515.178,1.909,1.909,0,0,1-.4-.11c-.088-.038-.132-.061-.129-.068s.192.057.541.092a3.291,3.291,0,0,0,1.451-.241,12.1,12.1,0,0,0,1.952-1.065,6.857,6.857,0,0,1,1.207-.589,3.288,3.288,0,0,1,1.447-.185,3.4,3.4,0,0,1,2.785,2.105l-.17-.02a2.227,2.227,0,0,1,1.2-.836,2.38,2.38,0,0,1,1.126-.056,2.02,2.02,0,0,1,.675.258C353.4,77.726,353.463,77.786,353.457,77.793Z" transform="translate(-341.041 -76.166)" fill="#455a64"/>
          </g>
          <path id="Trazado_103863" data-name="Trazado 103863" d="M354.6,114.181a.938.938,0,0,0-.757-.22,1.108,1.108,0,0,0-.726.53l-.011.016c-.006.012-.018.023-.024.035l.01-.007a.532.532,0,0,0-.081.325.782.782,0,0,0,.45.582.99.99,0,0,0,1.129-.163A.808.808,0,0,0,354.6,114.181Z" transform="translate(-339.294 -95.872)" fill="#e8505b"/>
          <g id="Grupo_56967" data-name="Grupo 56967" transform="translate(13.575 18.486)">
            <path id="Trazado_103864" data-name="Trazado 103864" d="M354.629,116.055c-.033.006-.075-.128-.19-.308a1.351,1.351,0,0,0-1.4-.636c-.211.032-.34.089-.358.059s.09-.134.319-.213a1.275,1.275,0,0,1,1.577.718C354.671,115.9,354.656,116.052,354.629,116.055Z" transform="translate(-352.682 -114.893)" fill="#263238"/>
          </g>
          <g id="Grupo_56968" data-name="Grupo 56968" transform="translate(5.06 19.53)">
            <path id="Trazado_103865" data-name="Trazado 103865" d="M334.585,117.968c.021-.013.123.215-.038.542a.878.878,0,0,1-.459.415.891.891,0,0,1-1.17-.737.878.878,0,0,1,.176-.594c.225-.286.476-.293.473-.268.015.034-.189.1-.341.357a.775.775,0,0,0-.1.483.719.719,0,0,0,.9.563.775.775,0,0,0,.392-.3C334.579,118.181,334.548,117.97,334.585,117.968Z" transform="translate(-332.916 -117.318)" fill="#e8505b"/>
          </g>
          <g id="Grupo_56969" data-name="Grupo 56969" transform="translate(4.294 19.211)">
            <path id="Trazado_103866" data-name="Trazado 103866" d="M332.118,117.381c.025.011-.013.147-.2.238a.544.544,0,0,1-.358.035.574.574,0,0,1-.394-.728.544.544,0,0,1,.225-.28c.179-.107.313-.064.309-.037s-.106.056-.213.163a.41.41,0,0,0,.378.7C332.014,117.438,332.092,117.36,332.118,117.381Z" transform="translate(-331.137 -116.577)" fill="#e8505b"/>
          </g>
        </g>
        <g id="Grupo_56979" data-name="Grupo 56979" transform="translate(4.869 22.295)">
          <path id="Trazado_103867" data-name="Trazado 103867" d="M344.373,192.192s10.666.619,16.97.677c4.883.045,7.06-1.252,8.036-4.39.819-2.634-.942-7.686-.942-7.686a16.322,16.322,0,0,0-7.465,1.468l.566,2.31-17.2,1.483Z" transform="translate(-334.746 -156.214)" fill="#ffbe9d"/>
          <g id="Grupo_56971" data-name="Grupo 56971" transform="translate(26.692 28.291)">
            <path id="Trazado_103868" data-name="Trazado 103868" d="M387.713,191.94a6.219,6.219,0,0,0-3.686-2.513,1.521,1.521,0,0,1,.684.059,4.564,4.564,0,0,1,2.7,1.838A1.528,1.528,0,0,1,387.713,191.94Z" transform="translate(-384.028 -189.41)" fill="#eb996e"/>
          </g>
          <g id="Grupo_56978" data-name="Grupo 56978">
            <path id="Trazado_103869" data-name="Trazado 103869" d="M327.787,164.65h0a20.629,20.629,0,0,0-5.722,2.411l2.576,7.006a3.955,3.955,0,0,0,5.585,2.236c3.244-1.853,4.388-7.265,4.388-7.265l3.565-15.455-5.906-3.7-4.487,14.767" transform="translate(-322.065 -138.619)" fill="#ffbe9d"/>
            <g id="Grupo_56977" data-name="Grupo 56977" transform="translate(4.715)">
              <path id="Trazado_103870" data-name="Trazado 103870" d="M344.261,135.116l.239-5.083-1.319-5.148c-.073-.286-.109-.641.122-.815a.626.626,0,0,1,.8.025,50.06,50.06,0,0,1,2.083,4.891,26.4,26.4,0,0,1,3.08-1.647c.467-.077,1.048,1.33,1.084,1.441a8.191,8.191,0,0,1,0,.945s1.616.048,1.761.27a5.552,5.552,0,0,1,.187,1.371s.683.219.793.737.33,1.371.008,1.558-1,.561-1,.561-.274,2.637-.345,2.877a16.359,16.359,0,0,1-1.586,1.717Z" transform="translate(-338.768 -123.851)" fill="#ffbe9d"/>
              <g id="Grupo_56972" data-name="Grupo 56972">
                <path id="Trazado_103871" data-name="Trazado 103871" d="M333.011,161.525c.007-.014.161.092.495.2a3.37,3.37,0,0,0,1.523.121,4.248,4.248,0,0,0,2.2-1.017,10.221,10.221,0,0,0,2.05-2.595,11.65,11.65,0,0,0,.8-1.78,18.229,18.229,0,0,0,.553-2.065l1.089-4.676,2.583-11.039.007-.03.022-.022c.3-.291.595-.59.89-.9.147-.154.294-.311.435-.471a3.027,3.027,0,0,0,.2-.243c.05-.052.052-.156.072-.266.117-.862.208-1.754.3-2.651l.006-.057.05-.028.821-.46c.062-.037.155-.082.193-.113a.238.238,0,0,0,.078-.144,1.376,1.376,0,0,0,.005-.446,6.7,6.7,0,0,0-.191-.936,1.153,1.153,0,0,0-.686-.553l-.074-.028,0-.075c-.011-.249-.028-.506-.056-.762-.015-.128-.031-.256-.057-.378a.741.741,0,0,0-.05-.16c-.013-.028-.007-.007-.027-.025a.431.431,0,0,0-.072-.031,7.6,7.6,0,0,0-1.577-.178l-.112-.006,0-.111c.008-.266.019-.563.007-.842a.886.886,0,0,0-.1-.289c-.046-.1-.1-.206-.148-.307a3.7,3.7,0,0,0-.352-.569.952.952,0,0,0-.219-.215.209.209,0,0,0-.229-.026,5.581,5.581,0,0,0-.607.278c-.8.418-1.585.875-2.351,1.33l-.112.067-.048-.121-1.206-3.02-.59-1.478a.613.613,0,0,0-.473-.443.479.479,0,0,0-.56.206.5.5,0,0,0-.065.307c.012.1.06.241.088.359q.1.373.2.742l.385,1.464.747,2.844,0,.015v.016c-.086,1.769-.168,3.466-.246,5.083v.012l0,.011c-1.627,5.3-2.978,9.691-3.924,12.77l-1.107,3.555-.3.932c-.069.21-.111.317-.111.317s.024-.112.084-.325l.271-.94,1.059-3.569,3.849-12.793,0,.022c.073-1.616.15-3.314.23-5.083l0,.03q-.368-1.392-.753-2.842l-.388-1.463-.2-.741c-.031-.132-.07-.231-.094-.391a.721.721,0,0,1,.093-.439.667.667,0,0,1,.349-.293.831.831,0,0,1,.445-.014.883.883,0,0,1,.395.2.871.871,0,0,1,.232.371l.592,1.478,1.209,3.02-.161-.054c.77-.458,1.549-.915,2.364-1.339a5.717,5.717,0,0,1,.639-.292.489.489,0,0,1,.217-.031.47.47,0,0,1,.2.081,1.17,1.17,0,0,1,.273.264,3.9,3.9,0,0,1,.376.606c.054.1.105.21.153.318a1.054,1.054,0,0,1,.12.366c.013.305,0,.592-.007.865l-.109-.116a7.6,7.6,0,0,1,1.645.191.617.617,0,0,1,.111.048.277.277,0,0,1,.111.112.911.911,0,0,1,.071.218c.029.136.046.269.061.4.029.264.046.522.056.778l-.078-.1a1.361,1.361,0,0,1,.823.681,6.505,6.505,0,0,1,.206,1,1.566,1.566,0,0,1-.01.523.458.458,0,0,1-.156.266,2.288,2.288,0,0,1-.22.131l-.825.461.056-.085c-.1.9-.188,1.786-.308,2.66l-.028.167a.43.43,0,0,1-.08.188,2.933,2.933,0,0,1-.212.264c-.145.165-.293.323-.442.478-.3.31-.6.609-.9.9l.029-.052L341.9,149.755l-1.111,4.67a18.218,18.218,0,0,1-.57,2.078,11.763,11.763,0,0,1-.82,1.8,10.226,10.226,0,0,1-2.1,2.607,4.285,4.285,0,0,1-2.263,1.01,3.319,3.319,0,0,1-1.543-.156,2.282,2.282,0,0,1-.366-.166A.757.757,0,0,1,333.011,161.525Z" transform="translate(-333.011 -123.734)" fill="#eb996e"/>
              </g>
              <g id="Grupo_56973" data-name="Grupo 56973" transform="translate(9.352 5.741)">
                <path id="Trazado_103872" data-name="Trazado 103872" d="M356.951,137.185c0,.032-.146.048-.374.059a4.312,4.312,0,0,0-.858.1,1.7,1.7,0,0,0-.731.391c-.158.147-.226.272-.258.258s-.008-.165.14-.364a1.45,1.45,0,0,1,.793-.5,2.5,2.5,0,0,1,.921-.043C356.814,137.115,356.953,137.155,356.951,137.185Z" transform="translate(-354.72 -137.062)" fill="#eb996e"/>
              </g>
              <g id="Grupo_56974" data-name="Grupo 56974" transform="translate(10.272 5.393)">
                <path id="Trazado_103873" data-name="Trazado 103873" d="M356.9,136.772c-.058-.022-.062-.155-.008-.3s.143-.24.2-.219.062.155.008.3S356.961,136.794,356.9,136.772Z" transform="translate(-356.857 -136.253)" fill="#eb996e"/>
              </g>
              <g id="Grupo_56975" data-name="Grupo 56975" transform="translate(11.426 7.408)">
                <path id="Trazado_103874" data-name="Trazado 103874" d="M361.711,141a4.044,4.044,0,0,1-1.279.177.874.874,0,0,0-.712.342c-.114.176-.076.322-.109.331s-.137-.145-.033-.4a.7.7,0,0,1,.308-.342,1.366,1.366,0,0,1,.518-.152A3.637,3.637,0,0,1,361.711,141Z" transform="translate(-359.536 -140.932)" fill="#eb996e"/>
              </g>
              <g id="Grupo_56976" data-name="Grupo 56976" transform="translate(13.165 9.026)">
                <path id="Trazado_103875" data-name="Trazado 103875" d="M363.721,144.687c.062,0,.1.321.08.711s-.082.7-.144.7-.1-.321-.08-.712S363.659,144.684,363.721,144.687Z" transform="translate(-363.573 -144.687)" fill="#eb996e"/>
              </g>
            </g>
          </g>
        </g>
        <g id="Grupo_56981" data-name="Grupo 56981" transform="translate(24.688 40.445)">
          <path id="Trazado_103876" data-name="Trazado 103876" d="M368.074,168.347l.383-1.321a.361.361,0,0,1,.6-.152l.5.51.312-1.242a.361.361,0,0,1,.675-.068l.705,1.471Z" transform="translate(-368.074 -165.869)" fill="#fff"/>
          <g id="Grupo_56980" data-name="Grupo 56980" transform="translate(0.089 2.226)">
            <path id="Trazado_103877" data-name="Trazado 103877" d="M371.377,171.051a11.389,11.389,0,0,1-3.1.767,11.388,11.388,0,0,1,3.1-.767Z" transform="translate(-368.28 -171.036)" fill="#fff"/>
          </g>
        </g>
        <g id="Grupo_56982" data-name="Grupo 56982" transform="translate(1.103 35.322)">
          <path id="Trazado_103878" data-name="Trazado 103878" d="M314.476,153.977c.01.009-.16.165-.383.512a4.381,4.381,0,0,0-.584,1.627,11.756,11.756,0,0,0-.078,2.581c.047.975.126,2.046.246,3.166a55.555,55.555,0,0,0,.909,5.695c.153.722.291,1.3.387,1.706l.111.463c.025.106.033.163.033.163s-.02-.054-.05-.158l-.128-.459c-.106-.4-.253-.979-.414-1.7a50.465,50.465,0,0,1-.937-5.7c-.119-1.122-.2-2.195-.239-3.171a11.5,11.5,0,0,1,.1-2.6,4.284,4.284,0,0,1,.617-1.635A2.6,2.6,0,0,1,314.476,153.977Z" transform="translate(-313.322 -153.977)" fill="#fff"/>
        </g>
        <g id="Grupo_56983" data-name="Grupo 56983" transform="translate(2.257 29.466)">
          <path id="Trazado_103879" data-name="Trazado 103879" d="M325.067,140.381a.549.549,0,0,1-.1.053l-.284.136c-.246.118-.6.291-1.03.527a37.134,37.134,0,0,0-3.237,2.023c-1.23.846-2.321,1.645-3.117,2.214l-.946.669-.261.178a.523.523,0,0,1-.094.057.506.506,0,0,1,.084-.072l.251-.191.929-.693c.787-.582,1.872-1.39,3.1-2.237a32.351,32.351,0,0,1,3.258-2c.432-.23.793-.4,1.046-.5l.292-.12A.472.472,0,0,1,325.067,140.381Z" transform="translate(-316.002 -140.381)" fill="#fff"/>
        </g>
        <g id="Grupo_56984" data-name="Grupo 56984" transform="translate(23.876 28.768)">
          <path id="Trazado_103880" data-name="Trazado 103880" d="M374.178,142.262a.35.35,0,0,1-.072-.054l-.194-.168a7.712,7.712,0,0,0-.755-.563,15.329,15.329,0,0,0-2.769-1.4,28.128,28.128,0,0,0-2.953-.983c-.384-.106-.7-.185-.913-.238l-.249-.063a.34.34,0,0,1-.086-.028.349.349,0,0,1,.09.011l.253.047c.219.043.535.112.922.211a23.913,23.913,0,0,1,2.97.961,14.051,14.051,0,0,1,2.772,1.432A5.473,5.473,0,0,1,374.178,142.262Z" transform="translate(-366.188 -138.762)" fill="#fff"/>
        </g>
        <g id="Grupo_56985" data-name="Grupo 56985" transform="translate(9.852 61.471)">
          <path id="Trazado_103881" data-name="Trazado 103881" d="M335.225,218.358a.609.609,0,0,1-.168-.058,2.842,2.842,0,0,1-.427-.228,2.078,2.078,0,0,1-.937-1.269,2.483,2.483,0,0,1,.167-1.577,2.172,2.172,0,0,1,.249-.417.586.586,0,0,1,.12-.131,5.013,5.013,0,0,0-.311.573,2.551,2.551,0,0,0-.137,1.531,2.1,2.1,0,0,0,.885,1.236C335,218.249,335.232,218.342,335.225,218.358Z" transform="translate(-333.633 -214.679)" fill="#fff"/>
        </g>
        <g id="Grupo_56986" data-name="Grupo 56986" transform="translate(10.067 60.486)">
          <path id="Trazado_103882" data-name="Trazado 103882" d="M334.139,212.392a3.73,3.73,0,0,1,.324,1.107,3.73,3.73,0,0,1-.324-1.107Z" transform="translate(-334.133 -212.392)" fill="#fff"/>
        </g>
        <g id="Grupo_57040" data-name="Grupo 57040" transform="translate(5.198 65.143)">
          <g id="Grupo_56987" data-name="Grupo 56987">
            <path id="Trazado_103883" data-name="Trazado 103883" d="M333.528,315.128l13.14-.066-.238-45.428-.122-46.21-17.8-.221-3.2,6.032a21.658,21.658,0,0,0-2.462,7.817c-.224,2.088,1.341,8.9,1.887,10.628l4.9,15.534Z" transform="translate(-322.829 -223.203)" fill="#263238"/>
            <path id="Trazado_103884" data-name="Trazado 103884" d="M368.4,223.792l14.438,39.36a18.156,18.156,0,0,1-1.78,15.378L364.3,311.25l-9.425-11.792L368.9,270.147l-12.365-20.033,2.081-26.281,5.824-.094Z" transform="translate(-341.069 -223.509)" fill="#263238"/>
          </g>
          <g id="Grupo_56988" data-name="Grupo 56988" transform="translate(22.276 13.469)">
            <path id="Trazado_103885" data-name="Trazado 103885" d="M374.543,254.471s.011.068.02.2.022.34.037.593c.028.532.069,1.3.121,2.282.1,1.992.235,4.857.406,8.394s.358,7.767.573,12.451c.105,2.343.216,4.8.331,7.353.082,1.274.044,2.574.059,3.892s.008,2.656.012,4.009c.018,10.826.035,20.625.047,27.73,0,3.54-.009,6.409-.012,8.4-.006.984-.011,1.752-.015,2.285,0,.253-.007.451-.009.594s-.011.2-.011.2-.008-.069-.012-.2l-.012-.594c-.006-.533-.016-1.3-.028-2.284-.014-1.994-.035-4.862-.06-8.4-.029-7.1-.068-16.9-.112-27.727q-.006-2.03-.011-4.008c-.014-1.318.024-2.617-.056-3.892-.11-2.549-.216-5.009-.317-7.352-.2-4.684-.375-8.9-.525-12.451s-.255-6.4-.334-8.4c-.034-.983-.061-1.751-.08-2.284-.006-.253-.012-.451-.015-.594S374.543,254.471,374.543,254.471Z" transform="translate(-374.54 -254.471)" fill="#455a64"/>
          </g>
          <g id="Grupo_56989" data-name="Grupo 56989" transform="translate(21.939 1.06)">
            <path id="Trazado_103886" data-name="Trazado 103886" d="M373.769,225.664a1.634,1.634,0,0,1,.091.428c.045.277.1.679.156,1.178.115,1,.236,2.378.306,3.907s.072,2.917.047,3.92c-.012.5-.029.907-.049,1.187a1.636,1.636,0,0,1-.053.434,13.363,13.363,0,0,1-.057-1.621c-.016-1-.045-2.383-.113-3.909s-.165-2.9-.239-3.9A13.339,13.339,0,0,1,373.769,225.664Z" transform="translate(-373.759 -225.664)" fill="#455a64"/>
          </g>
          <g id="Grupo_56990" data-name="Grupo 56990" transform="translate(18.578 1.833)">
            <path id="Trazado_103887" data-name="Trazado 103887" d="M366.432,227.572a1.056,1.056,0,0,0-.291.491.558.558,0,0,0,.167.525.573.573,0,0,0,.979-.448.559.559,0,0,0-.289-.47,1.048,1.048,0,0,0-.562-.1c-.006-.012.041-.057.153-.09a.735.735,0,0,1,.9.648.771.771,0,0,1-1.328.608.735.735,0,0,1,.1-1.108C366.362,227.566,366.427,227.56,366.432,227.572Z" transform="translate(-365.956 -227.459)" fill="#455a64"/>
          </g>
          <g id="Grupo_56991" data-name="Grupo 56991" transform="translate(5.263 1.166)">
            <path id="Trazado_103888" data-name="Trazado 103888" d="M341.943,225.911a1.287,1.287,0,0,1,.118.412,4.084,4.084,0,0,1,.038,1.17,4.715,4.715,0,0,1-.5,1.669,4.419,4.419,0,0,1-3.366,2.417,4.72,4.72,0,0,1-1.74-.063,4.088,4.088,0,0,1-1.1-.411,1.283,1.283,0,0,1-.353-.244,7.426,7.426,0,0,0,1.481.5,4.523,4.523,0,0,0,5.415-3.887A7.474,7.474,0,0,0,341.943,225.911Z" transform="translate(-335.045 -225.911)" fill="#455a64"/>
          </g>
          <g id="Grupo_56992" data-name="Grupo 56992" transform="translate(25.57 1.129)">
            <path id="Trazado_103889" data-name="Trazado 103889" d="M385.68,229.633a1.743,1.743,0,0,1-.827-.1,3.846,3.846,0,0,1-2.611-2.877,1.743,1.743,0,0,1-.018-.833c.04,0,.042.317.172.8a4.163,4.163,0,0,0,2.508,2.763C385.369,229.561,385.684,229.593,385.68,229.633Z" transform="translate(-382.187 -225.825)" fill="#455a64"/>
          </g>
          <g id="Grupo_56993" data-name="Grupo 56993" transform="translate(28.783 46.076)">
            <path id="Trazado_103890" data-name="Trazado 103890" d="M395.058,331.46a2.728,2.728,0,0,1-.762.606,3.519,3.519,0,0,1-.98.428,2.362,2.362,0,0,1-1.322-.035,3.849,3.849,0,0,1-1.841-1.465,3.416,3.416,0,0,1-.5-.829,5.312,5.312,0,0,1,.63.731,4.083,4.083,0,0,0,1.784,1.349,2.762,2.762,0,0,0,2.156-.317A8.9,8.9,0,0,1,395.058,331.46Z" transform="translate(-389.647 -330.165)" fill="#455a64"/>
          </g>
          <g id="Grupo_56994" data-name="Grupo 56994" transform="translate(28.366 46.317)">
            <path id="Trazado_103891" data-name="Trazado 103891" d="M391.217,334.293a21.362,21.362,0,0,1-2.537-3.567,21.409,21.409,0,0,1,2.537,3.567Z" transform="translate(-388.677 -330.724)" fill="#455a64"/>
          </g>
          <g id="Grupo_56995" data-name="Grupo 56995" transform="translate(8.331 13.804)">
            <path id="Trazado_103892" data-name="Trazado 103892" d="M342.667,256.442c-.057.023-.211-.225-.342-.554s-.192-.614-.134-.638.211.225.342.554S342.724,256.419,342.667,256.442Z" transform="translate(-342.168 -255.249)" fill="#fafafa"/>
          </g>
          <g id="Grupo_56996" data-name="Grupo 56996" transform="translate(17.058 15.236)">
            <path id="Trazado_103893" data-name="Trazado 103893" d="M362.539,259.524c-.062,0-.112-.213-.112-.476s.05-.477.112-.477.112.214.112.477S362.6,259.524,362.539,259.524Z" transform="translate(-362.427 -258.571)" fill="#fafafa"/>
          </g>
          <g id="Grupo_56997" data-name="Grupo 56997" transform="translate(13.583 19.526)">
            <path id="Trazado_103894" data-name="Trazado 103894" d="M354.52,269.722c-.062,0-.13-.259-.152-.588s.01-.6.072-.6.13.259.152.588S354.582,269.719,354.52,269.722Z" transform="translate(-354.361 -268.531)" fill="#fafafa"/>
          </g>
          <g id="Grupo_56998" data-name="Grupo 56998" transform="translate(6.604 23.392)">
            <path id="Trazado_103895" data-name="Trazado 103895" d="M339.034,278.167c-.051.038-.229-.121-.46-.286s-.434-.289-.414-.349.285-.023.546.168S339.084,278.133,339.034,278.167Z" transform="translate(-338.159 -277.506)" fill="#fafafa"/>
          </g>
          <g id="Grupo_56999" data-name="Grupo 56999" transform="translate(18.503 27.543)">
            <path id="Trazado_103896" data-name="Trazado 103896" d="M365.8,287.862c-.052-.034.013-.222.145-.42s.28-.33.332-.3-.013.222-.145.42S365.851,287.9,365.8,287.862Z" transform="translate(-365.782 -287.142)" fill="#fafafa"/>
          </g>
          <g id="Grupo_57000" data-name="Grupo 57000" transform="translate(11.577 27.866)">
            <path id="Trazado_103897" data-name="Trazado 103897" d="M349.815,289.481c-.062,0-.112-.356-.112-.794s.05-.794.112-.794.112.355.112.794S349.877,289.481,349.815,289.481Z" transform="translate(-349.703 -287.892)" fill="#fafafa"/>
          </g>
          <g id="Grupo_57001" data-name="Grupo 57001" transform="translate(8.596 33.639)">
            <path id="Trazado_103898" data-name="Trazado 103898" d="M343.661,301.941c-.036.05-.262-.051-.5-.227s-.408-.358-.371-.408.262.051.5.227S343.7,301.891,343.661,301.941Z" transform="translate(-342.783 -301.293)" fill="#fafafa"/>
          </g>
          <g id="Grupo_57002" data-name="Grupo 57002" transform="translate(15.658 35.939)">
            <path id="Trazado_103899" data-name="Trazado 103899" d="M359.9,306.661c.025.057-.115.174-.312.261s-.378.113-.4.056.115-.174.312-.261S359.87,306.6,359.9,306.661Z" transform="translate(-359.177 -306.631)" fill="#fafafa"/>
          </g>
          <g id="Grupo_57003" data-name="Grupo 57003" transform="translate(10.882 42.243)">
            <path id="Trazado_103900" data-name="Trazado 103900" d="M348.9,322.856c-.056.028-.278-.306-.5-.744s-.352-.817-.3-.845.278.305.5.744S348.953,322.828,348.9,322.856Z" transform="translate(-348.091 -321.265)" fill="#fafafa"/>
          </g>
          <g id="Grupo_57004" data-name="Grupo 57004" transform="translate(19.3 41.924)">
            <path id="Trazado_103901" data-name="Trazado 103901" d="M367.647,321.72c-.055-.029.043-.32.219-.649s.362-.572.417-.543-.044.319-.219.648S367.7,321.749,367.647,321.72Z" transform="translate(-367.632 -320.526)" fill="#fafafa"/>
          </g>
          <g id="Grupo_57005" data-name="Grupo 57005" transform="translate(15.724 48.28)">
            <path id="Trazado_103902" data-name="Trazado 103902" d="M359.585,336.791c-.064-.009-.059-.349-.125-.754s-.171-.727-.114-.756.267.276.336.721S359.644,336.8,359.585,336.791Z" transform="translate(-359.331 -335.28)" fill="#fafafa"/>
          </g>
          <g id="Grupo_57006" data-name="Grupo 57006" transform="translate(11.601 52.724)">
            <path id="Trazado_103903" data-name="Trazado 103903" d="M350.562,346.476c-.046.042-.261-.12-.48-.361s-.36-.47-.315-.512.261.12.48.361S350.608,346.435,350.562,346.476Z" transform="translate(-349.759 -345.596)" fill="#fafafa"/>
          </g>
          <g id="Grupo_57007" data-name="Grupo 57007" transform="translate(21.073 54.164)">
            <path id="Trazado_103904" data-name="Trazado 103904" d="M371.754,349.826c-.044-.043.114-.276.354-.519s.47-.4.513-.361-.114.276-.354.519S371.8,349.869,371.754,349.826Z" transform="translate(-371.747 -348.939)" fill="#fafafa"/>
          </g>
          <g id="Grupo_57008" data-name="Grupo 57008" transform="translate(16.044 59.325)">
            <path id="Trazado_103905" data-name="Trazado 103905" d="M360.119,362.354c-.061-.009-.062-.338,0-.733s.159-.709.22-.7.062.337,0,.733S360.18,362.363,360.119,362.354Z" transform="translate(-360.072 -360.921)" fill="#fafafa"/>
          </g>
          <g id="Grupo_57009" data-name="Grupo 57009" transform="translate(12.071 62.419)">
            <path id="Trazado_103906" data-name="Trazado 103906" d="M351.511,369.212c-.053.031-.242-.191-.42-.5s-.28-.578-.227-.61.242.191.42.5S351.565,369.181,351.511,369.212Z" transform="translate(-350.85 -368.103)" fill="#fafafa"/>
          </g>
          <g id="Grupo_57010" data-name="Grupo 57010" transform="translate(19.706 67.014)">
            <path id="Trazado_103907" data-name="Trazado 103907" d="M369.689,378.779c.036.05-.184.269-.491.489s-.585.357-.621.307.184-.269.49-.489S369.653,378.729,369.689,378.779Z" transform="translate(-368.574 -378.769)" fill="#fafafa"/>
          </g>
          <g id="Grupo_57011" data-name="Grupo 57011" transform="translate(14.062 69.968)">
            <path id="Trazado_103908" data-name="Trazado 103908" d="M355.493,387.22c-.06-.022.017-.369.053-.8s.025-.783.088-.794.178.352.136.814S355.549,387.243,355.493,387.22Z" transform="translate(-355.471 -385.628)" fill="#fafafa"/>
          </g>
          <g id="Grupo_57012" data-name="Grupo 57012" transform="translate(16.125 77.27)">
            <path id="Trazado_103909" data-name="Trazado 103909" d="M360.91,403.378c-.049.039-.23-.108-.405-.327s-.279-.429-.23-.467.23.108.405.327S360.958,403.34,360.91,403.378Z" transform="translate(-360.262 -402.578)" fill="#fafafa"/>
          </g>
          <g id="Grupo_57013" data-name="Grupo 57013" transform="translate(12.95 81.165)">
            <path id="Trazado_103910" data-name="Trazado 103910" d="M353.775,412.9c-.051.035-.288-.221-.529-.572s-.4-.664-.345-.7.288.221.529.572S353.826,412.86,353.775,412.9Z" transform="translate(-352.892 -411.621)" fill="#fafafa"/>
          </g>
          <g id="Grupo_57014" data-name="Grupo 57014" transform="translate(21.897 76.321)">
            <path id="Trazado_103911" data-name="Trazado 103911" d="M373.7,401.012c-.058-.022-.052-.182.014-.357s.166-.3.224-.278.052.181-.014.357S373.758,401.034,373.7,401.012Z" transform="translate(-373.66 -400.374)" fill="#fafafa"/>
          </g>
          <g id="Grupo_57015" data-name="Grupo 57015" transform="translate(18.346 85.935)">
            <path id="Trazado_103912" data-name="Trazado 103912" d="M365.433,424.123c-.057-.03.051-.336.135-.72s.119-.706.183-.71.13.341.036.758S365.485,424.152,365.433,424.123Z" transform="translate(-365.417 -422.693)" fill="#fafafa"/>
          </g>
          <g id="Grupo_57016" data-name="Grupo 57016" transform="translate(20.254 19.915)">
            <path id="Trazado_103913" data-name="Trazado 103913" d="M370.277,270.307c-.056.026-.193-.147-.3-.387s-.158-.456-.1-.482.193.147.3.387S370.333,270.281,370.277,270.307Z" transform="translate(-369.846 -269.435)" fill="#fafafa"/>
          </g>
          <g id="Grupo_57017" data-name="Grupo 57017" transform="translate(13.505 7.362)">
            <path id="Trazado_103914" data-name="Trazado 103914" d="M355.382,240.3c.034.055-.269.3-.589.641s-.545.66-.6.63.092-.416.439-.783S355.353,240.251,355.382,240.3Z" transform="translate(-354.18 -240.294)" fill="#fafafa"/>
          </g>
          <g id="Grupo_57018" data-name="Grupo 57018" transform="translate(19.465 6.095)">
            <path id="Trazado_103915" data-name="Trazado 103915" d="M368.579,238.469c-.062.013-.164-.243-.313-.538s-.29-.531-.243-.573.281.146.443.473S368.639,238.459,368.579,238.469Z" transform="translate(-368.014 -237.352)" fill="#fafafa"/>
          </g>
          <g id="Grupo_57019" data-name="Grupo 57019" transform="translate(3.426 10.395)">
            <path id="Trazado_103916" data-name="Trazado 103916" d="M330.8,248.528c-.058-.022,0-.308.131-.638s.283-.578.34-.555,0,.308-.132.638S330.861,248.551,330.8,248.528Z" transform="translate(-330.782 -247.334)" fill="#fafafa"/>
          </g>
          <g id="Grupo_57020" data-name="Grupo 57020" transform="translate(3.025 17.292)">
            <path id="Trazado_103917" data-name="Trazado 103917" d="M330.809,264.148c-.04.047-.285-.092-.548-.311s-.445-.436-.4-.483.285.092.549.311S330.849,264.1,330.809,264.148Z" transform="translate(-329.85 -263.344)" fill="#fafafa"/>
          </g>
          <g id="Grupo_57021" data-name="Grupo 57021" transform="translate(14.518 1.412)">
            <path id="Trazado_103918" data-name="Trazado 103918" d="M356.879,227.276c-.058.023-.175-.136-.263-.355s-.112-.416-.055-.439.175.136.263.355S356.936,227.253,356.879,227.276Z" transform="translate(-356.53 -226.48)" fill="#fafafa"/>
          </g>
          <g id="Grupo_57022" data-name="Grupo 57022" transform="translate(25.244 4.277)">
            <path id="Trazado_103919" data-name="Trazado 103919" d="M381.473,234.243c-.06-.013-.055-.273.013-.579s.171-.545.231-.532.055.273-.012.579S381.534,234.257,381.473,234.243Z" transform="translate(-381.431 -233.132)" fill="#fafafa"/>
          </g>
          <g id="Grupo_57023" data-name="Grupo 57023" transform="translate(27.717 8.959)">
            <path id="Trazado_103920" data-name="Trazado 103920" d="M387.189,245.352c-.057-.024.021-.345.174-.718s.325-.656.382-.633-.021.345-.174.718S387.246,245.375,387.189,245.352Z" transform="translate(-387.17 -244)" fill="#fafafa"/>
          </g>
          <g id="Grupo_57024" data-name="Grupo 57024" transform="translate(25.259 12.851)">
            <path id="Trazado_103921" data-name="Trazado 103921" d="M382.194,254.467c-.056.028-.261-.27-.458-.665s-.312-.737-.257-.765.261.27.458.665S382.249,254.439,382.194,254.467Z" transform="translate(-381.465 -253.035)" fill="#fafafa"/>
          </g>
          <g id="Grupo_57025" data-name="Grupo 57025" transform="translate(29.695 17.22)">
            <path id="Trazado_103922" data-name="Trazado 103922" d="M391.79,264.212c-.058-.022-.016-.271.094-.557s.246-.5.3-.476.016.271-.094.557S391.847,264.234,391.79,264.212Z" transform="translate(-391.764 -263.178)" fill="#fafafa"/>
          </g>
          <g id="Grupo_57026" data-name="Grupo 57026" transform="translate(25.966 21.506)">
            <path id="Trazado_103923" data-name="Trazado 103923" d="M383.525,273.768c-.053.033-.184-.083-.294-.258s-.156-.344-.1-.377.184.083.294.258S383.578,273.735,383.525,273.768Z" transform="translate(-383.107 -273.126)" fill="#fafafa"/>
          </g>
          <g id="Grupo_57027" data-name="Grupo 57027" transform="translate(26.058 29.055)">
            <path id="Trazado_103924" data-name="Trazado 103924" d="M384.358,291.769c-.046.042-.314-.173-.6-.48s-.479-.59-.434-.632.314.173.6.48S384.4,291.727,384.358,291.769Z" transform="translate(-383.319 -290.652)" fill="#fafafa"/>
          </g>
          <g id="Grupo_57028" data-name="Grupo 57028" transform="translate(30.586 24.446)">
            <path id="Trazado_103925" data-name="Trazado 103925" d="M394.714,281.069c-.049.038-.284-.18-.525-.487s-.4-.587-.349-.625.284.18.525.487S394.763,281.03,394.714,281.069Z" transform="translate(-393.831 -279.952)" fill="#fafafa"/>
          </g>
          <g id="Grupo_57029" data-name="Grupo 57029" transform="translate(33.852 30.575)">
            <path id="Trazado_103926" data-name="Trazado 103926" d="M401.428,295.529c-.056-.027.042-.35.218-.722s.365-.653.421-.626-.042.35-.218.722S401.484,295.556,401.428,295.529Z" transform="translate(-401.412 -294.179)" fill="#fafafa"/>
          </g>
          <g id="Grupo_57030" data-name="Grupo 57030" transform="translate(27.733 36.193)">
            <path id="Trazado_103927" data-name="Trazado 103927" d="M388.244,308.189c-.055.033-.255-.206-.532-.46s-.529-.436-.5-.493.35.048.653.329S388.3,308.16,388.244,308.189Z" transform="translate(-387.209 -307.222)" fill="#fafafa"/>
          </g>
          <g id="Grupo_57031" data-name="Grupo 57031" transform="translate(28.133 42.45)">
            <path id="Trazado_103928" data-name="Trazado 103928" d="M389.089,321.859c0,.062-.214.112-.477.112s-.476-.05-.476-.112.213-.112.476-.112S389.089,321.8,389.089,321.859Z" transform="translate(-388.136 -321.747)" fill="#fafafa"/>
          </g>
          <g id="Grupo_57032" data-name="Grupo 57032" transform="translate(34.314 39.782)">
            <path id="Trazado_103929" data-name="Trazado 103929" d="M402.5,316.824c-.054-.034.056-.3.139-.641s.115-.626.179-.63.134.308.039.685S402.549,316.858,402.5,316.824Z" transform="translate(-402.486 -315.553)" fill="#fafafa"/>
          </g>
          <g id="Grupo_57033" data-name="Grupo 57033" transform="translate(39.017 41.441)">
            <path id="Trazado_103930" data-name="Trazado 103930" d="M413.923,320.828c-.059.02-.218-.281-.355-.674s-.2-.728-.143-.748.218.281.355.674S413.982,320.807,413.923,320.828Z" transform="translate(-413.403 -319.405)" fill="#fafafa"/>
          </g>
          <g id="Grupo_57034" data-name="Grupo 57034" transform="translate(38.695 48.76)">
            <path id="Trazado_103931" data-name="Trazado 103931" d="M412.669,337.907c-.055-.028.078-.39.3-.807s.44-.732.5-.7-.078.39-.3.808S412.723,337.936,412.669,337.907Z" transform="translate(-412.656 -336.395)" fill="#fafafa"/>
          </g>
          <g id="Grupo_57035" data-name="Grupo 57035" transform="translate(33.353 53.207)">
            <path id="Trazado_103932" data-name="Trazado 103932" d="M400.855,348.138c-.057.024-.234-.275-.395-.666s-.245-.729-.187-.753.234.275.4.667S400.913,348.115,400.855,348.138Z" transform="translate(-400.255 -346.718)" fill="#fafafa"/>
          </g>
          <g id="Grupo_57036" data-name="Grupo 57036" transform="translate(27.894 56.193)">
            <path id="Trazado_103933" data-name="Trazado 103933" d="M388.377,353.761c0,.062-.178.112-.4.112s-.4-.05-.4-.112.177-.112.4-.112S388.377,353.7,388.377,353.761Z" transform="translate(-387.583 -353.649)" fill="#fafafa"/>
          </g>
          <g id="Grupo_57037" data-name="Grupo 57037" transform="translate(31.356 62.023)">
            <path id="Trazado_103934" data-name="Trazado 103934" d="M395.97,368.377c-.06.016-.18-.238-.267-.566s-.111-.609-.051-.625.18.238.267.567S396.03,368.361,395.97,368.377Z" transform="translate(-395.618 -367.184)" fill="#fafafa"/>
          </g>
          <g id="Grupo_57038" data-name="Grupo 57038" transform="translate(27.876 60.114)">
            <path id="Trazado_103935" data-name="Trazado 103935" d="M387.558,363.55c-.053-.032.01-.236.142-.455s.282-.371.335-.339-.01.235-.142.455S387.611,363.582,387.558,363.55Z" transform="translate(-387.539 -362.751)" fill="#fafafa"/>
          </g>
          <g id="Grupo_57039" data-name="Grupo 57039" transform="translate(27.599 67.188)">
            <path id="Trazado_103936" data-name="Trazado 103936" d="M387.112,380.523c-.062.007-.147-.289-.191-.662s-.029-.681.032-.688.147.289.191.662S387.174,380.516,387.112,380.523Z" transform="translate(-386.896 -379.173)" fill="#fafafa"/>
          </g>
        </g>
      </g>
    </g>
  </g>
</svg>
