<svg xmlns="http://www.w3.org/2000/svg" width="268.412" height="215.267" viewBox="0 0 268.412 215.267">
  <g id="Grupo_64048" data-name="Grupo 64048" transform="translate(-21.701 -75.844)">
    <g id="Grupo_63793" data-name="Grupo 63793" transform="translate(36.386 75.844)">
      <g id="Grupo_63792" data-name="Grupo 63792" transform="translate(0 0)">
        <path id="Trazado_112002" data-name="Trazado 112002" d="M291.006,191.029c-1.456,12.336-11.1,25.161-26.084,35.92l0,0c-1.073.913-43.263,41.247-105.8,46.692C99.863,278.8,49.13,252.3,46.363,193.675c-2.507-53.1,27.6-89.022,27.6-89.022h0a53.622,53.622,0,0,1,5.057-5.939q.536-.544,1.072-1.068c24.9-24.354,68.34-13.857,77.98,18.731,6,20.287,19.454,42.338,49.586,36.513C260.992,142.583,295.359,154.166,291.006,191.029Z" transform="translate(-46.215 -84.278)" fill="#eee2f6"/>
        <path id="Trazado_112003" data-name="Trazado 112003" d="M439.842,303.389c-2.756,3.889-.613,8.51,4.121,8.685a9.265,9.265,0,0,0,5.391-1.683c7.7-4.953,8.155-12,1.6-14.244C446.915,294.765,442.573,299.535,439.842,303.389Z" transform="translate(-203.542 -169.125)" fill="#eee2f6"/>
      </g>
    </g>
    <ellipse id="Elipse_4843" data-name="Elipse 4843" cx="122.064" cy="5.322" rx="122.064" ry="5.322" transform="translate(39.119 265.369)" fill="#eee2f6"/>
    <g id="Grupo_63822" data-name="Grupo 63822" transform="translate(21.701 63.242)">
      <g id="Grupo_63795" data-name="Grupo 63795" transform="translate(0 107.6)">
        <path id="Trazado_112004" data-name="Trazado 112004" d="M61.509,283.2c-4.415-4.449-14.057-14.878-20.132-26.718C32.66,239.486,23.918,241,22.2,247.011c-4.436,15.535,21.693,32.418,32.528,38.655Z" transform="translate(-21.701 -242.853)" fill="#a468d1"/>
        <g id="Grupo_63794" data-name="Grupo 63794" transform="translate(8.842 11.211)">
          <path id="Trazado_112005" data-name="Trazado 112005" d="M65.041,291.568a119.93,119.93,0,0,1-18.41-17.547,129.43,129.43,0,0,1-9.4-12.263.419.419,0,0,0-.7.457,130.261,130.261,0,0,0,9.457,12.341A121.43,121.43,0,0,0,64.1,291.91Z" transform="translate(-36.46 -261.567)" fill="#9b59cd"/>
        </g>
      </g>
      <g id="Grupo_63797" data-name="Grupo 63797" transform="translate(19.162 108.521)">
        <path id="Trazado_112006" data-name="Trazado 112006" d="M73.24,277.832c-2.045-4.08-5.921-12.629-7.359-21.34-2.148-13.015-8.217-13.861-10.613-10.272-6.58,9.855,9.189,27.985,14.218,33.352Z" transform="translate(-53.687 -244.391)" fill="#9b59cd"/>
        <g id="Grupo_63796" data-name="Grupo 63796" transform="translate(5.475 8.303)">
          <path id="Trazado_112007" data-name="Trazado 112007" d="M75.476,284.051a82.644,82.644,0,0,1-8.485-15.538A89.531,89.531,0,0,1,63.4,258.463a.29.29,0,0,0-.559.152,90.045,90.045,0,0,0,3.615,10.113,83.349,83.349,0,0,0,8.489,15.57Z" transform="translate(-62.827 -258.251)" fill="#8f46c7"/>
        </g>
      </g>
      <g id="Grupo_63799" data-name="Grupo 63799" transform="translate(231.12 151.849)">
        <path id="Trazado_112008" data-name="Trazado 112008" d="M407.5,359.523c4.068-4.768,12.9-15.89,18.071-28.153,7.419-17.6,16.25-16.739,18.411-10.878,5.589,15.158-19.2,33.954-29.537,40.985Z" transform="translate(-407.498 -316.715)" fill="#a468d1"/>
        <g id="Grupo_63798" data-name="Grupo 63798" transform="translate(2.445 11.466)">
          <path id="Trazado_112009" data-name="Trazado 112009" d="M411.579,367.884a119.979,119.979,0,0,0,17.041-18.879,129.525,129.525,0,0,0,8.454-12.933.419.419,0,0,1,.736.4,130.4,130.4,0,0,1-8.505,13.017,121.447,121.447,0,0,1-16.764,18.664Z" transform="translate(-411.579 -335.855)" fill="#9b59cd"/>
        </g>
      </g>
      <g id="Grupo_63801" data-name="Grupo 63801" transform="translate(231.762 154.142)">
        <path id="Trazado_112010" data-name="Trazado 112010" d="M408.569,355.013c1.733-4.222,4.957-13.038,5.737-21.831,1.166-13.139,7.155-14.438,9.813-11.04,7.3,9.334-7.064,28.6-11.677,34.324Z" transform="translate(-408.569 -320.544)" fill="#9b59cd"/>
        <g id="Grupo_63800" data-name="Grupo 63800" transform="translate(1.475 8.366)">
          <path id="Trazado_112011" data-name="Trazado 112011" d="M411.031,361.165a82.687,82.687,0,0,0,7.3-16.131,89.382,89.382,0,0,0,2.831-10.291.29.29,0,0,1,.568.11,89.857,89.857,0,0,1-2.847,10.356,83.344,83.344,0,0,1-7.3,16.163Z" transform="translate(-411.031 -334.509)" fill="#8f46c7"/>
        </g>
      </g>
      <path id="Trazado_112013" data-name="Trazado 112013" d="M431.91,208.913c1.918-6.882,5-13.045,7.662-10.166s-2.845,13.387-10.19,18.842l-2.055,2.453c5.283-4.069,13.395-6.072,15.318-3.354,1.912,2.7-3.609,3.543-8.78,3.472a18.459,18.459,0,0,0-7.794,1.382l-9.7,11.585c8.385-6.419,21.192-9.567,24.235-5.268s-5.727,5.622-13.932,5.508a29.386,29.386,0,0,0-12.325,2.174l-1.935,2.31q-.679-.409-1.355-.826L422.6,223.241a20.322,20.322,0,0,0-.292-6.363c-.976-5.078-1.115-10.661,1.878-9.253,2.6,1.222,2.547,7.59.51,13.113l3.993-4.767A29.51,29.51,0,0,0,431.91,208.913Z" transform="translate(-177.804 -117.279)" fill="#a468d1"/>
    </g>
    <g id="Grupo_63865" data-name="Grupo 63865" transform="translate(25.652 80.624)">
      <g id="Grupo_63840" data-name="Grupo 63840" transform="translate(0 61.408)">
        <g id="Grupo_63823" data-name="Grupo 63823" transform="translate(4.196 13.715)">
          <path id="Trazado_112022" data-name="Trazado 112022" d="M38.642,224.339A3.341,3.341,0,1,1,41.984,221,3.345,3.345,0,0,1,38.642,224.339Zm0-5.634A2.293,2.293,0,1,0,40.935,221,2.3,2.3,0,0,0,38.642,218.7Z" transform="translate(-35.301 -217.656)" fill="#f47b8c"/>
        </g>
        <g id="Grupo_63824" data-name="Grupo 63824" transform="translate(13.948)">
          <path id="Trazado_112023" data-name="Trazado 112023" d="M54.921,201.445a3.341,3.341,0,1,1,3.342-3.341A3.345,3.345,0,0,1,54.921,201.445Zm0-5.634a2.293,2.293,0,1,0,2.293,2.293A2.3,2.3,0,0,0,54.921,195.81Z" transform="translate(-51.58 -194.762)" fill="#f47b8c"/>
        </g>
        <g id="Grupo_63831" data-name="Grupo 63831" transform="translate(17.649 14.181)">
          <g id="Grupo_63827" data-name="Grupo 63827" transform="translate(3.245)">
            <g id="Grupo_63825" data-name="Grupo 63825">
              <path id="Trazado_112024" data-name="Trazado 112024" d="M63.7,221.794a.524.524,0,0,1-.524-.524v-2.311a.524.524,0,0,1,1.048,0v2.311A.524.524,0,0,1,63.7,221.794Z" transform="translate(-63.174 -218.434)" fill="#a468d1"/>
            </g>
            <g id="Grupo_63826" data-name="Grupo 63826" transform="translate(0 4.045)">
              <path id="Trazado_112025" data-name="Trazado 112025" d="M63.7,228.546a.524.524,0,0,1-.524-.524V225.71a.524.524,0,0,1,1.048,0v2.312A.524.524,0,0,1,63.7,228.546Z" transform="translate(-63.174 -225.186)" fill="#a468d1"/>
            </g>
          </g>
          <g id="Grupo_63830" data-name="Grupo 63830" transform="translate(0 3.178)">
            <g id="Grupo_63828" data-name="Grupo 63828" transform="translate(4.413)">
              <path id="Trazado_112026" data-name="Trazado 112026" d="M67.725,224.787H65.648a.524.524,0,0,1,0-1.048h2.076a.524.524,0,1,1,0,1.048Z" transform="translate(-65.124 -223.739)" fill="#a468d1"/>
            </g>
            <g id="Grupo_63829" data-name="Grupo 63829">
              <path id="Trazado_112027" data-name="Trazado 112027" d="M60.359,224.787H58.282a.524.524,0,1,1,0-1.048h2.076a.524.524,0,1,1,0,1.048Z" transform="translate(-57.758 -223.739)" fill="#a468d1"/>
            </g>
          </g>
        </g>
        <g id="Grupo_63839" data-name="Grupo 63839" transform="translate(0 0.179)">
          <g id="Grupo_63838" data-name="Grupo 63838">
            <g id="Grupo_63834" data-name="Grupo 63834" transform="translate(3.244)">
              <g id="Grupo_63832" data-name="Grupo 63832">
                <path id="Trazado_112028" data-name="Trazado 112028" d="M34.236,198.42a.524.524,0,0,1-.524-.524v-2.311a.524.524,0,0,1,1.048,0V197.9A.524.524,0,0,1,34.236,198.42Z" transform="translate(-33.712 -195.06)" fill="#9b59cd"/>
              </g>
              <g id="Grupo_63833" data-name="Grupo 63833" transform="translate(0 4.045)">
                <path id="Trazado_112029" data-name="Trazado 112029" d="M34.236,205.172a.524.524,0,0,1-.524-.524v-2.312a.524.524,0,1,1,1.048,0v2.312A.524.524,0,0,1,34.236,205.172Z" transform="translate(-33.712 -201.812)" fill="#9b59cd"/>
              </g>
            </g>
            <g id="Grupo_63837" data-name="Grupo 63837" transform="translate(0 3.178)">
              <g id="Grupo_63835" data-name="Grupo 63835" transform="translate(4.412)">
                <path id="Trazado_112030" data-name="Trazado 112030" d="M38.263,201.413H36.186a.524.524,0,1,1,0-1.048h2.076a.524.524,0,1,1,0,1.048Z" transform="translate(-35.662 -200.365)" fill="#9b59cd"/>
              </g>
              <g id="Grupo_63836" data-name="Grupo 63836">
                <path id="Trazado_112031" data-name="Trazado 112031" d="M30.9,201.413H28.821a.524.524,0,1,1,0-1.048H30.9a.524.524,0,0,1,0,1.048Z" transform="translate(-28.297 -200.365)" fill="#9b59cd"/>
              </g>
            </g>
          </g>
        </g>
      </g>
      <g id="Grupo_63859" data-name="Grupo 63859" transform="translate(170.796)">
        <g id="Grupo_63842" data-name="Grupo 63842" transform="translate(22.507 19.505)">
          <g id="Grupo_63841" data-name="Grupo 63841">
            <path id="Trazado_112032" data-name="Trazado 112032" d="M350.967,128.157a3.342,3.342,0,1,1,3.342,3.342A3.345,3.345,0,0,1,350.967,128.157Zm1.048,0a2.293,2.293,0,1,0,2.293-2.293A2.3,2.3,0,0,0,352.015,128.157Z" transform="translate(-350.967 -124.815)" fill="#f47b8c"/>
          </g>
        </g>
        <g id="Grupo_63843" data-name="Grupo 63843" transform="translate(7.493 12.008)">
          <path id="Trazado_112033" data-name="Trazado 112033" d="M325.9,115.644a3.341,3.341,0,1,1,3.342,3.342A3.345,3.345,0,0,1,325.9,115.644Zm1.048,0a2.293,2.293,0,1,0,2.293-2.293A2.3,2.3,0,0,0,326.953,115.644Z" transform="translate(-325.905 -112.302)" fill="#a468d1"/>
        </g>
        <g id="Grupo_63850" data-name="Grupo 63850" transform="translate(0 26.112)">
          <g id="Grupo_63846" data-name="Grupo 63846" transform="translate(3.245)">
            <g id="Grupo_63844" data-name="Grupo 63844">
              <path id="Trazado_112034" data-name="Trazado 112034" d="M319.338,139.2a.524.524,0,0,0,.524-.524v-2.312a.524.524,0,1,0-1.048,0v2.312A.524.524,0,0,0,319.338,139.2Z" transform="translate(-318.814 -135.844)" fill="#f47b8c"/>
            </g>
            <g id="Grupo_63845" data-name="Grupo 63845" transform="translate(0 4.046)">
              <path id="Trazado_112035" data-name="Trazado 112035" d="M319.338,145.957a.524.524,0,0,0,.524-.524v-2.312a.524.524,0,0,0-1.048,0v2.312A.524.524,0,0,0,319.338,145.957Z" transform="translate(-318.814 -142.597)" fill="#f47b8c"/>
            </g>
          </g>
          <g id="Grupo_63849" data-name="Grupo 63849" transform="translate(0 3.179)">
            <g id="Grupo_63847" data-name="Grupo 63847">
              <path id="Trazado_112036" data-name="Trazado 112036" d="M313.922,142.2H316a.524.524,0,1,0,0-1.048h-2.076a.524.524,0,1,0,0,1.048Z" transform="translate(-313.398 -141.15)" fill="#f47b8c"/>
            </g>
            <g id="Grupo_63848" data-name="Grupo 63848" transform="translate(4.412)">
              <path id="Trazado_112037" data-name="Trazado 112037" d="M321.287,142.2h2.076a.524.524,0,1,0,0-1.048h-2.076a.524.524,0,1,0,0,1.048Z" transform="translate(-320.763 -141.15)" fill="#f47b8c"/>
            </g>
          </g>
        </g>
        <g id="Grupo_63858" data-name="Grupo 63858" transform="translate(22.723)">
          <g id="Grupo_63857" data-name="Grupo 63857">
            <g id="Grupo_63853" data-name="Grupo 63853" transform="translate(3.245)">
              <g id="Grupo_63851" data-name="Grupo 63851">
                <path id="Trazado_112038" data-name="Trazado 112038" d="M357.269,95.617a.524.524,0,0,0,.524-.524V92.781a.524.524,0,1,0-1.048,0v2.311A.524.524,0,0,0,357.269,95.617Z" transform="translate(-356.745 -92.257)" fill="#9b59cd"/>
              </g>
              <g id="Grupo_63852" data-name="Grupo 63852" transform="translate(0 4.045)">
                <path id="Trazado_112039" data-name="Trazado 112039" d="M357.269,102.369a.524.524,0,0,0,.524-.524V99.533a.524.524,0,1,0-1.048,0v2.311A.524.524,0,0,0,357.269,102.369Z" transform="translate(-356.745 -99.009)" fill="#9b59cd"/>
              </g>
            </g>
            <g id="Grupo_63856" data-name="Grupo 63856" transform="translate(0 3.178)">
              <g id="Grupo_63854" data-name="Grupo 63854">
                <path id="Trazado_112040" data-name="Trazado 112040" d="M351.853,98.61h2.076a.524.524,0,1,0,0-1.048h-2.076a.524.524,0,1,0,0,1.048Z" transform="translate(-351.329 -97.562)" fill="#9b59cd"/>
              </g>
              <g id="Grupo_63855" data-name="Grupo 63855" transform="translate(4.413)">
                <path id="Trazado_112041" data-name="Trazado 112041" d="M359.219,98.61H361.3c.289,0,.667-.235.667-.524s-.378-.524-.667-.524h-2.077a.524.524,0,0,0,0,1.048Z" transform="translate(-358.695 -97.562)" fill="#9b59cd"/>
              </g>
            </g>
          </g>
        </g>
      </g>
      <g id="Grupo_63860" data-name="Grupo 63860" transform="translate(93.141 12.777)">
        <rect id="Rectángulo_6552" data-name="Rectángulo 6552" width="20.138" height="20.138" rx="10.069" fill="#fff"/>
        <path id="Trazado_112042" data-name="Trazado 112042" d="M202.786,125.842a3.5,3.5,0,0,1-1.024,2.483l-4.664,4.664-4.664-4.664a3.521,3.521,0,0,1,0-4.965c1.274-1.274,3.215-1.044,4.665,1.109,1.45-2.153,3.391-2.383,4.665-1.109A3.5,3.5,0,0,1,202.786,125.842Z" transform="translate(-186.834 -117.191)" fill="#f47b8c"/>
      </g>
      <g id="Grupo_63864" data-name="Grupo 63864" transform="translate(131.907 14.849)">
        <g id="Grupo_63861" data-name="Grupo 63861">
          <path id="Trazado_112043" data-name="Trazado 112043" d="M277.486,119.618v10.755a2.575,2.575,0,0,1-2.575,2.575H255.383l-5.9,2.115a.75.75,0,0,1-.953-.976l2.23-5.759v-8.71a2.576,2.576,0,0,1,2.577-2.575h21.57A2.576,2.576,0,0,1,277.486,119.618Z" transform="translate(-248.482 -117.043)" fill="#f47b8c"/>
        </g>
        <g id="Grupo_63863" data-name="Grupo 63863" transform="translate(8.313 6.396)" style="mix-blend-mode: screen;isolation: isolate">
          <g id="Grupo_63862" data-name="Grupo 63862">
            <path id="Trazado_112044" data-name="Trazado 112044" d="M266.085,129.582a1.863,1.863,0,1,1-1.863-1.863A1.863,1.863,0,0,1,266.085,129.582Z" transform="translate(-262.359 -127.719)" fill="#f693a1"/>
            <path id="Trazado_112045" data-name="Trazado 112045" d="M275.929,129.582a1.863,1.863,0,1,1-1.863-1.863A1.863,1.863,0,0,1,275.929,129.582Z" transform="translate(-266.306 -127.719)" fill="#f693a1"/>
            <circle id="Elipse_4844" data-name="Elipse 4844" cx="1.863" cy="1.863" r="1.863" transform="translate(11.794 0)" fill="#f693a1"/>
          </g>
        </g>
      </g>
    </g>
    <g id="Grupo_63948" data-name="Grupo 63948" transform="translate(54.864 117.925)">
      <path id="Trazado_112046" data-name="Trazado 112046" d="M284.063,157V304.662a2.479,2.479,0,0,1-2.479,2.478H79.537a2.476,2.476,0,0,1-2.478-2.478V157a2.479,2.479,0,0,1,2.478-2.479H281.584A2.479,2.479,0,0,1,284.063,157Z" transform="translate(-77.059 -154.521)" fill="#934bc8"/>
      <path id="Trazado_112047" data-name="Trazado 112047" d="M284.613,157.672V305.335a2.479,2.479,0,0,1-2.479,2.478H80.087a2.473,2.473,0,0,1-1.655-.633L284.127,156.2A2.47,2.47,0,0,1,284.613,157.672Z" transform="translate(-77.609 -155.193)" fill="#38185d"/>
      <path id="Rectángulo_6553" data-name="Rectángulo 6553" d="M4.558,0H190.673a4.558,4.558,0,0,1,4.558,4.558V136.29a4.556,4.556,0,0,1-4.556,4.556H4.558A4.558,4.558,0,0,1,0,136.288V4.558A4.558,4.558,0,0,1,4.558,0Z" transform="translate(5.886 5.886)" fill="#fff"/>
      <g id="Grupo_63887" data-name="Grupo 63887" transform="translate(48.859 101.357)">
        <rect id="Rectángulo_6554" data-name="Rectángulo 6554" width="80.396" height="28.756" rx="6.38" transform="translate(2.444 3.085)" fill="#eee2f6"/>
        <g id="Grupo_63886" data-name="Grupo 63886">
          <rect id="Rectángulo_6555" data-name="Rectángulo 6555" width="80.396" height="28.756" rx="6.38" fill="#a468d1"/>
          <g id="Grupo_63868" data-name="Grupo 63868" transform="translate(2.979 2.098)">
            <g id="Grupo_63867" data-name="Grupo 63867">
              <g id="Grupo_63866" data-name="Grupo 63866">
                <path id="Trazado_112048" data-name="Trazado 112048" d="M187.771,339.3A12.035,12.035,0,0,1,185,347a12.088,12.088,0,0,1-18.644,0,12.09,12.09,0,1,1,21.412-7.7Z" transform="translate(-163.59 -327.214)" fill="#9b59cd"/>
              </g>
            </g>
            <circle id="Elipse_4845" data-name="Elipse 4845" cx="4.637" cy="4.637" r="4.637" transform="translate(7.454 4.489)" fill="#b17dd8"/>
            <path id="Trazado_112049" data-name="Trazado 112049" d="M186.419,358.649a12.09,12.09,0,0,1-16.008,0,7.094,7.094,0,0,1,2.971-4.216,8.855,8.855,0,0,1,10.067,0A7.1,7.1,0,0,1,186.419,358.649Z" transform="translate(-166.325 -337.497)" fill="#b17dd8"/>
          </g>
          <g id="Grupo_63884" data-name="Grupo 63884" transform="translate(30.711 5.044)">
            <g id="Grupo_63871" data-name="Grupo 63871">
              <g id="Grupo_63870" data-name="Grupo 63870">
                <g id="Grupo_63869" data-name="Grupo 63869">
                  <path id="Trazado_112050" data-name="Trazado 112050" d="M211.372,338.747c.008-.032.013-.055.02-.076q.359-1.115.719-2.229a.084.084,0,0,0-.038-.113q-1.073-.794-2.143-1.593a.156.156,0,0,1-.05-.055h.156q1.294-.013,2.587-.026a.074.074,0,0,0,.083-.063q.384-1.2.772-2.4c0-.016.011-.032.02-.061.012.029.021.049.028.069q.448,1.225.9,2.451a.091.091,0,0,0,.1.072c.8-.007,1.606-.01,2.409-.015a.35.35,0,0,1,.1.011l-.052.037q-1.044.708-2.088,1.415a.079.079,0,0,0-.038.111q.425,1.224.846,2.448c.007.02.012.04.022.075-.04-.027-.067-.045-.093-.064q-1.027-.727-2.052-1.456a.075.075,0,0,0-.1,0q-1.016.709-2.034,1.415Z" transform="translate(-209.882 -332.131)" fill="#fff"/>
                </g>
              </g>
            </g>
            <g id="Grupo_63874" data-name="Grupo 63874" transform="translate(9.185)">
              <g id="Grupo_63873" data-name="Grupo 63873">
                <g id="Grupo_63872" data-name="Grupo 63872">
                  <path id="Trazado_112051" data-name="Trazado 112051" d="M226.7,338.747c.009-.032.014-.055.02-.076q.359-1.115.72-2.229a.084.084,0,0,0-.038-.113q-1.072-.794-2.142-1.593a.151.151,0,0,1-.05-.055h.156q1.294-.013,2.587-.026a.073.073,0,0,0,.082-.063q.385-1.2.772-2.4l.02-.061c.012.029.021.049.029.069q.448,1.225.9,2.451a.092.092,0,0,0,.1.072c.8-.007,1.605-.01,2.409-.015a.35.35,0,0,1,.1.011l-.052.037q-1.043.708-2.088,1.415a.079.079,0,0,0-.037.111q.425,1.224.846,2.448c.007.02.011.04.022.075l-.094-.064q-1.026-.727-2.052-1.456a.075.075,0,0,0-.1,0q-1.016.709-2.034,1.415Z" transform="translate(-225.214 -332.131)" fill="#fff"/>
                </g>
              </g>
            </g>
            <g id="Grupo_63877" data-name="Grupo 63877" transform="translate(18.369)">
              <g id="Grupo_63876" data-name="Grupo 63876">
                <g id="Grupo_63875" data-name="Grupo 63875">
                  <path id="Trazado_112052" data-name="Trazado 112052" d="M242.035,338.747c.008-.032.013-.055.02-.076q.359-1.115.719-2.229a.084.084,0,0,0-.038-.113q-1.073-.794-2.143-1.593a.156.156,0,0,1-.05-.055h.156q1.293-.013,2.587-.026a.074.074,0,0,0,.083-.063q.385-1.2.772-2.4c0-.016.011-.032.02-.061.012.029.021.049.028.069q.448,1.225.9,2.451a.091.091,0,0,0,.1.072c.8-.007,1.606-.01,2.409-.015a.35.35,0,0,1,.1.011l-.052.037q-1.044.708-2.088,1.415a.079.079,0,0,0-.038.111q.425,1.224.846,2.448c.007.02.011.04.021.075-.04-.027-.067-.045-.093-.064q-1.027-.727-2.052-1.456a.075.075,0,0,0-.1,0q-1.016.709-2.034,1.415Z" transform="translate(-240.545 -332.131)" fill="#fff"/>
                </g>
              </g>
            </g>
            <g id="Grupo_63880" data-name="Grupo 63880" transform="translate(27.554)">
              <g id="Grupo_63879" data-name="Grupo 63879">
                <g id="Grupo_63878" data-name="Grupo 63878">
                  <path id="Trazado_112053" data-name="Trazado 112053" d="M257.367,338.747c.008-.032.013-.055.02-.076q.359-1.115.72-2.229a.084.084,0,0,0-.038-.113q-1.072-.794-2.142-1.593a.151.151,0,0,1-.05-.055h.156q1.294-.013,2.587-.026a.074.074,0,0,0,.083-.063q.384-1.2.772-2.4l.02-.061c.012.029.021.049.029.069q.448,1.225.9,2.451a.092.092,0,0,0,.1.072c.8-.007,1.606-.01,2.409-.015a.35.35,0,0,1,.1.011l-.052.037q-1.043.708-2.088,1.415a.079.079,0,0,0-.037.111q.425,1.224.846,2.448c.007.02.011.04.022.075l-.094-.064q-1.026-.727-2.052-1.456a.074.074,0,0,0-.1,0q-1.016.709-2.035,1.415Z" transform="translate(-255.877 -332.131)" fill="#fff"/>
                </g>
              </g>
            </g>
            <g id="Grupo_63883" data-name="Grupo 63883" transform="translate(36.739)">
              <g id="Grupo_63882" data-name="Grupo 63882">
                <g id="Grupo_63881" data-name="Grupo 63881">
                  <path id="Trazado_112054" data-name="Trazado 112054" d="M272.7,338.747c.008-.032.013-.055.02-.076q.359-1.115.72-2.229a.085.085,0,0,0-.038-.113q-1.073-.794-2.142-1.593a.158.158,0,0,1-.05-.055h.156q1.293-.013,2.587-.026a.074.074,0,0,0,.083-.063q.385-1.2.772-2.4l.02-.061c.012.029.021.049.028.069q.448,1.225.9,2.451a.091.091,0,0,0,.1.072c.8-.007,1.606-.01,2.409-.015a.348.348,0,0,1,.1.011l-.051.037q-1.044.708-2.088,1.415a.079.079,0,0,0-.038.111q.426,1.224.846,2.448c.007.02.011.04.022.075l-.094-.064q-1.027-.727-2.052-1.456a.075.075,0,0,0-.1,0q-1.016.709-2.034,1.415Z" transform="translate(-271.208 -332.131)" fill="#fff"/>
                </g>
              </g>
            </g>
          </g>
          <g id="Grupo_63885" data-name="Grupo 63885" transform="translate(30.711 14.697)">
            <rect id="Rectángulo_6556" data-name="Rectángulo 6556" width="43.857" height="1.929" rx="0.964" transform="translate(0)" fill="#9b59cd"/>
            <path id="Trazado_112055" data-name="Trazado 112055" d="M252.774,355.143H210.847a.964.964,0,0,0-.965.965h0a.965.965,0,0,0,.965.964h41.928a.965.965,0,0,0,.965-.964h0A.964.964,0,0,0,252.774,355.143Z" transform="translate(-209.882 -351.01)" fill="#9b59cd"/>
          </g>
        </g>
      </g>
      <g id="Grupo_63888" data-name="Grupo 63888" transform="translate(5.886 5.886)">
        <path id="Trazado_112056" data-name="Trazado 112056" d="M282.116,167.078v9.5H86.885v-9.5a2.73,2.73,0,0,1,2.729-2.731H279.385A2.731,2.731,0,0,1,282.116,167.078Z" transform="translate(-86.885 -164.347)" fill="#eee2f6"/>
        <path id="Trazado_112057" data-name="Trazado 112057" d="M142.124,174h0a1.623,1.623,0,0,0,1.623,1.623H286.054A1.623,1.623,0,0,0,287.678,174h0a1.623,1.623,0,0,0-1.623-1.623H143.747A1.623,1.623,0,0,0,142.124,174Z" transform="translate(-109.032 -167.567)" fill="#fff"/>
        <path id="Trazado_112058" data-name="Trazado 112058" d="M103.008,173.982v1.2a.448.448,0,0,1-.672.388l-1.042-.6-1.041-.6a.448.448,0,0,1,0-.776l1.041-.6,1.042-.6a.448.448,0,0,1,.672.388Z" transform="translate(-92.155 -167.548)" fill="#934bc8"/>
        <path id="Trazado_112059" data-name="Trazado 112059" d="M114.049,173.982v1.2a.448.448,0,0,0,.672.388l1.041-.6,1.042-.6a.448.448,0,0,0,0-.776l-1.042-.6-1.041-.6a.448.448,0,0,0-.672.388Z" transform="translate(-97.776 -167.548)" fill="#934bc8"/>
      </g>
      <g id="Grupo_63947" data-name="Grupo 63947" transform="translate(16.588 25.71)">
        <g id="Grupo_63900" data-name="Grupo 63900" transform="translate(128.635 4.96)">
          <g id="Grupo_63898" data-name="Grupo 63898" transform="translate(0)">
            <g id="Grupo_63890" data-name="Grupo 63890">
              <g id="Grupo_63889" data-name="Grupo 63889">
                <path id="Trazado_112060" data-name="Trazado 112060" d="M320.971,212.368c.008-.032.013-.055.02-.076q.361-1.121.724-2.241a.085.085,0,0,0-.038-.114q-1.078-.8-2.154-1.6a.149.149,0,0,1-.05-.056h.157l2.6-.026a.074.074,0,0,0,.083-.063q.386-1.206.776-2.412l.021-.061c.012.029.021.049.028.069q.451,1.232.9,2.464a.091.091,0,0,0,.1.072c.807-.007,1.614-.01,2.422-.015a.355.355,0,0,1,.1.011l-.052.037q-1.05.712-2.1,1.423a.079.079,0,0,0-.038.112q.428,1.23.851,2.462c.007.019.011.04.022.075l-.094-.064q-1.032-.731-2.064-1.464a.075.075,0,0,0-.1,0q-1.022.713-2.046,1.423Z" transform="translate(-319.473 -205.718)" fill="#eee2f6"/>
              </g>
            </g>
            <g id="Grupo_63892" data-name="Grupo 63892" transform="translate(9.234)">
              <g id="Grupo_63891" data-name="Grupo 63891">
                <path id="Trazado_112061" data-name="Trazado 112061" d="M336.384,212.368c.008-.032.014-.055.02-.076q.361-1.121.724-2.241a.085.085,0,0,0-.038-.114q-1.078-.8-2.154-1.6a.155.155,0,0,1-.05-.056h.157l2.6-.026c.05,0,.068-.017.083-.063q.386-1.206.776-2.412c0-.016.011-.032.02-.061.012.029.021.049.028.069q.451,1.232.9,2.464a.092.092,0,0,0,.1.072c.807-.007,1.614-.01,2.421-.015a.355.355,0,0,1,.1.011l-.052.037q-1.05.712-2.1,1.423a.08.08,0,0,0-.038.112q.428,1.23.851,2.462c.007.019.012.04.022.075l-.094-.064q-1.032-.731-2.063-1.464a.076.076,0,0,0-.1,0q-1.022.713-2.046,1.423Z" transform="translate(-334.886 -205.718)" fill="#eee2f6"/>
              </g>
            </g>
            <g id="Grupo_63894" data-name="Grupo 63894" transform="translate(18.468)">
              <g id="Grupo_63893" data-name="Grupo 63893">
                <path id="Trazado_112062" data-name="Trazado 112062" d="M351.8,212.368c.008-.032.013-.055.02-.076q.36-1.121.724-2.241a.086.086,0,0,0-.038-.114q-1.078-.8-2.154-1.6a.148.148,0,0,1-.05-.056h.156l2.6-.026a.074.074,0,0,0,.083-.063q.386-1.206.776-2.412l.02-.061c.012.029.022.049.029.069q.451,1.232.9,2.464a.092.092,0,0,0,.1.072c.807-.007,1.615-.01,2.421-.015a.351.351,0,0,1,.1.011l-.052.037q-1.049.712-2.1,1.423a.079.079,0,0,0-.038.112q.428,1.23.851,2.462c.007.019.011.04.022.075l-.095-.064q-1.032-.731-2.063-1.464a.076.076,0,0,0-.1,0q-1.022.713-2.045,1.423Z" transform="translate(-350.3 -205.718)" fill="#eee2f6"/>
              </g>
            </g>
            <g id="Grupo_63896" data-name="Grupo 63896" transform="translate(27.701)">
              <g id="Grupo_63895" data-name="Grupo 63895">
                <path id="Trazado_112063" data-name="Trazado 112063" d="M367.211,212.368c.008-.032.013-.055.02-.076q.361-1.121.724-2.241a.085.085,0,0,0-.038-.114q-1.078-.8-2.154-1.6a.148.148,0,0,1-.05-.056h.157l2.6-.026a.074.074,0,0,0,.083-.063q.386-1.206.776-2.412l.021-.061c.012.029.021.049.028.069q.451,1.232.9,2.464a.091.091,0,0,0,.1.072c.807-.007,1.615-.01,2.422-.015a.355.355,0,0,1,.1.011l-.052.037q-1.05.712-2.1,1.423a.079.079,0,0,0-.038.112q.428,1.23.851,2.462c.007.019.011.04.022.075l-.094-.064q-1.032-.731-2.064-1.464a.075.075,0,0,0-.1,0l-2.046,1.423Z" transform="translate(-365.713 -205.718)" fill="#eee2f6"/>
              </g>
            </g>
            <g id="Grupo_63897" data-name="Grupo 63897" transform="translate(36.935)">
              <path id="Trazado_112064" data-name="Trazado 112064" d="M382.624,212.368c.008-.032.014-.055.02-.076q.361-1.121.724-2.241a.085.085,0,0,0-.038-.114q-1.078-.8-2.154-1.6a.154.154,0,0,1-.05-.056h.157l2.6-.026c.05,0,.068-.017.083-.063q.386-1.206.776-2.412c0-.016.011-.032.02-.061.012.029.021.049.028.069q.451,1.232.9,2.464a.092.092,0,0,0,.1.072c.807-.007,1.615-.01,2.421-.015a.355.355,0,0,1,.1.011l-.052.037q-1.05.712-2.1,1.423a.08.08,0,0,0-.038.112q.428,1.23.851,2.462c.007.019.012.04.022.075l-.094-.064q-1.033-.731-2.063-1.464a.076.076,0,0,0-.1,0q-1.022.713-2.046,1.423Z" transform="translate(-381.126 -205.718)" fill="#eee2f6"/>
            </g>
          </g>
          <g id="Grupo_63899" data-name="Grupo 63899" transform="translate(0 9.704)">
            <rect id="Rectángulo_6557" data-name="Rectángulo 6557" width="44.091" height="1.939" rx="0.969" fill="#eee2f6"/>
            <rect id="Rectángulo_6558" data-name="Rectángulo 6558" width="44.091" height="1.939" rx="0.969" transform="translate(0 4.155)" fill="#eee2f6"/>
          </g>
        </g>
        <g id="Grupo_63920" data-name="Grupo 63920" transform="translate(32.271 38.69)">
          <rect id="Rectángulo_6559" data-name="Rectángulo 6559" width="80.396" height="28.756" rx="6.38" transform="translate(2.444 3.085)" fill="#eee2f6"/>
          <g id="Grupo_63919" data-name="Grupo 63919">
            <rect id="Rectángulo_6560" data-name="Rectángulo 6560" width="80.396" height="28.756" rx="6.38" fill="#f47b8c"/>
            <g id="Grupo_63903" data-name="Grupo 63903" transform="translate(2.979 2.098)">
              <g id="Grupo_63902" data-name="Grupo 63902">
                <g id="Grupo_63901" data-name="Grupo 63901">
                  <path id="Trazado_112065" data-name="Trazado 112065" d="M187.771,277.613a12.038,12.038,0,0,1-2.768,7.7,12.21,12.21,0,0,1-1.319,1.362,12.09,12.09,0,0,1-16.008,0,12.194,12.194,0,0,1-1.317-1.362,12.09,12.09,0,1,1,21.412-7.7Z" transform="translate(-163.59 -265.523)" fill="#f25c70"/>
                </g>
              </g>
              <circle id="Elipse_4846" data-name="Elipse 4846" cx="4.637" cy="4.637" r="4.637" transform="translate(6.77 12.957) rotate(-80.76)" fill="#f693a1"/>
              <path id="Trazado_112066" data-name="Trazado 112066" d="M186.419,296.958a12.09,12.09,0,0,1-16.008,0,7.094,7.094,0,0,1,2.971-4.216,8.855,8.855,0,0,1,10.067,0A7.1,7.1,0,0,1,186.419,296.958Z" transform="translate(-166.325 -275.806)" fill="#f693a1"/>
            </g>
            <g id="Grupo_63917" data-name="Grupo 63917" transform="translate(30.711 5.044)">
              <g id="Grupo_63906" data-name="Grupo 63906">
                <g id="Grupo_63905" data-name="Grupo 63905">
                  <g id="Grupo_63904" data-name="Grupo 63904">
                    <path id="Trazado_112067" data-name="Trazado 112067" d="M211.372,277.056c.008-.032.013-.055.02-.076q.359-1.115.719-2.229a.085.085,0,0,0-.038-.114q-1.073-.794-2.143-1.592a.164.164,0,0,1-.05-.056h.156l2.587-.026a.074.074,0,0,0,.083-.063q.384-1.2.772-2.4c0-.016.011-.032.02-.06.012.029.021.048.028.068q.448,1.225.9,2.451a.091.091,0,0,0,.1.072q1.205-.01,2.409-.014a.347.347,0,0,1,.1.01l-.052.037q-1.044.708-2.088,1.415a.08.08,0,0,0-.038.112q.425,1.223.846,2.448c.007.02.012.04.022.076l-.093-.065q-1.027-.727-2.052-1.456a.075.075,0,0,0-.1,0q-1.016.709-2.034,1.415Z" transform="translate(-209.882 -270.441)" fill="#fff"/>
                  </g>
                </g>
              </g>
              <g id="Grupo_63909" data-name="Grupo 63909" transform="translate(9.185)">
                <g id="Grupo_63908" data-name="Grupo 63908">
                  <g id="Grupo_63907" data-name="Grupo 63907">
                    <path id="Trazado_112068" data-name="Trazado 112068" d="M226.7,277.056c.009-.032.014-.055.02-.076q.359-1.115.72-2.229a.085.085,0,0,0-.038-.114q-1.072-.794-2.142-1.592a.158.158,0,0,1-.05-.056h.156l2.587-.026a.073.073,0,0,0,.082-.063q.385-1.2.772-2.4l.02-.06c.012.029.021.048.029.068q.448,1.225.9,2.451a.092.092,0,0,0,.1.072q1.2-.01,2.409-.014a.347.347,0,0,1,.1.01l-.052.037q-1.043.708-2.088,1.415a.079.079,0,0,0-.037.112q.425,1.223.846,2.448c.007.02.011.04.022.076l-.094-.065q-1.026-.727-2.052-1.456a.075.075,0,0,0-.1,0q-1.016.709-2.034,1.415Z" transform="translate(-225.214 -270.441)" fill="#fff"/>
                  </g>
                </g>
              </g>
              <g id="Grupo_63912" data-name="Grupo 63912" transform="translate(18.369)">
                <g id="Grupo_63911" data-name="Grupo 63911">
                  <g id="Grupo_63910" data-name="Grupo 63910">
                    <path id="Trazado_112069" data-name="Trazado 112069" d="M242.035,277.056c.008-.032.013-.055.02-.076q.359-1.115.719-2.229a.085.085,0,0,0-.038-.114q-1.073-.794-2.143-1.592a.164.164,0,0,1-.05-.056h.156l2.587-.026a.074.074,0,0,0,.083-.063q.385-1.2.772-2.4c0-.016.011-.032.02-.06.012.029.021.048.028.068q.448,1.225.9,2.451a.091.091,0,0,0,.1.072q1.205-.01,2.409-.014a.347.347,0,0,1,.1.01l-.052.037q-1.044.708-2.088,1.415a.08.08,0,0,0-.038.112q.425,1.223.846,2.448c.007.02.011.04.021.076l-.093-.065q-1.027-.727-2.052-1.456a.075.075,0,0,0-.1,0q-1.016.709-2.034,1.415Z" transform="translate(-240.545 -270.441)" fill="#fff"/>
                  </g>
                </g>
              </g>
              <g id="Grupo_63915" data-name="Grupo 63915" transform="translate(27.554)">
                <g id="Grupo_63914" data-name="Grupo 63914">
                  <g id="Grupo_63913" data-name="Grupo 63913">
                    <path id="Trazado_112070" data-name="Trazado 112070" d="M257.367,277.056c.008-.032.013-.055.02-.076q.359-1.115.72-2.229a.085.085,0,0,0-.038-.114q-1.072-.794-2.142-1.592a.159.159,0,0,1-.05-.056h.156l2.587-.026a.074.074,0,0,0,.083-.063q.384-1.2.772-2.4l.02-.06c.012.029.021.048.029.068q.448,1.225.9,2.451a.092.092,0,0,0,.1.072q1.2-.01,2.409-.014a.347.347,0,0,1,.1.01l-.052.037q-1.043.708-2.088,1.415a.079.079,0,0,0-.037.112q.425,1.223.846,2.448c.007.02.011.04.022.076l-.094-.065q-1.026-.727-2.052-1.456a.074.074,0,0,0-.1,0q-1.016.709-2.035,1.415Z" transform="translate(-255.877 -270.441)" fill="#fff"/>
                  </g>
                </g>
              </g>
              <g id="Grupo_63916" data-name="Grupo 63916" transform="translate(36.739)">
                <path id="Trazado_112071" data-name="Trazado 112071" d="M272.7,277.056c.008-.032.013-.055.02-.076q.359-1.115.72-2.229a.086.086,0,0,0-.038-.114q-1.073-.794-2.142-1.592a.166.166,0,0,1-.05-.056h.156l2.587-.026a.074.074,0,0,0,.083-.063q.385-1.2.772-2.4l.02-.06c.012.029.021.048.028.068q.448,1.225.9,2.451a.091.091,0,0,0,.1.072q1.2-.01,2.409-.014a.345.345,0,0,1,.1.01l-.051.037q-1.044.708-2.088,1.415a.08.08,0,0,0-.038.112q.426,1.223.846,2.448c.007.02.011.04.022.076l-.094-.065q-1.027-.727-2.052-1.456a.075.075,0,0,0-.1,0q-1.016.709-2.034,1.415Z" transform="translate(-271.208 -270.441)" fill="#f25c70"/>
              </g>
            </g>
            <g id="Grupo_63918" data-name="Grupo 63918" transform="translate(30.711 14.697)">
              <rect id="Rectángulo_6561" data-name="Rectángulo 6561" width="43.857" height="1.929" rx="0.964" transform="translate(0)" fill="#f25c70"/>
              <path id="Trazado_112072" data-name="Trazado 112072" d="M252.774,293.452H210.847a.965.965,0,0,0-.965.965h0a.964.964,0,0,0,.965.964h41.928a.964.964,0,0,0,.965-.964h0A.965.965,0,0,0,252.774,293.452Z" transform="translate(-209.882 -289.319)" fill="#f25c70"/>
            </g>
          </g>
        </g>
        <g id="Grupo_63938" data-name="Grupo 63938" transform="translate(32.271)">
          <rect id="Rectángulo_6562" data-name="Rectángulo 6562" width="80.396" height="28.756" rx="6.38" transform="translate(2.444 3.085)" fill="#eee2f6"/>
          <g id="Grupo_63937" data-name="Grupo 63937">
            <rect id="Rectángulo_6563" data-name="Rectángulo 6563" width="80.396" height="28.756" rx="6.38" fill="#a468d1"/>
            <g id="Grupo_63923" data-name="Grupo 63923" transform="translate(2.979 2.098)">
              <g id="Grupo_63922" data-name="Grupo 63922">
                <g id="Grupo_63921" data-name="Grupo 63921">
                  <path id="Trazado_112073" data-name="Trazado 112073" d="M187.771,213.031a12.036,12.036,0,0,1-2.768,7.7,12.166,12.166,0,0,1-1.319,1.363,12.09,12.09,0,1,1,4.087-9.062Z" transform="translate(-163.59 -200.941)" fill="#9b59cd"/>
                </g>
              </g>
              <circle id="Elipse_4847" data-name="Elipse 4847" cx="4.637" cy="4.637" r="4.637" transform="translate(7.454 4.489)" fill="#b17dd8"/>
              <path id="Trazado_112074" data-name="Trazado 112074" d="M186.419,232.376a12.09,12.09,0,0,1-16.008,0,7.094,7.094,0,0,1,2.971-4.217,8.857,8.857,0,0,1,10.067,0A7.1,7.1,0,0,1,186.419,232.376Z" transform="translate(-166.325 -211.224)" fill="#b17dd8"/>
            </g>
            <g id="Grupo_63935" data-name="Grupo 63935" transform="translate(30.711 5.044)">
              <g id="Grupo_63926" data-name="Grupo 63926">
                <g id="Grupo_63925" data-name="Grupo 63925">
                  <g id="Grupo_63924" data-name="Grupo 63924">
                    <path id="Trazado_112075" data-name="Trazado 112075" d="M211.372,212.473c.008-.032.013-.054.02-.076q.359-1.114.719-2.229a.084.084,0,0,0-.038-.113q-1.073-.794-2.143-1.593a.156.156,0,0,1-.05-.055h.156q1.294-.014,2.587-.026c.05,0,.068-.017.083-.064q.384-1.2.772-2.4c0-.016.011-.032.02-.06.012.029.021.049.028.068q.448,1.226.9,2.451a.092.092,0,0,0,.1.072q1.205-.01,2.409-.015a.35.35,0,0,1,.1.011l-.052.037q-1.044.708-2.088,1.416a.079.079,0,0,0-.038.111q.425,1.224.846,2.448c.007.019.012.04.022.075l-.093-.064q-1.027-.728-2.052-1.456a.075.075,0,0,0-.1,0q-1.016.709-2.034,1.415Z" transform="translate(-209.882 -205.858)" fill="#fff"/>
                  </g>
                </g>
              </g>
              <g id="Grupo_63929" data-name="Grupo 63929" transform="translate(9.185)">
                <g id="Grupo_63928" data-name="Grupo 63928">
                  <g id="Grupo_63927" data-name="Grupo 63927">
                    <path id="Trazado_112076" data-name="Trazado 112076" d="M226.7,212.473c.009-.032.014-.054.02-.076q.359-1.114.72-2.229a.084.084,0,0,0-.038-.113q-1.072-.794-2.142-1.593a.151.151,0,0,1-.05-.055h.156q1.294-.014,2.587-.026c.05,0,.068-.017.082-.064q.385-1.2.772-2.4l.02-.06c.012.029.021.049.029.068q.448,1.226.9,2.451a.092.092,0,0,0,.1.072q1.2-.01,2.409-.015a.35.35,0,0,1,.1.011l-.052.037q-1.043.708-2.088,1.416a.079.079,0,0,0-.037.111q.425,1.224.846,2.448c.007.019.011.04.022.075l-.094-.064q-1.026-.728-2.052-1.456a.075.075,0,0,0-.1,0q-1.016.709-2.034,1.415Z" transform="translate(-225.214 -205.858)" fill="#fff"/>
                  </g>
                </g>
              </g>
              <g id="Grupo_63931" data-name="Grupo 63931" transform="translate(18.369)">
                <g id="Grupo_63930" data-name="Grupo 63930">
                  <path id="Trazado_112077" data-name="Trazado 112077" d="M242.035,212.473c.008-.032.013-.054.02-.076q.359-1.114.719-2.229a.084.084,0,0,0-.038-.113q-1.073-.794-2.143-1.593a.156.156,0,0,1-.05-.055h.156q1.293-.014,2.587-.026a.074.074,0,0,0,.083-.064q.385-1.2.772-2.4c0-.016.011-.032.02-.06.012.029.021.049.028.068q.448,1.226.9,2.451a.092.092,0,0,0,.1.072q1.205-.01,2.409-.015a.35.35,0,0,1,.1.011l-.052.037q-1.044.708-2.088,1.416a.079.079,0,0,0-.038.111q.425,1.224.846,2.448c.007.019.011.04.021.075l-.093-.064q-1.027-.728-2.052-1.456a.075.075,0,0,0-.1,0q-1.016.709-2.034,1.415Z" transform="translate(-240.545 -205.858)" fill="#9b59cd"/>
                </g>
              </g>
              <g id="Grupo_63933" data-name="Grupo 63933" transform="translate(27.554)">
                <g id="Grupo_63932" data-name="Grupo 63932">
                  <path id="Trazado_112078" data-name="Trazado 112078" d="M257.367,212.473c.008-.032.013-.054.02-.076q.359-1.114.72-2.229a.084.084,0,0,0-.038-.113q-1.072-.794-2.142-1.593a.151.151,0,0,1-.05-.055h.156q1.294-.014,2.587-.026c.05,0,.068-.017.083-.064q.384-1.2.772-2.4l.02-.06c.012.029.021.049.029.068q.448,1.226.9,2.451a.092.092,0,0,0,.1.072q1.2-.01,2.409-.015a.35.35,0,0,1,.1.011l-.052.037q-1.043.708-2.088,1.416a.079.079,0,0,0-.037.111q.425,1.224.846,2.448c.007.019.011.04.022.075l-.094-.064q-1.026-.728-2.052-1.456a.075.075,0,0,0-.1,0q-1.016.709-2.035,1.415Z" transform="translate(-255.877 -205.858)" fill="#9b59cd"/>
                </g>
              </g>
              <g id="Grupo_63934" data-name="Grupo 63934" transform="translate(36.739)">
                <path id="Trazado_112079" data-name="Trazado 112079" d="M272.7,212.473c.008-.032.013-.054.02-.076q.359-1.114.72-2.229a.085.085,0,0,0-.038-.113q-1.073-.794-2.142-1.593a.157.157,0,0,1-.05-.055h.156q1.293-.014,2.587-.026a.074.074,0,0,0,.083-.064q.385-1.2.772-2.4l.02-.06c.012.029.021.049.028.068q.448,1.226.9,2.451a.092.092,0,0,0,.1.072q1.2-.01,2.409-.015a.348.348,0,0,1,.1.011l-.051.037q-1.044.708-2.088,1.416a.079.079,0,0,0-.038.111q.426,1.224.846,2.448c.007.019.011.04.022.075l-.094-.064q-1.027-.728-2.052-1.456a.075.075,0,0,0-.1,0q-1.016.709-2.034,1.415Z" transform="translate(-271.208 -205.858)" fill="#9b59cd"/>
              </g>
            </g>
            <g id="Grupo_63936" data-name="Grupo 63936" transform="translate(30.711 14.697)">
              <rect id="Rectángulo_6564" data-name="Rectángulo 6564" width="43.857" height="1.929" rx="0.964" transform="translate(0)" fill="#9b59cd"/>
              <path id="Trazado_112080" data-name="Trazado 112080" d="M252.774,228.869H210.847a.965.965,0,0,0-.965.965h0a.965.965,0,0,0,.965.965h41.928a.965.965,0,0,0,.965-.965h0A.965.965,0,0,0,252.774,228.869Z" transform="translate(-209.882 -224.736)" fill="#9b59cd"/>
            </g>
          </g>
        </g>
        <g id="Grupo_63945" data-name="Grupo 63945" transform="translate(0 5.363)">
          <g id="Grupo_63940" data-name="Grupo 63940">
            <g id="Grupo_63939" data-name="Grupo 63939">
              <path id="Trazado_112081" data-name="Trazado 112081" d="M125.4,206.39H105.718a.969.969,0,0,0-.969.969h0a.969.969,0,0,0,.969.969H125.4a.969.969,0,0,0,.969-.969h0A.969.969,0,0,0,125.4,206.39Z" transform="translate(-104.749 -206.39)" fill="#eee2f6"/>
              <path id="Trazado_112082" data-name="Trazado 112082" d="M125.4,215.343H105.718a.97.97,0,0,0-.969.97h0a.969.969,0,0,0,.969.969H125.4a.969.969,0,0,0,.969-.969h0A.97.97,0,0,0,125.4,215.343Z" transform="translate(-104.749 -209.98)" fill="#eee2f6"/>
              <path id="Trazado_112083" data-name="Trazado 112083" d="M125.4,224.3H105.718a.97.97,0,0,0-.969.97h0a.97.97,0,0,0,.969.969H125.4a.969.969,0,0,0,.969-.969h0A.97.97,0,0,0,125.4,224.3Z" transform="translate(-104.749 -213.569)" fill="#eee2f6"/>
              <path id="Trazado_112084" data-name="Trazado 112084" d="M125.4,233.251H105.718a.969.969,0,0,0-.969.969h0a.97.97,0,0,0,.969.97H125.4a.97.97,0,0,0,.969-.97h0A.969.969,0,0,0,125.4,233.251Z" transform="translate(-104.749 -217.159)" fill="#eee2f6"/>
            </g>
          </g>
          <g id="Grupo_63942" data-name="Grupo 63942" transform="translate(0 39.973)">
            <g id="Grupo_63941" data-name="Grupo 63941">
              <path id="Trazado_112085" data-name="Trazado 112085" d="M125.4,273.114H105.718a.969.969,0,0,0-.969.969h0a.969.969,0,0,0,.969.969H125.4a.969.969,0,0,0,.969-.969h0A.969.969,0,0,0,125.4,273.114Z" transform="translate(-104.749 -273.114)" fill="#eee2f6"/>
              <path id="Trazado_112086" data-name="Trazado 112086" d="M125.4,282.067H105.718a.97.97,0,0,0-.969.97h0a.969.969,0,0,0,.969.969H125.4a.969.969,0,0,0,.969-.969h0A.97.97,0,0,0,125.4,282.067Z" transform="translate(-104.749 -276.703)" fill="#eee2f6"/>
              <path id="Trazado_112087" data-name="Trazado 112087" d="M125.4,291.021H105.718a.97.97,0,0,0-.969.969h0a.97.97,0,0,0,.969.969H125.4a.97.97,0,0,0,.969-.97h0A.969.969,0,0,0,125.4,291.021Z" transform="translate(-104.749 -280.293)" fill="#eee2f6"/>
              <path id="Trazado_112088" data-name="Trazado 112088" d="M125.4,299.975H105.718a.97.97,0,0,0-.969.969h0a.969.969,0,0,0,.969.969H125.4a.969.969,0,0,0,.969-.969h0A.969.969,0,0,0,125.4,299.975Z" transform="translate(-104.749 -283.883)" fill="#eee2f6"/>
            </g>
          </g>
          <g id="Grupo_63944" data-name="Grupo 63944" transform="translate(0 76.93)">
            <g id="Grupo_63943" data-name="Grupo 63943">
              <path id="Trazado_112089" data-name="Trazado 112089" d="M125.4,334.8H105.718a.969.969,0,0,0-.969.969h0a.969.969,0,0,0,.969.969H125.4a.969.969,0,0,0,.969-.969h0A.969.969,0,0,0,125.4,334.8Z" transform="translate(-104.749 -334.805)" fill="#eee2f6"/>
              <path id="Trazado_112090" data-name="Trazado 112090" d="M125.4,343.758H105.718a.97.97,0,0,0-.969.97h0a.97.97,0,0,0,.969.969H125.4a.969.969,0,0,0,.969-.969h0A.97.97,0,0,0,125.4,343.758Z" transform="translate(-104.749 -338.395)" fill="#eee2f6"/>
              <path id="Trazado_112091" data-name="Trazado 112091" d="M125.4,352.712H105.718a.97.97,0,0,0-.969.969h0a.97.97,0,0,0,.969.97H125.4a.97.97,0,0,0,.969-.97h0A.969.969,0,0,0,125.4,352.712Z" transform="translate(-104.749 -341.984)" fill="#eee2f6"/>
              <path id="Trazado_112092" data-name="Trazado 112092" d="M125.4,361.666H105.718a.969.969,0,0,0-.969.969h0a.969.969,0,0,0,.969.969H125.4a.969.969,0,0,0,.969-.969h0A.969.969,0,0,0,125.4,361.666Z" transform="translate(-104.749 -345.574)" fill="#eee2f6"/>
            </g>
          </g>
        </g>
        <g id="Grupo_63946" data-name="Grupo 63946" transform="translate(128.764 35.43)">
          <path id="Trazado_112093" data-name="Trazado 112093" d="M362.326,256.579H320.658a.97.97,0,0,0-.97.969h0a.97.97,0,0,0,.97.969h41.669a1.125,1.125,0,0,0,1.233-.969h0A1.125,1.125,0,0,0,362.326,256.579Z" transform="translate(-319.688 -256.579)" fill="#eee2f6"/>
          <path id="Trazado_112094" data-name="Trazado 112094" d="M362.326,265.532H320.658a.97.97,0,0,0-.97.969h0a.97.97,0,0,0,.97.969h41.669a1.125,1.125,0,0,0,1.233-.97h0A1.125,1.125,0,0,0,362.326,265.532Z" transform="translate(-319.688 -260.169)" fill="#eee2f6"/>
          <path id="Trazado_112095" data-name="Trazado 112095" d="M362.326,274.486H320.658a.97.97,0,0,0-.97.969h0a.97.97,0,0,0,.97.969h41.669a1.125,1.125,0,0,0,1.233-.969h0A1.125,1.125,0,0,0,362.326,274.486Z" transform="translate(-319.688 -263.758)" fill="#eee2f6"/>
          <path id="Trazado_112096" data-name="Trazado 112096" d="M362.326,283.44H320.658a.97.97,0,0,0-.97.969h0a.97.97,0,0,0,.97.969h41.669a1.125,1.125,0,0,0,1.233-.969h0A1.125,1.125,0,0,0,362.326,283.44Z" transform="translate(-319.688 -267.348)" fill="#eee2f6"/>
        </g>
        <rect id="Rectángulo_6565" data-name="Rectángulo 6565" width="43.871" height="15.223" rx="3.76" transform="translate(128.764 64.968)" fill="#eee2f6"/>
        <rect id="Rectángulo_6566" data-name="Rectángulo 6566" width="43.871" height="15.223" rx="3.76" transform="translate(128.764 87.829)" fill="#eee2f6"/>
      </g>
    </g>
    <g id="Grupo_63986" data-name="Grupo 63986" transform="translate(31.959 175.261)">
      <path id="Trazado_112097" data-name="Trazado 112097" d="M110.344,433.848c0,1.7-16.01,3.086-35.76,3.086s-35.76-1.382-35.76-3.086,16.01-3.086,35.76-3.086S110.344,432.143,110.344,433.848Z" transform="translate(-38.824 -322.609)" fill="#eee2f6"/>
      <g id="Grupo_63985" data-name="Grupo 63985" transform="translate(3.884)">
        <path id="Trazado_112098" data-name="Trazado 112098" d="M164.99,330.2c-.068-.329-1.184-.753-2.263-1.089.01-.038.02-.077.029-.116,1.506.3,4.105.713,3.881.008-.147-.462-2.359-.889-3.7-1.107.008-.072.015-.143.022-.216,1.6.237,4.719.6,4.422-.183-.2-.524-2.934-.87-4.344-1.015,0-.064,0-.127.007-.189,1.365.146,3.988.329,3.693-.453-.267-.708-4.325-.772-4.325-.772h0l-1.512-.211s0-.528,1.087-.882,1.586-1.124.2-1.04c-1.567.095-2.907.66-4,.69a4.135,4.135,0,0,0-2.221,1.123l-.446,2.949s3.967,2.391,6.562,2.327h0C163.443,330.408,165.108,330.772,164.99,330.2Z" transform="translate(-89.495 -279.375)" fill="#fdca8a"/>
        <path id="Trazado_112099" data-name="Trazado 112099" d="M156.32,356.187c0,1.583.028,2.879,0,4.842-1.212-1.187-3.433-2.994-3.433-2.994l1.643-1.609A2.453,2.453,0,0,1,156.32,356.187Z" transform="translate(-88.439 -292.671)" fill="#fdca8a"/>
        <g id="Grupo_63949" data-name="Grupo 63949" transform="translate(46.164 28.734)">
          <path id="Trazado_112100" data-name="Trazado 112100" d="M129.719,299.561c-.671,4.318.442,16.692,1.843,19.039,1.824,3.055,8.59,10.275,12.125,13.995.637.671-3.263,2.8-3.263,2.8s-10.459-7.833-13.727-12.778c-.925-1.4-2.478-5.443-3.524-12.63-.318-2.179-1.3-6.666-.5-9.2C123.59,297.865,127.251,297.349,129.719,299.561Z" transform="translate(-122.366 -298.193)" fill="#f25c70"/>
        </g>
        <g id="Grupo_63957" data-name="Grupo 63957" transform="translate(29.338 61.574)">
          <g id="Grupo_63955" data-name="Grupo 63955" transform="translate(19.797 39.35)">
            <path id="Trazado_112101" data-name="Trazado 112101" d="M128.853,418.7l-.09,4.591a4.685,4.685,0,0,0,3.486.371l.885-4.949Z" transform="translate(-127.902 -418.695)" fill="#fdca8a"/>
            <g id="Grupo_63954" data-name="Grupo 63954" transform="translate(0 3.281)">
              <path id="Trazado_112102" data-name="Trazado 112102" d="M131.165,425.261s.783-1.118,1.431-1.09,5.756,3.85,7.475,4.128,1.667,2.412,1,2.665c-.763.288-13.447.238-13.447.238s-.549-4.5-.149-5.73S129.837,425.588,131.165,425.261Z" transform="translate(-127.326 -424.171)" fill="#f47b8c"/>
              <g id="Grupo_63953" data-name="Grupo 63953" transform="translate(5.631 1.23)">
                <g id="Grupo_63950" data-name="Grupo 63950" transform="translate(0.734 0.654)">
                  <path id="Trazado_112103" data-name="Trazado 112103" d="M138.265,429.211a.239.239,0,0,1-.287-.34,3.685,3.685,0,0,1,1.209-1.336,1.653,1.653,0,0,1,1.7.029.24.24,0,0,1-.274.393,1.178,1.178,0,0,0-1.2,0,3.257,3.257,0,0,0-1.014,1.14A.238.238,0,0,1,138.265,429.211Z" transform="translate(-137.95 -427.316)" fill="#fff"/>
                </g>
                <g id="Grupo_63951" data-name="Grupo 63951">
                  <path id="Trazado_112104" data-name="Trazado 112104" d="M137.04,428.12a.239.239,0,0,1-.287-.34,3.684,3.684,0,0,1,1.209-1.337,1.65,1.65,0,0,1,1.7.03.239.239,0,1,1-.274.392,1.178,1.178,0,0,0-1.195,0A3.252,3.252,0,0,0,137.176,428,.237.237,0,0,1,137.04,428.12Z" transform="translate(-136.725 -426.224)" fill="#fff"/>
                </g>
                <g id="Grupo_63952" data-name="Grupo 63952" transform="translate(1.718 1.173)">
                  <path id="Trazado_112105" data-name="Trazado 112105" d="M139.907,430.077a.24.24,0,0,1-.287-.34,3.689,3.689,0,0,1,1.209-1.336,1.649,1.649,0,0,1,1.7.029.24.24,0,0,1-.274.393,1.179,1.179,0,0,0-1.195,0,3.257,3.257,0,0,0-1.014,1.14A.239.239,0,0,1,139.907,430.077Z" transform="translate(-139.592 -428.181)" fill="#fff"/>
                </g>
              </g>
            </g>
          </g>
          <path id="Trazado_112106" data-name="Trazado 112106" d="M119.767,393.524a6.09,6.09,0,0,1-3.682-.164q-.292-.1-.558-.215a4.246,4.246,0,0,1-1.217-.773s-1.7-4.391-.389-17.181a55.822,55.822,0,0,1,1.623-12.452,33.278,33.278,0,0,1-21.265-1.429l8.172-7.88s20.655-2.327,23.882,3.981C128.506,361.659,119.767,393.524,119.767,393.524Z" transform="translate(-94.279 -353.011)" fill="#9b59cd"/>
          <g id="Grupo_63956" data-name="Grupo 63956" transform="translate(6.422 6.944)">
            <path id="Trazado_112107" data-name="Trazado 112107" d="M122.346,366.077c-.51,2.543-1.685,8.8-1.557,11.936a35.248,35.248,0,0,1-.386,5.119,47.9,47.9,0,0,0-.02,14.876q-.292-.1-.558-.215a48.829,48.829,0,0,1,.07-14.72,34.619,34.619,0,0,0,.382-5.039c-.126-3.078.929-8.875,1.567-12.057a.712.712,0,0,0-.215-.668.719.719,0,0,0-.685-.167c-6.648,1.837-15.614,1.364-15.7,1.359a.256.256,0,1,1,.027-.512c.089.005,8.972.473,15.54-1.34a1.231,1.231,0,0,1,1.538,1.429Z" transform="translate(-104.999 -364.602)" fill="#8c40c5"/>
            <path id="Trazado_112108" data-name="Trazado 112108" d="M126.741,416.386l-.024,2.456,6.367.691.455-2.409Z" transform="translate(-113.706 -385.364)" fill="#a468d1"/>
          </g>
        </g>
        <g id="Grupo_63965" data-name="Grupo 63965" transform="translate(0 61.575)">
          <g id="Grupo_63963" data-name="Grupo 63963" transform="translate(0 34.795)">
            <path id="Trazado_112109" data-name="Trazado 112109" d="M58.333,411.094l-4.119,2.031a4.686,4.686,0,0,0,1.273,3.266l4.8-1.489Z" transform="translate(-48.874 -411.094)" fill="#fdca8a"/>
            <g id="Grupo_63962" data-name="Grupo 63962" transform="translate(0 1.378)">
              <path id="Trazado_112110" data-name="Trazado 112110" d="M52.213,416.591s1.353.181,1.626.77-.773,6.882-.229,8.536-1.375,2.589-1.908,2.11c-.606-.546-6.394-11.832-6.394-11.832s3.747-2.559,5.02-2.767S51.312,415.561,52.213,416.591Z" transform="translate(-45.307 -413.394)" fill="#f47b8c"/>
              <g id="Grupo_63961" data-name="Grupo 63961" transform="translate(5.742 5.592)">
                <g id="Grupo_63958" data-name="Grupo 63958" transform="translate(0.009 0.952)">
                  <path id="Trazado_112111" data-name="Trazado 112111" d="M54.979,424.728a.239.239,0,0,1,.17-.411,3.692,3.692,0,0,1,1.742.459,1.651,1.651,0,0,1,.754,1.521.24.24,0,1,1-.475-.064,1.177,1.177,0,0,0-.548-1.061,3.264,3.264,0,0,0-1.479-.377A.236.236,0,0,1,54.979,424.728Z" transform="translate(-54.907 -424.317)" fill="#fff"/>
                </g>
                <g id="Grupo_63959" data-name="Grupo 63959" transform="translate(0.252)">
                  <path id="Trazado_112112" data-name="Trazado 112112" d="M55.385,423.139a.237.237,0,0,1-.072-.174.24.24,0,0,1,.242-.237,3.692,3.692,0,0,1,1.742.46,1.649,1.649,0,0,1,.754,1.52.239.239,0,1,1-.474-.063,1.18,1.18,0,0,0-.549-1.062,3.249,3.249,0,0,0-1.479-.376A.237.237,0,0,1,55.385,423.139Z" transform="translate(-55.313 -422.728)" fill="#fff"/>
                </g>
                <g id="Grupo_63960" data-name="Grupo 63960" transform="translate(0 2.064)">
                  <path id="Trazado_112113" data-name="Trazado 112113" d="M54.964,426.585a.238.238,0,0,1-.072-.174.24.24,0,0,1,.243-.237,3.692,3.692,0,0,1,1.742.459,1.651,1.651,0,0,1,.754,1.52.24.24,0,0,1-.475-.063,1.179,1.179,0,0,0-.549-1.062,3.247,3.247,0,0,0-1.478-.376A.236.236,0,0,1,54.964,426.585Z" transform="translate(-54.892 -426.174)" fill="#fff"/>
                </g>
              </g>
            </g>
          </g>
          <path id="Trazado_112114" data-name="Trazado 112114" d="M97.012,381.779c-2.774,3.882-35.089,10.772-35.089,10.772a6.049,6.049,0,0,1-1.528-3.225c-.034-.191-.058-.379-.073-.563a4.377,4.377,0,0,1,.116-1.589s1.577-1.919,13.542-6.632c1.589-.627,4.911-3.356,10.1-5.23-4.474-7.892-8.122-15.56-8.344-22.3l2.33.637.533.145,10.133,2.769C92.961,364.565,99.259,378.635,97.012,381.779Z" transform="translate(-51.318 -353.012)" fill="#a468d1"/>
          <g id="Grupo_63964" data-name="Grupo 63964" transform="translate(9.004 0.637)">
            <path id="Trazado_112115" data-name="Trazado 112115" d="M86.144,376.053a1.238,1.238,0,0,1-.628.746,97.59,97.59,0,0,0-9.455,5.319,52.588,52.588,0,0,1-7.137,3.482,68.555,68.555,0,0,0-8.513,4.152c-.034-.191-.058-.379-.073-.563a73.749,73.749,0,0,1,8.382-4.058,52.443,52.443,0,0,0,7.045-3.43,98.09,98.09,0,0,1,9.522-5.36.737.737,0,0,0,.309-1.014c-5.432-9.8-7.042-17.514-7.518-21.253l.533.145c.5,3.754,2.132,11.3,7.433,20.86A1.243,1.243,0,0,1,86.144,376.053Z" transform="translate(-60.337 -354.075)" fill="#9b59cd"/>
          </g>
          <path id="Trazado_112116" data-name="Trazado 112116" d="M60.47,408.546l-2.227,1.036,2.12,6.044,2.37-.628Z" transform="translate(-50.494 -375.277)" fill="#b17dd8"/>
        </g>
        <g id="Grupo_63969" data-name="Grupo 63969" transform="translate(23.762 19.528)">
          <path id="Trazado_112117" data-name="Trazado 112117" d="M103.376,282.826s-5.177-.086-8.417,1.239-3.564,6.328-4.9,10.008-7.988,27.6-3.618,32.132c3.3,3.421,21.219,6.142,21.882.225a190.239,190.239,0,0,1,3.26-20.641c1.356-6.237,3.184-10.559,3.375-13.277s-6.613-8.257-6.613-8.257Z" transform="translate(-84.971 -282.825)" fill="#f47b8c"/>
          <g id="Grupo_63966" data-name="Grupo 63966" transform="translate(16.504 1.043)">
            <path id="Trazado_112118" data-name="Trazado 112118" d="M116.366,289.148c-2.426-.837-3.774-4.188-3.832-4.335a.181.181,0,0,1,.337-.133c.014.035,1.426,3.545,3.824,4.191a.181.181,0,1,1-.094.35C116.522,289.2,116.443,289.175,116.366,289.148Z" transform="translate(-112.521 -284.565)" fill="#f25c70"/>
          </g>
          <g id="Grupo_63967" data-name="Grupo 63967" transform="translate(8.115 24.857)">
            <path id="Trazado_112119" data-name="Trazado 112119" d="M98.638,333.361a.181.181,0,0,1,.1-.348c6.516,1.441,12.856-8.51,12.919-8.61a.181.181,0,1,1,.307.192c-.264.42-6.541,10.268-13.3,8.772Z" transform="translate(-98.517 -324.317)" fill="#f25c70"/>
          </g>
          <g id="Grupo_63968" data-name="Grupo 63968" transform="translate(11.743 27.242)">
            <path id="Trazado_112120" data-name="Trazado 112120" d="M104.7,332.536a.181.181,0,0,1,.019-.348,8.56,8.56,0,0,0,5.6-3.792.181.181,0,0,1,.32.168,8.755,8.755,0,0,1-5.84,3.977A.176.176,0,0,1,104.7,332.536Z" transform="translate(-104.573 -328.299)" fill="#f25c70"/>
          </g>
        </g>
        <g id="Grupo_63981" data-name="Grupo 63981" transform="translate(38.251)">
          <path id="Trazado_112121" data-name="Trazado 112121" d="M125.275,261.71a7.263,7.263,0,1,1-5.462-8.7A7.263,7.263,0,0,1,125.275,261.71Z" transform="translate(-109.868 -251.271)" fill="#38185d"/>
          <path id="Trazado_112122" data-name="Trazado 112122" d="M112.531,255.429s-.339-2.541,1.671-3.57,3.224-.309,4.957-1.183,8.779-.7,8.934,2.632a3.041,3.041,0,0,1-2.883,3.439Z" transform="translate(-110.501 -250.229)" fill="#38185d"/>
          <g id="Grupo_63973" data-name="Grupo 63973" transform="translate(12.479 11.65)">
            <path id="Trazado_112123" data-name="Trazado 112123" d="M131.274,270.174s1.463-1.239,2.015.188-1.462,4.809-3.3,3.452Z" transform="translate(-129.988 -269.675)" fill="#f8a8b3"/>
            <g id="Grupo_63970" data-name="Grupo 63970" transform="translate(0.566 1.424)">
              <path id="Trazado_112124" data-name="Trazado 112124" d="M131.071,273.74a.177.177,0,0,0,.195-.089,2.736,2.736,0,0,1,1.86-1.247.177.177,0,0,0-.049-.351,3.049,3.049,0,0,0-2.122,1.429.177.177,0,0,0,.071.24A.193.193,0,0,0,131.071,273.74Z" transform="translate(-130.933 -272.052)" fill="#f58696"/>
            </g>
            <g id="Grupo_63972" data-name="Grupo 63972" transform="translate(1.406 1.875)">
              <g id="Grupo_63971" data-name="Grupo 63971">
                <path id="Trazado_112125" data-name="Trazado 112125" d="M132.942,273.743a.177.177,0,0,0,.205-.232,1.611,1.611,0,0,0-.528-.67.177.177,0,1,0-.213.283,1.27,1.27,0,0,1,.408.508A.177.177,0,0,0,132.942,273.743Z" transform="translate(-132.336 -272.805)" fill="#f58696"/>
              </g>
            </g>
          </g>
          <path id="Trazado_112126" data-name="Trazado 112126" d="M115.393,278.817l-.83,3.632a5.977,5.977,0,0,0,2.564,2.4c1.434.462,2.722-1.073,2.722-1.073l.8-3.493Z" transform="translate(-111.325 -261.69)" fill="#fdca8a"/>
          <path id="Trazado_112127" data-name="Trazado 112127" d="M115.7,278.817l-.368,1.611c.734,1.316,2.417,1.987,5.087,2.2l.534-2.338Z" transform="translate(-111.634 -261.69)" fill="#f8a8b3"/>
          <path id="Trazado_112128" data-name="Trazado 112128" d="M125.8,262.354a28.32,28.32,0,0,1-1.067,3.8c-.13.362-.273.725-.427,1.086-1.1,2.566-2.8,4.949-5.353,5.253-5.246.624-6.448-3.447-6.74-6.336-.031-.3-.052-.586-.065-.852-.017-.316-.017-.664,0-1.033a36.273,36.273,0,0,1,.579-4.694,3.872,3.872,0,0,1,3.267-3.155,10.348,10.348,0,0,1,8.622,2.263A3.893,3.893,0,0,1,125.8,262.354Z" transform="translate(-110.352 -252.655)" fill="#fdca8a"/>
          <path id="Trazado_112129" data-name="Trazado 112129" d="M127.443,269.866c-.089.388.04.748.286.8s.518-.212.607-.6-.04-.748-.286-.8S127.532,269.479,127.443,269.866Z" transform="translate(-116.477 -257.858)" fill="#38185d"/>
          <path id="Trazado_112130" data-name="Trazado 112130" d="M118.719,267.873c-.088.388.04.748.286.8s.518-.213.606-.6-.039-.748-.286-.8S118.808,267.486,118.719,267.873Z" transform="translate(-112.98 -257.059)" fill="#38185d"/>
          <path id="Trazado_112131" data-name="Trazado 112131" d="M129.248,266.786a5.129,5.129,0,0,0-3.262-.867l-.032.691a6.188,6.188,0,0,1,3.016.921C129.134,267.246,129.3,267.129,129.248,266.786Z" transform="translate(-115.892 -256.5)" fill="#38185d"/>
          <path id="Trazado_112132" data-name="Trazado 112132" d="M117.183,264.124a5.127,5.127,0,0,1,3.315.635l-.271.637a6.189,6.189,0,0,0-3.116-.48C117.085,264.587,116.99,264.41,117.183,264.124Z" transform="translate(-112.328 -255.78)" fill="#38185d"/>
          <g id="Grupo_63975" data-name="Grupo 63975" transform="translate(7.362 10.648)">
            <g id="Grupo_63974" data-name="Grupo 63974">
              <path id="Trazado_112133" data-name="Trazado 112133" d="M122.116,271.3a1.9,1.9,0,0,1-.594-.274.177.177,0,0,1,.2-.29c.141.1.492.283.677.223.035-.011.087-.039.122-.141a26.79,26.79,0,0,0,.5-2.666.177.177,0,1,1,.35.05,26.046,26.046,0,0,1-.515,2.73.54.54,0,0,1-.347.364A.747.747,0,0,1,122.116,271.3Z" transform="translate(-121.447 -268.002)" fill="#f8a8b3"/>
            </g>
          </g>
          <path id="Trazado_112134" data-name="Trazado 112134" d="M122.361,276.168a1.918,1.918,0,0,1-2.248,1.242,1.847,1.847,0,0,1-1.415-2.136Z" transform="translate(-112.98 -260.27)" fill="#fff"/>
          <path id="Trazado_112135" data-name="Trazado 112135" d="M124.079,266a7.424,7.424,0,0,0,.646-2.063c.022-.872-.556-1.519-.143-2.27a1.736,1.736,0,0,0-.831-2.1c-.591-.288-2.123-.31-3.405-1.322-1.223-.966-3.716-1.044-4.307-.253-.714.959-.1,1.207-1.644,2.066-.616.343-.282,1.676-.373,2.472a5.312,5.312,0,0,1-.179.923l-.05.193-1.537-.351c.105-1.243.312-2.593.513-3.716a3.877,3.877,0,0,1,3.268-3.154,10.353,10.353,0,0,1,8.624,2.264,3.888,3.888,0,0,1,1.186,3.666,28.243,28.243,0,0,1-1.065,3.8Z" transform="translate(-110.4 -252.655)" fill="#38185d"/>
          <g id="Grupo_63980" data-name="Grupo 63980" transform="translate(0 8.543)">
            <path id="Trazado_112136" data-name="Trazado 112136" d="M111.544,267.4a6.569,6.569,0,0,0,.18-1.221,1.479,1.479,0,0,0-.519-1.442.969.969,0,0,0-1.332.029c-1.117,1.046-1.067,5.106,1.178,4.681Z" transform="translate(-109.157 -264.489)" fill="#fdca8a"/>
            <g id="Grupo_63977" data-name="Grupo 63977" transform="translate(0.866 1.146)">
              <g id="Grupo_63976" data-name="Grupo 63976">
                <path id="Trazado_112137" data-name="Trazado 112137" d="M111.492,269.007a.178.178,0,0,1-.1-.188,2.734,2.734,0,0,0-.733-2.115.177.177,0,0,1,.25-.251,3.052,3.052,0,0,1,.833,2.418.177.177,0,0,1-.2.149A.171.171,0,0,1,111.492,269.007Z" transform="translate(-110.604 -266.402)" fill="#f8a8b3"/>
              </g>
            </g>
            <g id="Grupo_63979" data-name="Grupo 63979" transform="translate(0.785 2.198)">
              <g id="Grupo_63978" data-name="Grupo 63978">
                <path id="Trazado_112138" data-name="Trazado 112138" d="M110.572,268.686a.174.174,0,0,1-.076-.065.177.177,0,0,1,.052-.245,1.623,1.623,0,0,1,.826-.216.177.177,0,1,1,0,.353,1.277,1.277,0,0,0-.631.16A.178.178,0,0,1,110.572,268.686Z" transform="translate(-110.467 -268.159)" fill="#f8a8b3"/>
              </g>
            </g>
          </g>
        </g>
        <g id="Grupo_63984" data-name="Grupo 63984" transform="translate(30.298 21.385)">
          <g id="Grupo_63983" data-name="Grupo 63983">
            <g id="Grupo_63982" data-name="Grupo 63982">
              <path id="Trazado_112139" data-name="Trazado 112139" d="M98.3,285.926c3.041,3.58,14.113,16.087,16.52,17.382,3.134,1.684,12.944,4.242,17.888,5.617.892.248-.549,4.758-.549,4.758s-14.1-1.864-19.448-4.428a52.379,52.379,0,0,1-11.8-9.369,24.624,24.624,0,0,1-4.561-6.893A5.741,5.741,0,0,1,98.3,285.926Z" transform="translate(-95.881 -285.926)" fill="#f25c70"/>
            </g>
          </g>
        </g>
      </g>
    </g>
    <g id="Grupo_64040" data-name="Grupo 64040" transform="translate(197.835 146.364)">
      <path id="Trazado_112140" data-name="Trazado 112140" d="M389.066,436.395c0,1.7-10.1,3.086-22.568,3.086s-22.568-1.381-22.568-3.086,10.1-3.086,22.568-3.086S389.066,434.69,389.066,436.395Z" transform="translate(-327.026 -294.734)" fill="#eee2f6"/>
      <g id="Grupo_64039" data-name="Grupo 64039" transform="translate(0 0)">
        <g id="Grupo_63994" data-name="Grupo 63994" transform="translate(22.56 71.016)">
          <path id="Trazado_112141" data-name="Trazado 112141" d="M369.489,422.75v3.662l3.35-.054.219-3.881Z" transform="translate(-359.833 -361.408)" fill="#fdca8a"/>
          <g id="Grupo_63992" data-name="Grupo 63992" transform="translate(0 63.615)">
            <g id="Grupo_63991" data-name="Grupo 63991">
              <path id="Trazado_112142" data-name="Trazado 112142" d="M363.61,427.775s-.841-1.1-1.5-1.047-5.683,4.146-7.417,4.5-1.382,1.629-1.056,2.279,13.764-.172,13.764-.172.422-4.269-.035-5.5S364.973,428.052,363.61,427.775Z" transform="translate(-353.371 -426.726)" fill="#f47b8c"/>
              <g id="Grupo_63990" data-name="Grupo 63990" transform="translate(3.668 1.349)">
                <g id="Grupo_63987" data-name="Grupo 63987" transform="translate(0.977 0.694)">
                  <path id="Trazado_112143" data-name="Trazado 112143" d="M363.948,431.988a.243.243,0,0,0,.277-.357,3.755,3.755,0,0,0-1.283-1.307,1.677,1.677,0,0,0-1.722.1.243.243,0,1,0,.295.387,1.2,1.2,0,0,1,1.213-.05,3.32,3.32,0,0,1,1.076,1.115A.241.241,0,0,0,363.948,431.988Z" transform="translate(-361.125 -430.135)" fill="#fff"/>
                </g>
                <g id="Grupo_63988" data-name="Grupo 63988" transform="translate(1.695)">
                  <path id="Trazado_112144" data-name="Trazado 112144" d="M365.146,430.83a.243.243,0,0,0,.277-.356,3.744,3.744,0,0,0-1.283-1.307,1.677,1.677,0,0,0-1.722.1.243.243,0,1,0,.3.387,1.2,1.2,0,0,1,1.213-.05A3.293,3.293,0,0,1,365,430.719.241.241,0,0,0,365.146,430.83Z" transform="translate(-362.323 -428.977)" fill="#fff"/>
                </g>
                <g id="Grupo_63989" data-name="Grupo 63989" transform="translate(0 1.261)">
                  <path id="Trazado_112145" data-name="Trazado 112145" d="M362.317,432.936a.244.244,0,0,0,.277-.357,3.755,3.755,0,0,0-1.283-1.307,1.679,1.679,0,0,0-1.722.1.243.243,0,0,0,.295.388,1.2,1.2,0,0,1,1.212-.05,3.3,3.3,0,0,1,1.077,1.115A.244.244,0,0,0,362.317,432.936Z" transform="translate(-359.494 -431.082)" fill="#fff"/>
                </g>
              </g>
            </g>
          </g>
          <path id="Trazado_112146" data-name="Trazado 112146" d="M375.46,320.538c-.086,1.42-.183,3.021-.288,4.741-.02.315-.039.634-.059.957-.012.191-.023.382-.037.575-.677,11.008-1.635,25.931-2.128,30.708-1,9.706-1.054,24.415-1.054,24.415h-5.34c-.5-10.445-1.377-39.729-1.816-54.993-.014-.482-.027-.951-.041-1.4-.056-1.983-.1-3.678-.143-5Z" transform="translate(-357.855 -320.537)" fill="#a468d1"/>
          <path id="Trazado_112147" data-name="Trazado 112147" d="M375.46,320.538c-.086,1.42-.183,3.021-.288,4.741l-.116.011a65.553,65.553,0,0,1-10.358.246c-.056-1.983-.1-3.678-.143-5Z" transform="translate(-357.855 -320.537)" fill="#9b59cd"/>
          <g id="Grupo_63993" data-name="Grupo 63993" transform="translate(8.111)">
            <path id="Trazado_112148" data-name="Trazado 112148" d="M376.757,320.537c-.494,9.973-1.273,24.634-1.866,30.738-.612,6.307-1.2,23.7-1.423,30.659h.7c.22-6.965.811-24.31,1.419-30.592.594-6.124,1.375-20.826,1.87-30.8Z" transform="translate(-369.54 -320.537)" fill="#9b59cd"/>
            <path id="Trazado_112149" data-name="Trazado 112149" d="M366.91,419.806l.241,2.445h6.4l.193-2.445Z" transform="translate(-366.91 -360.337)" fill="#b17dd8"/>
          </g>
        </g>
        <g id="Grupo_64002" data-name="Grupo 64002" transform="translate(39.473 71.016)">
          <path id="Trazado_112150" data-name="Trazado 112150" d="M388.761,422.287l.137,3.66,3.345-.179.074-3.886Z" transform="translate(-384.472 -361.169)" fill="#fdca8a"/>
          <g id="Grupo_64000" data-name="Grupo 64000" transform="translate(3.843 63.427)">
            <g id="Grupo_63999" data-name="Grupo 63999">
              <path id="Trazado_112151" data-name="Trazado 112151" d="M390.107,426.775a16.081,16.081,0,0,1,2.272-.361c.487.032,3.591,3.83,4.681,4.095,1.978.479,1.842,3.594.621,3.694-3.531.291-9.471-1.46-9.471-1.46a28.474,28.474,0,0,1-.079-5.265C388.427,426.236,389.11,427.1,390.107,426.775Z" transform="translate(-388.017 -426.413)" fill="#f47b8c"/>
              <g id="Grupo_63998" data-name="Grupo 63998" transform="translate(3.921 1.477)">
                <g id="Grupo_63995" data-name="Grupo 63995" transform="translate(0.64 0.767)">
                  <path id="Trazado_112152" data-name="Trazado 112152" d="M395.914,431.819a.244.244,0,0,1-.238-.385,3.748,3.748,0,0,1,1.414-1.162,1.677,1.677,0,0,1,1.7.283.243.243,0,1,1-.334.353,1.2,1.2,0,0,0-1.2-.179,3.317,3.317,0,0,0-1.189.994A.244.244,0,0,1,395.914,431.819Z" transform="translate(-395.629 -430.158)" fill="#fff"/>
                </g>
                <g id="Grupo_63996" data-name="Grupo 63996">
                  <path id="Trazado_112153" data-name="Trazado 112153" d="M394.846,430.539a.244.244,0,0,1-.237-.385,3.744,3.744,0,0,1,1.414-1.162,1.676,1.676,0,0,1,1.7.283.243.243,0,0,1-.334.354,1.2,1.2,0,0,0-1.2-.179,3.3,3.3,0,0,0-1.189.994A.243.243,0,0,1,394.846,430.539Z" transform="translate(-394.561 -428.878)" fill="#fff"/>
                </g>
                <g id="Grupo_63997" data-name="Grupo 63997" transform="translate(1.551 1.435)">
                  <path id="Trazado_112154" data-name="Trazado 112154" d="M397.435,432.934a.244.244,0,0,1-.238-.385,3.753,3.753,0,0,1,1.414-1.162,1.678,1.678,0,0,1,1.7.283.243.243,0,1,1-.334.354,1.2,1.2,0,0,0-1.2-.179,3.3,3.3,0,0,0-1.189.994A.245.245,0,0,1,397.435,432.934Z" transform="translate(-397.15 -431.273)" fill="#fff"/>
                </g>
              </g>
            </g>
          </g>
          <path id="Trazado_112155" data-name="Trazado 112155" d="M392.506,320.538c-.023.8-.049,1.73-.078,2.78l-.007.241c-.4,13.834-1.368,47.092-1.914,58.374h-5.34s-.052-14.709-1.054-24.415c-.494-4.779-1.452-19.711-2.129-30.719-.012-.189-.023-.377-.035-.563-.02-.319-.039-.635-.057-.946-.1-1.725-.2-3.329-.289-4.752Z" transform="translate(-381.602 -320.537)" fill="#a468d1"/>
          <path id="Trazado_112156" data-name="Trazado 112156" d="M392.506,320.538c-.023.8-.049,1.73-.078,2.78a64.182,64.182,0,0,1-10.088,1.924c-.029,0-.061.007-.09.011l-.241.026-.116.011c-.1-1.725-.2-3.329-.289-4.752Z" transform="translate(-381.602 -320.537)" fill="#9b59cd"/>
          <g id="Grupo_64001" data-name="Grupo 64001" transform="translate(1.58)">
            <path id="Trazado_112157" data-name="Trazado 112157" d="M384.936,320.537h-.7c.494,9.979,1.277,24.681,1.87,30.8.607,6.282,1.2,23.627,1.419,30.592h.7c-.22-6.955-.811-24.352-1.423-30.659C386.209,345.171,385.431,330.51,384.936,320.537Z" transform="translate(-384.239 -320.537)" fill="#9b59cd"/>
            <path id="Trazado_112158" data-name="Trazado 112158" d="M392.874,419.806l-.241,2.445h-6.4l-.193-2.445Z" transform="translate(-384.959 -360.337)" fill="#b17dd8"/>
          </g>
        </g>
        <path id="Trazado_112159" data-name="Trazado 112159" d="M358.387,263.8c-3.314,4.864-12.271,9.107-12.271,9.107a24.969,24.969,0,0,1-7.453-2.829,22.5,22.5,0,0,0,1.221-4.9c3.059.851,5.7,1.306,5.7,1.306,6.458-2.993,14.04-18.09,14.04-18.09C361.716,252.692,358.387,263.8,358.387,263.8Z" transform="translate(-324.914 -220.595)" fill="#f25c70"/>
        <g id="Grupo_64030" data-name="Grupo 64030" transform="translate(28.628 0)">
          <g id="Grupo_64009" data-name="Grupo 64009" transform="translate(0 25.746)">
            <g id="Grupo_64008" data-name="Grupo 64008">
              <path id="Trazado_112160" data-name="Trazado 112160" d="M364.189,291.343c6.551,4.829,21.709.255,21.709.255,1.706-2.085-.662-6.852-1.358-12.431-.586-4.7.089-11.07.955-15.783.161-.882.33-1.707.5-2.451a78.817,78.817,0,0,0,1.172-12.6c-.823-.422-2.148-.989-3.493-1.535-.836-.339-1.68-.671-2.415-.957-1.307-.508-2.279-.868-2.279-.868l-5.405.829-1.065.326-1.758.536-1.17.356s-.83,5.337-1.621,8.577a13.06,13.06,0,0,1-.626,2.04c-.9,1.958-.679,2.907.27,5.5a8.421,8.421,0,0,1,.449,1.975c.021.177.036.356.047.54a36.546,36.546,0,0,1-1,8.585c-.831,4.291-2.857,12.57-3.553,15.384A1.651,1.651,0,0,0,364.189,291.343Z" transform="translate(-363.499 -244.971)" fill="#f47b8c"/>
              <g id="Grupo_64007" data-name="Grupo 64007" transform="translate(4.555 8.178)">
                <g id="Grupo_64003" data-name="Grupo 64003" transform="translate(0 11.96)">
                  <path id="Trazado_112161" data-name="Trazado 112161" d="M371.1,278.585c.021.177.036.356.047.54,2.69,2.277,7.327,5.384,12.617,5.384a.19.19,0,0,0,0-.379C378.392,284.131,373.693,280.841,371.1,278.585Z" transform="translate(-371.103 -278.585)" fill="#f25c70"/>
                </g>
                <g id="Grupo_64004" data-name="Grupo 64004" transform="translate(5.007)">
                  <path id="Trazado_112162" data-name="Trazado 112162" d="M379.894,261.916c2.687,0,5.166-2.856,5.274-2.982a.189.189,0,0,0-.288-.247c-.026.03-2.622,3.022-5.217,2.841a.189.189,0,1,0-.026.378C379.723,261.913,379.809,261.916,379.894,261.916Z" transform="translate(-379.46 -258.621)" fill="#f25c70"/>
                </g>
                <g id="Grupo_64005" data-name="Grupo 64005" transform="translate(1.524 17.018)">
                  <path id="Trazado_112163" data-name="Trazado 112163" d="M383.845,300.489a.19.19,0,0,0,.021-.378c-6.941-.8-9.816-12.814-9.845-12.936a.189.189,0,1,0-.369.086c.117.506,2.967,12.4,10.171,13.226Z" transform="translate(-373.647 -287.029)" fill="#f25c70"/>
                </g>
                <g id="Grupo_64006" data-name="Grupo 64006" transform="translate(4.434 20.665)">
                  <path id="Trazado_112164" data-name="Trazado 112164" d="M383.028,299.294a.19.19,0,0,0,.1-.351,8.964,8.964,0,0,1-4.246-5.665.188.188,0,0,0-.216-.159.19.19,0,0,0-.159.216,9.17,9.17,0,0,0,4.422,5.931A.188.188,0,0,0,383.028,299.294Z" transform="translate(-378.505 -293.116)" fill="#f25c70"/>
                </g>
              </g>
            </g>
          </g>
          <g id="Grupo_64029" data-name="Grupo 64029" transform="translate(5.064)">
            <path id="Trazado_112165" data-name="Trazado 112165" d="M377.466,228h7.047a5.03,5.03,0,0,0,5-5.544c0-.039-.008-.079-.012-.119-.2-2.095-.506-4.987-.506-4.987-.73-6.269-7.146-7-7.146-7-7.732-1.035-9.93,5.477-9.9,9.042,0,.243.013.489.033.736v.02a27.231,27.231,0,0,0,.695,3.958A4.887,4.887,0,0,0,377.466,228Z" transform="translate(-371.953 -205.299)" fill="#38185d"/>
            <g id="Grupo_64018" data-name="Grupo 64018" transform="translate(0.265 7.751)">
              <g id="Grupo_64014" data-name="Grupo 64014" transform="translate(0 6.817)">
                <path id="Trazado_112166" data-name="Trazado 112166" d="M374.672,227.038s-1.147-1.453-2-.252.353,4.75,2.441,3.884Z" transform="translate(-372.396 -226.311)" fill="#f8a8b3"/>
                <path id="Trazado_112167" data-name="Trazado 112167" d="M374.861,232.921a.382.382,0,1,1-.382-.381A.381.381,0,0,1,374.861,232.921Z" transform="translate(-373.078 -228.808)" fill="#fff"/>
                <g id="Grupo_64011" data-name="Grupo 64011" transform="translate(0.448 1.272)">
                  <g id="Grupo_64010" data-name="Grupo 64010">
                    <path id="Trazado_112168" data-name="Trazado 112168" d="M374.956,230.425a.175.175,0,0,1-.17-.123,2.671,2.671,0,0,0-1.53-1.544.166.166,0,0,1-.1-.216.18.18,0,0,1,.227-.1,2.974,2.974,0,0,1,1.745,1.767.167.167,0,0,1-.122.207A.185.185,0,0,1,374.956,230.425Z" transform="translate(-373.143 -228.434)" fill="#f58696"/>
                  </g>
                </g>
                <g id="Grupo_64013" data-name="Grupo 64013" transform="translate(0.879 1.93)">
                  <g id="Grupo_64012" data-name="Grupo 64012">
                    <path id="Trazado_112169" data-name="Trazado 112169" d="M374.04,230.314a.186.186,0,0,1-.1-.027.163.163,0,0,1-.053-.232,1.591,1.591,0,0,1,.663-.507.18.18,0,0,1,.233.085.164.164,0,0,1-.089.221,1.26,1.26,0,0,0-.509.383A.181.181,0,0,1,374.04,230.314Z" transform="translate(-373.863 -229.534)" fill="#f58696"/>
                  </g>
                </g>
              </g>
              <path id="Trazado_112170" data-name="Trazado 112170" d="M387.122,239.916v3.914s-2.024,2-3.6,2.136-2.122-1.724-2.122-1.724v-4.052Z" transform="translate(-376.005 -224.949)" fill="#fdca8a"/>
              <path id="Trazado_112171" data-name="Trazado 112171" d="M387.122,240.628v1.737c-1.059,1.175-2.94,1.592-5.724,1.181V240.9Z" transform="translate(-376.005 -225.234)" fill="#f8a8b3"/>
              <path id="Trazado_112172" data-name="Trazado 112172" d="M374.921,224.539c.05.421.11.848.185,1.274.5,2.831,2.291,5.889,4.552,6.4,4.882,1.108,6.91-2.726,7.69-5.555.086-.314-.076-.675-.007-1.047a28.412,28.412,0,0,0,.6-2.871c.056-.684.1-1.359.124-1.969a4,4,0,0,0-2.474-3.919,10.008,10.008,0,0,0-8.881.294,4.033,4.033,0,0,0-1.968,3.411A30.149,30.149,0,0,0,374.921,224.539Z" transform="translate(-373.333 -215.34)" fill="#fdca8a"/>
              <g id="Grupo_64016" data-name="Grupo 64016" transform="translate(6.408 8.258)">
                <g id="Grupo_64015" data-name="Grupo 64015">
                  <path id="Trazado_112173" data-name="Trazado 112173" d="M384.229,231.848a.19.19,0,0,0,.031-.377l-.651-.109.9-2.39a.19.19,0,1,0-.355-.134l-1.059,2.821,1.105.185Z" transform="translate(-383.092 -228.716)" fill="#f8a8b3"/>
                </g>
              </g>
              <path id="Trazado_112174" data-name="Trazado 112174" d="M388.439,219.847c-.031.622-.073,1.311-.131,2.008-.317.188-1.09.274-1.123.783-.086,1.347-.151,2.268-.433,2.188-.474-.137-.768-1.768-.226-2.822a4.54,4.54,0,0,0-2.214-1.4,34.352,34.352,0,0,1-4.476-2.18,4.108,4.108,0,0,1-1.2-1.09,4.045,4.045,0,0,1-1.976,2.023c-1.221.557-1.413,1.686-1.561,2.725-.017.12-.033.239-.051.356a3.53,3.53,0,0,1-.334,1.194c-.041.074-.085.087-.131.05-.058-.475-.1-.944-.13-1.4q-.012-.183-.022-.361c-.045-.851-.05-1.637-.038-2.3a4.087,4.087,0,0,1,2.074-3.476,10.872,10.872,0,0,1,9.362-.3A4.073,4.073,0,0,1,388.439,219.847Z" transform="translate(-373.195 -214.932)" fill="#38185d"/>
              <path id="Trazado_112175" data-name="Trazado 112175" d="M380.354,228.16c0,.418-.216.757-.481.757s-.481-.339-.481-.757.215-.757.481-.757S380.354,227.741,380.354,228.16Z" transform="translate(-375.201 -219.932)" fill="#38185d"/>
              <path id="Trazado_112176" data-name="Trazado 112176" d="M389.315,228.16c0,.418-.215.757-.481.757s-.48-.339-.48-.757.215-.757.48-.757S389.315,227.741,389.315,228.16Z" transform="translate(-378.793 -219.932)" fill="#38185d"/>
              <path id="Trazado_112177" data-name="Trazado 112177" d="M377.828,225.237a9.235,9.235,0,0,1,2-.17c.219.008.395.173.364.347v0a.308.308,0,0,1-.349.219,10.507,10.507,0,0,0-2.743.173.359.359,0,0,1,.146-.3A1.161,1.161,0,0,1,377.828,225.237Z" transform="translate(-374.281 -218.994)" fill="#38185d"/>
              <path id="Trazado_112178" data-name="Trazado 112178" d="M389.637,225.373a9.224,9.224,0,0,0-2-.2c-.219,0-.4.167-.369.342v0a.308.308,0,0,0,.346.225,10.528,10.528,0,0,1,2.741.21.36.36,0,0,0-.141-.3A1.163,1.163,0,0,0,389.637,225.373Z" transform="translate(-378.358 -219.038)" fill="#38185d"/>
              <path id="Trazado_112179" data-name="Trazado 112179" d="M381.48,235.828a2.156,2.156,0,0,0,2.182,1.888,2.076,2.076,0,0,0,2.172-1.888Z" transform="translate(-376.038 -223.31)" fill="#fff"/>
              <g id="Grupo_64017" data-name="Grupo 64017" transform="translate(6.641 14.95)">
                <path id="Trazado_112180" data-name="Trazado 112180" d="M384.442,240.487a1.851,1.851,0,0,1-.872-.255.186.186,0,0,1,.195-.316h0a1.5,1.5,0,0,0,.677.2,1.573,1.573,0,0,0,.714-.2.186.186,0,0,1,.193.319A1.948,1.948,0,0,1,384.442,240.487Z" transform="translate(-383.482 -239.888)" fill="#f8a8b3"/>
              </g>
            </g>
            <g id="Grupo_64022" data-name="Grupo 64022" transform="translate(14.17 14.409)">
              <path id="Trazado_112181" data-name="Trazado 112181" d="M395.738,226.92s1.334-1.618,2.12-.451-.325,4.613-2.252,3.771Z" transform="translate(-395.606 -226.046)" fill="#fdca8a"/>
              <path id="Trazado_112182" data-name="Trazado 112182" d="M397.117,232.921a.382.382,0,1,1-.382-.381A.382.382,0,0,1,397.117,232.921Z" transform="translate(-395.906 -228.65)" fill="#fff"/>
              <g id="Grupo_64019" data-name="Grupo 64019" transform="translate(0.258 1.196)">
                <path id="Trazado_112183" data-name="Trazado 112183" d="M396.2,229.976a.164.164,0,0,0,.157-.119,2.517,2.517,0,0,1,1.411-1.5.163.163,0,1,0-.115-.3,2.8,2.8,0,0,0-1.61,1.716.164.164,0,0,0,.113.2A.183.183,0,0,0,396.2,229.976Z" transform="translate(-396.036 -228.042)" fill="#f8a8b3"/>
              </g>
              <g id="Grupo_64021" data-name="Grupo 64021" transform="translate(0.83 1.836)">
                <g id="Grupo_64020" data-name="Grupo 64020">
                  <path id="Trazado_112184" data-name="Trazado 112184" d="M397.694,229.868a.163.163,0,0,0,.137-.251,1.5,1.5,0,0,0-.611-.492.163.163,0,1,0-.133.3,1.184,1.184,0,0,1,.47.372A.163.163,0,0,0,397.694,229.868Z" transform="translate(-396.991 -229.11)" fill="#f8a8b3"/>
                </g>
              </g>
            </g>
            <circle id="Elipse_4848" data-name="Elipse 4848" cx="5.629" cy="5.629" r="5.629" transform="translate(5.351 11.112) rotate(-80.755)" fill="#38185d"/>
            <g id="Grupo_64028" data-name="Grupo 64028" transform="translate(1.503 14.623)">
              <g id="Grupo_64023" data-name="Grupo 64023" transform="translate(6.94 0.148)">
                <path id="Trazado_112185" data-name="Trazado 112185" d="M386.046,227.5v.324a2.422,2.422,0,0,0,2.416,2.426h.079a2.183,2.183,0,0,0,1.5-.665,2.384,2.384,0,0,0,.7-1.7V227.5a.847.847,0,0,0-.056-.3.839.839,0,0,0-.194-.3.847.847,0,0,0-.6-.25H386.9a.849.849,0,0,0-.767.485.822.822,0,0,0-.083.344A.143.143,0,0,0,386.046,227.5Zm.354,0a.5.5,0,0,1,.5-.5h2.995a.5.5,0,0,1,.5.5v.382a2.023,2.023,0,0,1-.592,1.449,1.846,1.846,0,0,1-1.263.566h-.073a2.069,2.069,0,0,1-2.063-2.073Z" transform="translate(-386.046 -226.651)" fill="#fff"/>
              </g>
              <g id="Grupo_64024" data-name="Grupo 64024" transform="translate(0.944 0.148)">
                <path id="Trazado_112186" data-name="Trazado 112186" d="M376.037,227.5v.324a2.418,2.418,0,0,0,.717,1.724,2.392,2.392,0,0,0,1.7.7h.08a2.183,2.183,0,0,0,1.5-.665,2.386,2.386,0,0,0,.7-1.7V227.5a.08.08,0,0,0,0-.017.814.814,0,0,0-.072-.326.849.849,0,0,0-.778-.509h-3a.853.853,0,0,0-.654.307.839.839,0,0,0-.164.316A.786.786,0,0,0,376.037,227.5Zm.353,0a.5.5,0,0,1,.5-.5h3a.5.5,0,0,1,.5.5v.382a2.028,2.028,0,0,1-.592,1.449,1.846,1.846,0,0,1-1.263.566h-.073a2.071,2.071,0,0,1-2.063-2.073Z" transform="translate(-376.037 -226.651)" fill="#fff"/>
              </g>
              <g id="Grupo_64025" data-name="Grupo 64025" transform="translate(11.438)">
                <path id="Trazado_112187" data-name="Trazado 112187" d="M395.674,226.4a4.155,4.155,0,0,0-1.818.4c-.08.038-.294.177-.3.183l.168.3s.237-.141.329-.184a3.559,3.559,0,0,1,1.135-.322Z" transform="translate(-393.553 -226.404)" fill="#fff"/>
              </g>
              <g id="Grupo_64026" data-name="Grupo 64026" transform="translate(5.263 0.501)">
                <path id="Trazado_112188" data-name="Trazado 112188" d="M385.161,227.753l.116-.334a3.592,3.592,0,0,0-1.061-.178,2.383,2.383,0,0,0-.969.186l.155.318a2.081,2.081,0,0,1,.815-.15A3.3,3.3,0,0,1,385.161,227.753Z" transform="translate(-383.246 -227.241)" fill="#fff"/>
              </g>
              <g id="Grupo_64027" data-name="Grupo 64027" transform="translate(0 0.125)">
                <path id="Trazado_112189" data-name="Trazado 112189" d="M375.741,227.007l-.156.317a4.787,4.787,0,0,0-1.1-.35c-.008-.122-.015-.243-.022-.361a4.9,4.9,0,0,1,1.28.394Z" transform="translate(-374.461 -226.613)" fill="#fff"/>
              </g>
            </g>
          </g>
        </g>
        <g id="Grupo_64032" data-name="Grupo 64032" transform="translate(0 20.549)">
          <circle id="Elipse_4849" data-name="Elipse 4849" cx="18.142" cy="18.142" r="18.142" transform="translate(0 25.656) rotate(-45)" fill="#a468d1"/>
          <g id="Grupo_64031" data-name="Grupo 64031" transform="translate(16.992 18.817)">
            <path id="Trazado_112190" data-name="Trazado 112190" d="M361.62,272.735a5.4,5.4,0,0,1-1.58,3.829l-7.191,7.191-7.192-7.191a5.429,5.429,0,0,1,0-7.656c1.964-1.965,4.957-1.61,7.194,1.71,2.236-3.32,5.229-3.675,7.194-1.71A5.4,5.4,0,0,1,361.62,272.735Z" transform="translate(-344.077 -267.705)" fill="#fff"/>
          </g>
        </g>
        <g id="Grupo_64038" data-name="Grupo 64038" transform="translate(22.131 29.107)">
          <path id="Trazado_112191" data-name="Trazado 112191" d="M360.564,301.144l-.736.372a1.8,1.8,0,0,1-1.946-.241,10.916,10.916,0,0,0-.884-.681,4.559,4.559,0,0,0-2.268-.426c-.364.155.032.776.426.938a6.614,6.614,0,0,1,1.385.627c.415.3-1.1,2.1-1.788,2.685s-2.276.863-2.082,1.58,1.275.291,1.275.291-.006.739,1.1.791a.887.887,0,0,0,.846.676.992.992,0,0,0,1.044.625c.74-.134,3.042-.567,5.772-4.948Z" transform="translate(-352.655 -270.445)" fill="#fdca8a"/>
          <g id="Grupo_64037" data-name="Grupo 64037" transform="translate(7.909)">
            <g id="Grupo_64036" data-name="Grupo 64036">
              <g id="Grupo_64035" data-name="Grupo 64035">
                <g id="Grupo_64034" data-name="Grupo 64034">
                  <g id="Grupo_64033" data-name="Grupo 64033">
                    <path id="Trazado_112192" data-name="Trazado 112192" d="M382.466,264.241a25.979,25.979,0,0,1-3.267,9.219s-2.655,1.577-6.714,4.271a54.957,54.957,0,0,1-6.628,3.549c.74.962,1.495,3.093,1.209,3.662,8.17-1.833,16.318-7.358,16.318-7.358,6.384-7.4,6.261-23.929,6.261-23.929s-.208-2.451-1.533-3.074a6.5,6.5,0,0,0-3.6,4.134C383.579,257.852,382.466,264.241,382.466,264.241Z" transform="translate(-365.857 -250.581)" fill="#f25c70"/>
                  </g>
                </g>
              </g>
            </g>
          </g>
        </g>
        <path id="Trazado_112193" data-name="Trazado 112193" d="M327.312,273.764s2.1.158,2.779.872-2.181.948-2.181.948,3.458-.257,3.677.557-3.133,1.16-3.133,1.16,2.37.183,2.6.79-2.21.961-2.21.961,1.864.335,2.089.776-1.8.982-2.883.883-.652-1.5-.652-1.5-.546-1.178-.187-1.67c0,0-.651-1.031-.435-1.7C326.775,275.841,325.976,274.117,327.312,273.764Z" transform="translate(-320.053 -230.768)" fill="#fdca8a"/>
      </g>
    </g>
    <g id="Grupo_64046" data-name="Grupo 64046" transform="translate(175.85 249.725)">
      <path id="Trazado_112194" data-name="Trazado 112194" d="M317.189,435.891c0,1.276-7.523,2.31-16.8,2.31s-16.8-1.034-16.8-2.31,7.523-2.31,16.8-2.31S317.189,434.616,317.189,435.891Z" transform="translate(-280.846 -398.204)" fill="#eee2f6"/>
      <g id="Grupo_64045" data-name="Grupo 64045" transform="translate(0 0)">
        <g id="Grupo_64041" data-name="Grupo 64041" transform="translate(0)">
          <circle id="Elipse_4850" data-name="Elipse 4850" cx="18.142" cy="18.142" r="18.142" transform="matrix(0.997, -0.08, 0.08, 0.997, 0, 2.915)" fill="#f47b8c"/>
        </g>
        <g id="Grupo_64044" data-name="Grupo 64044" transform="translate(9.085 10.455)">
          <g id="Grupo_64043" data-name="Grupo 64043">
            <g id="Grupo_64042" data-name="Grupo 64042">
              <path id="Trazado_112195" data-name="Trazado 112195" d="M302.108,411.95c-.008-.095-.016-.16-.018-.225q-.093-3.366-.18-6.732a.244.244,0,0,0-.212-.271q-3.668-1.129-7.332-2.27a.436.436,0,0,1-.188-.1c.141-.05.282-.1.422-.149q3.495-1.274,6.99-2.545a.211.211,0,0,0,.164-.25q-.106-3.622-.2-7.244c0-.049,0-.1,0-.182.06.067.1.111.143.158q2.388,2.893,4.772,5.789a.263.263,0,0,0,.351.1q3.256-1.179,6.517-2.344a1,1,0,0,1,.286-.068c-.035.05-.069.1-.1.149q-2.153,2.919-4.309,5.834a.228.228,0,0,0,.005.339q2.323,2.91,4.636,5.828c.037.047.069.1.13.183-.134-.035-.225-.058-.316-.084q-3.479-.99-6.958-1.985a.215.215,0,0,0-.283.1q-2.078,2.894-4.164,5.782C302.213,411.812,302.169,411.868,302.108,411.95Z" transform="translate(-294.178 -391.979)" fill="#fff"/>
            </g>
          </g>
        </g>
      </g>
    </g>
  </g>
</svg>
