<svg xmlns="http://www.w3.org/2000/svg" width="144" height="124.732" viewBox="0 0 144 124.732">
  <g id="continue" transform="translate(-23.404 -37.4)">
    <g id="Grupo_62167" data-name="Grupo 62167" transform="translate(23.404 44.628)">
      <g id="Grupo_62134" data-name="Grupo 62134" transform="translate(33.938 28.705)">
        <g id="Grupo_62131" data-name="Grupo 62131">
          <path id="Trazado_109062" data-name="Trazado 109062" d="M72.706,89.6l9.106,55.318H108.56L105.748,89.6Z" transform="translate(-72.706 -89.6)" fill="#d0b2f5"/>
        </g>
        <g id="Grupo_62132" data-name="Grupo 62132" transform="translate(55.543)">
          <path id="Trazado_109063" data-name="Trazado 109063" d="M160.426,89.6l-7.032,55.318H170.7L193.467,89.6Z" transform="translate(-153.394 -89.6)" fill="#8e51d8"/>
        </g>
        <g id="Grupo_62133" data-name="Grupo 62133" transform="translate(33.042)">
          <path id="Trazado_109064" data-name="Trazado 109064" d="M120.706,89.6l2.813,55.318h19.689L150.239,89.6Z" transform="translate(-120.706 -89.6)" fill="#bb83ff"/>
        </g>
      </g>
      <g id="Grupo_62135" data-name="Grupo 62135" transform="translate(31.873 26.639)">
        <path id="Trazado_109065" data-name="Trazado 109065" d="M144.621,146.047H80.877a2.064,2.064,0,0,1-2.038-1.73L69.733,89a2.065,2.065,0,0,1,2.038-2.4h95.616a2.066,2.066,0,0,1,1.91,2.851l-22.766,55.317A2.063,2.063,0,0,1,144.621,146.047Zm-61.991-4.13h60.608L164.3,90.73H74.2Z" transform="translate(-69.706 -86.599)" fill="#47286d"/>
      </g>
      <g id="Grupo_62139" data-name="Grupo 62139" transform="translate(2.066 2.065)">
        <g id="Grupo_62136" data-name="Grupo 62136">
          <path id="Trazado_109066" data-name="Trazado 109066" d="M26.4,50.9h6.648v9.106H26.4Z" transform="translate(-26.405 -50.9)" fill="#ede49d"/>
        </g>
        <g id="Grupo_62137" data-name="Grupo 62137" transform="translate(11.564)">
          <path id="Trazado_109067" data-name="Trazado 109067" d="M43.2,50.9h6.648v9.106H43.2Z" transform="translate(-43.204 -50.9)" fill="#d3ba2a"/>
        </g>
        <g id="Grupo_62138" data-name="Grupo 62138" transform="translate(6.648)">
          <path id="Trazado_109068" data-name="Trazado 109068" d="M36.063,50.9h4.916v9.106H36.063Z" transform="translate(-36.063 -50.9)" fill="#eee045"/>
        </g>
      </g>
      <g id="Grupo_62140" data-name="Grupo 62140">
        <path id="Trazado_109069" data-name="Trazado 109069" d="M43.682,61.137H25.469A2.065,2.065,0,0,1,23.4,59.071V49.965A2.065,2.065,0,0,1,25.469,47.9H43.682a2.065,2.065,0,0,1,2.065,2.065v9.106A2.065,2.065,0,0,1,43.682,61.137Zm-16.148-4.13H41.617V52.03H27.534Z" transform="translate(-23.404 -47.9)" fill="#47286d"/>
      </g>
      <g id="Grupo_62144" data-name="Grupo 62144" transform="translate(34.149 40.469)">
        <g id="Grupo_62141" data-name="Grupo 62141">
          <path id="Trazado_109070" data-name="Trazado 109070" d="M162.727,110.82H75.078a2.065,2.065,0,0,1,0-4.13h87.649a2.065,2.065,0,1,1,0,4.13Z" transform="translate(-73.013 -106.69)" fill="#47286d"/>
        </g>
        <g id="Grupo_62142" data-name="Grupo 62142" transform="translate(2.276 13.829)">
          <path id="Trazado_109071" data-name="Trazado 109071" d="M158.065,130.91H78.385a2.065,2.065,0,0,1,0-4.13h79.68a2.065,2.065,0,1,1,0,4.13Z" transform="translate(-76.32 -126.78)" fill="#47286d"/>
        </g>
        <g id="Grupo_62143" data-name="Grupo 62143" transform="translate(4.554 27.659)">
          <path id="Trazado_109072" data-name="Trazado 109072" d="M153.406,151H81.693a2.065,2.065,0,0,1,0-4.13h71.713a2.065,2.065,0,1,1,0,4.13Z" transform="translate(-79.628 -146.871)" fill="#47286d"/>
        </g>
      </g>
      <g id="Grupo_62145" data-name="Grupo 62145" transform="translate(31.873 81.957)">
        <path id="Trazado_109073" data-name="Trazado 109073" d="M131.189,184.75H78.6a8.895,8.895,0,1,1,0-17.789H85.43a2.065,2.065,0,1,1,0,4.13H78.6a4.765,4.765,0,1,0,0,9.529h52.588a2.065,2.065,0,1,1,0,4.13Z" transform="translate(-69.706 -166.961)" fill="#47286d"/>
      </g>
      <g id="Grupo_62154" data-name="Grupo 62154" transform="translate(40.979 95.617)">
        <path id="Trazado_109078" data-name="Trazado 109078" d="M93.879,208.691a10.944,10.944,0,1,1,10.944-10.944A10.956,10.956,0,0,1,93.879,208.691Zm0-17.757a6.813,6.813,0,1,0,6.813,6.813A6.821,6.821,0,0,0,93.879,190.934Z" transform="translate(-82.935 -186.804)" fill="#47286d"/>
      </g>
      <g id="Grupo_62155" data-name="Grupo 62155" transform="translate(82.412 95.617)">
        <path id="Trazado_109079" data-name="Trazado 109079" d="M154.07,208.691a10.944,10.944,0,1,1,10.944-10.944A10.956,10.956,0,0,1,154.07,208.691Zm0-17.757a6.813,6.813,0,1,0,6.813,6.813A6.821,6.821,0,0,0,154.07,190.934Z" transform="translate(-143.126 -186.804)" fill="#47286d"/>
      </g>
      <g id="Grupo_62159" data-name="Grupo 62159" transform="translate(55.777 26.639)">
        <g id="Grupo_62156" data-name="Grupo 62156" transform="translate(0 0)">
          <path id="Trazado_109080" data-name="Trazado 109080" d="M107.634,146.047a2.064,2.064,0,0,1-2.064-2.022l-1.138-55.317a2.065,2.065,0,1,1,4.13-.085L109.7,143.94a2.065,2.065,0,0,1-2.022,2.107h-.043Z" transform="translate(-104.432 -86.6)" fill="#47286d"/>
        </g>
        <g id="Grupo_62157" data-name="Grupo 62157" transform="translate(17.074 0.001)">
          <path id="Trazado_109081" data-name="Trazado 109081" d="M131.3,146.048a2.127,2.127,0,0,1-.255-.016,2.065,2.065,0,0,1-1.8-2.3l6.829-55.317a2.065,2.065,0,0,1,4.1.506l-6.829,55.317A2.066,2.066,0,0,1,131.3,146.048Z" transform="translate(-129.236 -86.601)" fill="#47286d"/>
        </g>
        <g id="Grupo_62158" data-name="Grupo 62158" transform="translate(33.01)">
          <path id="Trazado_109082" data-name="Trazado 109082" d="M154.453,146.048a2.068,2.068,0,0,1-2-2.6l14.8-55.317a2.065,2.065,0,0,1,3.99,1.067l-14.8,55.317a2.067,2.067,0,0,1-1.994,1.532Z" transform="translate(-152.386 -86.599)" fill="#47286d"/>
        </g>
      </g>
      <g id="Grupo_62160" data-name="Grupo 62160" transform="translate(30.512 18.379)">
        <path id="Trazado_109083" data-name="Trazado 109083" d="M167.46,86.991h-96.3a2.065,2.065,0,0,1-2.038-1.729L67.757,77A2.066,2.066,0,0,1,69.8,74.6H167.46a5.513,5.513,0,0,1,5.507,5.507v1.377A5.514,5.514,0,0,1,167.46,86.991ZM72.91,82.86h94.55a1.378,1.378,0,0,0,1.377-1.377V80.107a1.378,1.378,0,0,0-1.377-1.377H72.228Z" transform="translate(-67.73 -74.6)" fill="#1c2d6b"/>
      </g>
      <g id="Grupo_62164" data-name="Grupo 62164" transform="translate(32.577 20.444)">
        <g id="Grupo_62161" data-name="Grupo 62161">
          <path id="Trazado_109084" data-name="Trazado 109084" d="M70.729,77.6l1.363,8.26h32.151l-.472-8.26Z" transform="translate(-70.729 -77.6)" fill="#31d9e7"/>
        </g>
        <g id="Grupo_62162" data-name="Grupo 62162" transform="translate(66.873)">
          <path id="Trazado_109085" data-name="Trazado 109085" d="M198.669,77.6H167.877c.659,0,1.192,1.541,1.192,3.442v1.377c0,1.9-.533,3.442-1.192,3.442h30.792a3.442,3.442,0,0,0,3.442-3.442V81.042A3.442,3.442,0,0,0,198.669,77.6Z" transform="translate(-167.877 -77.6)" fill="#31d9e7"/>
        </g>
        <g id="Grupo_62163" data-name="Grupo 62163" transform="translate(33.042)">
          <path id="Trazado_109086" data-name="Trazado 109086" d="M153.753,82.419V81.042c0-1.9-.533-3.442-1.192-3.442H118.729l.472,8.26h33.36C153.22,85.86,153.753,84.32,153.753,82.419Z" transform="translate(-118.729 -77.6)" fill="#31d9e7"/>
        </g>
      </g>
      <g id="Grupo_62165" data-name="Grupo 62165" transform="translate(30.512 18.379)">
        <path id="Trazado_109087" data-name="Trazado 109087" d="M167.46,86.991h-96.3a2.065,2.065,0,0,1-2.038-1.729L67.757,77A2.066,2.066,0,0,1,69.8,74.6H167.46a5.513,5.513,0,0,1,5.507,5.507v1.377A5.514,5.514,0,0,1,167.46,86.991ZM72.91,82.86h94.55a1.378,1.378,0,0,0,1.377-1.377V80.107a1.378,1.378,0,0,0-1.377-1.377H72.228Z" transform="translate(-67.73 -74.6)" fill="#47286d"/>
      </g>
      <g id="Grupo_62166" data-name="Grupo 62166" transform="translate(18.213 4.554)">
        <path id="Trazado_109088" data-name="Trazado 109088" d="M74.691,136.049a2.065,2.065,0,0,1-2.035-1.73L60.2,58.645H51.927a2.065,2.065,0,0,1,0-4.13H61.951a2.064,2.064,0,0,1,2.038,1.73l12.742,77.4a2.064,2.064,0,0,1-1.7,2.373A2.093,2.093,0,0,1,74.691,136.049Z" transform="translate(-49.862 -54.515)" fill="#47286d"/>
      </g>
    </g>
    <g id="Grupo_62171" data-name="Grupo 62171" transform="translate(123.935 39.465)">
      <g id="Grupo_62168" data-name="Grupo 62168" transform="translate(20.702)">
        <path id="Trazado_109089" data-name="Trazado 109089" d="M199.521,40.4c3.7,0,6.707,9.269,6.707,20.7s-3,20.7-6.707,20.7a20.7,20.7,0,0,0,0-41.4Z" transform="translate(-199.521 -40.4)" fill="#f17781"/>
      </g>
      <g id="Grupo_62169" data-name="Grupo 62169">
        <path id="Trazado_109090" data-name="Trazado 109090" d="M183.442,61.1c0-11.433,3-20.7,6.707-20.7a20.7,20.7,0,1,0,0,41.4C186.445,81.8,183.442,72.535,183.442,61.1Z" transform="translate(-169.447 -40.4)" fill="#f17781"/>
      </g>
      <g id="Grupo_62170" data-name="Grupo 62170" transform="translate(13.995)">
        <path id="Trazado_109091" data-name="Trazado 109091" d="M203.191,61.1c0-11.433-3-20.7-6.707-20.7s-6.707,9.269-6.707,20.7,3,20.7,6.707,20.7S203.191,72.535,203.191,61.1Z" transform="translate(-189.778 -40.4)" fill="#f17781"/>
      </g>
    </g>
    <g id="Grupo_62172" data-name="Grupo 62172" transform="translate(121.87 37.4)">
      <path id="Trazado_109092" data-name="Trazado 109092" d="M189.214,82.933a22.767,22.767,0,1,1,22.767-22.766A22.793,22.793,0,0,1,189.214,82.933Zm0-41.4a18.637,18.637,0,1,0,18.637,18.637A18.658,18.658,0,0,0,189.214,41.53Z" transform="translate(-166.447 -37.4)" fill="#47286d"/>
    </g>
    <g id="Grupo_62178" data-name="Grupo 62178" transform="translate(133.022 48.552)">
      <g id="Grupo_62173" data-name="Grupo 62173" transform="translate(0)">
        <path id="Trazado_109093" data-name="Trazado 109093" d="M193.415,53.6h-3.442v7.326h-7.326v3.441h10.767Z" transform="translate(-182.648 -53.6)" fill="#f9e478"/>
      </g>
      <g id="Grupo_62174" data-name="Grupo 62174" transform="translate(12.462)">
        <path id="Trazado_109094" data-name="Trazado 109094" d="M211.52,64.367V60.926h-7.326V53.6h-3.443V64.367Z" transform="translate(-200.752 -53.6)" fill="#f9e478"/>
      </g>
      <g id="Grupo_62175" data-name="Grupo 62175" transform="translate(0 12.463)">
        <path id="Trazado_109095" data-name="Trazado 109095" d="M182.648,71.705v3.442h7.326v7.326h3.442V71.705Z" transform="translate(-182.648 -71.705)" fill="#f9e478"/>
      </g>
      <g id="Grupo_62176" data-name="Grupo 62176" transform="translate(12.462 12.463)">
        <path id="Trazado_109096" data-name="Trazado 109096" d="M200.752,82.472h3.443V75.147h7.326V71.705H200.752Z" transform="translate(-200.752 -71.705)" fill="#f9e478"/>
      </g>
      <g id="Grupo_62177" data-name="Grupo 62177" transform="translate(0)">
        <path id="Trazado_109097" data-name="Trazado 109097" d="M195.11,64.367V53.6h-1.695V64.367H182.648v1.7h10.767V76.83h1.695V66.063h10.768v-1.7Z" transform="translate(-182.648 -53.6)" fill="#f9e478"/>
      </g>
    </g>
    <g id="Grupo_62179" data-name="Grupo 62179" transform="translate(130.957 46.486)">
      <path id="Trazado_109098" data-name="Trazado 109098" d="M197.618,77.96h-8.579a2.065,2.065,0,0,1-2.065-2.065V70.634h-5.26a2.065,2.065,0,0,1-2.065-2.065V59.991a2.065,2.065,0,0,1,2.065-2.065h5.26V52.665a2.065,2.065,0,0,1,2.065-2.065h8.579a2.065,2.065,0,0,1,2.065,2.065v5.261h5.26a2.065,2.065,0,0,1,2.065,2.065V68.57a2.065,2.065,0,0,1-2.065,2.065h-5.26V75.9A2.065,2.065,0,0,1,197.618,77.96ZM191.1,73.83h4.449V68.569a2.065,2.065,0,0,1,2.065-2.065h5.26V62.056h-5.26a2.065,2.065,0,0,1-2.065-2.065V54.73H191.1v5.261a2.065,2.065,0,0,1-2.065,2.065h-5.26V66.5h5.26A2.065,2.065,0,0,1,191.1,68.57Z" transform="translate(-179.648 -50.6)" fill="#47286d"/>
    </g>
  </g>
</svg>
