<svg xmlns="http://www.w3.org/2000/svg" width="129.891" height="129.878" viewBox="0 0 129.891 129.878">
  <g id="metodo-de-pago" transform="translate(0 -0.023)">
    <path id="Trazado_109099" data-name="Trazado 109099" d="M107.34,372.017v20.114c11.457.505,8.151,2.53,28.085,11.492a18.865,18.865,0,0,0,14.676-.25l.012-.005,39.161-14.022c1.274-.586,7.7-4.079,5.167-10.583-2.964-6.936-10.592-4.043-11.231-3.835l-20.445,5.652" transform="translate(-80.109 -277.622)" fill="#eac092"/>
    <g id="Grupo_62180" data-name="Grupo 62180" transform="translate(27.232 81.179)">
      <path id="Trazado_109100" data-name="Trazado 109100" d="M130.472,341.553l22.769,7.215a7.48,7.48,0,0,0,9.24-5.149h0c1.13-3.974-1.175-8.111-5.728-9.8l-20.2-6.855s-4.313-7.042-14.58-7.042c-6.483,0-12.073,5.24-14.633,9.827v9.159" transform="translate(-107.341 -319.921)" fill="#fedbab"/>
    </g>
    <path id="Trazado_109101" data-name="Trazado 109101" d="M155.287,388.93a2.5,2.5,0,0,1-.495-.051,2.457,2.457,0,0,1-.477-.145,2.558,2.558,0,0,1-.436-.234,2.466,2.466,0,0,1-.7-.7,2.345,2.345,0,0,1-.233-.439,2.382,2.382,0,0,1-.145-.474,2.437,2.437,0,0,1,0-.989,2.458,2.458,0,0,1,.145-.477,2.573,2.573,0,0,1,.548-.822,2.43,2.43,0,0,1,.386-.315,2.576,2.576,0,0,1,.436-.233,2.457,2.457,0,0,1,.477-.145,2.5,2.5,0,0,1,.989,0,2.382,2.382,0,0,1,.474.145,2.5,2.5,0,0,1,.439.233,2.466,2.466,0,0,1,.7.7,2.575,2.575,0,0,1,.233.436,2.648,2.648,0,0,1,.145.477,2.437,2.437,0,0,1,0,.989,2.562,2.562,0,0,1-.145.474,2.5,2.5,0,0,1-.233.439,2.465,2.465,0,0,1-.7.7,2.5,2.5,0,0,1-.439.234,2.382,2.382,0,0,1-.474.145A2.5,2.5,0,0,1,155.287,388.93Z" transform="translate(-113.999 -286.458)"/>
    <rect id="Rectángulo_6314" data-name="Rectángulo 6314" width="9.611" height="27.257" transform="translate(17.621 90.681)" fill="#eaecf0"/>
    <rect id="Rectángulo_6315" data-name="Rectángulo 6315" width="15.085" height="31.985" transform="translate(2.537 90.681)" fill="#f17781"/>
    <path id="Trazado_109102" data-name="Trazado 109102" d="M116.7,331.5c-.01-.025-.02-.05-.031-.075-2.335-5.464-7.811-7.483-14.292-5.27L84.7,331.044a11.586,11.586,0,0,0-7.175-7.065l-.067-.024L58.03,317.36a20.039,20.039,0,0,0-16.166-7.438c-6.628,0-12.491,4.547-15.845,9.5H2.537A2.537,2.537,0,0,0,0,321.961v31.985a2.537,2.537,0,0,0,2.537,2.537H17.621a2.537,2.537,0,0,0,2.537-2.537v-2.19h7.074a2.537,2.537,0,0,0,2.537-2.537v-.73c4.124.36,5.48,1.142,9.267,3.326A153.516,153.516,0,0,0,54.276,359.6c.037.016.074.032.111.047a22.771,22.771,0,0,0,8.162,1.539,20.221,20.221,0,0,0,8.405-1.8l39.066-13.988c.07-.025.138-.053.2-.084C113.959,343.593,119.523,338.752,116.7,331.5ZM15.084,351.409H5.074V324.5h10.01Zm9.611-4.727H20.158V324.5h4.537Zm83.5-6.024L69.15,354.638c-.034.012-.081.03-.114.044l-.1.044a16.443,16.443,0,0,1-12.634.215,146.958,146.958,0,0,1-14.73-7.524c-4.151-2.394-6.152-3.548-11.8-4.014V322.971c2.4-3.941,7.068-7.976,12.1-7.976,8.622,0,12.275,5.608,12.419,5.834a2.537,2.537,0,0,0,1.346,1.074l20.162,6.843c3.22,1.209,4.922,3.966,4.14,6.716a4.943,4.943,0,0,1-6.073,3.412l-22.729-7.2a2.537,2.537,0,1,0-1.533,4.837l22.769,7.215.073.022a9.958,9.958,0,0,0,7.615-.885,9.95,9.95,0,0,0,4.759-6.01q.088-.308.155-.616l19.048-5.277c2.751-.94,6.362-1.278,7.97,2.425C113.648,337.729,109.323,340.121,108.2,340.657Z" transform="translate(0 -231.28)" fill="#47286d"/>
    <path id="Trazado_109103" data-name="Trazado 109103" d="M90.511,32.555,67.979,10.023l-28.25,28.25L88,86.548l26.658-26.658" transform="translate(-29.65 -7.463)" fill="#31d9e7"/>
    <path id="Trazado_109104" data-name="Trazado 109104" d="M154.65,113.967h0l0-.015a11.924,11.924,0,1,0,12.738,12.2" transform="translate(-107.13 -85.026)" fill="#ffd36c"/>
    <path id="Trazado_109105" data-name="Trazado 109105" d="M244.072,58.3V38.19c-11.457-.505-8.151-2.53-28.085-11.492a18.865,18.865,0,0,0-14.676.25l-.012.005-11.815,4.23,12.191,12.191" transform="translate(-141.413 -18.881)" fill="#eac092"/>
    <g id="Grupo_62181" data-name="Grupo 62181" transform="translate(10.079 2.56)">
      <path id="Trazado_109106" data-name="Trazado 109106" d="M39.729,93.205l9.577-9.577a13.559,13.559,0,0,1,0,19.155Z" transform="translate(-39.729 -64.955)" fill="#0aa1ae"/>
      <path id="Trazado_109107" data-name="Trazado 109107" d="M192.264,262.262a13.559,13.559,0,0,1,19.155,0l-9.577,9.577Z" transform="translate(-153.567 -195.315)" fill="#0aa1ae"/>
      <path id="Trazado_109108" data-name="Trazado 109108" d="M113.333,19.6l9.577-9.577,9.577,9.577A13.559,13.559,0,0,1,113.333,19.6Z" transform="translate(-94.66 -10.023)" fill="#0aa1ae"/>
      <path id="Trazado_109109" data-name="Trazado 109109" d="M288.819,182.048a13.562,13.562,0,0,0,3.15,14.21l7.985-7.985" transform="translate(-225.021 -138.407)" fill="#0aa1ae"/>
    </g>
    <g id="Grupo_62182" data-name="Grupo 62182" transform="translate(47.235 23.505)">
      <path id="Trazado_109110" data-name="Trazado 109110" d="M218.484,100.087l-22.769-7.215a7.479,7.479,0,0,0-9.24,5.149h0c-1.13,3.974,1.175,8.111,5.728,9.8l20.207,6.858-.008,0s4.311,7.042,14.58,7.042c6.483,0,12.073-5.24,14.633-9.827v-9.159" transform="translate(-186.19 -92.585)" fill="#fedbab"/>
    </g>
    <path id="Trazado_109111" data-name="Trazado 109111" d="M341.787,128.571a2.5,2.5,0,0,1-.495-.051,2.563,2.563,0,0,1-.474-.145,2.5,2.5,0,0,1-.439-.233,2.464,2.464,0,0,1-.7-.7,2.5,2.5,0,0,1-.233-.439,2.384,2.384,0,0,1-.145-.474,2.436,2.436,0,0,1,0-.989,2.46,2.46,0,0,1,.145-.477,2.572,2.572,0,0,1,.233-.436,2.464,2.464,0,0,1,.7-.7,2.5,2.5,0,0,1,.439-.233,2.381,2.381,0,0,1,.474-.145,2.511,2.511,0,0,1,.992,0,2.486,2.486,0,0,1,.474.145,2.571,2.571,0,0,1,.436.233,2.536,2.536,0,0,1,.934,1.137,2.468,2.468,0,0,1,.147.477,2.563,2.563,0,0,1,0,.989,2.391,2.391,0,0,1-.147.474,2.346,2.346,0,0,1-.233.439,2.465,2.465,0,0,1-.7.7,2.574,2.574,0,0,1-.436.233,2.685,2.685,0,0,1-.474.145A2.543,2.543,0,0,1,341.787,128.571Z" transform="translate(-253.185 -92.15)"/>
    <rect id="Rectángulo_6316" data-name="Rectángulo 6316" width="9.611" height="27.257" transform="translate(102.659 15.88)" fill="#eaecf0"/>
    <rect id="Rectángulo_6317" data-name="Rectángulo 6317" width="15.085" height="31.985" transform="translate(112.269 11.152)" fill="#bb83ff"/>
    <path id="Trazado_109112" data-name="Trazado 109112" d="M149.512,8.615H134.428a2.537,2.537,0,0,0-2.537,2.537v2.19h-7.074a2.537,2.537,0,0,0-2.537,2.537v.73c-4.124-.36-5.48-1.142-9.267-3.326A153.51,153.51,0,0,0,97.773,5.5c-.037-.017-.074-.032-.112-.047A21.583,21.583,0,0,0,81.1,5.716L70.887,9.371l-8.6-8.6a2.537,2.537,0,0,0-3.588,0L30.443,29.017a2.516,2.516,0,0,0,0,3.588L78.717,80.879a2.741,2.741,0,0,0,3.588,0L108.1,55.087c.671.058,1.366.089,2.088.089,6.628,0,12.491-4.547,15.845-9.5h23.482a2.537,2.537,0,0,0,2.537-2.537V11.152A2.537,2.537,0,0,0,149.512,8.615ZM66.922,32.143a11.232,11.232,0,0,0,7.6,8.977l.067.024,5.073,1.722A9.388,9.388,0,1,1,66.922,32.143ZM72,22.237A9.944,9.944,0,0,0,67.863,26.6,14.459,14.459,0,1,0,84.488,44.5l8.566,2.907a16.2,16.2,0,0,0,2.687,12.858l-5.794,5.794a16.122,16.122,0,0,0-18.872,0L45.262,40.248a16.122,16.122,0,0,0,0-18.874l5.788-5.788a16.122,16.122,0,0,0,18.874,0l5.487,5.487A10.012,10.012,0,0,0,72,22.237ZM99.4,56.612a11.1,11.1,0,0,1-1.621-5.276,19.726,19.726,0,0,0,4.474,2.423ZM60.487,6.148,66.27,11.93a11.06,11.06,0,0,1-11.564,0Zm-18.88,18.88a11.061,11.061,0,0,1,0,11.565L35.825,30.81ZM80.512,75.5,74.73,69.716a11.045,11.045,0,0,1,11.562,0ZM110.185,50.1a18.465,18.465,0,0,1-2.647-.186l-.01,0a14.531,14.531,0,0,1-9.4-5.143c-.052-.076-.272-.365-.3-.413a2.528,2.528,0,0,0-1.4-1.163L76.257,36.351c-3.219-1.208-4.92-3.964-4.14-6.713l0-.005,0-.006a4.943,4.943,0,0,1,6.071-3.4l22.729,7.2a2.537,2.537,0,0,0,1.533-4.837L84.376,22.86l-.158-.158,0,0-9.359-9.359,8.044-2.88.088-.033.027-.011.1-.044a16.441,16.441,0,0,1,12.634-.215,146.953,146.953,0,0,1,14.73,7.524c4.151,2.394,6.152,3.548,11.8,4.014V42.126C119.876,46.068,115.212,50.1,110.185,50.1Zm17.17-31.686h4.537V40.6h-4.537ZM146.975,40.6h-10.01V13.689h10.01Z" transform="translate(-22.158)" fill="#47286d"/>
  </g>
</svg>
