<svg xmlns="http://www.w3.org/2000/svg" width="119.962" height="126.687" viewBox="0 0 119.962 126.687">
  <g id="rating" transform="translate(-13.589)">
    <g id="Grupo_61131" data-name="Grupo 61131" transform="translate(15.445 1.856)">
      <path id="Trazado_107980" data-name="Trazado 107980" d="M376.2,317.929V289.563a18.323,18.323,0,0,0-16.448-18.226c-.616-.063-1.241.09-1.873.09a17.921,17.921,0,0,0-17.9,18.263v28.12Z" transform="translate(-261.074 -206.043)" fill="#855b51"/>
      <path id="Trazado_107981" data-name="Trazado 107981" d="M358.6,271.106a18.322,18.322,0,0,0-16.341,18.214v28.156l-3.959.092V289.32A18.32,18.32,0,0,1,356.62,271a18.077,18.077,0,0,1,1.979.106Z" transform="translate(-259.811 -205.801)" fill="#724d44"/>
      <path id="Trazado_107982" data-name="Trazado 107982" d="M401.9,416.144v-19.2l-.759-2.243.759-6.589H391.675l.433,10.423L391.675,402v14.141l5.111.77Z" transform="translate(-299.979 -293.938)" fill="#c48958"/>
      <path id="Trazado_107983" data-name="Trazado 107983" d="M360.305,432.191l-10.05,3.979,1.22,13.913h14.139l-.738-.812c-3.522-3.876-4.209-8.882-4.342-14.1C360.506,434.025,360.305,433.35,360.305,432.191Z" transform="translate(-268.808 -327.107)" fill="#f9e478"/>
      <path id="Trazado_107984" data-name="Trazado 107984" d="M360.473,433.7l-.032.012-9.977,4.1-.294-3.355,10.271-4.221.432,1.725Z" transform="translate(-268.744 -325.639)" fill="#ffb65f"/>
      <path id="Trazado_107985" data-name="Trazado 107985" d="M427.942,434.563l-10.495-4.324c0,6.337-.069,12.855-4.411,17.606l-.7.77H429.3a2.477,2.477,0,0,0,2.477-2.477v-5.848A6.192,6.192,0,0,0,427.942,434.563Z" transform="translate(-315.525 -325.638)" fill="#f9e478"/>
      <path id="Trazado_107986" data-name="Trazado 107986" d="M391.674,388.119h0s0,8.817,0,8.817,0,3.921.032,5.069l2.571-1.057a.99.99,0,0,0,.613-.916v-1.1a.494.494,0,0,1,.578-.486,7.876,7.876,0,0,0,1.313.112,9.671,9.671,0,0,0,5.114-1.611v-8.831H391.674Z" transform="translate(-299.977 -293.94)" fill="#b27a49"/>
      <path id="Trazado_107987" data-name="Trazado 107987" d="M367.4,316.158a12.52,12.52,0,0,0-.133,2.49c1.353,6.575,6.684,13.183,11.108,13.183,5.115,0,11.432-8.82,11.432-16.22,0-4.58-1.545-8.623-4.477-11.04-.61-.5-1.112-.456-1.841-.808a.4.4,0,0,0-.562.266,15.406,15.406,0,0,1-11.653,11.119l-3.562.617C367.531,315.8,367.4,316.158,367.4,316.158Z" transform="translate(-281.57 -230.427)" fill="#c48958"/>
      <path id="Trazado_107988" data-name="Trazado 107988" d="M371.218,316.138a17.782,17.782,0,0,0,13.31-13.022,9.978,9.978,0,0,0-2.007-1.289.4.4,0,0,0-.562.266,15.34,15.34,0,0,1-11.57,11.153l-3.931.841a.4.4,0,0,0-.313.392v0a15.371,15.371,0,0,0,.322,2.711Z" transform="translate(-280.766 -228.97)" fill="#b27a49"/>
      <path id="Trazado_107989" data-name="Trazado 107989" d="M60.725,437.484l-14.328-5.1c-2.7,3.113-7.371,2.756-10.067-.358l-10.343,4.3a5.708,5.708,0,0,0-3.9,5.31v5.6a2.477,2.477,0,0,0,2.477,2.477l.492.247h11.11l4.951-.634,5.275.634h9.14l5.189-.919Z" transform="translate(-21.843 -326.979)" fill="#bae6ef"/>
      <path id="Trazado_107990" data-name="Trazado 107990" d="M90.371,398.126H81l.042,7.439c.89,1.028,1.477,2.227,2.679,2.576a6.759,6.759,0,0,0,7.006-2.063l0,0v-3.929Z" transform="translate(-66.176 -301.471)" fill="#f2d1a5"/>
      <path id="Trazado_107991" data-name="Trazado 107991" d="M37.683,433.685l-10.775,4.877-.76.318a2.962,2.962,0,0,0-1.841,2.749v8.326h-.74a2.476,2.476,0,0,1-2.477-2.477v-5.849a6.192,6.192,0,0,1,3.833-5.723l10.022-3.885A13.947,13.947,0,0,0,37.683,433.685Z" transform="translate(-21.09 -326.979)" fill="#31d9e7"/>
      <path id="Trazado_107992" data-name="Trazado 107992" d="M70,435.053,58.321,448.615H48.094l-8.508-11.394-1.65-2.518,5.6-1.948L48.1,430.24a6.762,6.762,0,0,0,10.224,0v0Z" transform="translate(-33.768 -325.639)" fill="#f8f7f7"/>
      <path id="Trazado_107993" data-name="Trazado 107993" d="M82.217,398.13H79v8.452l2.556,1.59a3.784,3.784,0,0,1,.661-.033V404a.494.494,0,0,1,.571-.487,8.6,8.6,0,0,0,1.322.1,10.469,10.469,0,0,0,5.114-1.472V398.13Z" transform="translate(-64.671 -301.474)" fill="#f2bb88"/>
      <g id="Grupo_61126" data-name="Grupo 61126" transform="translate(3.835 104.601)">
        <path id="Trazado_107994" data-name="Trazado 107994" d="M50.3,432.306v0L38.572,437.22l-1.982-2.655,10.494-4.325A6.485,6.485,0,0,0,50.3,432.306Z" transform="translate(-36.59 -430.24)" fill="#e8e8e8"/>
      </g>
      <path id="Trazado_107995" data-name="Trazado 107995" d="M75.613,303.955c0-7.783-3.994-12.529-11.776-12.529S52.06,296.172,52.06,303.955a15.887,15.887,0,0,0,.567,4.924C54.564,314.9,59.6,320.1,63.836,320.1c4.2,0,9.182-5.111,11.156-11.059A15.971,15.971,0,0,0,75.613,303.955Z" transform="translate(-44.397 -221.173)" fill="#f2d1a5"/>
      <path id="Trazado_107996" data-name="Trazado 107996" d="M69.729,292.985a7.98,7.98,0,0,0-2.254.581l-.009.025a4.744,4.744,0,0,0-.478-1.7,15.533,15.533,0,0,0-3.9-.466c-7.783,0-12.024,4.746-12.024,12.529a16.167,16.167,0,0,0,.818,4.923c.172-.157.359-.332.562-.54,1.541-1.573,4.133-4.183,7.19-5.517,1.869-.816,3.451-1.041,4.675-2.105a.5.5,0,0,1,.76.121,11.829,11.829,0,0,0,4.3,3.761,16.168,16.168,0,0,1,4.873,4.445,16.257,16.257,0,0,0,.868-5.088c0-5.155-1.862-8.975-5.379-10.969Z" transform="translate(-43.645 -221.172)" fill="#f2bb88"/>
      <path id="Trazado_107997" data-name="Trazado 107997" d="M111.161,285.418a8.187,8.187,0,0,1,3.125-.9,7.021,7.021,0,0,1,5.132,1.972c4.681,4.74,2.223,12.05.425,15.258a.5.5,0,0,1-.8.089,30.369,30.369,0,0,0-6.086-5.249,11.446,11.446,0,0,1-2.482-2.133,8.844,8.844,0,0,1-1.389-3.106Z" transform="translate(-87.311 -215.97)" fill="#8e868e"/>
      <path id="Trazado_107998" data-name="Trazado 107998" d="M112.763,289.154a13.9,13.9,0,0,1-3.313,5.29,8.93,8.93,0,0,1-1.73-2.9l2.4-6.394a8.247,8.247,0,0,1,3.145-.636,10.192,10.192,0,0,1-.5,4.644Z" transform="translate(-86.285 -215.968)" fill="#766d78"/>
      <path id="Trazado_107999" data-name="Trazado 107999" d="M58.563,271.415a5.733,5.733,0,0,0-4.077-2.371c-2.874-.458-6.464.87-9.762,3.281-6.218,4.544-4.946,13.447-3,17.4a.5.5,0,0,0,.848.074c.34-.469.879-.815,1.636-1.588a19.97,19.97,0,0,1,7.437-4.775C57.887,281.165,60.691,274.74,58.563,271.415Z" transform="translate(-35.417 -204.261)" fill="#8e868e"/>
      <path id="Trazado_108000" data-name="Trazado 108000" d="M54.336,268.968a15.172,15.172,0,0,0-6.71,2.823c-5.394,3.942-5.05,11.756-3.59,16.338a16.975,16.975,0,0,0-1.638,1.925.5.5,0,0,1-.849-.074c-1.95-3.954-3.358-13.644,2.86-18.189a13.745,13.745,0,0,1,9.927-2.823Z" transform="translate(-35.239 -204.179)" fill="#766d78"/>
      <path id="Trazado_108001" data-name="Trazado 108001" d="M59.484,120.519l-5.749-.032a2.655,2.655,0,0,0-1.861.762L48,125.055a1.327,1.327,0,0,1-1.868-.007l-3.794-3.786a2.654,2.654,0,0,0-1.875-.775H34.493a4.777,4.777,0,0,1-4.777-4.777V98.985a4.9,4.9,0,0,1,2.97-4.764,4.774,4.774,0,0,1,1.56-.261H64.659v22a4.768,4.768,0,0,1-.261,1.562C63.75,119.391,61.575,120.519,59.484,120.519Z" transform="translate(-27.582 -72.567)" fill="#f8f7f7"/>
      <path id="Trazado_108002" data-name="Trazado 108002" d="M63.646,118.316a4.777,4.777,0,0,1-4.513,3.217h-5.9a2.662,2.662,0,0,0-1.863.762l-4.12,4.053a1.328,1.328,0,0,1-1.868-.007l-4.041-4.033a2.662,2.662,0,0,0-1.876-.774H33.5a4.777,4.777,0,0,1-4.776-4.778V99.536a4.772,4.772,0,0,1,3.217-4.516v21.735a1.561,1.561,0,0,0,1.559,1.561h5.971a5.832,5.832,0,0,1,4.147,1.715l2.022,2.019a.992.992,0,0,0,1.4,0L49.116,120a5.871,5.871,0,0,1,4.117-1.685Z" transform="translate(-26.832 -73.364)" fill="#e8e8e8"/>
      <g id="Grupo_61127" data-name="Grupo 61127" transform="translate(11.735 29.952)">
        <path id="Trazado_108003" data-name="Trazado 108003" d="M76.9,129.74a.577.577,0,0,0,.788,0,4.414,4.414,0,0,1,3.028-1.184,4.327,4.327,0,0,1,4.321,4.343c-.045,3.125-3.379,5.8-5.658,7.264a8.96,8.96,0,0,1-1.827.743.578.578,0,0,1-.523.006c-1.364-.673-7.235-3.664-7.147-8.023a4.159,4.159,0,0,1,2.411-3.9,4.239,4.239,0,0,1,.486-.277,4.155,4.155,0,0,1,1.113-.16A4.328,4.328,0,0,1,76.9,129.74Z" transform="translate(-69.542 -128.552)" fill="#f17781"/>
        <path id="Trazado_108004" data-name="Trazado 108004" d="M78.351,140.646c-.8.517-1.48.883-1.829,1.066a.572.572,0,0,1-.522.007c-1.366-.673-7.572-3.979-7.482-8.339a4.515,4.515,0,0,1,3.234-4.182,4.437,4.437,0,0,0-1.007,2.7C70.673,135.428,75.709,139.041,78.351,140.646Z" transform="translate(-68.517 -129.04)" fill="#dc4955"/>
      </g>
      <path id="Trazado_108005" data-name="Trazado 108005" d="M371.771,120.487h-5.9a2.655,2.655,0,0,0-1.861.762l-3.872,4.053a1.327,1.327,0,0,1-1.868-.007l-3.794-4.033a2.654,2.654,0,0,0-1.875-.775H346.63a4.777,4.777,0,0,1-4.777-4.777l.315-21.261,4.818-.489h25.032a4.777,4.777,0,0,1,4.777,4.777v17.22a4.77,4.77,0,0,1-.261,1.562A4.9,4.9,0,0,1,371.771,120.487Z" transform="translate(-262.485 -72.566)" fill="#f8f7f7"/>
      <g id="Grupo_61128" data-name="Grupo 61128" transform="translate(88.969 29.952)">
        <path id="Trazado_108006" data-name="Trazado 108006" d="M389.037,129.74a.577.577,0,0,0,.788,0,4.413,4.413,0,0,1,3.028-1.184,4.328,4.328,0,0,1,4.321,4.343c-.045,3.125-3.38,5.8-5.658,7.264a8.959,8.959,0,0,1-1.827.743.578.578,0,0,1-.523.006c-1.364-.673-7.235-3.664-7.147-8.023a4.159,4.159,0,0,1,2.411-3.9,4.241,4.241,0,0,1,.486-.277,4.155,4.155,0,0,1,1.113-.16A4.327,4.327,0,0,1,389.037,129.74Z" transform="translate(-381.681 -128.552)" fill="#f17781"/>
        <path id="Trazado_108007" data-name="Trazado 108007" d="M390.49,140.646c-.8.517-1.48.883-1.829,1.066a.572.572,0,0,1-.522.007c-1.366-.673-7.572-3.979-7.482-8.339a4.515,4.515,0,0,1,3.234-4.182,4.437,4.437,0,0,0-1.007,2.7C382.812,135.428,387.848,139.041,390.49,140.646Z" transform="translate(-380.656 -129.04)" fill="#dc4955"/>
      </g>
      <path id="Trazado_108008" data-name="Trazado 108008" d="M365.363,117.518a5.844,5.844,0,0,0-4.117,1.685l-2.435,2.4a.5.5,0,0,1-.7,0l-2.368-2.365a5.868,5.868,0,0,0-4.147-1.715h-5.971a1.561,1.561,0,0,1-1.561-1.561v-8.662a.5.5,0,0,1,.12-.32,6.778,6.778,0,0,0,.637-.883,9.864,9.864,0,0,0,1.408-5.08V93.959H340.85v22a4.778,4.778,0,0,0,4.778,4.778H351.6a2.662,2.662,0,0,1,1.876.774l4.041,4.033a1.328,1.328,0,0,0,1.868.007l4.12-4.053a2.66,2.66,0,0,1,1.861-.762h5.9a4.778,4.778,0,0,0,4.516-3.217H365.363Z" transform="translate(-261.73 -72.566)" fill="#e8e8e8"/>
      <path id="Trazado_108009" data-name="Trazado 108009" d="M201.974,42l-7.152.242a3.981,3.981,0,0,0-2.967,1.327l-4.153,4.57a1.858,1.858,0,0,1-2.779-.011l-3.841-4.651a3.981,3.981,0,0,0-2.988-1.351l-8.2.459a6.637,6.637,0,0,1-6.636-6.636V14.136A6.634,6.634,0,0,1,169.895,7.5H202.73a6.635,6.635,0,0,1,6.635,6.635v21.81a6.605,6.605,0,0,1-.947,3.419c-1.161,1.927-4.03,2.632-6.444,2.632Z" transform="translate(-128.081 -7.5)" fill="#f8f7f7"/>
      <path id="Trazado_108010" data-name="Trazado 108010" d="M208.419,42.247a6.637,6.637,0,0,1-5.689,3.217H194.82a3.989,3.989,0,0,0-2.969,1.326l-4.142,4.63a1.856,1.856,0,0,1-2.779-.01l-4.046-4.595a3.978,3.978,0,0,0-2.989-1.351h-8a6.637,6.637,0,0,1-6.636-6.636V17.019a6.637,6.637,0,0,1,3.217-5.689v27.5a3.42,3.42,0,0,0,3.42,3.42h8a7.194,7.194,0,0,1,5.4,2.442l2.482,2.818a.74.74,0,0,0,1.109,0l2.566-2.865a7.191,7.191,0,0,1,5.364-2.4Z" transform="translate(-128.082 -10.382)" fill="#e8e8e8"/>
      <path id="Trazado_108011" data-name="Trazado 108011" d="M221.077,45.782a.886.886,0,0,0,1.209-.007,6.772,6.772,0,0,1,4.645-1.816,6.639,6.639,0,0,1,6.629,6.663c-.072,5.026-5.69,9.291-9.175,11.457a16.392,16.392,0,0,1-2.236,1.045.886.886,0,0,1-.8.009c-2.093-1.033-11.232-5.441-11.1-12.13.058-2.871,1.561-5.813,4.212-6.707a6.381,6.381,0,0,1,2-.337,6.638,6.638,0,0,1,4.615,1.823Z" transform="translate(-163.444 -34.937)" fill="#f17781"/>
      <path id="Trazado_108012" data-name="Trazado 108012" d="M222.989,63.111c-1.014.631-1.848,1.084-2.311,1.324a.888.888,0,0,1-.8.01c-2.093-1.034-11.615-6.1-11.481-12.79a6.923,6.923,0,0,1,4.672-6.324,6.817,6.817,0,0,0-1.95,4.592C211,55.641,219.278,61.022,222.989,63.111Z" transform="translate(-162.049 -35.97)" fill="#dc4955"/>
      <path id="Trazado_108013" data-name="Trazado 108013" d="M243.079,357.911H230.2l.609,8.587-.609,4.54,0,0a9.583,9.583,0,0,0,1.712,1.943,9.032,9.032,0,0,0,9.318.347c.748-.45,1.236-1.588,1.843-2.289l0,0v-5.455l-.521-.854Z" transform="translate(-178.458 -271.207)" fill="#e3a76f"/>
      <path id="Trazado_108014" data-name="Trazado 108014" d="M203.143,418.709l-6.737-2.776-6.71-2.04c-3.4,3.922-9.483,4.275-12.879.353l-12.952,4.463a7.431,7.431,0,0,0-4.6,6.87l.247,10.238,2.473.495h16.257l5.262-1.192,4.663,1.192h19.577V425.58A7.431,7.431,0,0,0,203.143,418.709Z" transform="translate(-125.075 -313.337)" fill="#bb83ff"/>
      <path id="Trazado_108015" data-name="Trazado 108015" d="M233.417,357.91H230.2v13.129c.4.466.222,1.252.693,1.608.536.4,1.733.363,2.331.624h0l0-6.107a.5.5,0,0,1,.607-.482,12.945,12.945,0,0,0,2.807.428,14.111,14.111,0,0,0,6.441-1.527V357.91h-9.662Z" transform="translate(-178.459 -271.206)" fill="#d6995c"/>
      <path id="Trazado_108016" data-name="Trazado 108016" d="M178.049,413.929l-7.449,3.186-7.513,3.1a4.2,4.2,0,0,0-2.61,3.895V434.84H157.26V424.106a7.429,7.429,0,0,1,4.6-6.869l6.7-2.761,3.058-.944,3.554-1.6A7.322,7.322,0,0,0,178.049,413.929Z" transform="translate(-123.567 -311.864)" fill="#b3e59f"/>
      <path id="Trazado_108017" data-name="Trazado 108017" d="M230.12,413.734c-.161.188-.27.312-.28.324a34.337,34.337,0,0,0-7.96,19.78v.275h-9.925v-.178a34.328,34.328,0,0,0-6.133-17.546,29.537,29.537,0,0,0-1.685-2.461l-.074-.1,6.467-2.606a7.783,7.783,0,0,0,3.026,1.978,8.524,8.524,0,0,0,9.851-2.23l0,0Z" transform="translate(-158.79 -311.137)" fill="#f8f7f7"/>
      <path id="Trazado_108018" data-name="Trazado 108018" d="M212.709,413.2l-7.732,3.187q-.917-1.314-1.962-2.544l-.074-.1,6.745-2.779a8.509,8.509,0,0,0,2,1.7q.1.063.2.119a8.555,8.555,0,0,0,.824.416Z" transform="translate(-157.944 -311.137)" fill="#e8e8e8"/>
      <path id="Trazado_108019" data-name="Trazado 108019" d="M227.512,248.107c0-9.32-4.688-16.789-14.008-16.789s-13.546,7.533-13.546,16.854c0,1.556-.711,3.184-.432,4.779,1.393,7.963,6.214,15.672,13.979,15.672,8.268,0,13.2-8.741,14.206-17.222a28.055,28.055,0,0,0-.2-3.295Z" transform="translate(-155.325 -175.937)" fill="#e3a76f"/>
      <path id="Trazado_108020" data-name="Trazado 108020" d="M226.822,248.2c0-6.815-2.719-12.683-7.823-15.347a.25.25,0,0,1-.438-.221,14.207,14.207,0,0,0-6.139-1.308c-9.32,0-14.4,7.556-14.4,16.876a27.736,27.736,0,0,0,.421,4.757,6.625,6.625,0,0,1,.8-.763c2.438-2.294,5.937-2.376,6.309-4.775a.5.5,0,0,1,.622-.414c2.773.77,7.277-.987,8.783-4.037a.494.494,0,0,1,.773-.146,5.4,5.4,0,0,0,4.068,1.118.5.5,0,0,1,.523.332c1.4,4.093,5.239,2.591,6.31,7.138A27.17,27.17,0,0,0,226.822,248.2Z" transform="translate(-154.243 -175.938)" fill="#d6995c"/>
      <g id="Grupo_61129" data-name="Grupo 61129" transform="translate(37.798 47.508)">
        <path id="Trazado_108021" data-name="Trazado 108021" d="M209.9,211.574c-.13-.037-.372-.083-.573-.119a.245.245,0,0,1-.183-.343,5.2,5.2,0,0,0-8.363-5.9.246.246,0,0,1-.417-.125,6.307,6.307,0,0,0-10.153-3.694.249.249,0,0,1-.35-.035A5.19,5.19,0,0,0,180.739,204a.248.248,0,0,1-.233.217,7.411,7.411,0,0,0-1.682.293,7.305,7.305,0,0,0-4.975,7.25,6.664,6.664,0,0,0,1.9,4.675.237.237,0,0,1,.062.174,22.017,22.017,0,0,0,.233,5.027,6.554,6.554,0,0,0,3.791,5.049,2.48,2.48,0,0,1,1.217-2.152c1.513-1.251,4.126-1.476,4.785-3.783a.242.242,0,0,1,.272-.177,12.709,12.709,0,0,0,1.762.208,8.909,8.909,0,0,0,8.316-5.715.238.238,0,0,1,.409-.058,6.064,6.064,0,0,0,6.4,2.082.243.243,0,0,1,.3.163c1.519,4.961,5.318,3.36,5.318,7.99,2.488-1.124,3.976-4.965,4.685-7.518a5,5,0,0,0-3.392-6.151Z" transform="translate(-173.849 -199.5)" fill="#855b51"/>
      </g>
      <g id="Grupo_61130" data-name="Grupo 61130" transform="translate(37.464 52.518)">
        <path id="Trazado_108022" data-name="Trazado 108022" d="M180.032,239.77a2.969,2.969,0,0,0-1.075,2.459,7.11,7.11,0,0,1-4.23-5.22A22.35,22.35,0,0,1,174.47,232a.235.235,0,0,0-.062-.173,7.419,7.419,0,0,1,3.4-12.08,7.416,7.416,0,0,0-.68,10.6.235.235,0,0,1,.062.173,22.35,22.35,0,0,0,.257,5.006A6.917,6.917,0,0,0,180.032,239.77Z" transform="translate(-172.5 -219.75)" fill="#724d44"/>
      </g>
    </g>
    <g id="Grupo_61133" data-name="Grupo 61133" transform="translate(13.589 0)">
      <g id="Grupo_61132" data-name="Grupo 61132" transform="translate(0 0)">
        <path id="Trazado_108023" data-name="Trazado 108023" d="M381.672,137.249a2.442,2.442,0,0,0,2.2-.024c1.972-1.028,8.411-4.783,8.485-9.95a6.214,6.214,0,0,0-9.6-5.223,6.153,6.153,0,0,0-3.372-1,6.4,6.4,0,0,0-6.234,6.161C373.047,132.573,379.647,136.25,381.672,137.249Zm-2.3-12.488h.017a2.477,2.477,0,0,1,1.7.683h0a2.437,2.437,0,0,0,3.326,0,2.506,2.506,0,0,1,4.228,1.775c-.035,2.446-3.5,5.036-5.913,6.4-2.439-1.313-5.919-3.842-5.868-6.335A2.633,2.633,0,0,1,379.371,124.761Z" transform="translate(-284.185 -91.097)" fill="#47286d"/>
        <path id="Trazado_108024" data-name="Trazado 108024" d="M69.534,137.25a2.442,2.442,0,0,0,2.2-.024c1.972-1.028,8.41-4.783,8.485-9.95a6.214,6.214,0,0,0-9.6-5.223,6.156,6.156,0,0,0-3.416-1,6.3,6.3,0,0,0-6.19,6.161c-.108,5.362,6.492,9.039,8.518,10.039Zm-2.3-12.488h.017a2.476,2.476,0,0,1,1.7.683h0a2.437,2.437,0,0,0,3.326,0,2.506,2.506,0,0,1,4.228,1.775c-.035,2.446-3.5,5.036-5.914,6.4-2.439-1.313-5.918-3.842-5.868-6.335A2.633,2.633,0,0,1,67.233,124.761Z" transform="translate(-49.28 -91.097)" fill="#47286d"/>
        <path id="Trazado_108025" data-name="Trazado 108025" d="M27.848,51.88h5.971a.794.794,0,0,1,.564.233l4.042,4.034a3.192,3.192,0,0,0,4.48.016l4.12-4.053a.793.793,0,0,1,.56-.229h5.9a6.641,6.641,0,0,0,6.633-6.633V38.288a8.453,8.453,0,0,0,2.881.5h8a2.127,2.127,0,0,1,1.6.721l4.045,4.6a3.716,3.716,0,0,0,2.773,1.26h.015a3.716,3.716,0,0,0,2.768-1.237L86.338,39.5a2.127,2.127,0,0,1,1.584-.708h7.912a8.459,8.459,0,0,0,2.615-.414v6.868a6.641,6.641,0,0,0,6.633,6.633h5.971a.794.794,0,0,1,.564.233l4.042,4.034a3.193,3.193,0,0,0,4.48.016l4.12-4.053a.794.794,0,0,1,.56-.229h5.9a6.641,6.641,0,0,0,6.633-6.633V28.026a6.641,6.641,0,0,0-6.633-6.633H104.324V8.491A8.5,8.5,0,0,0,95.833,0H80.715a1.856,1.856,0,1,0,0,3.712H95.833a4.785,4.785,0,0,1,4.779,4.779V30.3a4.785,4.785,0,0,1-4.779,4.779H87.921a5.845,5.845,0,0,0-4.35,1.945l-4.146,4.631-4.045-4.6A5.839,5.839,0,0,0,71,35.081H63A4.785,4.785,0,0,1,58.218,30.3V8.491A4.785,4.785,0,0,1,63,3.712h9.057a1.856,1.856,0,0,0,0-3.712H63a8.5,8.5,0,0,0-8.491,8.491v12.9H27.848a6.641,6.641,0,0,0-6.633,6.633v17.22a6.641,6.641,0,0,0,6.633,6.633ZM130.718,25.1a2.925,2.925,0,0,1,2.921,2.922v17.22a2.925,2.925,0,0,1-2.921,2.922h-5.9a4.483,4.483,0,0,0-3.163,1.295l-3.747,3.686-3.67-3.663a4.48,4.48,0,0,0-3.186-1.318h-5.971a2.925,2.925,0,0,1-2.922-2.922v-9.29a8.456,8.456,0,0,0,2.164-5.655V25.1h26.393ZM24.927,28.026A2.925,2.925,0,0,1,27.848,25.1H54.507v5.2a8.451,8.451,0,0,0,1.9,5.343v9.6a2.925,2.925,0,0,1-2.922,2.922h-5.9a4.484,4.484,0,0,0-3.163,1.295l-3.747,3.686L37,49.485a4.481,4.481,0,0,0-3.186-1.318H27.848a2.925,2.925,0,0,1-2.922-2.922V28.026Z" transform="translate(-19.328 0)" fill="#47286d"/>
        <path id="Trazado_108026" data-name="Trazado 108026" d="M200.9,44.934c-.154,7.642,9.54,13.025,12.514,14.492a2.752,2.752,0,0,0,2.482-.027c2.9-1.512,12.378-7.021,12.484-14.4a8.544,8.544,0,0,0-13.736-6.787,8.5,8.5,0,0,0-5.231-1.758,8.674,8.674,0,0,0-8.513,8.481Zm8.539-4.77h.034a4.788,4.788,0,0,1,3.294,1.318h0a2.746,2.746,0,0,0,3.747,0,4.836,4.836,0,0,1,8.154,3.463c-.059,4.108-5.355,8.394-10.052,10.931-4.767-2.443-10.09-6.659-10.006-10.867A5,5,0,0,1,209.436,40.165Z" transform="translate(-154.549 -27.432)" fill="#47286d"/>
        <path id="Trazado_108027" data-name="Trazado 108027" d="M132.431,256.9V229.868a20.183,20.183,0,0,0-29.384-17.957,1.856,1.856,0,0,0,1.7,3.3,16.281,16.281,0,0,1,7.512-1.809,16.484,16.484,0,0,1,16.465,16.465v23.758c-.051-.022-.1-.048-.15-.069h0l-9.346-3.851v-3.628a21.957,21.957,0,0,0,6.318-14.545c0-6.775-3.016-12.1-8.069-14.241a1.859,1.859,0,0,0-1.438,0,1.931,1.931,0,0,0-1.1,1.316,13.388,13.388,0,0,1-10.254,10.2l-4.247.909a2.153,2.153,0,0,0-1.463,2.186,22.009,22.009,0,0,0,6.316,14.2v3.6L97.9,252.748a9.242,9.242,0,0,0-2.113-1.908V229.868a16.361,16.361,0,0,1,2.973-9.44,1.856,1.856,0,1,0-3.039-2.131,20.052,20.052,0,0,0-3.646,11.571v19.254l-10.156-4.185v-7.05c4.649-3.766,7.4-10.541,7.916-17.207,2.433-1.746,3.854-5.277,4.639-8.1a6.885,6.885,0,0,0-.9-5.669,6.8,6.8,0,0,0-2.8-2.4,7.117,7.117,0,0,0,.083-1.892,7.048,7.048,0,0,0-10.046-5.729,8.168,8.168,0,0,0-11.181-3.383,7.054,7.054,0,0,0-11.063,3.362A9.279,9.279,0,0,0,53,211.66a23.438,23.438,0,0,0,.316,4.807,8.83,8.83,0,0,0,4.333,6.082,30.407,30.407,0,0,0,.709,3.594,1.956,1.956,0,0,0,2.266,1.325,1.856,1.856,0,0,0,1.325-2.266,26.716,26.716,0,0,1-.711-3.855c-.082-.718.186-1.033,1.813-1.827a7.5,7.5,0,0,0,3.38-2.583,10.857,10.857,0,0,0,9.836-4.8,8.3,8.3,0,0,0,5.164,1.363,8.607,8.607,0,0,0,3.311,3.652c1.106.762,1.446,1,1.452,2.4-.384,8.673-5.183,17.629-12.565,17.629-4.08,0-6.819-2.592-8.4-4.767a1.856,1.856,0,1,0-3,2.181,17.317,17.317,0,0,0,3.108,3.314v7.03L53.032,250a9.277,9.277,0,0,0-3.711,2.778l-7.466-3.076V244a21.611,21.611,0,0,0,6.025-9.439,1.854,1.854,0,0,0,1.3-.834c1.929-3.014,5.635-12.153-.306-18.169a9.206,9.206,0,0,0-8.33-2.343,5.869,5.869,0,0,0-.389-.715c-2.506-3.916-8.984-4.465-14.747-1.25a1.856,1.856,0,1,0,1.808,3.241c4.323-2.411,8.564-1.942,9.813.009a4.048,4.048,0,0,1,.091,3.407,9.964,9.964,0,0,1-6.076,5.869,21.79,21.79,0,0,0-8.387,5.49,16.9,16.9,0,0,1-.142-9.123,1.856,1.856,0,1,0-3.554-1.071c-1.712,5.679-.035,12.192,1.639,14.806a1.855,1.855,0,0,0,1.344.841,21.67,21.67,0,0,0,5.974,9.264v5.721c-.17.075-9.27,3.811-9.45,3.9A8.019,8.019,0,0,0,13.589,261v5.848a4.338,4.338,0,0,0,4.333,4.333h111.3a4.337,4.337,0,0,0,4.333-4.333V261a8.033,8.033,0,0,0-1.12-4.1ZM84.405,210.875a1.856,1.856,0,0,0-2.36-1.265,4.209,4.209,0,0,1-4.785-1.645,1.856,1.856,0,0,0-3.3.463,7.037,7.037,0,0,1-6.7,4.852,12.627,12.627,0,0,1-1.631-.215,1.856,1.856,0,0,0-2.16,1.424c-.16.726-.711,1.055-2.025,1.683a7.559,7.559,0,0,0-3.109,2.271,5.076,5.076,0,0,1-1.375-2.659,20.732,20.732,0,0,1-.225-4.617,1.856,1.856,0,0,0-.488-1.405,5.564,5.564,0,0,1,3.917-9.343,1.856,1.856,0,0,0,1.793-1.682,3.335,3.335,0,0,1,5.981-1.7,1.856,1.856,0,0,0,2.7.273,4.451,4.451,0,0,1,7.356,2.842,1.856,1.856,0,0,0,3.272.976,3.31,3.31,0,0,1,2.877-1.2,3.34,3.34,0,0,1,2.625,4.931A1.855,1.855,0,0,0,88.2,207.6a3.115,3.115,0,0,1,2.286,1.366,3.176,3.176,0,0,1,.415,2.616,17.513,17.513,0,0,1-1.883,4.562,7.2,7.2,0,0,0-2.176-2.051A4.961,4.961,0,0,1,84.405,210.875Zm21.051,21.564a17.114,17.114,0,0,0,12.394-10.653c2.524,1.97,3.979,5.46,3.979,9.748,0,6.66-5.8,14.364-9.577,14.364-3.5,0-8.737-6.559-9.486-12.883ZM70.33,267.468a36.464,36.464,0,0,0-6.909-17.729l3.328-1.371a10.363,10.363,0,0,0,6.875,2.611h0a10.367,10.367,0,0,0,6.879-2.611l3.276,1.35a36.482,36.482,0,0,0-6.967,17.75Zm17.006-16.285,5.47,2.254a5.557,5.557,0,0,1,3.451,5.155v8.877h-15.7A32.72,32.72,0,0,1,87.336,251.183ZM73.624,240.89a12.747,12.747,0,0,0,4.586-.839v5.388a6.658,6.658,0,0,1-4.584,1.828h0a6.658,6.658,0,0,1-4.583-1.826v-5.385A12.83,12.83,0,0,0,73.624,240.89Zm-26.34,26.578H44.047l3.236-3.757Zm.022-9.47-8.157,9.47H30.7L22.2,256.078l7.155-2.948a8.614,8.614,0,0,0,5.534,2.013h0a8.612,8.612,0,0,0,5.535-2.014l7.205,2.969A9.3,9.3,0,0,0,47.306,258Zm-1.073-39.831c3.23,3.271,2.213,8.232.939,11.341a31.412,31.412,0,0,0-5.083-4.11,8.95,8.95,0,0,1-3.055-3.186,12.105,12.105,0,0,0,1.6-3.112,9.645,9.645,0,0,0,.474-2.2A5.629,5.629,0,0,1,46.232,218.167ZM25.068,232.121a18.025,18.025,0,0,1,7.245-4.854,14.61,14.61,0,0,0,4.077-2.274,12.934,12.934,0,0,0,3.7,3.531,27.85,27.85,0,0,1,4.581,3.733c-1.431,6.093-6.421,11.166-9.784,11.166s-8.426-5.159-9.817-11.3Zm9.817,15.013a8.354,8.354,0,0,0,3.259-.716V250.2a4.9,4.9,0,0,1-3.257,1.237h0a4.9,4.9,0,0,1-3.256-1.238v-3.782a8.308,8.308,0,0,0,3.256.721ZM17.3,266.847V261a4.32,4.32,0,0,1,1.493-3.273l7.277,9.742H17.922A.622.622,0,0,1,17.3,266.847ZM51,258.591a5.557,5.557,0,0,1,3.451-5.155L59.87,251.2a32.709,32.709,0,0,1,6.72,16.266H51v-8.877Zm48.973,8.877v-8.877a9.325,9.325,0,0,0-.354-2.534l5.686-2.343c.072,4.676.505,9.589,3.106,13.753ZM109,250.945V248.8a6.978,6.978,0,0,0,6.514,0s0,1.961,0,2.154c0,5.569,0,11.316-3.257,15.551C109,262.277,109,256.523,109,250.949A.021.021,0,0,0,109,250.945Zm20.843,15.9a.622.622,0,0,1-.621.621H116.1c2.6-4.168,3.035-9.08,3.108-13.753l7.946,3.274h0A4.322,4.322,0,0,1,129.839,261Z" transform="translate(-13.589 -144.492)" fill="#47286d"/>
      </g>
    </g>
  </g>
</svg>
